<svg xmlns="http://www.w3.org/2000/svg" width="12" height="12" viewBox="0 0 12 12" fill="none">
    <path
        d="M2.85234 1.49063H7.84687C8.58515 1.49063 9.18047 2.08477 9.18047 2.82422V7.81876C9.18047 8.55704 8.58633 9.15235 7.84687 9.15235H2.85234C2.11406 9.15235 1.51875 8.55821 1.51875 7.81876V2.82422C1.51875 2.08594 2.11289 1.49063 2.85234 1.49063ZM2.23828 7.7836C2.23828 8.13165 2.52304 8.43282 2.8875 8.43282H7.81172C8.15976 8.43282 8.46093 8.14805 8.46093 7.7836V2.85938C8.46093 2.51133 8.17617 2.21016 7.81172 2.21016H2.8875C2.53945 2.21016 2.23828 2.49493 2.23828 2.85938V7.7836Z"
        fill="#999999" />
    <path
        d="M10.1766 3.27304C10.3547 3.27304 10.493 3.41132 10.5117 3.57187V9.1207C10.4695 9.88476 9.84375 10.4836 9.06914 10.4836H3.62461C3.44766 10.4836 3.30352 10.3394 3.28711 10.1625C3.28711 9.97031 3.44766 9.825 3.62461 9.825L9.05156 9.82617C9.48516 9.82617 9.83906 9.47226 9.83906 9.03867V3.61054C9.83906 3.41835 9.99961 3.27304 10.1766 3.27304Z"
        fill="#999999" />
</svg>