<svg width="12" height="12" viewBox="0 0 12 12" fill="none" xmlns="http://www.w3.org/2000/svg">
<path d="M11.186 0.14454C11.2297 0.0993203 11.2819 0.0632516 11.3397 0.0384383C11.3974 0.013625 11.4596 0.000564156 11.5224 1.78761e-05C11.5853 -0.000528404 11.6476 0.0114508 11.7058 0.0352565C11.764 0.0590622 11.8169 0.0942177 11.8613 0.138672C11.9058 0.183126 11.9409 0.235988 11.9647 0.294173C11.9885 0.352359 12.0005 0.414704 12 0.477569C11.9994 0.540434 11.9864 0.60256 11.9616 0.660324C11.9367 0.718087 11.9007 0.77033 11.8555 0.814005L5.16034 7.50928C5.07154 7.59808 4.95111 7.64797 4.82553 7.64797C4.69995 7.64797 4.57951 7.59808 4.49072 7.50928C4.40192 7.42049 4.35203 7.30005 4.35203 7.17447C4.35203 7.04889 4.40192 6.92846 4.49072 6.83966L11.186 0.144698V0.14454ZM11.0473 5.056C11.0473 4.93043 11.0972 4.81001 11.1859 4.72122C11.2747 4.63243 11.3952 4.58255 11.5207 4.58255C11.6463 4.58255 11.7667 4.63243 11.8555 4.72122C11.9443 4.81001 11.9942 4.93043 11.9942 5.056V10.264C11.9942 11.2227 11.2169 12 10.2582 12H1.736C0.777255 12 0 11.2227 0 10.264V1.74182C0 0.783072 0.777255 0.00581789 1.736 0.00581789H6.78618C6.91175 0.00581789 7.03218 0.0556997 7.12097 0.14449C7.20976 0.23328 7.25964 0.353705 7.25964 0.479273C7.25964 0.604841 7.20976 0.725265 7.12097 0.814055C7.03218 0.902845 6.91175 0.952727 6.78618 0.952727H1.736C1.52672 0.952727 1.32601 1.03586 1.17803 1.18385C1.03005 1.33183 0.946909 1.53254 0.946909 1.74182V10.264C0.946909 10.4733 1.03005 10.674 1.17803 10.822C1.32601 10.97 1.52672 11.0531 1.736 11.0531H10.2582C10.4675 11.0531 10.6682 10.97 10.8162 10.822C10.9641 10.674 11.0473 10.4733 11.0473 10.264V5.056Z" fill="white"/>
</svg>
