<svg width="24" height="32" viewBox="0 0 24 32" fill="none" xmlns="http://www.w3.org/2000/svg">
<path d="M1 14.2898L4.5894 12.0593C5.44402 11.5016 7.56348 10.7209 9.20435 12.0593C11.2554 13.7322 11.2554 15.4067 13.8193 16.522C15.8704 17.4142 17.0668 16.8938 17.4087 16.522M10.2299 13.1762L7.66603 16.522C6.98234 17.2655 6.02516 18.9756 7.66603 19.8678C9.71712 20.9831 10.2299 22.656 10.2299 23.7712C10.2299 24.6635 10.2299 25.2583 10.2299 26.0018" stroke="#999999" stroke-width="1.5" stroke-linecap="round" stroke-linejoin="round"/>
<ellipse cx="14.6646" cy="9.23491" rx="2.23491" ry="2.23491" stroke="#999999" stroke-width="1.5"/>
<path d="M5.31808 21.6797L4.02265 23.2342C3.73478 23.5796 2.89995 24.2705 1.86362 24.2705C0.827277 24.2705 1.14394 24.2705 1 24.2705" stroke="#999999" stroke-width="1.5" stroke-linecap="round" stroke-linejoin="round"/>
</svg>
