<svg width="48" height="48" viewBox="0 0 48 48" fill="none" xmlns="http://www.w3.org/2000/svg">
<circle cx="24" cy="24" r="24" fill="white" fill-opacity="0.1"/>
<path d="M26.2461 21.7934C26.1013 21.6486 25.9469 21.518 25.7878 21.397L25.7875 21.3973C25.6238 21.2398 25.4015 21.1428 25.1563 21.1428C24.6533 21.1428 24.2455 21.5506 24.2455 22.0537C24.2455 22.2763 24.3254 22.4802 24.4581 22.6384C24.4581 22.6384 24.4581 22.6385 24.4582 22.6385C24.5219 22.7145 24.5977 22.78 24.6828 22.8319C24.7687 22.9027 24.853 22.9725 24.9319 23.0513L25.007 23.1264C25.951 24.0693 25.6692 25.6938 24.7251 26.6378L20.6967 30.6651C19.7526 31.608 18.2179 31.608 17.2738 30.6651L17.1981 30.5893C16.254 29.6453 16.254 28.1094 17.1981 27.1677L18.9778 25.3885C19.2062 25.2073 19.3528 24.9276 19.3528 24.6134C19.3528 24.067 18.9099 23.6241 18.3635 23.6241C18.1573 23.6241 17.9659 23.6872 17.8074 23.7951C17.8069 23.7941 17.8064 23.793 17.8058 23.792L17.7869 23.8097C17.7168 23.8601 17.6535 23.9192 17.5988 23.9857L15.7492 25.7164C14.0107 27.4562 14.0107 30.3015 15.7492 32.0389L15.8243 32.1139C17.5629 33.8513 20.407 33.8513 22.1456 32.1139L26.1729 28.0855C27.909 26.347 28.0562 23.6046 26.3201 21.8673L26.2461 21.7934Z" fill="#C8C8C8"/>
<path d="M32.0537 15.8861L31.9786 15.811C30.2401 14.0724 27.3959 14.0724 25.6574 15.811L21.6301 19.8394C19.8916 21.578 19.7958 24.0886 21.5344 25.8282L21.6083 25.901C21.6872 25.9799 21.7692 26.0544 21.8528 26.1257C21.9134 26.1934 21.9845 26.2513 22.0636 26.297C22.0642 26.2975 22.0648 26.298 22.0654 26.2985L22.0657 26.2983C22.1917 26.3708 22.3378 26.4124 22.4936 26.4124C22.9685 26.4124 23.3535 26.0274 23.3535 25.5525C23.3535 25.4185 23.3228 25.2916 23.2681 25.1785C23.1544 24.9232 22.9416 24.7678 22.7944 24.6206L22.7205 24.5479C21.7765 23.6039 22.135 22.2324 23.079 21.2884L27.1086 17.2611C28.0503 16.317 29.5856 16.317 30.5297 17.2611L30.6048 17.335C31.5489 18.2791 31.5489 19.8156 30.6048 20.7584L28.8309 22.5335C28.5896 22.7123 28.4331 22.9991 28.4331 23.3225C28.4331 23.8645 28.8724 24.3039 29.4144 24.3039C29.6031 24.3039 29.7792 24.2505 29.9288 24.1583C29.9299 24.1602 29.9309 24.162 29.9321 24.1639L29.9596 24.1385C30.0443 24.0818 30.1196 24.0121 30.1829 23.9324L32.0524 22.2074C33.7923 20.4688 33.7923 17.6246 32.0537 15.8861Z" fill="#C8C8C8"/>
</svg>
