<svg width="14" height="16" viewBox="0 0 14 16" fill="none" xmlns="http://www.w3.org/2000/svg">
    <path d="M8.08727 12.8565L10.7121 12.1599C10.6936 11.9799 10.6286 11.5544 10.4085 11.0537C10.2381 10.6664 10.0093 10.31 9.72815 9.99446C9.3769 9.59998 8.94213 9.26819 8.436 9.00826C7.97667 8.77228 7.60541 8.56847 7.3326 8.40227C6.97667 8.18569 6.85448 7.72967 7.05441 7.36407C7.20758 7.08373 7.42719 6.7216 7.70701 6.28764C8.01676 5.80737 8.22779 5.30035 8.33433 4.78071C8.41946 4.36571 8.43872 3.94132 8.39133 3.51956C8.33056 2.97905 8.17597 2.58375 8.10251 2.42007L5.48129 3.12907L2.85645 3.82575C2.87502 4.00585 2.93986 4.43122 3.16011 4.93189C3.3305 5.31937 3.55927 5.67573 3.84029 5.99121C4.19168 6.38565 4.62639 6.71753 5.13253 6.97747C5.59191 7.21336 5.96316 7.41717 6.23598 7.58337C6.59193 7.80002 6.71411 8.25604 6.51417 8.62157C6.361 8.90191 6.14139 9.26404 5.86152 9.69809C5.55316 10.1763 5.34261 10.681 5.23551 11.1983C5.1499 11.6121 5.12998 12.0351 5.17612 12.4557C5.23572 12.9995 5.39223 13.4002 5.46622 13.5655L8.08727 12.8565ZM10.8674 12.3621C10.8673 12.3622 10.8671 12.3622 10.8671 12.3622L8.14817 13.0838L5.43307 13.8182C5.433 13.8183 5.433 13.8183 5.43285 13.8183C5.3803 13.8324 5.32489 13.8084 5.29902 13.7606C5.28799 13.7401 5.02907 13.254 4.94356 12.4923C4.8935 12.0459 4.91369 11.5968 5.00381 11.1575C5.11638 10.6093 5.33837 10.0753 5.66396 9.57048C5.94073 9.14116 6.15742 8.78388 6.30789 8.50864C6.44739 8.25368 6.36209 7.93536 6.1138 7.78431C5.84587 7.62118 5.47955 7.42003 5.02521 7.18661C4.49082 6.91222 4.03158 6.56082 3.66 6.14233C3.36231 5.80694 3.12026 5.42812 2.94042 5.01646C2.63368 4.31427 2.61482 3.76369 2.61418 3.74059C2.61262 3.68608 2.64866 3.63775 2.70121 3.62367C2.70136 3.62363 2.70136 3.62363 2.70143 3.62361L5.42041 2.90186L8.13547 2.16756C8.13547 2.16756 8.13562 2.16753 8.13576 2.16749C8.18832 2.1534 8.24369 2.17724 8.26959 2.22522C8.28059 2.24556 8.53955 2.7318 8.62492 3.4933C8.67508 3.93971 8.65487 4.3888 8.56469 4.82812C8.4522 5.37632 8.23019 5.91026 7.9046 6.41508C7.62783 6.8444 7.41112 7.20161 7.26069 7.477C7.12119 7.73196 7.20649 8.05028 7.45477 8.20133C7.72274 8.36461 8.08901 8.56553 8.54335 8.79895C9.07774 9.07334 9.537 9.42482 9.90851 9.84332C10.2062 10.1786 10.4483 10.5575 10.6281 10.9691C10.9349 11.6715 10.9538 12.2221 10.9544 12.2452C10.956 12.2996 10.92 12.348 10.8674 12.3621Z" fill="white"/>
    <path d="M8.10337 12.9163L10.5887 12.2565C10.3892 11.7627 9.56195 11.2857 8.83058 10.864C8.19948 10.5001 7.6033 10.1563 7.4661 9.84051C7.27642 9.40407 6.93996 8.37757 6.79744 7.84334C6.70312 7.49017 6.77488 7.15094 6.99409 6.91267C7.21897 6.66819 7.42532 6.34493 7.52465 6.18964C7.53501 6.17319 7.54438 6.15857 7.55251 6.14608C7.69213 5.92945 7.81049 5.70469 7.90419 5.47794C8.02913 5.17594 8.03882 4.96952 7.93276 4.86465C7.7639 4.69748 7.29784 4.76993 6.58515 5.07395C6.11224 5.27566 5.58158 5.36707 5.05065 5.33855C4.21212 5.29331 3.96953 5.4248 3.91377 5.54294C3.86935 5.63696 3.92347 5.76839 4.07469 5.93358C4.38265 6.26973 4.75985 6.55375 5.19562 6.77761C5.41441 6.89 5.73419 7.04518 6.01477 7.14648C6.33107 7.26064 6.56436 7.52219 6.67151 7.88302C6.76849 8.20938 6.86047 8.63489 6.95796 9.08533C7.02269 9.38463 7.08979 9.69423 7.15985 9.98109C7.26459 10.4093 7.21027 10.8355 6.99371 11.2845C6.80548 11.6748 6.51728 12.0341 6.26318 12.3511C5.89299 12.8126 5.57215 13.2127 5.62155 13.5874L8.10337 12.9163ZM10.6293 12.2987C10.6293 12.2987 10.6293 12.2987 10.6292 12.2987L8.11661 12.9657L5.60733 13.6443C5.6004 13.6462 5.59315 13.645 5.58705 13.6412C5.58096 13.6375 5.57685 13.6311 5.57561 13.6242C5.50197 13.2185 5.83617 12.8017 6.22319 12.3191C6.74611 11.667 7.33894 10.9279 7.11016 9.99331C7.03988 9.70565 6.97287 9.39579 6.90797 9.09615C6.8108 8.64664 6.71891 8.22204 6.62253 7.89762C6.52009 7.55265 6.29814 7.30306 5.99742 7.19457C5.71434 7.09237 5.39248 6.93619 5.17235 6.82314C4.73104 6.59639 4.34904 6.30874 4.03697 5.96806C3.87043 5.7862 3.81331 5.63572 3.8676 5.52109C3.95845 5.32862 4.35744 5.24992 5.05336 5.28743C5.57654 5.31561 6.09928 5.22554 6.56503 5.02684C7.309 4.70952 7.78126 4.64275 7.96879 4.82828C8.09098 4.94929 8.08503 5.17432 7.95147 5.49753C7.85649 5.72705 7.73676 5.9546 7.59536 6.1739C7.58733 6.18621 7.57811 6.20079 7.56771 6.21709C7.46765 6.37374 7.25962 6.69949 7.03172 6.94727C6.82456 7.17247 6.75721 7.49435 6.84682 7.83026C6.98888 8.36275 7.3241 9.38551 7.513 9.82021C7.64355 10.1205 8.2326 10.4601 8.85614 10.8197C9.64468 11.2744 10.4601 11.7445 10.6467 12.2654C10.6491 12.272 10.6486 12.2796 10.6453 12.2859C10.642 12.2922 10.6362 12.2968 10.6293 12.2987Z" fill="white"/>
    <mask id="mask0_10280_3017" style="mask-type:luminance" maskUnits="userSpaceOnUse" x="1" y="0" width="8" height="4">
    <path d="M1.5 2.68701L8.70605 0.756157L8.95773 1.69545L1.75168 3.6263L1.5 2.68701Z" fill="white"/>
    </mask>
    <g mask="url(#mask0_10280_3017)">
    <path d="M1.99459 2.79769C1.88066 2.82822 1.81286 2.94576 1.84338 3.05969L1.861 3.12544C1.89155 3.23945 2.00906 3.30741 2.12299 3.27689L8.46271 1.57816C8.57664 1.54763 8.64443 1.43002 8.61388 1.31601L8.59626 1.25026C8.56573 1.13633 8.44824 1.06844 8.33431 1.09897L1.99459 2.79769ZM8.52359 1.80537L2.18387 3.50409C1.94464 3.56819 1.69792 3.42563 1.6338 3.18632L1.61618 3.12057C1.55206 2.88127 1.69446 2.63452 1.93369 2.57041L8.27342 0.87169C8.5125 0.807627 8.75935 0.950081 8.82347 1.18939L8.84108 1.25513C8.90521 1.49444 8.76268 1.7413 8.52359 1.80537Z" fill="white"/>
    </g>
    <path d="M2.38396 3.45216C2.32951 3.46675 2.29717 3.52275 2.31178 3.57728L2.32344 3.62079C2.33803 3.67524 2.39406 3.70765 2.44851 3.69306L8.38995 2.10106C8.44441 2.08647 8.47672 2.03039 8.46213 1.97594L8.45047 1.93242C8.43586 1.8779 8.37985 1.84556 8.3254 1.86015L2.38396 3.45216ZM8.45081 2.32819L2.50937 3.9202C2.32977 3.96832 2.14438 3.86135 2.09624 3.68167L2.08458 3.63816C2.03641 3.4584 2.14348 3.27308 2.32308 3.22495L8.26452 1.63295C8.44413 1.58482 8.62937 1.69183 8.67753 1.87158L8.68919 1.9151C8.73734 2.09478 8.63042 2.28007 8.45081 2.32819Z" fill="white"/>
    <mask id="mask1_10280_3017" style="mask-type:luminance" maskUnits="userSpaceOnUse" x="4" y="12" width="9" height="4">
    <path d="M4.61279 14.3037L11.8188 12.3729L12.0706 13.3124L4.86453 15.2432L4.61279 14.3037Z" fill="white"/>
    </mask>
    <g mask="url(#mask1_10280_3017)">
    <path d="M5.10906 14.4206C4.99513 14.4511 4.92733 14.5687 4.95787 14.6827L4.97551 14.7485C5.00606 14.8625 5.12355 14.9304 5.23748 14.8999L11.5772 13.2012C11.6911 13.1706 11.7589 13.0531 11.7284 12.9391L11.7108 12.8733C11.6802 12.7593 11.5627 12.6914 11.4488 12.7219L5.10906 14.4206ZM11.6381 13.4283L5.29834 15.127C5.05911 15.1911 4.81241 15.0486 4.74831 14.8094L4.73067 14.7436C4.66653 14.5042 4.80893 14.2574 5.04816 14.1933L11.3879 12.4946C11.627 12.4306 11.8738 12.573 11.938 12.8124L11.9556 12.8782C12.0197 13.1174 11.8772 13.3642 11.6381 13.4283Z" fill="white"/>
    </g>
    <path d="M5.18392 13.9017C5.12947 13.9163 5.09715 13.9724 5.11172 14.0268L5.12342 14.0705C5.13797 14.1248 5.194 14.1572 5.24845 14.1426L11.1899 12.5506C11.2443 12.536 11.2767 12.4799 11.2621 12.4256L11.2504 12.3819C11.2358 12.3276 11.1798 12.2951 11.1254 12.3097L5.18392 13.9017ZM11.2508 12.7778L5.30935 14.3699C5.12974 14.418 4.94432 14.3109 4.89622 14.1313L4.88452 14.0877C4.83639 13.9081 4.94343 13.7227 5.12304 13.6745L11.0645 12.0825C11.2441 12.0344 11.4293 12.1415 11.4775 12.3211L11.4892 12.3648C11.5373 12.5443 11.4304 12.7297 11.2508 12.7778Z" fill="white"/>
    </svg>
    