<svg width="16" height="17" viewBox="0 0 16 17" fill="none" xmlns="http://www.w3.org/2000/svg">
    <g clip-path="url(#clip0_15487_11093)">
    <path d="M11.9683 2.75H3.86442C2.37441 2.75 1.43 4.35728 2.17963 5.65663L7.18104 14.3255C7.50741 14.8915 8.32531 14.8915 8.65169 14.3255L13.6541 5.65663C14.4027 4.35936 13.4583 2.75 11.9693 2.75H11.9683ZM7.17697 11.7258L6.08775 9.61776L3.45956 4.91721C3.28618 4.61635 3.50033 4.23082 3.86341 4.23082H7.17595V11.7268L7.17697 11.7258ZM12.3711 4.9162L9.74396 9.61878L8.65474 11.7258V4.2298H11.9673C12.3304 4.2298 12.5445 4.61534 12.3711 4.9162Z" fill="white"/>
    </g>
    <defs>
    <clipPath id="clip0_15487_11093">
    <rect width="16" height="16" fill="white" transform="translate(0 0.25)"/>
    </clipPath>
    </defs>
    </svg>
    