<svg width="60" height="60" viewBox="0 0 60 60" fill="none" xmlns="http://www.w3.org/2000/svg">
<path d="M47.3549 15.3862C45.9421 11.9445 43.5378 9.00062 40.4477 6.92879C37.3576 4.85696 33.7212 3.75073 30.0009 3.75073C26.2805 3.75073 22.6441 4.85696 19.554 6.92879C16.4639 9.00062 14.0596 11.9445 12.6468 15.3862C9.56932 16.1117 6.82868 17.859 4.87227 20.343C2.91587 22.8269 1.85926 25.9006 1.87493 29.0624C1.87493 36.8174 8.18243 43.1249 15.9374 43.1249H21.2981C21.7953 43.1249 22.2722 42.9274 22.6239 42.5757C22.9755 42.2241 23.1731 41.7472 23.1731 41.2499C23.1731 40.7526 22.9755 40.2757 22.6239 39.9241C22.2722 39.5725 21.7953 39.3749 21.2981 39.3749H15.9374C13.2033 39.3719 10.582 38.2845 8.64868 36.3512C6.71535 34.4178 5.62791 31.7965 5.62493 29.0624C5.61264 26.6032 6.48442 24.2214 8.08137 22.3512C9.67833 20.4809 11.8941 19.2468 14.3249 18.8737L15.4406 18.6993L15.8062 17.6305C17.8856 11.5705 23.5893 7.49991 29.9999 7.49991C33.1262 7.49903 36.1746 8.47496 38.7191 10.2913C41.2636 12.1076 43.1769 14.6736 44.1918 17.6305L44.5593 18.6993L45.6749 18.8737C48.1057 19.2468 50.3215 20.4809 51.9185 22.3512C53.5154 24.2214 54.3872 26.6032 54.3749 29.0624C54.3749 34.7474 49.7474 39.3749 44.0624 39.3749H38.3624C37.8651 39.3749 37.3882 39.5725 37.0366 39.9241C36.685 40.2757 36.4874 40.7526 36.4874 41.2499C36.4874 41.7472 36.685 42.2241 37.0366 42.5757C37.3882 42.9274 37.8651 43.1249 38.3624 43.1249H44.0624C51.8174 43.1249 58.1249 36.8174 58.1249 29.0624C58.1407 25.9009 57.0844 22.8273 55.1283 20.3434C53.1723 17.8596 50.4321 16.1121 47.3549 15.3862Z" fill="#999999"/>
<path d="M38.0738 33.4012C38.2644 33.5572 38.4838 33.6741 38.7196 33.7453C38.9553 33.8165 39.2028 33.8405 39.4479 33.8161C39.6929 33.7916 39.9308 33.7191 40.1478 33.6027C40.3649 33.4863 40.5569 33.3284 40.7128 33.1378C40.8688 32.9472 40.9857 32.7278 41.0569 32.492C41.1281 32.2562 41.1521 32.0087 41.1277 31.7637C41.1032 31.5186 41.0307 31.2808 40.9144 31.0637C40.798 30.8467 40.64 30.6547 40.4494 30.4987L31.1888 22.9162C30.8536 22.6414 30.4335 22.4912 30 22.4912C29.5666 22.4912 29.1465 22.6414 28.8113 22.9162L19.4925 30.5475C19.1943 30.7929 18.979 31.1243 18.876 31.4966C18.7731 31.8689 18.7875 32.2638 18.9173 32.6276C19.0471 32.9914 19.2859 33.3063 19.6013 33.5293C19.9167 33.7523 20.2932 33.8726 20.6794 33.8737C21.1125 33.8744 21.5323 33.7238 21.8663 33.4481L28.125 28.3275V53.4375C28.125 53.9347 28.3226 54.4117 28.6742 54.7633C29.0258 55.1149 29.5027 55.3125 30 55.3125C30.4973 55.3125 30.9742 55.1149 31.3259 54.7633C31.6775 54.4117 31.875 53.9347 31.875 53.4375V28.3275L38.0738 33.4012Z" fill="#999999"/>
</svg>
