<svg width="20" height="20" viewBox="0 0 20 20" fill="none" xmlns="http://www.w3.org/2000/svg">
<path d="M4.09441 6.44618C7.35598 3.18461 12.644 3.18461 15.9056 6.44618L16.2981 6.83871C16.4612 7.00179 16.4612 7.26619 16.2981 7.42927L14.9554 8.77206C14.8738 8.8536 14.7416 8.8536 14.6601 8.77206L14.1199 8.23188C11.8445 5.95653 8.15547 5.95653 5.88012 8.23188L5.30164 8.81036C5.2201 8.8919 5.0879 8.8919 5.00636 8.81036L3.66357 7.46758C3.50049 7.3045 3.50049 7.0401 3.66357 6.87702L4.09441 6.44618ZM18.6826 9.2232L19.8777 10.4183C20.0408 10.5814 20.0408 10.8458 19.8777 11.0088L14.489 16.3976C14.3259 16.5607 14.0615 16.5607 13.8984 16.3976C13.8984 16.3976 13.8984 16.3976 13.8984 16.3976L10.0739 12.5731C10.0331 12.5323 9.96699 12.5323 9.92622 12.5731H9.92621L6.10172 16.3976C5.93865 16.5607 5.67424 16.5607 5.51116 16.3976C5.51116 16.3976 5.51116 16.3976 5.51116 16.3976L0.122309 11.0088C-0.0407696 10.8457 -0.0407696 10.5813 0.122309 10.4182L1.31739 9.22313C1.48047 9.06005 1.74487 9.06005 1.90795 9.22313L5.73258 13.0478C5.77335 13.0885 5.83945 13.0885 5.88022 13.0478C5.88022 13.0478 5.88022 13.0478 5.88022 13.0478L9.70466 9.22313C9.86773 9.06005 10.1321 9.06004 10.2952 9.22311C10.2952 9.22312 10.2952 9.22312 10.2952 9.22312L14.1198 13.0478C14.1606 13.0885 14.2267 13.0885 14.2675 13.0478L18.0921 9.2232C18.2551 9.06012 18.5195 9.06012 18.6826 9.2232Z" fill="#3B99FC"/>
</svg>
