<svg width="96" height="111" viewBox="0 0 96 111" fill="none" xmlns="http://www.w3.org/2000/svg">
<g filter="url(#filter0_d_3573_38773)">
<g clip-path="url(#clip0_3573_38773)">
<g filter="url(#filter1_biii_3573_38773)">
<path d="M25 32C25 29.7909 26.7909 28 29 28H67C69.2091 28 71 29.7909 71 32V70C71 72.2091 69.2091 74 67 74H29C26.7909 74 25 72.2091 25 70V32Z" fill="url(#paint0_linear_3573_38773)" fill-opacity="0.15"/>
</g>
<path d="M40 24C40 22.8954 40.8954 22 42 22H54C55.1046 22 56 22.8954 56 24V36H40V24Z" fill="url(#paint1_linear_3573_38773)"/>
<path d="M37 46C37 45.4477 37.4477 45 38 45H40C40.5523 45 41 45.4477 41 46V48C41 48.5523 40.5523 49 40 49H38C37.4477 49 37 48.5523 37 48V46Z" fill="white" fill-opacity="0.7"/>
<path d="M37 55C37 54.4477 37.4477 54 38 54H40C40.5523 54 41 54.4477 41 55V57C41 57.5523 40.5523 58 40 58H38C37.4477 58 37 57.5523 37 57V55Z" fill="white" fill-opacity="0.7"/>
<path d="M46 46C46 45.4477 46.4477 45 47 45H49C49.5523 45 50 45.4477 50 46V48C50 48.5523 49.5523 49 49 49H47C46.4477 49 46 48.5523 46 48V46Z" fill="white" fill-opacity="0.7"/>
<path d="M46 55C46 54.4477 46.4477 54 47 54H49C49.5523 54 50 54.4477 50 55V57C50 57.5523 49.5523 58 49 58H47C46.4477 58 46 57.5523 46 57V55Z" fill="white" fill-opacity="0.7"/>
<path d="M46 64C46 63.4477 46.4477 63 47 63H49C49.5523 63 50 63.4477 50 64V66C50 66.5523 49.5523 67 49 67H47C46.4477 67 46 66.5523 46 66V64Z" fill="white" fill-opacity="0.7"/>
<path d="M55 46C55 45.4477 55.4477 45 56 45H58C58.5523 45 59 45.4477 59 46V48C59 48.5523 58.5523 49 58 49H56C55.4477 49 55 48.5523 55 48V46Z" fill="white" fill-opacity="0.7"/>
<path d="M55 55C55 54.4477 55.4477 54 56 54H58C58.5523 54 59 54.4477 59 55V57C59 57.5523 58.5523 58 58 58H56C55.4477 58 55 57.5523 55 57V55Z" fill="white" fill-opacity="0.7"/>
</g>
</g>
<defs>
<filter id="filter0_d_3573_38773" x="-20" y="-3" width="136" height="136" filterUnits="userSpaceOnUse" color-interpolation-filters="sRGB">
<feFlood flood-opacity="0" result="BackgroundImageFix"/>
<feColorMatrix in="SourceAlpha" type="matrix" values="0 0 0 0 0 0 0 0 0 0 0 0 0 0 0 0 0 0 127 0" result="hardAlpha"/>
<feOffset dy="17"/>
<feGaussianBlur stdDeviation="10"/>
<feColorMatrix type="matrix" values="0 0 0 0 0 0 0 0 0 0 0 0 0 0 0 0 0 0 0.02 0"/>
<feBlend mode="normal" in2="BackgroundImageFix" result="effect1_dropShadow_3573_38773"/>
<feBlend mode="normal" in="SourceGraphic" in2="effect1_dropShadow_3573_38773" result="shape"/>
</filter>
<filter id="filter1_biii_3573_38773" x="11" y="14" width="74" height="74" filterUnits="userSpaceOnUse" color-interpolation-filters="sRGB">
<feFlood flood-opacity="0" result="BackgroundImageFix"/>
<feGaussianBlur in="BackgroundImageFix" stdDeviation="7"/>
<feComposite in2="SourceAlpha" operator="in" result="effect1_backgroundBlur_3573_38773"/>
<feBlend mode="normal" in="SourceGraphic" in2="effect1_backgroundBlur_3573_38773" result="shape"/>
<feColorMatrix in="SourceAlpha" type="matrix" values="0 0 0 0 0 0 0 0 0 0 0 0 0 0 0 0 0 0 127 0" result="hardAlpha"/>
<feOffset dy="3"/>
<feGaussianBlur stdDeviation="1.5"/>
<feComposite in2="hardAlpha" operator="arithmetic" k2="-1" k3="1"/>
<feColorMatrix type="matrix" values="0 0 0 0 1 0 0 0 0 1 0 0 0 0 1 0 0 0 0.08 0"/>
<feBlend mode="normal" in2="shape" result="effect2_innerShadow_3573_38773"/>
<feColorMatrix in="SourceAlpha" type="matrix" values="0 0 0 0 0 0 0 0 0 0 0 0 0 0 0 0 0 0 127 0" result="hardAlpha"/>
<feOffset dy="4"/>
<feGaussianBlur stdDeviation="2"/>
<feComposite in2="hardAlpha" operator="arithmetic" k2="-1" k3="1"/>
<feColorMatrix type="matrix" values="0 0 0 0 1 0 0 0 0 1 0 0 0 0 1 0 0 0 0.1 0"/>
<feBlend mode="normal" in2="effect2_innerShadow_3573_38773" result="effect3_innerShadow_3573_38773"/>
<feColorMatrix in="SourceAlpha" type="matrix" values="0 0 0 0 0 0 0 0 0 0 0 0 0 0 0 0 0 0 127 0" result="hardAlpha"/>
<feOffset dy="1"/>
<feGaussianBlur stdDeviation="0.5"/>
<feComposite in2="hardAlpha" operator="arithmetic" k2="-1" k3="1"/>
<feColorMatrix type="matrix" values="0 0 0 0 1 0 0 0 0 1 0 0 0 0 1 0 0 0 0.15 0"/>
<feBlend mode="normal" in2="effect3_innerShadow_3573_38773" result="effect4_innerShadow_3573_38773"/>
</filter>
<linearGradient id="paint0_linear_3573_38773" x1="17.9231" y1="68.25" x2="72.1998" y2="33.5229" gradientUnits="userSpaceOnUse">
<stop stop-color="#6AB3F7"/>
<stop offset="1" stop-color="#67EBD4"/>
</linearGradient>
<linearGradient id="paint1_linear_3573_38773" x1="37.5385" y1="34.25" x2="54.8758" y2="21.5727" gradientUnits="userSpaceOnUse">
<stop stop-color="#6AB3F7"/>
<stop offset="1" stop-color="#67EBD4"/>
</linearGradient>
<clipPath id="clip0_3573_38773">
<rect width="96" height="96" rx="4" fill="white"/>
</clipPath>
</defs>
</svg>
