<svg width="96" height="110" viewBox="0 0 96 110" fill="none" xmlns="http://www.w3.org/2000/svg">
<g filter="url(#filter0_d_3573_40031)">
<path d="M34 23C30.6863 23 28 25.6863 28 29V59C28 62.3137 30.6863 65 34 65H39V41C39 38.7909 40.7909 37 43 37H58V32.0767C58 31.0635 57.6155 30.0881 56.9242 29.3474L52.186 24.2707C51.4295 23.4602 50.3705 23 49.2618 23H34Z" fill="url(#paint0_linear_3573_40031)" fill-opacity="0.4"/>
<g filter="url(#filter1_biii_3573_40031)">
<path d="M32 31C32 28.7909 33.7909 27 36 27H59.2618C60.3705 27 61.4295 27.4602 62.186 28.2707L66.9242 33.3474C67.6155 34.0881 68 35.0635 68 36.0767V69C68 71.2091 66.2091 73 64 73H36C33.7909 73 32 71.2091 32 69V31Z" fill="url(#paint1_linear_3573_40031)" fill-opacity="0.15"/>
</g>
<path d="M38 56C38 54.8954 38.8954 54 40 54H60C61.1046 54 62 54.8954 62 56C62 57.1046 61.1046 58 60 58H50H40C38.8954 58 38 57.1046 38 56Z" fill="white" fill-opacity="0.7"/>
<path d="M38 63C38 61.8954 38.8954 61 40 61H46C47.1046 61 48 61.8954 48 63C48 64.1046 47.1046 65 46 65H40C38.8954 65 38 64.1046 38 63Z" fill="white" fill-opacity="0.7"/>
<path d="M60 61C58.8954 61 58 61.8954 58 63C58 64.1046 58.8954 65 60 65C61.1046 65 62 64.1046 62 63C62 61.8954 61.1046 61 60 61Z" fill="white" fill-opacity="0.7"/>
<path d="M59.3322 69.3057C59.1987 69.4393 59.0314 69.534 58.8481 69.5798L53.2957 70.9679C52.5324 71.1587 51.8411 70.4674 52.0319 69.7042L53.4201 64.1517C53.4659 63.9685 53.5606 63.8012 53.6942 63.6676L70.0567 47.3051C70.4637 46.8981 71.1235 46.8981 71.5304 47.3051L75.6948 51.4695C76.1017 51.8764 76.1017 52.5362 75.6948 52.9432L59.3322 69.3057Z" fill="url(#paint2_linear_3573_40031)"/>
</g>
<defs>
<filter id="filter0_d_3573_40031" x="-20" y="-3" width="136" height="136" filterUnits="userSpaceOnUse" color-interpolation-filters="sRGB">
<feFlood flood-opacity="0" result="BackgroundImageFix"/>
<feColorMatrix in="SourceAlpha" type="matrix" values="0 0 0 0 0 0 0 0 0 0 0 0 0 0 0 0 0 0 127 0" result="hardAlpha"/>
<feOffset dy="17"/>
<feGaussianBlur stdDeviation="10"/>
<feColorMatrix type="matrix" values="0 0 0 0 0 0 0 0 0 0 0 0 0 0 0 0 0 0 0.02 0"/>
<feBlend mode="normal" in2="BackgroundImageFix" result="effect1_dropShadow_3573_40031"/>
<feBlend mode="normal" in="SourceGraphic" in2="effect1_dropShadow_3573_40031" result="shape"/>
</filter>
<filter id="filter1_biii_3573_40031" x="18" y="13" width="64" height="74" filterUnits="userSpaceOnUse" color-interpolation-filters="sRGB">
<feFlood flood-opacity="0" result="BackgroundImageFix"/>
<feGaussianBlur in="BackgroundImageFix" stdDeviation="7"/>
<feComposite in2="SourceAlpha" operator="in" result="effect1_backgroundBlur_3573_40031"/>
<feBlend mode="normal" in="SourceGraphic" in2="effect1_backgroundBlur_3573_40031" result="shape"/>
<feColorMatrix in="SourceAlpha" type="matrix" values="0 0 0 0 0 0 0 0 0 0 0 0 0 0 0 0 0 0 127 0" result="hardAlpha"/>
<feOffset dy="3"/>
<feGaussianBlur stdDeviation="1.5"/>
<feComposite in2="hardAlpha" operator="arithmetic" k2="-1" k3="1"/>
<feColorMatrix type="matrix" values="0 0 0 0 1 0 0 0 0 1 0 0 0 0 1 0 0 0 0.08 0"/>
<feBlend mode="normal" in2="shape" result="effect2_innerShadow_3573_40031"/>
<feColorMatrix in="SourceAlpha" type="matrix" values="0 0 0 0 0 0 0 0 0 0 0 0 0 0 0 0 0 0 127 0" result="hardAlpha"/>
<feOffset dy="4"/>
<feGaussianBlur stdDeviation="2"/>
<feComposite in2="hardAlpha" operator="arithmetic" k2="-1" k3="1"/>
<feColorMatrix type="matrix" values="0 0 0 0 1 0 0 0 0 1 0 0 0 0 1 0 0 0 0.1 0"/>
<feBlend mode="normal" in2="effect2_innerShadow_3573_40031" result="effect3_innerShadow_3573_40031"/>
<feColorMatrix in="SourceAlpha" type="matrix" values="0 0 0 0 0 0 0 0 0 0 0 0 0 0 0 0 0 0 127 0" result="hardAlpha"/>
<feOffset dy="1"/>
<feGaussianBlur stdDeviation="0.5"/>
<feComposite in2="hardAlpha" operator="arithmetic" k2="-1" k3="1"/>
<feColorMatrix type="matrix" values="0 0 0 0 1 0 0 0 0 1 0 0 0 0 1 0 0 0 0.15 0"/>
<feBlend mode="normal" in2="effect3_innerShadow_3573_40031" result="effect4_innerShadow_3573_40031"/>
</filter>
<linearGradient id="paint0_linear_3573_40031" x1="23.3846" y1="59.75" x2="64.6537" y2="40.8896" gradientUnits="userSpaceOnUse">
<stop stop-color="#6AB3F7"/>
<stop offset="1" stop-color="#67EBD4"/>
</linearGradient>
<linearGradient id="paint1_linear_3573_40031" x1="26.4615" y1="67.25" x2="74.3267" y2="43.2827" gradientUnits="userSpaceOnUse">
<stop stop-color="#6AB3F7"/>
<stop offset="1" stop-color="#67EBD4"/>
</linearGradient>
<linearGradient id="paint2_linear_3573_40031" x1="79.6923" y1="49.9999" x2="51.3739" y2="68.1185" gradientUnits="userSpaceOnUse">
<stop stop-color="#6AB3F7"/>
<stop offset="1" stop-color="#67EBD4"/>
</linearGradient>
</defs>
</svg>
