<svg width="20" height="20" viewBox="0 0 20 20" fill="none" xmlns="http://www.w3.org/2000/svg">
<rect width="20" height="20" rx="10" fill="white" fill-opacity="0.1"/>
<path d="M6.60234 5.49072H11.5969C12.3352 5.49072 12.9305 6.08486 12.9305 6.82432V11.8188C12.9305 12.5571 12.3363 13.1524 11.5969 13.1524H6.60234C5.86406 13.1524 5.26875 12.5583 5.26875 11.8188V6.82432C5.26875 6.08604 5.86289 5.49072 6.60234 5.49072ZM5.98828 11.7837C5.98828 12.1317 6.27304 12.4329 6.6375 12.4329H11.5617C11.9098 12.4329 12.2109 12.1481 12.2109 11.7837V6.85947C12.2109 6.51143 11.9262 6.21025 11.5617 6.21025H6.6375C6.28945 6.21025 5.98828 6.49502 5.98828 6.85947V11.7837Z" fill="#999999"/>
<path d="M13.9266 7.27295C14.1047 7.27295 14.243 7.41123 14.2617 7.57178V13.1206C14.2195 13.8847 13.5937 14.4835 12.8191 14.4835H7.37461C7.19766 14.4835 7.05352 14.3394 7.03711 14.1624C7.03711 13.9702 7.19766 13.8249 7.37461 13.8249L12.8016 13.8261C13.2352 13.8261 13.5891 13.4722 13.5891 13.0386V7.61045C13.5891 7.41826 13.7496 7.27295 13.9266 7.27295Z" fill="#999999"/>
</svg>
