<svg width="32" height="40" viewBox="0 0 32 40" fill="none" xmlns="http://www.w3.org/2000/svg">
    <path fill-rule="evenodd" clip-rule="evenodd"
        d="M7.76442 0C7.24463 0 6.82324 0.447715 6.82324 1V8.5H0.941177C0.421379 8.5 0 8.94771 0 9.5V11.5C0 12.0523 0.421379 12.5 0.941177 12.5H6.82324V30H6.8295C7.01529 35.5563 11.3132 40 16.5879 40C16.7063 40 16.8241 39.9978 16.9414 39.9933V40H17.412C17.9318 40 18.3532 39.5522 18.3532 39V37.75C18.3532 37.1978 17.9318 36.75 17.412 36.75H17.1762V36.749C13.6448 36.6845 10.7786 33.7195 10.5971 30H10.5879V12.5H16C16.5198 12.5 16.9412 12.0523 16.9412 11.5V9.5C16.9412 8.94771 16.5198 8.5 16 8.5H10.5879V1C10.5879 0.447715 10.1666 0 9.64677 0H7.76442ZM14.5242 19H19.9361V18.9915C21.6456 18.8679 22.9949 17.4079 22.9949 15.625C22.9949 13.8421 21.6456 12.3821 19.9361 12.2585V12.25H19.2302C18.7104 12.25 18.289 11.8023 18.289 11.25V9.5C18.289 8.94773 18.7104 8.5 19.2302 8.5H19.9361C23.4448 8.5 26.289 11.578 26.289 15.375C26.289 17.3922 25.4862 19.2065 24.2075 20.4642C27.7704 21.9525 30.2887 25.6051 30.2887 29.875C30.2887 35.467 25.9696 40 20.6416 40V36.749C24.1609 36.6823 26.9945 33.6302 26.9945 29.875C26.9945 26.1197 24.1609 23.0678 20.6416 23.0011V23H14.5242C14.0044 23 13.583 22.5523 13.583 22V20C13.583 19.4477 14.0044 19 14.5242 19ZM19.7002 37.75C19.7002 37.1978 20.1216 36.75 20.6414 36.75V40C20.1216 40 19.7002 39.5522 19.7002 39V37.75Z"
        fill="url(#paint0_linear_6074_11169)" />
    <defs>
        <linearGradient id="paint0_linear_6074_11169" x1="33.8429" y1="50.5" x2="-13.2487"
            y2="44.4632" gradientUnits="userSpaceOnUse">
            <stop offset="0.46997" stop-color="#904BF6" />
            <stop offset="0.90795" stop-color="#CF0063" />
        </linearGradient>
    </defs>
</svg>