<svg width="154" height="27" viewBox="0 0 154 27" fill="none" xmlns="http://www.w3.org/2000/svg">
<g filter="url(#filter0_di_466_255)">
<path d="M3 23.703V4.65537H12.7402C14.0461 4.65537 15.207 4.91841 16.2227 5.44449C17.2384 5.95242 18.0274 6.66898 18.5897 7.59415C19.1701 8.50117 19.4603 9.54426 19.4603 10.7234C19.4603 11.9207 19.1339 12.991 18.4809 13.9343C17.8279 14.8776 16.9663 15.5941 15.8962 16.0839L20.0589 23.703H14.8351L11.2438 16.7642H7.67963V23.703H3ZM7.67963 12.9547H12.3049C13.0304 12.9547 13.6108 12.7551 14.0461 12.356C14.4996 11.957 14.7263 11.44 14.7263 10.805C14.7263 10.1701 14.4996 9.6531 14.0461 9.25401C13.6108 8.85492 13.0304 8.65537 12.3049 8.65537H7.67963V12.9547Z" fill="white"/>
<path d="M28.5499 23.9751C27.0807 23.9751 25.7475 23.6486 24.5504 22.9955C23.3714 22.3243 22.4373 21.4263 21.7481 20.3016C21.0588 19.1769 20.7142 17.9161 20.7142 16.5193C20.7142 15.1225 21.0407 13.8617 21.6937 12.737C22.3648 11.6123 23.2717 10.7234 24.4144 10.0703C25.5571 9.39913 26.8268 9.06353 28.2234 9.06353C29.6382 9.06353 30.8897 9.4082 31.978 10.0975C33.0663 10.7687 33.9188 11.6939 34.5355 12.8731C35.1703 14.0522 35.4877 15.4037 35.4877 16.9275V18.0159H25.2306C25.4301 18.4694 25.6931 18.8685 26.0196 19.2132C26.3642 19.5579 26.7723 19.83 27.2439 20.0295C27.7155 20.2109 28.2234 20.3016 28.7675 20.3016C29.3661 20.3016 29.9102 20.2109 30.4 20.0295C30.8897 19.83 31.3069 19.5579 31.6515 19.2132L34.5627 21.7982C33.6558 22.5601 32.7216 23.1134 31.7603 23.4581C30.8171 23.8028 29.747 23.9751 28.5499 23.9751ZM25.149 14.9411H31.1618C31.0167 14.4694 30.7899 14.0703 30.4816 13.7438C30.1914 13.3991 29.8467 13.1361 29.4477 12.9547C29.0487 12.7551 28.6134 12.6554 28.1418 12.6554C27.652 12.6554 27.2077 12.7461 26.8086 12.9275C26.4096 13.1089 26.0649 13.3719 25.7747 13.7166C25.5027 14.0431 25.2941 14.4513 25.149 14.9411Z" fill="white"/>
<path d="M40.6016 23.703L36.6838 9.30843H40.8464L42.9686 17.771L45.5533 9.30843H49.1991L51.7837 17.7982L53.8787 9.30843H57.987L54.0419 23.703H49.8248L47.3218 15.3765L44.8459 23.703H40.6016Z" fill="white"/>
<path d="M64.4368 23.9479C63.421 23.9479 62.5141 23.7574 61.7161 23.3765C60.9361 22.9955 60.3194 22.4694 59.866 21.7982C59.4307 21.127 59.213 20.3561 59.213 19.4853C59.213 18.1066 59.7299 17.0454 60.7638 16.3016C61.8158 15.5397 63.2759 15.1588 65.1442 15.1588C66.2687 15.1588 67.357 15.2948 68.409 15.5669V14.8595C68.409 14.1338 68.1732 13.5987 67.7016 13.254C67.2482 12.8912 66.568 12.7098 65.6611 12.7098C65.0988 12.7098 64.464 12.8005 63.7566 12.9819C63.0673 13.1633 62.2511 13.4536 61.3079 13.8526L59.7299 10.6146C60.9089 10.0885 62.0425 9.69845 63.1308 9.44448C64.2372 9.17238 65.3437 9.03632 66.4501 9.03632C68.4453 9.03632 69.9961 9.51705 71.1025 10.4785C72.2089 11.4218 72.7622 12.7551 72.7622 14.4785V23.703H68.409V22.8322C67.8286 23.2313 67.2119 23.5216 66.5589 23.703C65.9241 23.8663 65.2167 23.9479 64.4368 23.9479ZM63.4029 19.4037C63.4029 19.8572 63.6024 20.2109 64.0015 20.4649C64.4005 20.7189 64.9537 20.8458 65.6611 20.8458C66.1871 20.8458 66.6768 20.7914 67.1303 20.6826C67.6019 20.5737 68.0281 20.4014 68.409 20.1656V18.3152C67.9918 18.2064 67.5656 18.1248 67.1303 18.0703C66.695 18.0159 66.2506 17.9887 65.7971 17.9887C65.0353 17.9887 64.4458 18.1157 64.0287 18.3697C63.6115 18.6055 63.4029 18.9502 63.4029 19.4037Z" fill="white"/>
<path d="M75.9261 23.703V9.30843H80.3336V10.7506C80.8052 10.1701 81.3584 9.73473 81.9933 9.44448C82.6281 9.1361 83.3355 8.9819 84.1154 8.9819C84.8954 9.00004 85.4486 9.11795 85.7751 9.33564V13.1724C85.4848 13.0273 85.1584 12.9184 84.7956 12.8458C84.4328 12.7733 84.061 12.737 83.6801 12.737C82.9909 12.737 82.3469 12.9003 81.7484 13.2268C81.168 13.5352 80.6964 13.9796 80.3336 14.5601V23.703H75.9261Z" fill="white"/>
<path d="M94.5083 23.8935C93.148 23.8935 91.9055 23.5669 90.781 22.9139C89.6745 22.2427 88.7948 21.3538 88.1419 20.2472C87.4889 19.1225 87.1624 17.8708 87.1624 16.4921C87.1624 15.1134 87.4889 13.8708 88.1419 12.7642C88.813 11.6395 89.7108 10.7506 90.8354 10.0975C91.9781 9.44449 93.2477 9.11796 94.6444 9.11796C95.3155 9.11796 95.9594 9.19959 96.5761 9.36285C97.1928 9.52612 97.7732 9.76195 98.3173 10.0703V4.65537L102.725 3.9751V23.703H98.3718V22.6418C97.2291 23.4762 95.9413 23.8935 94.5083 23.8935ZM95.2701 20.1384C95.8868 20.1384 96.4491 20.0477 96.957 19.8663C97.4649 19.6667 97.9183 19.3765 98.3173 18.9955V13.9615C97.9364 13.5987 97.483 13.3266 96.957 13.1452C96.431 12.9456 95.8687 12.8458 95.2701 12.8458C94.5628 12.8458 93.9189 13.0091 93.3384 13.3356C92.7762 13.644 92.3227 14.0794 91.9781 14.6418C91.6516 15.186 91.4883 15.8028 91.4883 16.4921C91.4883 17.1814 91.6516 17.8073 91.9781 18.3697C92.3227 18.9139 92.7762 19.3492 93.3384 19.6758C93.9189 19.9842 94.5628 20.1384 95.2701 20.1384Z" fill="white"/>
<path d="M130.731 23.9751C129.262 23.9751 127.938 23.6486 126.759 22.9955C125.58 22.3243 124.646 21.4263 123.957 20.3016C123.267 19.1769 122.923 17.9161 122.923 16.5193C122.923 15.1225 123.267 13.8617 123.957 12.737C124.646 11.5941 125.58 10.6962 126.759 10.0431C127.938 9.37192 129.262 9.03632 130.731 9.03632C132.2 9.03632 133.525 9.37192 134.704 10.0431C135.883 10.6962 136.817 11.5941 137.506 12.737C138.195 13.8617 138.54 15.1225 138.54 16.5193C138.54 17.9161 138.195 19.1769 137.506 20.3016C136.817 21.4263 135.883 22.3243 134.704 22.9955C133.525 23.6486 132.2 23.9751 130.731 23.9751ZM130.731 20.1656C131.402 20.1656 132.001 20.0023 132.527 19.6758C133.053 19.3492 133.47 18.9139 133.778 18.3697C134.087 17.8073 134.241 17.1905 134.241 16.5193C134.241 15.83 134.087 15.2132 133.778 14.669C133.47 14.1066 133.044 13.6622 132.5 13.3356C131.974 13.0091 131.384 12.8458 130.731 12.8458C130.078 12.8458 129.48 13.0091 128.936 13.3356C128.41 13.6622 127.992 14.1066 127.684 14.669C127.376 15.2132 127.222 15.83 127.222 16.5193C127.222 17.1905 127.376 17.8073 127.684 18.3697C127.992 18.9139 128.41 19.3492 128.936 19.6758C129.48 20.0023 130.078 20.1656 130.731 20.1656Z" fill="white"/>
<path d="M141.151 23.703V9.30843H145.559V10.7506C146.03 10.1701 146.583 9.73473 147.218 9.44448C147.853 9.1361 148.56 8.9819 149.34 8.9819C150.12 9.00004 150.674 9.11795 151 9.33564V13.1724C150.71 13.0273 150.383 12.9184 150.021 12.8458C149.658 12.7733 149.286 12.737 148.905 12.737C148.216 12.737 147.572 12.9003 146.973 13.2268C146.393 13.5352 145.921 13.9796 145.559 14.5601V23.703H141.151Z" fill="white"/>
</g>
<path d="M108.633 10.3257C109.875 9.41529 111.407 8.87769 113.065 8.87769C117.21 8.87769 120.57 12.2384 120.57 16.3841C120.57 20.5298 117.21 23.8906 113.065 23.8906C108.92 23.8906 105.56 20.5298 105.56 16.3841C105.56 14.5731 106.201 12.9119 107.269 11.6153L109.947 14.2944C109.546 14.8917 109.312 15.6106 109.312 16.3841C109.312 18.457 110.992 20.1374 113.065 20.1374C115.138 20.1374 116.818 18.457 116.818 16.3841C116.818 14.3113 115.138 12.6309 113.065 12.6309C112.447 12.6309 111.865 12.7801 111.351 13.0443L108.633 10.3257Z" fill="url(#paint0_linear_466_255)"/>
<defs>
<filter id="filter0_di_466_255" x="0" y="0.975098" width="154" height="26" filterUnits="userSpaceOnUse" color-interpolation-filters="sRGB">
<feFlood flood-opacity="0" result="BackgroundImageFix"/>
<feColorMatrix in="SourceAlpha" type="matrix" values="0 0 0 0 0 0 0 0 0 0 0 0 0 0 0 0 0 0 127 0" result="hardAlpha"/>
<feOffset/>
<feGaussianBlur stdDeviation="1.5"/>
<feComposite in2="hardAlpha" operator="out"/>
<feColorMatrix type="matrix" values="0 0 0 0 0.8 0 0 0 0 0 0 0 0 0 1 0 0 0 0.6 0"/>
<feBlend mode="normal" in2="BackgroundImageFix" result="effect1_dropShadow_466_255"/>
<feBlend mode="normal" in="SourceGraphic" in2="effect1_dropShadow_466_255" result="shape"/>
<feColorMatrix in="SourceAlpha" type="matrix" values="0 0 0 0 0 0 0 0 0 0 0 0 0 0 0 0 0 0 127 0" result="hardAlpha"/>
<feOffset/>
<feGaussianBlur stdDeviation="0.5"/>
<feComposite in2="hardAlpha" operator="arithmetic" k2="-1" k3="1"/>
<feColorMatrix type="matrix" values="0 0 0 0 0.301961 0 0 0 0 0.0431373 0 0 0 0 0.937255 0 0 0 0.6 0"/>
<feBlend mode="normal" in2="shape" result="effect2_innerShadow_466_255"/>
</filter>
<linearGradient id="paint0_linear_466_255" x1="122.332" y1="27.8315" x2="96.0513" y2="21.4283" gradientUnits="userSpaceOnUse">
<stop stop-color="#4D0BEF"/>
<stop offset="1" stop-color="#D645ED"/>
</linearGradient>
</defs>
</svg>
