<svg width="420" height="420" viewBox="0 0 420 420" fill="none" xmlns="http://www.w3.org/2000/svg">
<path fill-rule="evenodd" clip-rule="evenodd" d="M134.026 0C128.569 0 124.144 4.70101 124.144 10.5V89.25H62.3824C56.9245 89.25 52.5 93.951 52.5 99.75V120.75C52.5 126.549 56.9245 131.25 62.3824 131.25H124.144V315H124.21C126.161 373.341 171.289 420 226.673 420C227.916 420 229.153 419.976 230.385 419.93V420H235.326C240.784 420 245.208 415.299 245.208 409.5V396.375C245.208 390.576 240.784 385.875 235.326 385.875H232.85V385.865C195.771 385.187 165.675 354.055 163.769 315H163.673V131.25H220.5C225.958 131.25 230.382 126.549 230.382 120.75V99.75C230.382 93.951 225.958 89.25 220.5 89.25H163.673V10.5C163.673 4.70101 159.249 0 153.791 0H134.026ZM205.004 199.5H261.829V199.411C279.778 198.113 293.946 182.783 293.946 164.062C293.946 145.342 279.778 130.012 261.829 128.714V128.625H254.417C248.959 128.625 244.535 123.924 244.535 118.125V99.75C244.535 93.9511 248.959 89.25 254.417 89.25H261.829C298.67 89.25 328.535 121.57 328.535 161.438C328.535 182.618 320.105 201.669 306.679 214.874C344.089 230.502 370.531 268.854 370.531 313.688C370.531 372.403 325.181 420 269.237 420V385.865C306.189 385.164 335.943 353.118 335.943 313.688C335.943 274.257 306.189 242.212 269.237 241.512V241.5H205.004C199.546 241.5 195.122 236.799 195.122 231V210C195.122 204.201 199.546 199.5 205.004 199.5ZM259.352 396.375C259.352 390.576 263.777 385.875 269.234 385.875V420C263.777 420 259.352 415.299 259.352 409.5V396.375Z" fill="url(#paint0_linear_5830_9706)" fill-opacity="0.8"/>
<defs>
<linearGradient id="paint0_linear_5830_9706" x1="132.008" y1="20.4878" x2="237.084" y2="413.158" gradientUnits="userSpaceOnUse">
<stop stop-color="#3A82F7"/>
<stop offset="0.478506" stop-color="#3A82F7"/>
<stop offset="0.676965" stop-color="#CC89E9"/>
<stop offset="1" stop-color="#FFC737"/>
</linearGradient>
</defs>
</svg>
