<svg width="20" height="20" viewBox="0 0 20 20" fill="none" xmlns="http://www.w3.org/2000/svg">
    <path
        d="M3.37891 8.9148C3.99894 8.38093 4.73339 7.86575 5.55941 7.39258M16.8462 10.5436C18.0092 9.30066 18.5273 8.01468 18.1333 6.9592C17.7352 5.89389 16.4805 5.2603 14.7614 5.09106"
        stroke="white" stroke-width="0.2" stroke-miterlimit="10" />
    <path
        d="M5.57042 15.1525C3.40481 15.1336 1.78132 14.4785 1.31799 13.2385C1.00059 12.388 1.27494 11.388 2.00241 10.3806"
        stroke="white" stroke-width="0.2" stroke-miterlimit="10" />
    <path d="M2.11816 9.59961H3.25789" stroke="white" stroke-width="0.2" stroke-miterlimit="10" />
    <path d="M2.68848 8.99438V10.1556" stroke="white" stroke-width="0.2" stroke-miterlimit="10" />
    <path d="M2.27734 9.18018L3.09894 10.0022" stroke="white" stroke-width="0.2"
        stroke-miterlimit="10" />
    <path d="M3.09894 9.18872L2.27734 10.0101" stroke="white" stroke-width="0.2"
        stroke-miterlimit="10" />
    <path d="M5.57026 15.1523C5.56004 15.0911 5.55566 15.0291 5.55566 14.9663V12.3288"
        stroke="white" stroke-width="0.2" stroke-miterlimit="10" />
    <path d="M9.6196 14.5657C7.33067 14.4315 5.55469 13.4621 5.55469 12.287V9.99219" stroke="white"
        stroke-width="0.2" stroke-miterlimit="10" />
    <path
        d="M14.7756 10.0266V7.73185C14.7756 6.74931 11.9161 7.73185 10.1656 7.73185C8.31157 7.73185 5.55566 6.65813 5.55566 7.73185V10.0266C5.55566 11.2944 7.61986 12.3214 10.1656 12.3214C10.545 12.3214 10.9136 12.2986 11.2663 12.2556"
        stroke="white" stroke-width="0.2" stroke-miterlimit="10" />
    <path
        d="M14.7756 7.58888C14.7756 8.8559 12.7114 9.88366 10.1656 9.88366C7.61986 9.88366 5.55566 8.85663 5.55566 7.58888V5.2941C5.55566 4.22038 8.31157 5.2941 10.1656 5.2941C11.9161 5.2941 14.7756 4.31156 14.7756 5.2941V7.58888Z"
        fill="#121212" stroke="white" stroke-width="0.2" stroke-miterlimit="10" />
    <path
        d="M10.1656 7.58956C12.7116 7.58956 14.7756 6.56215 14.7756 5.29478C14.7756 4.02741 12.7116 3 10.1656 3C7.61961 3 5.55566 4.02741 5.55566 5.29478C5.55566 6.56215 7.61961 7.58956 10.1656 7.58956Z"
        fill="white" stroke="white" stroke-width="0.2" stroke-miterlimit="10" />
    <path d="M11.2054 14.0586C9.19451 14.8092 7.22444 15.1659 5.57031 15.152" stroke="white"
        stroke-width="0.2" stroke-miterlimit="10" />
    <path
        d="M11.2206 13.8755C11.5263 15.6662 13.1257 16.8873 14.7922 16.6028C15.052 16.5583 15.3344 16.5102 15.67 16.4533C13.1997 16.6028 12.7576 15.0114 12.5 13.5C12.2854 12.2407 13 10.5 14.682 9.94751C14.4435 9.99419 13.8933 10.0817 13.6846 10.1175C12.0173 10.4019 10.9141 12.084 11.2198 13.8748L11.2206 13.8755Z"
        stroke="white" stroke-width="0.2" stroke-miterlimit="10" />
    <path
        d="M15.6696 16.455C17.3364 16.1708 18.4399 14.4885 18.1343 12.6975C17.8287 10.9065 16.2298 9.68502 14.563 9.96925C12.8961 10.2535 11.7927 11.9358 12.0982 13.7268C12.4038 15.5178 14.0028 16.7392 15.6696 16.455Z"
        fill="url(#paint0_linear_9909_21258)" stroke="white" stroke-width="0.2"
        stroke-miterlimit="10" />
    <path
        d="M14.3606 12.7378C14.3606 12.7378 14.1607 12.2994 13.6886 12.3803C13.2165 12.4613 13.1465 12.9449 13.1465 12.9449"
        stroke="white" stroke-width="0.2" stroke-miterlimit="10" stroke-linecap="round" />
    <path
        d="M17.1975 12.2732C17.1975 12.2732 17.0232 11.8305 16.651 11.8939C16.2789 11.9574 16.2402 12.4359 16.2402 12.4359"
        stroke="white" stroke-width="0.2" stroke-miterlimit="10" stroke-linecap="round" />
    <path
        d="M17.0013 13.1399C17.0013 13.1399 17.002 14.5222 15.6981 14.8103C14.3942 15.0984 13.6025 13.7198 13.6025 13.7198"
        stroke="white" stroke-width="0.2" stroke-miterlimit="10" stroke-linecap="round" />
    <defs>
        <linearGradient id="paint0_linear_9909_21258" x1="17" y1="17" x2="11.0307" y2="13.3313"
            gradientUnits="userSpaceOnUse">
            <stop offset="0.350756" stop-color="#904BF6" />
            <stop offset="1" stop-color="#CF0063" />
        </linearGradient>
    </defs>
</svg>