<svg width="73" height="72" viewBox="0 0 73 72" fill="none" xmlns="http://www.w3.org/2000/svg">
    <path d="M63.3994 69V51H9.39941V69M63.3994 69H9.39941M63.3994 69V60H9.39941V69M63.3994 27C63.3994 40.2549 52.6543 51 39.3994 51C26.1446 51 15.3994 40.2549 15.3994 27C15.3994 13.7452 26.1446 3 39.3994 3C52.6543 3 63.3994 13.7452 63.3994 27ZM57.3994 27C57.3994 40.2549 46.6543 51 33.3994 51C20.1446 51 9.39941 40.2549 9.39941 27C9.39941 13.7452 20.1446 3 33.3994 3C46.6543 3 57.3994 13.7452 57.3994 27Z" stroke="white"/>
    <path d="M33.3994 51C46.6542 51 57.3994 40.2548 57.3994 27C57.3994 13.7452 46.6542 3 33.3994 3C20.1446 3 9.39941 13.7452 9.39941 27C9.39941 40.2548 20.1446 51 33.3994 51Z" fill="white"/>
    <path d="M31.2652 32.9928L23.2366 18.8892L21.3994 19.935L31.8472 38.2878C32.386 39.2346 33.7498 39.2376 34.2934 38.2932L31.2652 32.9928Z" fill="black"/>
    <path d="M30.4612 15L28.375 15.3414L32.0344 38.1C32.5732 39.0468 33.7498 39.2376 34.2934 38.2932L30.4612 15Z" fill="black"/>
    <path d="M33.2261 31.8867L31.8467 38.2875C32.3855 39.2343 33.7493 39.2373 34.2929 38.2929L35.2985 32.3055L37.9595 20.5485L35.8979 20.0823L33.2261 31.8867Z" fill="black"/>
    <path d="M31.8467 38.2878C32.3855 39.2346 33.7493 39.2376 34.2929 38.2932L44.5925 20.3894L42.7601 19.3352L35.2985 32.3058L31.8467 38.2878Z" fill="black"/>
    </svg>
    