<svg width="32" height="32" viewBox="0 0 32 32" fill="none" xmlns="http://www.w3.org/2000/svg">
<path fill-rule="evenodd" clip-rule="evenodd" d="M21 15C21 17.7614 18.7614 20 16 20C13.2386 20 11 17.7614 11 15C11 12.2386 13.2386 10 16 10C18.7614 10 21 12.2386 21 15ZM18.6684 20.3755C17.8646 20.7752 16.9586 21 16 21C12.6863 21 10 18.3137 10 15C10 11.6863 12.6863 9 16 9C19.3137 9 22 11.6863 22 15C22 16.9867 21.0344 18.7479 19.5469 19.8398L21.8536 22.1464C22.0488 22.3417 22.0488 22.6583 21.8536 22.8536C21.6583 23.0488 21.3417 23.0488 21.1464 22.8536L18.6684 20.3755Z" fill="#666666"/>
</svg>
