<svg width="64" height="64" viewBox="0 0 64 64" fill="none" xmlns="http://www.w3.org/2000/svg">
<g clip-path="url(#clip0_179_10853)">
<path d="M62.5 32C62.5 48.8447 48.8447 62.5 32 62.5C15.1553 62.5 1.5 48.8447 1.5 32C1.5 15.1553 15.1553 1.5 32 1.5C48.8447 1.5 62.5 15.1553 62.5 32Z" stroke="#C8C8C8" stroke-width="3"/>
<path d="M26.9136 42C26.4073 41.9843 25.9268 41.7729 25.5731 41.4102L17.5707 33.448C17.2046 33.0682 17 32.5613 17 32.0338C17 31.5063 17.2046 30.9994 17.5707 30.6196C17.7551 30.434 17.9744 30.2867 18.2159 30.1862C18.4575 30.0856 18.7165 30.0339 18.9782 30.0339C19.2398 30.0339 19.4989 30.0856 19.7404 30.1862C19.982 30.2867 20.2012 30.434 20.3856 30.6196L26.9136 37.1878L43.5886 22.5904C43.771 22.4035 43.9888 22.255 44.2294 22.1536C44.4699 22.0522 44.7284 22 44.9894 22C45.2505 22 45.5089 22.0522 45.7495 22.1536C45.99 22.255 46.2079 22.4035 46.3902 22.5904C46.5758 22.7747 46.7231 22.994 46.8237 23.2356C46.9242 23.4771 46.9759 23.7362 46.9759 23.9978C46.9759 24.2595 46.9242 24.5185 46.8237 24.7601C46.7231 25.0016 46.5758 25.2209 46.3902 25.4053L28.3211 41.4102C27.9485 41.7853 27.4423 41.9974 26.9136 42Z" fill="#C8C8C8"/>
</g>
<defs>
<clipPath id="clip0_179_10853">
<rect width="64" height="64" fill="white"/>
</clipPath>
</defs>
</svg>
