<svg width="24" height="24" viewBox="0 0 24 24" fill="none" xmlns="http://www.w3.org/2000/svg">
    <g clip-path="url(#clip0_2135_15835)">
    <path d="M23.25 12C23.25 18.2132 18.2132 23.25 12 23.25C5.7868 23.25 0.75 18.2132 0.75 12C0.75 5.7868 5.7868 0.75 12 0.75C18.2132 0.75 23.25 5.7868 23.25 12Z" stroke="#65C467" stroke-width="1.5"/>
    <path d="M9.96544 16C9.76291 15.9937 9.57071 15.9091 9.42925 15.7641L6.22828 12.5792C6.08183 12.4273 6 12.2245 6 12.0135C6 11.8025 6.08183 11.5997 6.22828 11.4478C6.30203 11.3736 6.38975 11.3147 6.48637 11.2745C6.58299 11.2343 6.68661 11.2136 6.79127 11.2136C6.89592 11.2136 6.99954 11.2343 7.09616 11.2745C7.19278 11.3147 7.2805 11.3736 7.35425 11.4478L9.96544 14.0751L16.6355 8.23614C16.7084 8.1614 16.7955 8.102 16.8918 8.06145C16.988 8.02089 17.0913 8 17.1958 8C17.3002 8 17.4036 8.02089 17.4998 8.06145C17.596 8.102 17.6832 8.1614 17.7561 8.23614C17.8303 8.3099 17.8893 8.39761 17.9295 8.49423C17.9697 8.59085 17.9904 8.69447 17.9904 8.79913C17.9904 8.90378 17.9697 9.0074 17.9295 9.10402C17.8893 9.20065 17.8303 9.28836 17.7561 9.36211L10.5284 15.7641C10.3794 15.9141 10.1769 15.999 9.96544 16Z" fill="#65C467"/>
    </g>
    <defs>
    <clipPath id="clip0_2135_15835">
    <rect width="24" height="24" fill="white"/>
    </clipPath>
    </defs>
    </svg>
    