<svg width="24" height="24" viewBox="0 0 24 24" fill="none" xmlns="http://www.w3.org/2000/svg">
<g clip-path="url(#clip0_20286_3798)">
<path fill-rule="evenodd" clip-rule="evenodd" d="M5.09992 10.7082C9.39487 8.83695 12.2589 7.60331 13.6919 7.00728C17.7834 5.30549 18.6335 5.00987 19.1877 5.0001C19.3095 4.99796 19.5821 5.02816 19.7586 5.17139C19.9076 5.29234 19.9486 5.45571 19.9683 5.57038C19.9879 5.68505 20.0123 5.94626 19.9929 6.15037C19.7712 8.48 18.8118 14.1334 18.3237 16.7426C18.1172 17.8467 17.7105 18.2169 17.3169 18.2531C16.4613 18.3318 15.8116 17.6877 14.9829 17.1445C13.6862 16.2945 12.9537 15.7653 11.695 14.9359C10.2404 13.9773 11.1834 13.4505 12.0124 12.5895C12.2293 12.3642 15.999 8.93536 16.0719 8.62432C16.0811 8.58541 16.0895 8.44041 16.0034 8.36384C15.9172 8.28727 15.7901 8.31345 15.6983 8.33428C15.5683 8.36379 13.4968 9.73297 9.48389 12.4418C8.89591 12.8455 8.36333 13.0423 7.88616 13.032C7.36012 13.0206 6.34822 12.7345 5.59598 12.49C4.67333 12.1901 3.94002 12.0315 4.00388 11.5222C4.03714 11.2569 4.40248 10.9855 5.09992 10.7082Z" fill="white"/>
</g>
<defs>
<clipPath id="clip0_20286_3798">
<rect width="24" height="24" fill="white"/>
</clipPath>
</defs>
</svg>