<svg width="100" height="21" viewBox="0 0 100 21" fill="none" xmlns="http://www.w3.org/2000/svg">
    <g clip-path="url(#clip0_19678_8929)">
        <mask id="mask0_19678_8929" style="mask-type:luminance" maskUnits="userSpaceOnUse" x="0"
            y="2" width="16" height="17">
            <path d="M16 2.5H0.399994V18.5H16V2.5Z" fill="white" />
        </mask>
        <g mask="url(#mask0_19678_8929)">
            <path
                d="M6.97719 14.4952L1.62479 5.09277L0.399994 5.78997L7.36519 18.0252C7.72439 18.6564 8.63359 18.6584 8.99599 18.0288L6.97719 14.4952Z"
                fill="white" />
            <path
                d="M6.44118 2.5L5.05038 2.7276L7.48998 17.9C7.84918 18.5312 8.63358 18.6584 8.99598 18.0288L6.44118 2.5Z"
                fill="white" />
            <path
                d="M8.2848 13.7578L7.3652 18.025C7.7244 18.6562 8.6336 18.6582 8.996 18.0286L9.6664 14.037L11.4404 6.19898L10.066 5.88818L8.2848 13.7578Z"
                fill="white" />
            <path
                d="M7.3652 18.0253C7.7244 18.6565 8.6336 18.6585 8.996 18.0289L15.8624 6.09294L14.6408 5.39014L9.6664 14.0373L7.3652 18.0253Z"
                fill="white" />
        </g>
    </g>
    <path
        d="M23.78 15V6.166H20.238V5.2H28.4V6.166H24.858V15H23.78ZM33.5997 15.154C32.8904 15.154 32.2277 15.028 31.6117 14.776C31.005 14.5147 30.4684 14.1553 30.0017 13.698C29.5444 13.2313 29.185 12.6947 28.9237 12.088C28.6717 11.472 28.5457 10.8093 28.5457 10.1C28.5457 9.39067 28.6717 8.73267 28.9237 8.126C29.185 7.51 29.5444 6.97333 30.0017 6.516C30.4684 6.04933 31.005 5.69 31.6117 5.438C32.2277 5.17667 32.8904 5.046 33.5997 5.046C34.2997 5.046 34.953 5.17667 35.5597 5.438C36.1757 5.69 36.7124 6.04933 37.1697 6.516C37.6364 6.97333 37.9957 7.51 38.2477 8.126C38.509 8.73267 38.6397 9.39067 38.6397 10.1C38.6397 10.8093 38.509 11.472 38.2477 12.088C37.9957 12.6947 37.6364 13.2313 37.1697 13.698C36.7124 14.1553 36.1757 14.5147 35.5597 14.776C34.953 15.028 34.2997 15.154 33.5997 15.154ZM33.5997 14.16C34.1597 14.16 34.6777 14.0573 35.1537 13.852C35.6297 13.6467 36.045 13.362 36.3997 12.998C36.7637 12.6247 37.0437 12.1907 37.2397 11.696C37.445 11.2013 37.5477 10.6693 37.5477 10.1C37.5477 9.52133 37.445 8.98933 37.2397 8.504C37.0437 8.00933 36.7637 7.58 36.3997 7.216C36.045 6.84267 35.6297 6.55333 35.1537 6.348C34.6777 6.14267 34.1597 6.04 33.5997 6.04C33.0397 6.04 32.517 6.14267 32.0317 6.348C31.5557 6.55333 31.1357 6.84267 30.7717 7.216C30.417 7.58 30.137 8.00933 29.9317 8.504C29.7357 8.98933 29.6377 9.51667 29.6377 10.086C29.6377 10.6647 29.7357 11.2013 29.9317 11.696C30.137 12.1907 30.417 12.6247 30.7717 12.998C31.1357 13.362 31.5557 13.6467 32.0317 13.852C32.517 14.0573 33.0397 14.16 33.5997 14.16ZM40.328 15V5.2H41.406L47.3 13.152V5.2H48.322V15H47.37L41.35 6.838V15H40.328ZM56.6583 15.14C55.8837 15.14 55.1417 14.986 54.4323 14.678C53.723 14.3607 53.0977 13.908 52.5563 13.32L53.2703 12.578C53.7743 13.1193 54.311 13.5253 54.8803 13.796C55.459 14.0667 56.0657 14.202 56.7003 14.202C57.2137 14.202 57.6663 14.1227 58.0583 13.964C58.4597 13.796 58.7723 13.5673 58.9963 13.278C59.2203 12.9793 59.3323 12.6433 59.3323 12.27C59.3323 11.766 59.155 11.3787 58.8003 11.108C58.455 10.8373 57.881 10.6367 57.0783 10.506L55.6643 10.282C54.7217 10.1233 54.0263 9.84333 53.5783 9.442C53.1303 9.04067 52.9063 8.49467 52.9063 7.804C52.9063 7.26267 53.051 6.78667 53.3403 6.376C53.6297 5.96533 54.031 5.648 54.5443 5.424C55.067 5.19067 55.669 5.074 56.3503 5.074C57.041 5.074 57.7177 5.186 58.3803 5.41C59.0523 5.634 59.6637 5.956 60.2143 6.376L59.5983 7.216C58.525 6.404 57.4283 5.998 56.3083 5.998C55.8417 5.998 55.431 6.07267 55.0763 6.222C54.7217 6.362 54.4463 6.56267 54.2503 6.824C54.0543 7.076 53.9563 7.37467 53.9563 7.72C53.9563 8.17733 54.1103 8.52733 54.4183 8.77C54.7263 9.01267 55.235 9.19 55.9443 9.302L57.3443 9.526C58.4177 9.70333 59.197 10.0067 59.6823 10.436C60.1677 10.856 60.4103 11.4487 60.4103 12.214C60.4103 12.7833 60.2517 13.292 59.9343 13.74C59.617 14.1787 59.1737 14.524 58.6043 14.776C58.0443 15.0187 57.3957 15.14 56.6583 15.14ZM65.0776 15.14C64.4149 15.14 63.8083 14.9813 63.2576 14.664C62.7163 14.3373 62.2869 13.8987 61.9696 13.348C61.6523 12.7973 61.4936 12.1813 61.4936 11.5C61.4936 10.8187 61.6523 10.2027 61.9696 9.652C62.2869 9.10133 62.7163 8.66733 63.2576 8.35C63.8083 8.02333 64.4149 7.86 65.0776 7.86C65.7496 7.86 66.3563 8.02333 66.8976 8.35C67.4389 8.66733 67.8683 9.10133 68.1856 9.652C68.5029 10.2027 68.6616 10.8187 68.6616 11.5C68.6616 12.1813 68.5029 12.7973 68.1856 13.348C67.8683 13.8987 67.4389 14.3373 66.8976 14.664C66.3563 14.9813 65.7496 15.14 65.0776 15.14ZM65.0776 14.216C65.5536 14.216 65.9829 14.0947 66.3656 13.852C66.7576 13.6093 67.0656 13.2827 67.2896 12.872C67.5229 12.4613 67.6396 12.004 67.6396 11.5C67.6396 10.9867 67.5229 10.5293 67.2896 10.128C67.0656 9.71733 66.7576 9.39067 66.3656 9.148C65.9829 8.90533 65.5536 8.784 65.0776 8.784C64.6016 8.784 64.1676 8.90533 63.7756 9.148C63.3929 9.39067 63.0849 9.71733 62.8516 10.128C62.6276 10.5293 62.5156 10.9867 62.5156 11.5C62.5156 12.004 62.6276 12.4613 62.8516 12.872C63.0849 13.2827 63.3929 13.6093 63.7756 13.852C64.1676 14.0947 64.6016 14.216 65.0776 14.216ZM73.3488 15.126C72.6861 15.126 72.0841 14.9673 71.5428 14.65C71.0014 14.3233 70.5721 13.8847 70.2548 13.334C69.9374 12.7833 69.7788 12.1673 69.7788 11.486C69.7788 10.8047 69.9374 10.1933 70.2548 9.652C70.5721 9.10133 71.0014 8.66267 71.5428 8.336C72.0841 8.00933 72.6861 7.846 73.3488 7.846C73.8621 7.846 74.3568 7.944 74.8328 8.14C75.3088 8.32667 75.7288 8.59733 76.0928 8.952L75.4348 9.708C75.1548 9.40933 74.8328 9.18533 74.4688 9.036C74.1141 8.87733 73.7454 8.798 73.3628 8.798C72.8868 8.798 72.4528 8.91933 72.0608 9.162C71.6781 9.39533 71.3701 9.71733 71.1368 10.128C70.9128 10.5293 70.8008 10.982 70.8008 11.486C70.8008 11.99 70.9128 12.4473 71.1368 12.858C71.3701 13.2687 71.6828 13.5953 72.0748 13.838C72.4668 14.0713 72.9008 14.188 73.3768 14.188C73.7594 14.188 74.1188 14.1133 74.4548 13.964C74.8001 13.8147 75.1221 13.5953 75.4208 13.306L76.0648 14.006C75.6914 14.3607 75.2714 14.636 74.8048 14.832C74.3381 15.028 73.8528 15.126 73.3488 15.126ZM77.2785 15V7.986H78.3145V15H77.2785ZM77.7965 6.642C77.6098 6.642 77.4465 6.572 77.3065 6.432C77.1665 6.292 77.0965 6.12867 77.0965 5.942C77.0965 5.746 77.1665 5.58267 77.3065 5.452C77.4465 5.312 77.6098 5.242 77.7965 5.242C77.9925 5.242 78.1558 5.312 78.2865 5.452C78.4265 5.58267 78.4965 5.746 78.4965 5.942C78.4965 6.12867 78.4265 6.292 78.2865 6.432C78.1558 6.572 77.9925 6.642 77.7965 6.642ZM83.3712 15.126C82.6992 15.126 82.0879 14.9673 81.5372 14.65C80.9959 14.3233 80.5619 13.8847 80.2352 13.334C79.9179 12.7833 79.7592 12.1673 79.7592 11.486C79.7592 10.814 79.9132 10.2073 80.2212 9.666C80.5292 9.11533 80.9446 8.68133 81.4672 8.364C81.9899 8.03733 82.5732 7.874 83.2172 7.874C83.8426 7.874 84.4026 8.03733 84.8972 8.364C85.4012 8.68133 85.7979 9.11533 86.0872 9.666C86.3859 10.2073 86.5352 10.814 86.5352 11.486V11.808H80.7812C80.8372 12.2653 80.9819 12.676 81.2152 13.04C81.4579 13.404 81.7706 13.6933 82.1532 13.908C82.5359 14.1133 82.9559 14.216 83.4132 14.216C83.7772 14.216 84.1319 14.16 84.4772 14.048C84.8226 13.936 85.1119 13.7773 85.3452 13.572L85.9892 14.258C85.5972 14.5473 85.1866 14.7667 84.7572 14.916C84.3372 15.056 83.8752 15.126 83.3712 15.126ZM80.8092 10.982H85.4992C85.4432 10.562 85.3032 10.1887 85.0792 9.862C84.8646 9.526 84.5939 9.26467 84.2672 9.078C83.9406 8.882 83.5812 8.784 83.1892 8.784C82.7879 8.784 82.4192 8.87733 82.0832 9.064C81.7472 9.25067 81.4672 9.512 81.2432 9.848C81.0192 10.1747 80.8746 10.5527 80.8092 10.982ZM90.5365 15.14C89.9298 15.14 89.4632 14.9953 89.1365 14.706C88.8098 14.4167 88.6465 13.9967 88.6465 13.446V8.868H87.1345V7.986H88.6465V6.208L89.6685 5.942V7.986H91.7825V8.868H89.6685V13.18C89.6685 13.5533 89.7525 13.824 89.9205 13.992C90.0885 14.1507 90.3638 14.23 90.7465 14.23C90.9425 14.23 91.1152 14.216 91.2645 14.188C91.4232 14.16 91.5912 14.1133 91.7685 14.048V14.958C91.5912 15.0233 91.3905 15.07 91.1665 15.098C90.9518 15.126 90.7418 15.14 90.5365 15.14ZM93.3225 17.996C93.1918 17.996 93.0658 17.9867 92.9445 17.968C92.8325 17.9587 92.7392 17.9447 92.6645 17.926V16.988C92.8232 17.0253 93.0192 17.044 93.2525 17.044C93.8685 17.044 94.3352 16.68 94.6525 15.952L95.0725 14.986L92.2165 7.986H93.3645L95.6325 13.74L98.0825 7.986H99.2025L95.7025 16.092C95.5065 16.54 95.2965 16.904 95.0725 17.184C94.8485 17.464 94.5918 17.6693 94.3025 17.8C94.0225 17.9307 93.6958 17.996 93.3225 17.996Z"
        fill="white" />
    <defs>
        <clipPath id="clip0_19678_8929">
            <rect width="16" height="16" fill="white" transform="translate(0 2.5)" />
        </clipPath>
    </defs>
</svg>
    