<svg width="17" height="17" viewBox="0 0 17 17" fill="none" xmlns="http://www.w3.org/2000/svg">
    <g clip-path="url(#clip0_15487_10861)">
    <mask id="mask0_15487_10861" style="mask-type:luminance" maskUnits="userSpaceOnUse" x="0" y="0" width="43" height="17">
    <path d="M42.5 0.75H0.5V16.75H42.5V0.75Z" fill="white"/>
    </mask>
    <g mask="url(#mask0_15487_10861)">
    <path d="M8.54727 16.75C12.9656 16.75 16.5473 13.1683 16.5473 8.75C16.5473 4.33171 12.9656 0.75 8.54727 0.75C4.12898 0.75 0.547272 4.33171 0.547272 8.75C0.547272 13.1683 4.12898 16.75 8.54727 16.75Z" fill="#0098EA"/>
    <path d="M11.2788 5.21509H5.81545C4.81094 5.21509 4.17428 6.29866 4.67962 7.17463L8.0514 13.0189C8.27142 13.4005 8.82282 13.4005 9.04285 13.0189L12.4153 7.17463C12.92 6.30006 12.2833 5.21509 11.2795 5.21509H11.2788ZM8.04865 11.2663L7.31434 9.84509L5.54251 6.67615C5.42562 6.47332 5.57 6.2134 5.81477 6.2134H8.04797V11.2669L8.04865 11.2663ZM11.5504 6.67546L9.77922 9.84577L9.04491 11.2663V6.21272H11.2781C11.5229 6.21272 11.6673 6.47263 11.5504 6.67546Z" fill="white"/>
    </g>
    </g>
    <defs>
    <clipPath id="clip0_15487_10861">
    <rect width="16" height="16" fill="white" transform="translate(0.5 0.75)"/>
    </clipPath>
    </defs>
    </svg>
    