<svg width="48" height="48" viewBox="0 0 48 48" fill="none" xmlns="http://www.w3.org/2000/svg">
<circle cx="24" cy="24" r="24" fill="white" fill-opacity="0.1"/>
<path d="M19.905 33C17.4569 33.0024 15.0598 32.2942 13 30.96C13.3568 31.0018 13.7157 31.0225 14.0749 31.0219C16.1031 31.0252 18.0735 30.3407 19.6694 29.0784C18.7294 29.0603 17.8184 28.7465 17.0638 28.1807C16.3093 27.6149 15.7489 26.8255 15.4611 25.9228C15.74 25.9772 16.0235 26.0047 16.3076 26.0048C16.7088 26.0049 17.1082 25.9511 17.4953 25.845C16.4756 25.6373 15.5586 25.0803 14.8998 24.2684C14.241 23.4566 13.881 22.4399 13.8808 21.3908C13.8808 21.3706 13.8808 21.3519 13.8808 21.3332C14.506 21.6842 15.2055 21.8792 15.9207 21.9019C14.967 21.2593 14.292 20.2743 14.0334 19.1473C13.7748 18.0204 13.952 16.8364 14.5289 15.8367C15.659 17.2402 17.069 18.3884 18.6676 19.2069C20.2661 20.0253 22.0174 20.4957 23.8079 20.5875C23.5799 19.6121 23.678 18.588 24.087 17.6747C24.4959 16.7613 25.1927 16.0099 26.0689 15.5372C26.9452 15.0646 27.9518 14.8973 28.9321 15.0613C29.9124 15.2253 30.8115 15.7115 31.4894 16.4442C32.4962 16.2424 33.4616 15.8695 34.3445 15.3415C34.0082 16.3935 33.3046 17.2867 32.3645 17.8551C33.2575 17.7462 34.1293 17.5036 34.9512 17.1352C34.3462 18.0477 33.5848 18.8443 32.7029 19.4876C32.7128 19.6819 32.7171 19.8777 32.7171 20.075C32.7171 26.0768 28.1847 33 19.8993 33" fill="#C8C8C8"/>
</svg>
