<svg width="375" height="608" viewBox="0 0 375 608" fill="none" xmlns="http://www.w3.org/2000/svg">
    <g clip-path="url(#clip0_66_2242)">
    <rect width="375" height="608" fill="#CFF469"/>
    <path d="M201.132 532.554C205.661 530.951 210.444 530.154 215.118 529.067C230.652 525.444 246.223 522.029 261.766 518.442C280.311 514.149 298.838 509.81 317.346 505.426C322.246 504.275 327.138 503.071 332.029 501.893C331.594 502.509 331.196 503.152 330.716 503.705C321.105 515.39 308.406 522.337 294.384 527.256C281.042 531.911 267.21 534.067 253.17 534.955C251.821 535.036 250.688 534.955 250.788 536.984C251.169 544.583 251.413 552.201 251.63 559.81C251.63 561.277 252.092 561.748 253.605 561.685C260.688 561.431 267.772 561.25 274.855 561.096C294.384 560.679 313.904 560.317 333.424 559.855C335.471 559.801 335.933 560.471 335.951 562.41C336.014 572.663 336.232 582.926 336.395 593.207C336.697 612.21 336.999 631.211 337.301 650.208C337.518 664.701 337.745 679.194 337.889 693.687C337.889 695.263 338.315 695.725 339.909 695.707C346.313 695.616 352.727 695.707 359.14 695.707C366.286 695.707 371.413 692.708 374.076 685.906C374.23 685.534 374.23 684.801 374.982 685.353C374.982 723.246 374.982 706.784 374.982 744.665C374.982 746.223 374.683 746.477 373.17 746.477C249.408 746.434 125.646 746.434 1.88409 746.477C0.335182 746.477 0.0272217 746.178 0.0272217 744.665C0.0815695 706.772 0.0966551 723.234 0.0725005 685.353C0.0725005 685.29 0.154035 685.217 0.199325 685.163C0.244615 685.109 0.317055 685.036 0.344229 685.054C0.942055 685.281 0.896789 685.879 1.10512 686.35C3.74099 692.437 8.42395 695.525 15.0182 695.698C17.7355 695.77 20.4529 695.607 23.1703 695.698C24.9819 695.788 25.145 695.281 24.52 693.714C19.3569 680.852 20.154 667.908 24.0943 654.928C27.1559 644.855 32.3642 635.906 37.8895 627.029C44.6468 616.159 53.3515 607.002 62.4457 598.161C74.8823 586.06 88.7138 576.015 105.335 570.335C115.942 566.712 126.757 565.29 137.817 568.053C151.132 571.386 159.746 582.047 160.462 595.743C160.951 605.308 158.469 614.321 155.335 623.143C147.092 646.313 139.674 669.728 133.406 693.515C132.971 695.145 133.107 695.725 135.036 695.707C145.151 695.61 155.263 695.61 165.371 695.707C167.129 695.707 167.835 695.281 168.143 693.478C170.459 680.695 174.844 668.375 181.123 657.002C187.935 644.321 196.694 632.989 205.516 621.676C213.496 611.467 220.589 600.734 224.212 588.107C227.274 577.428 227.364 566.785 222.935 556.404C218.505 546.024 210.625 538.406 201.132 532.554Z" fill="#503658"/>
    <path d="M201.132 532.554C210.625 538.451 218.415 545.942 222.871 556.386C227.328 566.83 227.21 577.391 224.149 588.089C220.525 600.716 213.433 611.449 205.453 621.658C196.63 632.953 187.871 644.303 181.06 656.984C174.78 668.357 170.396 680.677 168.08 693.46C167.772 695.272 167.065 695.706 165.308 695.688C155.199 695.598 145.088 695.598 134.973 695.688C133.044 695.688 132.908 695.127 133.342 693.496C139.611 669.71 147.029 646.295 155.272 623.125C158.406 614.303 160.888 605.29 160.399 595.725C159.701 582.029 151.087 571.368 137.754 568.034C126.694 565.272 115.879 566.703 105.272 570.317C88.6595 575.996 74.8189 586.042 62.3823 598.143C53.3243 606.984 44.5834 616.187 37.8261 627.011C32.3008 635.851 27.0924 644.837 24.0309 654.909C20.0906 667.889 19.2935 680.833 24.4566 693.696C25.0816 695.263 24.9095 695.77 23.1069 695.679C20.3895 695.543 17.6721 695.679 14.9547 695.679C8.36054 695.507 3.67759 692.418 1.04172 686.332C0.833383 685.861 0.878648 685.263 0.280822 685.036C0.280822 685.036 0.181209 685.1 0.135919 685.145C0.0906292 685.19 0.0543841 685.272 0.00909424 685.335V682.917C3.38772 677.826 6.19569 672.4 9.06707 667.02C17.5182 651.114 25.7156 635.063 36.087 620.263C57.5182 589.692 85.1993 567.011 120.326 553.777C130.634 549.891 141.313 547.219 151.957 544.447C164.873 541.114 177.826 537.989 190.779 534.792C194.176 533.816 197.635 533.069 201.132 532.554Z" fill="#503658"/>
    <path d="M374.955 685.208C374.203 684.656 374.203 685.39 374.049 685.761C371.386 692.564 366.259 695.589 359.112 695.562C352.699 695.562 346.286 695.507 339.882 695.562C338.288 695.562 337.871 695.118 337.862 693.542C337.717 679.049 337.491 664.556 337.274 650.063C336.996 631.06 336.694 612.059 336.368 593.062C336.205 582.808 335.987 572.545 335.924 562.265C335.924 560.326 335.444 559.656 333.397 559.71C313.877 560.172 294.357 560.534 274.828 560.951C267.745 561.105 260.661 561.286 253.578 561.54C252.065 561.603 251.639 561.132 251.603 559.665C251.386 552.056 251.141 544.438 250.761 536.839C250.661 534.828 251.793 534.891 253.143 534.81C267.192 533.904 281.014 531.766 294.357 527.111C308.379 522.219 321.078 515.272 330.688 503.56C331.168 502.98 331.594 502.337 332.002 501.748C341.06 499.312 350.118 496.902 359.176 494.42C364.456 492.98 369.701 491.431 374.964 489.891L374.955 685.208Z" fill="#503658"/>
    <path d="M220.562 176.859C134.964 195.671 52.5363 121.605 3.71933e-05 98.9601L-4.07605 -50.0435H315.67C321.558 -45.9674 334.149 -25.4058 337.409 24.2319C341.486 86.279 301.63 159.041 220.562 176.859Z" fill="#503658"/>
    </g>
    <defs>
    <clipPath id="clip0_66_2242">
    <rect width="375" height="608" fill="white"/>
    </clipPath>
    </defs>
    </svg>
    