<svg width="47" height="46" viewBox="0 0 47 46" fill="none" xmlns="http://www.w3.org/2000/svg">
<path fill-rule="evenodd" clip-rule="evenodd" d="M8.90607 20.9148C18.3013 16.6811 24.5662 13.89 27.7009 12.5415C36.6511 8.69116 38.5108 8.02232 39.723 8.00024C39.9896 7.99538 40.5857 8.06372 40.9719 8.38778C41.2979 8.66141 41.3876 9.03105 41.4306 9.29049C41.4735 9.54992 41.5269 10.1409 41.4844 10.6027C40.9994 15.8735 38.9008 28.6643 37.8331 34.5677C37.3813 37.0656 36.4918 37.9032 35.6306 37.9851C33.7591 38.1633 32.3379 36.7059 30.5252 35.4769C27.6887 33.5538 26.0862 32.3566 23.3329 30.48C20.1509 28.3113 22.2137 27.1193 24.027 25.1712C24.5016 24.6614 32.7477 16.9038 32.9074 16.2C32.9273 16.112 32.9458 15.7839 32.7574 15.6107C32.569 15.4375 32.2908 15.4967 32.0901 15.5438C31.8056 15.6106 27.2743 18.7084 18.496 24.8371C17.2098 25.7506 16.0448 26.1957 15.001 26.1723C13.8503 26.1466 11.6367 25.4994 9.99121 24.9462C7.9729 24.2676 6.3688 23.9088 6.50848 22.7564C6.58123 22.1562 7.38043 21.5423 8.90607 20.9148Z" fill="url(#paint0_linear_8225_56220)"/>
<defs>
<linearGradient id="paint0_linear_8225_56220" x1="1.11538" y1="34.25" x2="38.4925" y2="6.34981" gradientUnits="userSpaceOnUse">
<stop stop-color="#6AB3F7"/>
<stop offset="1" stop-color="#67EBD4"/>
</linearGradient>
</defs>
</svg>
