<svg width="16" height="16" viewBox="0 0 16 16" fill="none" xmlns="http://www.w3.org/2000/svg">
<path fill-rule="evenodd" clip-rule="evenodd" d="M1.96243 7.16592C5.72052 5.47245 8.2265 4.356 9.48037 3.81659C13.0604 2.27646 13.8043 2.00893 14.2892 2.00009C14.3959 1.99815 14.6343 2.02549 14.7887 2.15511C14.9192 2.26457 14.955 2.41242 14.9722 2.5162C14.9894 2.61997 15.0108 2.85637 14.9938 3.04108C14.7998 5.1494 13.9603 10.2657 13.5332 12.6271C13.3525 13.6263 12.9967 13.9613 12.6522 13.9941C11.9036 14.0653 11.3351 13.4823 10.6101 12.9908C9.47546 12.2215 8.83448 11.7426 7.73315 10.992C6.46037 10.1245 7.28546 9.64771 8.01082 8.86849C8.20064 8.66457 11.4991 5.56151 11.5629 5.28001C11.5709 5.2448 11.5783 5.11357 11.503 5.04428C11.4276 4.97498 11.3163 4.99868 11.236 5.01753C11.1223 5.04424 9.3097 6.28334 5.79841 8.73483C5.28392 9.10023 4.81791 9.27826 4.40039 9.26893C3.9401 9.25865 3.05469 8.99976 2.39648 8.77846C1.58916 8.50704 0.947519 8.36353 1.00339 7.90257C1.03249 7.66247 1.35217 7.41692 1.96243 7.16592Z" fill="url(#paint0_linear_6758_5612)"/>
<defs>
<linearGradient id="paint0_linear_6758_5612" x1="-1.15385" y1="12.5" x2="13.797" y2="1.33992" gradientUnits="userSpaceOnUse">
<stop stop-color="#6AB3F7"/>
<stop offset="1" stop-color="#67EBD4"/>
</linearGradient>
</defs>
</svg>
