<svg width="46" height="46" viewBox="0 0 46 46" fill="none" xmlns="http://www.w3.org/2000/svg">
<path fill-rule="evenodd" clip-rule="evenodd" d="M10.9249 21.3318C18.441 17.9449 23.453 15.712 25.9607 14.6332C33.1209 11.5529 34.6087 11.0179 35.5784 11.0002C35.7917 10.9963 36.2686 11.051 36.5775 11.3102C36.8383 11.5291 36.9101 11.8248 36.9444 12.0324C36.9788 12.2399 37.0215 12.7127 36.9876 13.0822C36.5995 17.2988 34.9206 27.5315 34.0665 32.2541C33.7051 34.2525 32.9934 34.9225 32.3045 34.9881C30.8072 35.1306 29.6703 33.9647 28.2201 32.9815C25.9509 31.443 24.669 30.4853 22.4663 28.984C19.9207 27.249 21.5709 26.2954 23.0216 24.737C23.4013 24.3291 29.9982 18.123 30.1259 17.56C30.1419 17.4896 30.1567 17.2271 30.0059 17.0886C29.8552 16.95 29.6327 16.9974 29.4721 17.0351C29.2445 17.0885 25.6194 19.5667 18.5968 24.4697C17.5678 25.2005 16.6358 25.5565 15.8008 25.5379C14.8802 25.5173 13.1094 24.9995 11.793 24.5569C10.1783 24.0141 8.89504 23.7271 9.00678 22.8051C9.06499 22.3249 9.70434 21.8338 10.9249 21.3318Z" fill="url(#paint0_linear_8661_69119)"/>
<defs>
<linearGradient id="paint0_linear_8661_69119" x1="4.69231" y1="32" x2="34.594" y2="9.67985" gradientUnits="userSpaceOnUse">
<stop stop-color="#6AB3F7"/>
<stop offset="1" stop-color="#67EBD4"/>
</linearGradient>
</defs>
</svg>
