<svg width="47" height="46" viewBox="0 0 47 46" fill="none" xmlns="http://www.w3.org/2000/svg">
<path fill-rule="evenodd" clip-rule="evenodd" d="M36.7258 16.0083C36.7378 16.3179 36.7418 16.6274 36.7418 16.937C36.7418 26.3237 30.1388 37.16 18.064 37.16C14.3549 37.16 10.9059 35.9778 8 33.9654C8.51368 34.0217 9.03536 34.064 9.56505 34.064C12.6404 34.064 15.473 32.9239 17.7198 31.01C14.8472 30.9677 12.4216 28.899 11.5851 26.0844C11.9867 26.1689 12.4003 26.2112 12.8232 26.2112C13.4196 26.2112 13.9986 26.1269 14.5537 25.958C11.5477 25.3106 9.28353 22.4398 9.28353 18.9919C9.28353 18.9497 9.28353 18.9356 9.28353 18.9074C10.1695 19.4281 11.1834 19.7516 12.2602 19.7938C10.4963 18.5132 9.33687 16.332 9.33687 13.8692C9.33687 12.5745 9.65975 11.3501 10.2281 10.2946C13.465 14.6009 18.3042 17.4296 23.7598 17.7252C23.6478 17.2045 23.5904 16.6558 23.5904 16.1069C23.5904 12.1806 26.5297 9 30.1561 9C32.044 9 33.7491 9.85857 34.9459 11.2377C36.4443 10.9281 37.8479 10.3371 39.1181 9.52086C38.6257 11.1815 37.5864 12.5744 36.2281 13.4469C37.557 13.2781 38.8245 12.8984 40 12.3355C39.1181 13.7568 38.008 15.0091 36.7258 16.0083Z" fill="url(#paint0_linear_8698_75519)"/>
<defs>
<linearGradient id="paint0_linear_8698_75519" x1="3.07692" y1="33.64" x2="37.889" y2="8.32945" gradientUnits="userSpaceOnUse">
<stop stop-color="#6AB3F7"/>
<stop offset="1" stop-color="#67EBD4"/>
</linearGradient>
</defs>
</svg>
