<svg width="46" height="46" viewBox="0 0 46 46" fill="none" xmlns="http://www.w3.org/2000/svg">
<path fill-rule="evenodd" clip-rule="evenodd" d="M35.7258 16.0083C35.7378 16.3179 35.7418 16.6274 35.7418 16.937C35.7418 26.3237 29.1388 37.16 17.064 37.16C13.3549 37.16 9.90594 35.9778 7 33.9654C7.51368 34.0217 8.03536 34.064 8.56505 34.064C11.6404 34.064 14.473 32.9239 16.7198 31.01C13.8472 30.9677 11.4216 28.899 10.5851 26.0844C10.9867 26.1689 11.4003 26.2112 11.8232 26.2112C12.4196 26.2112 12.9986 26.1269 13.5537 25.958C10.5477 25.3106 8.28353 22.4398 8.28353 18.9919C8.28353 18.9497 8.28353 18.9356 8.28353 18.9074C9.16945 19.4281 10.1834 19.7516 11.2602 19.7938C9.49632 18.5132 8.33687 16.332 8.33687 13.8692C8.33687 12.5745 8.65975 11.3501 9.22813 10.2946C12.465 14.6009 17.3042 17.4296 22.7598 17.7252C22.6478 17.2045 22.5904 16.6558 22.5904 16.1069C22.5904 12.1806 25.5297 9 29.1561 9C31.044 9 32.7491 9.85857 33.9459 11.2377C35.4443 10.9281 36.8479 10.3371 38.1181 9.52086C37.6257 11.1815 36.5864 12.5744 35.2281 13.4469C36.557 13.2781 37.8245 12.8984 39 12.3355C38.1181 13.7568 37.008 15.0091 35.7258 16.0083Z" fill="url(#paint0_linear_8661_69113)"/>
<defs>
<linearGradient id="paint0_linear_8661_69113" x1="2.07692" y1="33.64" x2="36.889" y2="8.32945" gradientUnits="userSpaceOnUse">
<stop stop-color="#6AB3F7"/>
<stop offset="1" stop-color="#67EBD4"/>
</linearGradient>
</defs>
</svg>
