<svg width="14" height="16" viewBox="0 0 14 16" fill="none" xmlns="http://www.w3.org/2000/svg">
<path d="M8.0873 12.8565L10.7122 12.1599C10.6936 11.9799 10.6287 11.5545 10.4085 11.0538C10.2382 10.6664 10.0093 10.31 9.72818 9.9945C9.37693 9.60001 8.94216 9.26823 8.43603 9.00829C7.9767 8.77231 7.60545 8.5685 7.33263 8.4023C6.9767 8.18572 6.85451 7.7297 7.05444 7.3641C7.20761 7.08376 7.42722 6.72163 7.70704 6.28767C8.01679 5.8074 8.22782 5.30038 8.33436 4.78074C8.41949 4.36574 8.43875 3.94136 8.39136 3.5196C8.33059 2.97908 8.176 2.58378 8.10254 2.4201L5.48132 3.1291L2.85648 3.82578C2.87506 4.00588 2.93989 4.43125 3.16014 4.93192C3.33053 5.3194 3.5593 5.67576 3.84032 5.99124C4.19171 6.38568 4.62642 6.71757 5.13256 6.9775C5.59194 7.21339 5.96319 7.4172 6.23601 7.5834C6.59196 7.80005 6.71415 8.25607 6.5142 8.6216C6.36103 8.90194 6.14142 9.26407 5.86155 9.69812C5.55319 10.1763 5.34264 10.681 5.23554 11.1983C5.14993 11.6121 5.13001 12.0352 5.17615 12.4558C5.23575 12.9995 5.39226 13.4002 5.46625 13.5656L8.0873 12.8565ZM10.8674 12.3621C10.8673 12.3622 10.8671 12.3622 10.8671 12.3622L8.1482 13.0838L5.4331 13.8183C5.43303 13.8183 5.43303 13.8183 5.43289 13.8183C5.38033 13.8324 5.32492 13.8084 5.29905 13.7606C5.28802 13.7401 5.0291 13.254 4.94359 12.4923C4.89353 12.046 4.91372 11.5968 5.00384 11.1576C5.11641 10.6094 5.3384 10.0753 5.66399 9.57051C5.94076 9.14119 6.15745 8.78391 6.30792 8.50867C6.44742 8.25371 6.36212 7.93539 6.11384 7.78434C5.8459 7.62121 5.47958 7.42006 5.02524 7.18664C4.49085 6.91225 4.03161 6.56085 3.66003 6.14236C3.36234 5.80697 3.12029 5.42815 2.94045 5.01649C2.63371 4.3143 2.61486 3.76372 2.61421 3.74062C2.61265 3.68611 2.64869 3.63778 2.70124 3.6237C2.70139 3.62366 2.70139 3.62366 2.70146 3.62364L5.42044 2.90189L8.1355 2.1676C8.1355 2.1676 8.13565 2.16756 8.13579 2.16752C8.18835 2.15344 8.24372 2.17727 8.26962 2.22525C8.28062 2.24559 8.53958 2.73183 8.62495 3.49333C8.67511 3.93974 8.6549 4.38883 8.56472 4.82815C8.45223 5.37635 8.23022 5.91029 7.90463 6.41511C7.62786 6.84443 7.41115 7.20164 7.26072 7.47703C7.12122 7.73199 7.20652 8.05031 7.4548 8.20136C7.72278 8.36464 8.08904 8.56556 8.54338 8.79898C9.07777 9.07337 9.53703 9.42485 9.90854 9.84335C10.2063 10.1787 10.4483 10.5575 10.6281 10.9692C10.935 11.6715 10.9538 12.2221 10.9545 12.2452C10.956 12.2996 10.92 12.3481 10.8674 12.3621Z" fill="#F87171"/>
<path d="M8.10337 12.9163L10.5887 12.2565C10.3892 11.7627 9.56195 11.2858 8.83058 10.864C8.19948 10.5001 7.6033 10.1564 7.4661 9.84054C7.27642 9.4041 6.93996 8.3776 6.79744 7.84337C6.70312 7.4902 6.77488 7.15097 6.99409 6.9127C7.21897 6.66822 7.42532 6.34496 7.52465 6.18967C7.53501 6.17322 7.54438 6.1586 7.55251 6.14611C7.69213 5.92948 7.81049 5.70472 7.90419 5.47797C8.02913 5.17597 8.03882 4.96955 7.93276 4.86469C7.7639 4.69751 7.29784 4.76997 6.58515 5.07398C6.11224 5.27569 5.58158 5.3671 5.05065 5.33858C4.21211 5.29334 3.96953 5.42483 3.91377 5.54297C3.86935 5.63699 3.92347 5.76842 4.07469 5.93361C4.38265 6.26976 4.75985 6.55378 5.19562 6.77764C5.41441 6.89003 5.73419 7.04521 6.01477 7.14651C6.33107 7.26067 6.56436 7.52222 6.67151 7.88305C6.76849 8.20941 6.86047 8.63492 6.95796 9.08536C7.02269 9.38466 7.08979 9.69426 7.15985 9.98112C7.26459 10.4093 7.21027 10.8355 6.99371 11.2846C6.80548 11.6748 6.51728 12.0341 6.26318 12.3512C5.89299 12.8126 5.57215 13.2127 5.62155 13.5875L8.10337 12.9163ZM10.6293 12.2987C10.6293 12.2987 10.6293 12.2987 10.6292 12.2987L8.11661 12.9657L5.60733 13.6443C5.6004 13.6462 5.59315 13.6451 5.58705 13.6412C5.58096 13.6375 5.57685 13.6312 5.57561 13.6242C5.50197 13.2185 5.83617 12.8018 6.22319 12.3191C6.74611 11.667 7.33894 10.9279 7.11016 9.99334C7.03988 9.70568 6.97287 9.39583 6.90797 9.09618C6.8108 8.64667 6.71891 8.22207 6.62253 7.89765C6.52009 7.55268 6.29814 7.30309 5.99742 7.1946C5.71434 7.0924 5.39248 6.93622 5.17235 6.82317C4.73104 6.59642 4.34904 6.30877 4.03697 5.96809C3.87043 5.78623 3.81331 5.63575 3.8676 5.52113C3.95845 5.32866 4.35744 5.24995 5.05336 5.28746C5.57654 5.31564 6.09928 5.22557 6.56503 5.02687C7.309 4.70955 7.78126 4.64278 7.96879 4.82831C8.09098 4.94932 8.08503 5.17436 7.95147 5.49757C7.85649 5.72708 7.73676 5.95463 7.59536 6.17393C7.58733 6.18624 7.57811 6.20082 7.56771 6.21712C7.46765 6.37377 7.25962 6.69952 7.03172 6.9473C6.82456 7.1725 6.75721 7.49438 6.84683 7.83029C6.98888 8.36278 7.3241 9.38554 7.513 9.82024C7.64355 10.1206 8.2326 10.4602 8.85614 10.8197C9.64468 11.2744 10.4601 11.7446 10.6467 12.2654C10.6491 12.2721 10.6486 12.2796 10.6453 12.2859C10.642 12.2923 10.6362 12.2969 10.6293 12.2987Z" fill="#F87171"/>
<mask id="mask0_10205_451" style="mask-type:luminance" maskUnits="userSpaceOnUse" x="1" y="0" width="8" height="4">
<path d="M1.5 2.68701L8.70605 0.756157L8.95773 1.69545L1.75168 3.6263L1.5 2.68701Z" fill="white"/>
</mask>
<g mask="url(#mask0_10205_451)">
<path d="M1.99456 2.79766C1.88063 2.82819 1.81283 2.94573 1.84335 3.05966L1.86097 3.12541C1.89152 3.23941 2.00903 3.30738 2.12296 3.27685L8.46268 1.57813C8.57661 1.5476 8.6444 1.42999 8.61385 1.31598L8.59623 1.25023C8.5657 1.1363 8.44821 1.06841 8.33428 1.09894L1.99456 2.79766ZM8.52356 1.80534L2.18384 3.50406C1.9446 3.56816 1.69789 3.4256 1.63377 3.18629L1.61615 3.12054C1.55203 2.88124 1.69443 2.63449 1.93366 2.57038L8.27338 0.871659C8.51247 0.807596 8.75931 0.95005 8.82344 1.18936L8.84105 1.2551C8.90518 1.49441 8.76265 1.74127 8.52356 1.80534Z" fill="#F87171"/>
</g>
<path d="M2.3839 3.45219C2.32945 3.46678 2.29711 3.52278 2.31172 3.57731L2.32338 3.62082C2.33797 3.67527 2.394 3.70768 2.44845 3.69309L8.38989 2.10109C8.44434 2.0865 8.47666 2.03042 8.46207 1.97597L8.45041 1.93245C8.4358 1.87793 8.37979 1.84559 8.32534 1.86018L2.3839 3.45219ZM8.45075 2.32822L2.50931 3.92023C2.3297 3.96835 2.14432 3.86138 2.09618 3.6817L2.08452 3.63819C2.03635 3.45844 2.14341 3.27311 2.32302 3.22498L8.26446 1.63298C8.44407 1.58485 8.62931 1.69186 8.67747 1.87161L8.68913 1.91513C8.73728 2.09481 8.63036 2.2801 8.45075 2.32822Z" fill="#F87171"/>
<mask id="mask1_10205_451" style="mask-type:luminance" maskUnits="userSpaceOnUse" x="4" y="12" width="9" height="4">
<path d="M4.61279 14.3037L11.8188 12.3729L12.0706 13.3124L4.86453 15.2432L4.61279 14.3037Z" fill="white"/>
</mask>
<g mask="url(#mask1_10205_451)">
<path d="M5.10906 14.4207C4.99513 14.4512 4.92733 14.5687 4.95787 14.6828L4.97551 14.7486C5.00606 14.8626 5.12355 14.9305 5.23748 14.8999L11.5772 13.2012C11.6911 13.1707 11.7589 13.0531 11.7284 12.9391L11.7108 12.8733C11.6802 12.7593 11.5627 12.6914 11.4488 12.722L5.10906 14.4207ZM11.6381 13.4284L5.29834 15.1271C5.05911 15.1912 4.81241 15.0487 4.74831 14.8095L4.73067 14.7436C4.66653 14.5043 4.80893 14.2575 5.04816 14.1934L11.3879 12.4947C11.627 12.4306 11.8738 12.5731 11.938 12.8124L11.9556 12.8783C12.0197 13.1175 11.8772 13.3643 11.6381 13.4284Z" fill="#F87171"/>
</g>
<path d="M5.18395 13.9018C5.1295 13.9164 5.09718 13.9724 5.11175 14.0268L5.12345 14.0705C5.138 14.1248 5.19403 14.1572 5.24848 14.1426L11.1899 12.5506C11.2444 12.536 11.2767 12.4799 11.2621 12.4256L11.2504 12.382C11.2359 12.3276 11.1798 12.2952 11.1254 12.3098L5.18395 13.9018ZM11.2508 12.7779L5.30938 14.3699C5.12977 14.418 4.94435 14.3109 4.89625 14.1314L4.88455 14.0877C4.83642 13.9081 4.94346 13.7227 5.12307 13.6746L11.0645 12.0826C11.2441 12.0344 11.4294 12.1415 11.4775 12.3211L11.4892 12.3648C11.5373 12.5443 11.4304 12.7298 11.2508 12.7779Z" fill="#F87171"/>
</svg>
