<svg width="13" height="14" viewBox="0 0 13 14" fill="none" xmlns="http://www.w3.org/2000/svg">
<path d="M9.19511 2.86184C9.0789 2.80078 8.99141 2.6955 8.95188 2.56914C8.91235 2.44278 8.92402 2.3057 8.98432 2.18805C9.04462 2.0704 9.14862 1.98182 9.27343 1.9418C9.39823 1.90178 9.53363 1.91359 9.64984 1.97464C10.8476 2.60251 11.8023 3.61943 12.361 4.8623C12.9196 6.10518 13.0498 7.50199 12.7307 8.82873C12.4116 10.1555 11.6616 11.3353 10.601 12.1789C9.54042 13.0225 8.23074 13.4811 6.88198 13.4811C5.53322 13.4811 4.22353 13.0225 3.16296 12.1789C2.1024 11.3353 1.3524 10.1555 1.03326 8.82873C0.71411 7.50199 0.844309 6.10518 1.40297 4.8623C1.96163 3.61943 2.91639 2.60251 4.11411 1.97464C4.17165 1.94441 4.23451 1.92595 4.29909 1.92032C4.36368 1.91468 4.42873 1.92198 4.49053 1.9418C4.55233 1.96161 4.60967 1.99356 4.65927 2.03581C4.70888 2.07806 4.74977 2.12979 4.77963 2.18805C4.80949 2.2463 4.82772 2.30994 4.83329 2.37533C4.83886 2.44071 4.83165 2.50657 4.81207 2.56914C4.7925 2.63171 4.76095 2.68976 4.71921 2.73998C4.67748 2.7902 4.62638 2.83161 4.56885 2.86184C3.56727 3.3866 2.7688 4.23673 2.30151 5.27586C1.83423 6.31499 1.7252 7.48291 1.99193 8.59228C2.25866 9.70164 2.88568 10.6882 3.77242 11.3936C4.65916 12.099 5.75423 12.4825 6.88198 12.4825C8.00972 12.4825 9.10479 12.099 9.99153 11.3936C10.8783 10.6882 11.5053 9.70164 11.772 8.59228C12.0388 7.48291 11.9297 6.31499 11.4624 5.27586C10.9952 4.23673 10.1967 3.3866 9.19511 2.86184ZM7.37539 4.9903C7.37539 5.12279 7.32341 5.24985 7.23087 5.34353C7.13834 5.43722 7.01284 5.48985 6.88198 5.48985C6.75112 5.48985 6.62561 5.43722 6.53308 5.34353C6.44055 5.24985 6.38856 5.12279 6.38856 4.9903V0.993931C6.38856 0.861443 6.44055 0.734382 6.53308 0.640699C6.62561 0.547015 6.75112 0.494385 6.88198 0.494385C7.01284 0.494385 7.13834 0.547015 7.23087 0.640699C7.32341 0.734382 7.37539 0.861443 7.37539 0.993931V4.9903Z" fill="#7CA2FF"/>
</svg>
