<svg width="36" height="30" viewBox="0 0 36 30" fill="none" xmlns="http://www.w3.org/2000/svg">
<path d="M21.6 29.1231L0 16.3846H0.553846L22.1538 28.5693L21.6 29.1231Z" fill="#5F6365"/>
<path d="M16.0615 6.96924L0 16.3846L0.5 16.5L16.6154 7.52308L16.0615 6.96924Z" fill="#5F6365"/>
<path d="M14.9539 6.96924V7.52308H16.0615V8.07693H16.6154V6.96924H14.9539Z" fill="#5F6365"/>
<path d="M30.4615 9.73848V15.8308L31.5692 15.2769V9.18463L30.4615 9.73848Z" fill="#5F6365"/>
<path d="M30.4615 9.73847L28.8 7.52308L29.9077 6.96924L31.5692 9.18462L30.4615 9.73847Z" fill="#CECECE"/>
<path d="M28.8 7.5231L30.4616 9.73849V15.8308L27.6923 14.1693V8.07695L28.8 7.5231Z" fill="#A8A8A8"/>
<path d="M29.9077 6.96924L28.8 7.52308L27.6923 8.07693L28.8 7.52308L29.9077 6.96924Z" fill="#F4F4F4"/>
<path d="M34.8923 3.09233V18.6L36 18V2.53848L34.8923 3.09233Z" fill="#5F6365"/>
<path d="M34.8923 3.09232L33.7846 0.876936L34.8923 0.32309L36 2.53847L34.8923 3.09232Z" fill="#CECECE"/>
<path d="M33.7846 0.876923L34.8923 3.09231V18.6L32.123 16.3846V1.43077L33.7846 0.876923Z" fill="#A8A8A8"/>
<path d="M34.8923 0.32309L33.2307 0.876936L32.123 1.43078L33.7846 0.876936L34.8923 0.32309Z" fill="#F4F4F4"/>
<path d="M11.6308 19.7077V21.3692L20.4923 16.3846V14.7231L11.6308 19.7077Z" fill="#5F6365"/>
<path d="M11.6308 19.7077L8.30768 18.0462L17.1692 13.0616H19.9384L20.4923 14.7231L11.6308 19.7077Z" fill="#DFE0E0"/>
<path d="M11.6308 19.7077V21.3693L8.30768 19.7077V18.0462L11.6308 19.7077Z" fill="#A8A8A8"/>
<path d="M6.64618 17.4923V18.6L9.96926 16.9385V15.2769L6.64618 17.4923Z" fill="#5F6365"/>
<path d="M6.64618 17.4923L3.87695 15.2769L7.20003 13.6154H9.96926V15.2769L6.64618 17.4923Z" fill="#DFE0E0"/>
<path d="M6.64618 17.4923V18.6L3.87695 16.9385V15.2769L6.64618 17.4923Z" fill="#A8A8A8"/>
<path d="M16.0615 22.4769V24.1385L30.4615 15.8308V14.1693L16.0615 22.4769Z" fill="#5F6365"/>
<path d="M16.0615 22.4769L13.2923 20.8154L27.6923 12.5077L30.4615 14.1692L16.0615 22.4769Z" fill="#DFE0E0"/>
<path d="M16.0615 22.4769V24.1385L13.2923 22.4769V20.8154L16.0615 22.4769Z" fill="#A8A8A8"/>
<path d="M20.4923 25.2462V26.9077L34.8923 18.6V16.9385L20.4923 25.2462Z" fill="#5F6365"/>
<path d="M20.4923 25.2462L17.7231 23.5846L32.1231 15.2769L34.8923 16.9385L20.4923 25.2462Z" fill="#DFE0E0"/>
<path d="M20.4923 25.2462V26.9077L17.7231 25.2462V23.5846L20.4923 25.2462Z" fill="#A8A8A8"/>
</svg>
