<svg width="28" height="28" viewBox="0 0 28 28" fill="none" xmlns="http://www.w3.org/2000/svg">
<rect width="28" height="28" rx="14" fill="#3E7EFF"/>
<mask id="mask0_3541_29346" style="mask-type:luminance" maskUnits="userSpaceOnUse" x="0" y="0" width="28" height="28">
<rect width="28" height="28" rx="14" fill="white"/>
</mask>
<g mask="url(#mask0_3541_29346)">
<rect width="28" height="28" fill="url(#paint0_linear_3541_29346)"/>
</g>
<g clip-path="url(#clip0_3541_29346)">
<path d="M14.3 9.39999H7.9C7.67909 9.39999 7.5 9.57908 7.5 9.79999V10.6C7.5 10.8209 7.67909 11 7.9 11H14.3C14.5209 11 14.7 10.8209 14.7 10.6V9.79999C14.7 9.57908 14.5209 9.39999 14.3 9.39999Z" fill="white"/>
<path fill-rule="evenodd" clip-rule="evenodd" d="M10.8 6C10.5791 6 10.4 6.17909 10.4 6.4V18H10.4027C10.4816 20.2225 12.3083 22 14.55 22C14.634 22 14.7173 21.9975 14.8 21.9926V20.6996C13.2992 20.6738 12.0811 19.4878 12.0039 18H12V6.4C12 6.17909 11.8209 6 11.6 6H10.8Z" fill="white"/>
<path fill-rule="evenodd" clip-rule="evenodd" d="M15.9727 14.9C15.7219 14.9 15.4791 14.8652 15.2487 14.8H15.9727V13.5966C16.6992 13.5472 17.2727 12.9632 17.2727 12.25C17.2727 11.5368 16.6992 10.9528 15.9727 10.9034V9.39999C17.4639 9.39999 18.6727 10.6312 18.6727 12.15C18.6727 13.6688 17.4639 14.9 15.9727 14.9ZM15.6727 9.39999C15.4518 9.39999 15.2727 9.57908 15.2727 9.79999V10.5C15.2727 10.7209 15.4518 10.9 15.6727 10.9H15.9727V9.39999H15.6727Z" fill="white"/>
<path d="M13.2727 14C13.2727 13.7791 13.4518 13.6 13.6727 13.6H16.2727V15.2H13.6727C13.4518 15.2 13.2727 15.0209 13.2727 14.8V14Z" fill="white"/>
<path fill-rule="evenodd" clip-rule="evenodd" d="M16.2727 22C18.5371 22 20.3727 20.1868 20.3727 17.95C20.3727 15.7132 18.5371 13.9 16.2727 13.9V15.2004C17.7684 15.2271 18.9727 16.4479 18.9727 17.95C18.9727 19.4521 17.7684 20.6729 16.2727 20.6996V22Z" fill="white"/>
<path d="M15.8727 21.1C15.8727 20.8791 16.0518 20.7 16.2727 20.7V22C16.0518 22 15.8727 21.8209 15.8727 21.6V21.1Z" fill="white"/>
<path d="M14.7 20.7H14.9C15.1209 20.7 15.3 20.8791 15.3 21.1V21.6C15.3 21.8209 15.1209 22 14.9 22H14.7V20.7Z" fill="white"/>
</g>
<defs>
<linearGradient id="paint0_linear_3541_29346" x1="-4.30769" y1="24.5" x2="28.7303" y2="3.36176" gradientUnits="userSpaceOnUse">
<stop stop-color="#6AB3F7"/>
<stop offset="1" stop-color="#67EBD4"/>
</linearGradient>
<clipPath id="clip0_3541_29346">
<rect width="13.6" height="16" fill="white" transform="translate(7.5 6)"/>
</clipPath>
</defs>
</svg>
