<svg width="28" height="20" viewBox="0 0 28 20" fill="none" xmlns="http://www.w3.org/2000/svg">
<path d="M19.4782 13.1616V16.8367L22.0049 18.3298V14.6087L19.4782 13.1616Z" fill="#A7C0FF"/>
<path d="M5.05327 8.33797L2.52661 6.84494V3.44543L5.05327 4.89252V8.33797Z" fill="#487CFF"/>
<path d="M27.7704 9.44052H24.2101V13.0238H27.7704V9.44052Z" fill="#487CFF"/>
<path d="M3.76693 9.44052H0.206635V13.0238H3.76693V9.44052Z" fill="#A7C0FF"/>
<path d="M22.9467 8.33797L25.4733 6.84494V3.44543L22.9467 4.89252V8.33797Z" fill="#487CFF"/>
<path d="M8.49871 13.1616V16.8367L5.97205 18.3298V14.6087L8.49871 13.1616Z" fill="#487CFF"/>
<path d="M22.9467 11.1862V14.7925C23.4973 14.298 23.9292 13.6855 24.2101 13.0008V9.41757C23.9222 10.0918 23.4911 10.6953 22.9467 11.1862ZM16.4463 17.5948C17.4876 17.4455 18.511 17.1915 19.5013 16.8368V13.1616C18.5094 13.5007 17.4859 13.7393 16.4463 13.8737V17.5948ZM3.79004 13.0008C4.07091 13.6855 4.50276 14.298 5.05338 14.7925V11.1862C4.50896 10.6953 4.07787 10.0918 3.79004 9.41757V13.0008ZM8.49882 16.8368C9.48828 17.1941 10.5121 17.4481 11.5538 17.5948V13.8737C10.5137 13.742 9.48996 13.5033 8.49882 13.1616V16.8368Z" fill="#0D52FF"/>
<path d="M27.7703 9.41757V13.0008C27.9155 12.5398 27.9929 12.0601 28 11.5767V8.01642C27.9947 8.49239 27.9172 8.96481 27.7703 9.41757ZM22.0049 18.3298C23.2624 17.8371 24.4332 17.147 25.4733 16.2855V12.6333C24.4192 13.4566 23.2508 14.122 22.0049 14.6087V18.3298ZM0 11.5767C0.00710546 12.0601 0.08446 12.5398 0.229675 13.0008V9.41757C0.0827299 8.96481 0.00530524 8.49239 0 8.01642V11.5767ZM2.52664 16.2855C3.56174 17.1421 4.72422 17.8318 5.97209 18.3298V14.6087C4.73631 14.1158 3.57637 13.4507 2.52664 12.6333V16.2855ZM11.5537 15.918V19.685C12.362 19.778 13.1749 19.824 13.9885 19.8228C14.8097 19.824 15.6303 19.778 16.4463 19.685V15.918C15.6303 16.011 14.8097 16.057 13.9885 16.0558C13.1749 16.057 12.362 16.011 11.5537 15.918Z" fill="#7EA3FF"/>
<path d="M27.7703 9.41757C27.9172 8.96481 27.9947 8.49239 28 8.01642C27.991 7.54077 27.9136 7.06889 27.7703 6.61527H24.21C23.9156 5.95141 23.4852 5.35668 22.9467 4.86955L25.4733 3.42249C24.4241 2.59182 23.2546 1.92573 22.0049 1.4471L19.5012 2.8942C18.5093 2.55508 17.4859 2.3165 16.4463 2.18211V0.114855C15.6423 0.114855 14.8384 0 13.9885 0C13.1386 0 12.3347 7.00807e-06 11.5537 0.114855V2.18211C10.5136 2.31383 9.4899 2.55248 8.49876 2.8942L5.97209 1.4471C4.73195 1.93096 3.57075 2.59672 2.52664 3.42249L5.05332 4.86955C4.51474 5.35668 4.08435 5.95141 3.78998 6.61527H0.229675C0.0863309 7.06889 0.00899448 7.54077 0 8.01642C0.00530524 8.49239 0.0827299 8.96481 0.229675 9.41757H3.78998C4.07781 10.0918 4.5089 10.6953 5.05332 11.1862L2.52664 12.6333C3.57637 13.4507 4.73631 14.1158 5.97209 14.6087L8.49876 13.1616C9.4899 13.5033 10.5136 13.742 11.5537 13.8737V15.918C12.362 16.011 13.1749 16.057 13.9885 16.0558C14.8097 16.057 15.6303 16.011 16.4463 15.918V13.8737C17.4859 13.7393 18.5093 13.5007 19.5012 13.1616L22.0049 14.6087C23.2508 14.122 24.4192 13.4566 25.4733 12.6333L22.9467 11.1862C23.4911 10.6953 23.9222 10.0918 24.21 9.41757H27.7703Z" fill="#C6D6FF"/>
<path d="M23.6587 2.22806C23.1254 1.9314 22.5729 1.67052 22.0049 1.4471L19.5012 2.8942C18.5093 2.55508 17.4859 2.3165 16.4463 2.18211V0.114855C15.6423 0.114855 14.8384 0 13.9885 0C13.1386 0 12.3347 7.00807e-06 11.5537 0.114855V2.18211C10.5136 2.31383 9.4899 2.55248 8.49876 2.8942L5.97209 1.4471C4.73195 1.93096 3.57074 2.59672 2.52664 3.42249L5.05332 4.86955C4.51474 5.35668 4.08435 5.95141 3.78998 6.61527H0.229675C0.0863309 7.06889 0.00899448 7.54077 0 8.01642C0.00530524 8.49239 0.0827299 8.96481 0.229675 9.41757H3.78998C3.99848 9.90515 4.28557 10.3552 4.63984 10.7498C13.575 10.4053 21.0172 6.93684 23.6587 2.22806Z" fill="#C6D6FF"/>
<path d="M21.0632 8.0164C21.0632 10.3134 17.8934 12.082 13.9886 12.082C10.0837 12.082 6.93689 10.2674 6.93689 8.0164C6.93689 5.76538 10.1067 3.97372 13.9886 3.97372C17.8705 3.97372 21.0632 5.78835 21.0632 8.0164Z" fill="#0D52FF"/>
<mask id="mask0_388_10304" style="mask-type:luminance" maskUnits="userSpaceOnUse" x="6" y="4" width="16" height="9">
<path d="M13.9886 4.54797C10.2675 4.54797 7.21254 6.22476 6.95987 8.31499C7.21254 10.4052 10.2675 12.0821 13.9886 12.0821C17.7097 12.0821 20.8795 10.4052 21.0403 8.31499C20.7876 6.22476 17.7326 4.54797 13.9886 4.54797Z" fill="white"/>
</mask>
<g mask="url(#mask0_388_10304)">
<path d="M3.72116 7.21246C3.72116 4.29531 7.90163 1.95242 13.0468 1.95242C18.192 1.95242 22.3725 4.24937 22.3725 7.21246C22.3725 10.1755 18.192 12.4725 13.0468 12.4725C7.90163 12.4725 3.72116 10.1985 3.72116 7.21246Z" fill="#7EA3FF"/>
<path d="M3.85898 7.21246C3.85898 4.34125 7.97055 2.02133 13.0468 2.02133C18.1231 2.02133 22.2347 4.31828 22.2347 7.21246C22.2347 10.1066 18.1231 12.4036 13.0468 12.4036C7.97055 12.4036 3.85898 10.1985 3.85898 7.21246Z" fill="#7EA3FF"/>
<path d="M3.9968 7.21245C3.9968 4.38719 8.03946 2.11319 13.0468 2.11319C18.0542 2.11319 22.0969 4.41016 22.0969 7.21245C22.0969 10.0148 18.0542 12.3117 13.0468 12.3117C8.03946 12.3117 3.9968 10.0377 3.9968 7.21245Z" fill="#7EA3FF"/>
<path d="M4.2265 7.21246C4.2265 4.43313 8.20026 2.1821 13.1387 2.1821C18.0772 2.1821 22.0509 4.47907 22.0509 7.21246C22.0509 9.94584 18.0542 12.2428 13.1387 12.2428C8.22323 12.2428 4.2265 9.99178 4.2265 7.21246Z" fill="#7EA3FF"/>
<path d="M4.2265 7.21246C4.2265 4.47907 8.15433 2.25101 13.0009 2.25101C17.8475 2.25101 21.7753 4.54798 21.7753 7.21246C21.7753 9.87694 17.8475 12.1739 13.0009 12.1739C8.15433 12.1739 4.2265 9.94585 4.2265 7.21246Z" fill="#7EA3FF"/>
<path d="M4.41025 7.21245C4.41025 4.525 8.26914 2.3429 13.0468 2.3429C17.8245 2.3429 21.6834 4.525 21.6834 7.21245C21.6834 9.8999 17.8245 12.082 13.0468 12.082C8.26914 12.082 4.41025 9.8999 4.41025 7.21245Z" fill="#7EA3FF"/>
<path d="M4.54807 7.21245C4.54807 4.57094 8.33805 2.4118 13.0468 2.4118C17.7556 2.4118 21.5456 4.57094 21.5456 7.21245C21.5456 9.85396 17.7326 12.0131 13.0468 12.0131C8.36102 12.0131 4.54807 9.85396 4.54807 7.21245Z" fill="#7EA3FF"/>
<path d="M4.68588 7.21246C4.68588 4.61689 8.42993 2.61853 13.0468 2.61853C17.6637 2.61853 21.4078 4.73174 21.4078 7.21246C21.4078 9.69318 17.6637 11.9442 13.0468 11.9442C8.42993 11.9442 4.68588 9.831 4.68588 7.21246Z" fill="#7EA3FF"/>
<path d="M4.8237 7.21246C4.8237 4.63986 8.49885 2.61853 13.0468 2.61853C17.5948 2.61853 21.27 4.6858 21.27 7.21246C21.27 9.73912 17.5948 11.8064 13.0468 11.8064C8.49885 11.8064 4.8237 9.78506 4.8237 7.21246Z" fill="#7EA3FF"/>
<path d="M4.96155 7.21246C4.96155 4.6858 8.56776 2.61853 13.0468 2.61853C17.5259 2.61853 21.1322 4.66283 21.1322 7.21246C21.1322 9.76209 17.5029 11.8064 13.0468 11.8064C8.59073 11.8064 4.96155 9.73912 4.96155 7.21246Z" fill="#7EA3FF"/>
<path d="M5.09937 7.21244C5.09937 4.73172 8.65964 2.73337 13.0468 2.73337C17.434 2.73337 20.9944 4.73172 20.9944 7.21244C20.9944 9.69316 17.434 11.8064 13.0468 11.8064C8.65964 11.8064 5.09937 9.69316 5.09937 7.21244Z" fill="#7EA3FF"/>
<path d="M5.23715 7.21244C5.23715 4.77766 8.72852 2.80228 13.0468 2.80228C17.3651 2.80228 20.8565 4.77766 20.8565 7.21244C20.8565 9.64723 17.3651 11.6226 13.0468 11.6226C8.72852 11.6226 5.23715 9.64723 5.23715 7.21244Z" fill="#7EA3FF"/>
<path d="M5.37497 7.21245C5.37497 4.91548 8.79744 2.87119 13.0468 2.87119C17.2962 2.87119 20.7187 4.8236 20.7187 7.21245C20.7187 9.60129 17.2962 11.5537 13.0468 11.5537C8.79744 11.5537 5.37497 9.60129 5.37497 7.21245Z" fill="#7EA3FF"/>
<path d="M5.51279 7.21247C5.51279 4.9155 8.88932 2.9631 13.0468 2.9631C17.2043 2.9631 20.5809 4.86956 20.5809 7.21247C20.5809 9.55537 17.2043 11.4619 13.0468 11.4619C8.88932 11.4619 5.51279 9.55537 5.51279 7.21247Z" fill="#7EA3FF"/>
<path d="M5.6506 7.21247C5.6506 4.91551 8.95824 3.03201 13.0468 3.03201C17.1354 3.03201 20.4431 4.91551 20.4431 7.21247C20.4431 9.50944 17.1354 11.393 13.0468 11.393C8.95824 11.393 5.6506 9.50944 5.6506 7.21247Z" fill="#7EA3FF"/>
<path d="M5.78842 7.21247C5.78842 4.9155 9.02715 3.12387 13.0468 3.12387C17.0665 3.12387 20.3053 4.93847 20.3053 7.21247C20.3053 9.48646 17.0665 11.3011 13.0468 11.3011C9.02715 11.3011 5.78842 9.48646 5.78842 7.21247Z" fill="#7EA3FF"/>
<path d="M5.92627 7.21247C5.92627 4.9155 9.09606 3.19278 13.0468 3.19278C16.9976 3.19278 20.1674 4.98441 20.1674 7.21247C20.1674 9.44052 16.9746 11.2322 13.0468 11.2322C9.11903 11.2322 5.92627 9.44052 5.92627 7.21247Z" fill="#7EA3FF"/>
<path d="M6.06409 7.21247C6.06409 5.03035 9.18796 3.26169 12.955 3.26169C16.722 3.26169 19.8459 5.03035 19.8459 7.21247C19.8459 9.39459 16.722 11.1633 12.955 11.1633C9.18796 11.1633 6.06409 9.39459 6.06409 7.21247Z" fill="#7EA3FF"/>
<path d="M6.20187 7.21246C6.20187 5.07628 9.25684 3.35358 13.0928 3.35358C16.9287 3.35358 19.9837 5.07628 19.9837 7.21246C19.9837 9.34864 16.9287 11.0714 13.0928 11.0714C9.25684 11.0714 6.20187 9.34864 6.20187 7.21246Z" fill="#7EA3FF"/>
<path d="M6.33969 7.21246C6.33969 5.12223 9.32574 3.42249 13.0468 3.42249C16.7679 3.42249 19.754 5.12223 19.754 7.21246C19.754 9.3027 16.7449 11.0025 13.0468 11.0025C9.34871 11.0025 6.33969 9.3027 6.33969 7.21246Z" fill="#7EA3FF"/>
<path d="M6.52347 7.21246C6.52347 5.16816 9.46358 3.51434 13.0928 3.51434C16.722 3.51434 19.6621 5.16816 19.6621 7.21246C19.6621 9.25676 16.722 10.9336 13.0928 10.9336C9.46358 10.9336 6.52347 9.25676 6.52347 7.21246Z" fill="#7EA3FF"/>
<path d="M6.52347 7.21246C6.52347 5.2141 9.39468 3.58325 12.955 3.58325C16.5153 3.58325 19.3865 5.2141 19.3865 7.21246C19.3865 9.21082 16.5153 10.8417 12.955 10.8417C9.39468 10.8417 6.52347 9.21082 6.52347 7.21246Z" fill="#7EA3FF"/>
<path d="M6.75317 7.21246C6.75317 5.26004 9.55545 3.65216 13.0468 3.65216C16.5382 3.65216 19.3405 5.26004 19.3405 7.21246C19.3405 9.16488 16.5153 10.7728 13.0468 10.7728C9.57842 10.7728 6.75317 9.18785 6.75317 7.21246Z" fill="#7EA3FF"/>
<path d="M6.89099 7.21245C6.89099 5.283 9.64733 3.74405 13.0468 3.74405C16.4463 3.74405 19.2027 5.283 19.2027 7.21245C19.2027 9.1419 16.4463 10.6809 13.0468 10.6809C9.64733 10.6809 6.89099 9.1419 6.89099 7.21245Z" fill="#7EA3FF"/>
<path d="M7.02881 7.21246C7.02881 5.32894 9.71625 3.81296 13.0468 3.81296C16.3774 3.81296 19.0649 5.32894 19.0649 7.21246C19.0649 9.09597 16.3774 10.612 13.0468 10.612C9.71625 10.612 7.02881 9.09597 7.02881 7.21246Z" fill="#7EA3FF"/>
<path d="M7.1666 7.21246C7.1666 5.37489 9.78513 3.88187 13.0468 3.88187C16.3085 3.88187 18.927 5.37489 18.927 7.21246C18.927 9.05003 16.3085 10.5431 13.0468 10.5431C9.78513 10.5431 7.1666 9.05003 7.1666 7.21246Z" fill="#7EA3FF"/>
<path d="M7.28146 7.21245C7.28146 5.42082 9.87702 3.97372 13.0468 3.97372C16.2166 3.97372 18.7892 5.42082 18.7892 7.21245C18.7892 9.00409 16.2166 10.4512 13.0468 10.4512C9.87702 10.4512 7.28146 9.00409 7.28146 7.21245Z" fill="#7EA3FF"/>
<path d="M7.41928 7.21245C7.41928 5.46676 9.94594 4.04266 13.0468 4.04266C16.1477 4.04266 18.6514 5.46676 18.6514 7.21245C18.6514 8.95814 16.1477 10.3823 13.0468 10.3823C9.94594 10.3823 7.41928 8.95814 7.41928 7.21245Z" fill="#7EA3FF"/>
<path d="M7.5571 7.21245C7.5571 5.51269 10.0148 4.13452 13.0468 4.13452C16.0788 4.13452 18.5136 5.51269 18.5136 7.21245C18.5136 8.9122 16.0788 10.3134 13.0468 10.3134C10.0148 10.3134 7.5571 8.9122 7.5571 7.21245Z" fill="#7EA3FF"/>
<path d="M7.69489 7.21245C7.69489 5.55863 9.99185 4.20343 13.0468 4.20343C16.1018 4.20343 18.3758 5.55863 18.3758 7.21245C18.3758 8.86626 16.0788 10.2215 13.0468 10.2215C10.0148 10.2215 7.69489 8.86626 7.69489 7.21245Z" fill="#7EA3FF"/>
<path d="M7.83273 7.21245C7.83273 5.58161 10.1297 4.27234 13.0468 4.27234C15.964 4.27234 18.238 5.58161 18.238 7.21245C18.238 8.8433 15.941 10.1526 13.0468 10.1526C10.1526 10.1526 7.83273 8.8433 7.83273 7.21245Z" fill="#7EA3FF"/>
<path d="M7.97055 7.21247C7.97055 5.62757 10.2675 4.36426 13.0468 4.36426C15.8261 4.36426 18.1001 5.62757 18.1001 7.21247C18.1001 8.79738 15.8032 10.0607 13.0468 10.0607C10.2905 10.0607 7.97055 8.79738 7.97055 7.21247Z" fill="#7EA3FF"/>
<path d="M8.10837 7.21244C8.10837 5.67348 10.4053 4.43314 13.0468 4.43314C15.6883 4.43314 18.0083 5.60457 18.0083 7.21244C18.0083 8.82032 15.7113 9.99179 13.0928 9.99179C10.4742 9.99179 8.10837 8.75141 8.10837 7.21244Z" fill="#7EA3FF"/>
<path d="M8.24619 7.21245C8.24619 5.71942 10.4053 4.50204 13.0468 4.50204C15.6883 4.50204 17.8245 5.71942 17.8245 7.21245C17.8245 8.70547 15.6883 9.92288 13.0468 9.92288C10.4053 9.92288 8.24619 8.70547 8.24619 7.21245Z" fill="#7EA3FF"/>
<path d="M8.384 7.21247C8.384 5.76538 10.4742 4.59393 12.9779 4.59393C15.4816 4.59393 17.5719 5.76538 17.5719 7.21247C17.5719 8.65956 15.5046 9.83101 12.9779 9.83101C10.4513 9.83101 8.384 8.65956 8.384 7.21247Z" fill="#7EA3FF"/>
<path d="M8.52182 7.21244C8.52182 5.8113 10.5431 4.66281 13.1157 4.66281C15.6884 4.66281 17.7097 5.8113 17.7097 7.21244C17.7097 8.61359 15.6884 9.76208 13.1157 9.76208C10.5431 9.76208 8.52182 8.61359 8.52182 7.21244Z" fill="#7EA3FF"/>
<path d="M8.65961 7.21246C8.65961 5.85726 10.635 4.75473 13.0468 4.75473C15.4586 4.75473 17.4111 5.85726 17.4111 7.21246C17.4111 8.56767 15.4586 9.69319 13.0468 9.69319C10.635 9.69319 8.65961 8.56767 8.65961 7.21246Z" fill="#7EA3FF"/>
<path d="M8.82043 7.21246C8.82043 5.90319 10.7269 4.9155 13.0698 4.9155C15.4127 4.9155 17.2962 5.99507 17.2962 7.21246C17.2962 8.42985 15.4127 9.50943 13.0698 9.50943C10.7269 9.50943 8.82043 8.5447 8.82043 7.21246Z" fill="#7EA3FF"/>
<path d="M8.93527 7.21246C8.93527 5.92616 10.7728 4.9155 13.0468 4.9155C15.3208 4.9155 17.1354 5.94913 17.1354 7.21246C17.1354 8.47579 15.3208 9.50943 13.0468 9.50943C10.7728 9.50943 8.93527 8.49876 8.93527 7.21246Z" fill="#7EA3FF"/>
<path d="M9.07309 7.21246C9.07309 5.9721 10.8647 4.9155 13.0468 4.9155C15.2289 4.9155 16.9976 5.90319 16.9976 7.21246C16.9976 8.52173 15.2289 9.50943 13.0468 9.50943C10.8647 9.50943 9.07309 8.45282 9.07309 7.21246Z" fill="#7EA3FF"/>
<path d="M9.21091 7.21247C9.21091 6.01805 10.9336 5.05331 13.0468 5.05331C15.16 5.05331 16.8598 6.01805 16.8598 7.21247C16.8598 8.40689 15.16 9.37162 13.0468 9.37162C10.9336 9.37162 9.21091 8.40689 9.21091 7.21247Z" fill="#7EA3FF"/>
<path d="M9.34872 7.21247C9.34872 6.06399 11.0025 5.12222 13.0468 5.12222C15.0911 5.12222 16.722 6.06399 16.722 7.21247C16.722 8.36095 15.0911 9.30272 13.0468 9.30272C11.0025 9.30272 9.34872 8.36095 9.34872 7.21247Z" fill="#7EA3FF"/>
<path d="M9.48654 7.21246C9.48654 6.10992 11.0944 5.21411 13.0468 5.21411C14.9993 5.21411 16.5842 6.10992 16.5842 7.21246C16.5842 8.315 14.9993 9.21084 13.0468 9.21084C11.0944 9.21084 9.48654 8.315 9.48654 7.21246Z" fill="#7EA3FF"/>
<path d="M9.62439 7.21246C9.62439 6.15586 11.1633 5.28302 13.0468 5.28302C14.9304 5.28302 16.4464 6.15586 16.4464 7.21246C16.4464 8.26907 14.9304 9.1419 13.0468 9.1419C11.1633 9.1419 9.62439 8.26907 9.62439 7.21246Z" fill="#7EA3FF"/>
<path d="M9.76218 7.21246C9.76218 6.20179 11.2322 5.37488 13.0468 5.37488C14.8614 5.37488 16.3085 6.20179 16.3085 7.21246C16.3085 8.22312 14.8614 9.05004 13.0468 9.05004C11.2322 9.05004 9.76218 8.24609 9.76218 7.21246Z" fill="#7EA3FF"/>
<path d="M9.89999 7.21246C9.89999 6.24773 11.3011 5.44379 13.0468 5.44379C14.7925 5.44379 16.1707 6.24773 16.1707 7.21246C16.1707 8.17718 14.7695 8.98113 13.0468 8.98113C11.3241 8.98113 9.89999 8.20015 9.89999 7.21246Z" fill="#7EA3FF"/>
<path d="M10.0378 7.21246C10.0378 6.2707 11.393 5.51273 13.0468 5.51273C14.7006 5.51273 16.0329 6.2707 16.0329 7.21246C16.0329 8.15421 14.7006 8.91222 13.0468 8.91222C11.393 8.91222 10.0378 8.15421 10.0378 7.21246Z" fill="#7EA3FF"/>
<path d="M10.1756 7.21245C10.1756 6.31664 11.4619 5.60458 13.0468 5.60458C14.6317 5.60458 15.918 6.31664 15.918 7.21245C15.918 8.10827 14.6317 8.82032 13.0468 8.82032C11.4619 8.82032 10.1756 8.10827 10.1756 7.21245Z" fill="#7EA3FF"/>
<path d="M10.3134 7.21245C10.3134 6.36258 11.5308 5.67349 13.0468 5.67349C14.5628 5.67349 15.7802 6.36258 15.7802 7.21245C15.7802 8.06233 14.5399 8.75142 13.0468 8.75142C11.5538 8.75142 10.3134 8.06233 10.3134 7.21245Z" fill="#7EA3FF"/>
<path d="M10.4513 7.21244C10.4513 6.40851 11.6227 5.76538 13.0468 5.76538C14.471 5.76538 15.6424 6.40851 15.6424 7.21244C15.6424 8.01638 14.471 8.6825 13.0468 8.6825C11.6227 8.6825 10.4513 8.01638 10.4513 7.21244Z" fill="#7EA3FF"/>
<path d="M10.5891 7.21245C10.5891 6.45445 11.6916 5.83429 13.0468 5.83429C14.4021 5.83429 15.5046 6.45445 15.5046 7.21245C15.5046 7.97045 14.4021 8.59064 13.0468 8.59064C11.6916 8.59064 10.5891 7.90154 10.5891 7.21245Z" fill="#7EA3FF"/>
<path d="M10.7269 7.21245C10.7269 6.50039 11.7605 5.9032 13.0239 5.9032C14.2872 5.9032 15.3208 6.50039 15.3208 7.21245C15.3208 7.92451 14.2642 8.52174 13.0239 8.52174C11.7835 8.52174 10.7269 7.90154 10.7269 7.21245Z" fill="#7EA3FF"/>
<path d="M10.8647 7.21244C10.8647 6.54632 11.8524 5.99506 13.1617 5.99506C14.471 5.99506 15.3438 6.54632 15.3438 7.21244C15.3438 7.87856 14.3561 8.42983 13.1617 8.42983C11.9673 8.42983 10.8647 7.90153 10.8647 7.21244Z" fill="#7EA3FF"/>
</g>
<path d="M17.7556 8.01641C17.3251 7.43765 16.7514 6.98086 16.091 6.6909C15.4305 6.40094 14.706 6.28779 13.9886 6.3626C13.2718 6.29456 12.5495 6.41079 11.8903 6.70022C11.231 6.98965 10.6566 7.4427 10.2215 8.01641H10.1067V8.59065C10.1067 9.83101 11.8524 10.8876 13.9886 10.8876C16.1247 10.8876 17.8934 9.87695 17.8934 8.59065V8.01641H17.7556Z" fill="#487CFF"/>
<path d="M18.0081 8.01642C18.0081 9.25678 16.2624 10.3134 14.1033 10.3134C11.9441 10.3134 10.2214 9.30272 10.2214 8.01642C10.2214 6.73012 11.9671 5.71945 14.1033 5.71945C16.2394 5.71945 18.0081 6.79903 18.0081 8.01642Z" fill="#D4E0FF"/>
<path d="M16.2854 8.01641C16.2854 8.75144 15.2747 9.34865 13.9884 9.34865C12.7021 9.34865 11.6915 8.75144 11.6915 8.01641C11.6915 7.28138 12.7251 6.70712 13.9884 6.70712C15.2518 6.70712 16.2854 7.30435 16.2854 8.01641Z" fill="#7EA3FF"/>
<path d="M13.9885 6.8909C12.7941 6.8909 11.8064 7.44219 11.6916 8.13128C11.5767 8.82037 12.7711 9.34867 13.9885 9.34867C15.2059 9.34867 16.2855 8.7974 16.2855 8.13128C16.2855 7.46516 15.2059 6.8909 13.9885 6.8909Z" fill="#0D52FF"/>
</svg>
