<svg width="24" height="24" viewBox="0 0 24 24" fill="none" xmlns="http://www.w3.org/2000/svg">
    <path fill-rule="evenodd" clip-rule="evenodd" d="M19 20C19.7072 20 20.3855 19.719 20.8856 19.219C21.3857 18.7189 21.6667 18.0406 21.6667 17.3333V9.33333C21.6667 8.62609 21.3857 7.94781 20.8856 7.44772C20.3855 6.94762 19.7072 6.66667 19 6.66667H14.2187C14.0419 6.66651 13.8725 6.59617 13.7476 6.47111L11.8622 4.58667C11.6766 4.40079 11.4561 4.25331 11.2135 4.15265C10.9708 4.05198 10.7107 4.00011 10.448 4H5.66667C4.95942 4 4.28115 4.28095 3.78105 4.78105C3.28095 5.28115 3 5.95942 3 6.66667V17.3333C3 18.0406 3.28095 18.7189 3.78105 19.219C4.28115 19.719 4.95942 20 5.66667 20H19ZM9.66667 12.6667C9.48986 12.6667 9.32029 12.7369 9.19526 12.8619C9.07024 12.987 9 13.1565 9 13.3333C9 13.5101 9.07024 13.6797 9.19526 13.8047C9.32029 13.9298 9.48986 14 9.66667 14H15C15.1768 14 15.3464 13.9298 15.4714 13.8047C15.5964 13.6797 15.6667 13.5101 15.6667 13.3333C15.6667 13.1565 15.5964 12.987 15.4714 12.8619C15.3464 12.7369 15.1768 12.6667 15 12.6667H9.66667Z" fill="black"/>
    </svg>