<svg width="19" height="16" viewBox="0 0 19 16" fill="none" xmlns="http://www.w3.org/2000/svg">
    <path fill-rule="evenodd" clip-rule="evenodd" d="M16 16C16.7072 16 17.3855 15.719 17.8856 15.219C18.3857 14.7189 18.6667 14.0406 18.6667 13.3333V5.33333C18.6667 4.62609 18.3857 3.94781 17.8856 3.44772C17.3855 2.94762 16.7072 2.66667 16 2.66667H11.2187C11.0419 2.66651 10.8725 2.59617 10.7476 2.47111L8.86222 0.586667C8.67658 0.40079 8.45613 0.253308 8.21347 0.152646C7.97082 0.0519841 7.71071 0.000114436 7.448 0H2.66667C1.95942 0 1.28115 0.280952 0.781049 0.781049C0.280952 1.28115 0 1.95942 0 2.66667V13.3333C0 14.0406 0.280952 14.7189 0.781049 15.219C1.28115 15.719 1.95942 16 2.66667 16H16ZM6.66667 8.66667C6.48986 8.66667 6.32029 8.73691 6.19526 8.86193C6.07024 8.98695 6 9.15652 6 9.33333C6 9.51014 6.07024 9.67971 6.19526 9.80474C6.32029 9.92976 6.48986 10 6.66667 10H12C12.1768 10 12.3464 9.92976 12.4714 9.80474C12.5964 9.67971 12.6667 9.51014 12.6667 9.33333C12.6667 9.15652 12.5964 8.98695 12.4714 8.86193C12.3464 8.73691 12.1768 8.66667 12 8.66667H6.66667Z" fill="#A1A1A2"/>
    </svg>
    