<svg width="24" height="24" viewBox="0 0 24 24" fill="none" xmlns="http://www.w3.org/2000/svg">
    <path
        d="M6 3C5.20435 3 4.44129 3.31607 3.87868 3.87868C3.31607 4.44129 3 5.20435 3 6V8.25C3 9.04565 3.31607 9.80871 3.87868 10.3713C4.44129 10.9339 5.20435 11.25 6 11.25H8.25C9.04565 11.25 9.80871 10.9339 10.3713 10.3713C10.9339 9.80871 11.25 9.04565 11.25 8.25V6C11.25 5.20435 10.9339 4.44129 10.3713 3.87868C9.80871 3.31607 9.04565 3 8.25 3H6ZM15.75 3C14.9544 3 14.1913 3.31607 13.6287 3.87868C13.0661 4.44129 12.75 5.20435 12.75 6V8.25C12.75 9.04565 13.0661 9.80871 13.6287 10.3713C14.1913 10.9339 14.9544 11.25 15.75 11.25H18C18.7956 11.25 19.5587 10.9339 20.1213 10.3713C20.6839 9.80871 21 9.04565 21 8.25V6C21 5.20435 20.6839 4.44129 20.1213 3.87868C19.5587 3.31607 18.7956 3 18 3H15.75ZM6 12.75C5.20435 12.75 4.44129 13.0661 3.87868 13.6287C3.31607 14.1913 3 14.9544 3 15.75V18C3 18.7956 3.31607 19.5587 3.87868 20.1213C4.44129 20.6839 5.20435 21 6 21H8.25C9.04565 21 9.80871 20.6839 10.3713 20.1213C10.9339 19.5587 11.25 18.7956 11.25 18V15.75C11.25 14.9544 10.9339 14.1913 10.3713 13.6287C9.80871 13.0661 9.04565 12.75 8.25 12.75H6ZM17.625 13.5C17.625 13.3011 17.546 13.1103 17.4053 12.9697C17.2647 12.829 17.0739 12.75 16.875 12.75C16.6761 12.75 16.4853 12.829 16.3447 12.9697C16.204 13.1103 16.125 13.3011 16.125 13.5V16.125H13.5C13.3011 16.125 13.1103 16.204 12.9697 16.3447C12.829 16.4853 12.75 16.6761 12.75 16.875C12.75 17.0739 12.829 17.2647 12.9697 17.4053C13.1103 17.546 13.3011 17.625 13.5 17.625H16.125V20.25C16.125 20.4489 16.204 20.6397 16.3447 20.7803C16.4853 20.921 16.6761 21 16.875 21C17.0739 21 17.2647 20.921 17.4053 20.7803C17.546 20.6397 17.625 20.4489 17.625 20.25V17.625H20.25C20.4489 17.625 20.6397 17.546 20.7803 17.4053C20.921 17.2647 21 17.0739 21 16.875C21 16.6761 20.921 16.4853 20.7803 16.3447C20.6397 16.204 20.4489 16.125 20.25 16.125H17.625V13.5Z"
        fill="black" />
</svg>
    