<svg width="24" height="24" fill="none" xmlns="http://www.w3.org/2000/svg"><path d="m13.693 18.099-3.684-2.304a1.62 1.62 0 0 1-.76-1.373V3.385a.901.901 0 0 0-1.363-.774L4.589 4.582a1.775 1.775 0 0 0-.865 1.523V17.61a1.8 1.8 0 0 0 .851 1.532l3.65 2.27c.63.392 1.421.398 2.057.018l3.397-2.032a.76.76 0 0 0 .014-1.299z" fill="#000"/><path d="m19.425 8.217-3.65-2.27a1.972 1.972 0 0 0-2.057-.018L10.32 7.96a.763.763 0 0 0-.014 1.301l3.684 2.304c.473.296.76.814.76 1.373v5.936c0 .7.764 1.132 1.363.774l3.297-1.97c.537-.322.865-.9.865-1.524V9.75a1.8 1.8 0 0 0-.851-1.532z" fill="#000"/></svg>