<svg width="18" height="14" viewBox="0 0 18 14" fill="none" xmlns="http://www.w3.org/2000/svg">
    <path fill-rule="evenodd" clip-rule="evenodd" d="M0.442469 6.8113C0.00452679 4.88308 -0.214438 3.91901 0.292081 3.58042C0.7986 3.24182 1.59302 3.82126 3.18187 4.9802L4.75537 6.12788C4.84795 6.19537 4.89426 6.22915 4.94207 6.21865C4.98995 6.20814 5.01819 6.15808 5.07467 6.05787L7.47414 1.80122C8.15106 0.600448 8.48948 0 9.00002 0C9.5105 0 9.84899 0.600448 10.5258 1.80122L12.9253 6.05787C12.9818 6.15808 13.01 6.20814 13.0579 6.21865C13.1058 6.22915 13.152 6.19537 13.2446 6.12788L14.8181 4.9802C16.407 3.82126 17.2014 3.24182 17.7079 3.58042C18.2144 3.91901 17.9955 4.88308 17.5575 6.81136L16.692 10.6225C16.5912 11.0664 16.5407 11.2884 16.3769 11.385C16.213 11.4816 15.9904 11.4152 15.5454 11.2824C13.4706 10.6633 11.2738 10.3309 9.00002 10.3309C6.78725 10.3309 4.57628 10.6504 2.45471 11.2826C2.0095 11.4153 1.78689 11.4816 1.62307 11.385C1.45923 11.2883 1.40885 11.0664 1.30805 10.6225L0.442469 6.8113ZM2.55282 10.1024C2.4476 10.1317 2.39499 10.1464 2.35472 10.1222C2.31445 10.0979 2.30235 10.0446 2.27811 9.93795L1.25128 5.41667C1.19656 5.17563 1.16918 5.05512 1.23249 5.01278C1.29579 4.97045 1.39511 5.04291 1.59371 5.18777L4.24858 7.12422C4.32438 7.17951 4.36234 7.20719 4.37125 7.24858C4.38017 7.28997 4.35698 7.33104 4.31073 7.41306L2.88427 9.94361C2.86183 9.98343 2.85061 10.0034 2.83315 10.017C2.8157 10.0305 2.79363 10.0365 2.7495 10.0484C2.68386 10.0661 2.61828 10.0841 2.55282 10.1024ZM5.50074 8.03754C5.40817 7.96998 5.36191 7.93627 5.31404 7.94677C5.26623 7.95728 5.23799 8.00735 5.18151 8.10748L4.52978 9.26366C4.42798 9.44418 4.37711 9.5345 4.41726 9.59193C4.45734 9.64936 4.55939 9.63125 4.76342 9.59495C5.32196 9.4957 5.94271 9.40493 6.61221 9.33693C6.86299 9.31146 6.98835 9.29875 7.00805 9.22497C7.02768 9.15125 6.92632 9.07728 6.72348 8.9294L5.50074 8.03754ZM11.2765 8.9294C11.0737 9.07728 10.9723 9.15125 10.992 9.22497C11.0116 9.29875 11.1371 9.31146 11.3878 9.33693C12.0573 9.40493 12.678 9.4957 13.2366 9.59495C13.4407 9.63125 13.5427 9.64936 13.5828 9.59193C13.6229 9.5345 13.572 9.44418 13.4703 9.26366L12.8185 8.10748C12.7621 8.00735 12.7338 7.95728 12.6859 7.94677C12.6381 7.93627 12.5918 7.96998 12.4992 8.03754L11.2765 8.9294ZM12.0546 6.75229C12.1008 6.83438 12.124 6.87545 12.1151 6.91684C12.1061 6.95823 12.0682 6.98591 11.9924 7.0412L9.89655 8.56993C9.74426 8.68101 9.66815 8.73655 9.60837 8.70573C9.54859 8.67484 9.54859 8.58005 9.54859 8.39047V3.1437C9.54859 2.80787 9.54859 2.63999 9.63025 2.61817C9.71185 2.5964 9.79413 2.74233 9.9587 3.03425L12.0546 6.75229ZM13.7515 7.12422C13.6756 7.17951 13.6377 7.20719 13.6288 7.24858C13.6199 7.28997 13.643 7.33104 13.6893 7.41306L15.1157 9.94361C15.1382 9.98343 15.1494 10.0034 15.1668 10.017C15.1843 10.0305 15.2064 10.0364 15.2505 10.0484C15.3162 10.0661 15.3818 10.0841 15.4472 10.1024C15.5524 10.1317 15.6051 10.1464 15.6453 10.1222C15.6855 10.0979 15.6976 10.0446 15.7219 9.93795L16.7488 5.41667C16.8034 5.17563 16.8309 5.05512 16.7675 5.01278C16.7042 4.97045 16.6049 5.04291 16.4063 5.18777L13.7515 7.12422ZM8.45146 8.39047C8.45146 8.58005 8.45146 8.67484 8.39168 8.70573C8.33183 8.73655 8.25572 8.68101 8.10343 8.56993L6.0076 7.0412C5.93174 6.98591 5.89384 6.95823 5.88492 6.91684C5.87601 6.87545 5.89913 6.83438 5.94539 6.75229L8.04128 3.03425C8.20585 2.74233 8.28813 2.5964 8.3698 2.61817C8.45146 2.63999 8.45146 2.80787 8.45146 3.1437V8.39047ZM9.00002 10.8844C11.3327 10.8844 13.5825 11.2428 15.6983 11.9079C15.9559 11.9889 16.0847 12.0294 16.1666 12.1248C16.2026 12.1668 16.232 12.2185 16.2499 12.2711C16.2905 12.3905 16.2595 12.5269 16.1974 12.7999C16.122 13.1323 16.0842 13.2986 15.9813 13.3922C15.9342 13.4352 15.8825 13.4652 15.8221 13.4849C15.6903 13.5278 15.5236 13.4759 15.1903 13.3721C13.2338 12.7625 11.1548 12.4343 9.00002 12.4343C6.84516 12.4343 4.76628 12.7625 2.80978 13.3721C2.4764 13.4759 2.30977 13.5278 2.17793 13.4849C2.11746 13.4652 2.06585 13.4352 2.01866 13.3922C1.9158 13.2986 1.87809 13.1323 1.80254 12.7999C1.74057 12.5269 1.70959 12.3905 1.75011 12.2711C1.76794 12.2185 1.79743 12.1668 1.83346 12.1248C1.9153 12.0294 2.04409 11.9889 2.30173 11.9079C4.41745 11.2428 6.66725 10.8844 9.00002 10.8844Z" fill="black"/>
    </svg>
    