<svg width="24" height="24" viewBox="0 0 24 24" fill="none" xmlns="http://www.w3.org/2000/svg">
    <g clip-path="url(#clip0_20766_867)">
    <mask id="mask0_20766_867" style="mask-type:luminance" maskUnits="userSpaceOnUse" x="3" y="3" width="18" height="18">
    <path d="M21 12C21 7.02944 16.9706 3 12 3C7.02944 3 3 7.02944 3 12C3 16.9706 7.02944 21 12 21C16.9706 21 21 16.9706 21 12Z" fill="white"/>
    </mask>
    <g mask="url(#mask0_20766_867)">
    <mask id="mask1_20766_867" style="mask-type:luminance" maskUnits="userSpaceOnUse" x="-10" y="3" width="34" height="34">
    <path d="M24 3H-10V37H24V3Z" fill="white"/>
    </mask>
    <g mask="url(#mask1_20766_867)">
    <path d="M-0.0899853 28.597L5.04442 23.3346L2.36911 35.6824L3.45176 35.3067C5.39372 34.6327 6.78828 32.9194 7.05379 30.881L9.1794 30.1432L10.3798 31.3144C9.59725 31.586 9.18291 32.4408 9.4545 33.2233L17.957 30.2724C17.6854 29.4899 16.8306 29.0755 16.0481 29.3471L14.631 29.8389L12.8929 28.1431C15.548 25.798 16.6729 21.9977 15.4395 18.4439C14.7118 16.3472 15.2195 14.1244 16.5717 12.5563L17.2901 14.6261C18.8554 14.0829 19.6838 12.3736 19.1406 10.8083C18.054 7.67774 14.6356 6.02079 11.505 7.10732C9.4502 7.82045 8.03695 9.54019 7.61095 11.5216L7.60616 11.5105L6.85026 14.9999L1.78537 20.1908C-0.381295 22.4115 -1.10727 25.6659 -0.0899853 28.597ZM13.4982 8.27544C14.9203 8.28489 15.9848 8.63524 16.8259 9.79039C15.8187 9.57959 15.107 9.73314 14.5336 10.586L13.4982 8.27544ZM11.3174 11.1418C11.1816 10.7504 11.3887 10.3232 11.7801 10.1874C12.1715 10.0515 12.5987 10.2586 12.7345 10.65C12.8704 11.0414 12.6633 11.4686 12.2719 11.6044C11.8805 11.7403 11.4533 11.5332 11.3174 11.1418ZM11.7969 30.8226L10.5706 29.6261C11.0061 29.4343 11.4201 29.2119 11.81 28.961L13.2139 30.3308L11.7969 30.8226Z" fill="black"/>
    <path d="M9.028 4.1163C7.70901 4.81436 7.70643 7.84266 7.87002 9.26954C8.67075 8.09094 10.2479 6.91804 11.3333 6.42771C10.3046 5.93611 9.1862 5.00112 9.028 4.1163Z" fill="black"/>
    <path d="M12 12C12.5523 12 13 11.5523 13 11C13 10.4477 12.5523 9.99999 12 9.99999C11.4477 9.99999 11 10.4477 11 11C11 11.5523 11.4477 12 12 12Z" fill="black"/>
    </g>
    </g>
    </g>
    <defs>
    <clipPath id="clip0_20766_867">
    <rect width="18" height="18" fill="white" transform="translate(3 3)"/>
    </clipPath>
    </defs>
    </svg>
    