<svg width="24" height="24" viewBox="0 0 24 24" fill="none" xmlns="http://www.w3.org/2000/svg">
    <path fill-rule="evenodd" clip-rule="evenodd" d="M13.9815 3.63507C12.4901 2.78831 10.6527 2.78831 9.16134 3.63507L5.41009 5.76495C3.91872 6.61171 3 8.1766 3 9.87013V14.1299C3 15.8234 3.91872 17.3883 5.41009 18.2351L9.16134 20.3649C10.6527 21.2117 12.4901 21.2117 13.9815 20.3649L17.7328 18.2351C19.2241 17.3883 20.1429 15.8234 20.1429 14.1299V9.87013C20.1429 8.1766 19.2241 6.61171 17.7328 5.76495L13.9815 3.63507ZM12.8247 5.06396C12.0492 4.62364 11.0937 4.62364 10.3182 5.06396L6.08998 7.46463C5.31447 7.90495 4.83673 8.71869 4.83673 9.59932V14.4007C4.83673 15.2813 5.31447 16.0951 6.08998 16.5354L10.3182 18.936C11.0937 19.3764 12.0492 19.3764 12.8247 18.936L17.0529 16.5354C17.8284 16.0951 18.3061 15.2813 18.3061 14.4007V9.59932C18.3061 8.71869 17.8284 7.90495 17.0529 7.46463L12.8247 5.06396Z" fill="black"/>
    <path d="M11.7426 16.7127C11.0326 16.7127 10.3987 16.6088 9.84087 16.401C9.28726 16.1891 8.81395 15.8836 8.42093 15.4846C8.03213 15.0815 7.7342 14.5911 7.52712 14.0134C7.32005 13.4358 7.21651 12.777 7.21651 12.0373V12.031C7.21651 11.0544 7.39612 10.2211 7.75533 9.53124C8.11877 8.84135 8.63223 8.31355 9.29571 7.94782C9.96343 7.57794 10.7579 7.393 11.6792 7.393C12.4272 7.393 13.0949 7.526 13.6823 7.79198C14.2697 8.0538 14.7473 8.41537 15.1149 8.87668C15.4826 9.33383 15.7045 9.85333 15.7805 10.4352L15.7932 10.51H13.4922L13.4668 10.4476C13.3485 10.0861 13.1329 9.80346 12.8202 9.59981C12.5117 9.39202 12.1335 9.28812 11.6855 9.28812C11.2502 9.28812 10.8762 9.39409 10.5635 9.60605C10.2508 9.81385 10.0099 10.1214 9.84087 10.5287C9.67606 10.9318 9.59365 11.4243 9.59365 12.0061V12.0123C9.59365 12.457 9.64436 12.8539 9.74579 13.203C9.84721 13.548 9.99301 13.841 10.1832 14.082C10.3776 14.3189 10.61 14.5018 10.8805 14.6306C11.1509 14.7553 11.4531 14.8176 11.787 14.8176C12.1377 14.8176 12.4462 14.7594 12.7125 14.6431C12.9829 14.5225 13.1984 14.3521 13.359 14.1319C13.5196 13.9116 13.6105 13.6519 13.6316 13.3526L13.6443 13.2404H11.8187V11.6196H15.8883V12.7479C15.8883 13.363 15.7953 13.9158 15.6094 14.4062C15.4234 14.8924 15.1509 15.308 14.7917 15.653C14.4367 15.9937 14.0014 16.2556 13.4858 16.4384C12.9745 16.6213 12.3934 16.7127 11.7426 16.7127Z" fill="black"/>
    </svg>
    