<svg width="22" height="22" viewBox="0 0 22 22" fill="none" xmlns="http://www.w3.org/2000/svg">
    <path fill-rule="evenodd" clip-rule="evenodd" d="M17.6273 1.57141H3.14282V5.67079H17.6273V1.57141ZM13.1181 5.67084H7.65224V20.4286H13.1181V5.67084Z" fill="#F19BAF"/>
    <mask id="mask0_20765_829" style="mask-type:luminance" maskUnits="userSpaceOnUse" x="2" y="0" width="17" height="22">
    <path d="M18.8571 0.785706H2.35712V21.2143H18.8571V0.785706Z" fill="white"/>
    <path fill-rule="evenodd" clip-rule="evenodd" d="M17.6273 1.57141H3.14282V5.67079H17.6273V1.57141ZM13.1181 5.67084H7.65224V20.4286H13.1181V5.67084Z" fill="black"/>
    </mask>
    <g mask="url(#mask0_20765_829)">
    <path d="M3.14283 1.57142V0.785706H2.35712V1.57142H3.14283ZM17.6273 1.57142H18.413V0.785706H17.6273V1.57142ZM3.14283 5.6708H2.35712V6.45651H3.14283V5.6708ZM17.6273 5.6708V6.45651H18.413V5.6708H17.6273ZM7.65225 5.67084V4.88513H6.86654V5.67084H7.65225ZM13.1181 5.67084H13.9038V4.88513H13.1181V5.67084ZM7.65225 20.4286H6.86654V21.2144H7.65225V20.4286ZM13.1181 20.4286V21.2144H13.9038V20.4286H13.1181ZM3.14283 2.35713H17.6273V0.785706H3.14283V2.35713ZM3.92855 5.6708V1.57142H2.35712V5.6708H3.92855ZM17.6273 4.88508H3.14283V6.45651H17.6273V4.88508ZM16.8416 1.57142V5.6708H18.413V1.57142H16.8416ZM7.65225 6.45656H13.1181V4.88513H7.65225V6.45656ZM8.43796 20.4286V5.67084H6.86654V20.4286H8.43796ZM13.1181 19.6429H7.65225V21.2144H13.1181V19.6429ZM12.3324 5.67084V20.4286H13.9038V5.67084H12.3324Z" fill="black"/>
    </g>
    <path d="M8.06201 2.93799H15.1676" stroke="black" stroke-width="0.4"/>
    <path d="M15.4408 2.93799H15.714" stroke="black" stroke-width="0.4"/>
    <path opacity="0.4" d="M10.385 7.03766H8.74524V8.67741H10.385V7.03766Z" fill="#F5EFFE"/>
    <path opacity="0.4" d="M10.385 9.49683H8.74524V19.3353H10.385V9.49683Z" fill="#F5EFFE"/>
    </svg>
    