<svg width="13" height="18" viewBox="0 0 13 18" fill="none" xmlns="http://www.w3.org/2000/svg">
    <path d="M12.241 11.4255H12.2436C12.2436 6.37315 7.05706 2.83087 5.92157 0.361074C5.81177 0.12349 5.64513 0 5.46945 0C5.32993 0 5.18396 0.0791935 5.05737 0.240268C3.50205 2.22282 3.30699 4.1906 3.57826 5.85101C3.77591 7.05369 4.2177 8.09662 4.56648 8.86982C4.88943 9.58658 4.87523 9.97049 4.59233 9.97049C4.41664 9.97049 4.13761 9.82282 3.77203 9.51545C3.02409 8.88458 2.28518 7.89127 1.82013 7.11275C1.77363 7.0349 1.72971 6.95839 1.68837 6.88591C1.55273 6.6443 1.38738 6.52483 1.22462 6.52483C1.05281 6.52483 0.88617 6.6604 0.769909 6.93154C0.20281 8.24429 0.0116274 10.2457 0.00129305 11.5181C1.26148e-06 11.5597 0 11.6 0 11.6389C0 15.1517 2.74118 18 6.12309 18C9.5037 18 12.2449 15.1517 12.2449 11.6389C12.2449 11.5678 12.2436 11.4967 12.241 11.4255ZM6.12309 16.1208C3.74361 16.1208 1.80851 14.1101 1.80851 11.6389C1.80851 11.6202 1.80722 11.6 1.80851 11.5785V11.5343C1.80851 11.4846 1.8098 11.4349 1.81109 11.3839V11.3557C1.81109 11.3476 1.81109 11.3396 1.81238 11.3329C1.83434 10.7584 2.18829 10.6 2.62621 10.9705C2.62879 10.9732 2.63138 10.9745 2.63396 10.9772C3.34315 11.5731 3.96581 11.8497 4.59233 11.8497C5.2886 11.8497 5.92286 11.4913 6.29103 10.8913C6.9718 9.77717 6.39308 8.49398 6.20319 8.0725C5.85569 7.30066 5.51207 6.45906 5.36093 5.53692C5.30926 5.22014 5.28343 4.91275 5.28343 4.61342C5.28343 4.5396 5.28472 4.46577 5.28859 4.39195C5.2873 4.38792 5.28859 4.38523 5.28859 4.38121C5.29118 4.31812 5.29505 4.25637 5.30152 4.19329C5.30152 4.18524 5.30152 4.17853 5.30281 4.17047C5.30539 4.14094 5.30927 4.11141 5.31314 4.08456C5.39969 3.48859 5.78723 3.38389 6.2006 3.8604C6.2006 3.8604 6.20189 3.86309 6.20319 3.86443C6.34657 4.03222 6.49513 4.20268 6.64626 4.37718C8.31529 6.29664 10.1935 8.4564 10.4131 10.9436L10.4338 11.4967C10.4351 11.5436 10.4364 11.5919 10.4364 11.6389C10.4364 14.1101 8.50127 16.1208 6.12309 16.1208Z" fill="black"/>
    </svg>
    