<svg width="20" height="16" viewBox="0 0 20 16" fill="none" xmlns="http://www.w3.org/2000/svg">
    <path d="M19.8099 1.65477C19.8099 1.07899 19.6574 0.522723 19.3751 0C18.4811 1.73513 16.2827 3.1301 13.4626 3.77687C12.5499 3.51629 11.3604 3.28067 9.95497 3.244V3.24088C9.93857 3.24088 9.92217 3.24166 9.90571 3.24244C9.88931 3.24244 9.87286 3.24166 9.85646 3.24088V3.244C8.45109 3.28145 7.26154 3.51707 6.34886 3.77687C3.52793 3.12931 1.32953 1.73513 0.435614 0C0.152504 0.523503 0 1.07899 0 1.65477C0 3.80807 2.12802 5.67818 5.25474 6.62451C5.8984 9.58457 6.54206 12.5446 7.18491 15.5046C7.82931 15.7121 8.74354 15.9368 9.85566 15.9945V16C9.87211 16 9.88851 15.9985 9.90497 15.9977C9.92137 15.9985 9.93777 15.9992 9.95423 16V15.9945C11.0655 15.9368 11.9806 15.7121 12.625 15.5046C13.2686 12.5446 13.9123 9.58457 14.5551 6.62531C17.6811 5.67895 19.8099 3.80886 19.8099 1.65555V1.65477Z" fill="black"/>
    </svg>
    