<svg width="24" height="24" fill="none" xmlns="http://www.w3.org/2000/svg"><path d="M6.667 4A2.667 2.667 0 0 0 4 6.667v2a2.667 2.667 0 0 0 2.667 2.666h2a2.667 2.667 0 0 0 2.666-2.666v-2A2.667 2.667 0 0 0 8.667 4h-2zm8.666 0a2.667 2.667 0 0 0-2.666 2.667v2a2.667 2.667 0 0 0 2.666 2.666h2A2.667 2.667 0 0 0 20 8.667v-2A2.667 2.667 0 0 0 17.333 4h-2zm-8.666 8.667A2.667 2.667 0 0 0 4 15.333v2A2.667 2.667 0 0 0 6.667 20h2a2.667 2.667 0 0 0 2.666-2.667v-2a2.667 2.667 0 0 0-2.666-2.666h-2zM17 13.333a.667.667 0 1 0-1.333 0v2.334h-2.334a.667.667 0 0 0 0 1.333h2.334v2.333a.667.667 0 1 0 1.333 0V17h2.333a.666.666 0 1 0 0-1.333H17v-2.334z" fill="#fff"/></svg>