<svg width="24" height="24" fill="none" xmlns="http://www.w3.org/2000/svg"><path d="M17.545 6.757a12.908 12.908 0 0 0-3.257-1.041.049.049 0 0 0-.052.025c-.141.258-.297.594-.406.859a11.82 11.82 0 0 0-3.658 0c-.109-.27-.27-.6-.412-.859a.05.05 0 0 0-.052-.025 12.872 12.872 0 0 0-3.257 1.04.047.047 0 0 0-.021.02c-2.074 3.194-2.643 6.31-2.364 9.387.001.016.01.03.02.04a13.12 13.12 0 0 0 3.996 2.081.05.05 0 0 0 .056-.019 9.83 9.83 0 0 0 .818-1.37.053.053 0 0 0-.028-.073 8.618 8.618 0 0 1-1.248-.613.054.054 0 0 1-.005-.088c.084-.065.168-.132.248-.2a.048.048 0 0 1 .051-.007c2.619 1.232 5.454 1.232 8.041 0a.048.048 0 0 1 .053.006c.08.068.164.136.248.201a.054.054 0 0 1-.004.088 8.09 8.09 0 0 1-1.249.612.053.053 0 0 0-.027.074c.24.48.514.936.817 1.37a.05.05 0 0 0 .056.019 13.075 13.075 0 0 0 4.001-2.082.053.053 0 0 0 .021-.038c.334-3.558-.559-6.648-2.366-9.387a.041.041 0 0 0-.02-.02zM9.347 14.29c-.789 0-1.438-.746-1.438-1.662 0-.917.637-1.663 1.438-1.663.807 0 1.45.753 1.438 1.662 0 .917-.637 1.663-1.438 1.663zm5.316 0c-.788 0-1.438-.746-1.438-1.662 0-.917.637-1.663 1.438-1.663.807 0 1.45.753 1.438 1.662 0 .917-.63 1.663-1.438 1.663z" fill="#000"/></svg>