<svg width="24" height="24" fill="none" xmlns="http://www.w3.org/2000/svg"><path d="m12 12.248 2-1.156v2.312l-2 1.156v-2.312z" fill="#CCC"/><path d="m12 19.184 2-1.156v2.312l-2 1.155v-2.311z" fill="#DFDFDF"/><path d="m12 16.872 2-1.156v2.312l-2 1.156v-2.312z" fill="#D1D1D1"/><path d="m12 14.56 2-1.156v2.312l-2 1.156V14.56z" fill="#E3E3E3"/><path d="m18 8.78 2-1.156v2.312l-2 1.156V8.78zM18 15.716l2-1.156v2.312l-2 1.155v-2.312z" fill="#C9C9C9"/><path d="m18 13.404 2-1.156v2.312l-2 1.156v-2.312z" fill="#CCC"/><path d="m18 11.092 2-1.156v2.312l-2 1.156v-2.312zm-2-1.156 2-1.156v2.312l-2 1.156V9.936z" fill="#E6E6E6"/><path d="m16 16.872 2-1.156v2.312l-2 1.156v-2.312z" fill="#D6D6D6"/><path d="m16 14.56 2-1.156v2.312l-2 1.156V14.56z" fill="#C9C9C9"/><path d="m16 12.248 2-1.156v2.312l-2 1.156v-2.312z" fill="#DBDBDB"/><path d="m14 11.092 2-1.156v2.312l-2 1.156v-2.312z" fill="#DEDEDE"/><path d="m14 18.028 2-1.156v2.312l-2 1.156v-2.312z" fill="silver"/><path d="m14 15.716 2-1.156v2.312l-2 1.155v-2.312z" fill="#D9D9D9"/><path d="m14 13.404 2-1.156v2.312l-2 1.156v-2.312z" fill="#CCC"/><path d="M4 7.624 6 8.78v2.312L4 9.936V7.624zm0 6.936 2 1.156v2.312l-2-1.156V14.56z" fill="#FCFCFC"/><path d="m4 12.248 2 1.156v2.312L4 14.56v-2.312z" fill="#F1F1F1"/><path d="m4 9.936 2 1.156v2.312l-2-1.156V9.936z" fill="#F9F9F9"/><path d="m10 11.092 2 1.156v2.312l-2-1.156v-2.312z" fill="#FCFCFC"/><path d="m10 18.028 2 1.156v2.311l-2-1.155v-2.312z" fill="#F1F1F1"/><path d="m10 15.716 2 1.156v2.312l-2-1.156v-2.312z" fill="#F1F1F1"/><path d="m10 13.404 2 1.156v2.312l-2-1.156v-2.312zM8 9.936l2 1.156v2.312l-2-1.156V9.936z" fill="#F1F1F1"/><path d="m8 16.872 2 1.156v2.312l-2-1.156v-2.312z" fill="#FCFCFC"/><path d="m8 14.56 2 1.155v2.313l-2-1.156V14.56z" fill="#F9F9F9"/><path d="m8 12.248 2 1.156v2.312L8 14.56v-2.312z" fill="#F3F3F3"/><path d="m6 8.78 2 1.156v2.312l-2-1.156V8.78z" fill="#F1F1F1"/><path d="m6 15.716 2 1.156v2.312l-2-1.156v-2.312z" fill="#F3F3F3"/><path d="m6 13.404 2 1.156v2.312l-2-1.156v-2.312z" fill="#F1F1F1"/><path d="m6 11.092 2 1.156v2.312l-2-1.156v-2.312z" fill="#FCFCFC"/><path d="m12 3 2 1.156-2 1.156-2-1.156L12 3zM6 6.468l2 1.156L6 8.78 4 7.624l2-1.156z" fill="#FDFDFD"/><path d="m8 5.312 2 1.156-2 1.156-2-1.156 2-1.156z" fill="#FEFEFE"/><path d="m10 4.156 2 1.156-2 1.156-2-1.156 2-1.156zm8 2.312 2 1.156-2 1.156-2-1.156 2-1.156z" fill="#F0F0F0"/><path d="m12 9.936 2 1.156-2 1.156-2-1.156 2-1.156z" fill="#FEFEFE"/><path d="m14 8.78 2 1.156-2 1.156-2-1.156 2-1.156z" fill="#F0F0F0"/><path d="m16 7.624 2 1.156-2 1.156-2-1.156 2-1.156z" fill="#FEFEFE"/><path d="m16 5.312 2 1.156-2 1.156-2-1.156 2-1.156z" fill="#fff"/><path d="m10 8.78 2 1.156-2 1.156-2-1.156 2-1.156z" fill="#F0F0F0"/><path d="m12 7.624 2 1.156-2 1.156-2-1.156 2-1.156z" fill="#fff"/><path d="m14 6.468 2 1.156-2 1.156-2-1.156 2-1.156z" fill="#F0F0F0"/><path d="m14 4.156 2 1.156-2 1.156-2-1.156 2-1.156z" fill="#FEFEFE"/><path d="m8 7.624 2 1.156-2 1.156L6 8.78l2-1.156z" fill="#FDFDFD"/><path d="m10 6.468 2 1.156-2 1.156-2-1.156 2-1.156z" fill="#FEFEFE"/><path d="m12 5.312 2 1.156-2 1.156-2-1.156 2-1.156z" fill="#FDFDFD"/></svg>