<svg width="24" height="24" fill="none" xmlns="http://www.w3.org/2000/svg"><g opacity=".6"><path d="m12 12.248 2-1.156v2.312l-2 1.156v-2.312z" fill="#111"/><path d="m12 19.184 2-1.156v2.312l-2 1.155v-2.311z" fill="#1F1F1F"/><path d="m12 16.872 2-1.156v2.312l-2 1.156v-2.312z" fill="#212121"/><path d="m12 14.56 2-1.156v2.312l-2 1.156V14.56z" fill="#333"/><path d="m18 8.78 2-1.156v2.312l-2 1.156V8.78zM18 15.716l2-1.156v2.312l-2 1.155v-2.312z" fill="#191919"/><path d="m18 13.404 2-1.156v2.312l-2 1.156v-2.312z" fill="#111"/><path d="m18 11.092 2-1.156v2.312l-2 1.156v-2.312zm-2-1.156 2-1.156v2.312l-2 1.156V9.936z" fill="#363636"/><path d="m16 16.872 2-1.156v2.312l-2 1.156v-2.312z" fill="#161616"/><path d="m16 14.56 2-1.156v2.312l-2 1.156V14.56z" fill="#191919"/><path d="m16 12.248 2-1.156v2.312l-2 1.156v-2.312z" fill="#1B1B1B"/><path d="m14 11.092 2-1.156v2.312l-2 1.156v-2.312z" fill="#1E1E1E"/><path d="m14 18.028 2-1.156v2.312l-2 1.156v-2.312z" fill="#202020"/><path d="m14 15.716 2-1.156v2.312l-2 1.155v-2.312z" fill="#292929"/><path d="m14 13.404 2-1.156v2.312l-2 1.156v-2.312z" fill="#111"/><path d="M4 7.624 6 8.78v2.312L4 9.936V7.624zm0 6.936 2 1.156v2.312l-2-1.156V14.56z" fill="#0C0C0C"/><path d="m4 12.248 2 1.156v2.312L4 14.56v-2.312z" fill="#010101"/><path d="m4 9.936 2 1.156v2.312l-2-1.156V9.936z" fill="#090909"/><path d="m10 11.092 2 1.156v2.312l-2-1.156v-2.312z" fill="#0C0C0C"/><path d="m10 18.028 2 1.156v2.311l-2-1.155v-2.312z" fill="#010101"/><path d="m10 15.716 2 1.156v2.312l-2-1.156v-2.312z" fill="#010101"/><path d="m10 13.404 2 1.156v2.312l-2-1.156v-2.312zM8 9.936l2 1.156v2.312l-2-1.156V9.936z" fill="#010101"/><path d="m8 16.872 2 1.156v2.312l-2-1.156v-2.312z" fill="#0C0C0C"/><path d="m8 14.56 2 1.155v2.313l-2-1.156V14.56z" fill="#090909"/><path d="m8 12.248 2 1.156v2.312L8 14.56v-2.312z" fill="#030303"/><path d="m6 8.78 2 1.156v2.312l-2-1.156V8.78z" fill="#010101"/><path d="m6 15.716 2 1.156v2.312l-2-1.156v-2.312z" fill="#030303"/><path d="m6 13.404 2 1.156v2.312l-2-1.156v-2.312z" fill="#010101"/><path d="m6 11.092 2 1.156v2.312l-2-1.156v-2.312z" fill="#0C0C0C"/><path d="m12 3 2 1.156-2 1.156-2-1.156L12 3zM6 6.468l2 1.156L6 8.78 4 7.624l2-1.156z" fill="#0D0D0D"/><path d="m8 5.312 2 1.156-2 1.156-2-1.156 2-1.156z" fill="#000"/><path d="m10 4.156 2 1.156-2 1.156-2-1.156 2-1.156zm8 2.312 2 1.156-2 1.156-2-1.156 2-1.156z" fill="#0E0E0E"/><path d="m12 9.936 2 1.156-2 1.156-2-1.156 2-1.156z" fill="#000"/><path d="m14 8.78 2 1.156-2 1.156-2-1.156 2-1.156z" fill="#0E0E0E"/><path d="m16 7.624 2 1.156-2 1.156-2-1.156 2-1.156z" fill="#000"/><path d="m16 5.312 2 1.156-2 1.156-2-1.156 2-1.156z" fill="#222"/><path d="m10 8.78 2 1.156-2 1.156-2-1.156 2-1.156z" fill="#0E0E0E"/><path d="m12 7.624 2 1.156-2 1.156-2-1.156 2-1.156z" fill="#222"/><path d="m14 6.468 2 1.156-2 1.156-2-1.156 2-1.156z" fill="#0E0E0E"/><path d="m14 4.156 2 1.156-2 1.156-2-1.156 2-1.156z" fill="#000"/><path d="m8 7.624 2 1.156-2 1.156L6 8.78l2-1.156z" fill="#0D0D0D"/><path d="m10 6.468 2 1.156-2 1.156-2-1.156 2-1.156z" fill="#000"/><path d="m12 5.312 2 1.156-2 1.156-2-1.156 2-1.156z" fill="#0D0D0D"/></g></svg>