<svg width="24" height="24" viewBox="0 0 24 24" fill="none" xmlns="http://www.w3.org/2000/svg">
    <mask id="mask0_19969_966" style="mask-type:luminance" maskUnits="userSpaceOnUse" x="6" y="5"
        width="13" height="14">
        <path d="M6.28564 5.14282H18.1331V18.8571H6.28564V5.14282Z" fill="white" />
    </mask>
    <g mask="url(#mask0_19969_966)">
        <path
            d="M18.1331 5.14282C18.1331 5.14282 13.8176 6.20397 12.1308 6.66454L9.0565 7.38568L6.29307 6.66454C6.29307 6.66454 6.28564 8.75882 6.28564 9.82739L9.07936 10.6C9.07936 10.6 18.1331 8.30454 18.1331 8.36568V5.14282Z"
            fill="#fff" />
        <path
            d="M16.6251 9.35254L9.0285 11.2805L6.28564 10.5331L6.2925 13.612C6.99536 13.8668 9.05307 14.4863 9.05307 14.4863L16.6251 12.576V9.35254Z"
            fill="#fff" />
        <path
            d="M9.0925 15.1594L6.28564 14.4812C6.28564 14.4812 6.29307 15.1297 6.29307 16.0297V17.6646L9.0445 18.4006L18.1331 16.152V12.9429L9.0925 15.16V15.1594Z"
            fill="#fff" />
    </g>
</svg>