<svg width="24" height="24" fill="none" xmlns="http://www.w3.org/2000/svg"><mask id="a" style="mask-type:luminance" maskUnits="userSpaceOnUse" x="6" y="5" width="13" height="14"><path d="M6.286 5.143h11.847v13.714H6.286V5.143z" fill="#fff"/></mask><g mask="url(#a)" fill="#fff"><path d="M18.133 5.143s-4.315 1.061-6.002 1.522l-3.075.72-2.763-.72s-.007 2.094-.007 3.162l2.793.773s9.054-2.295 9.054-2.234V5.143z"/><path d="M16.625 9.353 9.028 11.28l-2.742-.748.007 3.079c.702.255 2.76.874 2.76.874l7.572-1.91V9.353z"/><path d="m9.092 15.16-2.806-.679s.007.649.007 1.549v1.635l2.751.736 9.09-2.249v-3.21L9.091 15.16z"/></g></svg>