<svg width="24" height="24" fill="none" xmlns="http://www.w3.org/2000/svg"><path d="M13.982 15.592a.186.186 0 0 1 .276.085l1.532 4.09c.05.131-.075.262-.216.227L9.93 18.627a.172.172 0 0 1-.059-.313l4.11-2.722z" fill="#000"/><path d="M14.973 14.69a.17.17 0 0 1-.01-.058V10.51c0-.116-.118-.2-.235-.167L9.893 11.71c-.116.033-.234-.05-.234-.168V8.88c0-.055.027-.106.072-.139l6.3-4.593a.187.187 0 0 1 .27.052l3.805 6.338a.168.168 0 0 1 .013.148l-3.204 8.277c-.06.153-.285.152-.343-.001l-1.599-4.27zM8.045 4.504a.186.186 0 0 1 .113-.05l5.815-.453c.182-.015.27.207.125.312L9.142 7.921a.19.19 0 0 1-.161.028l-3.264-.9a.172.172 0 0 1-.077-.292l2.405-2.253z" fill="#000"/><path d="M4.809 7.956c.014-.107.124-.176.231-.146l3.46.956c.077.022.131.09.131.168v3.874c0 .117.117.2.234.167l4.802-1.36c.117-.034.234.05.234.167v2.46c0 .057-.03.11-.079.143l-5.385 3.582a.189.189 0 0 1-.228-.016l-4.15-3.666a.17.17 0 0 1-.058-.15l.808-6.18z" fill="#000"/></svg>