<svg width="24" height="24" fill="none" xmlns="http://www.w3.org/2000/svg"><path d="m14.741 9.82-.063.05c-1.12.83-2.29 1.59-3.428 2.392-1.971 1.407-3.865 2.935-5.585 4.642l-.007.006a45.642 45.642 0 0 0-3.396 3.65 28.35 28.35 0 0 1 10.617-10.17c-1.442-.246-2.505 0-5.703.652C9.713 9.13 10.2 8.547 11.072 6.614c.483.064.964.135 1.444.215-.67 1.325-1.794 2.283-3.033 3.069l-.52.338c.6-.226 1.256-.468 1.881-.606 1.28-.296 2.67-.325 3.897.19z" fill="url(#a)"/><path d="M22.398 7.194a6.705 6.705 0 0 0-4.301 3.407 6.727 6.727 0 0 1-3.002 3.008c-.59.293-1.225.416-1.846.624 1.685-.835 3.032-2.18 3.577-4.033.032-.101.093-.306.122-.408.66-2.102 2.992-3.301 5.078-2.73.125.038.25.082.372.132z" fill="url(#b)"/><path d="M22.412 7.19c-2.263-1.01-5.053.37-5.657 2.768-.057.188-.121.423-.195.604a4.348 4.348 0 0 1-.16.39l-.088.193-.1.186c-.73 1.386-2.007 2.411-3.404 3.083l-.388.18a17.536 17.536 0 0 0-7.416 5.764 17.5 17.5 0 0 1 5.516-5.998 17.354 17.354 0 0 0-4.164 1.898c1.555-1.417 3.224-2.712 4.945-3.922 1.146-.793 2.328-1.54 3.45-2.37.069-.053.145-.118.21-.184l-.084-.036c-1.27-.57-2.726-.552-4.064-.247-.276.063-.55.138-.82.223.165-.115.328-.232.487-.354.908-.674 1.683-1.54 2.184-2.558l.039-.076a44.414 44.414 0 0 0-8.069-.6A45.317 45.317 0 0 0 1 6.34a45.766 45.766 0 0 1 15.272-2.334 4.115 4.115 0 0 1-.903 2.14c2.311-1.027 5.135-.612 7.043 1.043z" fill="url(#c)"/><path d="M14.96 9.782c-.064.066-.14.131-.21.184-1.12.83-2.303 1.577-3.45 2.37-1.72 1.21-3.389 2.505-4.944 3.922-.233.213-.464.428-.692.646 1.72-1.707 3.614-3.235 5.585-4.642 1.139-.803 2.308-1.562 3.427-2.392a3.98 3.98 0 0 0 .064-.05c-1.227-.515-2.617-.486-3.897-.19-.625.138-1.28.38-1.882.606l.52-.338c1.24-.786 2.364-1.744 3.034-3.069a49.253 49.253 0 0 0-2.798-.377 47.57 47.57 0 0 0-5.81-.25c-.97.017-1.94.065-2.907.14a45.271 45.271 0 0 1 3.634-.209 44.42 44.42 0 0 1 8.068.6l-.038.077c-.501 1.019-1.276 1.884-2.184 2.558-.16.122-.322.24-.487.354.27-.085.544-.16.82-.223 1.338-.305 2.793-.322 4.064.247l.083.036zM22.412 7.19l-.014-.005a3.89 3.89 0 0 0-.373-.123c-2.086-.572-4.419.628-5.079 2.73-.028.102-.09.307-.12.408-.546 1.853-1.893 3.198-3.578 4.033-.14.07-.285.137-.431.2l-.397.16.388-.179c1.397-.672 2.673-1.697 3.404-3.083l.1-.186.087-.192c.053-.11.12-.275.16-.391.074-.181.138-.416.195-.603.604-2.398 3.395-3.778 5.658-2.77z" fill="#fff"/><defs><linearGradient id="a" x1="19.931" y1="-18.986" x2="33.586" y2="5.48" gradientUnits="userSpaceOnUse"><stop offset=".188" stop-color="#999"/><stop offset=".567" stop-color="#EEE"/><stop offset=".864" stop-color="#fff"/></linearGradient><linearGradient id="b" x1="26.203" y1="-6.504" x2="31.997" y2="8.009" gradientUnits="userSpaceOnUse"><stop offset=".188" stop-color="#999"/><stop offset=".567" stop-color="#EEE"/><stop offset=".864" stop-color="#fff"/></linearGradient><linearGradient id="c" x1="15.42" y1="6.647" x2="1" y2="33.169" gradientUnits="userSpaceOnUse"><stop stop-color="#fff"/><stop offset=".441" stop-color="#EEE"/><stop offset="1" stop-color="#CCC"/></linearGradient></defs></svg>