<svg width="24" height="24" fill="none" xmlns="http://www.w3.org/2000/svg"><path fill-rule="evenodd" clip-rule="evenodd" d="M4.161 11.027c4.535-1.976 7.559-3.278 9.072-3.908C17.553 5.323 18.451 5.01 19.036 5c.128-.002.416.03.602.181.158.128.201.3.222.421.02.121.046.397.026.613-.234 2.46-1.247 8.428-1.762 11.183-.219 1.166-.648 1.557-1.064 1.595-.903.083-1.589-.597-2.464-1.17-1.369-.898-2.142-1.457-3.471-2.332-1.536-1.012-.54-1.569.335-2.478.229-.238 4.209-3.858 4.286-4.186.01-.041.018-.194-.072-.275-.091-.081-.226-.054-.322-.032-.138.032-2.325 1.477-6.562 4.337-.62.427-1.183.634-1.687.623-.555-.012-1.624-.314-2.418-.572-.974-.316-1.748-.484-1.68-1.022.034-.28.42-.566 1.156-.86z" fill="#fff"/></svg>