<svg width="24" height="24" fill="none" xmlns="http://www.w3.org/2000/svg"><path d="M19.975 12.595A7.967 7.967 0 0 0 19.2 8.49a10.463 10.463 0 0 1-3.56 2.222 15.578 15.578 0 0 1-.175 3.915 14.083 14.083 0 0 0 4.51-2.032zm-5.814 2.295c.262-1.253.354-2.535.273-3.812-.782.186-1.596.285-2.434.285-.838 0-1.652-.099-2.433-.285a14.37 14.37 0 0 0 .272 3.812c1.432.22 2.89.22 4.322 0zm-3.989 1.287c1.214.144 2.442.144 3.656 0A14.097 14.097 0 0 1 12 19.956a14.094 14.094 0 0 1-1.828-3.779zm-1.637-1.55a15.481 15.481 0 0 1-.175-3.916A10.463 10.463 0 0 1 4.8 8.49a7.967 7.967 0 0 0-.775 4.106 14.086 14.086 0 0 0 4.51 2.033zm11.141-.391a8.012 8.012 0 0 1-6.135 5.592 15.288 15.288 0 0 0 1.63-3.87 15.283 15.283 0 0 0 4.505-1.722zm-15.352 0a15.276 15.276 0 0 0 4.504 1.722c.363 1.359.912 2.661 1.631 3.87a8.011 8.011 0 0 1-6.135-5.592zm9.217-10.11a8.003 8.003 0 0 1 5.018 3.27 9.243 9.243 0 0 1-3.074 2.055c-.31-1.88-.97-3.687-1.944-5.325zM12 4a14.073 14.073 0 0 1 2.3 5.842 9.257 9.257 0 0 1-4.602 0A14.07 14.07 0 0 1 12 4zm-1.542.126a15.284 15.284 0 0 0-1.944 5.325 9.243 9.243 0 0 1-3.073-2.054 8.004 8.004 0 0 1 5.017-3.27z" fill="#fff"/></svg>