<svg width="18" height="18" viewBox="0 0 18 18" fill="none" xmlns="http://www.w3.org/2000/svg">
    <g clip-path="url(#clip0_20765_733)">
    <mask id="mask0_20765_733" style="mask-type:luminance" maskUnits="userSpaceOnUse" x="0" y="0" width="18" height="18">
    <path d="M18 9C18 4.02944 13.9706 0 9 0C4.02944 0 0 4.02944 0 9C0 13.9706 4.02944 18 9 18C13.9706 18 18 13.9706 18 9Z" fill="white"/>
    </mask>
    <g mask="url(#mask0_20765_733)">
    <mask id="mask1_20765_733" style="mask-type:luminance" maskUnits="userSpaceOnUse" x="-13" y="0" width="34" height="34">
    <path d="M21 0H-13V34H21V0Z" fill="white"/>
    </mask>
    <g mask="url(#mask1_20765_733)">
    <path d="M-3.08999 25.5971L2.04442 20.3347L-0.630885 32.6825L0.451761 32.3067C2.39372 31.6327 3.78828 29.9195 4.05379 27.881L6.1794 27.1433L7.37975 28.3145C6.59725 28.586 6.18291 29.4408 6.4545 30.2234L14.957 27.2724C14.6854 26.4899 13.8306 26.0756 13.0481 26.3472L11.631 26.839L9.89291 25.1431C12.548 22.7981 13.6729 18.9977 12.4395 15.444C11.7118 13.3473 12.2195 11.1244 13.5717 9.55637L14.2901 11.6262C15.8554 11.0829 16.6838 9.37367 16.1406 7.80837C15.054 4.67777 11.6356 3.02082 8.50495 4.10735C6.4502 4.82048 5.03695 6.54022 4.61095 8.52162L4.60616 8.51057L3.85026 11.9999L-1.21463 17.1909C-3.3813 19.4115 -4.10727 22.666 -3.08999 25.5971ZM10.4982 5.27547C11.9203 5.28492 12.9848 5.63527 13.8259 6.79042C12.8187 6.57962 12.107 6.73317 11.5336 7.58602L10.4982 5.27547ZM8.31741 8.14187C8.18161 7.75047 8.38865 7.32327 8.78006 7.18742C9.17145 7.05157 9.59865 7.25867 9.7345 7.65002C9.87035 8.04142 9.66325 8.46867 9.27186 8.60447C8.8805 8.74032 8.45326 8.53327 8.31741 8.14187ZM8.79686 27.8226L7.57055 26.6262C8.00605 26.4344 8.4201 26.2119 8.81001 25.961L10.2139 27.3308L8.79686 27.8226Z" fill="white"/>
    <path d="M6.028 1.11633C4.70901 1.81439 4.70643 4.84269 4.87002 6.26957C5.67075 5.09097 7.2479 3.91807 8.33325 3.42774C7.30455 2.93614 6.1862 2.00115 6.028 1.11633Z" fill="white"/>
    <path d="M9 9.00002C9.55229 9.00002 10 8.55231 10 8.00002C10 7.44774 9.55229 7.00002 9 7.00002C8.44772 7.00002 8 7.44774 8 8.00002C8 8.55231 8.44772 9.00002 9 9.00002Z" fill="white"/>
    </g>
    </g>
    </g>
    <defs>
    <clipPath id="clip0_20765_733">
    <rect width="18" height="18" fill="white"/>
    </clipPath>
    </defs>
    </svg>
    