<svg width="24" height="24" viewBox="0 0 24 24" fill="none" xmlns="http://www.w3.org/2000/svg">
    <g clip-path="url(#clip0_20765_843)">
    <path d="M21.8099 5.65477C21.8099 5.07899 21.6574 4.52272 21.3751 4C20.4811 5.73513 18.2827 7.1301 15.4626 7.77687C14.5499 7.51629 13.3604 7.28067 11.955 7.244V7.24088C11.9386 7.24088 11.9222 7.24166 11.9057 7.24244C11.8893 7.24244 11.8729 7.24166 11.8565 7.24088V7.244C10.4511 7.28145 9.26154 7.51707 8.34886 7.77687C5.52793 7.12931 3.32953 5.73513 2.43561 4C2.1525 4.5235 2 5.07899 2 5.65477C2 7.80807 4.12802 9.67818 7.25474 10.6245C7.8984 13.5846 8.54206 16.5446 9.18491 19.5046C9.82931 19.7121 10.7435 19.9368 11.8557 19.9945V20C11.8721 20 11.8885 19.9985 11.905 19.9977C11.9214 19.9985 11.9378 19.9992 11.9542 20V19.9945C13.0655 19.9368 13.9806 19.7121 14.625 19.5046C15.2686 16.5446 15.9123 13.5846 16.5551 10.6253C19.6811 9.67895 21.8099 7.80886 21.8099 5.65555V5.65477Z" fill="white"/>
    </g>
    <defs>
    <clipPath id="clip0_20765_843">
    <rect width="20" height="16" fill="white" transform="translate(2 4)"/>
    </clipPath>
    </defs>
    </svg>
    