<svg width="18" height="18" viewBox="0 0 18 18" fill="none" xmlns="http://www.w3.org/2000/svg">
    <path fill-rule="evenodd" clip-rule="evenodd" d="M5.69187 8.6065C5.87113 8.18233 6.35528 7.98592 6.7733 8.16777L16.3758 12.346C16.7938 12.528 16.9874 13.0192 16.8081 13.4434C16.6289 13.8676 16.1447 14.064 15.7267 13.8821L6.12419 9.70386C5.70616 9.52195 5.51261 9.03066 5.69187 8.6065Z" fill="url(#paint0_linear_20765_717)"/>
    <path fill-rule="evenodd" clip-rule="evenodd" d="M16.8081 4.55655C16.9874 4.98072 16.7938 5.472 16.3758 5.65391L6.7733 9.83219C6.35528 10.014 5.87113 9.81763 5.69187 9.39346C5.51261 8.9693 5.70616 8.478 6.12419 8.29615L15.7267 4.11786C16.1447 3.93598 16.6289 4.13239 16.8081 4.55655Z" fill="url(#paint1_linear_20765_717)"/>
    <path fill-rule="evenodd" clip-rule="evenodd" d="M6.65921 0.306671C8.56959 -0.206103 10.5955 -0.0730886 12.4228 0.685085C14.2501 1.44326 15.7765 2.78422 16.7654 4.5C16.991 4.89133 16.8572 5.39174 16.4665 5.61764C16.0758 5.84359 15.5763 5.70949 15.3507 5.31821C14.5416 3.91436 13.2927 2.81721 11.7977 2.19689C10.3027 1.57656 8.64508 1.46774 7.08199 1.88728C5.51891 2.30682 4.13772 3.23129 3.15262 4.51731C2.16752 5.80331 1.63356 7.37899 1.63356 9C1.63356 10.621 2.16752 12.1967 3.15262 13.4827C4.13772 14.7687 5.51891 15.6932 7.08199 16.1127C8.64508 16.5323 10.3027 16.4234 11.7977 15.8031C13.2927 15.1828 14.5416 14.0856 15.3507 12.6818C15.5763 12.2905 16.0758 12.1564 16.4665 12.3824C16.8572 12.6083 16.991 13.1087 16.7654 13.5C15.7765 15.2158 14.2501 16.5567 12.4228 17.3149C10.5955 18.0731 8.56959 18.2061 6.65921 17.6933C4.74878 17.1806 3.06065 16.0507 1.85663 14.4788C0.652616 12.9071 3.11577e-07 10.9812 0 9C-3.11576e-07 7.01878 0.652616 5.09295 1.85663 3.52115C3.06065 1.94935 4.74877 0.819445 6.65921 0.306671Z" fill="url(#paint2_radial_20765_717)"/>
    <path fill-rule="evenodd" clip-rule="evenodd" d="M10.5117 5.28799C9.77295 4.98388 8.95999 4.90432 8.17566 5.05935C7.39134 5.21438 6.67092 5.59705 6.10545 6.15897C5.78966 6.47275 5.27766 6.47275 4.96186 6.15897C4.64606 5.84513 4.64606 5.33637 4.96186 5.02253C5.7535 4.23586 6.76213 3.70013 7.86013 3.48309C8.95819 3.26604 10.0963 3.37744 11.1307 3.80318C12.165 4.22893 13.0491 4.9499 13.6711 5.87494C14.293 6.79998 14.625 7.8875 14.625 9C14.625 10.1125 14.293 11.2001 13.671 12.1251C13.0491 13.0501 12.165 13.7711 11.1307 14.1968C10.0963 14.6226 8.95819 14.734 7.86013 14.5169C6.76208 14.2999 5.7535 13.7641 4.96185 12.9775C4.64605 12.6636 4.64606 12.1549 4.96185 11.841C5.27765 11.5273 5.78966 11.5273 6.10545 11.841C6.67092 12.403 7.39134 12.7856 8.17566 12.9407C8.95999 13.0957 9.77295 13.0161 10.5117 12.712C11.2505 12.4079 11.882 11.8929 12.3263 11.2322C12.7706 10.5715 13.0077 9.79465 13.0077 9C13.0077 8.20535 12.7706 7.42855 12.3263 6.76779C11.882 6.10708 11.2505 5.59207 10.5117 5.28799Z" fill="url(#paint3_linear_20765_717)"/>
    <defs>
    <linearGradient id="paint0_linear_20765_717" x1="16.084" y1="13.1141" x2="6.40568" y2="9.03807" gradientUnits="userSpaceOnUse">
    <stop stop-color="#007AFF"/>
    <stop offset="1" stop-color="#4200FF" stop-opacity="0"/>
    </linearGradient>
    <linearGradient id="paint1_linear_20765_717" x1="6.44872" y1="9.06417" x2="16.1271" y2="4.98813" gradientUnits="userSpaceOnUse">
    <stop stop-color="#4200FF"/>
    <stop offset="1" stop-color="#007AFF" stop-opacity="0.1"/>
    </linearGradient>
    <radialGradient id="paint2_radial_20765_717" cx="0" cy="0" r="1" gradientUnits="userSpaceOnUse" gradientTransform="translate(8.98459 9) scale(8.12695 8.14092)">
    <stop offset="0.0720558" stop-color="#4200FF" stop-opacity="0"/>
    <stop offset="0.916349" stop-color="#007AFF"/>
    </radialGradient>
    <linearGradient id="paint3_linear_20765_717" x1="4.76471" y1="13.2353" x2="6.08825" y2="2.64706" gradientUnits="userSpaceOnUse">
    <stop offset="0.142387" stop-color="#007AFF"/>
    <stop offset="1" stop-color="#4200FF" stop-opacity="0"/>
    </linearGradient>
    </defs>
    </svg>
    