<svg width="24" height="24" viewBox="0 0 24 24" fill="none" xmlns="http://www.w3.org/2000/svg">
    <g clip-path="url(#clip0_20737_516)">
    <g filter="url(#filter0_d_20737_516)">
    <path d="M18.241 13.4255H18.2436C18.2436 8.37315 13.0571 4.83087 11.9216 2.36107C11.8118 2.12349 11.6451 2 11.4694 2C11.3299 2 11.184 2.07919 11.0574 2.24027C9.50205 4.22282 9.30699 6.1906 9.57826 7.85101C9.77591 9.05369 10.2177 10.0966 10.5665 10.8698C10.8894 11.5866 10.8752 11.9705 10.5923 11.9705C10.4166 11.9705 10.1376 11.8228 9.77203 11.5154C9.02409 10.8846 8.28518 9.89127 7.82013 9.11275C7.77363 9.0349 7.72971 8.95839 7.68837 8.88591C7.55273 8.6443 7.38738 8.52483 7.22462 8.52483C7.05281 8.52483 6.88617 8.6604 6.76991 8.93154C6.20281 10.2443 6.01163 12.2457 6.00129 13.5181C6 13.5597 6 13.6 6 13.6389C6 17.1517 8.74118 20 12.1231 20C15.5037 20 18.2449 17.1517 18.2449 13.6389C18.2449 13.5678 18.2436 13.4967 18.241 13.4255ZM12.1231 18.1208C9.74361 18.1208 7.80851 16.1101 7.80851 13.6389C7.80851 13.6202 7.80722 13.6 7.80851 13.5785V13.5343C7.80851 13.4846 7.8098 13.4349 7.81109 13.3839V13.3557C7.81109 13.3476 7.81109 13.3396 7.81238 13.3329C7.83434 12.7584 8.18829 12.6 8.62621 12.9705C8.62879 12.9732 8.63138 12.9745 8.63396 12.9772C9.34315 13.5731 9.96581 13.8497 10.5923 13.8497C11.2886 13.8497 11.9229 13.4913 12.291 12.8913C12.9718 11.7772 12.3931 10.494 12.2032 10.0725C11.8557 9.30066 11.5121 8.45906 11.3609 7.53692C11.3093 7.22014 11.2834 6.91275 11.2834 6.61342C11.2834 6.5396 11.2847 6.46577 11.2886 6.39195C11.2873 6.38792 11.2886 6.38523 11.2886 6.38121C11.2912 6.31812 11.2951 6.25637 11.3015 6.19329C11.3015 6.18524 11.3015 6.17853 11.3028 6.17047C11.3054 6.14094 11.3093 6.11141 11.3131 6.08456C11.3997 5.48859 11.7872 5.38389 12.2006 5.8604C12.2006 5.8604 12.2019 5.86309 12.2032 5.86443C12.3466 6.03222 12.4951 6.20268 12.6463 6.37718C14.3153 8.29665 16.1935 10.4564 16.4131 12.9436L16.4338 13.4967C16.4351 13.5436 16.4364 13.5919 16.4364 13.6389C16.4364 16.1101 14.5013 18.1208 12.1231 18.1208Z" fill="white"/>
    </g>
    </g>
    <defs>
    <filter id="filter0_d_20737_516" x="2" y="2" width="20.2449" height="26" filterUnits="userSpaceOnUse" color-interpolation-filters="sRGB">
    <feFlood flood-opacity="0" result="BackgroundImageFix"/>
    <feColorMatrix in="SourceAlpha" type="matrix" values="0 0 0 0 0 0 0 0 0 0 0 0 0 0 0 0 0 0 127 0" result="hardAlpha"/>
    <feOffset dy="4"/>
    <feGaussianBlur stdDeviation="2"/>
    <feComposite in2="hardAlpha" operator="out"/>
    <feColorMatrix type="matrix" values="0 0 0 0 0 0 0 0 0 0 0 0 0 0 0 0 0 0 0.25 0"/>
    <feBlend mode="normal" in2="BackgroundImageFix" result="effect1_dropShadow_20737_516"/>
    <feBlend mode="normal" in="SourceGraphic" in2="effect1_dropShadow_20737_516" result="shape"/>
    </filter>
    <clipPath id="clip0_20737_516">
    <rect width="24" height="24" fill="white"/>
    </clipPath>
    </defs>
    </svg>
    