<svg width="24" height="20" viewBox="0 0 24 20" fill="none" xmlns="http://www.w3.org/2000/svg">
    <g filter="url(#filter0_d_20730_489)">
    <path fill-rule="evenodd" clip-rule="evenodd" d="M12.0102 0C12.0102 4.42391 8.42391 8.01023 4 8.01023C4 3.58629 7.58629 0 12.0102 0ZM12.0102 16.0204C7.58629 16.0204 4 12.4341 4 8.01023C8.42391 8.01023 12.0102 11.5965 12.0102 16.0204ZM20.0204 8.01023C20.0204 12.4341 16.4341 16.0204 12.0102 16.0204C12.0102 11.5965 15.5965 8.01023 20.0204 8.01023ZM19.3529 0.667531C19.3529 4.35411 16.3643 7.34269 12.6777 7.34269C12.6777 3.6561 15.6663 0.667531 19.3529 0.667531Z" fill="white"/>
    </g>
    <defs>
    <filter id="filter0_d_20730_489" x="0" y="0" width="24.0204" height="24.0204" filterUnits="userSpaceOnUse" color-interpolation-filters="sRGB">
    <feFlood flood-opacity="0" result="BackgroundImageFix"/>
    <feColorMatrix in="SourceAlpha" type="matrix" values="0 0 0 0 0 0 0 0 0 0 0 0 0 0 0 0 0 0 127 0" result="hardAlpha"/>
    <feOffset dy="4"/>
    <feGaussianBlur stdDeviation="2"/>
    <feComposite in2="hardAlpha" operator="out"/>
    <feColorMatrix type="matrix" values="0 0 0 0 0 0 0 0 0 0 0 0 0 0 0 0 0 0 0.24 0"/>
    <feBlend mode="normal" in2="BackgroundImageFix" result="effect1_dropShadow_20730_489"/>
    <feBlend mode="normal" in="SourceGraphic" in2="effect1_dropShadow_20730_489" result="shape"/>
    </filter>
    </defs>
    </svg>
    