<svg width="24" height="24" viewBox="0 0 24 24" fill="none" xmlns="http://www.w3.org/2000/svg">
    <path fill-rule="evenodd" clip-rule="evenodd" d="M3.44247 11.8113C3.00453 9.88308 2.78556 8.91901 3.29208 8.58042C3.7986 8.24182 4.59302 8.82126 6.18187 9.9802L7.75537 11.1279C7.84795 11.1954 7.89426 11.2292 7.94207 11.2186C7.98995 11.2081 8.01819 11.1581 8.07467 11.0579L10.4741 6.80122C11.1511 5.60045 11.4895 5 12 5C12.5105 5 12.849 5.60045 13.5258 6.80122L15.9253 11.0579C15.9818 11.1581 16.01 11.2081 16.0579 11.2186C16.1058 11.2292 16.152 11.1954 16.2446 11.1279L17.8181 9.9802C19.407 8.82126 20.2014 8.24182 20.7079 8.58042C21.2144 8.91901 20.9955 9.88308 20.5575 11.8114L19.692 15.6225C19.5912 16.0664 19.5407 16.2884 19.3769 16.385C19.213 16.4816 18.9904 16.4152 18.5454 16.2824C16.4706 15.6633 14.2738 15.3309 12 15.3309C9.78725 15.3309 7.57628 15.6504 5.45471 16.2826C5.0095 16.4153 4.78689 16.4816 4.62307 16.385C4.45923 16.2883 4.40885 16.0664 4.30805 15.6225L3.44247 11.8113ZM5.55282 15.1024C5.4476 15.1317 5.39499 15.1464 5.35472 15.1222C5.31445 15.0979 5.30235 15.0446 5.27811 14.9379L4.25128 10.4167C4.19656 10.1756 4.16918 10.0551 4.23249 10.0128C4.29579 9.97045 4.39511 10.0429 4.59371 10.1878L7.24858 12.1242C7.32438 12.1795 7.36234 12.2072 7.37125 12.2486C7.38017 12.29 7.35698 12.331 7.31073 12.4131L5.88427 14.9436C5.86183 14.9834 5.85061 15.0034 5.83315 15.017C5.8157 15.0305 5.79363 15.0365 5.7495 15.0484C5.68386 15.0661 5.61828 15.0841 5.55282 15.1024ZM8.50074 13.0375C8.40817 12.97 8.36191 12.9363 8.31404 12.9468C8.26623 12.9573 8.23799 13.0073 8.18151 13.1075L7.52978 14.2637C7.42798 14.4442 7.37711 14.5345 7.41726 14.5919C7.45734 14.6494 7.55939 14.6312 7.76342 14.595C8.32196 14.4957 8.94271 14.4049 9.61221 14.3369C9.86299 14.3115 9.98835 14.2988 10.008 14.225C10.0277 14.1513 9.92632 14.0773 9.72348 13.9294L8.50074 13.0375ZM14.2765 13.9294C14.0737 14.0773 13.9723 14.1513 13.992 14.225C14.0116 14.2988 14.1371 14.3115 14.3878 14.3369C15.0573 14.4049 15.678 14.4957 16.2366 14.595C16.4407 14.6312 16.5427 14.6494 16.5828 14.5919C16.6229 14.5345 16.572 14.4442 16.4703 14.2637L15.8185 13.1075C15.7621 13.0073 15.7338 12.9573 15.6859 12.9468C15.6381 12.9363 15.5918 12.97 15.4992 13.0375L14.2765 13.9294ZM15.0546 11.7523C15.1008 11.8344 15.124 11.8755 15.1151 11.9168C15.1061 11.9582 15.0682 11.9859 14.9924 12.0412L12.8966 13.5699C12.7443 13.681 12.6681 13.7366 12.6084 13.7057C12.5486 13.6748 12.5486 13.5801 12.5486 13.3905V8.1437C12.5486 7.80787 12.5486 7.63999 12.6302 7.61817C12.7118 7.5964 12.7941 7.74233 12.9587 8.03425L15.0546 11.7523ZM16.7515 12.1242C16.6756 12.1795 16.6377 12.2072 16.6288 12.2486C16.6199 12.29 16.643 12.331 16.6893 12.4131L18.1157 14.9436C18.1382 14.9834 18.1494 15.0034 18.1668 15.017C18.1843 15.0305 18.2064 15.0364 18.2505 15.0484C18.3162 15.0661 18.3818 15.0841 18.4472 15.1024C18.5524 15.1317 18.6051 15.1464 18.6453 15.1222C18.6855 15.0979 18.6976 15.0446 18.7219 14.9379L19.7488 10.4167C19.8034 10.1756 19.8309 10.0551 19.7675 10.0128C19.7042 9.97045 19.6049 10.0429 19.4063 10.1878L16.7515 12.1242ZM11.4515 13.3905C11.4515 13.5801 11.4515 13.6748 11.3917 13.7057C11.3318 13.7366 11.2557 13.681 11.1034 13.5699L9.0076 12.0412C8.93174 11.9859 8.89384 11.9582 8.88492 11.9168C8.87601 11.8755 8.89913 11.8344 8.94539 11.7523L11.0413 8.03425C11.2058 7.74233 11.2881 7.5964 11.3698 7.61817C11.4515 7.63999 11.4515 7.80787 11.4515 8.1437V13.3905ZM12 15.8844C14.3327 15.8844 16.5825 16.2428 18.6983 16.9079C18.9559 16.9889 19.0847 17.0294 19.1666 17.1248C19.2026 17.1668 19.232 17.2185 19.2499 17.2711C19.2905 17.3905 19.2595 17.5269 19.1974 17.7999C19.122 18.1323 19.0842 18.2986 18.9813 18.3922C18.9342 18.4352 18.8825 18.4652 18.8221 18.4849C18.6903 18.5278 18.5236 18.4759 18.1903 18.3721C16.2338 17.7625 14.1548 17.4343 12 17.4343C9.84516 17.4343 7.76628 17.7625 5.80978 18.3721C5.4764 18.4759 5.30977 18.5278 5.17793 18.4849C5.11746 18.4652 5.06585 18.4352 5.01866 18.3922C4.9158 18.2986 4.87809 18.1323 4.80254 17.7999C4.74057 17.5269 4.70959 17.3905 4.75011 17.2711C4.76794 17.2185 4.79743 17.1668 4.83346 17.1248C4.9153 17.0294 5.04409 16.9889 5.30173 16.9079C7.41745 16.2428 9.66725 15.8844 12 15.8844Z" fill="white"/>
    </svg>
    