<svg width="24" height="24" viewBox="0 0 24 24" fill="none" xmlns="http://www.w3.org/2000/svg">
    <mask id="mask0_20738_571" style="mask-type:luminance" maskUnits="userSpaceOnUse" x="5" y="3" width="14" height="18">
    <path d="M18.5731 3H5V21H18.5731V3Z" fill="white"/>
    </mask>
    <g mask="url(#mask0_20738_571)">
    <g filter="url(#filter0_d_20738_571)">
    <path d="M17.0648 7.97977C17.5668 7.43313 18.0634 6.89304 18.56 6.35258C18.5644 6.35329 18.5687 6.35442 18.5734 6.35513C18.3928 8.2818 18.2122 10.2089 18.0308 12.1461C15.9502 10.2118 13.8762 8.28326 11.7963 6.34966C10.7267 7.51244 9.65564 8.67704 8.57986 9.84675C8.59794 9.86638 8.61932 9.89332 8.6443 9.91662C8.96572 10.2147 9.2882 10.5117 9.60966 10.8097C10.1555 11.3171 10.7006 11.8251 11.2465 12.3328C11.7999 12.8474 12.354 13.3616 12.9076 13.8762C12.9672 13.932 13.0245 13.9901 13.0831 14.0469C13.1113 14.0742 13.111 14.0931 13.081 14.1248C12.9336 14.2788 12.7898 14.4363 12.6451 14.5932C12.2926 14.9757 11.9404 15.3585 11.5886 15.7418C11.5693 15.7625 11.5534 15.7866 11.5332 15.8123C11.5285 15.8099 11.5187 15.8066 11.5118 15.8004C11.072 15.3921 10.6322 14.9834 10.1931 14.5746C9.86341 14.2679 9.53474 13.9596 9.20459 13.6532C8.52557 13.0224 7.84579 12.3925 7.16709 11.7618C6.6187 11.2526 6.07106 10.7427 5.52342 10.2325C5.44486 10.1594 5.36885 10.0833 5.29175 10.0087C5.27221 9.98979 5.26353 9.97337 5.28775 9.94828C5.40794 9.82273 5.52667 9.69569 5.64466 9.56798C5.8908 9.3012 6.13621 9.03409 6.38198 8.76696C6.73201 8.38625 7.08131 8.00487 7.43133 7.6242C7.66478 7.37052 7.89937 7.11756 8.13283 6.86394C8.50527 6.45887 8.87738 6.05306 9.24987 5.64799C9.51699 5.35758 9.78486 5.06753 10.052 4.7771C10.533 4.25376 11.0133 3.73005 11.4941 3.20672C11.5473 3.14885 11.6005 3.09098 11.653 3.03239C11.6914 2.99017 11.6964 2.98981 11.7391 3.02948C12.1793 3.43745 12.6194 3.84542 13.0592 4.25376C13.6916 4.84117 14.3235 5.42928 14.9555 6.01702C15.3642 6.3966 15.7736 6.77585 16.1815 7.15577C16.4656 7.42039 16.7487 7.68679 17.0321 7.95208C17.0438 7.96302 17.0564 7.97321 17.0643 7.9801L17.0648 7.97977Z" fill="white"/>
    <path d="M5 17.6517C5.18172 15.7123 5.36196 13.7842 5.54259 11.8539C5.54731 11.8567 5.556 11.8604 5.56285 11.8666C5.82491 12.1065 6.08735 12.3455 6.34795 12.5868C6.76643 12.9741 7.18339 13.3624 7.60072 13.7504C8.03365 14.1528 8.46585 14.5561 8.89876 14.9587C9.47573 15.4947 10.0534 16.0301 10.6297 16.5668C10.9982 16.91 11.3644 17.255 11.7319 17.5994C11.7427 17.6095 11.751 17.6241 11.7634 17.6314C11.7717 17.6361 11.7905 17.6365 11.7956 17.6306C11.8622 17.5568 11.9256 17.4796 11.9929 17.4064C12.3711 16.9941 12.7497 16.5822 13.1287 16.1706C13.445 15.8265 13.7625 15.4838 14.0789 15.1402C14.3721 14.8221 14.6645 14.5037 14.9574 14.1852C15.0044 14.1343 15.0023 14.1339 14.9502 14.0862C14.7141 13.8693 14.4792 13.6514 14.2443 13.4333C13.6825 12.9118 13.1208 12.3903 12.5596 11.8685C11.9509 11.3021 11.342 10.7359 10.7335 10.1692C10.6431 10.0848 10.5537 9.99886 10.4588 9.90898C10.9482 9.37654 11.4369 8.84481 11.9299 8.30841C14.0138 10.246 16.103 12.189 18.1948 14.1339C16.0871 16.4256 13.9873 18.7087 11.8799 21C10.0943 19.3401 8.30515 17.6773 6.51121 16.0097C6.00954 16.5549 5.50676 17.1011 5.00038 17.6517H5Z" fill="white"/>
    </g>
    </g>
    <defs>
    <filter id="filter0_d_20738_571" x="1" y="3.00021" width="21.5734" height="25.9998" filterUnits="userSpaceOnUse" color-interpolation-filters="sRGB">
    <feFlood flood-opacity="0" result="BackgroundImageFix"/>
    <feColorMatrix in="SourceAlpha" type="matrix" values="0 0 0 0 0 0 0 0 0 0 0 0 0 0 0 0 0 0 127 0" result="hardAlpha"/>
    <feOffset dy="4"/>
    <feGaussianBlur stdDeviation="2"/>
    <feComposite in2="hardAlpha" operator="out"/>
    <feColorMatrix type="matrix" values="0 0 0 0 0 0 0 0 0 0 0 0 0 0 0 0 0 0 0.25 0"/>
    <feBlend mode="normal" in2="BackgroundImageFix" result="effect1_dropShadow_20738_571"/>
    <feBlend mode="normal" in="SourceGraphic" in2="effect1_dropShadow_20738_571" result="shape"/>
    </filter>
    </defs>
    </svg>
    