<svg width="55" height="52" viewBox="0 0 55 52" fill="none" xmlns="http://www.w3.org/2000/svg">
    <path d="M8.00012 11.0002C8.00012 8.08274 9.15907 5.28481 11.222 3.22187C13.2849 1.15894 16.0829 0 19.0003 0C21.9177 0 24.7157 1.15894 26.7786 3.22187C28.8415 5.28481 30.0005 8.08274 30.0005 11.0002C30.0005 13.9176 28.8415 16.7155 26.7786 18.7785C24.7157 20.8414 21.9177 22.0003 19.0003 22.0003C16.0829 22.0003 13.2849 20.8414 11.222 18.7785C9.15907 16.7155 8.00012 13.9176 8.00012 11.0002ZM0 45.0007C7.50898e-08 39.9615 2.00181 35.1287 5.56506 31.5655C9.1283 28.0022 13.9611 26.0004 19.0003 26.0004C24.0395 26.0004 28.8723 28.0022 32.4355 31.5655C35.9988 35.1287 38.0006 39.9615 38.0006 45.0007V45.0087L37.9979 45.326C37.9923 45.6652 37.9004 45.9973 37.7311 46.2912C37.5618 46.5851 37.3205 46.8311 37.0299 47.0061C31.5877 50.2833 25.3531 52.0105 19.0003 52.0008C12.4082 52.0008 6.23743 50.1768 0.973348 47.0061C0.68228 46.8314 0.440452 46.5855 0.270635 46.2916C0.100818 45.9977 0.00860104 45.6654 0.00266683 45.326L0 45.0007Z" fill="white"/>
    <path d="M36.0006 45.0087C38.2752 45.6691 40.6321 46.0031 43.0007 46.0007C46.8098 46.0062 50.5694 45.1377 53.9902 43.462C54.0913 41.0718 53.4105 38.7138 52.0509 36.7454C50.6913 34.777 48.7271 33.3055 46.4559 32.5538C44.1848 31.8022 41.7305 31.8115 39.465 32.5802C37.1996 33.349 35.2466 34.8353 33.9019 36.8139M36.0006 45.0087V45.0007C36.0006 42.0326 35.2379 39.2406 33.9019 36.8139M36.0006 45.0087V45.2913C30.8684 48.3823 24.9887 50.0109 18.9976 50.0008C12.7815 50.0008 6.96545 48.2807 2.00004 45.2913L1.99738 45.0007C1.99533 41.2259 3.2497 37.5577 5.56272 34.5746C7.87574 31.5914 11.1158 29.4629 14.7722 28.5247C18.4286 27.5865 22.2932 27.8918 25.7568 29.3927C29.2205 30.8935 32.0861 33.5045 33.9019 36.8139M28.0004 11.0002C28.0004 13.3872 27.0522 15.6764 25.3644 17.3642C23.6765 19.0521 21.3873 20.0003 19.0003 20.0003C16.6133 20.0003 14.3241 19.0521 12.6362 17.3642C10.9484 15.6764 10.0002 13.3872 10.0002 11.0002C10.0002 8.61318 10.9484 6.32396 12.6362 4.63611C14.3241 2.94826 16.6133 2.00003 19.0003 2.00003C21.3873 2.00003 23.6765 2.94826 25.3644 4.63611C27.0522 6.32396 28.0004 8.61318 28.0004 11.0002ZM50.0008 17.0003C50.0008 18.8568 49.2633 20.6373 47.9505 21.9501C46.6377 23.2629 44.8572 24.0004 43.0007 24.0004C41.1441 24.0004 39.3636 23.2629 38.0508 21.9501C36.7381 20.6373 36.0006 18.8568 36.0006 17.0003C36.0006 15.1437 36.7381 13.3632 38.0508 12.0504C39.3636 10.7377 41.1441 10.0002 43.0007 10.0002C44.8572 10.0002 46.6377 10.7377 47.9505 12.0504C49.2633 13.3632 50.0008 15.1437 50.0008 17.0003Z" stroke="white" stroke-width="0.6" stroke-linecap="round" stroke-linejoin="round"/>
    </svg>
    