<svg width="72" height="72" viewBox="0 0 72 72" fill="none" xmlns="http://www.w3.org/2000/svg">
    <path d="M9.76706 31.6591C14.6908 27.4196 21.4182 23.4748 29.2344 20.5542C47.8085 13.6188 65.5159 15.0893 68.7848 23.8366C70.3608 28.0586 68.2886 33.2025 63.6363 38.1743" stroke="white" stroke-width="0.6" stroke-miterlimit="10"/>
    <path d="M18.5317 56.6107C9.86923 56.5348 3.37527 53.9147 1.52194 48.9546C0.252337 45.5525 1.34974 41.5523 4.25962 37.5229" stroke="white" stroke-width="0.6" stroke-miterlimit="10"/>
    <path d="M4.72354 34.3987H9.28245" stroke="white" stroke-width="0.6" stroke-miterlimit="10"/>
    <path d="M7.00317 31.9778V36.6228" stroke="white" stroke-width="0.6" stroke-miterlimit="10"/>
    <path d="M5.35959 32.7211L8.64597 36.0093" stroke="white" stroke-width="0.6" stroke-miterlimit="10"/>
    <path d="M8.64609 32.7554L5.35971 36.0407" stroke="white" stroke-width="0.6" stroke-miterlimit="10"/>
    <path d="M18.5318 56.6092C18.4909 56.3641 18.4734 56.1161 18.4734 55.8652V46.686C18.4734 42.3911 29.4971 46.686 36.9133 46.686C43.9152 46.686 55.3533 42.7558 55.3533 46.686V55.8652C55.3533 58.2927 53.4562 60.5014 50.3624 62.1441" stroke="white" stroke-width="0.6" stroke-miterlimit="10"/>
    <path d="M34.73 54.2627C25.5743 53.7258 18.4703 49.8482 18.4703 45.1477V35.9686C18.4703 31.6737 29.494 35.9686 36.9102 35.9686C43.912 35.9686 55.3502 32.0384 55.3502 35.9686V45.1477C55.3502 49.3755 49.6092 52.9351 41.7931 54.0001" fill="#006EE9"/>
    <path d="M34.73 54.2627C25.5743 53.7258 18.4703 49.8482 18.4703 45.1477V35.9686C18.4703 31.6737 29.494 35.9686 36.9102 35.9686C43.912 35.9686 55.3502 32.0384 55.3502 35.9686V45.1477C55.3502 49.3755 49.6092 52.9351 41.7931 54.0001" stroke="white" stroke-width="0.6" stroke-miterlimit="10"/>
    <path d="M55.3533 36.1068C55.3533 41.1749 47.0965 45.286 36.9133 45.286C26.7302 45.286 18.4734 41.1778 18.4734 36.1068V26.9277C18.4734 22.6328 29.4971 26.9277 36.9133 26.9277C43.9152 26.9277 55.3533 22.9975 55.3533 26.9277V36.1068Z" fill="#006EE9" stroke="white" stroke-width="0.6" stroke-miterlimit="10"/>
    <path d="M55.3533 26.3562C55.3533 31.4243 47.0965 35.5353 36.9133 35.5353C26.7302 35.5353 18.4734 31.4272 18.4734 26.3562V17.177C18.4734 12.8821 29.4971 17.177 36.9133 17.177C43.9152 17.177 55.3533 13.2469 55.3533 17.177V26.3562Z" fill="#006EE9" stroke="white" stroke-width="0.6" stroke-miterlimit="10"/>
    <path d="M36.9137 26.3583C47.0978 26.3583 55.3537 22.2486 55.3537 17.1791C55.3537 12.1096 47.0978 7.99994 36.9137 7.99994C26.7297 7.99994 18.4738 12.1096 18.4738 17.1791C18.4738 22.2486 26.7297 26.3583 36.9137 26.3583Z" fill="white" stroke="white" stroke-width="0.6" stroke-miterlimit="10"/>
    <path d="M63.6361 38.1738C58.6453 43.5074 50.6832 48.6455 41.0722 52.2343C33.0284 55.2367 25.1481 56.6634 18.5316 56.608" stroke="white" stroke-width="0.6" stroke-miterlimit="10"/>
    <path d="M41.1334 51.5023C42.3564 58.6653 48.754 63.5496 55.4202 62.4117C56.4592 62.2337 57.5887 62.0411 58.9313 61.8135C64.3366 60.8915 66.3096 53.428 65.2793 47.3825C64.2082 41.1152 60.5891 34.6962 54.9794 35.7904C54.025 35.9771 51.8244 36.3272 50.9897 36.4702C44.3206 37.6081 39.9076 44.3364 41.1305 51.4994L41.1334 51.5023Z" fill="white" stroke="black" stroke-width="0.2" stroke-miterlimit="10"/>
    <path d="M58.9277 61.8198C65.595 60.6829 70.009 53.9537 68.7866 46.7897C67.5643 39.6257 61.1684 34.7397 54.5011 35.8766C47.8338 37.0136 43.4198 43.7428 44.6422 50.9068C45.8646 58.0708 52.2604 62.9567 58.9277 61.8198Z" fill="white" stroke="black" stroke-width="0.2" stroke-miterlimit="10"/>
    <path d="M65.043 45.0923C65.043 45.0923 64.3454 43.3213 62.8569 43.5751C61.3684 43.829 61.2137 45.743 61.2137 45.743" stroke="black" stroke-width="0.2" stroke-miterlimit="10" stroke-linecap="round"/>
    <path d="M53.695 46.9506C53.695 46.9506 52.8952 45.197 51.0069 45.5209C49.1185 45.8448 48.8383 47.7792 48.8383 47.7792" stroke="black" stroke-width="0.2" stroke-miterlimit="10" stroke-linecap="round"/>
    <path d="M64.2547 48.5595C64.2547 48.5595 64.2577 54.0886 59.0421 55.2411C53.8265 56.3936 50.6598 50.8791 50.6598 50.8791" stroke="black" stroke-width="0.2" stroke-miterlimit="10" stroke-linecap="round"/>
    </svg>
    