<svg width="68" height="18" viewBox="0 0 68 18" fill="none" xmlns="http://www.w3.org/2000/svg">
<rect x="0.5" y="0.5" width="67" height="17" rx="8.5" fill="#9A81E6" stroke="white"/>
<path d="M15.4492 11.541C15.2148 11.6387 14.9788 11.7266 14.7412 11.8047C14.5036 11.8828 14.2578 11.9495 14.0039 12.0049C13.75 12.0635 13.4814 12.1074 13.1982 12.1367C12.9183 12.166 12.6172 12.1807 12.2949 12.1807C11.6113 12.1807 10.9814 12.1074 10.4053 11.9609C9.83236 11.8145 9.33757 11.5947 8.9209 11.3018C8.50749 11.0055 8.18522 10.6377 7.9541 10.1982C7.72298 9.75553 7.60742 9.23958 7.60742 8.65039C7.60742 8.0612 7.72298 7.54688 7.9541 7.10742C8.18522 6.66471 8.50749 6.29688 8.9209 6.00391C9.33757 5.70768 9.83236 5.48633 10.4053 5.33984C10.9814 5.19336 11.6113 5.12012 12.2949 5.12012C12.6172 5.12012 12.9183 5.13477 13.1982 5.16406C13.4814 5.19336 13.75 5.2373 14.0039 5.2959C14.2578 5.35124 14.5036 5.41797 14.7412 5.49609C14.9788 5.57422 15.2148 5.66211 15.4492 5.75977V7.39062C15.2637 7.28971 15.0684 7.19043 14.8633 7.09277C14.6582 6.99186 14.432 6.90234 14.1846 6.82422C13.9372 6.74284 13.6654 6.67773 13.3691 6.62891C13.0729 6.57682 12.7393 6.55078 12.3682 6.55078C11.7985 6.55078 11.3249 6.60938 10.9473 6.72656C10.5729 6.84375 10.2734 7 10.0488 7.19531C9.82422 7.39062 9.66634 7.61523 9.5752 7.86914C9.48405 8.11979 9.43848 8.38021 9.43848 8.65039C9.43848 8.82943 9.45801 9.00684 9.49707 9.18262C9.53613 9.35514 9.60124 9.51953 9.69238 9.67578C9.78353 9.82878 9.90234 9.97038 10.0488 10.1006C10.1953 10.2308 10.3776 10.3431 10.5957 10.4375C10.8138 10.5319 11.0677 10.6068 11.3574 10.6621C11.6504 10.7142 11.9873 10.7402 12.3682 10.7402C12.7393 10.7402 13.0729 10.7174 13.3691 10.6719C13.6654 10.623 13.9372 10.5596 14.1846 10.4814C14.432 10.4033 14.6582 10.3154 14.8633 10.2178C15.0684 10.1169 15.2637 10.0143 15.4492 9.91016V11.541ZM25.8203 8.65039C25.8203 9.22656 25.7145 9.736 25.5029 10.1787C25.2913 10.6182 24.9886 10.986 24.5947 11.2822C24.2008 11.5785 23.7223 11.8031 23.1592 11.9561C22.5993 12.1058 21.9694 12.1807 21.2695 12.1807C20.5697 12.1807 19.9365 12.1058 19.3701 11.9561C18.807 11.8031 18.3268 11.5785 17.9297 11.2822C17.5326 10.986 17.2266 10.6182 17.0117 10.1787C16.7969 9.736 16.6895 9.22656 16.6895 8.65039C16.6895 8.07422 16.7969 7.56641 17.0117 7.12695C17.2266 6.68424 17.5326 6.31478 17.9297 6.01855C18.3268 5.72233 18.807 5.49935 19.3701 5.34961C19.9365 5.19661 20.5697 5.12012 21.2695 5.12012C21.9694 5.12012 22.5993 5.19661 23.1592 5.34961C23.7223 5.49935 24.2008 5.72233 24.5947 6.01855C24.9886 6.31478 25.2913 6.68424 25.5029 7.12695C25.7145 7.56641 25.8203 8.07422 25.8203 8.65039ZM23.9893 8.65039C23.9893 8.39974 23.9486 8.15072 23.8672 7.90332C23.7891 7.65267 23.6475 7.42806 23.4424 7.22949C23.2406 7.03092 22.9639 6.86979 22.6123 6.74609C22.2607 6.6224 21.8132 6.56055 21.2695 6.56055C20.9049 6.56055 20.5843 6.58984 20.3076 6.64844C20.0309 6.70378 19.7917 6.7819 19.5898 6.88281C19.388 6.98372 19.2188 7.10254 19.082 7.23926C18.9453 7.37272 18.8363 7.51758 18.7549 7.67383C18.6735 7.82682 18.6149 7.98796 18.5791 8.15723C18.5465 8.32324 18.5303 8.48763 18.5303 8.65039C18.5303 8.81641 18.5465 8.98405 18.5791 9.15332C18.6149 9.32259 18.6735 9.48535 18.7549 9.6416C18.8363 9.7946 18.9453 9.93783 19.082 10.0713C19.2188 10.2048 19.388 10.3219 19.5898 10.4229C19.7917 10.5205 20.0309 10.5986 20.3076 10.6572C20.5843 10.7126 20.9049 10.7402 21.2695 10.7402C21.8132 10.7402 22.2607 10.6784 22.6123 10.5547C22.9639 10.431 23.2406 10.2699 23.4424 10.0713C23.6475 9.87272 23.7891 9.64974 23.8672 9.40234C23.9486 9.15169 23.9893 8.90104 23.9893 8.65039ZM36.001 12V7.28809L33.5107 12H31.7725L29.2822 7.28809V12H27.4707V5.29102H29.9316L32.6416 10.3691L35.3516 5.29102H37.8027V12H36.001ZM39.9023 12V5.29102H41.7139V12H39.9023ZM50.1562 12L45.6299 7.39062V12H43.8184V5.29102H45.7861L50.3174 9.91992V5.29102H52.1191V12H50.1562ZM58.54 5.12012C59.1976 5.12012 59.8079 5.17708 60.3711 5.29102C60.9375 5.40169 61.4567 5.54492 61.9287 5.7207V7.36133C61.7432 7.25716 61.5332 7.15625 61.2988 7.05859C61.0677 6.96094 60.8154 6.87467 60.542 6.7998C60.2686 6.72493 59.9756 6.66471 59.6631 6.61914C59.3506 6.57357 59.0218 6.55078 58.6768 6.55078C58.2471 6.55078 57.8727 6.58171 57.5537 6.64355C57.2347 6.7054 56.9613 6.78841 56.7334 6.89258C56.5055 6.99674 56.3184 7.11882 56.1719 7.25879C56.0254 7.39551 55.9098 7.54199 55.8252 7.69824C55.7406 7.85449 55.682 8.014 55.6494 8.17676C55.6169 8.33952 55.6006 8.4974 55.6006 8.65039C55.6006 8.78385 55.6136 8.92871 55.6396 9.08496C55.6689 9.24121 55.721 9.39746 55.7959 9.55371C55.874 9.70996 55.9814 9.8597 56.1182 10.0029C56.2549 10.1462 56.4323 10.2731 56.6504 10.3838C56.8717 10.4945 57.137 10.584 57.4463 10.6523C57.7555 10.7174 58.1234 10.75 58.5498 10.75C58.7646 10.75 58.9518 10.7435 59.1113 10.7305C59.2708 10.7174 59.4157 10.6995 59.5459 10.6768C59.6794 10.654 59.8031 10.6263 59.917 10.5938C60.0342 10.5612 60.1546 10.527 60.2783 10.4912V9.68066H58.2471V8.21094H62.0898V11.6387C61.849 11.7201 61.5788 11.7949 61.2793 11.8633C60.9831 11.9284 60.6755 11.9837 60.3564 12.0293C60.0407 12.0781 59.7233 12.1156 59.4043 12.1416C59.0853 12.1676 58.7842 12.1807 58.501 12.1807C58.0615 12.1807 57.64 12.1514 57.2363 12.0928C56.8327 12.0342 56.4551 11.9447 56.1035 11.8242C55.7552 11.7005 55.4362 11.5443 55.1465 11.3555C54.86 11.1667 54.6143 10.9421 54.4092 10.6816C54.2074 10.4212 54.0495 10.1234 53.9355 9.78809C53.8249 9.44954 53.7695 9.07031 53.7695 8.65039C53.7695 8.23372 53.8281 7.85612 53.9453 7.51758C54.0625 7.17904 54.2253 6.87956 54.4336 6.61914C54.6452 6.35872 54.8975 6.13411 55.1904 5.94531C55.4867 5.75651 55.8105 5.60189 56.1621 5.48145C56.5169 5.35775 56.8945 5.2666 57.2949 5.20801C57.6986 5.14941 58.1136 5.12012 58.54 5.12012Z" fill="white"/>
</svg>
