<svg width="24" height="24" viewBox="0 0 24 24" fill="none" xmlns="http://www.w3.org/2000/svg">
<path d="M13.3837 12.1335C13.3837 15.521 10.6563 18.2672 7.29174 18.2672C3.92721 18.2672 1.20001 15.5218 1.20001 12.1335C1.20001 8.7452 3.92742 6 7.29174 6C10.6561 6 13.3837 8.74603 13.3837 12.1335ZM20.0666 12.1335C20.0666 15.3224 18.7028 17.9073 17.0206 17.9073C15.3385 17.9073 13.9747 15.3216 13.9747 12.1335C13.9747 8.94544 15.3385 6.35972 17.0206 6.35972C18.7028 6.35972 20.0666 8.94544 20.0666 12.1335ZM22.8 12.1335C22.8 14.9906 22.3203 17.3066 21.7287 17.3066C21.1371 17.3066 20.6574 14.9898 20.6574 12.1335C20.6574 9.27723 21.1371 6.96044 21.7289 6.96044C22.3207 6.96044 22.8 9.27661 22.8 12.1335Z" fill="black"/>
</svg>
