<svg width="36" height="36" viewBox="0 0 36 36" fill="none" xmlns="http://www.w3.org/2000/svg">
<g clip-path="url(#clip0_38_1137)">
<path opacity="0.01" d="M0 0H36V36H0V0Z" fill="#202425"/>
<path d="M1.19995 8.4C1.19995 7.76348 1.45281 7.15303 1.90289 6.70294C2.35298 6.25286 2.96343 6 3.59995 6H32.4C33.0365 6 33.6469 6.25286 34.097 6.70294C34.5471 7.15303 34.7999 7.76348 34.7999 8.4V11.1504C34.7998 12.4874 34.4273 13.798 33.7243 14.9353C33.0213 16.0726 32.0155 16.9917 30.8196 17.5896L18.5364 23.7312C18.3698 23.8144 18.1861 23.8578 18 23.8578C17.8138 23.8578 17.6301 23.8144 17.4636 23.7312L5.18035 17.5896C3.98443 16.9917 2.97861 16.0726 2.27559 14.9353C1.57256 13.798 1.20011 12.4874 1.19995 11.1504V8.4Z" fill="white" fill-opacity="0.6"/>
<path d="M8.64004 2.40002C8.30564 2.40002 7.97493 2.46989 7.66911 2.60517C7.36329 2.74044 7.08912 2.93814 6.86417 3.18557C6.63922 3.433 6.46846 3.72471 6.36284 4.042C6.25723 4.35928 6.21908 4.69513 6.25085 5.02802L7.49045 18.0432C7.68961 20.1337 8.50748 22.1174 9.83956 23.7408C11.1716 25.3643 12.9575 26.5537 14.9688 27.1572C15.1483 27.208 15.3066 27.3153 15.4203 27.4631C15.534 27.611 15.597 27.7915 15.6 27.978C15.6 28.196 15.5134 28.4051 15.3593 28.5593C15.2051 28.7134 14.9961 28.8 14.778 28.8H9.60005C9.28485 28.8 8.97273 28.862 8.68152 28.9826C8.3903 29.1032 8.12569 29.28 7.9028 29.5029C7.67991 29.7257 7.5031 29.9903 7.38247 30.2815C7.26184 30.5727 7.19975 30.8848 7.19975 31.2C7.19975 31.5152 7.26184 31.8273 7.38247 32.1185C7.5031 32.4097 7.67991 32.6743 7.9028 32.8972C8.12569 33.12 8.3903 33.2968 8.68152 33.4174C8.97273 33.538 9.28485 33.6001 9.60005 33.6H26.4C26.7152 33.6001 27.0274 33.538 27.3186 33.4174C27.6098 33.2968 27.8744 33.12 28.0973 32.8972C28.3202 32.6743 28.497 32.4097 28.6176 32.1185C28.7382 31.8273 28.8003 31.5152 28.8003 31.2C28.8003 30.8848 28.7382 30.5727 28.6176 30.2815C28.497 29.9903 28.3202 29.7257 28.0973 29.5029C27.8744 29.28 27.6098 29.1032 27.3186 28.9826C27.0274 28.862 26.7152 28.8 26.4 28.8H21.222C21.004 28.8 20.795 28.7134 20.6408 28.5593C20.4866 28.4051 20.4 28.196 20.4 27.978C20.4 27.5952 20.664 27.2676 21.0312 27.1572C23.0429 26.5539 24.8289 25.3645 26.1612 23.7411C27.4935 22.1177 28.3116 20.1339 28.5108 18.0432L29.748 5.02802C29.7798 4.69544 29.7417 4.35989 29.6363 4.04285C29.5309 3.72581 29.3605 3.43428 29.1359 3.1869C28.9114 2.93952 28.6376 2.74176 28.3322 2.60626C28.0269 2.47076 27.6965 2.40052 27.3624 2.40002H8.64004Z" fill="white"/>
<path d="M11.8906 19.75V17.8281C13.2865 17.1875 14.4974 16.6146 15.5234 16.1094C16.5547 15.6042 17.4062 15.1458 18.0781 14.7344C18.7552 14.3229 19.2578 13.9479 19.5859 13.6094C19.9141 13.2656 20.0781 12.9349 20.0781 12.6172C20.0781 12.5286 20.0677 12.4297 20.0469 12.3203C20.0312 12.2057 19.9896 12.0911 19.9219 11.9766C19.8594 11.8568 19.7656 11.7396 19.6406 11.625C19.5156 11.5104 19.3438 11.4115 19.125 11.3281C18.9062 11.2396 18.6354 11.1693 18.3125 11.1172C17.9896 11.0599 17.599 11.0312 17.1406 11.0312C16.7188 11.0312 16.2786 11.0599 15.8203 11.1172C15.362 11.1693 14.9089 11.2448 14.4609 11.3438C14.013 11.4427 13.5807 11.5625 13.1641 11.7031C12.7474 11.8438 12.3646 12.0026 12.0156 12.1797V9.625C12.7344 9.375 13.5312 9.16667 14.4062 9C15.2865 8.82812 16.2135 8.74219 17.1875 8.74219C18.099 8.74219 18.9141 8.82292 19.6328 8.98438C20.3516 9.14583 20.9583 9.38021 21.4531 9.6875C21.9531 9.98958 22.3333 10.3594 22.5938 10.7969C22.8594 11.2292 22.9922 11.7188 22.9922 12.2656C22.9922 12.5677 22.9583 12.8516 22.8906 13.1172C22.8281 13.3776 22.7135 13.6328 22.5469 13.8828C22.3802 14.1328 22.1536 14.3854 21.8672 14.6406C21.5859 14.8906 21.2266 15.1562 20.7891 15.4375C20.3568 15.7188 19.8385 16.0234 19.2344 16.3516C18.6302 16.6745 17.9271 17.0339 17.125 17.4297H23.2188V19.75H11.8906Z" fill="#9A81E6"/>
</g>
<defs>
<clipPath id="clip0_38_1137">
<rect width="36" height="36" fill="white"/>
</clipPath>
</defs>
</svg>
