<svg width="36" height="36" viewBox="0 0 36 36" fill="none" xmlns="http://www.w3.org/2000/svg">
<g clip-path="url(#clip0_38_1142)">
<path opacity="0.01" d="M0 0H36V36H0V0Z" fill="#202425"/>
<path d="M1.19995 8.4C1.19995 7.76348 1.45281 7.15303 1.90289 6.70294C2.35298 6.25286 2.96343 6 3.59995 6H32.4C33.0365 6 33.6469 6.25286 34.097 6.70294C34.5471 7.15303 34.7999 7.76348 34.7999 8.4V11.1504C34.7998 12.4874 34.4273 13.798 33.7243 14.9353C33.0213 16.0726 32.0155 16.9917 30.8196 17.5896L18.5364 23.7312C18.3698 23.8144 18.1861 23.8578 18 23.8578C17.8138 23.8578 17.6301 23.8144 17.4636 23.7312L5.18035 17.5896C3.98443 16.9917 2.97861 16.0726 2.27559 14.9353C1.57256 13.798 1.20011 12.4874 1.19995 11.1504V8.4Z" fill="white" fill-opacity="0.6"/>
<path d="M8.64004 2.40002C8.30564 2.40002 7.97493 2.46989 7.66911 2.60517C7.36329 2.74044 7.08912 2.93814 6.86417 3.18557C6.63922 3.433 6.46846 3.72471 6.36284 4.042C6.25723 4.35928 6.21908 4.69513 6.25085 5.02802L7.49045 18.0432C7.68961 20.1337 8.50748 22.1174 9.83956 23.7408C11.1716 25.3643 12.9575 26.5537 14.9688 27.1572C15.1483 27.208 15.3066 27.3153 15.4203 27.4631C15.534 27.611 15.597 27.7915 15.6 27.978C15.6 28.196 15.5134 28.4051 15.3593 28.5593C15.2051 28.7134 14.9961 28.8 14.778 28.8H9.60005C9.28485 28.8 8.97273 28.862 8.68152 28.9826C8.3903 29.1032 8.12569 29.28 7.9028 29.5029C7.67991 29.7257 7.5031 29.9903 7.38247 30.2815C7.26184 30.5727 7.19975 30.8848 7.19975 31.2C7.19975 31.5152 7.26184 31.8273 7.38247 32.1185C7.5031 32.4097 7.67991 32.6743 7.9028 32.8972C8.12569 33.12 8.3903 33.2968 8.68152 33.4174C8.97273 33.538 9.28485 33.6001 9.60005 33.6H26.4C26.7152 33.6001 27.0274 33.538 27.3186 33.4174C27.6098 33.2968 27.8744 33.12 28.0973 32.8972C28.3202 32.6743 28.497 32.4097 28.6176 32.1185C28.7382 31.8273 28.8003 31.5152 28.8003 31.2C28.8003 30.8848 28.7382 30.5727 28.6176 30.2815C28.497 29.9903 28.3202 29.7257 28.0973 29.5029C27.8744 29.28 27.6098 29.1032 27.3186 28.9826C27.0274 28.862 26.7152 28.8 26.4 28.8H21.222C21.004 28.8 20.795 28.7134 20.6408 28.5593C20.4866 28.4051 20.4 28.196 20.4 27.978C20.4 27.5952 20.664 27.2676 21.0312 27.1572C23.0429 26.5539 24.8289 25.3645 26.1612 23.7411C27.4935 22.1177 28.3116 20.1339 28.5108 18.0432L29.748 5.02802C29.7798 4.69544 29.7417 4.35989 29.6363 4.04285C29.5309 3.72581 29.3605 3.43428 29.1359 3.1869C28.9114 2.93952 28.6376 2.74176 28.3322 2.60626C28.0269 2.47076 27.6965 2.40052 27.3624 2.40002H8.64004Z" fill="white"/>
<path d="M19.9531 14.0234C20.4896 14.1432 20.9479 14.2891 21.3281 14.4609C21.7083 14.6276 22.0182 14.8229 22.2578 15.0469C22.4974 15.2656 22.6719 15.513 22.7812 15.7891C22.8906 16.0599 22.9453 16.3568 22.9453 16.6797C22.9453 17.2422 22.7917 17.7344 22.4844 18.1562C22.1823 18.5781 21.7604 18.9297 21.2188 19.2109C20.6823 19.487 20.0469 19.6927 19.3125 19.8281C18.5781 19.9688 17.7839 20.0391 16.9297 20.0391C16.3568 20.0391 15.8307 20.013 15.3516 19.9609C14.8724 19.9141 14.4297 19.8516 14.0234 19.7734C13.6224 19.6953 13.2526 19.6094 12.9141 19.5156C12.5755 19.4167 12.2604 19.3177 11.9688 19.2188V16.6484C12.2917 16.8203 12.6536 16.974 13.0547 17.1094C13.4609 17.2448 13.8776 17.362 14.3047 17.4609C14.737 17.5547 15.1719 17.6276 15.6094 17.6797C16.0469 17.7266 16.4609 17.75 16.8516 17.75C17.5599 17.75 18.125 17.7083 18.5469 17.625C18.9688 17.5365 19.2891 17.4271 19.5078 17.2969C19.7266 17.1615 19.8672 17.0182 19.9297 16.8672C19.9974 16.7161 20.0312 16.5729 20.0312 16.4375C20.0312 16.2083 19.9557 16.0104 19.8047 15.8438C19.6589 15.6771 19.3984 15.5391 19.0234 15.4297C18.6536 15.3203 18.151 15.2396 17.5156 15.1875C16.8802 15.1302 16.0781 15.099 15.1094 15.0938V12.9688C15.9896 12.9688 16.7188 12.9505 17.2969 12.9141C17.8802 12.8776 18.3464 12.8203 18.6953 12.7422C19.0443 12.6641 19.2891 12.5625 19.4297 12.4375C19.5755 12.3125 19.6484 12.1589 19.6484 11.9766C19.6484 11.9193 19.638 11.8568 19.6172 11.7891C19.6016 11.7214 19.5625 11.651 19.5 11.5781C19.4375 11.5052 19.3464 11.4349 19.2266 11.3672C19.1068 11.2995 18.9427 11.2396 18.7344 11.1875C18.526 11.1354 18.2682 11.0938 17.9609 11.0625C17.6536 11.0312 17.2839 11.0156 16.8516 11.0156C16.4453 11.0156 16.0312 11.0365 15.6094 11.0781C15.1927 11.1198 14.7839 11.1823 14.3828 11.2656C13.9818 11.349 13.5938 11.4505 13.2188 11.5703C12.8438 11.6901 12.4974 11.8307 12.1797 11.9922V9.42969C12.888 9.19531 13.6458 9.02344 14.4531 8.91406C15.2604 8.79948 16.0599 8.74219 16.8516 8.74219C17.6276 8.74219 18.3594 8.79427 19.0469 8.89844C19.7396 9.0026 20.3438 9.16927 20.8594 9.39844C21.3802 9.6224 21.7917 9.91667 22.0938 10.2812C22.3958 10.6406 22.5469 11.0781 22.5469 11.5938C22.5469 11.8698 22.4974 12.1328 22.3984 12.3828C22.3047 12.6276 22.1536 12.8542 21.9453 13.0625C21.737 13.2708 21.4688 13.4557 21.1406 13.6172C20.8125 13.7786 20.4167 13.9141 19.9531 14.0234Z" fill="#9A81E6"/>
</g>
<defs>
<clipPath id="clip0_38_1142">
<rect width="36" height="36" fill="white"/>
</clipPath>
</defs>
</svg>
