<svg width="36" height="36" viewBox="0 0 36 36" fill="none" xmlns="http://www.w3.org/2000/svg">
<g clip-path="url(#clip0_36_815)">
<path opacity="0.01" d="M0 0H36V36H0V0Z" fill="#202425"/>
<path d="M1.19995 8.4C1.19995 7.76348 1.45281 7.15303 1.90289 6.70294C2.35298 6.25286 2.96343 6 3.59995 6H32.4C33.0365 6 33.6469 6.25286 34.097 6.70294C34.5471 7.15303 34.7999 7.76348 34.7999 8.4V11.1504C34.7998 12.4874 34.4273 13.798 33.7243 14.9353C33.0213 16.0726 32.0155 16.9917 30.8196 17.5896L18.5364 23.7312C18.3698 23.8144 18.1861 23.8578 18 23.8578C17.8138 23.8578 17.6301 23.8144 17.4636 23.7312L5.18035 17.5896C3.98443 16.9917 2.97861 16.0726 2.27559 14.9353C1.57256 13.798 1.20011 12.4874 1.19995 11.1504V8.4Z" fill="white" fill-opacity="0.6"/>
<path d="M8.64004 2.40002C8.30564 2.40002 7.97493 2.46989 7.66911 2.60517C7.36329 2.74044 7.08912 2.93814 6.86417 3.18557C6.63922 3.433 6.46846 3.72471 6.36284 4.042C6.25723 4.35928 6.21908 4.69513 6.25085 5.02802L7.49045 18.0432C7.68961 20.1337 8.50748 22.1174 9.83956 23.7408C11.1716 25.3643 12.9575 26.5537 14.9688 27.1572C15.1483 27.208 15.3066 27.3153 15.4203 27.4631C15.534 27.611 15.597 27.7915 15.6 27.978C15.6 28.196 15.5134 28.4051 15.3593 28.5593C15.2051 28.7134 14.9961 28.8 14.778 28.8H9.60005C9.28485 28.8 8.97273 28.862 8.68152 28.9826C8.3903 29.1032 8.12569 29.28 7.9028 29.5029C7.67991 29.7257 7.5031 29.9903 7.38247 30.2815C7.26184 30.5727 7.19975 30.8848 7.19975 31.2C7.19975 31.5152 7.26184 31.8273 7.38247 32.1185C7.5031 32.4097 7.67991 32.6743 7.9028 32.8972C8.12569 33.12 8.3903 33.2968 8.68152 33.4174C8.97273 33.538 9.28485 33.6001 9.60005 33.6H26.4C26.7152 33.6001 27.0274 33.538 27.3186 33.4174C27.6098 33.2968 27.8744 33.12 28.0973 32.8972C28.3202 32.6743 28.497 32.4097 28.6176 32.1185C28.7382 31.8273 28.8003 31.5152 28.8003 31.2C28.8003 30.8848 28.7382 30.5727 28.6176 30.2815C28.497 29.9903 28.3202 29.7257 28.0973 29.5029C27.8744 29.28 27.6098 29.1032 27.3186 28.9826C27.0274 28.862 26.7152 28.8 26.4 28.8H21.222C21.004 28.8 20.795 28.7134 20.6408 28.5593C20.4866 28.4051 20.4 28.196 20.4 27.978C20.4 27.5952 20.664 27.2676 21.0312 27.1572C23.0429 26.5539 24.8289 25.3645 26.1612 23.7411C27.4935 22.1177 28.3116 20.1339 28.5108 18.0432L29.748 5.02802C29.7798 4.69544 29.7417 4.35989 29.6363 4.04285C29.5309 3.72581 29.3605 3.43428 29.1359 3.1869C28.9114 2.93952 28.6376 2.74176 28.3322 2.60626C28.0269 2.47076 27.6965 2.40052 27.3624 2.40002H8.64004Z" fill="white"/>
<path d="M16.6689 20.75V11.082L13.4258 12.0928V9.67578L16.6689 8.67383H19.9121V20.75H16.6689Z" fill="#9A81E6"/>
</g>
<defs>
<clipPath id="clip0_36_815">
<rect width="36" height="36" fill="white"/>
</clipPath>
</defs>
</svg>
