<svg width="18" height="18" viewBox="0 0 18 18" fill="none" xmlns="http://www.w3.org/2000/svg">
<path fill-rule="evenodd" clip-rule="evenodd" d="M2.84691 0H15.1735C15.6446 0 16.0372 0.0786023 16.5082 0.31441C17.0578 0.550218 17.3719 0.943232 17.5289 1.25764C17.5289 1.25764 17.5289 1.33625 17.6074 1.33625C17.843 1.72926 18 2.20087 18 2.75109C18 3.22271 17.9215 3.69432 17.6074 4.16594L9.8346 17.5284C9.67758 17.8428 9.36352 18 8.97096 18C8.6569 18 8.34285 17.8428 8.10731 17.5284L0.491505 4.16594C0.334478 3.85153 0.0204237 3.45852 0.0204237 2.82969C-0.0580897 2.27948 0.0989368 1.80786 0.334477 1.33625C0.570017 0.864629 0.962585 0.471615 1.51218 0.31441C1.98326 -3.0453e-07 2.53285 0 2.84691 0ZM8.02879 1.88646H2.84691C2.53285 1.88646 2.37583 1.88646 2.29731 1.96507C2.14029 2.04367 2.06177 2.12227 1.98326 2.27948C1.90475 2.35808 1.90475 2.51528 1.90475 2.67249C1.90475 2.75109 1.98326 2.82969 2.14029 3.1441L8.02879 13.3624V1.88646ZM9.91312 1.88646V13.441L15.8801 3.1441C15.9587 2.9869 15.9587 2.82969 15.9587 2.67249C15.9587 2.51528 15.9587 2.35808 15.8801 2.27948C15.8016 2.20087 15.8016 2.12227 15.7231 2.12227L15.6446 2.04367C15.4876 1.96507 15.3305 1.96507 15.095 1.96507H9.91312V1.88646Z" fill="#5812B1"/>
</svg>
