<svg width="32" height="32" viewBox="0 0 32 32" fill="none" xmlns="http://www.w3.org/2000/svg">
    <path
        d="M13.084 21.2053L12 25L10.916 21.2053C10.6358 20.2251 10.1105 19.3325 9.38968 18.6117C8.66882 17.8908 7.77619 17.3655 6.796 17.0853L3 16L6.79467 14.916C7.77485 14.6358 8.66749 14.1105 9.38835 13.3897C10.1092 12.6688 10.6345 11.7762 10.9147 10.796L12 7L13.084 10.7947C13.3642 11.7749 13.8895 12.6675 14.6103 13.3883C15.3312 14.1092 16.2238 14.6345 17.204 14.9147L21 16L17.2053 17.084C16.2251 17.3642 15.3325 17.8895 14.6117 18.6103C13.8908 19.3312 13.3655 20.2238 13.0853 21.204L13.084 21.2053ZM24.3453 11.62L24 13L23.6547 11.62C23.457 10.8288 23.048 10.1062 22.4715 9.52937C21.8949 8.95259 21.1725 8.54332 20.3813 8.34533L19 8L20.3813 7.65467C21.1725 7.45668 21.8949 7.04741 22.4715 6.47063C23.048 5.89384 23.457 5.17122 23.6547 4.38L24 3L24.3453 4.38C24.5431 5.17138 24.9523 5.89412 25.5291 6.47092C26.1059 7.04772 26.8286 7.45689 27.62 7.65467L29 8L27.62 8.34533C26.8286 8.54311 26.1059 8.95228 25.5291 9.52908C24.9523 10.1059 24.5431 10.8286 24.3453 11.62ZM22.5253 27.4227L22 29L21.4747 27.4227C21.3274 26.9808 21.0793 26.5794 20.7499 26.2501C20.4206 25.9207 20.0192 25.6726 19.5773 25.5253L18 25L19.5773 24.4747C20.0192 24.3274 20.4206 24.0793 20.7499 23.7499C21.0793 23.4206 21.3274 23.0192 21.4747 22.5773L22 21L22.5253 22.5773C22.6726 23.0192 22.9207 23.4206 23.2501 23.7499C23.5794 24.0793 23.9808 24.3274 24.4227 24.4747L26 25L24.4227 25.5253C23.9808 25.6726 23.5794 25.9207 23.2501 26.2501C22.9207 26.5794 22.6726 26.9808 22.5253 27.4227Z"
        stroke="url(#paint0_linear_9709_12508)" stroke-width="2" stroke-linecap="round"
        stroke-linejoin="round" />
    <defs>
        <linearGradient id="paint0_linear_9709_12508" x1="3" y1="8.26724" x2="36.3444" y2="17.5842"
            gradientUnits="userSpaceOnUse">
            <stop stop-color="#C668F9" />
            <stop offset="1" stop-color="#6381F2" />
        </linearGradient>
    </defs>
</svg>
    