<svg width="20" height="20" viewBox="0 0 20 20" fill="#FFDFA2" xmlns="http://www.w3.org/2000/svg">
    <path fill-rule="evenodd" clip-rule="evenodd"
        d="M14.25 3.50001C14.2499 2.80263 14.4928 2.12702 14.9369 1.58933C15.381 1.05163 15.9986 0.685457 16.6834 0.55375C17.3682 0.422042 18.0776 0.533033 18.6894 0.867641C19.3013 1.20225 19.7775 1.73957 20.0361 2.38722C20.2947 3.03487 20.3196 3.75238 20.1065 4.41641C19.8934 5.08044 19.4557 5.64949 18.8685 6.02572C18.2813 6.40195 17.5814 6.56187 16.8891 6.47797C16.1968 6.39407 15.5553 6.07161 15.075 5.56601L6.65399 10.245C6.78265 10.7401 6.78265 11.2599 6.65399 11.755L15.075 16.434C15.5782 15.9049 16.2572 15.5775 16.9846 15.5132C17.7119 15.4489 18.4378 15.6521 19.0261 16.0847C19.6144 16.5173 20.0247 17.1496 20.1801 17.8631C20.3355 18.5766 20.2253 19.3223 19.8702 19.9603C19.5151 20.5984 18.9395 21.0851 18.2513 21.3291C17.563 21.5731 16.8094 21.5577 16.1317 21.2858C15.454 21.0139 14.8987 20.5042 14.57 19.8521C14.2412 19.2001 14.1616 18.4506 14.346 17.744L5.92499 13.066C5.51184 13.501 4.97776 13.8021 4.39174 13.9305C3.80571 14.0589 3.19465 14.0086 2.63748 13.7862C2.08032 13.5638 1.60263 13.1794 1.26613 12.6827C0.929623 12.1861 0.749756 11.5999 0.749756 11C0.749756 10.4001 0.929623 9.81394 1.26613 9.31727C1.60263 8.82061 2.08032 8.43624 2.63748 8.21382C3.19465 7.99139 3.80571 7.94112 4.39174 8.0695C4.97776 8.19788 5.51184 8.49902 5.92499 8.93401L14.346 4.25501C14.2821 4.00844 14.2498 3.75473 14.25 3.50001Z"
    />
</svg>
    