<svg width="10" height="10" viewBox="0 0 10 10" fill="none" xmlns="http://www.w3.org/2000/svg">
    <g clip-path="url(#clip0_283_2644)">
    <path fill-rule="evenodd" clip-rule="evenodd" d="M0.9375 5C0.9375 2.75625 2.75625 0.9375 5 0.9375C7.24375 0.9375 9.0625 2.75625 9.0625 5C9.0625 7.24375 7.24375 9.0625 5 9.0625C2.75625 9.0625 0.9375 7.24375 0.9375 5ZM6.50417 4.24417C6.52917 4.21085 6.54726 4.17288 6.55737 4.13248C6.56748 4.09208 6.56942 4.05006 6.56306 4.0089C6.55671 3.96774 6.54219 3.92826 6.52036 3.89279C6.49853 3.85732 6.46982 3.82657 6.43594 3.80235C6.40206 3.77814 6.36367 3.76093 6.32305 3.75176C6.28242 3.74259 6.24037 3.74163 6.19937 3.74894C6.15836 3.75625 6.11924 3.77169 6.08428 3.79434C6.04933 3.81699 6.01926 3.8464 5.99583 3.88083L4.6475 5.76833L3.97083 5.09167C3.91159 5.03647 3.83324 5.00641 3.75228 5.00784C3.67132 5.00927 3.59408 5.04207 3.53682 5.09932C3.47957 5.15658 3.44677 5.23382 3.44534 5.31478C3.44392 5.39574 3.47397 5.47409 3.52917 5.53333L4.46667 6.47083C4.49875 6.50289 4.53742 6.52758 4.57999 6.54319C4.62257 6.55879 4.66804 6.56495 4.71323 6.56122C4.75843 6.5575 4.80227 6.54398 4.84172 6.5216C4.88117 6.49923 4.91527 6.46854 4.94167 6.43167L6.50417 4.24417Z" fill="#CFF469"/>
    </g>
    <defs>
    <clipPath id="clip0_283_2644">
    <rect width="10" height="10" fill="white"/>
    </clipPath>
    </defs>
    </svg>
    