<svg width="16" height="16" viewBox="0 0 16 16" fill="none" xmlns="http://www.w3.org/2000/svg">
    <path fill-rule="evenodd" clip-rule="evenodd"
        d="M5.73534 2.53267C6.01664 2.20815 6.36449 1.94797 6.75525 1.76979C7.14601 1.5916 7.57053 1.49959 8 1.5C8.90467 1.5 9.71534 1.9 10.2647 2.53267C10.6931 2.50207 11.1232 2.56406 11.5255 2.7144C11.9279 2.86475 12.2932 3.09994 12.5967 3.404C12.9006 3.70738 13.1357 4.07258 13.2861 4.47484C13.4364 4.87709 13.4985 5.30698 13.468 5.73533C13.7924 6.0167 14.0525 6.36457 14.2305 6.75533C14.4086 7.14609 14.5005 7.57059 14.5 8C14.5004 8.42947 14.4084 8.854 14.2302 9.24476C14.052 9.63552 13.7919 9.98336 13.4673 10.2647C13.4978 10.693 13.4357 11.1229 13.2854 11.5252C13.1351 11.9274 12.8999 12.2926 12.596 12.596C12.2926 12.8999 11.9274 13.1351 11.5252 13.2854C11.1229 13.4357 10.693 13.4978 10.2647 13.4673C9.98336 13.7919 9.63552 14.052 9.24476 14.2302C8.854 14.4084 8.42947 14.5004 8 14.5C7.57053 14.5004 7.14601 14.4084 6.75525 14.2302C6.36449 14.052 6.01664 13.7919 5.73534 13.4673C5.30692 13.498 4.87692 13.4361 4.47454 13.2859C4.07216 13.1357 3.70682 12.9006 3.40334 12.5967C3.09931 12.2932 2.86415 11.9279 2.7138 11.5255C2.56346 11.1231 2.50145 10.6931 2.532 10.2647C2.20761 9.9833 1.94755 9.63543 1.76949 9.24467C1.59142 8.85392 1.49951 8.42942 1.5 8C1.5 7.09534 1.9 6.28467 2.53267 5.73533C2.50217 5.30698 2.5642 4.87708 2.71455 4.47482C2.86489 4.07255 3.10003 3.70735 3.404 3.404C3.70735 3.10003 4.07255 2.86489 4.47482 2.71455C4.87708 2.5642 5.30698 2.50217 5.73534 2.53267ZM10.4067 6.79067C10.4467 6.73737 10.4756 6.67661 10.4918 6.61197C10.508 6.54732 10.5111 6.4801 10.5009 6.41424C10.4907 6.34838 10.4675 6.28522 10.4326 6.22847C10.3976 6.17172 10.3517 6.12252 10.2975 6.08377C10.2433 6.04502 10.1819 6.0175 10.1169 6.00282C10.0519 5.98814 9.98459 5.98661 9.91899 5.99831C9.85338 6.01001 9.79078 6.0347 9.73486 6.07094C9.67893 6.10718 9.63082 6.15423 9.59334 6.20934L7.436 9.22934L6.35334 8.14667C6.25855 8.05835 6.13319 8.01027 6.00365 8.01255C5.87412 8.01484 5.75053 8.06731 5.65892 8.15892C5.56731 8.25053 5.51484 8.37412 5.51255 8.50365C5.51027 8.63319 5.55835 8.75855 5.64667 8.85334L7.14667 10.3533C7.198 10.4046 7.25987 10.4441 7.32799 10.4691C7.39612 10.4941 7.46886 10.5039 7.54118 10.498C7.61349 10.492 7.68364 10.4704 7.74676 10.4346C7.80987 10.3988 7.86444 10.3497 7.90667 10.2907L10.4067 6.79067Z"
        fill="white" />
</svg>
    