<svg width="24" height="24" viewBox="0 0 24 24" fill="none" xmlns="http://www.w3.org/2000/svg">
    <path fill-rule="evenodd" clip-rule="evenodd"
        d="M12.963 2.28584C12.9027 2.20508 12.8268 2.13729 12.7398 2.08652C12.6527 2.03575 12.5564 2.00304 12.4564 1.99035C12.3564 1.97766 12.2549 1.98524 12.158 2.01264C12.061 2.04004 11.9705 2.0867 11.892 2.14984C9.97555 3.68841 8.71142 5.89447 8.35301 8.32584C7.69618 7.84953 7.12046 7.27043 6.64801 6.61084C6.58384 6.52114 6.50068 6.4467 6.40445 6.39281C6.30822 6.33893 6.20129 6.30693 6.09128 6.2991C5.98127 6.29127 5.87088 6.3078 5.76799 6.34751C5.6651 6.38722 5.57223 6.44913 5.49601 6.52883C4.17533 7.91039 3.32875 9.67652 3.07891 11.5714C2.82908 13.4662 3.18895 15.3914 4.1064 17.0681C5.02385 18.7447 6.45125 20.0858 8.18181 20.897C9.91238 21.7082 11.8563 21.9474 13.7319 21.58C15.6075 21.2126 17.3174 20.2576 18.614 18.8534C19.9106 17.4492 20.7265 15.6687 20.9435 13.7698C21.1605 11.8709 20.7674 9.9522 19.8211 8.29166C18.8747 6.63113 17.4243 5.31497 15.68 4.53384C14.6077 4.0124 13.676 3.24154 12.963 2.28584ZM15.75 14.2498C15.7496 14.7923 15.6316 15.3282 15.404 15.8205C15.1764 16.3129 14.8448 16.7501 14.4318 17.1018C14.0189 17.4536 13.5346 17.7116 13.0123 17.858C12.49 18.0045 11.9422 18.0358 11.4066 17.95C10.871 17.8642 10.3604 17.6632 9.91002 17.3608C9.45965 17.0585 9.08022 16.6621 8.79791 16.1989C8.5156 15.7358 8.33714 15.2168 8.27483 14.678C8.21252 14.1392 8.26785 13.5932 8.43701 13.0778C9.06501 13.5428 9.78701 13.8878 10.57 14.0778C10.7823 12.7088 11.4626 11.4557 12.495 10.5318C13.396 10.6518 14.2228 11.095 14.8215 11.7789C15.4202 12.4628 15.7502 13.3409 15.75 14.2498Z"
        fill="white" />
</svg>
    