<svg width="32" height="32" viewBox="0 0 32 32" fill="#12172F" xmlns="http://www.w3.org/2000/svg">
    <path
        d="M15.5204 29.3828H9.77732C9.31992 29.3828 8.94009 29.0119 8.90529 28.5327L8.12476 17.7791H15.5206L15.5204 29.3828ZM20.0963 17.7781H15.9022V29.3828H20.0971L20.0963 17.7781ZM20.4782 17.7781V29.3828H26.2204C26.6778 29.3828 27.0577 29.0119 27.0925 28.5327L27.873 17.7791L20.4782 17.7781Z"
    />
    <path d="M16.696 11.4658L20.7472 12.5513L19.6218 16.7544L15.5698 15.6687L16.696 11.4658Z"
    />
    <path
        d="M8.25471 9.20393L16.3272 11.3669L15.1998 15.5704L7.45678 13.4957C7.15136 13.4138 6.95642 13.1156 7.00509 12.8033L7.48262 9.70732C7.53892 9.34359 7.89935 9.10871 8.25471 9.20393Z"
    />
    <path
        d="M21.116 12.6501L29.1885 14.8131C29.5439 14.9083 29.7375 15.2918 29.6047 15.634L28.4702 18.554C28.3552 18.8485 28.0373 19.0094 27.7329 18.9278L19.9899 16.853L21.116 12.6501Z"
    />
    <path
        d="M20.8344 12.1794C20.8433 12.1272 20.848 12.0749 20.8518 12.0224C25.1851 13.8413 28.7809 13.237 28.7809 13.237L27.9105 12.3594L28.3326 11.0725C25.6578 12.1809 22.3757 11.9593 20.8574 11.7707C20.8553 11.7094 20.8501 11.6483 20.8427 11.5876C20.8776 11.5877 20.9133 11.5891 20.9485 11.5882C21.2517 11.5902 21.5557 11.6006 21.8643 11.6205C22.4795 11.6525 23.1085 11.7253 23.7679 11.7425L23.7795 11.7425C24.4361 11.7454 25.1199 11.7484 25.8948 11.4116C26.088 11.3203 26.2909 11.2048 26.4963 11.0375C26.6955 10.8665 26.9012 10.6406 27.0573 10.3386C27.2109 10.038 27.2899 9.67004 27.2862 9.33449C27.2844 8.99535 27.2 8.70716 27.1022 8.45347C27.001 8.1896 26.8264 7.89988 26.562 7.6458C26.2981 7.3898 25.9424 7.19978 25.6127 7.12791C25.2813 7.04733 24.985 7.0503 24.7332 7.09093C24.4801 7.12911 24.2634 7.19252 24.07 7.27658C23.3064 7.60622 22.8227 8.09735 22.3721 8.58807C21.9268 9.08228 21.5524 9.60369 21.1598 10.0853C20.9649 10.3285 20.7699 10.5645 20.5726 10.7978L20.5711 10.7994C20.3022 10.3393 19.8601 9.97996 19.3049 9.83121C18.7488 9.6822 18.1873 9.7726 17.7241 10.0376L17.7236 10.0354C17.6691 9.73565 17.6175 9.43258 17.5701 9.12547C17.4697 8.51286 17.403 7.87426 17.2649 7.22579C17.1188 6.57621 16.9474 5.90956 16.4519 5.24254C16.3262 5.07401 16.1722 4.90717 15.9715 4.74943C15.7745 4.58958 15.5214 4.4353 15.1936 4.34127C14.8728 4.23987 14.4701 4.22153 14.1142 4.3125C13.7599 4.4018 13.461 4.56055 13.2412 4.73943C13.0287 4.90998 12.8141 5.11912 12.6388 5.40872C12.4665 5.69816 12.3539 6.05708 12.3325 6.39415C12.3088 7.08572 12.5637 7.56371 12.8027 7.90877C13.3063 8.59181 13.903 8.93135 14.4757 9.25729L14.4808 9.26019C15.0604 9.57504 15.643 9.82482 16.1931 10.104C16.4706 10.2401 16.74 10.3833 17.0038 10.5322L17.0957 10.5847C17.059 10.6335 17.0239 10.6838 16.9914 10.7358C15.5813 10.1398 12.6282 8.69069 10.8669 6.39362L10.5889 7.71911L9.39629 8.04395C9.39629 8.04395 12.2066 10.3637 16.8698 10.9554L16.8697 10.9554C16.8477 11.0031 16.8257 11.0507 16.8063 11.1L20.8344 12.1794Z"
    />
    <path d="M3 5L3.6364 7.3636L6 8L3.6364 8.6364L3 11L2.3636 8.6364L0 8L2.3636 7.3636L3 5Z"
    />
    <path
        d="M7.87939 0.684002L8.817 2.0196L10.4428 1.87935L9.10721 2.81696L9.24747 4.44277L8.30985 3.10717L6.68404 3.24743L8.01964 2.30982L7.87939 0.684002Z"
    />
</svg>
    