<svg width="28" height="28" viewBox="0 0 28 28" fill="white" xmlns="http://www.w3.org/2000/svg">
    <path
        d="M11.5204 25.3828H5.77736C5.31997 25.3828 4.94014 25.0119 4.90534 24.5327L4.1248 13.7791H11.5206L11.5204 25.3828ZM16.0964 13.7781H11.9022V25.3828H16.0971L16.0964 13.7781ZM16.4782 13.7781V25.3828H22.2205C22.6779 25.3828 23.0577 25.0119 23.0925 24.5327L23.873 13.7791L16.4782 13.7781ZM16.0964 9.04505H11.9022V13.3962H16.0971L16.0964 9.04505ZM11.9022 13.3962H16.0971L16.0964 9.04505H11.9022V13.3962ZM11.5204 9.04505H3.16318C2.79528 9.04505 2.50793 9.36522 2.54769 9.73113L2.88774 12.8452C2.92154 13.1594 3.18703 13.3971 3.50323 13.3971H11.5194L11.5204 9.04505ZM24.8354 9.04505H16.4782V13.3962H24.4943C24.8095 13.3962 25.075 13.1586 25.1098 12.8444L25.4499 9.73029C25.4897 9.36537 25.2033 9.04505 24.8354 9.04505ZM16.0605 8.50712C16.0704 8.55882 16.0794 8.61053 16.0844 8.66323H11.9141C11.9201 8.61053 11.929 8.55882 11.938 8.50712C7.28058 9.14249 3.96563 7.62914 3.96563 7.62914L5.03353 7.0067L4.95895 5.65443C7.25483 7.41736 10.4823 8.05273 11.9987 8.26352C12.0166 8.20485 12.0374 8.14718 12.0603 8.09051C12.0265 8.08156 11.9917 8.07261 11.9579 8.06366C11.6646 7.98809 11.3673 7.91948 11.064 7.85982C10.4605 7.73255 9.83305 7.64207 9.1917 7.48796C8.55236 7.32091 7.88616 7.14791 7.22096 6.61693C6.90079 6.34548 6.53091 5.94974 6.3748 5.2756C6.30818 4.94449 6.32409 4.56865 6.41557 4.24449C6.51003 3.91936 6.66315 3.66181 6.82424 3.44209C6.99029 3.2124 7.23788 2.98172 7.55705 2.80374C7.87722 2.62377 8.27097 2.53725 8.60705 2.55217C8.94809 2.55814 9.23247 2.64166 9.46416 2.74507C9.69882 2.8455 9.89072 2.9668 10.0558 3.09706C10.7071 3.6131 11.0451 4.21268 11.3544 4.80231C11.6556 5.39293 11.8853 5.99251 12.1409 6.55826C12.2661 6.84264 12.3944 7.12203 12.5247 7.39748L12.5257 7.39946C12.9045 7.0236 13.4235 6.79095 13.9992 6.79095C14.574 6.79095 15.094 7.02362 15.4728 7.39847L15.4738 7.39648C15.6041 7.12007 15.7313 6.84165 15.8566 6.55628C16.1112 5.98951 16.3379 5.38896 16.6402 4.79633C16.9484 4.2057 17.2885 3.60612 17.9407 3.09008C18.1058 2.95883 18.2987 2.8415 18.5333 2.73909C18.766 2.63469 19.0514 2.55514 19.3924 2.54719C19.7295 2.53128 20.1223 2.62275 20.4434 2.80173C20.7646 2.97872 21.0082 3.21338 21.1742 3.44207C21.3343 3.66181 21.4904 3.91835 21.5799 4.24546C21.6704 4.56861 21.6893 4.94447 21.6187 5.27459C21.5461 5.6067 21.4059 5.87814 21.2578 6.09491C21.1027 6.30969 20.9366 6.47375 20.7735 6.61195C20.1083 7.14092 19.4431 7.31393 18.8048 7.48198C18.1635 7.6361 17.537 7.72857 16.9345 7.85685C16.6312 7.9175 16.3349 7.98611 16.0416 8.06267C16.0078 8.07262 15.973 8.08057 15.9392 8.08952C15.962 8.1462 15.9829 8.20387 16.0008 8.26253C17.5161 8.05174 20.7438 7.41637 23.0405 5.65344L22.9659 7.00571L24.0338 7.62815C24.0328 7.62915 20.7169 9.14249 16.0605 8.50712ZM12.139 7.91947C12.2076 7.78823 12.2911 7.66592 12.3846 7.55257C12.3736 7.53468 12.3637 7.51678 12.3527 7.49888C12.1966 7.24433 12.0326 6.99376 11.8605 6.74917C11.5175 6.25896 11.1476 5.78767 10.7459 5.34817C10.3432 4.91267 9.90671 4.49603 9.40658 4.20371C9.158 4.06351 8.88555 3.95314 8.62306 3.9601C8.35956 3.9601 8.13385 4.10627 7.9698 4.32204C7.79778 4.53681 7.70232 4.79634 7.74409 5.05485C7.78286 5.31436 7.94096 5.55898 8.13285 5.76977C8.52562 6.19237 9.03769 6.51452 9.55673 6.80088C10.0797 7.08625 10.6276 7.33085 11.1824 7.55658C11.4598 7.66894 11.7402 7.77632 12.0226 7.87873L12.139 7.91947ZM15.6448 7.49889C15.6339 7.51679 15.6239 7.53469 15.613 7.55258C15.7065 7.66593 15.79 7.78824 15.8586 7.91948L15.9749 7.87772C16.2573 7.77431 16.5367 7.66792 16.8151 7.55557C17.37 7.32986 17.9178 7.08525 18.4408 6.79988C18.9599 6.51351 19.4719 6.19136 19.8647 5.76876C20.0566 5.55797 20.2147 5.31336 20.2535 5.05385C20.2952 4.79533 20.1998 4.5358 20.0278 4.32104C19.8617 4.10626 19.638 3.9591 19.3745 3.9591C19.112 3.95214 18.8396 4.06251 18.591 4.20271C18.0909 4.49503 17.6553 4.91167 17.2516 5.34717C16.8499 5.78667 16.4801 6.25895 16.137 6.74816C15.966 6.99376 15.8009 7.24434 15.6448 7.49889Z"
    />
</svg>
    