<svg xmlns="http://www.w3.org/2000/svg" width="57" height="43" viewBox="0 0 57 43" fill="none">
    <path
        d="M41.1543 7.48102L40.9977 7.38092C40.2445 7.25424 39.6416 6.99619 39.2658 6.21423C38.5971 4.82234 37.7217 3.54148 36.8495 2.26845C35.9772 0.99542 35.1269 -0.265088 34.2985 -1.55063C34.242 -1.63744 34.2036 -1.73481 34.1858 -1.83684C34.0762 -2.57188 33.716 -3.20526 33.3856 -3.85429C33.0003 -4.60497 32.4695 -5.26183 32.0623 -6H0.168442C0.212681 -5.82335 0.289112 -5.65635 0.393932 -5.50736C1.07043 -4.25622 1.76885 -3.03011 2.41873 -1.77115C3.31289 -0.0398889 4.15851 1.71796 5.04327 3.45392C5.5804 4.50644 6.15511 5.54019 6.71416 6.58176L7.32801 7.62489C7.52375 7.48101 7.75081 7.51698 7.97004 7.51698H38.8602C39.081 7.51698 39.3112 7.48414 39.4584 7.70934C39.5163 7.53105 39.5758 7.38405 39.7841 7.59205C39.8592 7.66712 39.9203 7.79223 40.066 7.75939C40.2951 7.67562 40.5407 7.64618 40.7832 7.67338C40.9429 7.67494 41.0932 7.66869 41.1543 7.48102Z"
        fill="#F36EBD" />
    <path
        d="M40.0655 7.75939C39.9199 7.79224 39.8588 7.66712 39.7836 7.59205C39.5754 7.38405 39.5159 7.53106 39.4579 7.70935C38.9067 9.19351 38.4588 10.7183 37.7714 12.154C37.0056 13.7555 35.9376 15.0817 34.3529 15.9371C33.7798 16.2499 33.1894 16.533 32.5098 16.5048C31.9805 16.4845 31.6767 16.1592 31.6641 15.6306C31.6516 15.0238 31.9492 14.5593 32.35 14.1496C32.8503 13.6772 33.3981 13.258 33.9849 12.8984C34.1023 12.8187 34.2699 12.778 34.3294 12.5622C34.1258 12.5466 33.9473 12.5262 33.7704 12.5231C32.4409 12.4903 31.1082 12.581 29.7866 12.5559C26.4401 12.4949 23.612 13.6272 21.3883 16.1405C20.5458 17.0929 19.7519 18.111 19.6658 19.4716C19.6407 19.8344 19.6125 20.1988 19.6 20.5664C19.5201 22.9122 19.7989 25.1956 20.8074 27.3428C21.999 29.8826 23.9643 31.6608 26.4307 32.926C26.9616 33.1981 27.505 33.4468 28.0421 33.708C29.3904 34.2507 30.7856 34.6573 32.1653 35.1155C33.0782 35.4158 33.9833 35.7411 34.9166 35.9741C35.0466 35.9741 35.1766 35.9741 35.305 35.9851C37.0814 36.1842 38.878 36.1035 40.6293 35.7458C42.9124 35.25 44.9685 34.3179 46.63 32.6179C48.1418 31.069 49.0161 29.0095 49.0796 26.8473C49.1431 24.6852 48.3913 22.5781 46.973 20.9433C46.5878 20.4869 46.1346 20.0923 45.6294 19.7734C45.7171 20.3865 45.786 20.9229 45.8721 21.4578C46.0073 22.3108 45.8902 23.1848 45.5353 23.9723C45.1803 24.7599 44.6029 25.4269 43.8739 25.8915C43.6206 26.046 43.3347 26.1395 43.0389 26.1646C42.7431 26.1896 42.4455 26.1456 42.1697 26.0358C41.894 25.9261 41.6476 25.7538 41.45 25.5325C41.2525 25.3112 41.1093 25.047 41.0317 24.7608C40.8108 23.9892 40.8868 23.1631 41.2447 22.4446C41.6738 21.5407 42.1232 20.6445 42.5554 19.7422C43.5137 17.7831 43.7792 15.5577 43.3086 13.4286C42.8357 11.1906 41.633 9.37023 40.0655 7.75939ZM38.534 25.2221C39.3702 26.5812 39.6396 27.9512 39.2403 29.4041C39.0555 30.0911 38.7355 30.7344 38.2989 31.2965C37.8623 31.8586 37.3179 32.328 36.6975 32.6775C36.0771 33.027 35.3932 33.2494 34.6857 33.3319C33.9782 33.4143 33.2614 33.355 32.5771 33.1575C30.7969 32.646 29.1219 31.8226 27.6302 30.7256C26.77 30.1278 26.086 29.3107 25.6493 28.3594C24.9916 26.8768 25.0636 25.4849 26.1786 24.2197C26.7938 23.5273 27.5096 22.931 28.302 22.4509C30.5977 21.0433 33.0766 20.0315 35.6104 19.1494C35.745 19.1025 35.8766 18.993 36.0802 19.0775C35.5766 19.7973 35.1204 20.549 34.7146 21.328C33.8894 22.9028 33.3616 24.5278 33.6968 26.3482C33.9395 27.6666 34.735 28.3531 36.0206 28.2249C36.7159 28.1561 37.2139 27.7557 37.6226 27.2146C38.0517 26.65 38.2991 25.9932 38.534 25.2221Z"
        fill="#22306D" />
    <path
        d="M40.0657 7.7594C41.6317 9.37024 42.8359 11.1859 43.3088 13.4255C43.7794 15.5545 43.5139 17.78 42.5556 19.739C42.1234 20.6414 41.674 21.5375 41.2449 22.4415C40.887 23.16 40.811 23.9861 41.0319 24.7577C41.1091 25.0441 41.2521 25.3086 41.4494 25.5303C41.6468 25.752 41.8932 25.9247 42.169 26.0347C42.4448 26.1448 42.7425 26.1891 43.0385 26.1642C43.3345 26.1394 43.6206 26.046 43.8741 25.8915C44.6031 25.4253 45.1798 24.7566 45.5334 23.9675C45.887 23.1785 46.002 22.3034 45.8645 21.45C45.783 20.9151 45.7079 20.3787 45.6217 19.7656C46.127 20.0845 46.5801 20.4791 46.9653 20.9354C48.3836 22.5702 49.1355 24.6774 49.072 26.8395C49.0085 29.0017 48.1342 31.0612 46.6224 32.6101C44.9609 34.3054 42.9048 35.2375 40.6216 35.738C38.8704 36.0956 37.0737 36.1764 35.2974 35.9772C35.169 35.9647 35.039 35.9694 34.909 35.9663C36.0569 36.4355 37.2486 36.7592 38.423 37.1377C42.5853 38.4816 46.7503 39.8167 50.9178 41.1429C52.7766 41.7372 54.6401 42.3205 56.5005 42.9085C56.9984 43.0649 57 43.0649 57 42.552C57 32.6951 57 22.8377 57 12.9798C57 12.6951 56.9389 12.5403 56.6398 12.4449C52.7249 11.1938 48.81 9.94264 44.8951 8.6915C43.6424 8.2927 42.4225 7.82039 41.1525 7.49353C41.0914 7.6812 40.9411 7.68746 40.7814 7.6859C40.5403 7.65495 40.2954 7.6801 40.0657 7.7594Z"
        fill="#F36EBD" />
    <path
        d="M28.0345 33.697C27.4974 33.4374 26.954 33.1888 26.4232 32.9151C23.9568 31.6499 21.9915 29.8717 20.7998 27.3319C19.7913 25.1846 19.5126 22.8997 19.5925 20.5554C19.605 20.191 19.6332 19.8266 19.6582 19.4607C19.7522 18.1 20.5461 17.0819 21.3808 16.1295C23.6044 13.6163 26.4326 12.484 29.779 12.545C31.1054 12.57 32.4412 12.4793 33.7628 12.5122C33.9398 12.5122 34.1183 12.5356 34.3219 12.5513C34.2624 12.7671 34.0948 12.8077 33.9774 12.8875C33.3906 13.247 32.8427 13.6663 32.3425 14.1386C31.9416 14.5484 31.6441 15.0129 31.6566 15.6197C31.6691 16.1483 31.9698 16.4736 32.5022 16.4939C33.1818 16.522 33.7722 16.2359 34.3454 15.9262C35.9301 15.0707 36.9981 13.7367 37.7638 12.1431C38.4513 10.7074 38.8992 9.18256 39.4504 7.6984C39.3032 7.4732 39.073 7.50604 38.8522 7.50604H7.96677C7.74754 7.50604 7.52046 7.47007 7.32471 7.61395C8.42089 9.59075 9.51707 11.5722 10.6258 13.5443C12.8056 17.4213 15.0355 21.2701 17.2686 25.1174C19.6692 29.2492 23.1159 32.0971 27.654 33.6173C27.7726 33.674 27.9031 33.7014 28.0345 33.697Z"
        fill="#F36EBD" />
    <path
        d="M38.5341 25.2221C38.2945 25.9931 38.0471 26.65 37.6133 27.2146C37.2046 27.7479 36.7066 28.1529 36.0113 28.2249C34.7257 28.3531 33.9301 27.6665 33.6874 26.3481C33.3523 24.5277 33.88 22.9075 34.7053 21.328C35.1111 20.549 35.5673 19.7973 36.0708 19.0775C35.8719 18.9977 35.7404 19.1025 35.601 19.1494C33.0673 20.0315 30.59 21.0418 28.2927 22.4509C27.5019 22.9314 26.7877 23.5276 26.174 24.2197C25.059 25.4849 24.987 26.8783 25.6447 28.3594C26.0814 29.3107 26.7654 30.1278 27.6256 30.7256C29.1205 31.8237 30.7994 32.6472 32.5834 33.1575C33.2677 33.355 33.9845 33.4142 34.692 33.3318C35.3995 33.2494 36.0834 33.027 36.7038 32.6775C37.3242 32.328 37.8687 31.8585 38.3053 31.2965C38.7418 30.7344 39.0619 30.0911 39.2466 29.4041C39.6443 27.9512 39.375 26.5812 38.5341 25.2221Z"
        fill="#F36EBD" />
</svg>