<svg width="25" height="24" viewBox="0 0 25 24" fill="none" xmlns="http://www.w3.org/2000/svg">
    <path
        d="M17 18.75H8.00001M17 18.75C17.7957 18.75 18.5587 19.0661 19.1213 19.6287C19.6839 20.1913 20 20.9544 20 21.75H5.00001C5.00001 20.9544 5.31609 20.1913 5.87869 19.6287C6.4413 19.0661 7.20437 18.75 8.00001 18.75M17 18.75V15.375C17 14.754 16.497 14.25 15.875 14.25H15.004M8.00001 18.75V15.375C8.00001 14.754 8.50401 14.25 9.12501 14.25H9.99701M15.004 14.25H9.99701M15.004 14.25C14.4423 13.28 14.1067 12.1957 14.022 11.078M9.99701 14.25C10.5583 13.2799 10.8937 12.1956 10.978 11.078M14.022 11.078C15.03 10.8454 15.9697 10.3834 16.77 9.728M14.022 11.078C13.0205 11.309 11.9795 11.309 10.978 11.078M10.978 11.078C9.97041 10.8452 9.03005 10.3833 8.23001 9.728M5.75001 4.236C4.76801 4.379 3.79601 4.553 2.83401 4.756C3.05701 6.06479 3.70759 7.26273 4.68396 8.16238C5.66033 9.06202 6.90739 9.61261 8.23001 9.728M5.75001 4.236V4.5C5.75001 6.608 6.71601 8.49 8.23001 9.728M5.75001 4.236V2.721C7.95601 2.41 10.21 2.25 12.5 2.25C14.791 2.25 17.045 2.41 19.25 2.72V4.236M19.25 4.236V4.5C19.25 6.608 18.284 8.49 16.77 9.728M19.25 4.236C20.2273 4.3782 21.1998 4.55163 22.166 4.756C21.9431 6.06464 21.2926 7.26246 20.3165 8.16209C19.3403 9.06172 18.0925 9.6124 16.77 9.728"
        stroke="white" stroke-width="1.5" stroke-linecap="round"
        stroke-linejoin="round" />
</svg>
    