<svg width="20" height="20" viewBox="0 0 20 20" fill="white" xmlns="http://www.w3.org/2000/svg">
    <path fill-rule="evenodd" clip-rule="evenodd"
        d="M10 1.25C8.83968 1.25 7.72688 1.71094 6.90641 2.53141C6.08594 3.35188 5.625 4.46468 5.625 5.625V8.125C4.96196 8.125 4.32607 8.38839 3.85723 8.85723C3.38839 9.32607 3.125 9.96196 3.125 10.625V16.25C3.125 16.913 3.38839 17.5489 3.85723 18.0178C4.32607 18.4866 4.96196 18.75 5.625 18.75H14.375C15.038 18.75 15.6739 18.4866 16.1428 18.0178C16.6116 17.5489 16.875 16.913 16.875 16.25V10.625C16.875 9.96196 16.6116 9.32607 16.1428 8.85723C15.6739 8.38839 15.038 8.125 14.375 8.125V5.625C14.375 3.20833 12.4167 1.25 10 1.25ZM13.125 8.125V5.625C13.125 4.7962 12.7958 4.00134 12.2097 3.41529C11.6237 2.82924 10.8288 2.5 10 2.5C9.1712 2.5 8.37634 2.82924 7.79029 3.41529C7.20424 4.00134 6.875 4.7962 6.875 5.625V8.125H13.125Z"
    />
</svg>
    