<svg width="32" height="32" viewBox="0 0 32 32" fill="none" xmlns="http://www.w3.org/2000/svg">
<g filter="url(#filter0_d_10743_3434)">
<path fill-rule="evenodd" clip-rule="evenodd" d="M30.9333 16C30.9333 24.2475 24.2475 30.9333 16 30.9333C7.75253 30.9333 1.06665 24.2475 1.06665 16C1.06665 7.75253 7.75253 1.06665 16 1.06665C24.2475 1.06665 30.9333 7.75253 30.9333 16ZM13.4476 7.51998C13.4476 7.37271 13.56 7.25332 13.6988 7.25332H14.2011C14.3397 7.25332 14.4523 7.37271 14.4523 7.51998V9.51998H15.8964C16.0351 9.51998 16.1475 9.63934 16.1475 9.78665V10.32C16.1475 10.4673 16.0351 10.5867 15.8964 10.5867H14.4523V15.2533H14.4546C14.5031 16.2452 15.2679 17.0358 16.2103 17.053V17.0533H16.2732C16.4118 17.0533 16.5243 17.1727 16.5243 17.32V17.6533C16.5243 17.8006 16.4118 17.92 16.2732 17.92H16.1475V17.9182C16.1163 17.9193 16.0849 17.92 16.0533 17.92C14.6457 17.92 13.4989 16.735 13.4493 15.2533H13.4476V10.5867H11.8779C11.7391 10.5867 11.6267 10.4673 11.6267 10.32V9.78665C11.6267 9.63934 11.7391 9.51998 11.8779 9.51998H13.4476V7.51998ZM16.9467 12.32H15.5025C15.3638 12.32 15.2514 12.4393 15.2514 12.5867V13.12C15.2514 13.2673 15.3638 13.3867 15.5025 13.3867H17.135V13.387C18.0742 13.4047 18.8304 14.2185 18.8304 15.2199C18.8304 16.2214 18.0742 17.0353 17.135 17.053V17.0533C16.9964 17.0533 16.8839 17.1727 16.8839 17.32V17.6533C16.8839 17.8006 16.9964 17.92 17.135 17.92C18.5569 17.92 19.7094 16.7111 19.7094 15.2199C19.7094 14.0813 19.0374 13.1073 18.0866 12.7104C18.4278 12.375 18.642 11.8912 18.642 11.3533C18.642 10.3408 17.883 9.51998 16.9467 9.51998H16.7583C16.6196 9.51998 16.5072 9.63934 16.5072 9.78665V10.2533C16.5072 10.4006 16.6196 10.52 16.7583 10.52H16.9467V10.5222C17.4029 10.5552 17.763 10.9445 17.763 11.4199C17.763 11.8955 17.4029 12.2848 16.9467 12.3177V12.32ZM10.1425 21.1596V23.7867H10.5842V21.1596H11.8779V20.7804H8.85082V21.1596H10.1425ZM14.1029 23.4221H12.7049V22.4242H14.0529C14.2098 22.4242 14.3425 22.4422 14.4509 22.4783C14.5591 22.5144 14.6411 22.5693 14.6966 22.6429C14.7536 22.7165 14.7821 22.8088 14.7821 22.92V22.9241C14.7821 23.0867 14.7231 23.2102 14.605 23.295C14.4883 23.3797 14.3209 23.4221 14.1029 23.4221ZM12.7049 22.0763H13.9508C14.1688 22.0763 14.3383 22.0353 14.4592 21.9533C14.58 21.87 14.6404 21.7526 14.6404 21.6013V21.5971C14.6404 21.4484 14.5897 21.336 14.4883 21.2596C14.3884 21.1831 14.2501 21.1449 14.0737 21.1449H12.7049V22.0763ZM12.7049 20.7804H14.18C14.3591 20.7804 14.5161 20.8116 14.6509 20.8741C14.787 20.9366 14.8925 21.0242 14.9675 21.1366C15.0438 21.2492 15.0821 21.3811 15.0821 21.5325V21.5366C15.0821 21.6436 15.0584 21.7436 15.0112 21.8367C14.964 21.9297 14.8974 22.0088 14.8112 22.0741C14.7265 22.138 14.6272 22.1811 14.5133 22.2033V22.2096C14.662 22.2276 14.7897 22.27 14.8966 22.3366C15.005 22.4019 15.0883 22.4866 15.1467 22.5908C15.205 22.695 15.2341 22.8137 15.2341 22.9471V22.9512C15.2341 23.1249 15.1918 23.2741 15.1071 23.3991C15.0238 23.5241 14.9029 23.62 14.7445 23.6866C14.5876 23.7534 14.3995 23.7867 14.18 23.7867H12.7049H12.4863H12.2654V20.7804H12.4863H12.7049ZM16.1196 23.695C16.3168 23.788 16.5453 23.8345 16.805 23.8345C17.0661 23.8345 17.2952 23.788 17.4925 23.695C17.6897 23.6019 17.8438 23.4707 17.955 23.3012C18.0661 23.1318 18.1217 22.9311 18.1217 22.6992V22.695C18.1217 22.463 18.0661 22.263 17.955 22.095C17.8438 21.9255 17.6891 21.7943 17.4904 21.7012C17.2932 21.6082 17.0647 21.5617 16.805 21.5617C16.5453 21.5617 16.3168 21.6082 16.1196 21.7012C15.9223 21.7943 15.7682 21.9255 15.6571 22.095C15.5459 22.263 15.4904 22.463 15.4904 22.695V22.6992C15.4904 22.9311 15.5459 23.1318 15.6571 23.3012C15.7682 23.4707 15.9223 23.6019 16.1196 23.695ZM17.2654 23.3888C17.1334 23.4498 16.9807 23.4804 16.807 23.4804C16.6335 23.4804 16.48 23.4498 16.3467 23.3888C16.2147 23.3277 16.1112 23.2395 16.0363 23.1241C15.9627 23.0075 15.9259 22.8658 15.9259 22.6992V22.695C15.9259 22.5297 15.9627 22.3894 16.0363 22.2741C16.1112 22.1575 16.2147 22.0686 16.3467 22.0075C16.48 21.9463 16.6327 21.9158 16.805 21.9158C16.9785 21.9158 17.1314 21.9463 17.2633 22.0075C17.3967 22.0686 17.5001 22.1575 17.5737 22.2741C17.6487 22.3894 17.6863 22.5297 17.6863 22.695V22.6992C17.6863 22.8658 17.6487 23.0075 17.5737 23.1241C17.5001 23.2395 17.3973 23.3277 17.2654 23.3888ZM19.007 23.695C19.2043 23.788 19.4327 23.8345 19.6925 23.8345C19.9536 23.8345 20.1828 23.788 20.3799 23.695C20.5772 23.6019 20.7314 23.4707 20.8424 23.3012C20.9536 23.1318 21.0092 22.9311 21.0092 22.6992V22.695C21.0092 22.463 20.9536 22.263 20.8424 22.095C20.7314 21.9255 20.5765 21.7943 20.3779 21.7012C20.1807 21.6082 19.9522 21.5617 19.6925 21.5617C19.4327 21.5617 19.2043 21.6082 19.007 21.7012C18.8098 21.7943 18.6557 21.9255 18.5445 22.095C18.4335 22.263 18.3779 22.463 18.3779 22.695V22.6992C18.3779 22.9311 18.4335 23.1318 18.5445 23.3012C18.6557 23.4707 18.8098 23.6019 19.007 23.695ZM20.1529 23.3888C20.021 23.4498 19.8681 23.4804 19.6946 23.4804C19.5209 23.4804 19.3675 23.4498 19.2341 23.3888C19.1022 23.3277 18.9987 23.2395 18.9237 23.1241C18.8501 23.0075 18.8133 22.8658 18.8133 22.6992V22.695C18.8133 22.5297 18.8501 22.3894 18.9237 22.2741C18.9987 22.1575 19.1022 22.0686 19.2341 22.0075C19.3675 21.9463 19.5203 21.9158 19.6925 21.9158C19.8661 21.9158 20.0189 21.9463 20.1508 22.0075C20.2841 22.0686 20.3876 22.1575 20.4612 22.2741C20.5362 22.3894 20.5737 22.5297 20.5737 22.695V22.6992C20.5737 22.8658 20.5362 23.0075 20.4612 23.1241C20.3876 23.2395 20.2849 23.3277 20.1529 23.3888ZM21.3904 20.7804V23.7867H21.8175V22.9869L22.2111 22.7099L23.2779 23.7867H23.8133L22.5503 22.4942L23.7758 21.6075H23.1799L21.8258 22.5783H21.8175V20.7804H21.3904Z" fill="url(#paint0_linear_10743_3434)"/>
<path fill-rule="evenodd" clip-rule="evenodd" d="M16 32C24.8366 32 32 24.8366 32 16C32 7.16345 24.8366 0 16 0C7.16345 0 0 7.16345 0 16C0 24.8366 7.16345 32 16 32ZM16 30.9333C24.2475 30.9333 30.9333 24.2475 30.9333 16C30.9333 7.75254 24.2475 1.06667 16 1.06667C7.75254 1.06667 1.06667 7.75254 1.06667 16C1.06667 24.2475 7.75254 30.9333 16 30.9333ZM13.4476 7.52C13.4476 7.37273 13.56 7.25333 13.6988 7.25333H14.2011C14.3397 7.25333 14.4523 7.37273 14.4523 7.52V9.52H15.8964C16.0351 9.52 16.1475 9.63936 16.1475 9.78667V10.32C16.1475 10.4673 16.0351 10.5867 15.8964 10.5867H14.4523V15.2533H14.4546C14.5031 16.2452 15.2679 17.0358 16.2103 17.0531V17.0533H16.2732C16.4118 17.0533 16.5243 17.1727 16.5243 17.32V17.6533C16.5243 17.8006 16.4118 17.92 16.2732 17.92H16.1475V17.9182C16.1163 17.9194 16.0849 17.92 16.0533 17.92C14.6458 17.92 13.4989 16.735 13.4493 15.2533H13.4476V10.5867H11.8779C11.7391 10.5867 11.6267 10.4673 11.6267 10.32V9.78667C11.6267 9.63936 11.7391 9.52 11.8779 9.52H13.4476V7.52ZM16.9467 12.32H15.5025C15.3638 12.32 15.2514 12.4394 15.2514 12.5867V13.12C15.2514 13.2673 15.3638 13.3867 15.5025 13.3867H17.135V13.387C18.0742 13.4047 18.8304 14.2186 18.8304 15.2199C18.8304 16.2214 18.0742 17.0353 17.135 17.053V17.0533C16.9964 17.0533 16.8839 17.1727 16.8839 17.32V17.6533C16.8839 17.8006 16.9964 17.92 17.135 17.92C18.5569 17.92 19.7094 16.7111 19.7094 15.2199C19.7094 14.0813 19.0374 13.1073 18.0866 12.7104C18.4278 12.375 18.642 11.8912 18.642 11.3533C18.642 10.3408 17.883 9.52 16.9467 9.52H16.7583C16.6196 9.52 16.5072 9.63936 16.5072 9.78667V10.2533C16.5072 10.4006 16.6196 10.52 16.7583 10.52H16.9467V10.5222C17.4029 10.5552 17.763 10.9445 17.763 11.4199C17.763 11.8955 17.4029 12.2848 16.9467 12.3178V12.32ZM10.1425 21.1596V23.7867H10.5842V21.1596H11.8779V20.7804H8.85084V21.1596H10.1425ZM14.1029 23.4221H12.705V22.4242H14.0529C14.2098 22.4242 14.3425 22.4422 14.4509 22.4783C14.5591 22.5145 14.6411 22.5693 14.6966 22.6429C14.7536 22.7165 14.7821 22.8089 14.7821 22.92V22.9242C14.7821 23.0867 14.7231 23.2102 14.605 23.295C14.4883 23.3797 14.321 23.4221 14.1029 23.4221ZM12.705 22.0763H13.9508C14.1689 22.0763 14.3383 22.0353 14.4592 21.9533C14.5801 21.87 14.6404 21.7526 14.6404 21.6013V21.5971C14.6404 21.4484 14.5898 21.336 14.4883 21.2596C14.3884 21.1831 14.2501 21.145 14.0737 21.145H12.705V22.0763ZM12.705 20.7804H14.1801C14.3591 20.7804 14.5162 20.8116 14.6509 20.8741C14.787 20.9366 14.8925 21.0242 14.9675 21.1366C15.0438 21.2492 15.0821 21.3811 15.0821 21.5325V21.5366C15.0821 21.6436 15.0585 21.7436 15.0112 21.8367C14.9641 21.9297 14.8974 22.0089 14.8112 22.0741C14.7265 22.138 14.6272 22.1811 14.5133 22.2033V22.2096C14.662 22.2276 14.7898 22.27 14.8966 22.3366C15.005 22.4019 15.0883 22.4866 15.1467 22.5908C15.205 22.695 15.2341 22.8138 15.2341 22.9471V22.9513C15.2341 23.1249 15.1918 23.2741 15.1071 23.3991C15.0238 23.5242 14.9029 23.6201 14.7445 23.6866C14.5876 23.7534 14.3995 23.7867 14.1801 23.7867H12.705H12.4863H12.2654V20.7804H12.4863H12.705ZM16.1196 23.695C16.3168 23.7881 16.5453 23.8346 16.805 23.8346C17.0661 23.8346 17.2953 23.7881 17.4925 23.695C17.6897 23.6019 17.8438 23.4707 17.955 23.3012C18.0661 23.1318 18.1217 22.9311 18.1217 22.6992V22.695C18.1217 22.463 18.0661 22.263 17.955 22.095C17.8438 21.9255 17.6891 21.7943 17.4905 21.7012C17.2932 21.6082 17.0647 21.5617 16.805 21.5617C16.5453 21.5617 16.3168 21.6082 16.1196 21.7012C15.9223 21.7943 15.7682 21.9255 15.6571 22.095C15.5459 22.263 15.4905 22.463 15.4905 22.695V22.6992C15.4905 22.9311 15.5459 23.1318 15.6571 23.3012C15.7682 23.4707 15.9223 23.6019 16.1196 23.695ZM17.2654 23.3888C17.1334 23.4498 16.9807 23.4804 16.807 23.4804C16.6335 23.4804 16.48 23.4498 16.3467 23.3888C16.2147 23.3277 16.1113 23.2395 16.0363 23.1242C15.9627 23.0075 15.9259 22.8658 15.9259 22.6992V22.695C15.9259 22.5297 15.9627 22.3894 16.0363 22.2741C16.1113 22.1575 16.2147 22.0686 16.3467 22.0075C16.48 21.9463 16.6327 21.9158 16.805 21.9158C16.9786 21.9158 17.1314 21.9463 17.2634 22.0075C17.3967 22.0686 17.5002 22.1575 17.5738 22.2741C17.6487 22.3894 17.6863 22.5297 17.6863 22.695V22.6992C17.6863 22.8658 17.6487 23.0075 17.5738 23.1242C17.5002 23.2395 17.3973 23.3277 17.2654 23.3888ZM19.007 23.695C19.2043 23.7881 19.4327 23.8346 19.6925 23.8346C19.9536 23.8346 20.1828 23.7881 20.3799 23.695C20.5772 23.6019 20.7314 23.4707 20.8425 23.3012C20.9536 23.1318 21.0092 22.9311 21.0092 22.6992V22.695C21.0092 22.463 20.9536 22.263 20.8425 22.095C20.7314 21.9255 20.5765 21.7943 20.3779 21.7012C20.1807 21.6082 19.9522 21.5617 19.6925 21.5617C19.4327 21.5617 19.2043 21.6082 19.007 21.7012C18.8098 21.7943 18.6557 21.9255 18.5445 22.095C18.4335 22.263 18.3779 22.463 18.3779 22.695V22.6992C18.3779 22.9311 18.4335 23.1318 18.5445 23.3012C18.6557 23.4707 18.8098 23.6019 19.007 23.695ZM20.153 23.3888C20.021 23.4498 19.8682 23.4804 19.6946 23.4804C19.521 23.4804 19.3675 23.4498 19.2341 23.3888C19.1022 23.3277 18.9987 23.2395 18.9237 23.1242C18.8501 23.0075 18.8133 22.8658 18.8133 22.6992V22.695C18.8133 22.5297 18.8501 22.3894 18.9237 22.2741C18.9987 22.1575 19.1022 22.0686 19.2341 22.0075C19.3675 21.9463 19.5203 21.9158 19.6925 21.9158C19.8661 21.9158 20.0189 21.9463 20.1508 22.0075C20.2842 22.0686 20.3876 22.1575 20.4612 22.2741C20.5362 22.3894 20.5738 22.5297 20.5738 22.695V22.6992C20.5738 22.8658 20.5362 23.0075 20.4612 23.1242C20.3876 23.2395 20.2849 23.3277 20.153 23.3888ZM21.3904 20.7804V23.7867H21.8175V22.9869L22.2111 22.7099L23.2779 23.7867H23.8133L22.5503 22.4942L23.7758 21.6075H23.1799L21.8258 22.5783H21.8175V20.7804H21.3904Z" fill="url(#paint1_linear_10743_3434)"/>
</g>
<defs>
<filter id="filter0_d_10743_3434" x="0" y="0" width="32" height="32" filterUnits="userSpaceOnUse" color-interpolation-filters="sRGB">
<feFlood flood-opacity="0" result="BackgroundImageFix"/>
<feColorMatrix in="SourceAlpha" type="matrix" values="0 0 0 0 0 0 0 0 0 0 0 0 0 0 0 0 0 0 127 0" result="hardAlpha"/>
<feOffset/>
<feColorMatrix type="matrix" values="0 0 0 0 0 0 0 0 0 0 0 0 0 0 0 0 0 0 0.2 0"/>
<feBlend mode="normal" in2="BackgroundImageFix" result="effect1_dropShadow_10743_3434"/>
<feBlend mode="normal" in="SourceGraphic" in2="effect1_dropShadow_10743_3434" result="shape"/>
</filter>
<linearGradient id="paint0_linear_10743_3434" x1="16" y1="1.06665" x2="16" y2="30.9333" gradientUnits="userSpaceOnUse">
<stop stop-color="#031011"/>
<stop offset="1" stop-color="#019658"/>
</linearGradient>
<linearGradient id="paint1_linear_10743_3434" x1="29.6226" y1="9.49333" x2="-3.46648" y2="9.08085" gradientUnits="userSpaceOnUse">
<stop stop-color="#CBB772"/>
<stop offset="0.487715" stop-color="#FFF6D7"/>
<stop offset="1" stop-color="#BCAB70"/>
</linearGradient>
</defs>
</svg>
