<svg width="340" height="340" viewBox="0 0 340 340" fill="none" xmlns="http://www.w3.org/2000/svg">
<g clip-path="url(#clip0_119_128)">
<g filter="url(#filter0_d_119_128)">
<g filter="url(#filter1_iiiii_119_128)">
<path fill-rule="evenodd" clip-rule="evenodd" d="M306 166C306 243.32 243.32 306 166 306C88.6801 306 26 243.32 26 166C26 88.6801 88.6801 26 166 26C243.32 26 306 88.6801 306 166ZM142.071 86.5C142.071 85.1193 143.125 84 144.426 84H149.135C150.435 84 151.49 85.1193 151.49 86.5V105.25H165.029C166.329 105.25 167.383 106.369 167.383 107.75V112.75C167.383 114.131 166.329 115.25 165.029 115.25H151.49V159H151.512C151.967 168.299 159.137 175.711 167.972 175.872V175.875H168.561C169.861 175.875 170.915 176.994 170.915 178.375V181.5C170.915 182.881 169.861 184 168.561 184H167.383V183.983C167.09 183.994 166.796 184 166.5 184C153.304 184 142.552 172.891 142.087 159H142.071V115.25H127.355C126.054 115.25 125 114.131 125 112.75V107.75C125 106.369 126.054 105.25 127.355 105.25H142.071V86.5ZM174.875 131.5H161.336C160.036 131.5 158.982 132.619 158.982 134V139C158.982 140.381 160.036 141.5 161.336 141.5H176.641V141.503C185.446 141.669 192.535 149.299 192.535 158.687C192.535 168.076 185.446 175.706 176.641 175.872V175.875C175.341 175.875 174.287 176.994 174.287 178.375V181.5C174.287 182.881 175.341 184 176.641 184C189.971 184 200.776 172.667 200.776 158.687C200.776 148.012 194.476 138.881 185.562 135.16C188.761 132.016 190.769 127.48 190.769 122.437C190.769 112.945 183.653 105.25 174.875 105.25H173.109C171.809 105.25 170.755 106.369 170.755 107.75V112.125C170.755 113.506 171.809 114.625 173.109 114.625H174.875V114.646C179.152 114.955 182.528 118.605 182.528 123.062C182.528 127.52 179.152 131.17 174.875 131.479V131.5ZM111.086 214.371V239H115.227V214.371H127.355V210.816H98.9766V214.371H111.086ZM148.215 235.582H135.109V226.227H147.746C149.217 226.227 150.461 226.396 151.477 226.734C152.492 227.073 153.26 227.587 153.781 228.277C154.315 228.967 154.582 229.833 154.582 230.875V230.914C154.582 232.438 154.029 233.596 152.922 234.391C151.828 235.185 150.259 235.582 148.215 235.582ZM135.109 222.965H146.789C148.833 222.965 150.422 222.581 151.555 221.812C152.688 221.031 153.254 219.931 153.254 218.512V218.473C153.254 217.079 152.779 216.025 151.828 215.309C150.891 214.592 149.595 214.234 147.941 214.234H135.109V222.965ZM135.109 210.816H148.938C150.617 210.816 152.089 211.109 153.352 211.695C154.628 212.281 155.617 213.102 156.32 214.156C157.036 215.211 157.395 216.448 157.395 217.867V217.906C157.395 218.909 157.173 219.846 156.73 220.719C156.288 221.591 155.663 222.333 154.855 222.945C154.061 223.544 153.13 223.948 152.062 224.156V224.215C153.456 224.384 154.654 224.781 155.656 225.406C156.672 226.018 157.453 226.812 158 227.789C158.547 228.766 158.82 229.879 158.82 231.129V231.168C158.82 232.796 158.423 234.195 157.629 235.367C156.848 236.539 155.715 237.438 154.23 238.062C152.759 238.688 150.995 239 148.938 239H135.109H133.059H130.988V210.816H133.059H135.109ZM167.121 238.141C168.97 239.013 171.112 239.449 173.547 239.449C175.995 239.449 178.143 239.013 179.992 238.141C181.841 237.268 183.286 236.038 184.328 234.449C185.37 232.861 185.891 230.979 185.891 228.805V228.766C185.891 226.591 185.37 224.716 184.328 223.141C183.286 221.552 181.835 220.322 179.973 219.449C178.124 218.577 175.982 218.141 173.547 218.141C171.112 218.141 168.97 218.577 167.121 219.449C165.272 220.322 163.827 221.552 162.785 223.141C161.743 224.716 161.223 226.591 161.223 228.766V228.805C161.223 230.979 161.743 232.861 162.785 234.449C163.827 236.038 165.272 237.268 167.121 238.141ZM177.863 235.27C176.626 235.842 175.194 236.129 173.566 236.129C171.939 236.129 170.5 235.842 169.25 235.27C168.013 234.697 167.043 233.87 166.34 232.789C165.65 231.695 165.305 230.367 165.305 228.805V228.766C165.305 227.216 165.65 225.901 166.34 224.82C167.043 223.727 168.013 222.893 169.25 222.32C170.5 221.747 171.932 221.461 173.547 221.461C175.174 221.461 176.607 221.747 177.844 222.32C179.094 222.893 180.064 223.727 180.754 224.82C181.457 225.901 181.809 227.216 181.809 228.766V228.805C181.809 230.367 181.457 231.695 180.754 232.789C180.064 233.87 179.1 234.697 177.863 235.27ZM194.191 238.141C196.04 239.013 198.182 239.449 200.617 239.449C203.065 239.449 205.214 239.013 207.062 238.141C208.911 237.268 210.357 236.038 211.398 234.449C212.44 232.861 212.961 230.979 212.961 228.805V228.766C212.961 226.591 212.44 224.716 211.398 223.141C210.357 221.552 208.905 220.322 207.043 219.449C205.194 218.577 203.052 218.141 200.617 218.141C198.182 218.141 196.04 218.577 194.191 219.449C192.342 220.322 190.897 221.552 189.855 223.141C188.814 224.716 188.293 226.591 188.293 228.766V228.805C188.293 230.979 188.814 232.861 189.855 234.449C190.897 236.038 192.342 237.268 194.191 238.141ZM204.934 235.27C203.697 235.842 202.264 236.129 200.637 236.129C199.009 236.129 197.57 235.842 196.32 235.27C195.083 234.697 194.113 233.87 193.41 232.789C192.72 231.695 192.375 230.367 192.375 228.805V228.766C192.375 227.216 192.72 225.901 193.41 224.82C194.113 223.727 195.083 222.893 196.32 222.32C197.57 221.747 199.003 221.461 200.617 221.461C202.245 221.461 203.677 221.747 204.914 222.32C206.164 222.893 207.134 223.727 207.824 224.82C208.527 225.901 208.879 227.216 208.879 228.766V228.805C208.879 230.367 208.527 231.695 207.824 232.789C207.134 233.87 206.171 234.697 204.934 235.27ZM216.535 210.816V239H220.539V231.502L224.229 228.905L234.23 239H239.25L227.409 226.883L238.898 218.57H233.312L220.617 227.672H220.539V210.816H216.535Z" fill="url(#paint0_linear_119_128)"/>
</g>
<g filter="url(#filter2_d_119_128)">
<path fill-rule="evenodd" clip-rule="evenodd" d="M166 316C248.843 316 316 248.843 316 166C316 83.1573 248.843 16 166 16C83.1573 16 16 83.1573 16 166C16 248.843 83.1573 316 166 316ZM166 306C243.32 306 306 243.32 306 166C306 88.6801 243.32 26 166 26C88.6801 26 26 88.6801 26 166C26 243.32 88.6801 306 166 306ZM142.071 86.5C142.071 85.1193 143.125 84 144.426 84H149.135C150.435 84 151.49 85.1193 151.49 86.5V105.25H165.029C166.329 105.25 167.383 106.369 167.383 107.75V112.75C167.383 114.131 166.329 115.25 165.029 115.25H151.49V159H151.512C151.967 168.299 159.137 175.711 167.972 175.873V175.875H168.561C169.861 175.875 170.915 176.994 170.915 178.375V181.5C170.915 182.881 169.861 184 168.561 184H167.383V183.983C167.09 183.994 166.796 184 166.5 184C153.304 184 142.552 172.891 142.087 159H142.071V115.25H127.355C126.054 115.25 125 114.131 125 112.75V107.75C125 106.369 126.054 105.25 127.355 105.25H142.071V86.5ZM174.875 131.5H161.336C160.036 131.5 158.982 132.619 158.982 134V139C158.982 140.381 160.036 141.5 161.336 141.5H176.641V141.503C185.446 141.669 192.535 149.299 192.535 158.687C192.535 168.076 185.446 175.706 176.641 175.872V175.875C175.341 175.875 174.287 176.994 174.287 178.375V181.5C174.287 182.881 175.341 184 176.641 184C189.971 184 200.776 172.667 200.776 158.687C200.776 148.012 194.476 138.881 185.562 135.16C188.761 132.016 190.769 127.48 190.769 122.437C190.769 112.945 183.653 105.25 174.875 105.25H173.109C171.809 105.25 170.755 106.369 170.755 107.75V112.125C170.755 113.506 171.809 114.625 173.109 114.625H174.875V114.646C179.152 114.955 182.528 118.605 182.528 123.062C182.528 127.52 179.152 131.17 174.875 131.479V131.5ZM111.086 214.371V239H115.227V214.371H127.355V210.816H98.9766V214.371H111.086ZM148.215 235.582H135.109V226.227H147.746C149.217 226.227 150.461 226.396 151.477 226.734C152.492 227.073 153.26 227.587 153.781 228.277C154.315 228.967 154.582 229.833 154.582 230.875V230.914C154.582 232.438 154.029 233.596 152.922 234.391C151.828 235.185 150.259 235.582 148.215 235.582ZM135.109 222.965H146.789C148.833 222.965 150.422 222.581 151.555 221.812C152.688 221.031 153.254 219.931 153.254 218.512V218.473C153.254 217.079 152.779 216.025 151.828 215.309C150.891 214.592 149.595 214.234 147.941 214.234H135.109V222.965ZM135.109 210.816H148.938C150.617 210.816 152.089 211.109 153.352 211.695C154.628 212.281 155.617 213.102 156.32 214.156C157.036 215.211 157.395 216.448 157.395 217.867V217.906C157.395 218.909 157.173 219.846 156.73 220.719C156.288 221.591 155.663 222.333 154.855 222.945C154.061 223.544 153.13 223.948 152.062 224.156V224.215C153.456 224.384 154.654 224.781 155.656 225.406C156.672 226.018 157.453 226.812 158 227.789C158.547 228.766 158.82 229.879 158.82 231.129V231.168C158.82 232.796 158.423 234.195 157.629 235.367C156.848 236.539 155.715 237.438 154.23 238.062C152.759 238.688 150.995 239 148.938 239H135.109H133.059H130.988V210.816H133.059H135.109ZM167.121 238.141C168.97 239.013 171.112 239.449 173.547 239.449C175.995 239.449 178.143 239.013 179.992 238.141C181.841 237.268 183.286 236.038 184.328 234.449C185.37 232.861 185.891 230.979 185.891 228.805V228.766C185.891 226.591 185.37 224.716 184.328 223.141C183.286 221.552 181.835 220.322 179.973 219.449C178.124 218.577 175.982 218.141 173.547 218.141C171.112 218.141 168.97 218.577 167.121 219.449C165.272 220.322 163.827 221.552 162.785 223.141C161.743 224.716 161.223 226.591 161.223 228.766V228.805C161.223 230.979 161.743 232.861 162.785 234.449C163.827 236.038 165.272 237.268 167.121 238.141ZM177.863 235.27C176.626 235.842 175.194 236.129 173.566 236.129C171.939 236.129 170.5 235.842 169.25 235.27C168.013 234.697 167.043 233.87 166.34 232.789C165.65 231.695 165.305 230.367 165.305 228.805V228.766C165.305 227.216 165.65 225.901 166.34 224.82C167.043 223.727 168.013 222.893 169.25 222.32C170.5 221.747 171.932 221.461 173.547 221.461C175.174 221.461 176.607 221.747 177.844 222.32C179.094 222.893 180.064 223.727 180.754 224.82C181.457 225.901 181.809 227.216 181.809 228.766V228.805C181.809 230.367 181.457 231.695 180.754 232.789C180.064 233.87 179.1 234.697 177.863 235.27ZM194.191 238.141C196.04 239.013 198.182 239.449 200.617 239.449C203.065 239.449 205.214 239.013 207.062 238.141C208.911 237.268 210.357 236.038 211.398 234.449C212.44 232.861 212.961 230.979 212.961 228.805V228.766C212.961 226.591 212.44 224.716 211.398 223.141C210.357 221.552 208.905 220.322 207.043 219.449C205.194 218.577 203.052 218.141 200.617 218.141C198.182 218.141 196.04 218.577 194.191 219.449C192.342 220.322 190.897 221.552 189.855 223.141C188.814 224.716 188.293 226.591 188.293 228.766V228.805C188.293 230.979 188.814 232.861 189.855 234.449C190.897 236.038 192.342 237.268 194.191 238.141ZM204.934 235.27C203.697 235.842 202.264 236.129 200.637 236.129C199.009 236.129 197.57 235.842 196.32 235.27C195.083 234.697 194.113 233.87 193.41 232.789C192.72 231.695 192.375 230.367 192.375 228.805V228.766C192.375 227.216 192.72 225.901 193.41 224.82C194.113 223.727 195.083 222.893 196.32 222.32C197.57 221.747 199.003 221.461 200.617 221.461C202.245 221.461 203.677 221.747 204.914 222.32C206.164 222.893 207.134 223.727 207.824 224.82C208.527 225.901 208.879 227.216 208.879 228.766V228.805C208.879 230.367 208.527 231.695 207.824 232.789C207.134 233.87 206.171 234.697 204.934 235.27ZM216.535 210.816V239H220.539V231.502L224.229 228.905L234.23 239H239.25L227.409 226.883L238.898 218.57H233.312L220.617 227.672H220.539V210.816H216.535Z" fill="url(#paint1_linear_119_128)"/>
</g>
</g>
</g>
<defs>
<filter id="filter0_d_119_128" x="16" y="16" width="300" height="300" filterUnits="userSpaceOnUse" color-interpolation-filters="sRGB">
<feFlood flood-opacity="0" result="BackgroundImageFix"/>
<feColorMatrix in="SourceAlpha" type="matrix" values="0 0 0 0 0 0 0 0 0 0 0 0 0 0 0 0 0 0 127 0" result="hardAlpha"/>
<feOffset/>
<feColorMatrix type="matrix" values="0 0 0 0 0 0 0 0 0 0 0 0 0 0 0 0 0 0 0.2 0"/>
<feBlend mode="normal" in2="BackgroundImageFix" result="effect1_dropShadow_119_128"/>
<feBlend mode="normal" in="SourceGraphic" in2="effect1_dropShadow_119_128" result="shape"/>
</filter>
<filter id="filter1_iiiii_119_128" x="20" y="22" width="296" height="294" filterUnits="userSpaceOnUse" color-interpolation-filters="sRGB">
<feFlood flood-opacity="0" result="BackgroundImageFix"/>
<feBlend mode="normal" in="SourceGraphic" in2="BackgroundImageFix" result="shape"/>
<feColorMatrix in="SourceAlpha" type="matrix" values="0 0 0 0 0 0 0 0 0 0 0 0 0 0 0 0 0 0 127 0" result="hardAlpha"/>
<feOffset dy="1"/>
<feGaussianBlur stdDeviation="5"/>
<feComposite in2="hardAlpha" operator="arithmetic" k2="-1" k3="1"/>
<feColorMatrix type="matrix" values="0 0 0 0 0 0 0 0 0 0 0 0 0 0 0 0 0 0 0.1 0"/>
<feBlend mode="soft-light" in2="shape" result="effect1_innerShadow_119_128"/>
<feColorMatrix in="SourceAlpha" type="matrix" values="0 0 0 0 0 0 0 0 0 0 0 0 0 0 0 0 0 0 127 0" result="hardAlpha"/>
<feOffset/>
<feGaussianBlur stdDeviation="2"/>
<feComposite in2="hardAlpha" operator="arithmetic" k2="-1" k3="1"/>
<feColorMatrix type="matrix" values="0 0 0 0 0 0 0 0 0 0 0 0 0 0 0 0 0 0 0.1 0"/>
<feBlend mode="soft-light" in2="effect1_innerShadow_119_128" result="effect2_innerShadow_119_128"/>
<feColorMatrix in="SourceAlpha" type="matrix" values="0 0 0 0 0 0 0 0 0 0 0 0 0 0 0 0 0 0 127 0" result="hardAlpha"/>
<feOffset dx="2" dy="2"/>
<feGaussianBlur stdDeviation="2"/>
<feComposite in2="hardAlpha" operator="arithmetic" k2="-1" k3="1"/>
<feColorMatrix type="matrix" values="0 0 0 0 0 0 0 0 0 0 0 0 0 0 0 0 0 0 0.3 0"/>
<feBlend mode="hard-light" in2="effect2_innerShadow_119_128" result="effect3_innerShadow_119_128"/>
<feColorMatrix in="SourceAlpha" type="matrix" values="0 0 0 0 0 0 0 0 0 0 0 0 0 0 0 0 0 0 127 0" result="hardAlpha"/>
<feOffset dx="10" dy="10"/>
<feGaussianBlur stdDeviation="8"/>
<feComposite in2="hardAlpha" operator="arithmetic" k2="-1" k3="1"/>
<feColorMatrix type="matrix" values="0 0 0 0 0 0 0 0 0 0 0 0 0 0 0 0 0 0 0.15 0"/>
<feBlend mode="normal" in2="effect3_innerShadow_119_128" result="effect4_innerShadow_119_128"/>
<feColorMatrix in="SourceAlpha" type="matrix" values="0 0 0 0 0 0 0 0 0 0 0 0 0 0 0 0 0 0 127 0" result="hardAlpha"/>
<feOffset dx="-6" dy="-4"/>
<feGaussianBlur stdDeviation="6"/>
<feComposite in2="hardAlpha" operator="arithmetic" k2="-1" k3="1"/>
<feColorMatrix type="matrix" values="0 0 0 0 0 0 0 0 0 0 0 0 0 0 0 0 0 0 0.3 0"/>
<feBlend mode="soft-light" in2="effect4_innerShadow_119_128" result="effect5_innerShadow_119_128"/>
</filter>
<filter id="filter2_d_119_128" x="0" y="0" width="340" height="340" filterUnits="userSpaceOnUse" color-interpolation-filters="sRGB">
<feFlood flood-opacity="0" result="BackgroundImageFix"/>
<feColorMatrix in="SourceAlpha" type="matrix" values="0 0 0 0 0 0 0 0 0 0 0 0 0 0 0 0 0 0 127 0" result="hardAlpha"/>
<feOffset dx="4" dy="4"/>
<feGaussianBlur stdDeviation="10"/>
<feColorMatrix type="matrix" values="0 0 0 0 0 0 0 0 0 0 0 0 0 0 0 0 0 0 0.2 0"/>
<feBlend mode="overlay" in2="BackgroundImageFix" result="effect1_dropShadow_119_128"/>
<feBlend mode="normal" in="SourceGraphic" in2="effect1_dropShadow_119_128" result="shape"/>
</filter>
<linearGradient id="paint0_linear_119_128" x1="166" y1="26" x2="166" y2="306" gradientUnits="userSpaceOnUse">
<stop stop-color="#031011"/>
<stop offset="1" stop-color="#019658"/>
</linearGradient>
<linearGradient id="paint1_linear_119_128" x1="293.712" y1="105" x2="-16.4983" y2="101.133" gradientUnits="userSpaceOnUse">
<stop stop-color="#CBB772"/>
<stop offset="0.487715" stop-color="#FFF6D7"/>
<stop offset="1" stop-color="#BCAB70"/>
</linearGradient>
<clipPath id="clip0_119_128">
<rect width="340" height="340" fill="white"/>
</clipPath>
</defs>
</svg>
