<svg width="345" height="340" viewBox="0 0 345 340" fill="none" xmlns="http://www.w3.org/2000/svg">
<g clip-path="url(#clip0_121_160)">
<g filter="url(#filter0_d_121_160)">
<g filter="url(#filter1_iiiii_121_160)">
<path fill-rule="evenodd" clip-rule="evenodd" d="M277.352 250.869C251.773 284.379 211.412 306 166 306C119.861 306 78.9354 283.681 53.4303 249.25H157V242.75H48.8938C48.0184 241.417 47.1652 240.068 46.3347 238.704C77.4221 212.853 98.0307 189.67 110.616 169.411C113.153 171.647 115.836 173.722 118.648 175.619C126.779 206.6 152.798 230.335 185 235.117V293H192.143V235.857C193.75 235.952 195.369 236 197 236C216.981 236 235.272 228.765 249.397 216.773L277.352 250.869ZM281.61 244.981C296.999 222.499 306 195.301 306 166C306 145.805 301.724 126.609 294.028 109.268L274.231 130.508C276.679 138.235 278 146.463 278 155C278 177.226 269.048 197.361 254.553 211.997L281.61 244.981ZM250.407 206.942L228.21 179.883L269.068 136.048C270.655 142.099 271.5 148.451 271.5 155C271.5 175.2 263.461 193.522 250.407 206.942ZM245.275 211.745L223.247 184.879L192.143 218.006V229.344C193.749 229.448 195.368 229.5 197 229.5C215.416 229.5 232.272 222.818 245.275 211.745ZM185 228.539V185.728C177.872 187.857 170.32 189 162.5 189C149.719 189 137.652 185.946 126.988 180.527C136.086 205.472 158.136 224.188 185 228.539ZM185 178.915C177.921 181.241 170.358 182.5 162.5 182.5C148.488 182.5 135.411 178.498 124.35 171.574C123.139 166.244 122.5 160.696 122.5 155C122.5 150.346 122.927 145.792 123.743 141.374C124.597 138.538 125.27 135.78 125.77 133.102C135.123 102.643 163.475 80.5 197 80.5C209.315 80.5 220.932 83.488 231.166 88.7786C233.332 95.6325 234.5 102.93 234.5 110.5C234.5 139.697 217.121 164.835 192.143 176.134V91H185V178.915ZM192.143 183.21C220.803 171.514 241 143.366 241 110.5C241 104.69 240.369 99.0268 239.171 93.5762C251.652 102.162 261.387 114.453 266.786 128.862L192.703 208.308H192.143V183.21ZM271.69 123.603C264.662 106.904 252.197 93.0558 236.512 84.2742C225.719 53.8159 196.657 32 162.5 32C131.033 32 103.89 50.5148 91.3714 77.2448C84.6586 75.6738 77.5196 75.3388 70.4414 76.2559C65.3611 76.914 60.2816 78.2189 55.3741 80.1878C80.9872 47.2161 121.016 26 166 26C220.616 26 267.927 57.2743 291.003 102.891L271.69 123.603ZM162.5 38.5C191.38 38.5 216.288 55.5033 227.761 80.0452C218.276 76.1487 207.889 74 197 74C166.784 74 140.433 90.5446 126.51 115.069C125.452 106.431 122.244 99.0426 117.41 93.0371C112.251 86.6276 105.386 81.9839 97.6731 79.1338C109.331 55.0834 133.979 38.5 162.5 38.5ZM112.347 97.1128C118.773 105.097 122.156 116.548 119.467 131.483C118.637 134.223 117.948 137.025 117.409 139.879C116.345 143.344 114.977 146.97 113.277 150.755C112.087 153.404 110.736 156.126 109.213 158.921C97.5866 146.134 90.5 129.144 90.5 110.5C90.5 101.565 92.1276 93.0099 95.1024 85.1154C101.949 87.5928 107.941 91.6394 112.347 97.1128ZM113.993 163.708C114.743 162.374 115.457 161.054 116.137 159.747C116.261 161.889 116.468 164.009 116.755 166.103C115.814 165.328 114.893 164.529 113.993 163.708ZM88.8277 83.334C83.2429 82.1559 77.2829 81.9238 71.2765 82.702C62.9279 83.7836 54.5909 86.8111 47.2029 91.8885C33.766 113.382 26 138.784 26 166C26 190.267 32.1744 213.093 43.0378 232.99C73.9436 207.177 93.9202 184.348 105.817 164.807C92.3033 150.706 84 131.573 84 110.5C84 100.95 85.7052 91.7991 88.8277 83.334Z" fill="url(#paint0_linear_121_160)"/>
<path fill-rule="evenodd" clip-rule="evenodd" d="M277.352 250.869C251.773 284.379 211.412 306 166 306C119.861 306 78.9354 283.681 53.4303 249.25H157V242.75H48.8938C48.0184 241.417 47.1652 240.068 46.3347 238.704C77.4221 212.853 98.0307 189.67 110.616 169.411C113.153 171.647 115.836 173.722 118.648 175.619C126.779 206.6 152.798 230.335 185 235.117V293H192.143V235.857C193.75 235.952 195.369 236 197 236C216.981 236 235.272 228.765 249.397 216.773L277.352 250.869ZM281.61 244.981C296.999 222.499 306 195.301 306 166C306 145.805 301.724 126.609 294.028 109.268L274.231 130.508C276.679 138.235 278 146.463 278 155C278 177.226 269.048 197.361 254.553 211.997L281.61 244.981ZM250.407 206.942L228.21 179.883L269.068 136.048C270.655 142.099 271.5 148.451 271.5 155C271.5 175.2 263.461 193.522 250.407 206.942ZM245.275 211.745L223.247 184.879L192.143 218.006V229.344C193.749 229.448 195.368 229.5 197 229.5C215.416 229.5 232.272 222.818 245.275 211.745ZM185 228.539V185.728C177.872 187.857 170.32 189 162.5 189C149.719 189 137.652 185.946 126.988 180.527C136.086 205.472 158.136 224.188 185 228.539ZM185 178.915C177.921 181.241 170.358 182.5 162.5 182.5C148.488 182.5 135.411 178.498 124.35 171.574C123.139 166.244 122.5 160.696 122.5 155C122.5 150.346 122.927 145.792 123.743 141.374C124.597 138.538 125.27 135.78 125.77 133.102C135.123 102.643 163.475 80.5 197 80.5C209.315 80.5 220.932 83.488 231.166 88.7786C233.332 95.6325 234.5 102.93 234.5 110.5C234.5 139.697 217.121 164.835 192.143 176.134V91H185V178.915ZM192.143 183.21C220.803 171.514 241 143.366 241 110.5C241 104.69 240.369 99.0268 239.171 93.5762C251.652 102.162 261.387 114.453 266.786 128.862L192.703 208.308H192.143V183.21ZM271.69 123.603C264.662 106.904 252.197 93.0558 236.512 84.2742C225.719 53.8159 196.657 32 162.5 32C131.033 32 103.89 50.5148 91.3714 77.2448C84.6586 75.6738 77.5196 75.3388 70.4414 76.2559C65.3611 76.914 60.2816 78.2189 55.3741 80.1878C80.9872 47.2161 121.016 26 166 26C220.616 26 267.927 57.2743 291.003 102.891L271.69 123.603ZM162.5 38.5C191.38 38.5 216.288 55.5033 227.761 80.0452C218.276 76.1487 207.889 74 197 74C166.784 74 140.433 90.5446 126.51 115.069C125.452 106.431 122.244 99.0426 117.41 93.0371C112.251 86.6276 105.386 81.9839 97.6731 79.1338C109.331 55.0834 133.979 38.5 162.5 38.5ZM112.347 97.1128C118.773 105.097 122.156 116.548 119.467 131.483C118.637 134.223 117.948 137.025 117.409 139.879C116.345 143.344 114.977 146.97 113.277 150.755C112.087 153.404 110.736 156.126 109.213 158.921C97.5866 146.134 90.5 129.144 90.5 110.5C90.5 101.565 92.1276 93.0099 95.1024 85.1154C101.949 87.5928 107.941 91.6394 112.347 97.1128ZM113.993 163.708C114.743 162.374 115.457 161.054 116.137 159.747C116.261 161.889 116.468 164.009 116.755 166.103C115.814 165.328 114.893 164.529 113.993 163.708ZM88.8277 83.334C83.2429 82.1559 77.2829 81.9238 71.2765 82.702C62.9279 83.7836 54.5909 86.8111 47.2029 91.8885C33.766 113.382 26 138.784 26 166C26 190.267 32.1744 213.093 43.0378 232.99C73.9436 207.177 93.9202 184.348 105.817 164.807C92.3033 150.706 84 131.573 84 110.5C84 100.95 85.7052 91.7991 88.8277 83.334Z" fill="url(#paint1_linear_121_160)"/>
</g>
<g filter="url(#filter2_diii_121_160)">
<path fill-rule="evenodd" clip-rule="evenodd" d="M288.198 253.012C305.703 228.474 316 198.439 316 166C316 142.856 310.758 120.936 301.397 101.362L311.056 91H302.092L298.237 95.1334C272.941 48.0287 223.211 16 166 16C109.018 16 59.4575 47.7728 34.0676 94.5685C30.3032 98.4998 26.9436 103.063 24.1384 108.274L26.8994 109.76C19.8705 127.128 16 146.112 16 166C16 192.677 22.964 217.727 35.1732 239.433C33.5187 240.762 31.8358 242.1 30.1239 243.444L22.7334 249.25H32.1316H41.2034C68.1045 289.496 113.957 316 166 316C213.805 316 256.388 293.636 283.856 258.8L311.896 293H321L288.198 253.012ZM281.61 244.981C296.999 222.499 306 195.301 306 166C306 145.805 301.724 126.609 294.028 109.268L274.231 130.508C276.679 138.235 278 146.463 278 155C278 177.226 269.048 197.361 254.553 211.997L281.61 244.981ZM277.352 250.869C251.773 284.379 211.412 306 166 306C119.861 306 78.9354 283.681 53.4303 249.25H157V242.75H48.8938C48.0184 241.417 47.1652 240.068 46.3347 238.704C77.4221 212.853 98.0307 189.67 110.616 169.411C113.153 171.647 115.836 173.722 118.648 175.619C126.779 206.6 152.798 230.335 185 235.117V293H192.143V235.857C193.75 235.952 195.369 236 197 236C216.981 236 235.272 228.765 249.397 216.773L277.352 250.869ZM192.143 229.344C193.749 229.448 195.368 229.5 197 229.5C215.416 229.5 232.272 222.818 245.275 211.745L223.247 184.879L192.143 218.006V229.344ZM185 228.539V185.728C177.872 187.857 170.32 189 162.5 189C149.719 189 137.652 185.946 126.988 180.527C136.086 205.472 158.136 224.188 185 228.539ZM192.143 176.134V91H185V178.915C177.921 181.241 170.358 182.5 162.5 182.5C148.488 182.5 135.411 178.498 124.35 171.574C123.139 166.244 122.5 160.696 122.5 155C122.5 150.346 122.927 145.792 123.743 141.374C124.597 138.538 125.27 135.78 125.77 133.102C135.123 102.643 163.475 80.5 197 80.5C209.315 80.5 220.932 83.488 231.166 88.7786C233.332 95.6325 234.5 102.93 234.5 110.5C234.5 139.697 217.121 164.835 192.143 176.134ZM192.143 183.21V208.308H192.703L266.786 128.862C261.387 114.453 251.652 102.162 239.171 93.5762C240.369 99.0268 241 104.69 241 110.5C241 143.366 220.803 171.514 192.143 183.21ZM271.69 123.603L291.003 102.891C267.927 57.2743 220.616 26 166 26C121.016 26 80.9872 47.2161 55.3741 80.1878C60.2816 78.2189 65.3611 76.914 70.4414 76.2559C77.5196 75.3388 84.6586 75.6738 91.3714 77.2448C103.89 50.5148 131.033 32 162.5 32C196.657 32 225.719 53.8159 236.512 84.2742C252.197 93.0558 264.662 106.904 271.69 123.603ZM269.068 136.048L228.21 179.883L250.407 206.942C263.461 193.522 271.5 175.2 271.5 155C271.5 148.451 270.655 142.099 269.068 136.048ZM162.5 38.5C191.38 38.5 216.288 55.5033 227.761 80.0452C218.276 76.1487 207.889 74 197 74C166.784 74 140.433 90.5446 126.51 115.069C125.452 106.431 122.244 99.0426 117.41 93.0371C112.251 86.6276 105.386 81.9839 97.6731 79.1338C109.331 55.0834 133.979 38.5 162.5 38.5ZM117.409 139.879C117.948 137.025 118.637 134.223 119.467 131.483C122.156 116.548 118.773 105.097 112.347 97.1128C107.941 91.6394 101.949 87.5928 95.1024 85.1154C92.1276 93.0099 90.5 101.565 90.5 110.5C90.5 129.144 97.5866 146.134 109.213 158.921C110.736 156.126 112.087 153.404 113.277 150.755C114.977 146.97 116.345 143.344 117.409 139.879ZM116.755 166.103C116.468 164.009 116.261 161.889 116.137 159.747C115.457 161.054 114.743 162.374 113.993 163.708C114.893 164.529 115.814 165.328 116.755 166.103ZM88.8277 83.334C85.7052 91.7991 84 100.95 84 110.5C84 131.573 92.3033 150.706 105.817 164.807C93.9202 184.348 73.9436 207.177 43.0378 232.99C32.1744 213.093 26 190.267 26 166C26 138.784 33.766 113.382 47.2029 91.8885C54.5909 86.8111 62.9278 83.7836 71.2765 82.702C77.2829 81.9238 83.2429 82.1559 88.8277 83.334Z" fill="url(#paint2_linear_121_160)"/>
</g>
</g>
</g>
<defs>
<filter id="filter0_d_121_160" x="16" y="16" width="305" height="300" filterUnits="userSpaceOnUse" color-interpolation-filters="sRGB">
<feFlood flood-opacity="0" result="BackgroundImageFix"/>
<feColorMatrix in="SourceAlpha" type="matrix" values="0 0 0 0 0 0 0 0 0 0 0 0 0 0 0 0 0 0 127 0" result="hardAlpha"/>
<feOffset/>
<feColorMatrix type="matrix" values="0 0 0 0 0 0 0 0 0 0 0 0 0 0 0 0 0 0 0.27 0"/>
<feBlend mode="normal" in2="BackgroundImageFix" result="effect1_dropShadow_121_160"/>
<feBlend mode="normal" in="SourceGraphic" in2="effect1_dropShadow_121_160" result="shape"/>
</filter>
<filter id="filter1_iiiii_121_160" x="20" y="22" width="296" height="294" filterUnits="userSpaceOnUse" color-interpolation-filters="sRGB">
<feFlood flood-opacity="0" result="BackgroundImageFix"/>
<feBlend mode="normal" in="SourceGraphic" in2="BackgroundImageFix" result="shape"/>
<feColorMatrix in="SourceAlpha" type="matrix" values="0 0 0 0 0 0 0 0 0 0 0 0 0 0 0 0 0 0 127 0" result="hardAlpha"/>
<feOffset dx="-4" dy="-4"/>
<feGaussianBlur stdDeviation="5"/>
<feComposite in2="hardAlpha" operator="arithmetic" k2="-1" k3="1"/>
<feColorMatrix type="matrix" values="0 0 0 0 1 0 0 0 0 1 0 0 0 0 1 0 0 0 0.3 0"/>
<feBlend mode="soft-light" in2="shape" result="effect1_innerShadow_121_160"/>
<feColorMatrix in="SourceAlpha" type="matrix" values="0 0 0 0 0 0 0 0 0 0 0 0 0 0 0 0 0 0 127 0" result="hardAlpha"/>
<feOffset dx="-3" dy="-3"/>
<feGaussianBlur stdDeviation="2"/>
<feComposite in2="hardAlpha" operator="arithmetic" k2="-1" k3="1"/>
<feColorMatrix type="matrix" values="0 0 0 0 1 0 0 0 0 1 0 0 0 0 1 0 0 0 0.4 0"/>
<feBlend mode="soft-light" in2="effect1_innerShadow_121_160" result="effect2_innerShadow_121_160"/>
<feColorMatrix in="SourceAlpha" type="matrix" values="0 0 0 0 0 0 0 0 0 0 0 0 0 0 0 0 0 0 127 0" result="hardAlpha"/>
<feOffset dx="4" dy="4"/>
<feGaussianBlur stdDeviation="2"/>
<feComposite in2="hardAlpha" operator="arithmetic" k2="-1" k3="1"/>
<feColorMatrix type="matrix" values="0 0 0 0 0 0 0 0 0 0 0 0 0 0 0 0 0 0 0.3 0"/>
<feBlend mode="hard-light" in2="effect2_innerShadow_121_160" result="effect3_innerShadow_121_160"/>
<feColorMatrix in="SourceAlpha" type="matrix" values="0 0 0 0 0 0 0 0 0 0 0 0 0 0 0 0 0 0 127 0" result="hardAlpha"/>
<feOffset dx="10" dy="10"/>
<feGaussianBlur stdDeviation="8"/>
<feComposite in2="hardAlpha" operator="arithmetic" k2="-1" k3="1"/>
<feColorMatrix type="matrix" values="0 0 0 0 0 0 0 0 0 0 0 0 0 0 0 0 0 0 0.15 0"/>
<feBlend mode="normal" in2="effect3_innerShadow_121_160" result="effect4_innerShadow_121_160"/>
<feColorMatrix in="SourceAlpha" type="matrix" values="0 0 0 0 0 0 0 0 0 0 0 0 0 0 0 0 0 0 127 0" result="hardAlpha"/>
<feOffset dx="-6" dy="-4"/>
<feGaussianBlur stdDeviation="6"/>
<feComposite in2="hardAlpha" operator="arithmetic" k2="-1" k3="1"/>
<feColorMatrix type="matrix" values="0 0 0 0 1 0 0 0 0 1 0 0 0 0 1 0 0 0 0.3 0"/>
<feBlend mode="soft-light" in2="effect4_innerShadow_121_160" result="effect5_innerShadow_121_160"/>
</filter>
<filter id="filter2_diii_121_160" x="0" y="0" width="345" height="340" filterUnits="userSpaceOnUse" color-interpolation-filters="sRGB">
<feFlood flood-opacity="0" result="BackgroundImageFix"/>
<feColorMatrix in="SourceAlpha" type="matrix" values="0 0 0 0 0 0 0 0 0 0 0 0 0 0 0 0 0 0 127 0" result="hardAlpha"/>
<feOffset dx="4" dy="4"/>
<feGaussianBlur stdDeviation="10"/>
<feColorMatrix type="matrix" values="0 0 0 0 0 0 0 0 0 0 0 0 0 0 0 0 0 0 0.4 0"/>
<feBlend mode="overlay" in2="BackgroundImageFix" result="effect1_dropShadow_121_160"/>
<feBlend mode="normal" in="SourceGraphic" in2="effect1_dropShadow_121_160" result="shape"/>
<feColorMatrix in="SourceAlpha" type="matrix" values="0 0 0 0 0 0 0 0 0 0 0 0 0 0 0 0 0 0 127 0" result="hardAlpha"/>
<feOffset dx="1" dy="1"/>
<feGaussianBlur stdDeviation="0.5"/>
<feComposite in2="hardAlpha" operator="arithmetic" k2="-1" k3="1"/>
<feColorMatrix type="matrix" values="0 0 0 0 1 0 0 0 0 1 0 0 0 0 1 0 0 0 1 0"/>
<feBlend mode="soft-light" in2="shape" result="effect2_innerShadow_121_160"/>
<feColorMatrix in="SourceAlpha" type="matrix" values="0 0 0 0 0 0 0 0 0 0 0 0 0 0 0 0 0 0 127 0" result="hardAlpha"/>
<feOffset dx="-1" dy="-1"/>
<feGaussianBlur stdDeviation="0.5"/>
<feComposite in2="hardAlpha" operator="arithmetic" k2="-1" k3="1"/>
<feColorMatrix type="matrix" values="0 0 0 0 0 0 0 0 0 0 0 0 0 0 0 0 0 0 0.9 0"/>
<feBlend mode="overlay" in2="effect2_innerShadow_121_160" result="effect3_innerShadow_121_160"/>
<feColorMatrix in="SourceAlpha" type="matrix" values="0 0 0 0 0 0 0 0 0 0 0 0 0 0 0 0 0 0 127 0" result="hardAlpha"/>
<feOffset dx="-1" dy="-1"/>
<feGaussianBlur stdDeviation="0.5"/>
<feComposite in2="hardAlpha" operator="arithmetic" k2="-1" k3="1"/>
<feColorMatrix type="matrix" values="0 0 0 0 0 0 0 0 0 0 0 0 0 0 0 0 0 0 0.4 0"/>
<feBlend mode="normal" in2="effect3_innerShadow_121_160" result="effect4_innerShadow_121_160"/>
</filter>
<linearGradient id="paint0_linear_121_160" x1="166" y1="26" x2="166" y2="306" gradientUnits="userSpaceOnUse">
<stop stop-color="#FFAD31"/>
<stop offset="0.333333" stop-color="#FD9230"/>
<stop offset="0.666667" stop-color="#EE2290"/>
<stop offset="1" stop-color="#FA15FF"/>
</linearGradient>
<linearGradient id="paint1_linear_121_160" x1="166" y1="26" x2="166" y2="306" gradientUnits="userSpaceOnUse">
<stop stop-color="#CD7B00"/>
<stop offset="1" stop-color="#FFA0ED" stop-opacity="0"/>
</linearGradient>
<linearGradient id="paint2_linear_121_160" x1="313.47" y1="105.384" x2="24.3057" y2="222.776" gradientUnits="userSpaceOnUse">
<stop stop-color="#BABABA"/>
<stop offset="0.487715" stop-color="#EEEEEE"/>
<stop offset="1" stop-color="#7B7B7B"/>
</linearGradient>
<clipPath id="clip0_121_160">
<rect width="345" height="340" fill="white"/>
</clipPath>
</defs>
</svg>
