<svg width="66" height="64" viewBox="0 0 66 64" fill="none" xmlns="http://www.w3.org/2000/svg">
    <circle cx="33.314" cy="32" r="31.25" stroke="#3A3A3A" stroke-width="1.5" />
    <circle cx="42.3488" cy="36.2558" r="18.5988" stroke="#3A3A3A" stroke-width="1.5" />
    <path
        d="M4.32275 50V48.8516L18.3774 33.9219C20.4738 31.7161 22.0962 29.875 23.2446 28.3984C24.3931 26.9219 25.1951 25.5911 25.6509 24.4062C26.1248 23.2214 26.3618 22 26.3618 20.7422V20.6875C26.3618 18.901 25.9061 17.306 24.9946 15.9023C24.1014 14.4805 22.88 13.3594 21.3306 12.5391C19.7811 11.7005 18.0311 11.2812 16.0806 11.2812C14.0936 11.2812 12.3254 11.6823 10.7759 12.4844C9.24463 13.2865 8.02327 14.3893 7.11182 15.793C6.21859 17.1966 5.70817 18.7917 5.58057 20.5781L5.55322 20.9609H4.18604L4.21338 20.5508C4.34098 18.5091 4.9152 16.6953 5.93604 15.1094C6.9751 13.5234 8.36051 12.2747 10.0923 11.3633C11.8423 10.4518 13.8293 9.99609 16.0532 9.99609C18.2954 9.99609 20.2915 10.4701 22.0415 11.418C23.8097 12.3659 25.1951 13.651 26.1978 15.2734C27.2186 16.8776 27.729 18.6823 27.729 20.6875V20.7422C27.729 22.0911 27.4738 23.4128 26.9634 24.707C26.4712 25.9831 25.6144 27.4232 24.3931 29.0273C23.1717 30.6133 21.4764 32.5547 19.3071 34.8516L5.63525 49.3711L6.37354 47.7305V49.3711L5.63525 48.7148H29.4517V50H4.32275Z"
        fill="#3A3A3A" />
    <path
        d="M35.8047 45.6484V43.2754H36.2441L59.125 18.7246H61L43.4512 37.5625H43.3926L35.8047 45.6484ZM34.6328 61V18.7246H36.127V61H34.6328ZM61.1758 61L42.4258 38.1191L43.4805 37.0938L63.0801 61H61.1758Z"
        fill="#3A3A3A" />
</svg>
    