<svg width="60" height="64" viewBox="0 0 60 64" fill="none" xmlns="http://www.w3.org/2000/svg">
    <path
        d="M28.5126 1.31818C29.4248 0.978339 30.4347 0.970238 31.3497 1.29712C41.872 5.05616 47.7363 8.32953 55.9273 15.4904C56.5958 16.0747 57.0581 16.8677 57.2361 17.7366C59.5006 28.7906 59.1956 35.4799 57.2084 46.2195C57.0415 47.1217 56.5762 47.9485 55.8911 48.5551C47.299 56.1638 41.4591 59.4423 31.2293 62.7924C30.3867 63.0683 29.4704 63.062 28.632 62.7744C18.3834 59.2573 12.5784 55.8342 4.03148 48.5751C3.29849 47.9526 2.80334 47.0859 2.63863 46.138C0.742827 35.2275 0.647992 28.5118 2.63794 17.7546C2.8021 16.8673 3.25805 16.0544 3.93012 15.4568C11.5749 8.65833 17.5122 5.41657 28.5126 1.31818Z"
        stroke="#3B3B3B" stroke-width="1.5" />
    <path d="M2 22.9045C9.56579 8.9022 39.1711 20.677 2.98684 49H27" stroke="#3A3A3A"
        stroke-width="1.5" />
    <circle cx="28" cy="23" r="14.25" stroke="#3A3A3A" stroke-width="1.5" />
    <circle cx="34.5" cy="31.5" r="14.75" stroke="#3A3A3A" stroke-width="1.5" />
    <path
        d="M33.4043 43.9277V41.7524H33.8071L54.7812 19.2476H56.5L40.4136 36.5156H40.3599L33.4043 43.9277ZM32.3301 58V19.2476H33.6997V58H32.3301ZM56.6611 58L39.4736 37.0259L40.4404 36.0859L58.4067 58H56.6611Z"
        fill="#3A3A3A" />
</svg>
    