<svg width="340" height="340" viewBox="0 0 340 340" fill="none" xmlns="http://www.w3.org/2000/svg">
<g clip-path="url(#clip0_121_146)">
<g filter="url(#filter0_d_121_146)">
<g filter="url(#filter1_iiiii_121_146)">
<path fill-rule="evenodd" clip-rule="evenodd" d="M276.024 252.582C294.798 228.757 306 198.687 306 166C306 139.514 298.645 114.747 285.867 93.6275L268.96 111.776C282.597 126.913 290.897 146.952 290.897 168.929C290.897 195.002 279.216 218.347 260.801 234.015L276.024 252.582ZM271.806 257.682L255.703 238.031C241.606 248.294 224.249 254.349 205.478 254.349C195.869 254.349 186.63 252.762 178.01 249.837V278.167H171.414V247.287C161.641 243.032 152.818 237.003 145.354 229.606H41.2496C64.4167 274.953 111.583 306 166 306C208.254 306 246.137 287.281 271.806 257.682ZM171.414 239.584C145.166 226.906 127.058 200.032 127.058 168.929C127.058 137.827 145.166 110.953 171.414 98.2748V239.584ZM178.01 242.404V208.879L206.732 178.271L251.258 232.606C238.376 241.884 222.565 247.349 205.478 247.349C195.814 247.349 186.558 245.601 178.01 242.404ZM256.362 228.6L211.315 173.655L264.169 116.919C276.444 130.76 283.897 148.974 283.897 168.929C283.897 192.821 273.213 214.217 256.362 228.6ZM264.741 107.412L279.54 91.5338H284.575C259.797 52.163 215.954 26 166 26C134.894 26 106.157 36.1446 82.9182 53.3059C85.0225 53.102 87.1798 53 89.3902 53C99.2888 53 108.101 55.0924 115.827 59.2772C123.633 63.4619 129.749 69.1355 134.175 76.2979C138.682 83.3799 140.935 91.3471 140.935 100.199V100.441C140.935 105.843 140.008 111.146 138.154 116.349C153.788 96.3593 178.133 83.51 205.478 83.51C228.492 83.51 249.381 92.6119 264.741 107.412ZM259.968 112.534L178.527 199.918H178.01V95.4552C186.558 92.2581 195.814 90.51 205.478 90.51C226.648 90.51 245.859 98.899 259.968 112.534ZM73.4139 60.9843C61.3165 71.6581 51.0777 84.3896 43.2451 98.6312C43.212 98.9912 43.1824 99.353 43.1564 99.7166L43.0357 101.407H41.7592C31.6912 120.732 26 142.701 26 166C26 186.567 30.4349 206.098 38.4006 223.689L99.6509 158.625C108.906 148.888 116.068 140.76 121.138 134.241C126.208 127.722 129.749 121.848 131.761 116.617C133.853 111.386 134.9 105.994 134.9 100.441V100.199C134.9 92.3128 132.888 85.2711 128.864 79.0744C124.921 72.7972 119.529 67.8479 112.688 64.2265C105.848 60.5246 98.1219 58.6736 89.5109 58.6736C83.7251 58.6736 78.3594 59.4438 73.4139 60.9843ZM126.208 137.017L126.231 136.988C122.25 146.855 120.058 157.636 120.058 168.929C120.058 189.881 127.602 209.072 140.121 223.932H46.6572V223.368L103.755 162.73C113.332 152.59 120.816 144.019 126.208 137.017Z" fill="url(#paint0_linear_121_146)"/>
</g>
<g filter="url(#filter2_diii_121_146)">
<path fill-rule="evenodd" clip-rule="evenodd" d="M278.231 265.522C250.753 296.487 210.655 316 166 316C83.1573 316 16 248.843 16 166C16 135.637 25.0214 107.381 40.5299 83.7665C41.6581 80.8976 43.0567 78.1666 44.7257 75.5737C48.1401 70.3622 52.4017 65.9756 57.5104 62.4139C84.824 33.8156 123.331 16 166 16C248.843 16 316 83.1573 316 166C316 201.814 303.449 234.696 282.505 260.488L297 278.167H288.593L278.231 265.522ZM271.806 257.682C246.137 287.281 208.255 306 166 306C111.583 306 64.4167 274.953 41.2497 229.606H145.354C152.818 237.003 161.641 243.032 171.414 247.287V278.167H178.01V249.837C186.63 252.762 195.869 254.349 205.478 254.349C224.249 254.349 241.606 248.294 255.703 238.031L271.806 257.682ZM276.024 252.582C294.798 228.757 306 198.687 306 166C306 139.514 298.645 114.747 285.867 93.6275L268.96 111.776C282.597 126.913 290.897 146.952 290.897 168.929C290.897 195.002 279.216 218.347 260.801 234.015L276.024 252.582ZM256.362 228.6L211.315 173.655L264.169 116.919C276.444 130.76 283.897 148.974 283.897 168.929C283.897 192.821 273.213 214.217 256.362 228.6ZM251.258 232.606L206.732 178.271L178.01 208.879V242.404C186.558 245.601 195.814 247.349 205.478 247.349C222.565 247.349 238.376 241.884 251.258 232.606ZM171.414 239.584V98.2748C145.166 110.953 127.058 137.827 127.058 168.929C127.058 200.032 145.166 226.906 171.414 239.584ZM178.01 95.4552C186.558 92.2581 195.814 90.51 205.478 90.51C226.648 90.51 245.859 98.899 259.968 112.534L178.527 199.918H178.01V95.4552ZM264.741 107.412C249.381 92.6119 228.492 83.51 205.478 83.51C178.133 83.51 153.788 96.3593 138.154 116.349C140.008 111.146 140.935 105.843 140.935 100.441V100.199C140.935 91.3471 138.682 83.3799 134.175 76.298C129.749 69.1355 123.633 63.4619 115.827 59.2772C108.101 55.0924 99.2888 53 89.3902 53C87.1798 53 85.0225 53.102 82.9182 53.3059C106.157 36.1446 134.894 26 166 26C215.954 26 259.797 52.163 284.575 91.5338H279.54L264.741 107.412ZM26 166C26 142.701 31.6912 120.732 41.7592 101.407H43.0357L43.1564 99.7166C43.1824 99.353 43.212 98.9912 43.2451 98.6312C51.0777 84.3896 61.3165 71.6581 73.4139 60.9843C78.3594 59.4438 83.7251 58.6736 89.5109 58.6736C98.1219 58.6736 105.848 60.5246 112.688 64.2265C119.529 67.8479 124.921 72.7972 128.864 79.0744C132.888 85.2711 134.9 92.3128 134.9 100.199V100.441C134.9 105.994 133.853 111.386 131.761 116.617C129.749 121.848 126.208 127.722 121.138 134.241C116.068 140.76 108.906 148.888 99.6509 158.625L38.4006 223.689C30.4349 206.098 26 186.567 26 166ZM126.208 137.017L126.231 136.988C122.25 146.855 120.058 157.636 120.058 168.929C120.058 189.881 127.602 209.072 140.121 223.932H46.6572V223.368L103.755 162.73C113.332 152.59 120.816 144.019 126.208 137.017Z" fill="url(#paint1_linear_121_146)"/>
</g>
</g>
</g>
<defs>
<filter id="filter0_d_121_146" x="16" y="16" width="300" height="300" filterUnits="userSpaceOnUse" color-interpolation-filters="sRGB">
<feFlood flood-opacity="0" result="BackgroundImageFix"/>
<feColorMatrix in="SourceAlpha" type="matrix" values="0 0 0 0 0 0 0 0 0 0 0 0 0 0 0 0 0 0 127 0" result="hardAlpha"/>
<feOffset/>
<feColorMatrix type="matrix" values="0 0 0 0 0 0 0 0 0 0 0 0 0 0 0 0 0 0 0.27 0"/>
<feBlend mode="normal" in2="BackgroundImageFix" result="effect1_dropShadow_121_146"/>
<feBlend mode="normal" in="SourceGraphic" in2="effect1_dropShadow_121_146" result="shape"/>
</filter>
<filter id="filter1_iiiii_121_146" x="20" y="22" width="296" height="294" filterUnits="userSpaceOnUse" color-interpolation-filters="sRGB">
<feFlood flood-opacity="0" result="BackgroundImageFix"/>
<feBlend mode="normal" in="SourceGraphic" in2="BackgroundImageFix" result="shape"/>
<feColorMatrix in="SourceAlpha" type="matrix" values="0 0 0 0 0 0 0 0 0 0 0 0 0 0 0 0 0 0 127 0" result="hardAlpha"/>
<feOffset dx="-4" dy="-4"/>
<feGaussianBlur stdDeviation="5"/>
<feComposite in2="hardAlpha" operator="arithmetic" k2="-1" k3="1"/>
<feColorMatrix type="matrix" values="0 0 0 0 1 0 0 0 0 1 0 0 0 0 1 0 0 0 0.3 0"/>
<feBlend mode="soft-light" in2="shape" result="effect1_innerShadow_121_146"/>
<feColorMatrix in="SourceAlpha" type="matrix" values="0 0 0 0 0 0 0 0 0 0 0 0 0 0 0 0 0 0 127 0" result="hardAlpha"/>
<feOffset dx="-3" dy="-3"/>
<feGaussianBlur stdDeviation="2"/>
<feComposite in2="hardAlpha" operator="arithmetic" k2="-1" k3="1"/>
<feColorMatrix type="matrix" values="0 0 0 0 1 0 0 0 0 1 0 0 0 0 1 0 0 0 0.4 0"/>
<feBlend mode="soft-light" in2="effect1_innerShadow_121_146" result="effect2_innerShadow_121_146"/>
<feColorMatrix in="SourceAlpha" type="matrix" values="0 0 0 0 0 0 0 0 0 0 0 0 0 0 0 0 0 0 127 0" result="hardAlpha"/>
<feOffset dx="4" dy="4"/>
<feGaussianBlur stdDeviation="2"/>
<feComposite in2="hardAlpha" operator="arithmetic" k2="-1" k3="1"/>
<feColorMatrix type="matrix" values="0 0 0 0 0 0 0 0 0 0 0 0 0 0 0 0 0 0 0.3 0"/>
<feBlend mode="hard-light" in2="effect2_innerShadow_121_146" result="effect3_innerShadow_121_146"/>
<feColorMatrix in="SourceAlpha" type="matrix" values="0 0 0 0 0 0 0 0 0 0 0 0 0 0 0 0 0 0 127 0" result="hardAlpha"/>
<feOffset dx="10" dy="10"/>
<feGaussianBlur stdDeviation="8"/>
<feComposite in2="hardAlpha" operator="arithmetic" k2="-1" k3="1"/>
<feColorMatrix type="matrix" values="0 0 0 0 0 0 0 0 0 0 0 0 0 0 0 0 0 0 0.15 0"/>
<feBlend mode="normal" in2="effect3_innerShadow_121_146" result="effect4_innerShadow_121_146"/>
<feColorMatrix in="SourceAlpha" type="matrix" values="0 0 0 0 0 0 0 0 0 0 0 0 0 0 0 0 0 0 127 0" result="hardAlpha"/>
<feOffset dx="-6" dy="-4"/>
<feGaussianBlur stdDeviation="6"/>
<feComposite in2="hardAlpha" operator="arithmetic" k2="-1" k3="1"/>
<feColorMatrix type="matrix" values="0 0 0 0 1 0 0 0 0 1 0 0 0 0 1 0 0 0 0.3 0"/>
<feBlend mode="soft-light" in2="effect4_innerShadow_121_146" result="effect5_innerShadow_121_146"/>
</filter>
<filter id="filter2_diii_121_146" x="0" y="0" width="340" height="340" filterUnits="userSpaceOnUse" color-interpolation-filters="sRGB">
<feFlood flood-opacity="0" result="BackgroundImageFix"/>
<feColorMatrix in="SourceAlpha" type="matrix" values="0 0 0 0 0 0 0 0 0 0 0 0 0 0 0 0 0 0 127 0" result="hardAlpha"/>
<feOffset dx="4" dy="4"/>
<feGaussianBlur stdDeviation="10"/>
<feColorMatrix type="matrix" values="0 0 0 0 0 0 0 0 0 0 0 0 0 0 0 0 0 0 0.4 0"/>
<feBlend mode="overlay" in2="BackgroundImageFix" result="effect1_dropShadow_121_146"/>
<feBlend mode="normal" in="SourceGraphic" in2="effect1_dropShadow_121_146" result="shape"/>
<feColorMatrix in="SourceAlpha" type="matrix" values="0 0 0 0 0 0 0 0 0 0 0 0 0 0 0 0 0 0 127 0" result="hardAlpha"/>
<feOffset dx="1" dy="1"/>
<feGaussianBlur stdDeviation="0.5"/>
<feComposite in2="hardAlpha" operator="arithmetic" k2="-1" k3="1"/>
<feColorMatrix type="matrix" values="0 0 0 0 1 0 0 0 0 1 0 0 0 0 1 0 0 0 1 0"/>
<feBlend mode="soft-light" in2="shape" result="effect2_innerShadow_121_146"/>
<feColorMatrix in="SourceAlpha" type="matrix" values="0 0 0 0 0 0 0 0 0 0 0 0 0 0 0 0 0 0 127 0" result="hardAlpha"/>
<feOffset dx="-1" dy="-1"/>
<feGaussianBlur stdDeviation="0.5"/>
<feComposite in2="hardAlpha" operator="arithmetic" k2="-1" k3="1"/>
<feColorMatrix type="matrix" values="0 0 0 0 0 0 0 0 0 0 0 0 0 0 0 0 0 0 0.9 0"/>
<feBlend mode="overlay" in2="effect2_innerShadow_121_146" result="effect3_innerShadow_121_146"/>
<feColorMatrix in="SourceAlpha" type="matrix" values="0 0 0 0 0 0 0 0 0 0 0 0 0 0 0 0 0 0 127 0" result="hardAlpha"/>
<feOffset dx="-1" dy="-1"/>
<feGaussianBlur stdDeviation="0.5"/>
<feComposite in2="hardAlpha" operator="arithmetic" k2="-1" k3="1"/>
<feColorMatrix type="matrix" values="0 0 0 0 0 0 0 0 0 0 0 0 0 0 0 0 0 0 0.4 0"/>
<feBlend mode="normal" in2="effect3_innerShadow_121_146" result="effect4_innerShadow_121_146"/>
</filter>
<linearGradient id="paint0_linear_121_146" x1="205.478" y1="83.51" x2="205.478" y2="254.349" gradientUnits="userSpaceOnUse">
<stop stop-color="#0081DF"/>
<stop offset="1" stop-color="#5EA8FF"/>
</linearGradient>
<linearGradient id="paint1_linear_121_146" x1="313.47" y1="104.493" x2="25.1317" y2="222.729" gradientUnits="userSpaceOnUse">
<stop stop-color="#BABABA"/>
<stop offset="0.487715" stop-color="#EEEEEE"/>
<stop offset="1" stop-color="#7B7B7B"/>
</linearGradient>
<clipPath id="clip0_121_146">
<rect width="340" height="340" fill="white"/>
</clipPath>
</defs>
</svg>
