<svg width="60" height="64" viewBox="0 0 60 64" fill="none" xmlns="http://www.w3.org/2000/svg">
    <path
        d="M28.5126 1.31818C29.4248 0.978339 30.4347 0.970238 31.3497 1.29712C41.872 5.05616 47.7363 8.32953 55.9273 15.4904C56.5958 16.0747 57.0581 16.8677 57.2361 17.7366C59.5006 28.7906 59.1956 35.4799 57.2084 46.2195C57.0415 47.1217 56.5762 47.9485 55.8911 48.5551C47.299 56.1638 41.4591 59.4423 31.2293 62.7924C30.3867 63.0683 29.4704 63.062 28.632 62.7744C18.3834 59.2573 12.5784 55.8342 4.03148 48.5751C3.29849 47.9526 2.80334 47.0859 2.63863 46.138C0.742827 35.2275 0.647992 28.5118 2.63794 17.7546C2.8021 16.8673 3.25805 16.0544 3.93012 15.4568C11.5749 8.65833 17.5122 5.41657 28.5126 1.31818Z"
        stroke="#3B3B3B" stroke-width="1.5" />
    <circle cx="28" cy="15" r="12.25" stroke="#3A3A3A" stroke-width="1.5" />
    <circle cx="41" cy="32" r="17.25" stroke="#3A3A3A" stroke-width="1.5" />
    <path
        d="M35.9238 48.4629V46.5249H36.2827L54.9688 26.4751H56.5L42.1685 41.8594H42.1206L35.9238 48.4629ZM34.9668 61V26.4751H36.187V61H34.9668ZM56.6436 61L41.3311 42.314L42.1924 41.4766L58.1987 61H56.6436Z"
        fill="#3A3A3A" />
    <path
        d="M31.5732 39C31.5732 46.8471 24.9928 53.25 16.8232 53.25C8.65361 53.25 2.07318 46.8471 2.07318 39C2.07318 31.1529 8.65361 24.75 16.8232 24.75C24.9928 24.75 31.5732 31.1529 31.5732 39Z"
        stroke="#3A3A3A" stroke-width="1.5" />
    <path d="M34 16H13.5765L3 34" stroke="#3A3A3A" stroke-width="1.5" />
</svg>
    