<svg width="24" height="24" viewBox="0 0 24 24" fill="none" xmlns="http://www.w3.org/2000/svg">
    <path fill-rule="evenodd" clip-rule="evenodd"
        d="M8.64871 7.76691L11.2668 2.6573C11.5688 2.06784 12.2991 1.83102 12.8978 2.12835C13.1329 2.24508 13.3231 2.43386 13.4397 2.66625L15.9122 7.59389C16.1142 7.99642 16.509 8.27127 16.9619 8.32451L22.1395 8.93321C22.8424 9.01584 23.3442 9.64378 23.2602 10.3358C23.2257 10.6207 23.0934 10.8856 22.8854 11.0867L18.793 15.041C18.6277 15.2007 18.5477 15.4271 18.5765 15.6533L19.2566 20.9918C19.3539 21.7561 18.8035 22.4533 18.0272 22.5492C17.733 22.5855 17.4346 22.53 17.1741 22.3906L12.8504 20.0759C12.5376 19.9085 12.161 19.9036 11.8439 20.0631L7.36421 22.3149C6.73375 22.6318 5.96169 22.3856 5.63976 21.7649C5.51931 21.5327 5.4749 21.2695 5.51262 21.0114L5.87065 18.562C6.04577 17.3641 6.80208 16.3249 7.89804 15.7765L12.8735 13.2866C13.0063 13.2201 13.0593 13.0602 12.9917 12.9294C12.9394 12.8281 12.8274 12.7708 12.7131 12.7868L6.62816 13.6409C5.69797 13.7714 4.75461 13.5141 4.02532 12.9309L1.99856 11.3101C1.42019 10.8476 1.3322 10.0111 1.80203 9.44168C2.02051 9.1769 2.3341 9.00502 2.67782 8.96168L7.87381 8.30638C8.20706 8.26435 8.49739 8.06222 8.64871 7.76691Z"
        fill="url(#paint0_linear_8208_5522)" />
    <defs>
        <linearGradient id="paint0_linear_8208_5522" x1="21.5948" y1="5.34914" x2="3.17457"
            y2="25.8626" gradientUnits="userSpaceOnUse">
            <stop offset="0.139343" stop-color="#FA7FD8" />
            <stop offset="0.830677" stop-color="#1F90FF" />
        </linearGradient>
    </defs>
</svg>
    