<svg width="93" height="30" viewBox="0 0 93 30" fill="none" xmlns="http://www.w3.org/2000/svg">
    <path
        d="M19.5003 5.39741L13.0013 16.1947C12.9118 16.342 12.6827 16.2549 12.7157 16.0861L14.4733 6.75161C14.4907 6.66274 14.4315 6.57694 14.3415 6.56073L12.7624 6.27508C12.6727 6.25887 12.587 6.31785 12.571 6.40656L10.9511 15.6591C10.9208 15.8284 10.675 15.828 10.6451 15.6586L8.24686 2.18838C8.23126 2.09973 8.14584 2.04053 8.05629 2.05623L6.47443 2.33384C6.38467 2.34954 6.32505 2.43457 6.34144 2.52322L8.90351 16.1018C8.93471 16.2702 8.70609 16.3554 8.61732 16.2084L2.11317 5.39387C2.06636 5.316 1.9644 5.29103 1.88629 5.33822L0.520088 6.16405C0.442705 6.21081 0.418275 6.31071 0.465378 6.38735L9.47464 21.0407C9.54033 21.1485 9.65825 21.2144 9.78543 21.2144H11.8386C11.9652 21.2144 12.0827 21.1491 12.1485 21.042L21.1556 6.39066C21.2028 6.31386 21.1781 6.21371 21.1005 6.1671L19.7264 5.34227C19.6486 5.29552 19.5472 5.32027 19.5003 5.39741Z"
        fill="white" />
    <path
        d="M87.8426 16.9604L85.5737 12.8699H87.5579L88.8408 15.4559C89.0067 15.7967 89.3275 15.7967 89.4819 15.4559L90.7773 12.8699H92.559L88.0682 21.098H86.2034L87.8191 18.4298C88.1279 17.9126 88.1279 17.4659 87.8426 16.9604Z"
        fill="white" />
    <path
        d="M81.5852 14.1628H80.7295V12.8698H81.5852C81.9302 12.8698 82.0846 12.6817 82.0846 12.3644V11.6004L83.8662 10.4014V12.3644C83.8662 12.6817 84.0206 12.8698 84.3655 12.8698H85.4704V14.1628H84.3655C84.0206 14.1628 83.8662 14.3391 83.8662 14.6683V16.7488C83.8662 17.219 84.0803 17.4306 84.5555 17.4306H85.9813V18.7471H84.5199C83.0466 18.7471 82.0846 18.1358 82.0846 16.7841V14.6683C82.0846 14.3391 81.9302 14.1628 81.5852 14.1628Z"
        fill="white" />
    <path
        d="M74.438 15.7964C74.438 14.0097 75.7214 12.752 77.6223 12.752C79.4045 12.752 80.6638 13.9627 80.6638 15.6318C80.6638 15.7964 80.6512 15.961 80.6277 16.149H76.4342C76.2563 16.149 76.1605 16.2431 76.1605 16.4547C76.1605 16.9718 76.6839 17.6653 77.6223 17.6653C78.2043 17.6653 78.7037 17.4068 78.9528 16.9483H80.6873C80.39 18.1003 79.214 18.8878 77.67 18.8878C75.6502 18.8878 74.438 17.5361 74.438 15.7964ZM76.4342 15.0794H78.6916C78.8696 15.0794 78.9413 14.9853 78.9413 14.8678C78.9413 14.5387 78.5011 13.9744 77.5747 13.9744C76.6603 13.9744 76.1851 14.5504 76.1851 14.8678C76.1851 14.9971 76.2683 15.0794 76.4342 15.0794Z"
        fill="white" />
    <path
        d="M72.7658 12.1528C72.1602 12.1528 71.7085 11.7061 71.7085 11.1655C71.7085 10.613 72.1602 10.1663 72.7658 10.1663C73.3719 10.1663 73.8235 10.613 73.8235 11.1655C73.8235 11.7061 73.3719 12.1528 72.7658 12.1528ZM73.6686 18.7471H71.8629V12.8698H73.6686V18.7471Z"
        fill="white" />
    <path
        d="M67.8174 18.8878C65.7625 18.8878 64.3604 17.5008 64.3604 15.8199C64.3604 14.139 65.7625 12.752 67.8174 12.752C69.6236 12.752 70.9305 13.8099 71.1561 15.1852H69.2907C69.1363 14.5622 68.5664 14.139 67.8174 14.139C66.8193 14.139 66.1781 14.8913 66.1781 15.8199C66.1781 16.7485 66.8193 17.5008 67.8174 17.5008C68.5664 17.5008 69.1363 17.0777 69.2907 16.4547H71.1561C70.9305 17.8299 69.6236 18.8878 67.8174 18.8878Z"
        fill="white" />
    <path
        d="M60.5687 18.8878C58.5134 18.8878 57.1353 17.5008 57.1353 15.8199C57.1353 14.139 58.5134 12.752 60.5687 12.752C62.6241 12.752 64.0022 14.139 64.0022 15.8199C64.0022 17.5008 62.6241 18.8878 60.5687 18.8878ZM60.5687 17.5008C61.5548 17.5008 62.1724 16.772 62.1724 15.8199C62.1724 14.8678 61.5548 14.139 60.5687 14.139C59.5827 14.139 58.953 14.8678 58.953 15.8199C58.953 16.772 59.5827 17.5008 60.5687 17.5008Z"
        fill="white" />
    <path
        d="M50.3516 16.3961H52.2999C52.3711 17.0544 52.8108 17.4423 53.5713 17.4423C54.3197 17.4423 54.7474 17.0661 54.7474 16.5137C54.7474 16.0905 54.4977 15.7026 53.7257 15.4793L52.6326 15.1502C51.3851 14.7858 50.4822 13.9982 50.4822 12.8228C50.4822 11.471 51.7297 10.4014 53.5472 10.4014C55.2461 10.4014 56.6007 11.3065 56.7195 12.8698H54.7709C54.6877 12.1763 54.2124 11.8471 53.5352 11.8471C52.8108 11.8471 52.3711 12.235 52.3711 12.7523C52.3711 13.1871 52.6682 13.481 53.3572 13.6809L54.4857 14.0218C55.9355 14.4449 56.6598 15.3265 56.6598 16.4196C56.6598 17.8654 55.4246 18.8881 53.5713 18.8881C51.8128 18.8881 50.4941 17.983 50.3516 16.3961Z"
        fill="white" />
    <path
        d="M41.6846 18.7469H39.9146V10.5188H42.243L45.225 14.9738C45.5101 15.3969 46.0447 15.3147 46.0447 14.7387V10.5188H47.8148V18.7469H45.7358L42.5282 13.9511C42.2312 13.5279 41.6846 13.6102 41.6846 14.1627V18.7469Z"
        fill="white" />
    <path
        d="M34.5554 18.8881C31.8586 18.8881 29.9102 17.0191 29.9102 14.6448C29.9102 12.2704 31.8586 10.4014 34.5554 10.4014C37.2522 10.4014 39.2006 12.2821 39.2006 14.6448C39.2006 17.0074 37.2522 18.8881 34.5554 18.8881ZM34.5554 17.2895C36.1354 17.2895 37.1809 16.1258 37.1809 14.6448C37.1809 13.1636 36.1354 12 34.5554 12C32.9753 12 31.9298 13.1636 31.9298 14.6448C31.9298 16.1258 32.9753 17.2895 34.5554 17.2895Z"
        fill="white" />
    <path
        d="M24.9788 11.9646H22.9473V10.5188H30.2774V11.9646H28.2459C27.83 11.9646 27.5687 12.2114 27.5687 12.6111V18.7469H25.6559V12.6111C25.6559 12.2114 25.3945 11.9646 24.9788 11.9646Z"
        fill="white" />
</svg>
    