<svg width="12" height="12" viewBox="0 0 12 12" fill="none" xmlns="http://www.w3.org/2000/svg">
    <g clip-path="url(#clip0_10506_9619)">
        <path
            d="M6.37217 11.7051C9.4241 11.7051 11.8982 9.36606 11.8982 6.48072C11.8982 3.59538 9.4241 1.25635 6.37217 1.25635C3.32024 1.25635 0.846161 3.59538 0.846161 6.48072C0.846161 9.36606 3.32024 11.7051 6.37217 11.7051Z"
            fill="#E18A04" />
        <path
            d="M6.3722 11.1018C9.42413 11.1018 11.8982 8.76279 11.8982 5.87745C11.8982 2.99211 9.42413 0.653076 6.3722 0.653076C3.32027 0.653076 0.846191 2.99211 0.846191 5.87745C0.846191 8.76279 3.32027 11.1018 6.3722 11.1018Z"
            fill="#E4A020" />
        <path
            d="M6.37217 0.931763C3.31986 0.931763 0.846161 3.27044 0.846161 6.15613C0.846161 9.04183 3.31986 11.3805 6.37217 11.3805C9.42448 11.3805 11.8982 9.04183 11.8982 6.15613C11.8982 3.27044 9.42448 0.931763 6.37217 0.931763ZM6.37217 10.7504C3.68881 10.7504 1.51265 8.69388 1.51265 6.15613C1.51265 3.61838 3.68881 1.56187 6.37217 1.56187C9.05552 1.56187 11.2317 3.61838 11.2317 6.15613C11.2317 8.69388 9.05644 10.7504 6.37217 10.7504Z"
            fill="#E18A04" />
        <path
            d="M6.3722 0.653076C3.3199 0.653076 0.846191 2.99175 0.846191 5.87745C0.846191 8.76314 3.3199 11.1018 6.3722 11.1018C9.42451 11.1018 11.8982 8.76314 11.8982 5.87745C11.8982 2.99175 9.42451 0.653076 6.3722 0.653076ZM6.3722 10.4717C3.68885 10.4717 1.51268 8.4152 1.51268 5.87745C1.51268 3.3397 3.68885 1.28319 6.3722 1.28319C9.05556 1.28319 11.2317 3.3397 11.2317 5.87745C11.2317 8.4152 9.05647 10.4717 6.3722 10.4717Z"
            fill="url(#paint0_linear_10506_9619)" />
        <g style="mix-blend-mode:overlay" opacity="0.15">
            <path
                d="M6.37241 5.87745C8.41766 5.87745 10.2038 4.82669 11.1587 3.26526C10.2038 1.70384 8.41766 0.653076 6.37241 0.653076C4.32717 0.653076 2.54101 1.70384 1.58614 3.26526C2.54193 4.82669 4.32717 5.87745 6.37241 5.87745Z"
                fill="white" />
        </g>
        <path d="M5.83943 8.92621V4.7737H4.20182V3.80868H8.66138V4.7737H7.02377V8.92621H5.83943Z"
            fill="black" />
        <path d="M5.83943 8.92621V4.7737H4.20182V3.80868H8.66138V4.7737H7.02377V8.92621H5.83943Z"
            fill="#E18A04" />
        <path d="M5.66676 9.09891V4.9464H4.02915V3.98138H8.48871V4.9464H6.8511V9.09891H5.66676Z"
            fill="black" />
        <path d="M5.66676 9.09891V4.9464H4.02915V3.98138H8.48871V4.9464H6.8511V9.09891H5.66676Z"
            fill="url(#paint1_linear_10506_9619)" />
    </g>
    <defs>
        <linearGradient id="paint0_linear_10506_9619" x1="2.21579" y1="13.4803" x2="6.84875"
            y2="3.99903" gradientUnits="userSpaceOnUse">
            <stop stop-color="#FFA100" />
            <stop offset="1" stop-color="#FFD800" />
        </linearGradient>
        <linearGradient id="paint1_linear_10506_9619" x1="5.02255" y1="17.1718" x2="12.2033"
            y2="14.439" gradientUnits="userSpaceOnUse">
            <stop stop-color="#FFA100" />
            <stop offset="1" stop-color="#FFD800" />
        </linearGradient>
        <clipPath id="clip0_10506_9619">
            <rect width="11.052" height="11.052" fill="white"
                transform="translate(0.846191 0.653076)" />
        </clipPath>
    </defs>
</svg>