<svg width="20" height="20" viewBox="0 0 20 20" fill="white" xmlns="http://www.w3.org/2000/svg">
    <path fill-rule="evenodd" clip-rule="evenodd"
        d="M12.6833 5.22333C12.7428 5.06884 12.8612 4.94425 13.0124 4.87691C13.1636 4.80958 13.3354 4.80499 13.49 4.86416L18.4417 6.76416C18.5184 6.79361 18.5885 6.83788 18.6481 6.89445C18.7077 6.95103 18.7555 7.01879 18.7888 7.09387C18.8222 7.16894 18.8404 7.24986 18.8425 7.33199C18.8446 7.41412 18.8304 7.49584 18.8008 7.5725L16.9008 12.5225C16.8731 12.6012 16.8298 12.6736 16.7735 12.7353C16.7173 12.797 16.6493 12.8469 16.5735 12.8819C16.4977 12.9169 16.4157 12.9363 16.3322 12.9391C16.2488 12.9419 16.1656 12.9279 16.0877 12.898C16.0097 12.8681 15.9385 12.8229 15.8783 12.765C15.8181 12.7072 15.7702 12.6378 15.7372 12.5611C15.7043 12.4844 15.687 12.4018 15.6865 12.3184C15.686 12.2349 15.7022 12.1521 15.7342 12.075L17.0925 8.5325L16.1875 8.93583C14.2224 9.80691 12.6182 11.3296 11.6458 13.2467C11.6011 13.3346 11.5361 13.4107 11.4563 13.4688C11.3765 13.5268 11.2841 13.5651 11.1866 13.5805C11.0892 13.596 10.9894 13.5881 10.8956 13.5576C10.8017 13.5271 10.7164 13.4748 10.6467 13.405L7.50001 10.26L2.31668 15.4433C2.19875 15.5571 2.04084 15.62 1.87697 15.6185C1.71309 15.617 1.55637 15.5512 1.44054 15.4353C1.32471 15.3194 1.25906 15.1626 1.25771 14.9987C1.25637 14.8348 1.31944 14.677 1.43334 14.5592L7.05834 8.93416C7.17553 8.81712 7.33438 8.75138 7.50001 8.75138C7.66563 8.75138 7.82449 8.81712 7.94168 8.93416L10.9467 11.9392C12.0676 10.1094 13.7184 8.66383 15.68 7.79416L16.585 7.39166L13.0425 6.03166C12.9657 6.0023 12.8955 5.95809 12.8359 5.90155C12.7762 5.84501 12.7283 5.77726 12.6948 5.70217C12.6614 5.62709 12.6431 5.54615 12.641 5.46398C12.6389 5.38181 12.653 5.30004 12.6825 5.22333H12.6833Z"
    />
</svg>
    