<svg width="30" height="31" viewBox="0 0 30 31" fill="none" xmlns="http://www.w3.org/2000/svg">
    <g clip-path="url(#clip0_2012_11289)">
        <path opacity="0.01" d="M0 0.186401H30V30.1864H0V0.186401Z" fill="#202425" />
        <path
            d="M26.3981 9.60924C26.7724 9.98365 26.9826 10.4914 26.9826 11.0208C26.9826 11.5502 26.7724 12.058 26.3981 12.4324L16.4153 22.4152C16.0409 22.7894 15.5331 22.9997 15.0037 22.9997C14.4743 22.9997 13.9666 22.7894 13.5922 22.4152L3.60937 12.4324C3.41868 12.2482 3.26658 12.0279 3.16194 11.7843C3.0573 11.5407 3.00223 11.2787 2.99992 11.0136C2.99762 10.7485 3.04814 10.4856 3.14852 10.2402C3.24891 9.99488 3.39716 9.77196 3.58463 9.58449C3.77209 9.39703 3.99501 9.24878 4.24038 9.14839C4.48575 9.04801 4.74865 8.99749 5.01375 8.99979C5.27885 9.0021 5.54084 9.05717 5.78443 9.16181C6.02802 9.26645 6.24833 9.41855 6.4325 9.60924L15.0037 18.1805L23.5749 9.60924C23.9493 9.23495 24.4571 9.02468 24.9865 9.02468C25.5159 9.02468 26.0237 9.23495 26.3981 9.60924Z"
            fill="#C8C8C8" />
    </g>
    <defs>
        <clipPath id="clip0_2012_11289">
            <rect width="30" height="30" fill="white" transform="translate(0 0.186401)" />
        </clipPath>
    </defs>
</svg>
    