<svg width="30" height="17" viewBox="0 0 30 17" fill="none" xmlns="http://www.w3.org/2000/svg">
    <path
        d="M0.400646 2.53556L13.6475 15.7825C13.7755 15.9105 13.9274 16.0122 14.0947 16.0815C14.262 16.1508 14.4412 16.1865 14.6223 16.1865C14.8033 16.1865 14.9826 16.1508 15.1499 16.0815C15.3171 16.0122 15.4691 15.9105 15.597 15.7825L28.8439 2.53556C29.0354 2.3429 29.1657 2.09793 29.2184 1.83144C29.2711 1.56495 29.2438 1.28883 29.14 1.03779C29.0362 0.786759 28.8605 0.572011 28.635 0.420547C28.4095 0.269084 28.1443 0.187664 27.8726 0.186523H1.37195C1.1003 0.187664 0.835054 0.269084 0.60955 0.420547C0.384046 0.572011 0.208349 0.786759 0.104549 1.03779C0.000747959 1.28883 -0.0265246 1.56495 0.0261592 1.83144C0.078843 2.09793 0.209131 2.3429 0.400646 2.53556Z"
        fill="#C8C8C8" />
</svg>
    