<svg xmlns="http://www.w3.org/2000/svg" width="12" height="12" viewBox="0 0 12 12" fill="none">
    <path
        d="M2.85229 1.4906H7.84683C8.58511 1.4906 9.18042 2.08474 9.18042 2.82419V7.81873C9.18042 8.55701 8.58628 9.15232 7.84683 9.15232H2.85229C2.11401 9.15232 1.5187 8.55818 1.5187 7.81873V2.82419C1.5187 2.08591 2.11284 1.4906 2.85229 1.4906ZM2.23823 7.78357C2.23823 8.13162 2.523 8.43279 2.88745 8.43279H7.81167C8.15972 8.43279 8.46089 8.14802 8.46089 7.78357V2.85935C8.46089 2.5113 8.17612 2.21013 7.81167 2.21013H2.88745C2.5394 2.21013 2.23823 2.4949 2.23823 2.85935V7.78357Z"
        fill="white" />
    <path
        d="M10.1766 3.27307C10.3547 3.27307 10.493 3.41135 10.5117 3.5719V9.12073C10.4695 9.88479 9.84375 10.4836 9.06914 10.4836H3.62461C3.44766 10.4836 3.30352 10.3395 3.28711 10.1625C3.28711 9.97034 3.44766 9.82503 3.62461 9.82503L9.05156 9.8262C9.48516 9.8262 9.83906 9.47229 9.83906 9.0387V3.61057C9.83906 3.41838 9.99961 3.27307 10.1766 3.27307Z"
        fill="white" />
</svg>