<svg width="24" height="24" viewBox="0 0 24 24" fill="none" xmlns="http://www.w3.org/2000/svg">
    <rect x="0.5" y="0.5" width="23" height="23" rx="5.5" stroke="#131517" stroke-opacity="0.08" />
    <path
        d="M9.08333 7V8.25M14.9167 7V8.25M7 15.75V9.5C7 9.16848 7.1317 8.85054 7.36612 8.61612C7.60054 8.3817 7.91848 8.25 8.25 8.25H15.75C16.0815 8.25 16.3995 8.3817 16.6339 8.61612C16.8683 8.85054 17 9.16848 17 9.5V15.75M7 15.75C7 16.0815 7.1317 16.3995 7.36612 16.6339C7.60054 16.8683 7.91848 17 8.25 17H15.75C16.0815 17 16.3995 16.8683 16.6339 16.6339C16.8683 16.3995 17 16.0815 17 15.75M7 15.75V11.5833C7 11.2518 7.1317 10.9339 7.36612 10.6994C7.60054 10.465 7.91848 10.3333 8.25 10.3333H15.75C16.0815 10.3333 16.3995 10.465 16.6339 10.6994C16.8683 10.9339 17 11.2518 17 11.5833V15.75M12 12.4167H12.0044V12.4211H12V12.4167ZM12 13.6667H12.0044V13.6711H12V13.6667ZM12 14.9167H12.0044V14.9211H12V14.9167ZM10.75 13.6667H10.7544V13.6711H10.75V13.6667ZM10.75 14.9167H10.7544V14.9211H10.75V14.9167ZM9.5 13.6667H9.50444V13.6711H9.5V13.6667ZM9.5 14.9167H9.50444V14.9211H9.5V14.9167ZM13.25 12.4167H13.2544V12.4211H13.25V12.4167ZM13.25 13.6667H13.2544V13.6711H13.25V13.6667ZM13.25 14.9167H13.2544V14.9211H13.25V14.9167ZM14.5 12.4167H14.5044V12.4211H14.5V12.4167ZM14.5 13.6667H14.5044V13.6711H14.5V13.6667Z"
        stroke="#717374" stroke-width="0.6" stroke-linecap="round" stroke-linejoin="round" />
</svg>
    