<svg width="25" height="24" viewBox="0 0 25 24" fill="none" xmlns="http://www.w3.org/2000/svg">
    <path
        d="M19.4308 5.26368C18.1561 4.67878 16.7892 4.24785 15.3599 4.00104C15.3339 3.99627 15.3079 4.00818 15.2945 4.03198C15.1187 4.34466 14.9239 4.75258 14.7876 5.0732C13.2503 4.84306 11.721 4.84306 10.2153 5.0732C10.0789 4.74545 9.87707 4.34466 9.70048 4.03198C9.68707 4.00897 9.66107 3.99707 9.63504 4.00104C8.20659 4.24706 6.83963 4.67799 5.56411 5.26368C5.55307 5.26844 5.54361 5.27638 5.53732 5.28669C2.94449 9.16033 2.23421 12.9387 2.58265 16.6703C2.58423 16.6886 2.59447 16.706 2.60867 16.7171C4.31934 17.9734 5.97642 18.7361 7.60273 19.2416C7.62876 19.2496 7.65634 19.24 7.6729 19.2186C8.05761 18.6933 8.40054 18.1393 8.69456 17.5568C8.71192 17.5227 8.69535 17.4822 8.65989 17.4687C8.11594 17.2624 7.598 17.0108 7.09977 16.7251C7.06037 16.7021 7.05721 16.6457 7.09346 16.6187C7.19831 16.5402 7.30318 16.4584 7.4033 16.3759C7.42141 16.3608 7.44665 16.3576 7.46794 16.3671C10.7411 17.8615 14.2846 17.8615 17.5191 16.3671C17.5404 16.3568 17.5657 16.36 17.5846 16.3751C17.6847 16.4576 17.7895 16.5402 17.8952 16.6187C17.9314 16.6457 17.9291 16.7021 17.8897 16.7251C17.3914 17.0163 16.8735 17.2624 16.3288 17.4679C16.2933 17.4814 16.2775 17.5227 16.2949 17.5568C16.5952 18.1385 16.9381 18.6924 17.3157 19.2178C17.3315 19.24 17.3599 19.2496 17.3859 19.2416C19.0201 18.7361 20.6772 17.9734 22.3879 16.7171C22.4028 16.706 22.4123 16.6894 22.4139 16.6711C22.8309 12.357 21.7154 8.60957 19.4568 5.28748C19.4513 5.27638 19.4419 5.26844 19.4308 5.26368ZM9.18335 14.3982C8.19792 14.3982 7.38594 13.4935 7.38594 12.3824C7.38594 11.2713 8.18217 10.3666 9.18335 10.3666C10.1924 10.3666 10.9965 11.2793 10.9807 12.3824C10.9807 13.4935 10.1845 14.3982 9.18335 14.3982ZM15.829 14.3982C14.8435 14.3982 14.0316 13.4935 14.0316 12.3824C14.0316 11.2713 14.8278 10.3666 15.829 10.3666C16.838 10.3666 17.6421 11.2793 17.6264 12.3824C17.6264 13.4935 16.838 14.3982 15.829 14.3982Z"
        fill="#7D55AE" />
</svg>