<svg width="18" height="18" viewBox="0 0 18 18" fill="#5865F2" xmlns="http://www.w3.org/2000/svg">
<path d="M15.2378 3.17237C14.0905 2.62973 12.8602 2.22994 11.5739 2.00096C11.5505 1.99654 11.5271 2.00759 11.515 2.02967C11.3568 2.31976 11.1815 2.6982 11.0588 2.99565C9.6753 2.78214 8.29889 2.78214 6.94374 2.99565C6.82099 2.69159 6.63936 2.31976 6.48043 2.02967C6.46836 2.00832 6.44496 1.99728 6.42154 2.00096C5.13593 2.22921 3.90567 2.629 2.7577 3.17237C2.74776 3.17678 2.73924 3.18415 2.73359 3.19372C0.400044 6.78745 -0.239213 10.2928 0.0743851 13.7548C0.075804 13.7717 0.0850274 13.7879 0.0977985 13.7982C1.63741 14.9637 3.12878 15.6713 4.59246 16.1403C4.61588 16.1476 4.6407 16.1388 4.65561 16.1189C5.00184 15.6315 5.31048 15.1176 5.57511 14.5772C5.59072 14.5455 5.57582 14.508 5.5439 14.4955C5.05435 14.304 4.5882 14.0706 4.1398 13.8056C4.10433 13.7842 4.10149 13.7319 4.13412 13.7069C4.22848 13.634 4.32286 13.5582 4.41297 13.4816C4.42927 13.4676 4.45198 13.4647 4.47115 13.4735C7.41696 14.8599 10.6062 14.8599 13.5172 13.4735C13.5364 13.4639 13.5591 13.4669 13.5761 13.4809C13.6662 13.5574 13.7606 13.634 13.8557 13.7069C13.8883 13.7319 13.8862 13.7842 13.8507 13.8056C13.4023 14.0758 12.9361 14.304 12.4459 14.4947C12.414 14.5072 12.3998 14.5455 12.4154 14.5772C12.6857 15.1169 12.9943 15.6308 13.3342 16.1182C13.3484 16.1388 13.3739 16.1476 13.3973 16.1403C14.8681 15.6713 16.3595 14.9637 17.8991 13.7982C17.9126 13.7879 17.9211 13.7724 17.9225 13.7555C18.2978 9.75313 17.2939 6.27648 15.2612 3.19445C15.2562 3.18415 15.2477 3.17678 15.2378 3.17237ZM6.01502 11.6468C5.12812 11.6468 4.39735 10.8075 4.39735 9.77671C4.39735 8.74592 5.11395 7.90659 6.01502 7.90659C6.92315 7.90659 7.64686 8.75329 7.63266 9.77671C7.63266 10.8075 6.91606 11.6468 6.01502 11.6468ZM11.9961 11.6468C11.1092 11.6468 10.3784 10.8075 10.3784 9.77671C10.3784 8.74592 11.095 7.90659 11.9961 7.90659C12.9042 7.90659 13.6279 8.75329 13.6137 9.77671C13.6137 10.8075 12.9042 11.6468 11.9961 11.6468Z" fill="#5865F2"/>
</svg>
