<svg width="25" height="24" viewBox="0 0 25 24" fill="none" xmlns="http://www.w3.org/2000/svg">
    <path
        d="M18.5488 6.16052C17.3781 5.62337 16.1227 5.22761 14.8102 5.00095C14.7863 4.99658 14.7624 5.00751 14.7501 5.02937C14.5886 5.31653 14.4098 5.69115 14.2845 5.98559C12.8728 5.77424 11.4683 5.77424 10.0855 5.98559C9.96021 5.6846 9.77488 5.31653 9.6127 5.02937C9.60039 5.00824 9.57651 4.99731 9.55261 5.00095C8.24076 5.22689 6.98539 5.62264 5.81399 6.16052C5.80385 6.1649 5.79516 6.17219 5.78939 6.18166C3.40821 9.73909 2.7559 13.2091 3.0759 16.636C3.07735 16.6528 3.08676 16.6688 3.09979 16.679C4.67083 17.8328 6.19264 18.5332 7.6862 18.9974C7.7101 19.0047 7.73542 18.996 7.75064 18.9763C8.10394 18.4938 8.41887 17.9851 8.6889 17.4501C8.70484 17.4188 8.68962 17.3816 8.65705 17.3692C8.15751 17.1797 7.68185 16.9487 7.22429 16.6863C7.1881 16.6652 7.18521 16.6134 7.2185 16.5887C7.31479 16.5165 7.4111 16.4414 7.50304 16.3656C7.51967 16.3518 7.54285 16.3489 7.56241 16.3576C10.5684 17.73 13.8226 17.73 16.7931 16.3576C16.8127 16.3481 16.8359 16.3511 16.8532 16.3649C16.9452 16.4407 17.0415 16.5165 17.1385 16.5887C17.1718 16.6134 17.1696 16.6652 17.1334 16.6863C16.6758 16.9538 16.2002 17.1797 15.6999 17.3685C15.6673 17.3809 15.6529 17.4188 15.6688 17.4501C15.9446 17.9844 16.2596 18.4931 16.6063 18.9756C16.6208 18.996 16.6469 19.0047 16.6708 18.9974C18.1716 18.5332 19.6934 17.8328 21.2644 16.679C21.2782 16.6688 21.2869 16.6535 21.2883 16.6368C21.6713 12.6748 20.6469 9.23329 18.5727 6.18238C18.5676 6.17219 18.5589 6.1649 18.5488 6.16052ZM9.13779 14.5494C8.23279 14.5494 7.4871 13.7185 7.4871 12.6982C7.4871 11.6778 8.21833 10.8469 9.13779 10.8469C10.0645 10.8469 10.8029 11.6851 10.7884 12.6982C10.7884 13.7185 10.0572 14.5494 9.13779 14.5494ZM15.2409 14.5494C14.3359 14.5494 13.5903 13.7185 13.5903 12.6982C13.5903 11.6778 14.3215 10.8469 15.2409 10.8469C16.1676 10.8469 16.9061 11.6851 16.8916 12.6982C16.8916 13.7185 16.1676 14.5494 15.2409 14.5494Z"
        fill="white" />
</svg>