<svg width="101" height="100" viewBox="0 0 101 100" fill="none" xmlns="http://www.w3.org/2000/svg">
    <path
        d="M32.9326 82.3626V92.0281L75.8796 90.4685C75.8796 90.4685 77.3432 90.4454 77.2968 88.8295C77.2504 87.2136 77.2968 81.9454 77.2968 81.9454C77.2968 81.9454 77.2173 80.7169 75.6345 80.7401C74.0518 80.7632 32.9326 82.3626 32.9326 82.3626Z"
        stroke="white" stroke-width="0.5" stroke-miterlimit="10" />
    <path
        d="M32.9326 92.0284L21.9988 83.79C21.9988 83.79 21.5551 83.6708 21.5551 81.939V75.5052C21.5551 75.5052 21.4955 74.2734 22.863 74.0913L32.9326 82.3628"
        stroke="white" stroke-width="0.5" stroke-miterlimit="10" />
    <path d="M22.863 74.0912V58.7832" stroke="white" stroke-width="0.5" stroke-miterlimit="10" />
    <path d="M25.7505 76.4655V60.7437" stroke="white" stroke-width="0.5" stroke-miterlimit="10" />
    <path d="M29.2041 79.2996V63.4585" stroke="white" stroke-width="0.5" stroke-miterlimit="10" />
    <path d="M32.9325 66.439V82.3628" stroke="white" stroke-width="0.5" stroke-miterlimit="10" />
    <path d="M40.7206 82.0616V66.2603" stroke="white" stroke-width="0.5" stroke-miterlimit="10" />
    <path d="M67.8299 81.0217V65.5117" stroke="white" stroke-width="0.5" stroke-miterlimit="10" />
    <path d="M75.2008 80.7437V65.2305" stroke="white" stroke-width="0.5" stroke-miterlimit="10" />
    <path d="M75.5617 53.396L32.9326 54.5847V66.439" stroke="white" stroke-width="0.5"
        stroke-miterlimit="10" />
    <path d="M22.7902 46.9224L32.9326 54.5846" stroke="white" stroke-width="0.5"
        stroke-miterlimit="10" />
    <path d="M36.3531 52.0086L66.7869 51.1377" stroke="white" stroke-width="0.5"
        stroke-miterlimit="10" />
    <path
        d="M21.555 57.5347L32.9325 66.4387L75.1974 65.2334C75.1974 65.2334 77.2968 65.187 77.2504 63.4586C77.204 61.7301 77.2504 53.3956 77.2504 53.3956L65.7736 43.9453L23.3928 45.144C23.3928 45.144 21.5385 45.2698 21.555 46.9917C21.5716 48.7135 21.555 57.5347 21.555 57.5347Z"
        stroke="white" stroke-width="0.5" stroke-miterlimit="10" />
    <path d="M21.5551 34.9356L36.3531 52.0085L66.7869 51.1376L87.2008 22.0747"
        fill="url(#paint0_linear_9250_10486)" />
    <path
        d="M68.3576 32.7147C74.078 32.7147 78.7152 28.0775 78.7152 22.3571C78.7152 16.6368 74.078 11.9995 68.3576 11.9995C62.6373 11.9995 58 16.6368 58 22.3571C58 28.0775 62.6373 32.7147 68.3576 32.7147Z"
        stroke="white" stroke-width="0.8" stroke-miterlimit="10" />
    <path
        d="M75.3892 20.7312C76.0454 20.3044 75.8296 18.8089 74.9073 17.3909C73.985 15.9728 72.7054 15.1692 72.0493 15.596C71.3931 16.0227 71.6089 17.5182 72.5312 18.9363C73.4535 20.3543 74.7331 21.1579 75.3892 20.7312Z"
        fill="white" />
    <path
        d="M64.7152 23.3437C64.4172 24.8106 64.5662 26.3636 64.4437 27.8735C64.649 27.7344 64.8576 27.602 65.0662 27.4695C64.9702 26.1847 64.9967 24.9894 65.2682 23.7245C66.6391 24.8669 67.7185 25.1881 69.3477 25.8271C70.1291 25.5523 70.9073 25.294 71.6622 24.9496C69.6523 23.8867 67.7152 23.0225 65.8841 21.6516C66.4669 19.8669 67.3675 18.2576 68.1755 16.5688C67.9139 16.6483 67.6589 16.741 67.4006 16.8271C66.6192 18.2741 65.8907 19.698 65.3808 21.2642C64.394 20.4265 63.6291 19.496 62.8874 18.4364C62.2285 18.592 61.5 18.6185 60.8775 18.7874C61.6358 20.0556 63.4934 22.347 64.341 23.0523C65.1887 23.7576 64.6987 23.2808 64.7086 23.3437H64.7152ZM65.1523 21.7874C65.7053 22.198 65.1755 21.8073 66.0265 22.4397C66.8742 23.0722 69.1357 24.2708 70.404 24.8271C70.1026 25.0192 69.7218 25.1152 69.3444 25.2179C68.0232 24.847 66.5132 24.039 65.649 23.3238C64.7848 22.6086 65.5497 23.3006 64.6954 22.6152C63.8377 21.9298 62.3808 20.4265 61.8344 19.2046C62.1026 19.1318 62.3874 19.0821 62.7053 19.0755C63.0927 19.9232 64.4503 21.2112 64.9768 21.645C65.5 22.0788 65.2119 21.8172 65.1523 21.7907V21.7874Z"
        fill="white" />
    <path
        d="M44.2803 36.5711C46.3358 36.5711 48.0021 34.9048 48.0021 32.8493C48.0021 30.7938 46.3358 29.1274 44.2803 29.1274C42.2247 29.1274 40.5584 30.7938 40.5584 32.8493C40.5584 34.9048 42.2247 36.5711 44.2803 36.5711Z"
        stroke="white" stroke-width="0.5" stroke-miterlimit="10" />
    <path
        d="M22.7517 32.5023C25.9282 32.5023 28.5033 29.9272 28.5033 26.7507C28.5033 23.5741 25.9282 20.999 22.7517 20.999C19.5751 20.999 17 23.5741 17 26.7507C17 29.9272 19.5751 32.5023 22.7517 32.5023Z"
        stroke="white" stroke-width="0.5" stroke-miterlimit="10" />
    <path
        d="M20.7035 30.5176C21.0684 30.2803 20.9487 29.4491 20.4362 28.6611C19.9237 27.8732 19.2125 27.4268 18.8476 27.6641C18.4827 27.9014 18.6024 28.7325 19.1149 29.5205C19.6274 30.3085 20.3387 30.7549 20.7035 30.5176Z"
        fill="white" stroke="white" stroke-width="0.5" stroke-miterlimit="10" />
    <path
        d="M24.7748 26.2041C24.9404 25.3895 24.8576 24.5286 24.9238 23.6875C24.8079 23.7637 24.692 23.8365 24.5761 23.9127C24.6291 24.6279 24.6159 25.2901 24.4635 25.9921C23.702 25.3597 23.1026 25.1809 22.1986 24.8233C21.7649 24.9756 21.3311 25.118 20.9139 25.31C22.0298 25.8994 23.1059 26.3796 24.1225 27.1411C23.798 28.1312 23.298 29.0252 22.851 29.9623C22.9967 29.9193 23.139 29.8663 23.2814 29.8166C23.7152 29.012 24.1192 28.2239 24.4039 27.3531C24.9536 27.82 25.3775 28.3365 25.7881 28.9226C26.1523 28.8365 26.5596 28.8233 26.9039 28.7272C26.4834 28.0219 25.4536 26.7504 24.9801 26.3597C24.5099 25.969 24.7814 26.2339 24.7748 26.1974V26.2041ZM24.5331 27.0683C24.2251 26.8398 24.5198 27.0584 24.0496 26.7074C23.5794 26.3564 22.3212 25.6908 21.6192 25.3829C21.7881 25.2769 21.9967 25.2239 22.2086 25.1643C22.9404 25.3696 23.7814 25.82 24.2616 26.2173C24.7417 26.6147 24.3145 26.2305 24.7914 26.6113C25.2682 26.9921 26.0761 27.8266 26.3808 28.5054C26.2318 28.5451 26.0728 28.5749 25.8973 28.5782C25.6821 28.108 24.9271 27.3928 24.6357 27.1511C24.3443 26.9094 24.5066 27.055 24.5364 27.0716L24.5331 27.0683Z"
        fill="black" stroke="white" stroke-width="0.2" stroke-miterlimit="10" />
    <mask id="mask0_9250_10486" style="mask-type:luminance" maskUnits="userSpaceOnUse" x="51" y="68"
        width="8" height="10">
        <path d="M58.2783 68.75L51.1249 69.0273L51.4716 77.969L58.6249 77.6917L58.2783 68.75Z"
            fill="white" />
    </mask>
    <g mask="url(#mask0_9250_10486)">
        <path
            d="M54.7774 70.7887L51.4111 70.9183C51.2947 70.9227 51.2047 71.0259 51.209 71.151L51.2266 71.599C51.231 71.722 51.3298 71.8186 51.4462 71.8142L54.8126 71.6847C54.929 71.6803 55.019 71.5771 55.0146 71.4519L54.997 71.0039C54.9926 70.8809 54.8938 70.7843 54.7774 70.7887Z"
            fill="white" />
        <path fill-rule="evenodd" clip-rule="evenodd"
            d="M52.8626 68.9594C52.7462 68.9638 52.6562 69.067 52.6606 69.1921L52.9131 75.6745C53.0031 76.9152 54.0023 77.8705 55.1815 77.8243C55.2254 77.8243 55.2694 77.8199 55.3133 77.8156L55.2847 77.0931C54.4942 77.1085 53.8288 76.4716 53.7564 75.6416L53.5038 69.1592C53.4994 69.0362 53.4006 68.9396 53.2842 68.944L52.8626 68.9594Z"
            fill="white" />
        <path fill-rule="evenodd" clip-rule="evenodd"
            d="M55.7766 73.828C55.6448 73.8324 55.5153 73.8192 55.3945 73.7863L55.7744 73.7709L55.748 73.099C56.1301 73.0572 56.4178 72.7191 56.4024 72.3194C56.387 71.9198 56.073 71.6057 55.6887 71.5926L55.6558 70.7515C56.4397 70.7208 57.1029 71.3839 57.1359 72.2338C57.1688 73.0836 56.5605 73.7951 55.7744 73.8258L55.7766 73.828ZM55.4999 70.7603C55.3835 70.7647 55.2935 70.8679 55.2979 70.9931L55.3132 71.3839C55.3176 71.5069 55.4164 71.6035 55.5328 71.5991L55.6909 71.5926L55.658 70.7537L55.4999 70.7603Z"
            fill="white" />
        <path
            d="M54.336 73.3802C54.3316 73.2572 54.4217 73.154 54.5381 73.1474L55.9061 73.0947L55.9413 73.9885L54.5732 74.0412C54.4568 74.0456 54.358 73.9489 54.3536 73.826L54.336 73.378V73.3802Z"
            fill="white" />
        <path fill-rule="evenodd" clip-rule="evenodd"
            d="M56.0884 77.7893C57.2786 77.7432 58.2053 76.6914 58.157 75.4419C58.1087 74.1924 57.1029 73.2152 55.9127 73.2613L55.9413 73.9882C56.7296 73.9728 57.3884 74.6294 57.4213 75.4704C57.4543 76.3115 56.846 77.0164 56.0598 77.0625L56.0884 77.7893Z"
            fill="white" />
        <path
            d="M55.8579 77.2953C55.8535 77.1723 55.9435 77.0691 56.0599 77.0625L56.0884 77.7894C55.972 77.7937 55.8732 77.6971 55.8688 77.5741L55.8579 77.2953Z"
            fill="white" />
        <path
            d="M55.232 77.0954L55.3374 77.091C55.4538 77.0866 55.5526 77.1832 55.557 77.3062L55.568 77.585C55.5724 77.708 55.4823 77.8112 55.3659 77.8178L55.2605 77.8222L55.232 77.0954Z"
            fill="white" />
    </g>
    <defs>
        <linearGradient id="paint0_linear_9250_10486" x1="61.75" y1="52.5001" x2="54.875"
            y2="30.6251" gradientUnits="userSpaceOnUse">
            <stop offset="0.126992" stop-color="#70ED9D" stop-opacity="0.6" />
            <stop offset="0.90795" stop-color="#CF0063" stop-opacity="0" />
        </linearGradient>
    </defs>
</svg>