<svg width="17" height="16" viewBox="0 0 17 16" fill="none" xmlns="http://www.w3.org/2000/svg">
    <path
        d="M0.5 5.8705L3.14463 4.22707C3.7743 3.81621 5.33589 3.24101 6.54486 4.22707C8.05608 5.45965 8.05608 6.69344 9.9451 7.51515C11.4563 8.17253 12.3379 7.78906 12.5897 7.51515M7.30047 5.05L5.41145 7.51515C4.90771 8.06296 4.20248 9.32293 5.41145 9.9803C6.92267 10.802 7.30047 12.0346 7.30047 12.8563C7.30047 13.5137 7.30047 13.9519 7.30047 14.4997"
        stroke="#C0ABD9" stroke-linecap="round" stroke-linejoin="round" />
    <ellipse cx="10.5679" cy="2.14665" rx="1.64665" ry="1.64665" stroke="#C0ABD9" />
    <path
        d="M3.68151 11.3164L2.72705 12.4617C2.51495 12.7163 1.89986 13.2253 1.1363 13.2253C0.37274 13.2253 0.60605 13.2253 0.5 13.2253"
        stroke="#C0ABD9" stroke-linecap="round" stroke-linejoin="round" />
</svg>