<svg width="64" height="65" viewBox="0 0 64 65" fill="none" xmlns="http://www.w3.org/2000/svg">
    <g clip-path="url(#clip0_2405_31675)">
    <g clip-path="url(#clip1_2405_31675)">
    <path d="M22 21.3726C22 20.0465 22.5268 18.7747 23.4645 17.837C24.4021 16.8993 25.6739 16.3726 27 16.3726C28.3261 16.3726 29.5979 16.8993 30.5355 17.837C31.4732 18.7747 32 20.0465 32 21.3726C32 20.0465 32.5268 18.7747 33.4645 17.837C34.4021 16.8993 35.6739 16.3726 37 16.3726C38.3261 16.3726 39.5979 16.8993 40.5355 17.837C41.4732 18.7747 42 20.0465 42 21.3726V21.3846C42 21.5246 42 21.9246 41.924 22.3726H46C46.5304 22.3726 47.0391 22.5833 47.4142 22.9583C47.7893 23.3334 48 23.8421 48 24.3726V26.3726C48 26.903 47.7893 27.4117 47.4142 27.7868C47.0391 28.1618 46.5304 28.3726 46 28.3726H18C17.4696 28.3726 16.9609 28.1618 16.5858 27.7868C16.2107 27.4117 16 26.903 16 26.3726V24.3726C16 23.8421 16.2107 23.3334 16.5858 22.9583C16.9609 22.5833 17.4696 22.3726 18 22.3726H22.076C22.0232 22.0459 21.9978 21.7154 22 21.3846V21.3726ZM24.136 22.3726H30V21.3726C30 20.9786 29.9224 20.5885 29.7716 20.2245C29.6209 19.8605 29.3999 19.5298 29.1213 19.2512C28.8427 18.9727 28.512 18.7517 28.1481 18.6009C27.7841 18.4502 27.394 18.3726 27 18.3726C26.606 18.3726 26.2159 18.4502 25.8519 18.6009C25.488 18.7517 25.1573 18.9727 24.8787 19.2512C24.6001 19.5298 24.3791 19.8605 24.2284 20.2245C24.0776 20.5885 24 20.9786 24 21.3726C24 21.5426 24.004 21.9206 24.09 22.2326C24.102 22.2803 24.1174 22.327 24.136 22.3726ZM34 22.3726H39.864C39.8824 22.327 39.8978 22.2802 39.91 22.2326C39.996 21.9206 40 21.5426 40 21.3726C40 20.5769 39.6839 19.8138 39.1213 19.2512C38.5587 18.6886 37.7956 18.3726 37 18.3726C36.2044 18.3726 35.4413 18.6886 34.8787 19.2512C34.3161 19.8138 34 20.5769 34 21.3726V22.3726ZM46 30.3726V45.3726C46 46.1682 45.6839 46.9313 45.1213 47.4939C44.5587 48.0565 43.7956 48.3726 43 48.3726H34V30.3726H46ZM21 48.3726C20.2044 48.3726 19.4413 48.0565 18.8787 47.4939C18.3161 46.9313 18 46.1682 18 45.3726V30.3726H30V48.3726H21Z" fill="#F8B917"/>
    </g>
    </g>
    <defs>
    <clipPath id="clip0_2405_31675">
    <rect width="64" height="64" fill="white" transform="translate(0 0.559082)"/>
    </clipPath>
    <clipPath id="clip1_2405_31675">
    <rect width="32" height="32" fill="white" transform="translate(16 16.3726)"/>
    </clipPath>
    </defs>
    </svg>
    