<svg width="64" height="65" viewBox="0 0 64 65" fill="none" xmlns="http://www.w3.org/2000/svg">
    <g clip-path="url(#clip0_1736_3349)">
        <path
            d="M32 64.1865C49.6731 64.1865 64 49.8596 64 32.1865C64 14.5134 49.6731 0.186523 32 0.186523C14.3269 0.186523 0 14.5134 0 32.1865C0 49.8596 14.3269 64.1865 32 64.1865Z"
            fill="#121212" />
        <g clip-path="url(#clip1_1736_3349)">
            <path
                d="M22 21C22 19.6739 22.5268 18.4021 23.4645 17.4645C24.4021 16.5268 25.6739 16 27 16C28.3261 16 29.5979 16.5268 30.5355 17.4645C31.4732 18.4021 32 19.6739 32 21C32 19.6739 32.5268 18.4021 33.4645 17.4645C34.4021 16.5268 35.6739 16 37 16C38.3261 16 39.5979 16.5268 40.5355 17.4645C41.4732 18.4021 42 19.6739 42 21V21.012C42 21.152 42 21.552 41.924 22H46C46.5304 22 47.0391 22.2107 47.4142 22.5858C47.7893 22.9609 48 23.4696 48 24V26C48 26.5304 47.7893 27.0391 47.4142 27.4142C47.0391 27.7893 46.5304 28 46 28H18C17.4696 28 16.9609 27.7893 16.5858 27.4142C16.2107 27.0391 16 26.5304 16 26V24C16 23.4696 16.2107 22.9609 16.5858 22.5858C16.9609 22.2107 17.4696 22 18 22H22.076C22.0232 21.6734 21.9978 21.3429 22 21.012V21ZM24.136 22H30V21C30 20.606 29.9224 20.2159 29.7716 19.8519C29.6209 19.488 29.3999 19.1573 29.1213 18.8787C28.8427 18.6001 28.512 18.3791 28.1481 18.2284C27.7841 18.0776 27.394 18 27 18C26.606 18 26.2159 18.0776 25.8519 18.2284C25.488 18.3791 25.1573 18.6001 24.8787 18.8787C24.6001 19.1573 24.3791 19.488 24.2284 19.8519C24.0776 20.2159 24 20.606 24 21C24 21.17 24.004 21.548 24.09 21.86C24.102 21.9077 24.1174 21.9545 24.136 22ZM34 22H39.864C39.8824 21.9544 39.8978 21.9076 39.91 21.86C39.996 21.548 40 21.17 40 21C40 20.2044 39.6839 19.4413 39.1213 18.8787C38.5587 18.3161 37.7956 18 37 18C36.2044 18 35.4413 18.3161 34.8787 18.8787C34.3161 19.4413 34 20.2044 34 21V22ZM46 30V45C46 45.7956 45.6839 46.5587 45.1213 47.1213C44.5587 47.6839 43.7956 48 43 48H34V30H46ZM21 48C20.2044 48 19.4413 47.6839 18.8787 47.1213C18.3161 46.5587 18 45.7956 18 45V30H30V48H21Z"
                fill="#F8B917" />
        </g>
    </g>
    <defs>
        <clipPath id="clip0_1736_3349">
            <rect width="64" height="64" fill="white" transform="translate(0 0.186523)" />
        </clipPath>
        <clipPath id="clip1_1736_3349">
            <rect width="32" height="32" fill="white" transform="translate(16 16)" />
        </clipPath>
    </defs>
</svg>
    