<svg width="24" height="24" viewBox="0 0 24 24" fill="none" xmlns="http://www.w3.org/2000/svg">
    <path
        d="M21 11.6V20.4C21 20.8243 20.8314 21.2313 20.5314 21.5314C20.2313 21.8314 19.8243 22 19.4 22H4.2C3.77565 22 3.36869 21.8314 3.06863 21.5314C2.76857 21.2313 2.6 20.8243 2.6 20.4V11.6M11.4 4.8C11.4 4.24621 11.2358 3.70486 10.9281 3.2444C10.6204 2.78395 10.1831 2.42506 9.67151 2.21314C9.15988 2.00121 8.59689 1.94576 8.05375 2.0538C7.5106 2.16184 7.01169 2.42852 6.6201 2.8201C6.22851 3.21169 5.96184 3.7106 5.8538 4.25375C5.74576 4.79689 5.80121 5.35988 6.01314 5.87151C6.22506 6.38315 6.58395 6.82045 7.0444 7.12812C7.50486 7.43578 8.04621 7.6 8.6 7.6H11.4M11.4 4.8V7.6M11.4 4.8C11.4 4.24621 11.5642 3.70486 11.8719 3.2444C12.1796 2.78395 12.6169 2.42506 13.1285 2.21314C13.6401 2.00121 14.2031 1.94576 14.7463 2.0538C15.2894 2.16184 15.7883 2.42852 16.1799 2.8201C16.5715 3.21169 16.8382 3.7106 16.9462 4.25375C17.0542 4.79689 16.9988 5.35988 16.7869 5.87151C16.5749 6.38315 16.2161 6.82045 15.7556 7.12812C15.2951 7.43578 14.7538 7.6 14.2 7.6H11.4M11.4 7.6V22M2.2 11.6H21.4C22.0624 11.6 22.6 11.0624 22.6 10.4V8.8C22.6 8.1376 22.0624 7.6 21.4 7.6H2.2C1.5376 7.6 1 8.1376 1 8.8V10.4C1 11.0624 1.5376 11.6 2.2 11.6Z"
        stroke="#3A82F7" stroke-width="1.5" stroke-linecap="round" stroke-linejoin="round" />
</svg>
    