<svg width="379" height="500" viewBox="0 0 379 500" fill="none" xmlns="http://www.w3.org/2000/svg">
    <path
        d="M97.0589 0C90.5615 0 85.2942 5.59644 85.2942 12.5V106.25H11.7647C5.26724 106.25 0 111.846 0 118.75V143.75C0 150.654 5.26724 156.25 11.7647 156.25H85.2942V375H85.3724C87.6948 444.453 141.419 500 207.353 500C208.83 500 210.301 499.972 211.765 499.917V500H217.647C224.144 500 229.412 494.403 229.412 487.5V471.875C229.412 464.972 224.144 459.375 217.647 459.375H214.706V459.363C170.564 458.556 134.736 421.494 132.467 375H132.353V156.25H200C206.498 156.25 211.765 150.654 211.765 143.75V118.75C211.765 111.846 206.498 106.25 200 106.25H132.353V12.5C132.353 5.59644 127.086 0 120.588 0H97.0589Z"
        fill="white" />
    <path
        d="M181.551 237.5H249.198V237.394C270.566 235.849 287.433 217.599 287.433 195.312C287.433 173.026 270.566 154.776 249.198 153.231V153.125H240.374C233.877 153.125 228.609 147.528 228.609 140.625V118.75C228.609 111.846 233.877 106.25 240.374 106.25H249.198C293.057 106.25 328.609 144.725 328.609 192.187C328.609 217.402 318.575 240.08 302.592 255.801C347.129 274.404 378.609 320.062 378.609 373.437C378.609 443.337 324.621 500 258.021 500C251.524 500 246.257 494.403 246.257 487.5V471.875C246.257 464.972 251.524 459.375 258.021 459.375L258.021 459.362C302.012 458.528 337.433 420.378 337.433 373.437C337.433 326.497 302.012 288.347 258.021 287.514L258.021 287.5H181.551C175.053 287.5 169.786 281.904 169.786 275V250C169.786 243.097 175.053 237.5 181.551 237.5Z"
        fill="white" />
</svg>