<svg width="80" height="80" viewBox="0 0 80 80" fill="none" xmlns="http://www.w3.org/2000/svg">
    <g clip-path="url(#clip0_1139_21561)">
    <path d="M38.0011 26.001H78.0193C79.1242 26.001 80.0198 25.1054 80.0198 24.0005C80.0198 22.8957 79.1242 22 78.0193 22H38.0011C36.8962 22 36.0006 22.8957 36.0006 24.0005C36.0006 25.1054 36.8962 26.001 38.0011 26.001ZM38.0005 41.9563H77.924C79.0288 41.9563 79.9245 41.0606 79.9245 39.9558C79.9245 38.8509 79.0288 37.9552 77.924 37.9552H38.0005C36.8957 37.9552 36 38.8509 36 39.9558C36 41.0606 36.8957 41.9563 38.0005 41.9563ZM78.0193 53.999H38.0011C36.8962 53.999 36.0006 54.8946 36.0006 55.9995C36.0006 57.1043 36.8962 58 38.0011 58H78.0193C79.1242 58 80.0198 57.1043 80.0198 55.9995C80.0198 54.8946 79.1242 53.999 78.0193 53.999Z" fill="black"/>
    </g>
    <defs>
    <clipPath id="clip0_1139_21561">
    <rect width="80" height="80" fill="white"/>
    </clipPath>
    </defs>
    </svg>
    