<svg width="12" height="12" viewBox="0 0 12 12" fill="none" xmlns="http://www.w3.org/2000/svg">
    <rect x="0.3" y="0.3" width="11.4" height="11.4" rx="5.7" stroke="#C0ABD9" stroke-width="0.6" />
    <path
        d="M5.60091 9V4.928H6.40091V9H5.60091ZM6.00091 4.272C5.86757 4.272 5.75291 4.224 5.65691 4.128C5.56091 4.02667 5.51291 3.90933 5.51291 3.776C5.51291 3.63733 5.56091 3.52267 5.65691 3.432C5.75291 3.336 5.86757 3.288 6.00091 3.288C6.13957 3.288 6.25691 3.336 6.35291 3.432C6.44891 3.52267 6.49691 3.63733 6.49691 3.776C6.49691 3.90933 6.44891 4.02667 6.35291 4.128C6.25691 4.224 6.13957 4.272 6.00091 4.272Z"
        fill="#C0ABD9" />
</svg>