<svg width="160" height="160" viewBox="0 0 160 160" fill="none" xmlns="http://www.w3.org/2000/svg">
<path d="M28.8914 72.8395C33.8184 68.5972 39.6521 64.5031 46.2121 60.7413M136.19 85.8168C145.456 75.9138 149.584 65.6679 146.444 57.2585C143.267 48.7545 133.237 43.7033 119.5 42.3667" stroke="white" stroke-width="0.5" stroke-miterlimit="10"/>
<path d="M46.349 122.539C29.0948 122.387 16.1599 117.169 12.4684 107.289C9.93956 100.513 12.1254 92.5449 17.9214 84.519" stroke="white" stroke-width="0.5" stroke-miterlimit="10"/>
<path d="M18.8451 78.2974H27.9257" stroke="white" stroke-width="0.5" stroke-miterlimit="10"/>
<path d="M23.3857 73.4746V82.7267" stroke="white" stroke-width="0.5" stroke-miterlimit="10"/>
<path d="M20.113 74.9551L26.6589 81.5048" stroke="white" stroke-width="0.5" stroke-miterlimit="10"/>
<path d="M26.6592 75.0234L20.1133 81.5673" stroke="white" stroke-width="0.5" stroke-miterlimit="10"/>
<path d="M46.3491 122.536C46.2677 122.048 46.2328 121.554 46.2328 121.054V102.771M119.691 102.771V121.054C119.691 125.89 115.912 130.289 109.75 133.561" stroke="white" stroke-width="0.5" stroke-miterlimit="10"/>
<path d="M78.6129 117.862C60.3762 116.793 46.2263 109.069 46.2263 99.7067V81.4233M119.685 81.4233V99.7067C119.685 108.128 109.568 110.379 94 112.5" stroke="white" stroke-width="0.5" stroke-miterlimit="10"/>
<path d="M46.2327 63.4155V81.6988C46.2327 91.7994 62.6788 99.9822 82.9618 99.9822C103.245 99.9822 119.691 91.7936 119.691 81.6988V63.4155" stroke="white" stroke-width="0.5" stroke-miterlimit="10"/>
<path d="M46.2328 43.9932V62.2765C46.2328 72.377 62.6789 80.5598 82.962 80.5598C103.245 80.5598 119.691 72.3712 119.691 62.2765V43.9932" stroke="white" stroke-width="0.5" stroke-miterlimit="10"/>
<path d="M82.9634 62.2815C103.248 62.2815 119.693 54.0958 119.693 43.9982C119.693 33.9006 103.248 25.7148 82.9634 25.7148C62.6785 25.7148 46.2343 33.9006 46.2343 43.9982C46.2343 54.0958 62.6785 62.2815 82.9634 62.2815Z" fill="white" stroke="white" stroke-width="0.5" stroke-miterlimit="10"/>
<path d="M136.189 85.8164C126.248 96.44 110.389 106.674 91.2452 113.823C75.2234 119.803 59.5272 122.645 46.3481 122.534" stroke="white" stroke-width="0.5" stroke-miterlimit="10"/>
<path d="M91.3673 112.364C93.8031 126.632 106.546 136.36 119.824 134.094C121.894 133.739 124.143 133.356 126.818 132.902C137.584 131.066 141.514 116.2 139.462 104.158C137.328 91.6747 130.12 78.8892 118.946 81.0685C117.045 81.4404 112.662 82.1378 110.999 82.4226C97.7156 84.6891 88.9257 98.0907 91.3615 112.358L91.3673 112.364Z" fill="white" stroke="black" stroke-width="0.5" stroke-miterlimit="10"/>
<path d="M126.811 132.915C140.092 130.651 148.883 117.247 146.449 102.978C144.014 88.7084 131.275 78.9765 117.994 81.241C104.714 83.5055 95.9224 96.909 98.3571 111.178C100.792 125.448 113.531 135.18 126.811 132.915Z" fill="white" stroke="black" stroke-width="0.5" stroke-miterlimit="10"/>
<path d="M138.991 99.597C138.991 99.597 137.601 96.0694 134.637 96.575C131.672 97.0806 131.364 100.893 131.364 100.893" stroke="black" stroke-width="0.5" stroke-miterlimit="10" stroke-linecap="round"/>
<path d="M116.389 103.298C116.389 103.298 114.796 99.8055 111.035 100.451C107.273 101.096 106.715 104.949 106.715 104.949" stroke="black" stroke-width="0.5" stroke-miterlimit="10" stroke-linecap="round"/>
<path d="M137.421 106.502C137.421 106.502 137.427 117.515 127.038 119.811C116.65 122.106 110.342 111.122 110.342 111.122" stroke="black" stroke-width="0.5" stroke-miterlimit="10" stroke-linecap="round"/>
</svg>
