<svg width="121" height="120" viewBox="0 0 121 120" fill="none" xmlns="http://www.w3.org/2000/svg">
<path d="M20.7756 53.4883C24.5312 50.2547 28.9863 47.1354 34 44.2742M101.579 63.2612C108.558 55.8035 111.666 48.0877 109.302 41.7548C106.908 35.3484 99.3506 31.5441 89 30.5391" stroke="white" stroke-width="0.5" stroke-miterlimit="10"/>
<path d="M33.9225 90.9157C20.9288 90.802 11.1879 86.8718 8.40796 79.4316C6.50356 74.3285 8.14966 68.3283 12.5145 62.2842" stroke="white" stroke-width="0.5" stroke-miterlimit="10"/>
<path d="M13.2102 57.5977H20.0485" stroke="white" stroke-width="0.5" stroke-miterlimit="10"/>
<path d="M16.6294 53.9658V60.9333" stroke="white" stroke-width="0.5" stroke-miterlimit="10"/>
<path d="M14.1648 55.0807L19.0943 60.0131" stroke="white" stroke-width="0.5" stroke-miterlimit="10"/>
<path d="M19.0946 55.1322L14.165 60.0602" stroke="white" stroke-width="0.5" stroke-miterlimit="10"/>
<path d="M33.9225 90.9136C33.8612 90.5459 33.835 90.1739 33.835 89.7976L33.835 73" stroke="white" stroke-width="0.5" stroke-miterlimit="10"/>
<path d="M58.2195 87.3936C44.486 86.5883 33.8301 80.7718 33.8301 73.7212V59.9525M89.1496 59.9525V73.7212" stroke="white" stroke-width="0.5" stroke-miterlimit="10"/>
<path d="M89.1545 60.16V46.3913M33.835 46.3913V60.16C33.835 67.7664 46.2201 73.9287 61.4947 73.9287C63.8684 73.9287 66.1722 73.7798 68.3707 73.4997" stroke="white" stroke-width="0.5" stroke-miterlimit="10"/>
<path d="M33.835 31.7652V45.5338C33.835 53.1403 46.2201 59.3025 61.4947 59.3025C76.7693 59.3025 89.1545 53.1359 89.1545 45.5338V31.7652" stroke="white" stroke-width="0.5" stroke-miterlimit="10"/>
<path d="M61.4957 45.5374C76.7718 45.5374 89.1555 39.3729 89.1555 31.7687C89.1555 24.1645 76.7718 18 61.4957 18C46.2196 18 33.8359 24.1645 33.8359 31.7687C33.8359 39.3729 46.2196 45.5374 61.4957 45.5374Z" fill="white" stroke="white" stroke-width="0.5" stroke-miterlimit="10"/>
<path d="M67.7326 84.3514C55.6671 88.8549 43.8466 90.9951 33.9219 90.9119" stroke="white" stroke-width="0.5" stroke-miterlimit="10"/>
<path d="M94.5212 98.72C92.5074 99.0614 90.8131 99.3503 89.2546 99.6172C79.2554 101.324 69.659 93.9977 67.8246 83.2532L67.8202 83.2488C65.9859 72.5044 72.6053 62.412 82.6089 60.7051C83.861 60.4907 87.1619 59.9655 88.5935 59.6854" stroke="white" stroke-width="0.5" stroke-miterlimit="10"/>
<path d="M94.5167 98.7299C104.518 97.0245 111.139 86.9307 109.305 76.1847C107.471 65.4388 97.8777 58.1099 87.8768 59.8153C77.8759 61.5207 71.2549 71.6144 73.0885 82.3604C74.922 93.1064 84.5158 100.435 94.5167 98.7299Z" fill="white" stroke="white" stroke-width="0.5" stroke-miterlimit="10"/>
</svg>
