<svg width="120" height="120" viewBox="0 0 120 120" fill="none" xmlns="http://www.w3.org/2000/svg">
    <path
        d="M20.2757 53.4883C27.6612 47.1291 37.7524 41.212 49.4765 36.8311C77.3376 26.428 103.899 28.6338 108.802 41.7547C111.166 48.0876 108.058 55.8035 101.079 63.2612"
        stroke="white" stroke-width="0.5" stroke-miterlimit="10" />
    <path
        d="M33.4225 90.9157C20.4288 90.8019 10.6879 86.8718 7.90796 79.4316C6.00356 74.3285 7.64966 68.3282 12.0145 62.2842"
        stroke="white" stroke-width="0.5" stroke-miterlimit="10" />
    <path d="M12.7101 57.5977H19.5484" stroke="white" stroke-width="0.5" stroke-miterlimit="10" />
    <path d="M16.1294 53.9658V60.9333" stroke="white" stroke-width="0.5" stroke-miterlimit="10" />
    <path d="M13.6649 55.0811L18.5944 60.0135" stroke="white" stroke-width="0.5"
        stroke-miterlimit="10" />
    <path d="M18.5946 55.1318L13.665 60.0599" stroke="white" stroke-width="0.5"
        stroke-miterlimit="10" />
    <path
        d="M33.4225 90.914C33.3613 90.5463 33.335 90.1743 33.335 89.798V76.0293C33.335 69.587 49.8704 76.0293 60.9948 76.0293C71.4974 76.0293 88.6545 70.134 88.6545 76.0293V89.798C88.6545 93.4393 85.8089 96.7523 81.1683 99.2163"
        stroke="white" stroke-width="0.5" stroke-miterlimit="10" />
    <path
        d="M57.7197 87.3932C43.9861 86.5879 33.3302 80.7715 33.3302 73.7208V59.9521C33.3302 53.5098 49.8657 59.9521 60.99 59.9521C71.4926 59.9521 88.6497 54.0569 88.6497 59.9521V73.7208C88.6497 80.0625 80.0384 85.4019 68.3143 86.9993"
        fill="#5E2B9B" />
    <path
        d="M57.7197 87.3932C43.9861 86.5879 33.3302 80.7715 33.3302 73.7208V59.9521C33.3302 53.5098 49.8657 59.9521 60.99 59.9521C71.4926 59.9521 88.6497 54.0569 88.6497 59.9521V73.7208C88.6497 80.0625 80.0384 85.4019 68.3143 86.9993"
        stroke="white" stroke-width="0.5" stroke-miterlimit="10" />
    <path
        d="M88.6545 60.1603C88.6545 67.7624 76.2694 73.929 60.9948 73.929C45.7202 73.929 33.335 67.7667 33.335 60.1603V46.3916C33.335 39.9493 49.8704 46.3916 60.9948 46.3916C71.4974 46.3916 88.6545 40.4963 88.6545 46.3916V60.1603Z"
        fill="#592994" stroke="white" stroke-width="0.5" stroke-miterlimit="10" />
    <path
        d="M88.6545 45.5343C88.6545 53.1364 76.2694 59.303 60.9948 59.303C45.7202 59.303 33.335 53.1407 33.335 45.5343V31.7656C33.335 25.3233 49.8704 31.7656 60.9948 31.7656C71.4974 31.7656 88.6545 25.8704 88.6545 31.7656V45.5343Z"
        fill="#5F2B9D" stroke="white" stroke-width="0.5" stroke-miterlimit="10" />
    <path
        d="M60.9959 45.5374C76.2719 45.5374 88.6556 39.3729 88.6556 31.7687C88.6556 24.1645 76.2719 18 60.9959 18C45.7198 18 33.3361 24.1645 33.3361 31.7687C33.3361 39.3729 45.7198 45.5374 60.9959 45.5374Z"
        fill="white" stroke="white" stroke-width="0.5" stroke-miterlimit="10" />
    <path
        d="M101.078 63.2607C93.5922 71.2611 81.6492 78.9682 67.2327 84.3514C55.1671 88.8549 43.3467 90.995 33.4219 90.9119"
        stroke="white" stroke-width="0.5" stroke-miterlimit="10" />
    <path
        d="M67.3247 83.2528C69.159 93.9973 78.7554 101.324 88.7546 99.6168C90.3132 99.3498 92.0074 99.0609 94.0213 98.7196C102.129 97.3366 105.089 86.1413 103.543 77.0731C101.937 67.6722 96.5079 58.0437 88.0936 59.6849C86.662 59.965 83.361 60.4902 82.1089 60.7047C72.1054 62.4115 65.4859 72.5039 67.3203 83.2484L67.3247 83.2528Z"
        fill="white" stroke="black" stroke-width="0.5" stroke-miterlimit="10" />
    <path
        d="M94.0168 98.7301C104.018 97.0247 110.639 86.9309 108.805 76.1849C106.972 65.439 97.3778 58.1101 87.3769 59.8155C77.376 61.5208 70.7551 71.6146 72.5886 82.3606C74.4222 93.1066 84.0159 100.435 94.0168 98.7301Z"
        fill="white" stroke="black" stroke-width="0.5" stroke-miterlimit="10" />
    <path
        d="M103.189 73.6384C103.189 73.6384 102.142 70.9818 99.9097 71.3625C97.677 71.7433 97.4449 74.6143 97.4449 74.6143"
        stroke="black" stroke-width="0.5" stroke-miterlimit="10" stroke-linecap="round" />
    <path
        d="M86.1678 76.4261C86.1678 76.4261 84.9682 73.7957 82.1357 74.2815C79.3032 74.7673 78.8829 77.669 78.8829 77.669"
        stroke="black" stroke-width="0.5" stroke-miterlimit="10" stroke-linecap="round" />
    <path
        d="M102.007 78.8389C102.007 78.8389 102.011 87.1325 94.1876 88.8612C86.3643 90.59 81.6142 82.3182 81.6142 82.3182"
        stroke="black" stroke-width="0.5" stroke-miterlimit="10" stroke-linecap="round" />
</svg>