<svg width="32" height="32" viewBox="0 0 32 32" fill="none" xmlns="http://www.w3.org/2000/svg">
    <circle cx="16" cy="17.8145" r="10" stroke="#999999" stroke-width="1.5" />
    <path
        d="M16.3859 12.3251L17.9048 15.1396C17.9678 15.2563 18.0803 15.3381 18.2108 15.3619L21.3569 15.9367C21.6988 15.9992 21.8344 16.4166 21.5945 16.6681L19.3871 18.9824C19.2956 19.0784 19.2526 19.2107 19.2703 19.3421L19.6958 22.5118C19.742 22.8564 19.387 23.1143 19.0736 22.9639L16.1905 21.5797C16.0709 21.5223 15.9318 21.5223 15.8123 21.5797L12.9291 22.9639C12.6158 23.1143 12.2607 22.8564 12.307 22.5118L12.7325 19.3421C12.7501 19.2107 12.7071 19.0784 12.6156 18.9824L10.4083 16.6681C10.1684 16.4166 10.304 15.9992 10.6459 15.9367L13.792 15.3619C13.9225 15.3381 14.035 15.2563 14.098 15.1396L15.6169 12.3251C15.782 12.0192 16.2208 12.0192 16.3859 12.3251Z"
        stroke="#999999" stroke-width="1.5" />
</svg>
    