<svg width="28" height="29" viewBox="0 0 28 29" fill="none" xmlns="http://www.w3.org/2000/svg">
    <g opacity="0.9" clip-path="url(#clip0_1736_3344)">
        <path
            d="M14 28.1865C6.2803 28.1865 0 21.9062 0 14.1865C0 6.46683 6.2803 0.186523 14 0.186523C21.7197 0.186523 28 6.46683 28 14.1865C28 21.9062 21.7197 28.1865 14 28.1865ZM14 1.30652C6.89773 1.30652 1.11999 7.08451 1.11999 14.1865C1.11999 21.2885 6.89773 27.0665 14 27.0665C21.1023 27.0665 26.88 21.2885 26.88 14.1865C26.88 7.08455 21.1023 1.30652 14 1.30652Z"
            fill="#F8B917" />
        <path
            d="M14.5688 5.89596L16.8152 10.0586C16.9084 10.2311 17.0749 10.3521 17.2678 10.3874L21.9208 11.2375C22.4266 11.3299 22.6271 11.9472 22.2723 12.3192L19.0076 15.742C18.8723 15.8839 18.8087 16.0796 18.8348 16.2739L19.4641 20.9619C19.5325 21.4715 19.0074 21.853 18.5439 21.6305L14.2798 19.5833C14.103 19.4984 13.8972 19.4984 13.7204 19.5833L9.45634 21.6305C8.99289 21.853 8.46778 21.4715 8.53618 20.9619L9.1655 16.2739C9.1916 16.0796 9.12799 15.8839 8.99266 15.742L5.72804 12.3192C5.37321 11.9472 5.57377 11.3299 6.07951 11.2375L10.7325 10.3874C10.9255 10.3521 11.0919 10.2311 11.1851 10.0586L13.4315 5.89596C13.6756 5.44353 14.3247 5.44353 14.5688 5.89596Z"
            fill="#F8B917" />
    </g>
    <defs>
        <clipPath id="clip0_1736_3344">
            <rect width="28" height="28" fill="white" transform="translate(0 0.186523)" />
        </clipPath>
    </defs>
</svg>
    