<svg width="46" height="37" viewBox="0 0 46 37" fill="none" xmlns="http://www.w3.org/2000/svg">
    <path
        d="M6.3562 16.2508C7.93089 14.8949 9.79552 13.5865 11.8923 12.3843M40.6331 20.3965C43.5934 17.2329 44.912 13.9598 43.9091 11.2734C42.892 8.55163 39.678 6.93707 35.2769 6.51373"
        stroke="#503658" stroke-miterlimit="10" />
    <path
        d="M11.9333 32.1275C6.42134 32.0792 2.28924 30.412 1.10996 27.2559C0.302114 25.0912 1.00039 22.5459 2.85195 19.982"
        stroke="#503658" stroke-miterlimit="10" />
    <path d="M3.14734 17.9944H6.04817" stroke="#503658" stroke-width="0.5" stroke-miterlimit="10" />
    <path d="M4.59802 16.4537V19.4094" stroke="#503658" stroke-width="0.5" stroke-miterlimit="10" />
    <path d="M3.55249 16.9267L5.64361 19.019" stroke="#503658" stroke-width="0.5"
        stroke-miterlimit="10" />
    <path d="M5.64325 16.9485L3.55212 19.039" stroke="#503658" stroke-width="0.5"
        stroke-miterlimit="10" />
    <path d="M11.9334 32.1267C11.9074 31.9708 11.8962 31.813 11.8962 31.6533V24.5348"
        stroke="#503658" stroke-miterlimit="10" />
    <path d="M22.2403 30.6335C16.4145 30.2919 11.8943 27.8245 11.8943 24.8336V18.9929"
        stroke="#503658" stroke-miterlimit="10" />
    <path
        d="M35.3629 19.0809V13.2402M11.8962 13.2402V19.0809C11.8962 22.3076 17.15 24.9216 23.6296 24.9216C24.6777 24.9216 25.6938 24.8532 26.6608 24.7248"
        stroke="#503658" stroke-miterlimit="10" />
    <path
        d="M11.8962 7.03574V12.8764C11.8962 16.1031 17.15 18.7171 23.6296 18.7171C30.1091 18.7171 35.3629 16.1012 35.3629 12.8764V7.03574"
        stroke="#503658" stroke-miterlimit="10" />
    <path
        d="M23.6299 12.878C30.11 12.878 35.3632 10.263 35.3632 7.03732C35.3632 3.81159 30.11 1.19662 23.6299 1.19662C17.1498 1.19662 11.8966 3.81159 11.8966 7.03732C11.8966 10.263 17.1498 12.878 23.6299 12.878Z"
        fill="#503658" stroke="#503658" stroke-miterlimit="10" />
    <path d="M26.2756 29.3431C21.1573 31.2535 16.1431 32.1613 11.933 32.126" stroke="#503658"
        stroke-miterlimit="10" />
    <path
        d="M26.315 28.8771C27.0931 33.4349 31.1639 36.5428 35.4056 35.8187C36.0667 35.7055 36.7854 35.5829 37.6397 35.4381C41.0791 34.8514 42.3345 30.1024 41.679 26.2556C40.9974 22.2678 38.6946 18.1834 35.1252 18.8796C34.5179 18.9984 33.1176 19.2212 32.5865 19.3122C28.343 20.0362 25.535 24.3174 26.3131 28.8752L26.315 28.8771Z"
        stroke="#503658" stroke-miterlimit="10" />
    <path
        d="M37.638 35.4424C41.8804 34.7189 44.689 30.4371 43.9112 25.8787C43.1334 21.3202 39.0637 18.2113 34.8213 18.9347C30.5789 19.6582 27.7703 23.94 28.5481 28.4984C29.3259 33.0569 33.3956 36.1658 37.638 35.4424Z"
        fill="#503658" stroke="#503658" stroke-miterlimit="10" />
    <mask id="mask0_28_1532" style="mask-type:alpha" maskUnits="userSpaceOnUse" x="27" y="18"
        width="18" height="19">
        <path
            d="M37.638 35.4424C41.8804 34.7189 44.689 30.4371 43.9112 25.8787C43.1334 21.3202 39.0637 18.2113 34.8213 18.9347C30.5789 19.6582 27.7703 23.94 28.5481 28.4984C29.3259 33.0569 33.3956 36.1658 37.638 35.4424Z"
            fill="#F89701" stroke="#F89701" stroke-miterlimit="10" />
    </mask>
    <g mask="url(#mask0_28_1532)">
        <rect x="36.954" y="17.9287" width="4.31264" height="17.9148"
            transform="rotate(20 36.954 17.9287)" fill="#5F4866" />
    </g>
</svg>