<svg width="80" height="80" viewBox="0 0 80 80" fill="none" xmlns="http://www.w3.org/2000/svg">
    <path
        d="M14.4457 36.4198C19.3493 32.1976 26.0493 28.269 33.8334 25.3603C52.3317 18.4532 69.9667 19.9177 73.2223 28.6293C74.7919 32.834 72.7281 37.957 68.0948 42.9084"
        stroke="white" stroke-width="0.5" stroke-miterlimit="10" />
    <path
        d="M23.1745 61.2694C14.5474 61.1939 8.07996 58.5845 6.2342 53.6446C4.96978 50.2564 6.0627 46.2726 8.96069 42.2596"
        stroke="white" stroke-width="0.5" stroke-miterlimit="10" />
    <path d="M9.42259 39.1488H13.9629" stroke="white" stroke-width="0.5" stroke-miterlimit="10" />
    <path d="M11.6929 36.7374V41.3635" stroke="white" stroke-width="0.5" stroke-miterlimit="10" />
    <path d="M10.0566 37.4777L13.3295 40.7525" stroke="white" stroke-width="0.5"
        stroke-miterlimit="10" />
    <path d="M13.3296 37.5118L10.0567 40.7838" stroke="white" stroke-width="0.5"
        stroke-miterlimit="10" />
    <path
        d="M23.1745 61.2682C23.1338 61.0241 23.1164 60.7771 23.1164 60.5272V51.3855C23.1164 47.1082 34.095 51.3855 41.481 51.3855C48.4542 51.3855 59.8456 47.4714 59.8456 51.3855V60.5272C59.8456 62.9448 57.9562 65.1445 54.8751 66.7805"
        stroke="white" stroke-width="0.5" stroke-miterlimit="10" />
    <path
        d="M39.3065 58.931C30.1881 58.3963 23.1132 54.5345 23.1132 49.8533V40.7116C23.1132 36.4342 34.0918 40.7116 41.4778 40.7116C48.451 40.7116 59.8424 36.7975 59.8424 40.7116V49.8533C59.8424 54.0638 54.1249 57.6088 46.3407 58.6695"
        fill="black" />
    <path
        d="M39.3065 58.931C30.1881 58.3963 23.1132 54.5345 23.1132 49.8533V40.7116C23.1132 36.4342 34.0918 40.7116 41.4778 40.7116C48.451 40.7116 59.8424 36.7975 59.8424 40.7116V49.8533C59.8424 54.0638 54.1249 57.6088 46.3407 58.6695"
        stroke="white" stroke-width="0.5" stroke-miterlimit="10" />
    <path
        d="M59.8455 40.8493C59.8455 45.8967 51.6225 49.991 41.4809 49.991C31.3394 49.991 23.1164 45.8996 23.1164 40.8493V31.7077C23.1164 27.4303 34.095 31.7077 41.4809 31.7077C48.4541 31.7077 59.8455 27.7936 59.8455 31.7077V40.8493Z"
        fill="black" stroke="white" stroke-width="0.5" stroke-miterlimit="10" />
    <path
        d="M59.8456 31.1383C59.8456 36.1857 51.6225 40.2799 41.481 40.2799C31.3395 40.2799 23.1164 36.1886 23.1164 31.1383V21.9966C23.1164 17.7193 34.095 21.9966 41.481 21.9966C48.4542 21.9966 59.8456 18.0825 59.8456 21.9966V31.1383Z"
        fill="black" stroke="white" stroke-width="0.5" stroke-miterlimit="10" />
    <path
        d="M41.4817 31.1407C51.6242 31.1407 59.8463 27.0479 59.8463 21.9991C59.8463 16.9503 51.6242 12.8574 41.4817 12.8574C31.3392 12.8574 23.1171 16.9503 23.1171 21.9991C23.1171 27.0479 31.3392 31.1407 41.4817 31.1407Z"
        fill="white" stroke="white" stroke-width="0.5" stroke-miterlimit="10" />
    <path
        d="M68.0943 42.9082C63.1239 48.22 55.1944 53.3371 45.6226 56.9113C37.6117 59.9013 29.7636 61.3223 23.1741 61.2671"
        stroke="white" stroke-width="0.5" stroke-miterlimit="10" />
    <path
        d="M45.6837 56.182C46.9016 63.3158 53.2731 68.1801 59.912 67.0468C60.9468 66.8696 62.0717 66.6778 63.4088 66.4511C68.792 65.5329 70.7569 58.0998 69.7309 52.079C68.6641 45.8373 65.0598 39.4446 59.4731 40.5343C58.5226 40.7202 56.3309 41.0689 55.4996 41.2113C48.8578 42.3446 44.4628 49.0454 45.6808 56.1791L45.6837 56.182Z"
        fill="white" stroke="black" stroke-width="0.5" stroke-miterlimit="10" />
    <path
        d="M63.4057 66.4578C70.0458 65.3255 74.4418 58.6238 73.2244 51.4891C72.007 44.3543 65.6373 39.4884 58.9972 40.6206C52.3572 41.7529 47.9612 48.4546 49.1786 55.5894C50.396 62.7241 56.7657 67.5901 63.4057 66.4578Z"
        fill="white" stroke="black" stroke-width="0.5" stroke-miterlimit="10" />
    <path
        d="M69.4954 49.7986C69.4954 49.7986 68.8007 48.0348 67.3183 48.2876C65.8359 48.5404 65.6818 50.4466 65.6818 50.4466"
        stroke="black" stroke-width="0.5" stroke-miterlimit="10" stroke-linecap="round" />
    <path
        d="M58.1944 51.6491C58.1944 51.6491 57.398 49.9028 55.5173 50.2253C53.6367 50.5478 53.3577 52.4744 53.3577 52.4744"
        stroke="black" stroke-width="0.5" stroke-miterlimit="10" stroke-linecap="round" />
    <path
        d="M68.7106 53.251C68.7106 53.251 68.7135 58.7575 63.5192 59.9053C58.3249 61.0531 55.1711 55.5611 55.1711 55.5611"
        stroke="black" stroke-width="0.5" stroke-miterlimit="10" stroke-linecap="round" />
</svg>