<svg width="200" height="200" viewBox="0 0 200 200" fill="none" xmlns="http://www.w3.org/2000/svg">
    <rect x="10" y="10" width="180" height="180" rx="90" fill="white"/>
    <path d="M186.878 106.455C186.878 153.002 147.924 190.75 99.8548 190.75C51.7859 190.75 12.832 153.002 12.832 106.455C12.832 59.907 51.7859 22.1592 99.8548 22.1592C147.924 22.1592 186.878 59.907 186.878 106.455Z" stroke="#3A82F7" stroke-opacity="0.2" stroke-width="0.5"/>
    <path d="M186.878 95.5455C186.878 142.093 147.924 179.841 99.8548 179.841C51.7859 179.841 12.832 142.093 12.832 95.5455C12.832 48.9978 51.7859 11.25 99.8548 11.25C147.924 11.25 186.878 48.9978 186.878 95.5455Z" stroke="#3A82F7" stroke-opacity="0.2" stroke-width="0.5"/>
    <path d="M63.92 68.7372L117.575 49.1807L153.346 85.5L141.422 141.376L91.4101 160.999L51.9966 127.407L63.92 68.7372Z" fill="url(#paint0_linear_3450_2333)" fill-opacity="0.4"/>
    <path d="M117.647 49.1105L117.601 49.0647L117.541 49.0867L63.8857 68.6433L63.8331 68.6624L63.822 68.7173L51.8986 127.387L51.8868 127.445L51.9317 127.483L91.3452 161.075L91.3908 161.114L91.4466 161.092L141.459 141.469L141.509 141.449L141.52 141.397L153.443 85.5208L153.455 85.4682L153.417 85.4298L117.647 49.1105Z" stroke="#717374" stroke-opacity="0.2" stroke-width="0.2"/>
    <path d="M108.373 46.3841L108.327 46.3362L108.265 46.3595L57.591 65.4505L57.5389 65.4701L57.5281 65.5247L46.2671 122.797L46.2571 122.848L46.2928 122.886L80.0758 158.34L80.1238 158.391L80.1878 158.363L130.862 136.545L130.91 136.524L130.921 136.473L142.182 81.9279L142.192 81.8766L142.156 81.8387L108.373 46.3841Z" fill="url(#paint1_linear_3450_2333)" fill-opacity="0.8" stroke="#E3E3E3" stroke-width="0.2"/>
    <path d="M85.7796 87.3656L99.8558 76.4565L105.486 87.3656L116.747 96.6384L108.302 109.184L102.671 125.547L91.41 120.093H77.3338V106.457L74.5186 90.0929L85.7796 87.3656Z" stroke="white" stroke-opacity="0.15" stroke-width="0.3"/>
    <path d="M103.796 123.502L104.923 124.184L107.175 125.547L112.805 109.184L121.251 96.6384L109.99 87.3656L104.36 76.4565L102.108 77.8202L100.981 78.502" stroke="white" stroke-opacity="0.1" stroke-width="0.2"/>
    <path d="M91.8638 109.179C95.7605 109.605 99.3349 106.28 99.8605 101.77C100.386 97.2592 97.6672 93.2455 93.7705 92.8193C89.8737 92.3931 86.2994 95.7185 85.7737 100.229C85.2481 104.739 87.967 108.753 91.8638 109.179Z" stroke="white" stroke-opacity="0.15" stroke-width="0.1"/>
    <g filter="url(#filter0_bdd_3450_2333)">
    <rect y="106.04" width="197.256" height="32.7273" rx="6" transform="rotate(-7 0 106.04)" fill="white" fill-opacity="0.8" shape-rendering="crispEdges"/>
    </g>
    <path d="M32.963 128.903L30.5743 109.449L39.3842 108.367C40.6811 108.208 41.8409 108.31 42.8634 108.674C43.9046 109.035 44.7472 109.618 45.3914 110.423C46.0519 111.207 46.4527 112.173 46.5937 113.322C46.7507 114.6 46.5247 115.747 45.9159 116.762C45.3071 117.777 44.4163 118.564 43.2435 119.121L48.6095 126.982L45.3857 127.378L40.3766 119.896L34.9017 120.569L35.8811 128.545L32.963 128.903ZM34.6014 118.123L40.2709 117.427C41.4196 117.286 42.3014 116.886 42.9164 116.228C43.5477 115.548 43.8019 114.708 43.679 113.708C43.5607 112.744 43.1132 112.009 42.3363 111.503C41.578 110.994 40.6245 110.81 39.4758 110.952L33.8064 111.648L34.6014 118.123ZM51.7787 126.593L49.3901 107.139L63.7304 105.378L64.0443 107.935L52.6221 109.337L53.3387 115.174L60.8423 114.252L61.146 116.726L53.6424 117.647L54.3829 123.678L65.9163 122.262L66.2302 124.818L51.7787 126.593ZM72.785 124.014L66.1443 105.082L69.1457 104.713L74.0006 119.21L76.566 103.802L79.3451 103.461L85.5583 117.762L86.7932 102.546L89.6557 102.195L87.7923 122.171L84.7908 122.539L78.4396 107.804L75.8142 123.642L72.785 124.014ZM92.0243 121.651L97.6673 101.211L101.113 100.788L111.45 119.266L108.282 119.655L105.332 114.234L96.6329 115.302L95.0535 121.279L92.0243 121.651ZM97.2809 112.768L104.09 111.932L99.6483 103.789L97.2809 112.768ZM113.952 118.959L111.564 99.5049L120.374 98.4232C121.671 98.2639 122.83 98.366 123.853 98.7294C124.894 99.0906 125.737 99.6736 126.381 100.478C127.041 101.262 127.442 102.229 127.583 103.377C127.74 104.656 127.514 105.803 126.905 106.818C126.297 107.833 125.406 108.619 124.233 109.177L129.599 117.038L126.375 117.433L121.366 109.952L115.891 110.624L116.871 118.601L113.952 118.959ZM115.591 108.179L121.26 107.483C122.409 107.342 123.291 106.942 123.906 106.283C124.537 105.604 124.791 104.764 124.668 103.764C124.55 102.8 124.103 102.065 123.326 101.559C122.567 101.05 121.614 100.866 120.465 101.007L114.796 101.703L115.591 108.179ZM135.365 113.678L139.367 113.186C140.386 113.061 141.31 112.769 142.137 112.31C142.963 111.833 143.661 111.239 144.232 110.53C144.819 109.799 145.237 108.987 145.484 108.091C145.748 107.175 145.817 106.207 145.692 105.188C145.569 104.188 145.269 103.275 144.791 102.449C144.332 101.622 143.731 100.934 142.986 100.386C142.258 99.8172 141.437 99.4102 140.523 99.1651C139.607 98.9015 138.639 98.8322 137.62 98.9573L133.618 99.4487L135.365 113.678ZM132.768 116.649L130.38 97.1946L137.244 96.3518C138.708 96.172 140.091 96.2561 141.394 96.6039C142.694 96.9332 143.861 97.4764 144.894 98.2334C145.928 98.9905 146.776 99.9301 147.441 101.052C148.105 102.174 148.523 103.43 148.693 104.82C148.866 106.228 148.766 107.556 148.393 108.806C148.036 110.035 147.448 111.141 146.628 112.126C145.809 113.11 144.8 113.93 143.601 114.585C142.419 115.219 141.096 115.626 139.633 115.806L132.768 116.649ZM160.077 113.577C158.521 113.769 156.983 113.647 155.462 113.213C153.942 112.779 152.558 112.075 151.31 111.099L152.836 108.825C154.019 109.732 155.188 110.369 156.343 110.735C157.516 111.099 158.705 111.207 159.909 111.059C160.854 110.943 161.663 110.712 162.335 110.366C163.023 110 163.531 109.542 163.859 108.994C164.187 108.446 164.312 107.857 164.234 107.228C164.127 106.357 163.74 105.727 163.072 105.339C162.403 104.951 161.35 104.723 159.913 104.655L156.596 104.526C154.779 104.43 153.374 104.019 152.383 103.295C151.41 102.568 150.838 101.51 150.667 100.12C150.531 99.0083 150.708 97.9992 151.198 97.0927C151.686 96.1676 152.439 95.4076 153.457 94.8124C154.493 94.215 155.725 93.8287 157.151 93.6536C158.559 93.4807 159.968 93.5428 161.377 93.8399C162.803 94.1162 164.115 94.6134 165.313 95.3315L163.974 97.7527C161.684 96.4164 159.465 95.8802 157.316 96.144C156.464 96.2487 155.737 96.4601 155.137 96.7783C154.537 97.0965 154.088 97.4996 153.79 97.9875C153.491 98.4568 153.376 98.9787 153.447 99.553C153.544 100.35 153.888 100.928 154.478 101.288C155.065 101.63 155.991 101.817 157.255 101.85L160.46 101.992C162.558 102.073 164.142 102.49 165.212 103.243C166.282 103.995 166.911 105.131 167.097 106.65C167.243 107.836 167.047 108.923 166.51 109.91C165.971 110.879 165.148 111.685 164.043 112.329C162.937 112.972 161.615 113.389 160.077 113.577Z" fill="#3A82F7"/>
    <defs>
    <filter id="filter0_bdd_3450_2333" x="-3.31396" y="78.686" width="206.403" height="67.1509" filterUnits="userSpaceOnUse" color-interpolation-filters="sRGB">
    <feFlood flood-opacity="0" result="BackgroundImageFix"/>
    <feGaussianBlur in="BackgroundImageFix" stdDeviation="1"/>
    <feComposite in2="SourceAlpha" operator="in" result="effect1_backgroundBlur_3450_2333"/>
    <feColorMatrix in="SourceAlpha" type="matrix" values="0 0 0 0 0 0 0 0 0 0 0 0 0 0 0 0 0 0 127 0" result="hardAlpha"/>
    <feOffset/>
    <feGaussianBlur stdDeviation="2"/>
    <feComposite in2="hardAlpha" operator="out"/>
    <feColorMatrix type="matrix" values="0 0 0 0 0.227451 0 0 0 0 0.509804 0 0 0 0 0.968627 0 0 0 0.1 0"/>
    <feBlend mode="normal" in2="effect1_backgroundBlur_3450_2333" result="effect2_dropShadow_3450_2333"/>
    <feColorMatrix in="SourceAlpha" type="matrix" values="0 0 0 0 0 0 0 0 0 0 0 0 0 0 0 0 0 0 127 0" result="hardAlpha"/>
    <feOffset dy="4"/>
    <feGaussianBlur stdDeviation="2"/>
    <feComposite in2="hardAlpha" operator="out"/>
    <feColorMatrix type="matrix" values="0 0 0 0 0 0 0 0 0 0 0 0 0 0 0 0 0 0 0.1 0"/>
    <feBlend mode="normal" in2="effect2_dropShadow_3450_2333" result="effect3_dropShadow_3450_2333"/>
    <feBlend mode="normal" in="SourceGraphic" in2="effect3_dropShadow_3450_2333" result="shape"/>
    </filter>
    <linearGradient id="paint0_linear_3450_2333" x1="77.3338" y1="54.6352" x2="101.186" y2="161.331" gradientUnits="userSpaceOnUse">
    <stop stop-color="#3A82F7"/>
    <stop offset="0.478506" stop-color="#3A82F7"/>
    <stop offset="0.676965" stop-color="#CC89E9"/>
    <stop offset="1" stop-color="#FFC737"/>
    </linearGradient>
    <linearGradient id="paint1_linear_3450_2333" x1="70.2949" y1="51.9077" x2="95.4058" y2="157.992" gradientUnits="userSpaceOnUse">
    <stop stop-color="#3A82F7"/>
    <stop offset="0.478506" stop-color="#3A82F7"/>
    <stop offset="0.676965" stop-color="#CC89E9"/>
    <stop offset="1" stop-color="#FFC737"/>
    </linearGradient>
    </defs>
    </svg>
    