<svg width="120" height="120" viewBox="0 0 120 120" fill="none" xmlns="http://www.w3.org/2000/svg">
    <circle cx="60" cy="60" r="60" fill="url(#paint0_linear_2753_36753)" />
    <path
        d="M61.681 34.1354L69.1974 48.0634C69.5091 48.6409 70.0661 49.0457 70.7116 49.1636L86.2807 52.0081C87.9729 52.3172 88.644 54.3827 87.4568 55.6276L76.5332 67.0801C76.0803 67.555 75.8676 68.2098 75.9548 68.8601L78.0605 84.5462C78.2894 86.2511 76.5324 87.5276 74.9816 86.7831L60.714 79.9332C60.1224 79.6492 59.4338 79.6492 58.8422 79.9332L44.5746 86.7831C43.0238 87.5276 41.2668 86.2511 41.4957 84.5462L43.6014 68.8601C43.6887 68.2098 43.4759 67.555 43.0231 67.0801L32.0996 55.6276C30.9124 54.3828 31.5835 52.3173 33.2756 52.0081L48.8447 49.1636C49.4903 49.0457 50.0473 48.6409 50.359 48.0634L57.8755 34.1354C58.6923 32.6215 60.8641 32.6215 61.681 34.1354Z"
        fill="#F6E5BB" />
    <path
        d="M120 60C120 93.1371 93.1371 120 60 120C26.8629 120 0 93.1371 0 60C0 26.8629 26.8629 0 60 0C93.1371 0 120 26.8629 120 60ZM12.3526 60C12.3526 86.315 33.685 107.647 60 107.647C86.315 107.647 107.647 86.315 107.647 60C107.647 33.685 86.315 12.3526 60 12.3526C33.685 12.3526 12.3526 33.685 12.3526 60Z"
        fill="white" fill-opacity="0.5" />
    <defs>
        <linearGradient id="paint0_linear_2753_36753" x1="13.1355" y1="1.35678" x2="99.7771"
            y2="125.529" gradientUnits="userSpaceOnUse">
            <stop stop-color="#FFD979" />
            <stop offset="1" stop-color="#ECAF17" />
        </linearGradient>
    </defs>
</svg>
    