<?xml version="1.0" encoding="utf-8"?>
<!-- Generator: Adobe Illustrator 27.8.1, SVG Export Plug-In . SVG Version: 6.00 Build 0)  -->
<svg version="1.1" id="Layer_1" xmlns="http://www.w3.org/2000/svg" xmlns:xlink="http://www.w3.org/1999/xlink" x="0px" y="0px"
	 viewBox="0 0 200 200" style="enable-background:new 0 0 200 200;" xml:space="preserve">
<style type="text/css">
	.st0{fill:#FFFFFF;}
	.st1{fill:none;stroke:#3A82F7;stroke-width:0.5;stroke-opacity:0.2;}
	.st2{fill:url(#SVGID_1_);fill-opacity:0.4;}
	.st3{fill:none;stroke:#717374;stroke-width:0.2;stroke-opacity:0.2;}
	.st4{fill:url(#SVGID_00000161603301747498409250000000020199045526527932_);fill-opacity:0.8;stroke:#E3E3E3;stroke-width:0.2;}
	.st5{opacity:0.85;fill:#FFFFFF;}
	.st6{fill:none;stroke:#FFFFFF;stroke-width:0.3;stroke-opacity:0.15;}
	.st7{fill:none;stroke:#FFFFFF;stroke-width:0.2;stroke-opacity:0.1;}
	.st8{fill:none;stroke:#FFFFFF;stroke-width:0.1;stroke-opacity:0.15;}
	.st9{fill:#3A82F7;}
</style>
<path class="st0" d="M100,10L100,10c49.7,0,90,40.3,90,90l0,0c0,49.7-40.3,90-90,90l0,0c-49.7,0-90-40.3-90-90l0,0
	C10,50.3,50.3,10,100,10z"/>
<path class="st1" d="M186.9,106.5c0,46.5-39,84.3-87,84.3c-48.1,0-87-37.7-87-84.3c0-46.5,39-84.3,87-84.3
	C147.9,22.2,186.9,59.9,186.9,106.5z"/>
<path class="st1" d="M186.9,95.5c0,46.5-39,84.3-87,84.3c-48.1,0-87-37.7-87-84.3c0-46.5,39-84.3,87-84.3
	C147.9,11.2,186.9,49,186.9,95.5z"/>
<linearGradient id="SVGID_1_" gradientUnits="userSpaceOnUse" x1="90.4325" y1="150.2931" x2="114.2847" y2="43.5973" gradientTransform="matrix(1 0 0 -1 0 202)">
	<stop  offset="0" style="stop-color:#3A82F7"/>
	<stop  offset="0.4785" style="stop-color:#3A82F7"/>
	<stop  offset="0.677" style="stop-color:#CC89E9"/>
	<stop  offset="1" style="stop-color:#FFC737"/>
</linearGradient>
<path class="st2" d="M63.9,68.7l53.7-19.6l35.8,36.3l-11.9,55.9l-50,19.6L52,127.4L63.9,68.7z"/>
<path class="st3" d="M117.6,49.1L117.6,49.1l-0.1,0L63.9,68.6l-0.1,0l0,0.1l-11.9,58.7l0,0.1l0,0l39.4,33.6l0,0l0.1,0l50-19.6l0.1,0
	l0-0.1l11.9-55.9l0-0.1l0,0L117.6,49.1z"/>
<linearGradient id="SVGID_00000047750530579859320150000004547815379761230233_" gradientUnits="userSpaceOnUse" x1="81.6456" y1="152.7791" x2="106.7565" y2="46.6948" gradientTransform="matrix(1 0 0 -1 0 202)">
	<stop  offset="0" style="stop-color:#3A82F7"/>
	<stop  offset="0.4785" style="stop-color:#3A82F7"/>
	<stop  offset="0.677" style="stop-color:#CC89E9"/>
	<stop  offset="1" style="stop-color:#FFC737"/>
</linearGradient>
<path style="fill:url(#SVGID_00000047750530579859320150000004547815379761230233_);fill-opacity:0.8;stroke:#E3E3E3;stroke-width:0.2;" d="
	M108.4,46.4L108.4,46.4l-0.1,0L57.6,65.5l-0.1,0l0,0.1l-11.3,57.3l0,0.1l0,0l33.8,35.5l0,0.1l0.1,0l50.7-21.8l0,0l0-0.1l11.3-54.5
	l0-0.1l0,0L108.4,46.4z"/>
<path class="st5" d="M188.9,116.5L15,138c-3.2,0.4-6.1-1.9-6.5-5.1l-2.7-22c-0.4-3.2,1.9-6.1,5.1-6.5l173.9-21.5
	c3.2-0.4,6.1,1.9,6.5,5.1l2.7,22C194.4,113.2,192.1,116.1,188.9,116.5z"/>
<path class="st6" d="M85.8,87.4l14.1-10.9l5.6,10.9l11.3,9.3l-8.4,12.5l-5.6,16.4l-11.3-5.5H77.3v-13.6l-2.8-16.4L85.8,87.4z"/>
<path class="st7" d="M103.8,123.5l1.1,0.7l2.3,1.4l5.6-16.4l8.4-12.5L110,87.4l-5.6-10.9l-2.3,1.4l-1.1,0.7"/>
<path class="st8" d="M91.9,109.2c3.9,0.4,7.5-2.9,8-7.4c0.5-4.5-2.2-8.5-6.1-9c-3.9-0.4-7.5,2.9-8,7.4
	C85.2,104.7,88,108.8,91.9,109.2z"/>
<path class="st9" d="M33,128.9l-2.4-19.5l8.8-1.1c1.3-0.2,2.5-0.1,3.5,0.3c1,0.4,1.9,0.9,2.5,1.7c0.7,0.8,1.1,1.8,1.2,2.9
	c0.2,1.3-0.1,2.4-0.7,3.4c-0.6,1-1.5,1.8-2.7,2.4l5.4,7.9l-3.2,0.4l-5-7.5l-5.5,0.7l1,8L33,128.9z M34.6,118.1l5.7-0.7
	c1.1-0.1,2-0.5,2.6-1.2c0.6-0.7,0.9-1.5,0.8-2.5c-0.1-1-0.6-1.7-1.3-2.2c-0.8-0.5-1.7-0.7-2.9-0.6l-5.7,0.7L34.6,118.1z M51.8,126.6
	l-2.4-19.5l14.3-1.8l0.3,2.6l-11.4,1.4l0.7,5.8l7.5-0.9l0.3,2.5l-7.5,0.9l0.7,6l11.5-1.4l0.3,2.6L51.8,126.6z M72.8,124l-6.6-18.9
	l3-0.4l4.9,14.5l2.6-15.4l2.8-0.3l6.2,14.3l1.2-15.2l2.9-0.4l-1.9,20l-3,0.4l-6.4-14.7l-2.6,15.8L72.8,124z M92,121.7l5.6-20.4
	l3.4-0.4l10.3,18.5l-3.2,0.4l-2.9-5.4l-8.7,1.1l-1.6,6L92,121.7z M97.3,112.8l6.8-0.8l-4.4-8.1L97.3,112.8z M114,119l-2.4-19.5
	l8.8-1.1c1.3-0.2,2.5-0.1,3.5,0.3c1,0.4,1.9,0.9,2.5,1.7c0.7,0.8,1.1,1.8,1.2,2.9c0.2,1.3-0.1,2.4-0.7,3.4c-0.6,1-1.5,1.8-2.7,2.4
	l5.4,7.9l-3.2,0.4l-5-7.5l-5.5,0.7l1,8L114,119z M115.6,108.2l5.7-0.7c1.1-0.1,2-0.5,2.6-1.2c0.6-0.7,0.9-1.5,0.8-2.5
	c-0.1-1-0.6-1.7-1.3-2.2c-0.8-0.5-1.7-0.7-2.9-0.6l-5.7,0.7L115.6,108.2z M135.4,113.7l4-0.5c1-0.1,1.9-0.4,2.8-0.9
	c0.8-0.5,1.5-1.1,2.1-1.8c0.6-0.7,1-1.5,1.3-2.4c0.3-0.9,0.3-1.9,0.2-2.9c-0.1-1-0.4-1.9-0.9-2.7c-0.5-0.8-1.1-1.5-1.8-2.1
	c-0.7-0.6-1.5-1-2.5-1.2c-0.9-0.3-1.9-0.3-2.9-0.2l-4,0.5L135.4,113.7z M132.8,116.6l-2.4-19.5l6.9-0.8c1.5-0.2,2.8-0.1,4.1,0.3
	c1.3,0.3,2.5,0.9,3.5,1.6c1,0.8,1.9,1.7,2.5,2.8c0.7,1.1,1.1,2.4,1.3,3.8c0.2,1.4,0.1,2.7-0.3,4c-0.4,1.2-0.9,2.3-1.8,3.3
	c-0.8,1-1.8,1.8-3,2.5c-1.2,0.6-2.5,1-4,1.2L132.8,116.6z M160.1,113.6c-1.6,0.2-3.1,0.1-4.6-0.4c-1.5-0.4-2.9-1.1-4.2-2.1l1.5-2.3
	c1.2,0.9,2.4,1.5,3.5,1.9c1.2,0.4,2.4,0.5,3.6,0.3c0.9-0.1,1.8-0.3,2.4-0.7c0.7-0.4,1.2-0.8,1.5-1.4c0.3-0.5,0.5-1.1,0.4-1.8
	c-0.1-0.9-0.5-1.5-1.2-1.9c-0.7-0.4-1.7-0.6-3.2-0.7l-3.3-0.1c-1.8-0.1-3.2-0.5-4.2-1.2c-1-0.7-1.5-1.8-1.7-3.2
	c-0.1-1.1,0-2.1,0.5-3c0.5-0.9,1.2-1.7,2.3-2.3c1-0.6,2.3-1,3.7-1.2c1.4-0.2,2.8-0.1,4.2,0.2c1.4,0.3,2.7,0.8,3.9,1.5l-1.3,2.4
	c-2.3-1.3-4.5-1.9-6.7-1.6c-0.9,0.1-1.6,0.3-2.2,0.6c-0.6,0.3-1,0.7-1.3,1.2c-0.3,0.5-0.4,1-0.3,1.6c0.1,0.8,0.4,1.4,1,1.7
	c0.6,0.3,1.5,0.5,2.8,0.6l3.2,0.1c2.1,0.1,3.7,0.5,4.8,1.3c1.1,0.8,1.7,1.9,1.9,3.4c0.1,1.2-0.1,2.3-0.6,3.3c-0.5,1-1.4,1.8-2.5,2.4
	C162.9,113,161.6,113.4,160.1,113.6z"/>
</svg>
