<svg width="70" height="64" viewBox="0 0 70 64" fill="none" xmlns="http://www.w3.org/2000/svg">
    <path d="M61.6116 33.6971C61.6116 48.0783 49.575 59.7501 34.7101 59.7501C19.8453 59.7501 7.80859 48.0783 7.80859 33.6971C7.80859 19.3158 19.8453 7.64404 34.7101 7.64404C49.575 7.64404 61.6116 19.3158 61.6116 33.6971Z" stroke="#3A82F7" stroke-opacity="0.2" stroke-width="0.5"/>
    <path d="M61.6116 30.303C61.6116 44.6843 49.575 56.3561 34.7101 56.3561C19.8453 56.3561 7.80859 44.6843 7.80859 30.303C7.80859 15.9218 19.8453 4.25 34.7101 4.25C49.575 4.25 61.6116 15.9218 61.6116 30.303Z" stroke="#3A82F7" stroke-opacity="0.2" stroke-width="0.5"/>
    <path d="M23.5303 21.9627L40.2231 15.8784L51.3516 27.1778L47.6421 44.5613L32.0828 50.6663L19.8208 40.2154L23.5303 21.9627Z" fill="url(#paint0_linear_3374_21893)" fill-opacity="0.4"/>
    <path d="M23.4961 21.8687L23.4435 21.8879L23.4323 21.9428L19.7228 40.1955L19.7111 40.2533L19.7559 40.2916L32.0179 50.7424L32.0635 50.7813L32.1193 50.7594L47.6786 44.6544L47.7287 44.6348L47.7399 44.5822L51.4494 27.1986L51.4606 27.146L51.4228 27.1076L40.2943 15.8082L40.2492 15.7625L40.1888 15.7845L23.4961 21.8687Z" stroke="#717374" stroke-opacity="0.2" stroke-width="0.2"/>
    <path d="M21.537 20.8756L21.4849 20.8952L21.4741 20.9499L17.9707 38.7681L17.9607 38.8189L17.9965 38.8563L28.5067 49.8867L28.5547 49.937L28.6187 49.9095L44.3841 43.1216L44.4319 43.101L44.4424 43.05L47.9459 26.0803L47.9565 26.029L47.9203 25.9911L37.4101 14.9608L37.3644 14.9129L37.3024 14.9362L21.537 20.8756Z" fill="url(#paint1_linear_3374_21893)" fill-opacity="0.8" stroke="#E3E3E3" stroke-width="0.2"/>
    <path d="M30.3308 27.7582L34.7101 24.3643L36.4618 27.7582L39.9652 30.643L37.3377 34.5461L35.5859 39.637L32.0825 37.94H27.7032V33.6976L26.8274 28.6067L30.3308 27.7582Z" stroke="white" stroke-opacity="0.15" stroke-width="0.3"/>
    <path d="M35.9361 39.0006L36.2864 39.2127L36.9872 39.637L38.7389 34.5461L41.3664 30.643L37.863 27.7582L36.1113 24.3643L35.4106 24.7885L35.0603 25.0006" stroke="white" stroke-opacity="0.1" stroke-width="0.2"/>
    <path d="M32.2201 34.5788C33.456 34.714 34.581 33.6603 34.7462 32.2432C34.9113 30.8262 34.0572 29.5559 32.8213 29.4207C31.5853 29.2856 30.4603 30.3393 30.2952 31.7564C30.13 33.1734 30.9842 34.4437 32.2201 34.5788Z" stroke="white" stroke-opacity="0.15" stroke-width="0.1"/>
    <g filter="url(#filter0_bdd_3374_21893)">
    <rect x="3.93506" y="33.1372" width="61.3687" height="10.1818" rx="2" transform="rotate(-7 3.93506 33.1372)" fill="white" fill-opacity="0.8" shape-rendering="crispEdges"/>
    </g>
    <path d="M15.4169 39.8757L14.7344 34.3174L17.2515 34.0084C17.622 33.9629 17.9534 33.992 18.2456 34.0959C18.543 34.199 18.7838 34.3656 18.9678 34.5956C19.1565 34.8196 19.271 35.0957 19.3113 35.4239C19.3562 35.7891 19.2916 36.1168 19.1177 36.4068C18.9437 36.6968 18.6892 36.9215 18.3541 37.0809L19.8873 39.3268L18.9662 39.4399L17.535 37.3023L15.9708 37.4944L16.2506 39.7733L15.4169 39.8757ZM15.885 36.7957L17.5048 36.5968C17.833 36.5565 18.085 36.4422 18.2607 36.2541C18.441 36.06 18.5137 35.82 18.4786 35.5342C18.4448 35.2589 18.3169 35.0489 18.0949 34.9042C17.8783 34.7589 17.6059 34.7064 17.2777 34.7467L15.6578 34.9456L15.885 36.7957ZM21.1473 39.1721L20.4648 33.6138L24.562 33.1107L24.6517 33.8412L21.3882 34.242L21.593 35.9094L23.7369 35.6462L23.8236 36.3529L21.6797 36.6161L21.8913 38.3392L25.1866 37.9346L25.2762 38.6651L21.1473 39.1721ZM27.5035 38.3916L25.6062 32.9825L26.4637 32.8772L27.8508 37.0191L28.5838 32.6169L29.3779 32.5194L31.1531 36.6055L31.5059 32.2581L32.3237 32.1577L31.7913 37.8651L30.9338 37.9704L29.1191 33.7602L28.369 38.2853L27.5035 38.3916ZM33.355 37.6732L34.9673 31.8331L35.9519 31.7122L38.9053 36.9917L38.0001 37.1028L37.157 35.554L34.6717 35.8592L34.2205 37.5669L33.355 37.6732ZM34.8568 35.1352L36.8022 34.8963L35.5332 32.5696L34.8568 35.1352ZM39.9746 36.8604L39.2921 31.3021L41.8092 30.993C42.1798 30.9475 42.5112 30.9767 42.8033 31.0805C43.1008 31.1837 43.3415 31.3503 43.5256 31.5802C43.7143 31.8042 43.8288 32.0804 43.8691 32.4086C43.914 32.7738 43.8494 33.1015 43.6755 33.3915C43.5015 33.6815 43.247 33.9062 42.9119 34.0656L44.445 36.3115L43.524 36.4246L42.0928 34.287L40.5285 34.4791L40.8084 36.758L39.9746 36.8604ZM40.4427 33.7803L42.0626 33.5815C42.3908 33.5412 42.6427 33.4269 42.8185 33.2388C42.9988 33.0447 43.0714 32.8047 43.0363 32.5189C43.0025 32.2436 42.8747 32.0336 42.6527 31.8889C42.4361 31.7436 42.1636 31.6911 41.8354 31.7314L40.2156 31.9302L40.4427 33.7803ZM46.4471 35.308L47.5905 35.1676C47.8817 35.1318 48.1455 35.0484 48.3819 34.9173C48.6177 34.7809 48.8172 34.6113 48.9804 34.4086C49.1482 34.1999 49.2675 33.9676 49.3381 33.7118C49.4135 33.45 49.4332 33.1735 49.3975 32.8823C49.3624 32.5965 49.2766 32.3357 49.1402 32.0999C49.0091 31.8634 48.8372 31.6669 48.6245 31.5103C48.4165 31.3478 48.1819 31.2315 47.9208 31.1615C47.659 31.0862 47.3825 31.0664 47.0913 31.1021L45.9479 31.2425L46.4471 35.308ZM45.705 36.1568L45.0226 30.5985L46.9838 30.3577C47.402 30.3063 47.7972 30.3303 48.1694 30.4297C48.541 30.5238 48.8744 30.679 49.1696 30.8953C49.4649 31.1116 49.7074 31.38 49.8972 31.7006C50.087 32.0212 50.2063 32.38 50.2551 32.7771C50.3045 33.1794 50.2758 33.559 50.1692 33.916C50.0672 34.267 49.8992 34.5832 49.6651 34.8645C49.4309 35.1458 49.1427 35.38 48.8002 35.5671C48.4625 35.7483 48.0845 35.8646 47.6663 35.9159L45.705 36.1568ZM53.8621 35.2358C53.4174 35.2904 52.9779 35.2557 52.5436 35.1317C52.1092 35.0077 51.7137 34.8064 51.3571 34.5278L51.7932 33.8778C52.1313 34.1372 52.4653 34.3192 52.7952 34.4238C53.1303 34.5277 53.47 34.5585 53.814 34.5163C54.084 34.4831 54.315 34.4172 54.5071 34.3183C54.7038 34.2136 54.8489 34.0829 54.9426 33.9264C55.0362 33.7698 55.0719 33.6015 55.0498 33.4215C55.0193 33.1727 54.9085 32.9929 54.7176 32.882C54.5267 32.7711 54.2258 32.7059 53.8151 32.6865L52.8675 32.6497C52.3483 32.6221 51.947 32.5048 51.6636 32.2978C51.3856 32.0902 51.2222 31.7878 51.1735 31.3908C51.1345 31.0732 51.185 30.7849 51.3252 30.5259C51.4647 30.2616 51.6798 30.0444 51.9706 29.8743C52.2667 29.7037 52.6185 29.5933 53.0261 29.5432C53.4284 29.4938 53.8309 29.5116 54.2336 29.5965C54.6409 29.6754 55.0157 29.8175 55.3579 30.0226L54.9754 30.7144C54.3213 30.3326 53.6872 30.1794 53.0732 30.2548C52.8297 30.2847 52.6222 30.3451 52.4506 30.436C52.2791 30.5269 52.1508 30.6421 52.0659 30.7815C51.9802 30.9156 51.9475 31.0647 51.9676 31.2288C51.9956 31.4564 52.0938 31.6217 52.2623 31.7246C52.4301 31.8222 52.6946 31.8757 53.0557 31.8851L53.9715 31.9258C54.5708 31.9489 55.0233 32.068 55.3292 32.283C55.635 32.498 55.8145 32.8225 55.8678 33.2566C55.9094 33.5954 55.8535 33.9059 55.7001 34.188C55.546 34.4648 55.311 34.6952 54.9951 34.8791C54.6791 35.0629 54.3015 35.1818 53.8621 35.2358Z" fill="#3A82F7"/>
    <defs>
    <filter id="filter0_bdd_3374_21893" x="0.163574" y="21.8867" width="69.6951" height="29.1279" filterUnits="userSpaceOnUse" color-interpolation-filters="sRGB">
    <feFlood flood-opacity="0" result="BackgroundImageFix"/>
    <feGaussianBlur in="BackgroundImageFix" stdDeviation="1"/>
    <feComposite in2="SourceAlpha" operator="in" result="effect1_backgroundBlur_3374_21893"/>
    <feColorMatrix in="SourceAlpha" type="matrix" values="0 0 0 0 0 0 0 0 0 0 0 0 0 0 0 0 0 0 127 0" result="hardAlpha"/>
    <feOffset/>
    <feGaussianBlur stdDeviation="2"/>
    <feComposite in2="hardAlpha" operator="out"/>
    <feColorMatrix type="matrix" values="0 0 0 0 0.227451 0 0 0 0 0.509804 0 0 0 0 0.968627 0 0 0 0.1 0"/>
    <feBlend mode="normal" in2="effect1_backgroundBlur_3374_21893" result="effect2_dropShadow_3374_21893"/>
    <feColorMatrix in="SourceAlpha" type="matrix" values="0 0 0 0 0 0 0 0 0 0 0 0 0 0 0 0 0 0 127 0" result="hardAlpha"/>
    <feOffset dy="4"/>
    <feGaussianBlur stdDeviation="2"/>
    <feComposite in2="hardAlpha" operator="out"/>
    <feColorMatrix type="matrix" values="0 0 0 0 0 0 0 0 0 0 0 0 0 0 0 0 0 0 0.1 0"/>
    <feBlend mode="normal" in2="effect2_dropShadow_3374_21893" result="effect3_dropShadow_3374_21893"/>
    <feBlend mode="normal" in="SourceGraphic" in2="effect3_dropShadow_3374_21893" result="shape"/>
    </filter>
    <linearGradient id="paint0_linear_3374_21893" x1="27.7035" y1="17.5754" x2="35.1243" y2="50.7696" gradientUnits="userSpaceOnUse">
    <stop stop-color="#3A82F7"/>
    <stop offset="0.478506" stop-color="#3A82F7"/>
    <stop offset="0.676965" stop-color="#CC89E9"/>
    <stop offset="1" stop-color="#FFC737"/>
    </linearGradient>
    <linearGradient id="paint1_linear_3374_21893" x1="25.5136" y1="16.7268" x2="33.3259" y2="49.7307" gradientUnits="userSpaceOnUse">
    <stop stop-color="#3A82F7"/>
    <stop offset="0.478506" stop-color="#3A82F7"/>
    <stop offset="0.676965" stop-color="#CC89E9"/>
    <stop offset="1" stop-color="#FFC737"/>
    </linearGradient>
    </defs>
    </svg>
    