<svg width="24" height="24" viewBox="0 0 24 24" fill="none" xmlns="http://www.w3.org/2000/svg">
    <path
        d="M13 17C17.4183 17 21 13.4183 21 9C21 4.58172 17.4183 1 13 1M13 17C8.58172 17 5 13.4183 5 9C5 4.58172 8.58172 1 13 1M13 17H10.5M13 1H10.5M21 23V17H3V23M21 23H3M21 23V20H3V23M19 9C19 13.4183 15.4183 17 11 17C6.58172 17 3 13.4183 3 9C3 4.58172 6.58172 1 11 1C15.4183 1 19 4.58172 19 9Z"
        stroke="white" stroke-width="0.3" />
    <g clip-path="url(#clip0_19975_416)">
        <mask id="mask0_19975_416" style="mask-type:luminance" maskUnits="userSpaceOnUse" x="7"
            y="5" width="8" height="8">
            <path d="M14.8 5H7V13H14.8V5Z" fill="white" />
        </mask>
        <g mask="url(#mask0_19975_416)">
            <mask id="mask1_19975_416" style="mask-type:luminance" maskUnits="userSpaceOnUse" x="7"
                y="5" width="8" height="8">
                <path d="M14.8 5H7V13H14.8V5Z" fill="white" />
            </mask>
            <g mask="url(#mask1_19975_416)">
                <path
                    d="M10.2886 10.9976L7.6124 6.2964L7 6.645L10.4826 12.7626C10.6622 13.0782 11.1168 13.0792 11.298 12.7644L10.2886 10.9976Z"
                    fill="black" />
                <path
                    d="M10.0206 5L9.3252 5.1138L10.545 12.7C10.7246 13.0156 11.1168 13.0792 11.298 12.7644L10.0206 5Z"
                    fill="black" />
                <path
                    d="M10.9423 10.629L10.4825 12.7626C10.6621 13.0782 11.1167 13.0792 11.2979 12.7644L11.6331 10.7686L12.5201 6.8496L11.8329 6.6942L10.9423 10.629Z"
                    fill="black" />
                <path
                    d="M10.4825 12.7626C10.6621 13.0782 11.1167 13.0792 11.2979 12.7644L14.7311 6.79641L14.1203 6.44501L11.6331 10.7686L10.4825 12.7626Z"
                    fill="black" />
            </g>
        </g>
    </g>
    <defs>
        <clipPath id="clip0_19975_416">
            <rect width="7.8" height="8" fill="white" transform="translate(7 5)" />
        </clipPath>
    </defs>
</svg>