<svg width="40" height="40" viewBox="0 0 40 40" fill="none" xmlns="http://www.w3.org/2000/svg">
    <g filter="url(#filter0_b_2309_3384)">
        <rect width="40" height="40" rx="10" fill="white" fill-opacity="0.08" />
        <path fill-rule="evenodd" clip-rule="evenodd"
            d="M23.75 10.25H29C29.1989 10.25 29.3897 10.329 29.5303 10.4697C29.671 10.6103 29.75 10.8011 29.75 11V16.25C29.75 16.4489 29.671 16.6397 29.5303 16.7803C29.3897 16.921 29.1989 17 29 17C28.8011 17 28.6103 16.921 28.4697 16.7803C28.329 16.6397 28.25 16.4489 28.25 16.25V12.81L16.03 25.03C15.8878 25.1625 15.6998 25.2346 15.5055 25.2312C15.3112 25.2277 15.1258 25.149 14.9884 25.0116C14.851 24.8742 14.7723 24.6888 14.7688 24.4945C14.7654 24.3002 14.8375 24.1122 14.97 23.97L27.19 11.75H23.75C23.5511 11.75 23.3603 11.671 23.2197 11.5303C23.079 11.3897 23 11.1989 23 11C23 10.8011 23.079 10.6103 23.2197 10.4697C23.3603 10.329 23.5511 10.25 23.75 10.25ZM13.25 14.75C12.8522 14.75 12.4706 14.908 12.1893 15.1893C11.908 15.4706 11.75 15.8522 11.75 16.25V26.75C11.75 27.1478 11.908 27.5294 12.1893 27.8107C12.4706 28.092 12.8522 28.25 13.25 28.25H23.75C24.1478 28.25 24.5294 28.092 24.8107 27.8107C25.092 27.5294 25.25 27.1478 25.25 26.75V18.5C25.25 18.3011 25.329 18.1103 25.4697 17.9697C25.6103 17.829 25.8011 17.75 26 17.75C26.1989 17.75 26.3897 17.829 26.5303 17.9697C26.671 18.1103 26.75 18.3011 26.75 18.5V26.75C26.75 27.5456 26.4339 28.3087 25.8713 28.8713C25.3087 29.4339 24.5456 29.75 23.75 29.75H13.25C12.4544 29.75 11.6913 29.4339 11.1287 28.8713C10.5661 28.3087 10.25 27.5456 10.25 26.75V16.25C10.25 15.4544 10.5661 14.6913 11.1287 14.1287C11.6913 13.5661 12.4544 13.25 13.25 13.25H21.5C21.6989 13.25 21.8897 13.329 22.0303 13.4697C22.171 13.6103 22.25 13.8011 22.25 14C22.25 14.1989 22.171 14.3897 22.0303 14.5303C21.8897 14.671 21.6989 14.75 21.5 14.75H13.25Z"
            fill="white" />
    </g>
    <defs>
        <filter id="filter0_b_2309_3384" x="-20" y="-20" width="80" height="80"
            filterUnits="userSpaceOnUse" color-interpolation-filters="sRGB">
            <feFlood flood-opacity="0" result="BackgroundImageFix" />
            <feGaussianBlur in="BackgroundImageFix" stdDeviation="10" />
            <feComposite in2="SourceAlpha" operator="in" result="effect1_backgroundBlur_2309_3384" />
            <feBlend mode="normal" in="SourceGraphic" in2="effect1_backgroundBlur_2309_3384"
                result="shape" />
        </filter>
    </defs>
</svg>
    