<svg width="20" height="20" viewBox="0 0 20 20" fill="none" xmlns="http://www.w3.org/2000/svg">
    <path fill-rule="evenodd" clip-rule="evenodd"
        d="M3.12566 8.8418C7.52114 6.92676 10.4521 5.66424 11.9187 5.05426C16.1059 3.31264 16.976 3.0101 17.5431 3.00011C17.6679 2.99791 17.9467 3.02882 18.1274 3.17541C18.2799 3.29918 18.3219 3.46638 18.342 3.58373C18.3621 3.70108 18.3871 3.96841 18.3672 4.17729C18.1403 6.56145 17.1585 12.3472 16.659 15.0174C16.4476 16.1474 16.0314 16.5262 15.6285 16.5633C14.7529 16.6438 14.088 15.9846 13.24 15.4287C11.9129 14.5588 11.1633 14.0173 9.87513 13.1685C8.38648 12.1875 9.35151 11.6483 10.1999 10.7671C10.4219 10.5365 14.2798 7.02747 14.3545 6.70914C14.3638 6.66933 14.3725 6.52093 14.2843 6.44257C14.1962 6.36421 14.066 6.39101 13.9721 6.41232C13.839 6.44253 11.7191 7.84374 7.61224 10.616C7.01049 11.0292 6.46545 11.2305 5.97711 11.22C5.43876 11.2083 4.40318 10.9156 3.63333 10.6653C2.68909 10.3584 1.93862 10.1961 2.00397 9.67482C2.038 9.40331 2.4119 9.12563 3.12566 8.8418Z"
        fill="url(#paint0_linear_6139_4815)" />
    <defs>
        <linearGradient id="paint0_linear_6139_4815" x1="18.1031" y1="3.09047" x2="9.17703"
            y2="12.8006" gradientUnits="userSpaceOnUse">
            <stop stop-color="#2AABEE" />
            <stop offset="1" stop-color="#229ED9" />
        </linearGradient>
    </defs>
</svg>
    