<svg width="25" height="24" viewBox="0 0 25 24" fill="none" xmlns="http://www.w3.org/2000/svg">
    <path fill-rule="evenodd" clip-rule="evenodd"
        d="M3.8749 11.1352C9.24359 8.79619 12.8236 7.25414 14.6148 6.5091C19.7292 4.38186 20.7919 4.01233 21.4846 4.00013C21.6369 3.99745 21.9776 4.0352 22.1982 4.21424C22.3845 4.36542 22.4358 4.56964 22.4603 4.71298C22.4848 4.85631 22.5154 5.18283 22.4911 5.43796C22.214 8.34999 21.0147 15.4167 20.4046 18.6783C20.1465 20.0583 19.6382 20.5211 19.1461 20.5663C18.0766 20.6648 17.2645 19.8596 16.2287 19.1806C14.6078 18.1181 13.6921 17.4567 12.1188 16.4199C10.3005 15.2217 11.4792 14.5631 12.5154 13.4869C12.7866 13.2052 17.4987 8.9192 17.5899 8.53039C17.6013 8.48177 17.6119 8.30051 17.5042 8.2048C17.3965 8.10909 17.2376 8.14182 17.1229 8.16785C16.9604 8.20474 14.371 9.91621 9.35486 13.3022C8.61988 13.8069 7.95416 14.0528 7.3577 14.0399C6.70015 14.0257 5.43528 13.6682 4.49498 13.3625C3.34166 12.9876 2.42503 12.7894 2.50485 12.1527C2.54642 11.8211 3.0031 11.4819 3.8749 11.1352Z"
        fill="#B585AA" />
</svg>