<svg width="18" height="18" viewBox="0 0 18 18" fill="#1DA1F2" xmlns="http://www.w3.org/2000/svg">
<path fill-rule="evenodd" clip-rule="evenodd" d="M2.16133 8.02691C6.6961 6.05119 9.71999 4.74867 11.233 4.11936C15.5529 2.32254 16.4506 2.01042 17.0357 2.00011C17.1644 1.99784 17.4521 2.02973 17.6385 2.18096C17.7958 2.30866 17.8391 2.48116 17.8598 2.60223C17.8806 2.7233 17.9064 2.9991 17.8859 3.2146C17.6518 5.6743 16.6388 11.6433 16.1235 14.3983C15.9054 15.564 15.4761 15.9548 15.0604 15.9931C14.1571 16.0762 13.4711 15.3961 12.5962 14.8225C11.2271 13.9251 10.4536 13.3664 9.12468 12.4907C7.58886 11.4786 8.58447 10.9223 9.45973 10.0132C9.68879 9.77533 13.6689 6.15509 13.746 5.82668C13.7556 5.7856 13.7645 5.6325 13.6736 5.55166C13.5826 5.47081 13.4484 5.49846 13.3515 5.52045C13.2142 5.55161 11.0271 6.99723 6.79008 9.8573C6.16927 10.2836 5.60696 10.4913 5.10314 10.4804C4.54773 10.4684 3.47933 10.1664 2.68509 9.90821C1.71092 9.59154 0.936673 9.42412 1.00409 8.88633C1.03921 8.60621 1.42495 8.31974 2.16133 8.02691Z" fill="#1DA1F2"/>
</svg>
