<svg width="25" height="24" viewBox="0 0 25 24" fill="none" xmlns="http://www.w3.org/2000/svg">
    <path fill-rule="evenodd" clip-rule="evenodd"
        d="M5.20861 11.2723C9.92801 9.21613 13.075 7.86058 14.6496 7.20564C19.1455 5.33567 20.0797 5.01084 20.6885 5.00011C20.8225 4.99776 21.1219 5.03094 21.3159 5.18833C21.4797 5.32123 21.5247 5.50075 21.5463 5.62675C21.5678 5.75275 21.5947 6.03977 21.5733 6.26405C21.3297 8.8239 20.2755 15.036 19.7392 17.903C19.5123 19.1162 19.0654 19.523 18.6329 19.5628C17.6927 19.6493 16.9789 18.9415 16.0683 18.3446C14.6435 17.4106 13.8385 16.8292 12.4555 15.9178C10.8571 14.8645 11.8933 14.2856 12.8042 13.3395C13.0425 13.0919 17.1847 9.32426 17.2649 8.98248C17.2749 8.93973 17.2842 8.7804 17.1896 8.69626C17.0949 8.61213 16.9552 8.6409 16.8544 8.66378C16.7115 8.69621 14.4353 10.2007 10.0258 13.1772C9.37973 13.6209 8.79453 13.837 8.2702 13.8257C7.69217 13.8132 6.58028 13.4989 5.7537 13.2302C4.73987 12.9006 3.93409 12.7264 4.00426 12.1667C4.04081 11.8752 4.44226 11.577 5.20861 11.2723Z"
        fill="white" />
</svg>