<svg width="15" height="16" viewBox="0 0 15 16" fill="none" xmlns="http://www.w3.org/2000/svg">
    <path
        d="M8.58726 12.8567L11.2121 12.1601C11.1936 11.9801 11.1286 11.5547 10.9085 11.054C10.7381 10.6667 10.5092 10.3102 10.2281 9.99471C9.87689 9.60023 9.44212 9.26844 8.93599 9.00851C8.47666 8.77252 8.1054 8.56871 7.83259 8.40251C7.47666 8.18593 7.35447 7.72992 7.5544 7.36431C7.70757 7.08397 7.92718 6.72184 8.207 6.28788C8.51675 5.80761 8.72777 5.3006 8.83432 4.78095C8.91945 4.36595 8.93871 3.94157 8.89132 3.51981C8.83055 2.97929 8.67596 2.58399 8.60249 2.42032L5.98127 3.12931L3.35644 3.82599C3.37501 4.00609 3.43985 4.43146 3.6601 4.93214C3.83048 5.31961 4.05925 5.67597 4.34027 5.99146C4.69167 6.3859 5.12638 6.71778 5.63252 6.97771C6.0919 7.21361 6.46315 7.41741 6.73597 7.58361C7.09191 7.80027 7.2141 8.25628 7.01415 8.62181C6.86099 8.90215 6.64138 9.26428 6.36151 9.69834C6.05315 10.1765 5.8426 10.6812 5.7355 11.1985C5.64989 11.6123 5.62997 12.0354 5.67611 12.456C5.73571 12.9997 5.89222 13.4004 5.96621 13.5658L8.58726 12.8567ZM11.3674 12.3624C11.3672 12.3624 11.3671 12.3624 11.3671 12.3624L8.64816 13.084L5.93306 13.8185C5.93299 13.8185 5.93299 13.8185 5.93284 13.8185C5.88029 13.8326 5.82488 13.8086 5.79901 13.7608C5.78798 13.7403 5.52906 13.2542 5.44355 12.4925C5.39348 12.0462 5.41368 11.597 5.5038 11.1578C5.61636 10.6096 5.83836 10.0755 6.16395 9.57072C6.44072 9.14141 6.65741 8.78412 6.80788 8.50888C6.94738 8.25392 6.86208 7.9356 6.61379 7.78455C6.34586 7.62142 5.97954 7.42028 5.5252 7.18686C4.99081 6.91247 4.53157 6.56106 4.15998 6.14258C3.8623 5.80718 3.62025 5.42836 3.44041 5.0167C3.13367 4.31452 3.11481 3.76394 3.11417 3.74083C3.11261 3.68632 3.14865 3.638 3.2012 3.62391C3.20135 3.62388 3.20135 3.62388 3.20142 3.62386L5.92039 2.90211L8.63546 2.16781C8.63546 2.16781 8.63561 2.16777 8.63575 2.16773C8.68831 2.15365 8.74368 2.17748 8.76958 2.22547C8.78058 2.2458 9.03954 2.73204 9.12491 3.49355C9.17507 3.93995 9.15486 4.38905 9.06468 4.82837C8.95219 5.37656 8.73018 5.9105 8.40458 6.41533C8.12782 6.84465 7.91111 7.20186 7.76068 7.47724C7.62118 7.7322 7.70647 8.05052 7.95476 8.20157C8.22273 8.36485 8.589 8.56578 9.04334 8.79919C9.57773 9.07359 10.037 9.42506 10.4085 9.84357C10.7062 10.1789 10.9483 10.5578 11.1281 10.9694C11.4349 11.6718 11.4538 12.2223 11.4544 12.2454C11.4559 12.2998 11.4199 12.3483 11.3674 12.3624Z"
        fill="white" />
    <path
        d="M8.60337 12.9172L11.0887 12.2575C10.8892 11.7637 10.062 11.2867 9.33058 10.865C8.69949 10.5011 8.10331 10.1573 7.9661 9.84149C7.77642 9.40505 7.43997 8.37855 7.29745 7.84431C7.20313 7.49114 7.27489 7.15191 7.49409 6.91365C7.71898 6.66917 7.92533 6.3459 8.02466 6.19062C8.03502 6.17417 8.04438 6.15955 8.05252 6.14706C8.19213 5.93043 8.3105 5.70566 8.4042 5.47891C8.52914 5.17692 8.53883 4.97049 8.43276 4.86563C8.2639 4.69845 7.79785 4.77091 7.08516 5.07492C6.61225 5.27664 6.08158 5.36805 5.55066 5.33953C4.71212 5.29429 4.46954 5.42577 4.41377 5.54392C4.36935 5.63793 4.42348 5.76937 4.57469 5.93455C4.88266 6.27071 5.25986 6.55472 5.69562 6.77859C5.91441 6.89098 6.2342 7.04615 6.51478 7.14746C6.83108 7.26161 7.06436 7.52317 7.17151 7.88399C7.26849 8.21035 7.36048 8.63587 7.45797 9.08631C7.5227 9.38561 7.5898 9.69521 7.65986 9.98206C7.7646 10.4103 7.71028 10.8365 7.49372 11.2855C7.30548 11.6758 7.01729 12.035 6.76318 12.3521C6.393 12.8136 6.07216 13.2137 6.12155 13.5884L8.60337 12.9172ZM11.1293 12.2996C11.1293 12.2996 11.1293 12.2996 11.1292 12.2997L8.61662 12.9667L6.10733 13.6453C6.10041 13.6471 6.09316 13.646 6.08706 13.6422C6.08097 13.6384 6.07685 13.6321 6.07562 13.6252C6.00198 13.2194 6.33618 12.8027 6.7232 12.3201C7.24612 11.6679 7.83894 10.9289 7.61017 9.99429C7.53989 9.70663 7.47288 9.39677 7.40798 9.09713C7.31081 8.64761 7.21892 8.22301 7.12254 7.8986C7.0201 7.55362 6.79814 7.30403 6.49743 7.19554C6.21434 7.09335 5.89249 6.93717 5.67236 6.82412C5.23105 6.59736 4.84905 6.30972 4.53698 5.96904C4.37044 5.78717 4.31332 5.6367 4.36761 5.52207C4.45846 5.3296 4.85745 5.2509 5.55337 5.28841C6.07655 5.31659 6.59929 5.22652 7.06504 5.02781C7.809 4.7105 8.28127 4.64372 8.4688 4.82926C8.59099 4.95027 8.58504 5.1753 8.45148 5.49851C8.35649 5.72803 8.23676 5.95558 8.09537 6.17487C8.08733 6.18718 8.07812 6.20176 8.06772 6.21806C7.96766 6.37472 7.75963 6.70046 7.53173 6.94825C7.32456 7.17345 7.25722 7.49532 7.34683 7.83124C7.48889 8.36372 7.82411 9.38649 8.01301 9.82119C8.14356 10.1215 8.73261 10.4611 9.35614 10.8207C10.1447 11.2753 10.9601 11.7455 11.1467 12.2664C11.1491 12.273 11.1487 12.2806 11.1453 12.2868C11.142 12.2932 11.1362 12.2978 11.1293 12.2996Z"
        fill="white" />
    <mask id="mask0_9208_1441" style="mask-type:luminance" maskUnits="userSpaceOnUse" x="2" y="0"
        width="8" height="4">
        <path d="M2 2.6875L9.20605 0.756645L9.45773 1.69593L2.25168 3.62679L2 2.6875Z" fill="white" />
    </mask>
    <g mask="url(#mask0_9208_1441)">
        <path
            d="M2.49458 2.79855C2.38065 2.82907 2.31284 2.94662 2.34337 3.06055L2.36099 3.1263C2.39154 3.2403 2.50905 3.30827 2.62298 3.27774L8.9627 1.57902C9.07663 1.54849 9.14442 1.43087 9.11387 1.31687L9.09625 1.25112C9.06572 1.13719 8.94823 1.06929 8.8343 1.09982L2.49458 2.79855ZM9.02358 1.80622L2.68386 3.50494C2.44462 3.56905 2.19791 3.42648 2.13378 3.18718L2.11617 3.12143C2.05205 2.88212 2.19445 2.63537 2.43368 2.57127L8.7734 0.872544C9.01249 0.808481 9.25933 0.950935 9.32346 1.19024L9.34107 1.25599C9.40519 1.49529 9.26267 1.74216 9.02358 1.80622Z"
            fill="white" />
    </g>
    <path
        d="M2.88395 3.4524C2.8295 3.46699 2.79716 3.523 2.81177 3.57752L2.82343 3.62104C2.83802 3.67549 2.89405 3.7079 2.9485 3.69331L8.88994 2.1013C8.94439 2.08671 8.97671 2.03063 8.96212 1.97618L8.95046 1.93266C8.93585 1.87814 8.87984 1.8458 8.82539 1.86039L2.88395 3.4524ZM8.9508 2.32844L3.00936 3.92044C2.82975 3.96857 2.64437 3.8616 2.59623 3.68192L2.58457 3.6384C2.5364 3.45865 2.64346 3.27332 2.82307 3.22519L8.76451 1.63319C8.94412 1.58506 9.12935 1.69207 9.17752 1.87182L9.18918 1.91534C9.23732 2.09502 9.13041 2.28031 8.9508 2.32844Z"
        fill="white" />
    <mask id="mask1_9208_1441" style="mask-type:luminance" maskUnits="userSpaceOnUse" x="5" y="12"
        width="8" height="4">
        <path d="M5.11279 14.3037L12.3188 12.3729L12.5706 13.3124L5.36453 15.2432L5.11279 14.3037Z"
            fill="white" />
    </mask>
    <g mask="url(#mask1_9208_1441)">
        <path
            d="M5.60906 14.4206C5.49513 14.4511 5.42732 14.5687 5.45787 14.6827L5.47551 14.7485C5.50605 14.8625 5.62354 14.9304 5.73748 14.8999L12.0772 13.2012C12.1911 13.1706 12.2589 13.0531 12.2284 12.9391L12.2107 12.8733C12.1802 12.7593 12.0627 12.6914 11.9488 12.7219L5.60906 14.4206ZM12.1381 13.4283L5.79834 15.127C5.5591 15.1911 5.3124 15.0486 5.2483 14.8094L5.23067 14.7436C5.16652 14.5042 5.30893 14.2574 5.54816 14.1933L11.8879 12.4946C12.127 12.4306 12.3738 12.573 12.438 12.8124L12.4556 12.8782C12.5197 13.1174 12.3771 13.3642 12.1381 13.4283Z"
            fill="white" />
    </g>
    <path
        d="M5.68391 13.9026C5.62946 13.9172 5.59714 13.9733 5.61171 14.0276L5.62341 14.0713C5.63796 14.1256 5.69399 14.158 5.74844 14.1434L11.6899 12.5514C11.7443 12.5368 11.7766 12.4808 11.7621 12.4264L11.7504 12.3828C11.7358 12.3284 11.6798 12.296 11.6253 12.3106L5.68391 13.9026ZM11.7508 12.7787L5.80934 14.3707C5.62973 14.4188 5.44431 14.3117 5.3962 14.1322L5.3845 14.0885C5.33638 13.9089 5.44342 13.7235 5.62303 13.6754L11.5645 12.0834C11.7441 12.0353 11.9293 12.1423 11.9775 12.3219L11.9892 12.3656C12.0373 12.5451 11.9304 12.7306 11.7508 12.7787Z"
        fill="white" />
</svg>