<svg xmlns="http://www.w3.org/2000/svg" width="16" height="16" viewBox="0 0 16 16" fill="none">
    <g clip-path="url(#clip0_9033_2689)">
        <path
            d="M13.9869 2H2.01312C1.47921 2 0.967176 2.21209 0.589649 2.58962C0.212123 2.96715 3.05176e-05 3.47918 3.05176e-05 4.01309V12.766C3.05176e-05 13.2999 0.212123 13.8119 0.589649 14.1894C0.967176 14.567 1.47921 14.7791 2.01312 14.7791H13.9869C14.5208 14.7791 15.0329 14.567 15.4104 14.1894C15.7879 13.8119 16 13.2999 16 12.766V4.01309C16 3.47918 15.7879 2.96715 15.4104 2.58962C15.0329 2.21209 14.5208 2 13.9869 2ZM15.1948 9.99597H10.0252C9.59807 9.99597 9.18844 9.8263 8.88642 9.52428C8.5844 9.22226 8.41473 8.81263 8.41473 8.38551C8.41473 7.95838 8.5844 7.54876 8.88642 7.24673C9.18844 6.94471 9.59807 6.77504 10.0252 6.77504H15.1948V9.99597ZM10.0252 5.9698C9.38451 5.9698 8.77007 6.22432 8.31704 6.67735C7.864 7.13038 7.60949 7.74482 7.60949 8.38551C7.60949 9.02619 7.864 9.64063 8.31704 10.0937C8.77007 10.5467 9.38451 10.8012 10.0252 10.8012H15.1948V12.766C15.1948 13.0863 15.0675 13.3935 14.841 13.6201C14.6145 13.8466 14.3073 13.9738 13.9869 13.9738H2.01312C1.69277 13.9738 1.38555 13.8466 1.15904 13.6201C0.93252 13.3935 0.805265 13.0863 0.805265 12.766V4.01309C0.805265 3.69274 0.93252 3.38552 1.15904 3.15901C1.38555 2.93249 1.69277 2.80523 2.01312 2.80523H13.9869C14.3073 2.80523 14.6145 2.93249 14.841 3.15901C15.0675 3.38552 15.1948 3.69274 15.1948 4.01309V5.9698H10.0252Z"
            fill="black" />
        <path
            d="M9.67933 8.66402C10.0475 8.66402 10.346 8.36554 10.346 7.99736C10.346 7.62917 10.0475 7.33069 9.67933 7.33069C9.31114 7.33069 9.01266 7.62917 9.01266 7.99736C9.01266 8.36554 9.31114 8.66402 9.67933 8.66402Z"
            fill="black" />
    </g>
    <defs>
        <clipPath id="clip0_9033_2689">
            <rect width="16" height="16" fill="white" />
        </clipPath>
    </defs>
</svg>