<svg width="25" height="24" viewBox="0 0 25 24" fill="none" xmlns="http://www.w3.org/2000/svg">
    <path
        d="M4.02044 6.33333C4.75054 5.68759 5.69198 5.33182 6.66667 5.33333H18.6667C19.6809 5.33333 20.6071 5.71111 21.3129 6.33333C21.2317 5.68883 20.918 5.09613 20.4308 4.66651C19.9436 4.23689 19.3163 3.99989 18.6667 4H6.66667C6.01707 3.99989 5.38977 4.23689 4.90254 4.66651C4.4153 5.09613 4.10164 5.68883 4.02044 6.33333ZM4.02044 9C4.75054 8.35426 5.69198 7.99849 6.66667 8H18.6667C19.6809 8 20.6071 8.37778 21.3129 9C21.2317 8.3555 20.918 7.7628 20.4308 7.33318C19.9436 6.90355 19.3163 6.66655 18.6667 6.66667H6.66667C6.01707 6.66655 5.38977 6.90355 4.90254 7.33318C4.4153 7.7628 4.10164 8.3555 4.02044 9ZM6.66667 9.33333C5.95942 9.33333 5.28115 9.61428 4.78105 10.1144C4.28095 10.6145 4 11.2928 4 12V17.3333C4 18.0406 4.28095 18.7189 4.78105 19.219C5.28115 19.719 5.95942 20 6.66667 20H18.6667C19.3739 20 20.0522 19.719 20.5523 19.219C21.0524 18.7189 21.3333 18.0406 21.3333 17.3333V12C21.3333 11.2928 21.0524 10.6145 20.5523 10.1144C20.0522 9.61428 19.3739 9.33333 18.6667 9.33333H15.3333C15.1565 9.33333 14.987 9.40357 14.8619 9.5286C14.7369 9.65362 14.6667 9.82319 14.6667 10C14.6667 10.5304 14.456 11.0391 14.0809 11.4142C13.7058 11.7893 13.1971 12 12.6667 12C12.1362 12 11.6275 11.7893 11.2525 11.4142C10.8774 11.0391 10.6667 10.5304 10.6667 10C10.6667 9.82319 10.5964 9.65362 10.4714 9.5286C10.3464 9.40357 10.1768 9.33333 10 9.33333H6.66667Z"
        fill="#7D55AE" />
</svg>