<svg width="16" height="16" viewBox="0 0 16 16" fill="none" xmlns="http://www.w3.org/2000/svg">
    <g clip-path="url(#clip0_8346_10892)">
        <path
            d="M13.9869 2H2.01309C1.47918 2 0.967146 2.21209 0.589619 2.58962C0.212092 2.96715 0 3.47918 0 4.01309V12.766C0 13.2999 0.212092 13.8119 0.589619 14.1894C0.967146 14.567 1.47918 14.7791 2.01309 14.7791H13.9869C14.5208 14.7791 15.0329 14.567 15.4104 14.1894C15.7879 13.8119 16 13.2999 16 12.766V4.01309C16 3.47918 15.7879 2.96715 15.4104 2.58962C15.0329 2.21209 14.5208 2 13.9869 2ZM15.1948 9.99597H10.0252C9.59804 9.99597 9.18841 9.8263 8.88639 9.52428C8.58437 9.22226 8.4147 8.81263 8.4147 8.38551C8.4147 7.95838 8.58437 7.54876 8.88639 7.24673C9.18841 6.94471 9.59804 6.77504 10.0252 6.77504H15.1948V9.99597ZM10.0252 5.9698C9.38448 5.9698 8.77004 6.22432 8.31701 6.67735C7.86397 7.13038 7.60946 7.74482 7.60946 8.38551C7.60946 9.02619 7.86397 9.64063 8.31701 10.0937C8.77004 10.5467 9.38448 10.8012 10.0252 10.8012H15.1948V12.766C15.1948 13.0863 15.0675 13.3935 14.841 13.6201C14.6145 13.8466 14.3073 13.9738 13.9869 13.9738H2.01309C1.69274 13.9738 1.38552 13.8466 1.15901 13.6201C0.93249 13.3935 0.805234 13.0863 0.805234 12.766V4.01309C0.805234 3.69274 0.93249 3.38552 1.15901 3.15901C1.38552 2.93249 1.69274 2.80523 2.01309 2.80523H13.9869C14.3073 2.80523 14.6145 2.93249 14.841 3.15901C15.0675 3.38552 15.1948 3.69274 15.1948 4.01309V5.9698H10.0252Z"
            fill="white" />
        <path
            d="M9.67936 8.66399C10.0476 8.66399 10.346 8.36551 10.346 7.99732C10.346 7.62913 10.0476 7.33066 9.67936 7.33066C9.31117 7.33066 9.0127 7.62913 9.0127 7.99732C9.0127 8.36551 9.31117 8.66399 9.67936 8.66399Z"
            fill="white" />
    </g>
    <defs>
        <clipPath id="clip0_8346_10892">
            <rect width="16" height="16" fill="white" />
        </clipPath>
    </defs>
</svg>