<svg width="135" height="24" viewBox="0 0 135 24" fill="none" xmlns="http://www.w3.org/2000/svg">
<g clip-path="url(#clip0_2835_2602)">
<rect width="135" height="24" rx="12" fill="#CF0063"/>
<path d="M48.1755 -2.03923L48.9885 -2.73271L48.8544 0.707304L53.1783 1.54441L51.5422 2.93997L48.9057 2.44434L48.7946 5.28372L47.9811 5.97762L48.1245 2.29815L44 1.52251L45.6776 0.0915265L48.0745 0.555617L48.1755 -2.03923ZM51.373 2.28713L51.8235 1.90287L45.8057 0.737521L45.3223 1.14988L51.373 2.28713Z" fill="white"/>
<path d="M105.585 24.3597L110.346 20.5942C110.812 20.2105 112.407 18.9531 112.407 18.9531C112.407 18.9531 113.148 18.3904 113.304 19.19C113.374 19.5177 113.514 20.6948 113.681 21.9636L114.145 25.7308C114.145 25.7308 114.252 26.2716 113.884 26.4774C113.517 26.6833 112.749 26.4586 112.606 26.4005C112.494 26.3586 110.55 25.8037 109.801 25.4739C109.599 25.3833 109.334 25.1619 109.612 24.7335C110.226 23.7352 110.95 22.5065 111.38 21.7359C111.578 21.3802 111.67 20.6577 110.738 21.7729L108.102 24.8977C108.102 24.8977 107.798 25.2344 107.043 25.2295C106.288 25.2246 105.397 25.1845 105.397 25.1845C105.397 25.1845 104.742 25.0018 105.585 24.3597Z" fill="white"/>
<path d="M26.1566 21.9448C26.1393 24.1512 25.4832 26.1848 23.9494 27.9924C23.9494 27.9924 23.9388 28.0077 23.9233 27.9969C22.8912 28.0257 21.851 27.8679 20.8599 27.5404C20.8338 27.5448 20.8444 27.5296 20.8289 27.5188C20.8282 27.1562 20.8431 26.8043 20.884 26.448C20.8946 26.4327 20.8946 26.4327 20.9052 26.4175L20.9314 26.413C21.243 26.494 21.5497 26.549 21.8777 26.5735C21.8777 26.5735 21.8932 26.5843 21.9038 26.569C21.9144 26.5538 21.9144 26.5538 21.9095 26.5277C21.8843 26.4649 21.859 26.402 21.8444 26.3239C21.8289 26.3131 21.8289 26.3131 21.8134 26.3023C19.8742 25.949 18.2625 24.8275 17.2418 23.1212C17.2263 23.1104 17.2108 23.0996 17.2108 23.0996C17.1325 23.113 17.0648 23.1112 16.9971 23.1094C16.9709 23.1138 16.9709 23.1138 16.9603 23.1291C16.9497 23.1443 16.9497 23.1443 16.9652 23.1551C17.0867 23.4433 17.2603 23.7226 17.4446 23.9867C17.4446 23.9867 17.434 24.0019 17.4495 24.0127C17.4388 24.028 17.4388 24.028 17.4282 24.0432C17.1083 24.2055 16.7836 24.3417 16.4433 24.4671C16.4278 24.4563 16.4017 24.4608 16.4123 24.4455C15.7608 23.63 15.2513 22.7095 14.9196 21.7317C14.9041 21.7209 14.9148 21.7057 14.9148 21.7057C15.9273 19.9201 17.4308 18.4536 19.8184 17.5344C19.8184 17.5344 19.8184 17.5344 19.8339 17.5451C20.6138 17.6804 21.3611 17.9287 22.0707 18.2641C22.0968 18.2596 22.1017 18.2856 22.1017 18.2856C22.0886 18.5028 22.0493 18.7245 22.0052 18.9202C22.7768 19.2987 23.4742 19.7839 24.0972 20.376C24.2653 20.2666 24.4596 20.1527 24.6587 20.0649C24.6587 20.0649 24.6848 20.0604 24.6897 20.0865C25.2507 20.6354 25.7433 21.2497 26.1411 21.934C26.1566 21.9448 26.1566 21.9448 26.1566 21.9448ZM18.6322 22.7758C19.0816 23.0885 19.7401 22.9355 20.0797 22.4474C20.43 21.9441 20.3495 21.2995 19.8846 20.976C19.4352 20.6633 18.7873 20.801 18.4371 21.3044C18.0975 21.7924 18.1828 22.463 18.6322 22.7758ZM21.6541 24.8785C22.119 25.202 22.762 25.0383 23.1016 24.5502C23.4673 24.0577 23.3714 23.4023 22.9065 23.0788C22.457 22.7661 21.8247 22.9146 21.4744 23.4179C21.1348 23.906 21.2047 24.5658 21.6541 24.8785Z" fill="#5865F2"/>
<path d="M128.494 -1.19133L120.879 -2.83091C119.479 -3.13237 118.266 -1.8131 118.707 -0.440465L121.653 8.7174C121.846 9.31533 122.614 9.4808 123.035 9.01494L129.49 1.88105C130.456 0.81349 129.894 -0.88987 128.495 -1.19112L128.494 -1.19133ZM122.176 6.27372L121.579 4.07245L120.06 -0.876323C119.958 -1.19411 120.237 -1.51307 120.578 -1.43961L123.691 -0.769417L122.174 6.27447L122.176 6.27372ZM128.434 0.92571L125.014 4.81313L123.564 6.5727L125.081 -0.471185L128.194 0.19901C128.535 0.272467 128.658 0.678075 128.434 0.92571Z" fill="url(#paint0_linear_2835_2602)"/>
<g clip-path="url(#clip1_2835_2602)">
<path fill-rule="evenodd" clip-rule="evenodd" d="M7.60918 10.2007L11.0959 6.17629L8.68233 13.7345L7.60918 10.2007ZM8.35796 10.3599L8.7009 11.4892L9.47606 9.07016L8.35796 10.3599Z" fill="#5A9DED"/>
<path fill-rule="evenodd" clip-rule="evenodd" d="M6.3361 4.42894L10.0699 5.26916L9.92365 5.92144L6.18985 5.08122L6.3361 4.42894Z" fill="#D895D3"/>
<path fill-rule="evenodd" clip-rule="evenodd" d="M4.30688 -0.6735L10.8603 5.43931L7.38601 9.46585L4.30688 -0.6735ZM5.66127 1.50897L7.66889 8.11994L9.93754 5.49231L5.66127 1.50897Z" fill="#FF9C92"/>
<path fill-rule="evenodd" clip-rule="evenodd" d="M7.62265 10.1966L2.48419 8.79149L8.69579 13.7304L7.62265 10.1966ZM7.08884 10.7453L7.43178 11.8746L5.44237 10.2951L7.08884 10.7453Z" fill="#53D3E0"/>
<path fill-rule="evenodd" clip-rule="evenodd" d="M5.35178 4.79278L2.71575 7.56739L3.20002 8.0282L5.83605 5.25359L5.35178 4.79278Z" fill="#A6E275"/>
<path fill-rule="evenodd" clip-rule="evenodd" d="M4.30688 -0.673501L2.25938 8.05123L7.38519 9.46314L4.30688 -0.673501ZM4.39215 1.89437L6.39977 8.50535L3.05306 7.58299L4.39215 1.89437Z" fill="#FFE94D"/>
</g>
</g>
<defs>
<linearGradient id="paint0_linear_2835_2602" x1="119.048" y1="-3.22496" x2="127.897" y2="10.4793" gradientUnits="userSpaceOnUse">
<stop stop-color="#2D83EC"/>
<stop offset="1" stop-color="#1AC9FF"/>
</linearGradient>
<clipPath id="clip0_2835_2602">
<rect width="135" height="24" rx="12" fill="white"/>
</clipPath>
<clipPath id="clip1_2835_2602">
<rect width="9" height="15.0577" fill="white" transform="translate(0.00643921 0.632462) rotate(-16.8925)"/>
</clipPath>
</defs>
</svg>
