<svg width="18" height="18" viewBox="0 0 18 18" fill="#1DA1F2" xmlns="http://www.w3.org/2000/svg">
<path d="M17.7326 3.70247C17.1064 3.97997 16.4336 4.16747 15.7264 4.25222C16.4479 3.82022 17.0014 3.13472 17.2624 2.31872C16.5874 2.71922 15.8396 3.01022 15.0439 3.16622C14.4064 2.48822 13.4989 2.06372 12.4939 2.06372C10.5649 2.06372 9.00037 3.62822 9.00037 5.55872C9.00037 5.83172 9.03187 6.09722 9.09037 6.35372C6.18562 6.20747 3.61238 4.81622 1.88887 2.70272C1.58887 3.22022 1.41638 3.82022 1.41638 4.45922C1.41638 5.67122 2.03363 6.74147 2.97038 7.36772C2.39737 7.34897 1.85888 7.19222 1.38788 6.93047V6.97547C1.38788 8.66822 2.59163 10.0805 4.19063 10.4015C3.89663 10.481 3.58838 10.523 3.27038 10.523C3.04538 10.523 2.82562 10.502 2.61263 10.4615C3.05737 11.849 4.34738 12.86 5.87663 12.887C4.68038 13.8245 3.17362 14.3832 1.53712 14.3832C1.25512 14.3832 0.976875 14.3667 0.703125 14.3345C2.24962 15.3267 4.08562 15.9042 6.05813 15.9042C12.4856 15.9042 15.9994 10.5807 15.9994 5.96372C15.9994 5.81372 15.9956 5.66222 15.9889 5.51222C16.6714 5.01872 17.2639 4.40447 17.7311 3.70472L17.7326 3.70247Z" fill="white"/>
</svg>
