<svg width="20" height="20" viewBox="0 0 20 20" fill="none" xmlns="http://www.w3.org/2000/svg">
<rect width="20" height="20" rx="10" fill="#1D9BF0"/>
<path d="M8.16986 15.2751C12.6049 15.2751 15.0299 11.6001 15.0299 8.4151C15.0299 8.3101 15.0299 8.2051 15.0249 8.1051C15.4949 7.7651 15.9049 7.3401 16.2299 6.8551C15.7999 7.0451 15.3349 7.1751 14.8449 7.2351C15.3449 6.9351 15.7249 6.4651 15.9049 5.9001C15.4399 6.1751 14.9249 6.3751 14.3749 6.4851C13.9349 6.0151 13.3099 5.7251 12.6149 5.7251C11.2849 5.7251 10.2049 6.8051 10.2049 8.1351C10.2049 8.3251 10.2249 8.5101 10.2699 8.6851C8.26486 8.5851 6.48986 7.6251 5.29986 6.1651C5.09486 6.5201 4.97486 6.9351 4.97486 7.3751C4.97486 8.2101 5.39986 8.9501 6.04986 9.3801C5.65486 9.3701 5.28486 9.2601 4.95986 9.0801C4.95986 9.0901 4.95986 9.1001 4.95986 9.1101C4.95986 10.2801 5.78986 11.2501 6.89486 11.4751C6.69486 11.5301 6.47986 11.5601 6.25986 11.5601C6.10486 11.5601 5.95486 11.5451 5.80486 11.5151C6.10986 12.4751 6.99986 13.1701 8.05486 13.1901C7.22986 13.8351 6.18986 14.2201 5.05986 14.2201C4.86486 14.2201 4.67486 14.2101 4.48486 14.1851C5.53986 14.8751 6.80986 15.2751 8.16986 15.2751Z" fill="none"/>
</svg>
