<svg width="16" height="16" viewBox="0 0 16 16" fill="none" xmlns="http://www.w3.org/2000/svg">
    <g clip-path="url(#clip0_8346_10901)">
        <path
            d="M14.7557 4.95452C14.7622 5.10274 14.7622 5.24421 14.7622 5.39242C14.7687 9.88591 11.4673 15.0733 5.42996 15.0733C3.64929 15.0733 1.90112 14.5411 0.399902 13.544C0.659854 13.5777 0.919805 13.5912 1.17976 13.5912C2.65498 13.5912 4.09121 13.0792 5.25449 12.1293C3.85076 12.1023 2.61599 11.1524 2.18707 9.76464C2.68097 9.8657 3.18788 9.84549 3.66879 9.70401C2.14158 9.39412 1.04328 7.99959 1.03678 6.376C1.03678 6.36253 1.03678 6.34906 1.03678 6.33558C1.4917 6.59832 2.0051 6.74653 2.525 6.76C1.08877 5.76295 0.640357 3.77557 1.51119 2.21936C3.18138 4.34821 5.63792 5.63495 8.27643 5.77642C8.00998 4.59747 8.37391 3.35789 9.22525 2.52252C10.5445 1.23578 12.6241 1.30314 13.8719 2.67073C14.6062 2.52252 15.3146 2.23957 15.958 1.84209C15.711 2.63031 15.1976 3.29726 14.5153 3.72168C15.1651 3.64084 15.802 3.45894 16.3999 3.18947C15.958 3.87663 15.3991 4.46947 14.7557 4.95452Z"
            fill="#1D9BF0" />
    </g>
    <defs>
        <clipPath id="clip0_8346_10901">
            <rect width="16" height="16" fill="white" />
        </clipPath>
    </defs>
</svg>