<svg width="32" height="32" viewBox="0 0 32 32" fill="none" xmlns="http://www.w3.org/2000/svg">
    <path fill-rule="evenodd" clip-rule="evenodd" d="M16 30C23.732 30 30 23.732 30 16C30 8.26801 23.732 2 16 2C8.26801 2 2 8.26801 2 16C2 22.9003 6.99207 28.6346 13.5617 29.7884V20.2816H10V16.3301H13.5617V13.3184C13.5617 9.89294 15.6548 8 18.8603 8C20.3945 8 22 8.26699 22 8.26699V11.6311H20.2302C18.4877 11.6311 17.9452 12.6857 17.9452 13.767V16.3301H21.8356L21.2137 20.2816H17.9452V29.8345C17.27 29.9379 16.5801 29.9936 15.8779 29.9995C15.9185 29.9998 15.9593 30 16 30Z" fill="white" fill-opacity="0.2"/>
    </svg>
    