<svg xmlns="http://www.w3.org/2000/svg" width="61" height="42" viewBox="0 0 61 42" fill="none">
    <g opacity="0.3">
        <circle cx="30.2079" cy="30.7383" r="19.25" transform="rotate(30.4957 30.2079 30.7383)"
            fill="url(#paint0_linear_481_1879)" />
        <path
            d="M33.3978 39.449L36.8918 35.2013L32.2825 32.4867L34.071 29.4499C34.8255 28.1688 36.2041 27.2978 38.2686 28.5137L40.3655 29.7486L42.7128 25.7629C42.7128 25.7629 40.997 24.3263 39.1792 23.2557C35.3814 21.0191 31.5806 21.8012 29.1904 25.8597L27.0889 29.4279L22.8691 26.9427L20.1119 31.6243L24.3317 34.1096L17.6659 45.4278C18.4367 46.0565 19.2643 46.6333 20.1472 47.1533C21.0301 47.6733 21.9359 48.1173 22.8595 48.4866L29.5253 37.1683L33.3978 39.449Z"
            fill="white" />
    </g>
    <defs>
        <linearGradient id="paint0_linear_481_1879" x1="30.2079" y1="11.4883" x2="30.2079"
            y2="49.8741" gradientUnits="userSpaceOnUse">
            <stop stop-color="#18ACFE" />
            <stop offset="1" stop-color="#0163E0" />
        </linearGradient>
    </defs>
</svg>