<svg width="24" height="24" viewBox="0 0 24 24" fill="none" xmlns="http://www.w3.org/2000/svg">
    <path fill-rule="evenodd" clip-rule="evenodd" d="M18.72 12.1591C18.72 11.6627 18.6755 11.1855 18.5927 10.7273H12V13.435H15.7673C15.605 14.31 15.1118 15.0514 14.3705 15.5477V17.3041H16.6327C17.9564 16.0855 18.72 14.2909 18.72 12.1591Z" fill="#4285F4"/>
    <path fill-rule="evenodd" clip-rule="evenodd" d="M11.9996 19.0001C13.8896 19.0001 15.4741 18.3733 16.6323 17.3042L14.37 15.5478C13.7432 15.9678 12.9414 16.216 11.9996 16.216C10.1764 16.216 8.63323 14.9846 8.08278 13.3301H5.74414V15.1437C6.89596 17.4314 9.26323 19.0001 11.9996 19.0001Z" fill="#34A853"/>
    <path fill-rule="evenodd" clip-rule="evenodd" d="M8.08318 13.3298C7.94318 12.9098 7.86364 12.4612 7.86364 11.9998C7.86364 11.5385 7.94318 11.0898 8.08318 10.6698V8.8562H5.74455C5.27045 9.8012 5 10.8703 5 11.9998C5 13.1294 5.27045 14.1985 5.74455 15.1435L8.08318 13.3298Z" fill="#FBBC05"/>
    <path fill-rule="evenodd" clip-rule="evenodd" d="M11.9996 7.78409C13.0273 7.78409 13.95 8.13727 14.6755 8.83091L16.6832 6.82318C15.471 5.69364 13.8864 5 11.9996 5C9.26323 5 6.89596 6.56864 5.74414 8.85636L8.08278 10.67C8.63323 9.01545 10.1764 7.78409 11.9996 7.78409Z" fill="#EA4335"/>
    </svg>
    