<svg width="32" height="32" viewBox="0 0 32 32" fill="none" xmlns="http://www.w3.org/2000/svg">
    <path d="M28.4998 16.2777C28.4998 15.2499 28.4147 14.4999 28.2305 13.7221H16.2549V18.361H23.2843C23.1426 19.5138 22.3773 21.2499 20.6766 22.4165L20.6528 22.5718L24.4392 25.4465L24.7016 25.4721C27.1108 23.2915 28.4998 20.0832 28.4998 16.2777Z" fill="#4285F4"/>
    <path d="M16.2539 28.5C19.6977 28.5 22.5889 27.3889 24.7006 25.4722L20.6756 22.4166C19.5986 23.1527 18.153 23.6666 16.2539 23.6666C12.8809 23.6666 10.0182 21.4861 8.99766 18.4722L8.84808 18.4846L4.91086 21.4707L4.85938 21.611C6.95685 25.6944 11.2652 28.5 16.2539 28.5Z" fill="#34A853"/>
    <path d="M8.99881 18.4722C8.72954 17.6944 8.5737 16.861 8.5737 15.9999C8.5737 15.1388 8.72954 14.3055 8.98464 13.5277L8.97751 13.362L4.99094 10.328L4.86051 10.3888C3.99604 12.0832 3.5 13.986 3.5 15.9999C3.5 18.0138 3.99604 19.9165 4.86051 21.611L8.99881 18.4722Z" fill="#FBBC05"/>
    <path d="M16.254 8.3333C18.6491 8.3333 20.2647 9.34719 21.1859 10.1945L24.7857 6.75C22.5749 4.73612 19.6978 3.5 16.254 3.5C11.2653 3.5 6.95686 6.30553 4.85938 10.3888L8.98352 13.5278C10.0182 10.5139 12.881 8.3333 16.254 8.3333Z" fill="#EB4335"/>
    </svg>
    