<svg width="24" height="24" viewBox="0 0 24 24" fill="none" xmlns="http://www.w3.org/2000/svg">
    <path
        d="M19.7495 12.0507C19.7495 11.4032 19.6959 10.9307 19.5798 10.4407H12.0352V13.3632H16.4637C16.3745 14.0894 15.8923 15.1832 14.8209 15.9181L14.8058 16.016L17.1913 17.827L17.3566 17.8432C18.8744 16.4694 19.7495 14.4482 19.7495 12.0507Z"
        fill="#FFBCDC" />
    <path
        d="M12.036 19.75C14.2056 19.75 16.027 19.0499 17.3574 17.8424L14.8217 15.9174C14.1432 16.3811 13.2324 16.7049 12.036 16.7049C9.91103 16.7049 8.10747 15.3311 7.46455 13.4324L7.37031 13.4402L4.88986 15.3215L4.85742 15.4099C6.17884 17.9824 8.89313 19.75 12.036 19.75Z"
        fill="#FFBCDC" />
    <path
        d="M7.46426 13.4334C7.29462 12.9434 7.19645 12.4183 7.19645 11.8758C7.19645 11.3333 7.29462 10.8083 7.45534 10.3183L7.45084 10.214L4.9393 8.30249L4.85712 8.34079C4.3125 9.40831 4 10.6071 4 11.8758C4 13.1446 4.3125 14.3433 4.85712 15.4108L7.46426 13.4334Z"
        fill="#FFBCDC" />
    <path
        d="M12.0361 7.04499C13.545 7.04499 14.5628 7.68374 15.1432 8.21753L17.4111 6.04751C16.0182 4.77876 14.2057 4 12.0361 4C8.89315 4 6.17884 5.76749 4.85742 8.33998L7.45564 10.3175C8.10749 8.41877 9.91106 7.04499 12.0361 7.04499Z"
        fill="#FFBCDC" />
</svg>