<svg xmlns="http://www.w3.org/2000/svg" width="32" height="32" viewBox="0 0 32 32" fill="none">
    <rect width="32" height="32" rx="16" fill="white" />
    <path
        d="M25.9995 16.2229C25.9995 15.4007 25.9314 14.8007 25.7841 14.1785H16.2036V17.8895H21.8271C21.7138 18.8118 21.1016 20.2007 19.741 21.1339L19.7219 21.2582L22.7511 23.5579L22.9609 23.5784C24.8883 21.834 25.9995 19.2673 25.9995 16.2229Z"
        fill="#4285F4" />
    <path
        d="M16.204 25.9996C18.959 25.9996 21.2719 25.1106 22.9613 23.5773L19.7414 21.1328C18.8797 21.7217 17.7232 22.1328 16.204 22.1328C13.5056 22.1328 11.2154 20.3884 10.399 17.9773L10.2793 17.9873L7.12957 20.3762L7.08838 20.4884C8.76635 23.755 12.2131 25.9996 16.204 25.9996Z"
        fill="#34A853" />
    <path
        d="M10.399 17.9785C10.1836 17.3563 10.0589 16.6895 10.0589 16.0007C10.0589 15.3118 10.1836 14.6451 10.3877 14.0229L10.382 13.8904L7.19275 11.4631L7.0884 11.5118C6.39683 12.8673 6 14.3896 6 16.0007C6 17.6118 6.39683 19.134 7.0884 20.4895L10.399 17.9785Z"
        fill="#FBBC05" />
    <path
        d="M16.204 9.86663C18.1201 9.86663 19.4126 10.6777 20.1496 11.3556L23.0294 8.59999C21.2607 6.98889 18.9591 6 16.204 6C12.2131 6 8.76636 8.24442 7.08838 11.5111L10.3877 14.0222C11.2154 11.6111 13.5056 9.86663 16.204 9.86663Z"
        fill="#EB4335" />
</svg>