<svg xmlns="http://www.w3.org/2000/svg" width="48" height="34" viewBox="0 0 48 34" fill="none">
    <g opacity="0.4">
        <path
            d="M40.415 2.60489C39.7771 1.26942 39.201 0.347694 38.479 -0.548626L22.918 6.88403L25.7971 12.9117L34.931 8.5489C35.4624 10.1348 35.5455 12.8657 34.0597 15.4371L34.1251 15.6537L40.8294 17.0389L41.1862 16.9095C42.9634 12.5807 42.7769 7.54978 40.415 2.60489Z"
            fill="#4285F4" />
        <path
            d="M32.0903 26.0841C36.5652 23.9467 39.6322 20.7085 41.1867 16.9074L34.0602 15.435C33.1175 17.06 31.558 18.6249 29.0904 19.8036C24.7076 21.897 19.6344 20.8404 16.4378 17.5576L16.2512 17.6666L12.9885 23.9904L13.0087 24.2046C18.2685 28.2087 25.6081 29.1803 32.0903 26.0841Z"
            fill="#34A853" />
        <path
            d="M16.4381 17.5594C15.6055 16.7159 14.8857 15.7298 14.3513 14.6109C13.8168 13.4919 13.5021 12.3124 13.3509 11.1434L13.2388 10.9326L6.1756 9.46442L6.04385 9.62437C5.97223 12.3627 6.50867 15.1431 7.75858 17.7599C9.0085 20.3767 10.834 22.5412 13.0089 24.2065L16.4381 17.5594Z"
            fill="#FBBC05" />
        <path
            d="M19.5734 -0.120073C22.6856 -1.60658 25.4142 -1.29188 27.1371 -0.762701L29.6768 -7.47261C25.5542 -8.71728 21.0485 -8.53784 16.5736 -6.40043C10.0913 -3.30418 6.23429 3.01532 6.04313 9.62293L13.3502 11.142C12.8241 6.5836 15.1906 1.97338 19.5734 -0.120073Z"
            fill="#EB4335" />
    </g>
</svg>