<svg xmlns="http://www.w3.org/2000/svg" width="14" height="20" viewBox="0 0 14 20" fill="none">
    <g clip-path="url(#clip0_481_1870)">
        <path fill-rule="evenodd" clip-rule="evenodd"
            d="M10.7525 8.67299C11.4052 9.49146 11.795 10.5288 11.795 11.6563C11.795 12.8006 11.3933 13.8513 10.7229 14.6754L10.6652 14.7463L10.6499 14.6561C10.6369 14.5795 10.6216 14.502 10.6038 14.424C10.2683 12.95 9.17526 11.686 7.37622 10.6625C6.16135 9.97331 5.46596 9.14341 5.28338 8.20048C5.16548 7.59075 5.25314 6.97832 5.42255 6.45374C5.59191 5.92934 5.84385 5.48998 6.05788 5.22547L6.75785 4.36955C6.88058 4.21949 7.11026 4.21949 7.233 4.36955L10.7525 8.67299ZM11.8594 7.81803L7.16879 2.08213C7.07924 1.97262 6.91156 1.97262 6.82199 2.08213L2.13121 7.81778L2.11608 7.83702C1.25289 8.90816 0.736328 10.2694 0.736328 11.7512C0.736328 15.2023 3.53855 18 6.9954 18C10.4522 18 13.2545 15.2023 13.2545 11.7512C13.2545 10.2694 12.7379 8.90818 11.8747 7.83702L11.8594 7.81803ZM3.25358 8.65451L3.67332 8.14125L3.68601 8.23597C3.69606 8.31099 3.70823 8.3864 3.72268 8.46214C3.99415 9.8865 4.96393 11.0742 6.58529 11.994C7.99465 12.7961 8.81521 13.7185 9.05166 14.7301C9.1503 15.1523 9.16788 15.5676 9.12516 15.9308L9.1225 15.9533L9.10218 15.9632C8.46609 16.274 7.75102 16.4484 6.99526 16.4484C4.34447 16.4484 2.19548 14.303 2.19548 11.6563C2.19548 10.52 2.59162 9.47592 3.25358 8.65451Z"
            fill="black" />
    </g>
    <defs>
        <clipPath id="clip0_481_1870">
            <rect width="13" height="20" fill="white" transform="translate(0.5)" />
        </clipPath>
    </defs>
</svg>