<svg xmlns="http://www.w3.org/2000/svg" width="16" height="20" viewBox="0 0 16 20" fill="none">
    <g clip-path="url(#clip0_481_1254)">
        <path fill-rule="evenodd" clip-rule="evenodd"
            d="M12.5202 8.34124C13.3361 9.36432 13.8234 10.661 13.8234 12.0704C13.8234 13.5008 13.3212 14.8142 12.4832 15.8442L12.4111 15.9329L12.3919 15.8202C12.3757 15.7243 12.3565 15.6276 12.3343 15.53C11.915 13.6874 10.5487 12.1075 8.29986 10.8282C6.78128 9.96664 5.91204 8.92926 5.68382 7.7506C5.53644 6.98844 5.64602 6.2229 5.85778 5.56718C6.06948 4.91168 6.3844 4.36248 6.65194 4.03184L7.5269 2.96194C7.68032 2.77436 7.96742 2.77436 8.12084 2.96194L12.5202 8.34124ZM13.9038 7.27254L8.04058 0.102668C7.92864 -0.0342226 7.71904 -0.0342226 7.60708 0.102668L1.74361 7.27222L1.72469 7.29628C0.6457 8.6352 0 10.3367 0 12.189C0 16.5028 3.50278 20 7.82384 20C12.1449 20 15.6477 16.5028 15.6477 12.189C15.6477 10.3368 15.002 8.63522 13.923 7.29628L13.9038 7.27254ZM3.14656 8.31814L3.67124 7.67656L3.6871 7.79496C3.69966 7.88874 3.71488 7.983 3.73294 8.07768C4.07228 9.85812 5.2845 11.3427 7.3112 12.4925C9.0729 13.4951 10.0986 14.6481 10.3942 15.9126C10.5175 16.4403 10.5394 16.9595 10.486 17.4135L10.4827 17.4416L10.4573 17.454C9.6622 17.8424 8.76836 18.0605 7.82366 18.0605C4.51018 18.0605 1.82393 15.3787 1.82393 12.0704C1.82393 10.65 2.31912 9.3449 3.14656 8.31814Z"
            fill="white" />
    </g>
    <defs>
        <clipPath id="clip0_481_1254">
            <rect width="16" height="20" fill="white" />
        </clipPath>
    </defs>
</svg>