<svg width="50" height="59" viewBox="0 0 50 59" fill="none" xmlns="http://www.w3.org/2000/svg">
    <path fill-rule="evenodd" clip-rule="evenodd"
        d="M42.7564 28.4614C44.0515 32.2936 44.1009 36.5712 42.6129 40.6595C41.1028 44.8086 38.2541 48.0862 34.7273 50.1862L34.4236 50.367L34.4869 50.0198C34.5408 49.7245 34.5872 49.4235 34.6256 49.117C35.3501 43.3279 33.0407 37.2972 27.8449 31.2036C24.3337 27.0955 22.8985 23.1654 23.4785 19.5046C23.8542 17.1376 24.9814 15.0331 26.2902 13.3554C27.5985 11.6783 29.0951 10.4189 30.223 9.74332L33.8997 7.56691C34.5443 7.18535 35.3801 7.48955 35.6287 8.19622L42.7564 28.4614ZM47.9126 26.8275L38.4138 -0.182751C38.2325 -0.698438 37.6223 -0.920521 37.1518 -0.642068L12.5132 13.9421L12.4328 13.9918C7.87811 16.7324 4.20197 20.9839 2.24643 26.3568C-2.30801 38.87 4.19671 52.7257 16.7758 57.3041C29.3548 61.8825 43.244 55.4495 47.7984 42.9363C49.7539 37.5636 49.6707 31.9437 47.9433 26.9166L47.9126 26.8275ZM15.4931 18.4625L17.6979 17.1574L17.6191 17.5176C17.5566 17.803 17.5014 18.0925 17.454 18.3863C16.5621 23.9104 18.5236 29.5012 23.2097 34.9837C27.2796 39.7588 29.0482 44.19 28.5736 48.1711C28.3754 49.8325 27.8912 51.3619 27.2565 52.6221L27.2172 52.7001L27.1301 52.7092C24.4053 52.9935 21.5731 52.6788 18.823 51.6779C9.17708 48.167 4.18846 37.5418 7.68126 27.9454C9.18086 23.8253 12.0003 20.5641 15.4931 18.4625Z"
        fill="url(#paint0_linear_481_1251)" />
    <defs>
        <linearGradient id="paint0_linear_481_1251" x1="41.5" y1="-9" x2="5.5" y2="70.5"
            gradientUnits="userSpaceOnUse">
            <stop stop-color="white" stop-opacity="0.8" />
            <stop offset="0.905326" stop-color="white" stop-opacity="0.4" />
        </linearGradient>
    </defs>
</svg>