<svg width="32" height="32" viewBox="0 0 32 32" fill="none" xmlns="http://www.w3.org/2000/svg">
    <path d="M15.5713 2C7.24866 2 0.5 7.35422 0.5 13.9615C0.5 18.2335 3.31949 21.9758 7.56572 24.1004L6.03708 29.597C6.03708 29.597 6.00877 29.8533 6.17295 29.9501C6.33714 30.047 6.5353 29.9729 6.5353 29.9729C7.01088 29.9046 12.0271 26.356 12.9046 25.7408C13.7709 25.8661 14.6711 25.9288 15.5826 25.9288C23.9052 25.9288 30.6538 20.5746 30.6538 13.9672C30.6538 7.35991 23.8939 2 15.5713 2Z" fill="black"/>
    <path d="M7.2374 18.1309C6.75616 18.1309 6.36551 17.7549 6.36551 17.2936V12.0932H5.00672C4.5368 12.0932 4.15747 11.7115 4.15747 11.2388C4.15747 10.766 4.54246 10.3844 5.00672 10.3844H9.46242C9.93233 10.3844 10.3117 10.766 10.3117 11.2388C10.3117 11.7115 9.92667 12.0932 9.46242 12.0932H8.10363V17.2936C8.10363 17.7493 7.70731 18.1309 7.23174 18.1309H7.2374ZM14.8636 18.1195C14.5013 18.1195 14.2238 17.9714 14.1389 17.7322L13.7086 16.593H11.059L10.6287 17.7322C10.5438 17.9714 10.2664 18.1195 9.90403 18.1195C9.71153 18.1195 9.5247 18.0796 9.34919 18.0056C9.1114 17.8917 8.87927 17.5898 9.14537 16.7638L11.2232 11.2558C11.3704 10.8343 11.8177 10.4014 12.3838 10.3901C12.95 10.3787 13.4029 10.8343 13.5445 11.2558L15.6223 16.7638C15.8884 17.5898 15.6562 17.903 15.4185 18.0056C15.2486 18.0853 15.0561 18.1195 14.8636 18.1195ZM13.2501 15.0437L12.3838 12.5602L11.5176 15.0437H13.2501ZM17.0207 18.0056C16.5678 18.0056 16.1884 17.6467 16.1884 17.2081V11.2558C16.1884 10.7717 16.5848 10.3787 17.0773 10.3787C17.5699 10.3787 17.9662 10.7774 17.9662 11.2558V16.3936H19.8119C20.2648 16.3936 20.6441 16.7525 20.6441 17.191C20.6441 17.6296 20.2705 17.9885 19.8119 17.9885L17.0207 18.0056ZM20.9782 17.2423V11.2615C20.9782 10.7774 21.3745 10.3844 21.8501 10.3844C22.3256 10.3844 22.722 10.7831 22.722 11.2615V13.1412L25.1565 10.6919C25.4244 10.4223 25.9311 10.446 26.2378 10.7546C26.526 11.0445 26.6009 11.5346 26.3001 11.8425L24.3072 13.8361L26.4473 16.6841C26.7349 17.0544 26.6651 17.6312 26.2775 17.903C25.8953 18.1878 25.3339 18.0929 25.0602 17.7322L23.022 15.0152L22.722 15.3171V17.2252C22.722 18.3618 20.9782 18.4056 20.9782 17.2423Z" fill="#FFE812"/>
    </svg>
    