<svg xmlns="http://www.w3.org/2000/svg" width="57" height="41" viewBox="0 0 57 41" fill="none">
    <path
        d="M38.4866 10.8635C28.4381 5.0835 16.5716 6.8611 11.9828 14.8386C9.01599 19.9964 9.82118 26.4728 13.4724 31.9869L7.80942 37.5617C7.80942 37.5617 7.59723 37.8515 7.72822 38.0825C7.8592 38.3134 8.14988 38.3616 8.14988 38.3616C8.77154 38.6094 17.2924 37.8087 18.7792 37.6754C19.738 38.4283 20.7813 39.1291 21.8819 39.7621C31.9303 45.5421 43.7969 43.7645 48.3856 35.787C52.9743 27.8096 48.535 16.6435 38.4866 10.8635Z"
        fill="black" />
    <path
        d="M17.2219 24.5515C16.6409 24.2173 16.4303 23.4921 16.7508 22.935L20.3624 16.6562L18.7219 15.7125C18.1545 15.3862 17.9615 14.662 18.2899 14.0912C18.6182 13.5204 19.3481 13.327 19.9086 13.6494L25.2883 16.7439C25.8556 17.0702 26.0486 17.7944 25.7202 18.3652C25.3919 18.936 24.662 19.1294 24.1015 18.807L22.461 17.8633L18.8493 24.1421C18.5328 24.6923 17.7893 24.8778 17.2151 24.5476L17.2219 24.5515ZM26.4375 29.8341C26 29.5824 25.7679 29.211 25.8315 28.8631L26.1032 27.1889L22.9041 25.3487L21.5934 26.4253C21.3247 26.6552 20.8869 26.6413 20.4495 26.3897C20.217 26.256 20.0192 26.0781 19.8587 25.8668C19.6507 25.5641 19.5801 25.0384 20.475 24.226L26.8089 19.0189C27.2794 18.6122 28.12 18.4002 28.8115 18.7796C29.503 19.1591 29.7334 20.0238 29.6115 20.631L28.295 28.7242C28.0426 29.9062 27.5448 30.1232 27.1865 30.0819C26.9261 30.0602 26.6699 29.9678 26.4375 29.8341ZM26.6255 24.9998L27.3043 21.3998L24.5338 23.7966L26.6255 24.9998ZM29.121 31.1946C28.5741 30.8801 28.3654 30.1834 28.67 29.6538L32.8038 22.4672C33.14 21.8827 33.8915 21.6834 34.4862 22.0255C35.0809 22.3675 35.2825 23.1242 34.9502 23.7019L31.382 29.905L33.6105 31.1868C34.1573 31.5014 34.3661 32.1981 34.0615 32.7276C33.7569 33.2572 33.0565 33.4309 32.5028 33.1124L29.121 31.1946ZM34.4292 33.0215L38.5828 25.8005C38.919 25.216 39.6705 25.0167 40.2447 25.347C40.8189 25.6773 41.0205 26.4339 40.6882 27.0116L39.3828 29.281L44.0231 28.0146C44.5339 27.8752 45.1291 28.2556 45.2852 28.8413C45.4318 29.3914 45.1819 30.0351 44.6048 30.198L40.8141 31.221L41.4201 36.1458C41.5101 36.7927 41.0253 37.4406 40.3685 37.4996C39.7093 37.578 39.0974 37.0735 39.0175 36.4479L38.4436 31.752L37.8716 31.9081L36.5464 34.2119C35.7571 35.5842 33.6213 34.426 34.4292 33.0215Z"
        fill="#FFE812" />
</svg>