<svg width="32" height="32" viewBox="0 0 32 32" fill="none" xmlns="http://www.w3.org/2000/svg">
    <path fill-rule="evenodd" clip-rule="evenodd" d="M0 14.6939C0 7.68203 7.16185 2 15.994 2C24.8261 2 32 7.68807 32 14.6999C32 21.7118 24.8382 27.3938 16.006 27.3938C15.0387 27.3938 14.0834 27.3273 13.1641 27.1943C13.0932 27.244 12.9969 27.3117 12.8792 27.3945C11.4504 28.399 6.87109 31.6185 6.40481 31.6856C6.40481 31.6856 6.19452 31.7641 6.02028 31.6614C5.84604 31.5586 5.87608 31.2866 5.87608 31.2866L7.49831 25.4535C2.99211 23.1988 0 19.2274 0 14.6939ZM6.22457 18.2299C6.22457 18.7195 6.63914 19.1184 7.14984 19.1184H7.14383C7.64853 19.1184 8.06911 18.7135 8.06911 18.2299V12.7111H9.51109C10.0038 12.7111 10.4123 12.3061 10.4123 11.8044C10.4123 11.3026 10.0098 10.8976 9.51109 10.8976H4.78259C4.28991 10.8976 3.88135 11.3026 3.88135 11.8044C3.88135 12.3061 4.2839 12.7111 4.78259 12.7111H6.22457V18.2299ZM14.4739 18.6953C14.564 18.9492 14.8584 19.1064 15.243 19.1064C15.4473 19.1064 15.6515 19.0701 15.8318 18.9855C16.0841 18.8767 16.3305 18.5442 16.0481 17.6677L13.843 11.8225C13.6928 11.3752 13.2122 10.8916 12.6114 10.9037C12.0105 10.9158 11.5359 11.3752 11.3797 11.8225L9.17463 17.6677C8.89224 18.5442 9.13858 18.8646 9.39092 18.9855C9.57718 19.064 9.77545 19.1064 9.97973 19.1064C10.3643 19.1064 10.6587 18.9492 10.7488 18.6953L11.2054 17.4864H14.0173L14.4739 18.6953ZM12.6114 13.2067L13.5306 15.8422H11.6921L12.6114 13.2067ZM16.6489 18.1392C16.6489 18.6046 17.0515 18.9855 17.5321 18.9855L20.4942 18.9673C20.9809 18.9673 21.3774 18.5865 21.3774 18.1211C21.3774 17.6556 20.9749 17.2748 20.4942 17.2748H18.5355V11.8225C18.5355 11.3147 18.1149 10.8916 17.5922 10.8916C17.0695 10.8916 16.6489 11.3087 16.6489 11.8225V18.1392ZM21.7319 11.8285V18.1755C21.7319 19.41 23.5824 19.3635 23.5824 18.1573V16.1324L23.9009 15.812L26.0639 18.6953C26.3543 19.0781 26.9501 19.1789 27.3556 18.8767C27.767 18.5882 27.8411 17.9761 27.5359 17.5831L25.2648 14.5607L27.3797 12.4451C27.6989 12.1183 27.6194 11.5982 27.3136 11.2906C26.988 10.963 26.4504 10.9379 26.166 11.2241L23.5824 13.8233V11.8285C23.5824 11.3208 23.1619 10.8976 22.6572 10.8976C22.1525 10.8976 21.7319 11.3147 21.7319 11.8285Z" fill="white" fill-opacity="0.2"/>
    </svg>
    