<svg width="61" height="46" viewBox="0 0 61 46" fill="none" xmlns="http://www.w3.org/2000/svg">
    <g opacity="0.2" clip-path="url(#clip0_481_1881)">
        <path
            d="M42.4866 15.8635C32.4381 10.0835 20.5716 11.8611 15.9828 19.8386C13.016 24.9964 13.8212 31.4728 17.4724 36.9869L11.8094 42.5617C11.8094 42.5617 11.5972 42.8515 11.7282 43.0825C11.8592 43.3134 12.1499 43.3616 12.1499 43.3616C12.7715 43.6094 21.2924 42.8087 22.7792 42.6754C23.738 43.4283 24.7813 44.1291 25.8819 44.7621C35.9303 50.5421 47.7969 48.7645 52.3856 40.787C56.9743 32.8096 52.535 21.6435 42.4866 15.8635Z"
            fill="black" />
        <path
            d="M21.2219 29.5515C20.6409 29.2173 20.4303 28.4921 20.7508 27.935L24.3624 21.6562L22.7219 20.7125C22.1545 20.3862 21.9615 19.662 22.2899 19.0912C22.6182 18.5204 23.3481 18.327 23.9086 18.6494L29.2883 21.7439C29.8556 22.0702 30.0486 22.7944 29.7202 23.3652C29.3919 23.936 28.662 24.1294 28.1015 23.807L26.461 22.8633L22.8493 29.1421C22.5328 29.6923 21.7893 29.8778 21.2151 29.5476L21.2219 29.5515ZM30.4375 34.8341C30 34.5824 29.7679 34.211 29.8315 33.8631L30.1032 32.1889L26.9041 30.3487L25.5934 31.4253C25.3247 31.6552 24.8869 31.6413 24.4495 31.3897C24.217 31.256 24.0192 31.0781 23.8587 30.8668C23.6507 30.5641 23.5801 30.0384 24.475 29.226L30.8089 24.0189C31.2794 23.6122 32.12 23.4002 32.8115 23.7796C33.503 24.1591 33.7334 25.0238 33.6115 25.631L32.295 33.7242C32.0426 34.9062 31.5448 35.1232 31.1865 35.0819C30.9261 35.0602 30.6699 34.9678 30.4375 34.8341ZM30.6255 29.9998L31.3043 26.3998L28.5338 28.7966L30.6255 29.9998ZM33.121 36.1946C32.5741 35.8801 32.3654 35.1834 32.67 34.6538L36.8038 27.4672C37.14 26.8827 37.8915 26.6834 38.4862 27.0255C39.0809 27.3675 39.2825 28.1242 38.9502 28.7019L35.382 34.905L37.6105 36.1868C38.1573 36.5014 38.3661 37.1981 38.0615 37.7276C37.7569 38.2572 37.0565 38.4309 36.5028 38.1124L33.121 36.1946ZM38.4292 38.0215L42.5828 30.8005C42.919 30.216 43.6705 30.0167 44.2447 30.347C44.8189 30.6773 45.0205 31.4339 44.6882 32.0116L43.3828 34.281L48.0231 33.0146C48.5339 32.8752 49.1291 33.2556 49.2852 33.8413C49.4318 34.3914 49.1819 35.0351 48.6048 35.198L44.8141 36.221L45.4201 41.1458C45.5101 41.7927 45.0253 42.4406 44.3685 42.4996C43.7093 42.578 43.0974 42.0735 43.0175 41.4479L42.4436 36.752L41.8716 36.9081L40.5464 39.2119C39.7571 40.5842 37.6213 39.426 38.4292 38.0215Z"
            fill="#FFE812" />
    </g>
    <defs>
        <clipPath id="clip0_481_1881">
            <rect width="48" height="48" fill="white" transform="translate(23.9331) rotate(29.9081)" />
        </clipPath>
    </defs>
</svg>