<svg xmlns="http://www.w3.org/2000/svg" width="54" height="43" viewBox="0 0 54 43" fill="none">
    <g opacity="0.3">
        <path d="M34.581 6.22799L31.6034 6.59333L32.6994 15.5263L35.6771 15.161L34.581 6.22799Z"
            fill="#6445A2" />
        <path d="M24.1592 7.50669L27.1369 7.14135L28.2329 16.0744L25.2552 16.4397L24.1592 7.50669Z"
            fill="#6445A2" />
        <path fill-rule="evenodd" clip-rule="evenodd"
            d="M8.90549 6.35573L10.5093 0.113964L42.418 -3.80105L45.1581 18.5315L37.3211 28.5605L29.8769 29.4739L25.7887 34.5092L20.0031 35.2191L19.4551 30.7526L12.0109 31.6659L8.90549 6.35573ZM36.5904 22.6052L41.8151 15.9192L39.8057 -0.458037L14.4955 2.64738L17.2356 24.9799L23.1909 24.2492L23.7389 28.7157L27.6574 23.7012L36.5904 22.6052Z"
            fill="#6445A2" />
    </g>
</svg>