<svg xmlns="http://www.w3.org/2000/svg" width="20" height="20" viewBox="0 0 20 20" fill="none">
    <path
        d="M4.68498 6.15551C7.62039 3.2815 12.3796 3.2815 15.3151 6.15551L15.6683 6.50139C15.8151 6.64511 15.8151 6.87808 15.6683 7.0218L14.4598 8.20501C14.3864 8.27687 14.2674 8.27687 14.194 8.20501L13.7079 7.72905C11.6601 5.72404 8.33992 5.72404 6.29209 7.72905L5.77145 8.23876C5.69809 8.31062 5.57912 8.31062 5.50572 8.23876L4.29723 7.05555C4.15042 6.91183 4.15042 6.67886 4.29723 6.53514L4.68498 6.15551ZM17.8143 8.60256L18.8899 9.65561C19.0367 9.79933 19.0367 10.0323 18.8899 10.176L14.0401 14.9245C13.8933 15.0682 13.6554 15.0682 13.5086 14.9245L10.0665 11.5544C10.0298 11.5184 9.97028 11.5184 9.93357 11.5544L6.49154 14.9245C6.34478 15.0682 6.10679 15.0682 5.96003 14.9245L1.11008 10.176C0.963307 10.0322 0.963307 9.79928 1.11008 9.65556L2.18565 8.60247C2.33242 8.4588 2.57039 8.4588 2.71716 8.60247L6.15934 11.9726C6.196 12.0086 6.25548 12.0086 6.29218 11.9726L9.73417 8.60247C9.88093 8.4588 10.1189 8.4588 10.2657 8.60247L13.7079 11.9726C13.7446 12.0086 13.804 12.0086 13.8407 11.9726L17.2828 8.60256C17.4296 8.45884 17.6676 8.45884 17.8143 8.60256Z"
        fill="#3B99FC" />
</svg>