<svg width="16" height="16" viewBox="0 0 16 16" fill="none" xmlns="http://www.w3.org/2000/svg">
<g clip-path="url(#clip0_261_2095)">
<path d="M8 16C12.4183 16 16 12.4183 16 8C16 3.58172 12.4183 0 8 0C3.58172 0 0 3.58172 0 8C0 12.4183 3.58172 16 8 16Z" fill="#FF0420"/>
<path d="M5.80236 10.24C5.31984 10.24 4.92451 10.1238 4.61632 9.89156C4.31222 9.65511 4.16016 9.31911 4.16016 8.88356C4.16016 8.7923 4.1703 8.6803 4.19056 8.54756C4.24329 8.24891 4.3183 7.89009 4.41561 7.47111C4.69132 6.33038 5.40297 5.76001 6.55049 5.76001C6.86272 5.76001 7.14249 5.81393 7.38982 5.9218C7.63718 6.02548 7.8318 6.18311 7.97372 6.39467C8.11564 6.60209 8.18662 6.85099 8.18662 7.14135C8.18662 7.22846 8.17648 7.33838 8.15619 7.47111C8.09539 7.8403 8.0224 8.19911 7.93724 8.54756C7.79532 9.11585 7.55001 9.54103 7.20128 9.82311C6.85257 10.101 6.38627 10.24 5.80236 10.24ZM5.88752 9.34401C6.11459 9.34401 6.3072 9.27556 6.46534 9.13867C6.62752 9.0018 6.7431 8.7923 6.81203 8.51022C6.90528 8.1203 6.97625 7.78017 7.02489 7.4898C7.04112 7.40267 7.04921 7.31348 7.04921 7.22222C7.04921 6.84475 6.85664 6.65601 6.47142 6.65601C6.24435 6.65601 6.04972 6.72446 5.88752 6.86135C5.72937 6.99822 5.61584 7.20772 5.54691 7.4898C5.47392 7.76772 5.40092 8.10785 5.32796 8.51022C5.31174 8.59319 5.30361 8.6803 5.30361 8.77156C5.30361 9.15319 5.49824 9.34401 5.88752 9.34401Z" fill="white"/>
<path d="M8.46595 10.1778C8.42134 10.1778 8.38688 10.1633 8.36253 10.1343C8.34227 10.1011 8.33619 10.0638 8.34429 10.0223L9.18365 5.97785C9.19174 5.93222 9.21405 5.89487 9.25056 5.86585C9.28704 5.83679 9.32557 5.82227 9.36611 5.82227H10.984C11.4341 5.82227 11.7949 5.91769 12.0666 6.10851C12.3424 6.29932 12.4802 6.57516 12.4802 6.93606C12.4802 7.03977 12.4681 7.14761 12.4437 7.25961C12.3424 7.73667 12.1376 8.08924 11.8294 8.3174C11.5253 8.54553 11.1076 8.65961 10.5765 8.65961H9.75536L9.47558 10.0223C9.46749 10.0679 9.44518 10.1052 9.40867 10.1343C9.37219 10.1633 9.33366 10.1778 9.29312 10.1778H8.46595ZM10.619 7.80095C10.7893 7.80095 10.9373 7.75324 11.0631 7.65785C11.1928 7.56242 11.278 7.42553 11.3185 7.24716C11.3307 7.17666 11.3368 7.11443 11.3368 7.06051C11.3368 6.94022 11.3023 6.84895 11.2334 6.78671C11.1644 6.72035 11.0468 6.68716 10.8806 6.68716H10.1507L9.91958 7.80095H10.619Z" fill="white"/>
</g>
<defs>
<clipPath id="clip0_261_2095">
<rect width="16" height="16" fill="white"/>
</clipPath>
</defs>
</svg>
