<svg width="32" height="32" viewBox="0 0 32 32" fill="none" xmlns="http://www.w3.org/2000/svg">
<path d="M19.4286 16L31.3143 4.11429C32.2286 3.2 32.2286 1.6 31.3143 0.685714C30.4 -0.228571 28.8 -0.228571 27.8857 0.685714L16 12.5714L4.11429 0.685714C3.2 -0.228571 1.6 -0.228571 0.685714 0.685714C-0.228571 1.6 -0.228571 3.2 0.685714 4.11429L12.5714 16L0.685714 27.8857C-0.228571 28.8 -0.228571 30.4 0.685714 31.3143C1.6 32.2286 3.2 32.2286 4.11429 31.3143L16 19.4286L27.8857 31.3143C28.8 32.2286 30.4 32.2286 31.3143 31.3143C32.2286 30.4 32.2286 28.8 31.3143 27.8857L19.4286 16Z" fill="white" fill-opacity="0.2"/>
</svg>
