<svg width="24" height="24" viewBox="0 0 24 24" fill="none" xmlns="http://www.w3.org/2000/svg">
<g >
<path d="M12 10.5C11.9127 10.5 11.8441 10.4686 11.8019 10.431C11.7605 10.3943 11.75 10.3589 11.75 10.3333V5.66667C11.75 5.64111 11.7605 5.60569 11.8019 5.56897C11.8441 5.53143 11.9127 5.5 12 5.5C12.0873 5.5 12.1559 5.53143 12.1981 5.56897C12.2395 5.60569 12.25 5.64111 12.25 5.66667V10.3333C12.25 10.3589 12.2395 10.3943 12.1981 10.431C12.1559 10.4686 12.0873 10.5 12 10.5Z" />
<path d="M9 7.30273C7.2066 8.34016 6 10.2792 6 12.5C6 15.8138 8.68629 18.5 12 18.5C15.3137 18.5 18 15.8138 18 12.5C18 10.3137 16.8306 8.40044 15.0831 7.35171" stroke="#999999" stroke-width="1.5" stroke-linecap="round"/>
</g>
<defs>

</defs>
</svg>
