<svg width="10" height="10" viewBox="0 0 10 10" fill="none" xmlns="http://www.w3.org/2000/svg">
<path d="M6.07143 5L9.78571 1.28571C10.0714 1 10.0714 0.5 9.78571 0.214286C9.5 -0.0714286 9 -0.0714286 8.71429 0.214286L5 3.92857L1.28571 0.214286C1 -0.0714286 0.5 -0.0714286 0.214286 0.214286C-0.0714286 0.5 -0.0714286 1 0.214286 1.28571L3.92857 5L0.214286 8.71429C-0.0714286 9 -0.0714286 9.5 0.214286 9.78571C0.5 10.0714 1 10.0714 1.28571 9.78571L5 6.07143L8.71429 9.78571C9 10.0714 9.5 10.0714 9.78571 9.78571C10.0714 9.5 10.0714 9 9.78571 8.71429L6.07143 5Z" fill="black"/>
</svg>
