<svg width="32" height="27" viewBox="0 0 32 27" fill="none" xmlns="http://www.w3.org/2000/svg">
<path d="M4.68829 2.70822C3.07202 3.56507 1.71789 4.84349 0.769623 6.40783L4.58944 7.11387C5.29963 5.93613 6.31759 4.97436 7.53374 4.33209C10.7887 2.44698 15.4629 1.88215 19.5792 2.62349L20.7654 0.406543C15.2722 -0.560723 9.03766 0.19474 4.68829 2.70822Z" fill="#C6D6FF"/>
<path d="M4.68829 2.70822C3.07202 3.56507 1.71789 4.84349 0.769623 6.40783L4.58944 7.11387C5.29963 5.93613 6.31759 4.97436 7.53374 4.33209C10.7887 2.44698 15.4629 1.88215 19.5792 2.62349L20.7654 0.406543C15.2722 -0.560723 9.03766 0.19474 4.68829 2.70822Z" fill="white" fill-opacity="0.2"/>
<path d="M19.5792 2.64468C15.4628 1.93864 10.7887 2.46817 7.53371 4.35328C6.31756 4.99555 5.29961 5.95731 4.58942 7.13505V15.0991C5.30183 13.9232 6.31923 12.9619 7.53371 12.3173C10.7887 10.4322 15.4628 9.86741 19.5792 10.6087V2.64468Z" fill="#7EA3FF"/>
<path d="M19.5792 2.64468C15.4628 1.93864 10.7887 2.46817 7.53371 4.35328C6.31756 4.99555 5.29961 5.95731 4.58942 7.13505V15.0991C5.30183 13.9232 6.31923 12.9619 7.53371 12.3173C10.7887 10.4322 15.4628 9.86741 19.5792 10.6087V2.64468Z" fill="white" fill-opacity="0.2"/>
<path d="M4.58944 15.0991L0.769623 14.3719V6.40782L4.58944 7.13504V15.0991Z" fill="#7EA3FF"/>
<path d="M20.7654 8.38473L19.5792 10.6087V2.63762L20.7654 0.42067V8.38473Z" fill="#0049FF"/>
<path d="M27.3107 4.8616C25.2758 3.73185 23.0618 2.96045 20.7654 2.58112L19.5792 4.79806C21.2934 5.08478 22.9459 5.66265 24.4652 6.50666C25.4049 7.02391 26.2366 7.71657 26.9153 8.5471L30.5656 7.57278C29.6634 6.46984 28.5586 5.54958 27.3107 4.8616Z" fill="#9AB7FF"/>
<path d="M26.9153 8.5471C26.2366 7.71657 25.4049 7.02392 24.4652 6.50667C22.9459 5.66265 21.2934 5.08478 19.5792 4.79807V10.6017C21.2934 10.8884 22.9459 11.4663 24.4652 12.3103C25.4049 12.8275 26.2366 13.5202 26.9153 14.3507V8.5471Z" fill="#638EF9"/>
<path d="M30.5656 13.3834L26.9153 14.3578V8.54005L30.5656 7.56572V13.3834Z" fill="#0049FF"/>
<path d="M30.5656 13.3834L26.9153 14.3578V8.54005L30.5656 7.56572V13.3834Z" fill="white" fill-opacity="0.2"/>
<path d="M30.5657 10.0792L26.9153 11.0606C28.9064 13.6023 28.0874 16.7089 24.4652 18.7917C23.6704 19.247 22.8304 19.6185 21.9587 19.9001L23.9781 21.9123C25.1359 21.5341 26.2524 21.0397 27.3107 20.4367C32.1826 17.662 33.2417 13.4823 30.5657 10.0792Z" fill="#FCE9BA"/>
<path d="M26.9152 14.3578C27.2037 14.7242 27.4412 15.1279 27.6213 15.558C27.925 14.8247 28.0197 14.0217 27.8951 13.2379C27.7705 12.4541 27.4313 11.72 26.9152 11.1171H26.8729L26.9152 14.3578Z" fill="#FFDB82"/>
<path d="M31.9918 13.9906C31.9918 16.3276 30.3961 18.6575 27.3106 20.4367C26.2524 21.0397 25.1358 21.5341 23.978 21.9123V25.2095C25.137 24.8343 26.2538 24.3398 27.3106 23.7339C30.5091 21.8912 32.0625 19.4977 31.9918 17.0478V13.9906Z" fill="#FFBD1A"/>
<path d="M23.9781 25.2095L21.9587 23.1973V19.9001L23.9781 21.9053V25.2095Z" fill="#998479"/>
<path d="M21.9587 17.3937C20.7228 17.7968 19.4467 18.0643 18.153 18.1915L18.8591 20.4791C20.5894 20.3001 22.2959 19.938 23.9498 19.3989L21.9587 17.3937Z" fill="#9AB7FF"/>
<path d="M18.8873 26.2898C20.6187 26.1176 22.3259 25.7553 23.978 25.2095V19.3989C22.3241 19.938 20.6177 20.3001 18.8873 20.4791V26.2898Z" fill="#0049FF"/>
<path d="M18.8873 26.2897L18.153 24.0022V18.1915L18.8873 20.472V26.2897Z" fill="#EEBD44"/>
<path d="M7.53377 18.7917C4.25056 16.8995 3.29737 14.1883 4.58947 11.8019L0.769655 11.0959C-1.00963 14.2872 0.296587 17.9233 4.68832 20.4579C5.04842 20.6697 5.42969 20.8674 5.82509 21.051L8.39517 19.2718C8.09863 19.1094 7.80914 18.9541 7.53377 18.7917Z" fill="#C6D6FF"/>
<path d="M4.58942 11.8019C4.26027 12.3667 4.06891 13.0012 4.03088 13.6538C3.99285 14.3064 4.10922 14.9588 4.37055 15.558C4.43342 15.4004 4.50653 15.2471 4.58942 15.0991V11.8019Z" fill="#0049FF"/>
<path d="M5.82505 21.0298C5.42966 20.8462 5.04838 20.6485 4.68828 20.4367C1.58159 18.6434 0.021182 16.2994 0 13.9483V17.1254C0 19.5118 1.5251 21.9123 4.68828 23.7339C5.04838 23.9457 5.42966 24.1434 5.82505 24.334V21.0298Z" fill="#98B5FF"/>
<path d="M8.39516 22.5478L5.82507 24.327V21.0298L8.39516 19.2435V22.5478Z" fill="#244F8A"/>
<path d="M8.39516 13.8635L5.82507 15.6498C9.92735 17.4531 14.4368 18.1282 18.8873 17.6055L18.1812 15.325C14.8473 15.7161 11.4693 15.2116 8.39516 13.8635Z" fill="#C6D6FF"/>
<path d="M5.82507 24.334C9.9283 26.134 14.4368 26.809 18.8873 26.2898V17.6055C14.4368 18.1282 9.92735 17.4531 5.82507 15.6498V24.334Z" fill="#7EA3FF"/>
</svg>
