<svg width="40" height="40" viewBox="0 0 40 40" fill="none" xmlns="http://www.w3.org/2000/svg">
<g clip-path="url(#clip0_8001_44683)">
<rect width="40" height="40" rx="20" fill="#666666" fill-opacity="0.2"/>
<mask id="mask0_8001_44683" style="mask-type:luminance" maskUnits="userSpaceOnUse" x="8" y="9" width="24" height="23">
<path fill-rule="evenodd" clip-rule="evenodd" d="M20.1846 9C30.9569 9 32 16.512 32 23.4C32 29.5495 27.2978 31.1538 20.1846 31.1538C13.2689 31.1538 8 29.5495 8 23.4C8 16.512 9.41231 9 20.1846 9Z" fill="white"/>
</mask>
<g mask="url(#mask0_8001_44683)">
<path d="M7.26154 8.63074H32.7385V31.523H7.26154V8.63074Z" fill="url(#paint0_linear_8001_44683)"/>
</g>
<path d="M23.6923 25.2461H16.3077C16.1038 25.2461 15.9385 25.358 15.9385 25.4961C15.9385 25.6342 16.1038 25.7461 16.3077 25.7461H23.6923C23.8962 25.7461 24.0615 25.6342 24.0615 25.4961C24.0615 25.358 23.8962 25.2461 23.6923 25.2461Z" fill="black" fill-opacity="0.8"/>
<path d="M13.7231 18.4154L15.9385 18.0461M14.0923 20.6308C14.0923 20.0197 14.6277 19.5231 15.3846 19.5231C15.9569 19.5231 16.4923 20.0197 16.4923 20.6308M26.2769 18.6L24.0615 18.0461M25.9077 20.6308C25.9077 20.0197 25.3723 19.5231 24.8 19.5231C24.0431 19.5231 23.5077 20.0197 23.5077 20.6308" stroke="black" stroke-width="0.5" stroke-linecap="round" stroke-linejoin="round"/>
</g>
<defs>
<linearGradient id="paint0_linear_8001_44683" x1="3.34201" y1="28.6615" x2="31.455" y2="8.64356" gradientUnits="userSpaceOnUse">
<stop stop-color="#6AB3F7"/>
<stop offset="1" stop-color="#67EBD4"/>
</linearGradient>
<clipPath id="clip0_8001_44683">
<rect width="40" height="40" fill="white"/>
</clipPath>
</defs>
</svg>
