<svg width="3200" height="3200" viewBox="0 0 3200 3200" fill="none" xmlns="http://www.w3.org/2000/svg">
<rect width="3200" height="3200" rx="1600" fill="url(#paint0_linear_6889_41025)"/>
<g clip-path="url(#clip0_6889_41025)">
<path d="M1600 1025H847.059C821.069 1025 800 1047.39 800 1075V1175C800 1202.61 821.069 1225 847.059 1225H1600C1625.99 1225 1647.06 1202.61 1647.06 1175V1075C1647.06 1047.39 1625.99 1025 1600 1025Z" fill="white"/>
<path fill-rule="evenodd" clip-rule="evenodd" d="M1188.24 600C1162.25 600 1141.18 622.386 1141.18 650V2100H1141.49C1150.78 2377.81 1365.67 2600 1629.41 2600C1639.29 2600 1649.09 2599.69 1658.82 2599.07V2437.45C1482.26 2434.22 1338.94 2285.97 1329.87 2100H1329.41V650C1329.41 622.386 1308.34 600 1282.35 600H1188.24Z" fill="white"/>
<path fill-rule="evenodd" clip-rule="evenodd" d="M1796.79 1712.5C1767.28 1712.5 1738.72 1708.15 1711.61 1700H1796.79V1549.58C1882.27 1543.4 1949.73 1470.39 1949.73 1381.25C1949.73 1292.1 1882.27 1219.1 1796.79 1212.92V1025C1972.23 1025 2114.44 1178.9 2114.44 1368.75C2114.44 1558.6 1972.23 1712.5 1796.79 1712.5ZM1761.5 1025C1735.51 1025 1714.44 1047.39 1714.44 1075V1162.5C1714.44 1190.11 1735.51 1212.5 1761.5 1212.5H1796.79V1025H1761.5Z" fill="white"/>
<path d="M1479.14 1600C1479.14 1572.39 1500.21 1550 1526.2 1550H1832.09V1750H1526.2C1500.21 1750 1479.14 1727.61 1479.14 1700V1600Z" fill="white"/>
<path fill-rule="evenodd" clip-rule="evenodd" d="M1832.09 2600C2098.49 2600 2314.44 2373.35 2314.44 2093.75C2314.44 1814.15 2098.49 1587.5 1832.09 1587.5V1750.06C2008.05 1753.39 2149.73 1905.99 2149.73 2093.75C2149.73 2281.51 2008.05 2434.11 1832.09 2437.45V2600Z" fill="white"/>
<path d="M1785.03 2487.5C1785.03 2459.89 1806.1 2437.5 1832.09 2437.5V2600C1806.1 2600 1785.03 2577.61 1785.03 2550V2487.5Z" fill="white"/>
<path d="M1647.06 2437.5H1670.59C1696.58 2437.5 1717.65 2459.89 1717.65 2487.5V2550C1717.65 2577.61 1696.58 2600 1670.59 2600H1647.06V2437.5Z" fill="white"/>
</g>
<defs>
<linearGradient id="paint0_linear_6889_41025" x1="-492.308" y1="2800" x2="3283.47" y2="384.201" gradientUnits="userSpaceOnUse">
<stop stop-color="#6AB3F7"/>
<stop offset="1" stop-color="#67EBD4"/>
</linearGradient>
<clipPath id="clip0_6889_41025">
<rect width="1600" height="2000" fill="white" transform="translate(800 600)"/>
</clipPath>
</defs>
</svg>
