<svg width="16" height="16" viewBox="0 0 16 16" fill="none" xmlns="http://www.w3.org/2000/svg">
<g clip-path="url(#clip0_903_5953)">
<path d="M8 16C12.4183 16 16 12.4183 16 8C16 3.58172 12.4183 0 8 0C3.58172 0 0 3.58172 0 8C0 12.4183 3.58172 16 8 16Z" fill="#FF0420"/>
<path d="M5.80218 10.24C5.31965 10.24 4.92433 10.1238 4.61613 9.89156C4.31204 9.65511 4.15997 9.31911 4.15997 8.88356C4.15997 8.7923 4.17012 8.6803 4.19037 8.54756C4.24311 8.24891 4.31812 7.89009 4.41543 7.47111C4.69114 6.33038 5.40279 5.76001 6.55031 5.76001C6.86253 5.76001 7.14231 5.81393 7.38964 5.9218C7.637 6.02548 7.83162 6.18311 7.97354 6.39467C8.11546 6.60209 8.18644 6.85099 8.18644 7.14135C8.18644 7.22846 8.17629 7.33838 8.15601 7.47111C8.09521 7.8403 8.02221 8.19911 7.93706 8.54756C7.79514 9.11585 7.54983 9.54103 7.20109 9.82311C6.85239 10.101 6.38609 10.24 5.80218 10.24ZM5.88733 9.34401C6.11441 9.34401 6.30701 9.27556 6.46516 9.13867C6.62733 9.0018 6.74292 8.7923 6.81185 8.51022C6.90509 8.1203 6.97607 7.78017 7.02471 7.4898C7.04093 7.40267 7.04903 7.31348 7.04903 7.22222C7.04903 6.84475 6.85645 6.65601 6.47124 6.65601C6.24417 6.65601 6.04954 6.72446 5.88733 6.86135C5.72919 6.99822 5.61565 7.20772 5.54672 7.4898C5.47373 7.76772 5.40074 8.10785 5.32778 8.51022C5.31156 8.59319 5.30343 8.6803 5.30343 8.77156C5.30343 9.15319 5.49805 9.34401 5.88733 9.34401Z" fill="white"/>
<path d="M8.46571 10.1778C8.4211 10.1778 8.38664 10.1633 8.36228 10.1343C8.34203 10.1011 8.33595 10.0638 8.34404 10.0223L9.1834 5.97785C9.1915 5.93222 9.2138 5.89487 9.25032 5.86585C9.2868 5.83679 9.32532 5.82227 9.36587 5.82227H10.9838C11.4338 5.82227 11.7947 5.91769 12.0664 6.10851C12.3421 6.29932 12.48 6.57516 12.48 6.93606C12.48 7.03977 12.4678 7.14761 12.4435 7.25961C12.3421 7.73666 12.1374 8.08924 11.8292 8.3174C11.5251 8.54553 11.1074 8.65961 10.5762 8.65961H9.75512L9.47534 10.0223C9.46724 10.0679 9.44494 10.1052 9.40843 10.1343C9.37195 10.1633 9.33342 10.1778 9.29288 10.1778H8.46571ZM10.6188 7.80095C10.7891 7.80095 10.9371 7.75324 11.0628 7.65785C11.1926 7.56242 11.2777 7.42553 11.3183 7.24716C11.3304 7.17666 11.3365 7.11443 11.3365 7.06051C11.3365 6.94022 11.3021 6.84895 11.2331 6.78671C11.1642 6.72035 11.0466 6.68716 10.8803 6.68716H10.1505L9.91934 7.80095H10.6188Z" fill="white"/>
</g>
<defs>
<clipPath id="clip0_903_5953">
<rect width="16" height="16" fill="white"/>
</clipPath>
</defs>
</svg>
