<svg width="24" height="25" viewBox="0 0 24 25" fill="none" xmlns="http://www.w3.org/2000/svg">
<path fill-rule="evenodd" clip-rule="evenodd" d="M4.9416 19.678C6.19707 21.8528 8.44583 23.151 10.9568 23.151C13.4677 23.151 15.716 21.8528 16.972 19.678C18.2274 17.5037 18.2274 14.9074 16.972 12.7326L11.6815 3.56937C11.3594 3.0115 10.5542 3.0115 10.2321 3.56938L4.9416 12.7326C3.68613 14.9069 3.68613 17.5033 4.9416 19.678ZM9.46644 7.92871L10.5944 5.97497C10.7555 5.69602 11.1581 5.69602 11.3191 5.97497L15.6585 13.4912C16.4558 14.872 16.6054 16.4701 16.1075 17.9325C16.0556 17.694 15.9832 17.4498 15.8855 17.2032C15.2861 15.6906 13.9307 14.5233 11.8565 13.7336C10.4303 13.1927 9.52 12.397 9.1501 11.3687C8.67367 10.0433 9.1713 8.59805 9.46644 7.92871ZM7.54305 11.2602L6.255 13.4912C5.27355 15.1911 5.27355 17.2203 6.255 18.9203C7.23646 20.6202 8.99386 21.6346 10.9568 21.6346C12.2605 21.6346 13.4739 21.1867 14.4294 20.3878C14.554 20.0741 14.9398 18.9257 14.4631 17.7421C14.0228 16.6492 12.9632 15.7768 11.3135 15.1483C9.44874 14.441 8.23724 13.3367 7.71336 11.8671C7.6412 11.6647 7.58514 11.4619 7.54305 11.2602Z" fill="#0049FF"/>
</svg>
