<svg xmlns="http://www.w3.org/2000/svg" width="21" height="26" viewBox="0 0 21 26" fill="none">
    <circle cx="8.9647" cy="14.8453" r="8.1167" transform="rotate(-13.8815 8.9647 14.8453)"
        fill="#0D3388" stroke="#FBD6A0" stroke-width="0.5" />
    <circle cx="8.9502" cy="14.8501" r="7" fill="#E71F1F" stroke="#FBD6A0" stroke-width="0.5" />
    <path
        d="M3.43754 10.8881C3.46223 10.8217 3.48883 10.7562 3.51926 10.6926C3.60038 10.5235 3.76617 10.2566 3.88908 10.062C3.9439 9.97515 4.03971 9.86925 4.09749 9.79218C4.12845 9.75098 4.34589 9.67689 4.17968 9.59047C4.33435 9.35687 4.35593 9.0938 4.52292 8.85278C4.61242 8.91635 4.67213 8.83067 4.62822 8.7318C4.68199 8.71423 4.733 8.69269 4.78353 8.67346C4.78582 8.6757 4.78828 8.67783 4.79051 8.6801C4.80891 8.68342 4.82711 8.68579 4.84461 8.6869C4.88574 8.68976 5.26387 8.77518 5.29459 8.76784C5.33107 8.75888 5.22422 8.71176 5.13949 8.67688C5.08321 8.64498 5.01036 8.60428 4.9652 8.5801C4.96699 8.57987 4.96876 8.57944 4.97064 8.57916C4.97588 8.58051 4.97839 8.58097 4.97645 8.5798C4.97564 8.57925 4.9746 8.57891 4.97383 8.57844C5.03229 8.56549 5.13028 8.51892 5.16772 8.49882C5.07711 8.52486 4.99514 8.52615 4.91449 8.52195C4.90634 8.51821 4.89838 8.514 4.89047 8.5093C4.87968 8.49259 4.87016 8.4736 4.86593 8.45231C4.86434 8.44423 4.86318 8.43564 4.8623 8.4269C4.87648 8.41981 4.89511 8.41084 4.90824 8.40151L4.92874 8.38565C4.93824 8.37839 4.93259 8.3787 4.93962 8.37137C4.92735 8.36621 4.91304 8.36047 4.90265 8.35417C4.89812 8.35081 4.89173 8.34865 4.88872 8.34404C4.88592 8.34072 4.88512 8.34 4.88388 8.33753C4.8785 8.32901 4.87485 8.31875 4.87266 8.30726C4.86849 8.28437 4.87003 8.25714 4.87382 8.22934C4.88244 8.17291 4.90119 8.11213 4.92395 8.05024C4.95716 7.96075 5.02144 7.91343 5.08005 7.84339C5.09212 7.83332 5.1045 7.82372 5.11811 7.81693C5.16203 7.7948 5.19457 7.79971 5.23535 7.78234C5.30132 7.75415 5.42289 7.71848 5.47268 7.67769C5.38362 7.69889 5.27114 7.70879 5.18588 7.6834L5.26983 7.67697C5.26983 7.67697 5.27637 7.67518 5.28378 7.67359C5.1933 7.50627 5.53472 7.25148 5.49668 7.04839C5.55605 7.0222 5.58581 6.99343 5.59495 6.96626C5.60639 6.96551 5.61776 6.96484 5.62873 6.96461C5.74335 6.96266 5.83485 6.97394 5.89828 6.97904C5.95492 6.98471 5.98948 6.98713 5.99637 6.98677L5.87664 6.94105L5.78356 6.90678C5.81222 6.87005 5.82593 6.82711 5.85733 6.79016C5.82392 6.81977 5.78529 6.86193 5.74495 6.8925L5.73817 6.89003L5.6519 6.8602L5.60453 6.84503C5.59375 6.8421 5.59376 6.84162 5.59158 6.84078L5.5856 6.83841L5.59127 6.83246L5.59364 6.82984C5.59367 6.83031 5.59492 6.82834 5.59674 6.8258L5.60137 6.81945C5.61379 6.80287 5.62605 6.78557 5.63793 6.76802C5.66228 6.73236 5.68558 6.69534 5.70847 6.65644C5.75391 6.57939 5.79723 6.49658 5.84096 6.41198C5.87755 6.34143 5.91338 6.27361 5.94979 6.20942C5.99865 6.20463 6.06144 6.18606 6.10765 6.1739C6.07821 6.1403 6.05258 6.10572 6.03671 6.06816C6.03866 6.06524 6.04053 6.06199 6.04253 6.05907C6.1125 5.95623 6.18994 5.87288 6.26458 5.81457C6.33904 5.75567 6.40806 5.72119 6.45613 5.69979C6.50414 5.67883 6.53182 5.67042 6.5323 5.66982C6.5323 5.66982 6.53189 5.66995 6.53077 5.67006C6.52542 5.67068 6.50184 5.67491 6.4625 5.6761C6.44022 5.6763 6.41264 5.67416 6.38382 5.66379C6.37054 5.65929 6.35779 5.65373 6.34477 5.64745L6.32598 5.63781L6.32366 5.63644L6.32702 5.63619C6.32931 5.63604 6.33135 5.63573 6.33363 5.63508C6.33829 5.63438 6.34258 5.63295 6.34724 5.63166C6.36265 5.62622 6.37522 5.61944 6.39216 5.61124C6.41064 5.60228 6.4307 5.59298 6.44935 5.59235L6.47603 5.59117L6.458 5.57556C6.4496 5.56854 6.44316 5.56935 6.43711 5.5683L6.41888 5.56738C6.40994 5.56652 6.40128 5.56744 6.39672 5.56055C6.39543 5.55692 6.39777 5.55224 6.39836 5.54819L6.40284 5.53255C6.40676 5.52004 6.41123 5.50754 6.41628 5.49488C6.43634 5.44394 6.46423 5.39085 6.4961 5.33613C6.5599 5.22607 6.64158 5.11002 6.7248 4.97949C6.74528 4.94672 6.76599 4.91317 6.78498 4.8766C6.79442 4.8585 6.80342 4.83965 6.81053 4.81862C6.814 4.80817 6.81716 4.7966 6.81827 4.78376C6.81963 4.77169 6.81679 4.75251 6.80582 4.74183C6.79545 4.73011 6.77707 4.72645 6.76507 4.7266C6.75223 4.72655 6.74072 4.72867 6.72974 4.73118C6.72162 4.73303 6.7138 4.73516 6.70612 4.73789C6.72144 4.71661 6.7375 4.69536 6.75352 4.67412C6.78061 4.63783 6.80908 4.60151 6.83805 4.56561C6.85254 4.54771 6.86779 4.52995 6.88278 4.51241L6.90579 4.48681L7.17075 4.46548L6.95088 4.44207L6.936 4.42099C6.93143 4.41463 6.92489 4.40353 6.92494 4.40254C6.92212 4.39619 6.9199 4.38916 6.91793 4.38195C6.91372 4.36729 6.91206 4.35106 6.9112 4.33398C6.90966 4.30021 6.91303 4.26385 6.91872 4.22688C6.93013 4.15289 6.95025 4.07707 6.97412 4.00033C6.97545 3.99596 6.97714 3.99182 6.97846 3.98753L6.98297 3.98279C7.09752 3.85922 7.16532 3.9501 7.28719 3.87269C7.18208 3.88033 7.10811 3.83911 7.0572 3.7665C7.0918 3.67817 7.12883 3.59157 7.16719 3.50753C7.20338 3.42836 7.24085 3.35429 7.28274 3.28029L7.40324 3.06443C7.56247 2.78363 7.70864 2.53168 7.8317 2.31992C8.05918 1.92822 8.21199 1.67717 8.23321 1.64251C8.23347 1.64221 8.23372 1.64189 8.23395 1.64164C8.2345 1.64102 8.2345 1.64048 8.23479 1.6402C8.2356 1.63887 8.23609 1.63828 8.23609 1.63828C8.23609 1.63828 8.23529 1.63913 8.23377 1.64144C8.23353 1.64172 8.23322 1.64202 8.23296 1.64223C8.18951 1.6966 7.73064 2.30381 7.17603 3.04702C7.02066 3.25517 7.04614 3.31202 7.07338 3.32761L6.9762 3.30173L6.83061 3.54379C6.81653 3.56511 6.79848 3.58924 6.78669 3.6186C6.77444 3.64652 6.77153 3.68334 6.78487 3.70923C6.79299 3.72678 6.80444 3.73947 6.81622 3.7503C6.76778 3.80304 6.71516 3.8442 6.65442 3.83227C6.69438 3.85077 6.73441 3.86943 6.77949 3.87288C6.74054 3.87905 6.69323 3.9089 6.6714 3.95811C6.68333 3.96606 6.70234 3.98718 6.71417 3.99352C6.71418 3.99806 6.7141 4.00423 6.71408 4.01091C6.7132 4.0115 6.71226 4.01223 6.71135 4.01281C6.64709 4.05431 6.5809 4.07278 6.52254 4.08501L6.37158 4.11362C6.29907 4.12891 6.25526 4.14315 6.24548 4.1462C6.24472 4.14655 6.24423 4.14665 6.24373 4.14678C6.24313 4.14678 6.24315 4.14675 6.24315 4.14675C6.24315 4.14675 5.99771 4.06141 5.9977 4.0619C5.9977 4.0619 6.24024 4.1612 6.24548 4.17823C6.25144 4.19855 6.27454 4.21881 6.30308 4.23647C6.33029 4.25419 6.3664 4.27579 6.36358 4.305C6.36286 4.31967 6.35533 4.33984 6.3432 4.36068L6.34108 4.36452C6.33978 4.3655 6.3411 4.364 6.33722 4.36791C6.3315 4.37386 6.32662 4.37944 6.32149 4.38479L6.29303 4.41648C6.27466 4.43629 6.25636 4.45363 6.23968 4.46354L6.17286 4.50238L6.23743 4.52175C6.25397 4.5269 6.24968 4.52483 6.2532 4.5258L6.26502 4.52799C6.2693 4.52853 6.26749 4.52909 6.26721 4.52988C6.26671 4.53046 6.26574 4.53166 6.26444 4.5326C6.26178 4.535 6.25777 4.53773 6.25203 4.54109C6.22869 4.55211 6.20433 4.56274 6.18607 4.56993C6.14859 4.58541 6.12536 4.58992 6.12536 4.58992C6.12505 4.59022 6.13515 4.6017 6.14727 4.62654C6.15025 4.63264 6.153 4.64005 6.15806 4.64784C6.16314 4.65561 6.171 4.66272 6.18069 4.66772C6.1901 4.67255 6.20098 4.67607 6.21251 4.67962L6.23494 4.68661C6.22949 4.6989 6.21276 4.74034 6.19557 4.77747C6.17785 4.81506 6.1573 4.8549 6.13314 4.89631C6.10923 4.93789 6.08171 4.98112 6.05117 5.02487C6.03616 5.04688 6.0199 5.06893 6.00357 5.09142C5.98697 5.11417 5.97227 5.13237 5.95211 5.15272C5.90079 5.20497 5.84585 5.25478 5.79663 5.30478C5.77154 5.33017 5.74784 5.35509 5.72639 5.38146C5.71555 5.39483 5.7052 5.40856 5.69551 5.42293C5.69112 5.43043 5.68641 5.43773 5.68279 5.44588C5.6818 5.44854 5.68128 5.45022 5.681 5.45253C5.67991 5.4537 5.67796 5.45348 5.67616 5.45402C5.67504 5.45413 5.67411 5.45437 5.67259 5.45462L5.66434 5.45488C5.65285 5.45544 5.64188 5.4554 5.63059 5.45512C5.60887 5.45478 5.58844 5.45301 5.56897 5.45102C5.53015 5.44706 5.49647 5.44181 5.46864 5.43736C5.41926 5.42924 5.38811 5.42604 5.38145 5.4256L5.38043 5.42527C5.38043 5.42527 5.35669 5.41189 5.32916 5.39649C5.2889 5.32852 5.25902 5.25064 5.23746 5.17642C5.23867 5.24188 5.25297 5.3039 5.26967 5.36341C5.25502 5.35533 5.2448 5.34978 5.24486 5.3501C5.24515 5.35238 5.25718 5.36344 5.27424 5.37911C5.28927 5.43105 5.3054 5.48124 5.31569 5.52995C5.33684 5.63043 5.3072 5.80687 5.34503 5.87043C5.31622 5.9125 5.24414 5.97746 5.2267 6.02518C5.22329 6.03461 5.20962 6.15588 5.21028 6.15464C5.14685 6.26777 5.08091 6.36018 4.97022 6.38471C4.94593 6.38252 4.92098 6.38008 4.89447 6.37719C4.86598 6.37417 4.86323 6.31555 4.83432 6.3163C4.81732 6.31671 4.77291 6.34796 4.77126 6.34764C4.76171 6.34578 4.71857 6.37585 4.69667 6.3727C4.68034 6.3704 4.65731 6.32922 4.63431 6.32379C4.53934 6.3013 4.45784 6.27652 4.35705 6.27587C4.49397 6.28156 4.66148 6.38477 4.73955 6.47428C4.75089 6.45674 4.7728 6.43582 4.78213 6.42131C4.79523 6.44941 4.83795 6.46892 4.85187 6.49663C4.86614 6.46843 4.89343 6.44377 4.89425 6.43929C4.9444 6.51688 5.00643 6.57224 5.10178 6.5803C5.09348 6.60638 5.08794 6.63562 5.08268 6.66542C5.07687 6.67434 5.07089 6.68333 5.06494 6.69225C4.95238 6.86145 4.84791 7.02702 4.77357 7.18697C4.76429 7.20705 4.7556 7.22689 4.74754 7.24659L4.7355 7.27626L4.73273 7.28342C4.73161 7.28623 4.73183 7.28536 4.73161 7.28623C4.73133 7.28752 4.73117 7.2888 4.73062 7.28984C4.73029 7.29021 4.70512 7.29715 4.68872 7.30125L4.63368 7.31525L4.4311 7.36437C4.30716 7.39413 4.20687 7.42079 4.13783 7.44258C4.07782 7.46105 3.82001 7.44089 3.81142 7.44403C3.81019 7.44449 4.03145 7.47778 4.03145 7.47778C4.0307 7.47868 4.07062 7.50793 4.14158 7.54447C4.17674 7.56301 4.21951 7.584 4.26799 7.60519L4.3018 7.61982C4.30259 7.6209 4.30279 7.62166 4.30255 7.62189C4.30261 7.62253 4.30177 7.62236 4.30102 7.62272C4.30213 7.62314 4.30363 7.62332 4.3036 7.62374C4.30379 7.62459 4.3033 7.62513 4.30231 7.62581C4.30204 7.62606 4.30127 7.62649 4.30031 7.62724C4.30003 7.62744 4.29611 7.62782 4.29338 7.62851L4.28278 7.62992L4.20575 7.64079C4.19371 7.64248 4.18217 7.64346 4.17142 7.64474C4.16638 7.645 4.16073 7.6454 4.15607 7.6456C4.15301 7.64554 4.15244 7.64566 4.14733 7.64554C4.14325 7.64564 4.14027 7.64601 4.13786 7.64668C4.05979 7.65926 4.00959 7.66976 4.00336 7.67116C4.00346 7.6712 3.99615 7.67073 3.98413 7.66997C3.92944 7.6638 3.78253 7.6467 3.80066 7.65647C3.80057 7.65634 3.80077 7.65638 3.82342 7.65809C3.80951 7.65715 3.80054 7.65645 3.80066 7.65647C3.81363 7.66378 4.07616 7.70823 4.08582 7.72537C4.09619 7.74212 4.09645 7.76576 4.08544 7.79174C4.06762 7.83458 4.02928 7.88042 3.98385 7.92805C3.90159 7.99498 3.82826 8.0673 3.79532 8.13822C3.89276 8.17991 3.77906 8.35473 3.65998 8.3055C3.73924 8.38064 3.77237 8.41995 3.81376 8.52405C3.84861 8.61185 3.81325 8.69676 3.90001 8.74483C3.80057 8.84916 3.7324 8.98206 3.61934 9.08262C3.78423 9.16788 3.52079 9.26636 3.49286 9.35396C3.45288 9.47931 3.57133 9.54746 3.56356 9.66022C3.43743 9.68676 3.29996 9.75793 3.25939 9.89708C3.28669 9.90612 3.30852 9.91288 3.32931 9.91516C3.3171 9.99741 3.31353 10.0715 3.33717 10.1465C3.36298 10.2284 3.43726 10.2781 3.42726 10.3891C3.41312 10.5461 3.30363 10.8202 3.231 10.9834C3.07243 11.3398 3.0921 11.7594 2.93113 12.1336C3.02876 11.9177 3.09788 11.7003 3.20713 11.4898C3.30407 11.3029 3.36199 11.0914 3.43754 10.8881Z"
        fill="white" />
    <path
        d="M3.80066 7.65647C3.78253 7.6467 3.92944 7.6638 3.98413 7.66997C3.99615 7.67073 4.00346 7.6712 4.00336 7.67116C4.00959 7.66976 4.05979 7.65926 4.13786 7.64668C4.14027 7.64601 4.14325 7.64564 4.14733 7.64554C4.15244 7.64566 4.15301 7.64554 4.15607 7.6456C4.16073 7.6454 4.16638 7.645 4.17142 7.64474C4.18217 7.64346 4.19371 7.64248 4.20575 7.64079L4.28278 7.62992L4.29338 7.62851C4.29611 7.62782 4.30003 7.62744 4.30031 7.62724C4.30127 7.62649 4.30204 7.62606 4.30231 7.62581C4.3033 7.62513 4.30379 7.62459 4.3036 7.62374C4.30363 7.62332 4.30213 7.62314 4.30102 7.62272C4.30177 7.62236 4.30261 7.62253 4.30255 7.62189C4.30279 7.62166 4.30259 7.6209 4.3018 7.61982L4.26799 7.60519C4.21951 7.584 4.17674 7.56301 4.14158 7.54447C4.07062 7.50793 4.0307 7.47868 4.03145 7.47778C4.03145 7.47778 3.81019 7.44449 3.81142 7.44403C3.82001 7.44089 4.07782 7.46105 4.13783 7.44258C4.20687 7.42079 4.30716 7.39413 4.4311 7.36437L4.63368 7.31525L4.68872 7.30125C4.70512 7.29715 4.73029 7.29021 4.73062 7.28984C4.73117 7.2888 4.73133 7.28752 4.73161 7.28623C4.73183 7.28536 4.73161 7.28623 4.73273 7.28342L4.7355 7.27626L4.74754 7.24659C4.7556 7.22689 4.76429 7.20705 4.77357 7.18697C4.84791 7.02702 4.95238 6.86145 5.06494 6.69225C5.07089 6.68333 5.07687 6.67434 5.08268 6.66542C5.08794 6.63562 5.09348 6.60638 5.10178 6.5803C5.00643 6.57224 4.9444 6.51688 4.89425 6.43929C4.89343 6.44377 4.86614 6.46843 4.85187 6.49663C4.83795 6.46892 4.79523 6.44941 4.78213 6.42131C4.7728 6.43582 4.75089 6.45674 4.73955 6.47428C4.66148 6.38477 4.49397 6.28156 4.35705 6.27587C4.45784 6.27652 4.53934 6.3013 4.63431 6.32379C4.65731 6.32922 4.68034 6.3704 4.69667 6.3727C4.71857 6.37585 4.76171 6.34578 4.77126 6.34764C4.77291 6.34796 4.81732 6.31671 4.83432 6.3163C4.86323 6.31555 4.86597 6.37417 4.89447 6.37719C4.92098 6.38008 4.94593 6.38252 4.97022 6.38471C5.08091 6.36018 5.14685 6.26777 5.21028 6.15464C5.20962 6.15588 5.22329 6.03461 5.2267 6.02518C5.24414 5.97746 5.31622 5.9125 5.34503 5.87043C5.3072 5.80687 5.33684 5.63043 5.31569 5.52995C5.3054 5.48124 5.28927 5.43105 5.27424 5.37911C5.25718 5.36344 5.24515 5.35238 5.24486 5.3501C5.2448 5.34978 5.25502 5.35533 5.26967 5.36341C5.25297 5.3039 5.23867 5.24188 5.23746 5.17642C5.25902 5.25064 5.2889 5.32852 5.32916 5.39649C5.35669 5.41189 5.38043 5.42527 5.38043 5.42527L5.38145 5.4256C5.38811 5.42604 5.41926 5.42924 5.46864 5.43736C5.49647 5.44181 5.53015 5.44706 5.56897 5.45102C5.58844 5.45301 5.60887 5.45478 5.63059 5.45512C5.64188 5.4554 5.65285 5.45544 5.66434 5.45488L5.67259 5.45462C5.67411 5.45437 5.67504 5.45413 5.67616 5.45402C5.67796 5.45348 5.67991 5.4537 5.681 5.45253C5.68128 5.45022 5.6818 5.44854 5.68279 5.44588C5.68641 5.43773 5.69112 5.43043 5.69551 5.42293C5.7052 5.40856 5.71555 5.39483 5.72639 5.38146C5.74784 5.35509 5.77154 5.33017 5.79663 5.30478C5.84585 5.25478 5.90079 5.20497 5.95211 5.15272C5.97227 5.13237 5.98697 5.11417 6.00357 5.09142C6.0199 5.06893 6.03616 5.04688 6.05117 5.02487C6.08171 4.98112 6.10923 4.93789 6.13314 4.89631C6.1573 4.8549 6.17785 4.81506 6.19557 4.77747C6.21276 4.74034 6.22949 4.6989 6.23494 4.68661L6.21251 4.67962C6.20098 4.67607 6.1901 4.67255 6.18069 4.66772C6.171 4.66272 6.16314 4.65561 6.15806 4.64784C6.153 4.64005 6.15025 4.63264 6.14727 4.62654C6.13515 4.6017 6.12505 4.59022 6.12536 4.58992C6.12536 4.58992 6.14859 4.58541 6.18607 4.56993C6.20433 4.56274 6.22869 4.55211 6.25203 4.54109C6.25777 4.53773 6.26178 4.535 6.26444 4.5326C6.26574 4.53166 6.26671 4.53046 6.26721 4.52988C6.26749 4.52909 6.2693 4.52853 6.26502 4.52799L6.2532 4.5258C6.24968 4.52483 6.25397 4.5269 6.23743 4.52175L6.17286 4.50238L6.23968 4.46354C6.25636 4.45363 6.27466 4.43629 6.29303 4.41648L6.32149 4.38479C6.32662 4.37944 6.3315 4.37386 6.33722 4.36791C6.3411 4.364 6.33978 4.3655 6.34108 4.36452L6.3432 4.36068C6.35533 4.33984 6.36286 4.31967 6.36358 4.305C6.3664 4.27579 6.33029 4.25419 6.30308 4.23647C6.27454 4.21881 6.25144 4.19855 6.24548 4.17823C6.24024 4.1612 5.9977 4.0619 5.9977 4.0619C5.99771 4.06141 6.24315 4.14675 6.24315 4.14675C6.24315 4.14675 6.24313 4.14678 6.24373 4.14678C6.24423 4.14665 6.24472 4.14655 6.24548 4.1462C6.25526 4.14315 6.29907 4.12891 6.37158 4.11362L6.52254 4.08501C6.5809 4.07278 6.64709 4.05431 6.71135 4.01281C6.71226 4.01223 6.71319 4.0115 6.71408 4.01091C6.7141 4.00423 6.71418 3.99806 6.71417 3.99352C6.70234 3.98718 6.68333 3.96606 6.6714 3.95811C6.69323 3.9089 6.74054 3.87905 6.77949 3.87288C6.73441 3.86943 6.69438 3.85077 6.65442 3.83227C6.71516 3.8442 6.76778 3.80304 6.81622 3.7503C6.80444 3.73947 6.79299 3.72678 6.78487 3.70923C6.77153 3.68334 6.77444 3.64652 6.78669 3.6186C6.79848 3.58924 6.81653 3.56511 6.83061 3.54379L6.9762 3.30173L7.07338 3.32761C7.04614 3.31202 7.02066 3.25517 7.17603 3.04702C7.73064 2.30381 8.18951 1.6966 8.23296 1.64223C8.23322 1.64202 8.23353 1.64172 8.23377 1.64144C8.23529 1.63913 8.23609 1.63828 8.23609 1.63828C8.23609 1.63828 8.2356 1.63887 8.23479 1.6402C8.2345 1.64048 8.2345 1.64102 8.23395 1.64164C8.23372 1.64189 8.23347 1.64221 8.23321 1.64251C8.21199 1.67717 8.05918 1.92822 7.8317 2.31992C7.70864 2.53168 7.56247 2.78363 7.40324 3.06443L7.28274 3.28029C7.24085 3.35429 7.20338 3.42836 7.16719 3.50753C7.12883 3.59157 7.0918 3.67817 7.0572 3.7665C7.10811 3.83911 7.18208 3.88033 7.28719 3.87269C7.16532 3.9501 7.09752 3.85922 6.98297 3.98279L6.97846 3.98753C6.97714 3.99182 6.97545 3.99596 6.97412 4.00033C6.95025 4.07707 6.93013 4.15289 6.91872 4.22688C6.91303 4.26385 6.90966 4.30021 6.9112 4.33398C6.91206 4.35106 6.91372 4.36729 6.91793 4.38195C6.9199 4.38916 6.92212 4.39619 6.92494 4.40254C6.92489 4.40353 6.93143 4.41463 6.936 4.42099L6.95088 4.44207L7.17075 4.46548L6.90579 4.48681L6.88278 4.51241C6.86779 4.52995 6.85254 4.54771 6.83805 4.56561C6.80908 4.60151 6.78061 4.63783 6.75352 4.67412C6.7375 4.69536 6.72144 4.71661 6.70612 4.73789C6.7138 4.73516 6.72162 4.73303 6.72974 4.73118C6.74072 4.72867 6.75223 4.72655 6.76507 4.7266C6.77707 4.72645 6.79545 4.73011 6.80582 4.74183C6.81679 4.75251 6.81963 4.77169 6.81827 4.78376C6.81716 4.7966 6.814 4.80817 6.81053 4.81862C6.80342 4.83965 6.79442 4.8585 6.78498 4.87659C6.76599 4.91317 6.74528 4.94672 6.7248 4.97949C6.64158 5.11002 6.5599 5.22607 6.4961 5.33613C6.46423 5.39085 6.43634 5.44394 6.41628 5.49488C6.41123 5.50754 6.40676 5.52004 6.40284 5.53255L6.39836 5.54819C6.39777 5.55224 6.39543 5.55692 6.39672 5.56055C6.40128 5.56744 6.40994 5.56652 6.41888 5.56738L6.43711 5.5683C6.44316 5.56935 6.4496 5.56854 6.458 5.57556L6.47603 5.59117L6.44935 5.59235C6.4307 5.59298 6.41064 5.60228 6.39216 5.61124C6.37522 5.61944 6.36265 5.62622 6.34724 5.63166C6.34258 5.63295 6.33829 5.63438 6.33363 5.63508C6.33135 5.63573 6.32931 5.63604 6.32702 5.63619L6.32366 5.63644L6.32598 5.63781L6.34477 5.64745C6.35779 5.65373 6.37054 5.65929 6.38382 5.66379C6.41264 5.67416 6.44022 5.6763 6.4625 5.6761C6.50184 5.67491 6.52542 5.67068 6.53077 5.67006C6.53189 5.66995 6.5323 5.66982 6.5323 5.66982C6.53182 5.67042 6.50414 5.67883 6.45613 5.69979C6.40806 5.72119 6.33904 5.75567 6.26458 5.81457C6.18994 5.87288 6.1125 5.95623 6.04253 6.05907C6.04053 6.06199 6.03866 6.06524 6.03671 6.06816C6.05258 6.10572 6.07821 6.1403 6.10765 6.1739C6.06144 6.18606 5.99865 6.20463 5.94979 6.20942C5.91338 6.27361 5.87755 6.34143 5.84096 6.41198C5.79723 6.49658 5.75391 6.57939 5.70847 6.65644C5.68558 6.69534 5.66228 6.73236 5.63793 6.76802C5.62605 6.78557 5.61379 6.80287 5.60137 6.81945L5.59674 6.8258C5.59492 6.82834 5.59367 6.83031 5.59364 6.82983L5.59127 6.83246L5.5856 6.83841L5.59158 6.84078C5.59376 6.84162 5.59375 6.8421 5.60453 6.84503L5.6519 6.8602L5.73817 6.89003L5.74495 6.8925C5.78529 6.86193 5.82392 6.81977 5.85733 6.79016C5.82593 6.82711 5.81222 6.87005 5.78356 6.90678L5.87664 6.94105L5.99637 6.98677C5.98948 6.98713 5.95492 6.98471 5.89828 6.97904C5.83485 6.97394 5.74335 6.96266 5.62873 6.96461C5.61776 6.96484 5.60639 6.96551 5.59495 6.96626C5.58581 6.99343 5.55605 7.0222 5.49668 7.04839C5.53472 7.25148 5.1933 7.50627 5.28378 7.67359C5.27637 7.67518 5.26983 7.67697 5.26983 7.67697L5.18588 7.6834C5.27114 7.70879 5.38362 7.69889 5.47268 7.67769C5.42289 7.71848 5.30132 7.75415 5.23535 7.78234C5.19457 7.79971 5.16203 7.7948 5.11811 7.81693C5.1045 7.82372 5.09212 7.83332 5.08005 7.84339C5.02144 7.91343 4.95716 7.96075 4.92395 8.05024C4.90119 8.11213 4.88244 8.17291 4.87382 8.22934C4.87003 8.25714 4.86849 8.28437 4.87266 8.30726C4.87485 8.31875 4.8785 8.32901 4.88388 8.33753C4.88512 8.34 4.88592 8.34072 4.88872 8.34404C4.89173 8.34865 4.89812 8.35081 4.90265 8.35417C4.91304 8.36047 4.92735 8.36621 4.93962 8.37137C4.93259 8.3787 4.93824 8.37839 4.92874 8.38565L4.90824 8.40151C4.89511 8.41084 4.87648 8.41981 4.8623 8.4269C4.86318 8.43564 4.86434 8.44423 4.86593 8.45231C4.87016 8.4736 4.87968 8.49259 4.89047 8.5093C4.89838 8.514 4.90634 8.51821 4.91449 8.52195C4.99514 8.52615 5.07711 8.52486 5.16772 8.49882C5.13028 8.51892 5.03229 8.56549 4.97383 8.57844C4.9746 8.57891 4.97564 8.57925 4.97645 8.5798C4.97839 8.58097 4.97588 8.58051 4.97064 8.57916C4.96876 8.57944 4.96699 8.57987 4.9652 8.5801C5.01036 8.60428 5.08321 8.64498 5.13949 8.67688C5.22422 8.71176 5.33107 8.75888 5.29459 8.76784C5.26387 8.77518 4.88574 8.68976 4.84461 8.6869C4.82711 8.68579 4.80891 8.68342 4.79051 8.6801C4.78828 8.67783 4.78582 8.6757 4.78353 8.67346C4.733 8.69269 4.68199 8.71423 4.62822 8.7318C4.67213 8.83067 4.61242 8.91635 4.52292 8.85278C4.35593 9.0938 4.33435 9.35687 4.17968 9.59047C4.34589 9.67689 4.12845 9.75098 4.09749 9.79218C4.03971 9.86925 3.9439 9.97515 3.88908 10.062C3.76617 10.2566 3.60038 10.5235 3.51926 10.6926C3.48883 10.7562 3.46223 10.8217 3.43754 10.8881C3.36199 11.0914 3.30407 11.3029 3.20713 11.4898C3.09788 11.7003 3.02876 11.9177 2.93113 12.1336C3.0921 11.7594 3.07243 11.3398 3.231 10.9834C3.30363 10.8202 3.41312 10.5461 3.42726 10.3891C3.43726 10.2781 3.36298 10.2284 3.33717 10.1465C3.31353 10.0715 3.3171 9.99741 3.32931 9.91516C3.30852 9.91288 3.28669 9.90612 3.25939 9.89708C3.29996 9.75793 3.43743 9.68676 3.56356 9.66022C3.57133 9.54746 3.45288 9.47931 3.49286 9.35395C3.52079 9.26636 3.78423 9.16788 3.61934 9.08262C3.7324 8.98206 3.80057 8.84916 3.90001 8.74483C3.81325 8.69676 3.84861 8.61185 3.81376 8.52405C3.77237 8.41995 3.73924 8.38064 3.65998 8.3055C3.77906 8.35473 3.89276 8.17991 3.79532 8.13822C3.82826 8.0673 3.90159 7.99498 3.98385 7.92805C4.02928 7.88042 4.06762 7.83458 4.08544 7.79174C4.09645 7.76576 4.09619 7.74212 4.08582 7.72537C4.07616 7.70823 3.81363 7.66378 3.80066 7.65647ZM3.80066 7.65647C3.80057 7.65634 3.80077 7.65638 3.82342 7.65809C3.80951 7.65715 3.80054 7.65645 3.80066 7.65647Z"
        stroke="black" stroke-width="0.2" stroke-miterlimit="10" />
    <path
        d="M13.2299 15.891C13.173 16.1561 13.1504 16.544 13.1454 16.691C13.1263 16.455 13.1661 16.2016 13.1593 15.9698C13.152 15.7226 13.1548 15.4605 13.1749 15.2402C13.1977 14.992 13.1716 14.7632 13.1529 14.5106C13.1335 14.2495 13.0595 14.0418 13.2143 13.9223C13.1747 13.8132 13.178 13.7122 13.2323 13.6646C13.0044 13.477 12.8843 13.3612 12.6429 13.2821C12.7708 13.2519 13.0614 13.334 13.2 13.442C13.2089 13.2718 13.2913 13.1486 13.2348 12.9548C13.3089 12.9954 13.3817 13.0139 13.4555 13.0407C13.3866 12.9077 13.2527 12.7666 13.2722 12.5951C13.2899 12.5984 13.3044 12.6162 13.3223 12.6218C13.2935 12.3229 13.097 12.4169 13.1969 12.1223C13.2595 11.9378 13.3313 11.8434 13.3681 11.6146C13.3787 11.549 13.3972 11.4199 13.4073 11.3757C13.4132 11.3504 13.3967 11.2779 13.4081 11.231C13.4236 11.1677 13.4727 11.2072 13.4942 11.1539C13.5365 11.0492 13.6088 10.7639 13.5144 10.5865C13.5822 10.4559 13.5253 10.2822 13.4395 10.1457C13.4041 10.1395 13.3691 10.1378 13.3349 10.14C13.336 10.1383 13.3371 10.1368 13.3382 10.1352L13.3713 10.0884L13.3868 10.0663C13.3889 10.0623 13.39 10.0612 13.3898 10.0599L13.387 10.0568C13.3869 10.0563 13.3869 10.0564 13.3866 10.0558L13.3819 10.048C13.379 10.0422 13.376 10.0368 13.3733 10.0302C13.3622 10.0059 13.3551 9.97528 13.3554 9.94913C13.3565 9.90641 13.4657 9.96809 13.5155 9.9783L13.5446 9.91356C13.5335 9.84611 13.4927 9.75551 13.5282 9.73618C13.5545 9.72182 13.581 9.70969 13.6068 9.69823L13.6458 9.68229L13.6555 9.67837C13.6563 9.67804 13.6563 9.67804 13.6563 9.67804L13.6576 9.67829L13.6574 9.67694L13.657 9.67644C13.6566 9.67548 13.6577 9.67749 13.6549 9.67214C13.6472 9.65678 13.6392 9.64172 13.631 9.62754C13.6145 9.59822 13.5971 9.57054 13.5791 9.54407C13.5437 9.49171 13.5063 9.44452 13.47 9.40072C13.3974 9.31391 13.329 9.24015 13.2744 9.17366C13.171 9.0506 13.1176 8.95599 13.1109 8.94423C13.1106 8.94377 13.1102 8.94327 13.1102 8.94327C13.1102 8.94327 13.1105 8.94331 13.111 8.94382C13.1177 8.94774 13.1748 8.97531 13.267 9.04645C13.3166 9.08448 13.3753 9.13464 13.4416 9.19273C13.475 9.22163 13.5102 9.25258 13.5472 9.28343C13.5657 9.29906 13.5848 9.31437 13.6044 9.3294L13.619 9.3408C13.6234 9.34422 13.6224 9.34318 13.6243 9.34439C13.6266 9.34568 13.6296 9.3484 13.6307 9.34731C13.6291 9.33784 13.6281 9.34555 13.6274 9.30518C13.6276 9.27639 13.6306 9.24807 13.6357 9.2215C13.6461 9.16881 13.6644 9.12281 13.6865 9.08137C13.7304 8.99814 13.7177 8.83811 13.7721 8.76604C13.8002 8.72877 13.8967 8.78357 13.9167 8.74138C13.9266 8.72045 13.9347 8.69839 13.9393 8.67476C13.9419 8.66344 13.9432 8.65145 13.9437 8.63927C13.944 8.63239 13.9442 8.62983 13.9436 8.61878C13.9427 8.60547 13.941 8.5903 13.9395 8.57514L13.9676 8.56501L13.9821 8.55936C13.991 8.5549 13.9994 8.55077 14.0077 8.54577C14.0242 8.53567 14.0396 8.52365 14.0542 8.51017C14.0688 8.49668 14.0823 8.48211 14.0951 8.46658L14.1118 8.4452L14.1167 8.43958L14.1105 8.43097L14.0868 8.40301L14.0362 8.34425L13.9428 8.23533C13.8842 8.16595 13.8336 8.10329 13.7931 8.05041C13.7171 7.95162 13.6739 7.88811 13.6684 7.88058C13.6681 7.88004 13.6677 7.87953 13.6677 7.87953C13.6677 7.87953 13.668 7.87953 13.6684 7.88008C13.6684 7.88058 13.6684 7.88054 13.6687 7.88054C13.6688 7.88104 13.6695 7.88159 13.6701 7.88213C13.676 7.88806 13.6944 7.90674 13.7239 7.93581C13.7609 7.97098 13.8158 8.02442 13.889 8.07156C13.9255 8.09438 13.9663 8.11462 14.01 8.12398C14.053 8.13321 14.099 8.13212 14.144 8.12028L14.154 8.11732C14.155 8.11618 14.1589 8.11781 14.1572 8.11438L14.1545 8.10604L14.148 8.0865L14.1389 8.0564L14.1025 7.93259C14.0898 7.89006 14.0769 7.84696 14.0626 7.80322C14.055 7.77995 14.05 7.76597 14.0348 7.72383C14.0218 7.68868 13.905 7.49497 13.8938 7.4627C13.9213 7.48357 14.0549 7.66417 14.0818 7.6783C14.0905 7.68297 14.092 7.68371 14.0968 7.68546L14.1084 7.6902C14.1166 7.69304 14.1246 7.69539 14.1326 7.6973C14.1646 7.70451 14.1964 7.70296 14.2272 7.69551C14.2886 7.67976 14.3452 7.63948 14.3977 7.58837C14.45 7.53687 14.4983 7.47274 14.5431 7.40057C14.5656 7.36456 14.5873 7.32656 14.6075 7.28612C14.6179 7.2662 14.6276 7.24527 14.6373 7.22434L14.6503 7.19482L14.6507 7.19314C14.6506 7.19264 14.6501 7.1926 14.6501 7.1926L14.6494 7.19247L14.6491 7.19239L14.646 7.18964C14.6409 7.18524 14.637 7.18011 14.6331 7.17502L14.6177 7.15424L14.6213 7.12997C14.6281 7.08798 14.6435 7.04801 14.6669 7.02261C14.6903 6.99678 14.7178 6.98391 14.7422 6.97051C14.767 6.95759 14.7911 6.94366 14.8091 6.92472C14.8288 6.90297 14.8489 6.87958 14.8642 6.85399C14.8831 6.82341 14.895 6.78186 14.9102 6.7401C14.9251 6.69829 14.9418 6.65804 14.9597 6.62033C14.9954 6.54517 15.0358 6.47783 15.0777 6.41568C15.0827 6.40844 15.0877 6.40178 15.0926 6.39471C15.068 6.35316 15.0578 6.29732 15.0568 6.23308C15.0194 6.24864 14.9534 6.21486 14.9161 6.23081C14.9026 6.20804 14.9033 6.18074 14.893 6.15589C14.8147 6.15215 14.7364 6.07923 14.6682 5.97545C14.676 5.97834 14.6833 5.98135 14.6909 5.98432C14.6341 5.93616 14.5742 5.89117 14.5176 5.84161C14.5869 5.89162 14.6547 5.93953 14.7225 5.96262L14.7483 6.00796C14.9371 6.08961 15.0887 6.1853 15.2754 6.14979C15.2939 6.12566 15.3122 6.1015 15.3299 6.0771C15.409 5.97193 15.4783 5.85835 15.5468 5.75871C15.6149 5.65759 15.6797 5.56593 15.7416 5.486C15.8648 5.32558 15.9769 5.21302 16.0671 5.16142C16.1119 5.13517 16.1507 5.12435 16.1782 5.12285C16.1786 5.1229 16.1791 5.12305 16.1795 5.1231C16.1797 5.12313 16.1796 5.12271 16.18 5.12276C16.2352 5.08181 16.2725 5.06375 16.2803 5.05957C16.2738 5.06445 16.2449 5.08451 16.2013 5.1237C16.2146 5.12481 16.2217 5.12696 16.2217 5.1265C16.2217 5.12696 16.214 5.12502 16.1997 5.12513C16.1506 5.16979 16.0835 5.23825 16.0094 5.33692C15.9342 5.43671 15.8515 5.56615 15.7694 5.72235C15.7284 5.80042 15.6873 5.88465 15.648 5.97531C15.6282 6.02061 15.6086 6.06767 15.5904 6.11638C15.572 6.1654 15.5537 6.21488 15.5427 6.26839C15.5385 6.2899 15.5361 6.31259 15.5379 6.33044C15.5391 6.33936 15.5409 6.34581 15.543 6.3502C15.544 6.35255 15.5454 6.35414 15.5468 6.35614C15.5472 6.35665 15.5475 6.3571 15.5483 6.35815C15.5492 6.35873 15.5486 6.35861 15.5516 6.36094C15.5563 6.36528 15.5622 6.36809 15.5684 6.37011L15.5837 6.40619L15.5983 6.44208C15.5912 6.45661 15.5825 6.4702 15.574 6.48388L15.5599 6.50536L15.532 6.54439L15.4762 6.61843L15.3678 6.75627C15.3329 6.80048 15.2994 6.84417 15.2685 6.88694L15.2333 6.93902L15.2256 6.95031L15.2214 6.95735C15.221 6.95824 15.22 6.95976 15.22 6.96021L15.2224 6.96023C15.2286 6.95961 15.2354 6.95995 15.2432 6.96048L15.2644 6.9623L15.292 6.96555C15.3286 6.97145 15.3634 6.98006 15.3964 6.98966C15.4616 7.00912 15.5185 7.03272 15.5652 7.05404C15.6462 7.09075 15.6958 7.12002 15.7075 7.1274C15.709 7.1281 15.71 7.12873 15.71 7.12873C15.7101 7.12915 15.6242 7.12476 15.4893 7.14314C15.422 7.15345 15.3408 7.16782 15.2626 7.2111C15.2245 7.23336 15.1851 7.26412 15.1669 7.31535C15.1586 7.34143 15.1569 7.37121 15.1638 7.40438C15.1655 7.413 15.1678 7.42132 15.1706 7.43012L15.1726 7.43661L15.1761 7.44687C15.1801 7.45674 15.1835 7.46661 15.1885 7.47708C15.2085 7.5188 15.2375 7.57266 15.2598 7.61616L15.1672 7.55274C15.1525 7.54348 15.1395 7.53761 15.1265 7.53208C15.1195 7.52911 15.112 7.52595 15.1033 7.52133C15.0856 7.51195 15.067 7.49357 15.053 7.47617L15.0429 7.46338L15.0409 7.46776L15.0266 7.50037C15.0542 7.54935 15.0912 7.58772 15.104 7.65056C15.131 7.78384 15.0711 7.74337 15.0436 7.80364C15.0146 7.86707 15.0582 7.95131 14.9709 7.93826C14.9826 8.04578 14.9961 8.16422 14.9602 8.24496C14.9612 8.25156 14.9777 8.3018 14.9809 8.31093C14.9692 8.31122 14.9557 8.31455 14.9449 8.31747C15.0477 8.48708 15.1595 8.60247 15.2762 8.74593C15.2404 8.70982 15.1941 8.68549 15.1439 8.66912C15.1576 8.68941 15.1659 8.70341 15.1687 8.70813L15.1687 8.70862C15.1691 8.70912 15.1692 8.70951 15.1694 8.70958C15.1656 8.70601 15.1383 8.68202 15.091 8.65483C14.9919 8.6323 14.8889 8.63107 14.8322 8.61914C14.8651 8.65894 14.9079 8.70933 14.9372 8.75749C14.9251 8.74137 14.8962 8.71659 14.8799 8.69843C14.8599 8.71198 14.8313 8.70236 14.8125 8.71251C14.8092 8.70333 14.8057 8.69436 14.8022 8.68529C14.6706 8.76166 14.7614 9.09942 14.7601 9.27399C14.733 9.27029 14.7165 9.29707 14.6946 9.29951C14.7069 9.32407 14.7119 9.36707 14.7235 9.3915C14.7127 9.38965 14.7039 9.38193 14.6921 9.3802C14.7465 9.46071 14.837 9.54758 14.9029 9.61674C14.8188 9.58706 14.7171 9.49235 14.633 9.49576C14.5406 9.49944 14.5387 9.60912 14.5225 9.7439C14.5886 9.80237 14.6772 9.91494 14.7049 10.017C14.7468 10.0157 14.7419 10.0154 14.7655 10.0957C14.8112 10.1046 14.8581 10.139 14.8974 10.196C14.9356 10.0982 14.9214 9.94326 14.9583 9.83263C14.9738 9.96098 14.9251 10.1239 14.9372 10.2704C14.9447 10.2891 14.9553 10.3058 14.9678 10.3203C14.9771 10.2892 14.9895 10.2582 14.998 10.2246C15.0017 10.2616 14.9987 10.3099 14.9967 10.3478C14.998 10.3488 14.9994 10.3501 15.0007 10.3511C14.9922 10.4026 15.0125 10.456 15.0469 10.5067C15.0438 10.5048 15.041 10.5034 15.038 10.5016C15.0756 10.5496 15.1179 10.5952 15.1514 10.6224C15.1125 10.5874 15.075 10.548 15.0469 10.5067C15.141 10.5663 15.2548 10.6921 15.3188 10.7452C15.2852 10.7258 15.2256 10.6864 15.1671 10.6361C15.1087 10.6104 14.9773 10.5433 14.9722 10.4752C14.9485 10.4722 14.9285 10.479 14.9144 10.5002C14.9187 10.4758 14.9116 10.4196 14.9174 10.3903C14.7515 10.2705 14.5785 10.1226 14.4124 9.99978C14.4237 10.0285 14.442 10.0621 14.4644 10.0979C14.509 10.1607 14.5477 10.2152 14.5793 10.2599C14.6539 10.3567 14.7342 10.451 14.7832 10.5105C14.7173 10.4649 14.6294 10.4207 14.5605 10.3859C14.5643 10.3933 14.5751 10.432 14.5753 10.4328C14.5679 10.4334 14.5444 10.4311 14.5384 10.4382C14.5493 10.4643 14.5591 10.4924 14.5645 10.5237C14.5722 10.5745 14.5661 10.6088 14.5656 10.6419C14.5646 10.659 14.5641 10.6759 14.5641 10.6928C14.591 10.82 14.6096 10.9415 14.6172 11.0564C14.6208 11.0725 14.6242 11.0882 14.6273 11.1035C14.6362 11.1433 14.6434 11.1804 14.6491 11.2144C14.7223 11.3582 14.8041 11.4903 14.8969 11.6232C14.9668 11.6953 15.035 11.7896 15.1014 11.8574C15.0406 11.8249 14.9881 11.7599 14.9317 11.7222C14.8856 11.6913 14.8233 11.6904 14.7918 11.6475C14.7798 11.6565 14.7687 11.6691 14.7584 11.6844C14.7717 11.7418 14.7804 11.796 14.7814 11.8428C14.7818 11.8634 14.7804 11.8844 14.7778 11.9051C14.7787 11.9118 14.7795 11.9184 14.7803 11.925C14.7526 11.8402 14.7206 11.7569 14.6857 11.677C14.6568 11.611 14.6233 11.5474 14.5916 11.4839C14.5911 11.4827 14.5905 11.4815 14.5899 11.4803C14.5967 11.4549 14.5999 11.428 14.6011 11.4003C14.5907 11.4555 14.5765 11.5086 14.5573 11.5589C14.5364 11.6135 14.5515 11.7081 14.5151 11.7505C14.4917 11.7777 14.4139 11.732 14.4023 11.7531C14.3464 11.854 14.4009 11.9234 14.3662 12.0811C14.2544 12.0239 14.2958 12.1775 14.2418 12.1918C14.184 12.2071 14.1349 12.2032 14.0514 12.1681C14.0935 12.2869 14.2039 12.4439 14.2983 12.5277C14.1308 12.4001 13.9489 12.368 13.8674 12.4959C13.8927 12.4671 13.8253 12.7687 13.8177 12.7218C13.8349 12.8282 13.9231 12.9397 13.9816 13.0035C13.9434 13.0667 13.9614 13.1006 13.8835 13.0721C13.8464 13.4911 13.8308 13.875 13.8086 14.3285C13.5932 14.1597 13.486 14.6812 13.4279 14.8656C13.386 14.9984 13.1442 15.4865 13.3821 15.6272C13.315 15.6065 13.2656 15.7245 13.2299 15.891Z"
        fill="white" />
    <path
        d="M15.0469 10.5067C15.0125 10.456 14.9922 10.4026 15.0007 10.3511C14.9994 10.3501 14.998 10.3488 14.9967 10.3478C14.9987 10.3099 15.0017 10.2616 14.998 10.2246C14.9895 10.2582 14.9771 10.2892 14.9678 10.3203C14.9553 10.3058 14.9447 10.2891 14.9372 10.2704C14.9251 10.1239 14.9738 9.96098 14.9583 9.83263C14.9214 9.94326 14.9356 10.0982 14.8974 10.196C14.8581 10.139 14.8112 10.1046 14.7655 10.0957C14.7419 10.0154 14.7468 10.0157 14.7049 10.017C14.6772 9.91494 14.5886 9.80237 14.5225 9.7439C14.5387 9.60912 14.5406 9.49944 14.633 9.49576C14.7171 9.49235 14.8188 9.58706 14.9029 9.61674C14.837 9.54758 14.7465 9.46071 14.6921 9.3802C14.7039 9.38193 14.7127 9.38965 14.7235 9.3915C14.7119 9.36707 14.7069 9.32407 14.6946 9.29951C14.7165 9.29707 14.733 9.27029 14.7601 9.274C14.7614 9.09942 14.6706 8.76166 14.8022 8.68529C14.8057 8.69436 14.8092 8.70333 14.8125 8.71251C14.8313 8.70236 14.8599 8.71198 14.8799 8.69843C14.8962 8.71659 14.9251 8.74137 14.9372 8.75749C14.9079 8.70933 14.8651 8.65894 14.8322 8.61914C14.8889 8.63107 14.9919 8.6323 15.091 8.65483C15.1383 8.68202 15.1656 8.70601 15.1694 8.70958C15.1692 8.70951 15.1691 8.70912 15.1687 8.70862L15.1687 8.70813C15.1659 8.70341 15.1576 8.68941 15.1439 8.66912C15.1941 8.68549 15.2404 8.70982 15.2762 8.74593C15.1595 8.60247 15.0477 8.48708 14.9449 8.31747C14.9557 8.31455 14.9692 8.31122 14.9809 8.31093C14.9777 8.3018 14.9612 8.25156 14.9602 8.24496C14.9961 8.16422 14.9826 8.04578 14.9709 7.93826C15.0582 7.95131 15.0146 7.86707 15.0436 7.80364C15.0711 7.74337 15.131 7.78384 15.104 7.65056C15.0912 7.58772 15.0542 7.54935 15.0266 7.50037L15.0409 7.46776L15.0429 7.46338L15.053 7.47617C15.067 7.49357 15.0856 7.51195 15.1033 7.52133C15.112 7.52595 15.1195 7.52911 15.1265 7.53208C15.1395 7.53761 15.1525 7.54348 15.1672 7.55274L15.2598 7.61616C15.2375 7.57266 15.2085 7.5188 15.1885 7.47708C15.1835 7.46661 15.1801 7.45674 15.1761 7.44687L15.1726 7.43661L15.1706 7.43012C15.1678 7.42132 15.1655 7.413 15.1638 7.40438C15.1569 7.37121 15.1586 7.34143 15.1669 7.31535C15.1851 7.26412 15.2245 7.23336 15.2626 7.2111C15.3408 7.16782 15.422 7.15345 15.4893 7.14314C15.6242 7.12476 15.7101 7.12915 15.71 7.12873C15.71 7.12873 15.709 7.1281 15.7075 7.1274C15.6958 7.12002 15.6462 7.09075 15.5652 7.05404C15.5185 7.03272 15.4616 7.00912 15.3964 6.98966C15.3634 6.98006 15.3286 6.97145 15.292 6.96555L15.2644 6.9623L15.2432 6.96048C15.2354 6.95995 15.2286 6.95961 15.2224 6.96023L15.22 6.96021C15.22 6.95976 15.221 6.95824 15.2214 6.95735L15.2256 6.95031L15.2333 6.93902L15.2685 6.88694C15.2994 6.84417 15.3329 6.80048 15.3678 6.75627L15.4762 6.61843L15.532 6.54439L15.5599 6.50536L15.574 6.48388C15.5825 6.4702 15.5912 6.45661 15.5983 6.44208L15.5837 6.40619L15.5684 6.37011C15.5622 6.36809 15.5563 6.36528 15.5516 6.36094C15.5486 6.35861 15.5492 6.35873 15.5483 6.35815C15.5475 6.3571 15.5472 6.35665 15.5468 6.35614C15.5454 6.35414 15.544 6.35255 15.543 6.3502C15.5409 6.34581 15.5391 6.33936 15.5379 6.33044C15.5361 6.31259 15.5385 6.2899 15.5427 6.26839C15.5537 6.21488 15.572 6.1654 15.5904 6.11638C15.6086 6.06767 15.6282 6.02061 15.648 5.97531C15.6873 5.88465 15.7284 5.80042 15.7694 5.72235C15.8515 5.56615 15.9342 5.43671 16.0094 5.33692C16.0835 5.23825 16.1506 5.16979 16.1997 5.12513C16.214 5.12502 16.2217 5.12696 16.2217 5.1265C16.2217 5.12696 16.2146 5.12481 16.2013 5.1237C16.2449 5.08451 16.2738 5.06445 16.2803 5.05957C16.2725 5.06375 16.2352 5.08181 16.18 5.12276C16.1796 5.12271 16.1797 5.12313 16.1795 5.1231C16.1791 5.12305 16.1786 5.1229 16.1782 5.12285C16.1507 5.12435 16.1119 5.13517 16.0671 5.16142C15.9769 5.21302 15.8648 5.32558 15.7416 5.486C15.6797 5.56593 15.6149 5.65759 15.5468 5.75871C15.4783 5.85835 15.409 5.97193 15.3299 6.0771C15.3122 6.1015 15.2939 6.12566 15.2754 6.14979C15.0887 6.1853 14.9371 6.08961 14.7483 6.00796L14.7225 5.96262C14.6547 5.93953 14.5869 5.89162 14.5176 5.84161C14.5742 5.89117 14.6341 5.93616 14.6909 5.98432C14.6833 5.98135 14.676 5.97834 14.6682 5.97545C14.7364 6.07923 14.8147 6.15215 14.893 6.15589C14.9033 6.18074 14.9026 6.20804 14.9161 6.23081C14.9534 6.21486 15.0194 6.24864 15.0568 6.23308C15.0578 6.29732 15.068 6.35316 15.0926 6.39471C15.0877 6.40178 15.0827 6.40844 15.0777 6.41568C15.0358 6.47783 14.9954 6.54517 14.9597 6.62033C14.9418 6.65804 14.9251 6.69829 14.9102 6.7401C14.895 6.78186 14.8831 6.82341 14.8642 6.85399C14.8489 6.87958 14.8288 6.90297 14.8091 6.92472C14.7911 6.94366 14.767 6.95759 14.7422 6.97051C14.7178 6.98391 14.6903 6.99678 14.6669 7.02261C14.6435 7.04801 14.6281 7.08798 14.6213 7.12997L14.6177 7.15424L14.6331 7.17502C14.637 7.18011 14.6409 7.18524 14.646 7.18964L14.6491 7.19239L14.6494 7.19247L14.6501 7.1926C14.6501 7.1926 14.6506 7.19264 14.6507 7.19314L14.6503 7.19482L14.6373 7.22434C14.6276 7.24527 14.6179 7.2662 14.6075 7.28612C14.5873 7.32656 14.5656 7.36456 14.5431 7.40057C14.4983 7.47274 14.45 7.53687 14.3977 7.58837C14.3452 7.63948 14.2886 7.67976 14.2272 7.69551C14.1964 7.70296 14.1646 7.70451 14.1326 7.6973C14.1246 7.69539 14.1166 7.69304 14.1084 7.6902L14.0968 7.68546C14.092 7.68371 14.0905 7.68297 14.0818 7.6783C14.0549 7.66417 13.9213 7.48357 13.8938 7.4627C13.905 7.49497 14.0218 7.68868 14.0348 7.72383C14.05 7.76597 14.055 7.77995 14.0626 7.80322C14.0769 7.84696 14.0898 7.89006 14.1025 7.93259L14.1389 8.0564L14.148 8.0865L14.1545 8.10604L14.1572 8.11438C14.1589 8.11781 14.155 8.11618 14.154 8.11732L14.144 8.12028C14.099 8.13212 14.053 8.13321 14.01 8.12398C13.9663 8.11462 13.9255 8.09438 13.889 8.07156C13.8158 8.02442 13.7609 7.97098 13.7239 7.93581C13.6944 7.90674 13.676 7.88805 13.6701 7.88213C13.6695 7.88159 13.6688 7.88104 13.6687 7.88054C13.6684 7.88054 13.6684 7.88058 13.6684 7.88008C13.668 7.87953 13.6677 7.87953 13.6677 7.87953C13.6677 7.87953 13.6681 7.88004 13.6684 7.88058C13.6739 7.88811 13.7171 7.95162 13.7931 8.05041C13.8336 8.10329 13.8842 8.16594 13.9428 8.23533L14.0362 8.34425L14.0868 8.40301L14.1105 8.43097L14.1167 8.43958L14.1118 8.4452L14.0951 8.46658C14.0823 8.48211 14.0688 8.49668 14.0542 8.51017C14.0396 8.52365 14.0242 8.53567 14.0077 8.54577C13.9994 8.55077 13.991 8.5549 13.9821 8.55937L13.9676 8.56501L13.9395 8.57514C13.941 8.5903 13.9427 8.60547 13.9436 8.61878C13.9442 8.62983 13.944 8.63239 13.9437 8.63927C13.9432 8.65145 13.9419 8.66344 13.9393 8.67476C13.9347 8.69839 13.9266 8.72045 13.9167 8.74138C13.8967 8.78357 13.8002 8.72877 13.7721 8.76604C13.7177 8.83811 13.7304 8.99814 13.6865 9.08137C13.6644 9.12281 13.6461 9.16881 13.6357 9.2215C13.6306 9.24807 13.6276 9.27639 13.6274 9.30518C13.6281 9.34555 13.6291 9.33784 13.6307 9.34731C13.6296 9.3484 13.6266 9.34568 13.6243 9.34439C13.6224 9.34318 13.6234 9.34422 13.619 9.3408L13.6044 9.3294C13.5848 9.31437 13.5657 9.29906 13.5472 9.28343C13.5102 9.25258 13.475 9.22163 13.4416 9.19272C13.3753 9.13464 13.3166 9.08448 13.267 9.04645C13.1748 8.97531 13.1177 8.94774 13.111 8.94382C13.1105 8.94331 13.1102 8.94327 13.1102 8.94327C13.1102 8.94327 13.1106 8.94377 13.1109 8.94423C13.1176 8.95599 13.171 9.0506 13.2744 9.17366C13.329 9.24015 13.3974 9.31391 13.47 9.40072C13.5063 9.44452 13.5437 9.49171 13.5791 9.54407C13.5971 9.57054 13.6145 9.59822 13.631 9.62754C13.6392 9.64172 13.6472 9.65678 13.6549 9.67214C13.6577 9.67749 13.6566 9.67548 13.657 9.67644L13.6574 9.67694L13.6576 9.67829L13.6563 9.67804C13.6563 9.67804 13.6563 9.67804 13.6555 9.67837L13.6458 9.68229L13.6068 9.69823C13.581 9.70969 13.5545 9.72182 13.5282 9.73618C13.4927 9.75551 13.5335 9.84611 13.5446 9.91356L13.5155 9.9783C13.4657 9.96809 13.3565 9.90641 13.3554 9.94913C13.3551 9.97528 13.3622 10.0059 13.3733 10.0302C13.376 10.0368 13.379 10.0422 13.3819 10.048L13.3866 10.0558C13.3869 10.0564 13.3869 10.0563 13.387 10.0568L13.3898 10.0599C13.39 10.0612 13.3889 10.0623 13.3868 10.0663L13.3713 10.0884L13.3382 10.1352C13.3371 10.1368 13.336 10.1383 13.3349 10.14C13.3691 10.1378 13.4041 10.1395 13.4395 10.1457C13.5253 10.2822 13.5822 10.4559 13.5144 10.5865C13.6088 10.7639 13.5365 11.0492 13.4942 11.1539C13.4727 11.2072 13.4236 11.1677 13.4081 11.231C13.3967 11.2779 13.4132 11.3504 13.4073 11.3757C13.3972 11.4199 13.3787 11.549 13.3681 11.6146C13.3313 11.8434 13.2595 11.9378 13.1969 12.1223C13.097 12.4169 13.2935 12.3229 13.3223 12.6218C13.3044 12.6162 13.2899 12.5984 13.2722 12.5951C13.2527 12.7666 13.3866 12.9077 13.4555 13.0407C13.3817 13.0139 13.3089 12.9954 13.2348 12.9548C13.2913 13.1486 13.2089 13.2718 13.2 13.442C13.0614 13.334 12.7708 13.2519 12.6429 13.2821C12.8843 13.3612 13.0044 13.477 13.2323 13.6646C13.178 13.7122 13.1747 13.8132 13.2143 13.9223C13.0595 14.0418 13.1335 14.2495 13.1529 14.5106C13.1716 14.7632 13.1977 14.992 13.1749 15.2402C13.1548 15.4605 13.152 15.7226 13.1593 15.9698C13.1661 16.2016 13.1263 16.455 13.1454 16.691C13.1504 16.544 13.173 16.1561 13.2299 15.891C13.2656 15.7245 13.315 15.6065 13.3821 15.6272C13.1442 15.4865 13.386 14.9984 13.4279 14.8656C13.486 14.6812 13.5932 14.1597 13.8086 14.3285C13.8308 13.875 13.8464 13.4911 13.8835 13.0721C13.9614 13.1006 13.9434 13.0667 13.9816 13.0035C13.9231 12.9397 13.8349 12.8282 13.8177 12.7218C13.8253 12.7687 13.8927 12.4671 13.8674 12.4959C13.9489 12.368 14.1308 12.4001 14.2983 12.5277C14.2039 12.4439 14.0935 12.2869 14.0514 12.1681C14.1349 12.2032 14.184 12.2071 14.2418 12.1918C14.2958 12.1775 14.2544 12.0239 14.3662 12.0811C14.4009 11.9234 14.3464 11.854 14.4023 11.7531C14.4139 11.732 14.4917 11.7777 14.5151 11.7505C14.5515 11.7081 14.5364 11.6135 14.5573 11.5589C14.5765 11.5086 14.5907 11.4555 14.6011 11.4003C14.5999 11.428 14.5967 11.4549 14.5899 11.4803C14.5905 11.4815 14.5911 11.4827 14.5916 11.4839C14.6233 11.5474 14.6568 11.611 14.6857 11.677C14.7206 11.7569 14.7526 11.8402 14.7803 11.925C14.7795 11.9184 14.7787 11.9118 14.7778 11.9051C14.7804 11.8844 14.7818 11.8634 14.7814 11.8428C14.7804 11.796 14.7717 11.7418 14.7584 11.6844C14.7687 11.6691 14.7798 11.6565 14.7918 11.6475C14.8233 11.6904 14.8856 11.6913 14.9317 11.7222C14.9881 11.7599 15.0406 11.8249 15.1014 11.8574C15.035 11.7896 14.9668 11.6953 14.8969 11.6232C14.8041 11.4903 14.7223 11.3582 14.6491 11.2144C14.6434 11.1804 14.6362 11.1433 14.6273 11.1035C14.6242 11.0882 14.6208 11.0725 14.6172 11.0564C14.6096 10.9415 14.591 10.82 14.5641 10.6928C14.5641 10.6759 14.5646 10.659 14.5656 10.6419C14.5661 10.6088 14.5722 10.5745 14.5645 10.5237C14.5591 10.4924 14.5493 10.4643 14.5384 10.4382C14.5444 10.4311 14.5679 10.4334 14.5753 10.4328C14.5751 10.432 14.5643 10.3933 14.5605 10.3859C14.6294 10.4207 14.7173 10.4649 14.7832 10.5105C14.7342 10.451 14.6539 10.3567 14.5793 10.2599C14.5477 10.2152 14.509 10.1607 14.4644 10.0979C14.442 10.0621 14.4237 10.0285 14.4124 9.99978C14.5785 10.1226 14.7515 10.2705 14.9174 10.3903C14.9116 10.4196 14.9187 10.4758 14.9144 10.5002C14.9285 10.479 14.9485 10.4722 14.9722 10.4752C14.9773 10.5433 15.1087 10.6104 15.1671 10.6361C15.2256 10.6864 15.2852 10.7258 15.3188 10.7452C15.2548 10.6921 15.141 10.5663 15.0469 10.5067ZM15.0469 10.5067C15.0438 10.5048 15.041 10.5034 15.038 10.5016C15.0756 10.5496 15.1179 10.5952 15.1514 10.6224C15.1125 10.5874 15.075 10.548 15.0469 10.5067Z"
        stroke="black" stroke-width="0.2" stroke-miterlimit="10" />
    <path
        d="M15.9171 17.1493C15.9455 17.0799 15.9657 17.0113 15.9754 16.9445C16.22 16.8886 15.9903 16.8051 16.0386 16.724C16.0894 16.6387 16.2271 16.6383 16.2964 16.5649C16.6173 16.6056 17.075 15.66 16.9379 15.4773C16.9773 15.4191 17.1252 15.1748 17.1703 15.1438C17.1952 15.1267 17.2213 15.1153 17.2482 15.1065C17.2452 15.1194 17.2426 15.1303 17.2424 15.1311C17.2435 15.1304 17.2525 15.1161 17.2608 15.1025C17.2894 15.0942 17.3188 15.0885 17.3486 15.0824C17.4403 15.0758 17.5459 15.0347 17.6302 15.027C17.7557 15.0155 17.8867 15.0659 17.9802 14.9694C17.7881 14.9417 17.6133 14.8922 17.4959 14.7752C17.4983 14.6827 17.551 14.5987 17.6656 14.4395C17.5532 14.3708 17.6402 14.2374 17.7701 14.2008C17.7504 14.1855 17.7348 14.161 17.7152 14.1472C17.7721 14.1261 17.8191 14.0828 17.8869 14.0805C17.8543 13.932 17.8056 13.821 17.8381 13.6714C17.9468 13.5668 17.8641 13.5011 17.8961 13.3905C17.8976 13.3855 17.8998 13.3802 17.9016 13.3751C17.9144 13.3685 17.9273 13.3622 17.9405 13.3565C17.9391 13.3456 17.9374 13.3347 17.9367 13.3234C17.9358 13.3149 17.9361 13.3085 17.9351 13.2989C17.9646 13.2426 18.0027 13.1843 18.0357 13.1295C18.0715 13.1108 18.111 13.0962 18.152 13.0834C18.1964 13.0694 18.2423 13.0577 18.2897 13.0448C18.3132 13.0382 18.3375 13.0312 18.3618 13.0233C18.3666 13.0218 18.3768 13.0184 18.3867 13.0142C18.3963 13.0109 18.4058 13.0067 18.4147 13.0027C18.4322 12.9944 18.4501 12.9858 18.4666 12.976L18.4223 12.9422C18.4148 12.9369 18.4064 12.9315 18.3981 12.926L18.3799 12.9152C18.3576 12.9031 18.3341 12.8928 18.3097 12.8844C18.2618 12.8668 18.202 12.8622 18.1853 12.8333C18.1759 12.8185 18.173 12.7953 18.1733 12.7714C18.1737 12.7469 18.1764 12.721 18.1803 12.695C18.1852 12.6462 18.2099 12.5949 18.2329 12.5419C18.2564 12.4889 18.7185 12.4173 18.7185 12.4173C18.3704 12.3899 18.2919 12.3378 18.2917 12.3233L18.2947 12.3076C18.2964 12.3002 18.2976 12.2929 18.2989 12.285C18.3037 12.2552 18.3065 12.2256 18.3079 12.1958C18.3108 12.1367 18.3093 12.0796 18.3137 12.0224C18.315 12.0083 18.3166 11.994 18.3184 11.9799L18.3214 11.9609L18.3217 11.9596L18.322 11.9594L18.3223 11.9591L18.3228 11.959L18.3233 11.9595C18.3238 11.9594 18.3239 11.9594 18.3239 11.9594L18.3303 11.9601C18.3453 11.9615 18.3601 11.9629 18.3738 11.9621L18.4146 11.9596C18.4119 11.9339 18.4116 11.9105 18.4053 11.8842C18.4043 11.8786 18.4016 11.8698 18.4008 11.8669L18.3975 11.8565L18.3897 11.8363C18.3789 11.8101 18.3663 11.7857 18.3546 11.7613C18.3428 11.7375 18.3324 11.7138 18.3246 11.6893C18.3226 11.6833 18.3208 11.677 18.3193 11.6709L18.3174 11.6634L18.3175 11.6629L18.3176 11.6624L18.3183 11.6626L18.3261 11.6628L18.3375 11.662L18.359 11.6606L18.3968 11.6578L18.3947 11.6217C18.3913 11.5649 18.3917 11.5074 18.3965 11.4484C18.3989 11.4189 18.8914 11.4222 18.8956 11.3922L18.5917 11.3436C18.6092 11.3433 18.5775 11.3298 18.4262 11.2857C18.4011 11.2784 18.4656 11.2365 18.4874 11.2074C18.4985 11.1926 18.5094 11.1767 18.5183 11.1594C18.5206 11.1553 18.5227 11.1508 18.5246 11.1462C18.5265 11.1427 18.5306 11.1321 18.531 11.1261C18.5325 11.1165 18.5331 11.107 18.5331 11.098C18.5325 11.0617 18.5236 11.0314 18.5172 11.0031C18.5105 10.9748 18.5052 10.9484 18.5081 10.9247C18.509 10.9186 18.5101 10.9128 18.5117 10.9074C18.5128 10.9031 18.5158 10.8959 18.5167 10.8951C18.5244 10.8831 18.5337 10.8715 18.5438 10.8602C18.5638 10.8371 18.5868 10.8153 18.6108 10.795C18.6279 10.781 18.6452 10.7676 18.663 10.7553C18.6446 10.755 18.6272 10.7524 18.6098 10.7482C18.601 10.746 18.592 10.7436 18.5835 10.7402C18.605 10.7227 18.6274 10.7068 18.6509 10.6917C18.6452 10.6912 18.6397 10.6899 18.6342 10.6887C18.5845 10.6773 18.545 10.6469 18.5268 10.6039C18.5079 10.5611 18.5081 10.5085 18.5186 10.4565C18.5239 10.4301 18.5317 10.4039 18.5407 10.378L18.5696 10.2966C18.6342 10.1059 18.6794 9.92179 18.7131 9.7473C18.7744 9.68454 18.8631 9.59299 18.9087 9.52186C18.9172 9.51911 18.9254 9.51629 18.9333 9.51346C19.0012 9.56784 19.0855 9.50566 19.1577 9.4275C19.0239 9.45919 18.8595 9.48312 18.7626 9.42353C18.7738 9.32318 18.7806 9.22724 18.782 9.13678C18.7839 8.97248 18.7709 8.82688 18.7612 8.69904C18.761 8.69694 18.7609 8.69499 18.7607 8.69284C18.7618 8.66382 18.7624 8.63489 18.7618 8.60632C18.7604 8.53107 18.7555 8.45506 18.7505 8.37868C18.7504 8.35751 18.7502 8.33701 18.7499 8.31802C18.7478 8.18741 18.7431 8.1094 18.7422 8.0918C18.7422 8.10473 18.7428 8.14637 18.7423 8.21279C18.7416 8.18786 18.7404 8.16309 18.739 8.13829C18.74 8.11592 18.7411 8.1 18.7416 8.0928C18.741 8.09858 18.7397 8.10939 18.7382 8.12486C18.7382 8.12495 18.7382 8.12507 18.7382 8.12517C18.7339 8.17009 18.7276 8.25463 18.7282 8.373C18.7281 8.37721 18.7282 8.38184 18.7283 8.38614C18.7021 8.50969 18.6387 8.74697 18.7015 8.77034C18.6981 8.77684 18.6728 8.83735 18.6605 8.86677C18.6607 8.86695 18.655 8.84739 18.6513 8.84358C18.6296 8.87784 18.6256 8.91061 18.6295 8.94273C18.5859 8.94138 18.5313 8.93247 18.4932 8.93298C18.5401 8.95707 18.5927 8.97966 18.6434 9.00105C18.6537 9.03407 18.6661 9.06683 18.6691 9.10014C18.6701 9.10949 18.6703 9.11881 18.6703 9.12812C18.6634 9.16949 18.6556 9.21478 18.6473 9.26166C18.6363 9.29533 18.6223 9.32894 18.6068 9.36251C18.5768 9.42716 18.4687 9.54916 18.4585 9.61056C18.4525 9.64636 18.4878 9.72524 18.4769 9.77184C18.382 9.76557 18.217 9.71583 18.054 9.70768L18.4755 9.91745C18.4081 9.97931 18.3398 10.1407 18.2408 10.1366C18.3038 10.1944 18.2161 10.2973 18.3197 10.3151C18.2868 10.3385 18.2826 10.3535 18.2582 10.3773C18.1598 10.4098 18.2033 10.5105 18.2121 10.5937C18.1757 10.6467 18.1352 10.6979 18.0892 10.7459C18.0507 10.7858 18.0088 10.8243 17.9643 10.8598L17.9299 10.886L17.9127 10.8988L17.9039 10.9052L17.8875 10.9166C17.8634 10.9333 17.8381 10.9498 17.8122 10.9664L17.7408 11.0134L17.856 11.0082C17.8691 11.009 17.8816 11.0098 17.8914 11.0129C17.8966 11.0139 17.9015 11.0152 17.9067 11.0167L17.915 11.0195L17.9292 11.0239L17.9299 11.024L17.9302 11.0243C17.9299 11.0246 17.9296 11.0248 17.9296 11.0248L17.9148 11.0356C17.9069 11.0411 17.8987 11.0469 17.8894 11.0522L17.8319 11.0849L17.8728 11.114C17.8801 11.1195 17.8956 11.1231 17.9107 11.1257C17.8736 11.2128 17.8561 11.3001 17.8375 11.3865C17.8179 11.4799 17.8012 11.5717 17.7705 11.6582C17.7552 11.7007 17.736 11.7424 17.7103 11.7776C17.6849 11.8126 17.6517 11.842 17.6136 11.8617C17.5754 11.8819 17.5323 11.8929 17.4883 11.8994C17.4664 11.9027 17.4442 11.9047 17.422 11.9062L17.3881 11.9081L17.3287 11.9101C17.2845 11.9117 17.2408 11.9137 17.2049 11.9175L17.1094 11.9301L17.0596 11.9367L17.0361 11.9401C17.0353 11.9404 17.0358 11.9403 17.0342 11.9409C17.0263 11.9422 17.0161 11.9446 16.9365 11.9562L17.1348 11.98C17.1583 11.9828 17.1875 11.9861 17.1968 11.9887C17.2101 11.9913 17.2254 11.994 17.2365 11.9968C17.2577 12.0023 17.2779 12.0079 17.2954 12.0143L17.3222 12.0233L17.3456 12.0314L17.4541 12.0722C17.4903 12.0856 17.5271 12.0983 17.5656 12.1085C17.585 12.1134 17.6047 12.1176 17.6253 12.1204L17.6383 12.1217L17.641 12.122C17.6428 12.122 17.6444 12.1219 17.6465 12.1217C17.6453 12.1238 17.6433 12.1268 17.6424 12.1291C17.6344 12.145 17.6277 12.1616 17.6223 12.1778C17.6112 12.2104 17.6051 12.2428 17.6026 12.2742C17.5971 12.3372 17.6021 12.3961 17.6065 12.4527C17.6111 12.509 17.6153 12.564 17.6094 12.617C17.6066 12.6435 17.6009 12.6694 17.5919 12.6939C17.5894 12.7001 17.587 12.7063 17.584 12.712L17.5798 12.7209L17.5763 12.7277C17.5737 12.7317 17.5707 12.738 17.5674 12.7402C17.5632 12.7369 17.5619 12.7358 17.5546 12.7307C17.5438 12.7235 17.5321 12.7166 17.5195 12.711C17.5065 12.7055 17.4922 12.7011 17.4754 12.7006C17.4587 12.7002 17.4384 12.7061 17.4236 12.7179C17.3938 12.7425 17.3853 12.7722 17.3785 12.7977C17.3755 12.8102 17.3732 12.8239 17.372 12.835L17.3712 12.8438L17.3712 12.848C17.3712 12.8495 17.3713 12.8512 17.3692 12.8504C17.3664 12.8499 17.363 12.85 17.3598 12.8503L17.3431 12.8526C17.3291 12.8546 17.3156 12.8571 17.3023 12.8598C17.289 12.862 17.2763 12.8647 17.2633 12.8666C17.2455 12.8705 17.2219 12.8664 17.1987 12.8634C17.1976 12.8645 17.1977 12.8667 17.1984 12.8692C17.1562 12.8527 17.141 12.8169 17.0934 12.8044C17.0968 12.7413 17.1346 12.6896 17.1746 12.6363C17.0385 12.7845 16.9302 12.7635 16.7541 12.7341C16.9011 12.8294 17.0503 12.7681 17.1193 12.9484C17.1517 12.945 17.1854 12.9531 17.2167 12.9674C17.2165 12.9728 17.2165 12.9783 17.2159 12.9838C17.2126 13.0178 17.2029 13.051 17.1905 13.0831C17.1651 13.1469 17.1292 13.2046 17.0932 13.2567C17.0203 13.3603 16.945 13.4427 16.8831 13.5089C16.8785 13.5137 16.8745 13.5178 16.8701 13.5224C16.7978 13.5479 16.6962 13.5372 16.6354 13.5469C16.6227 13.5883 16.529 13.5946 16.4402 13.5879C16.4475 13.5919 16.4545 13.5963 16.4612 13.601C16.4451 13.5958 16.4291 13.5905 16.413 13.5854C16.422 13.5864 16.431 13.5872 16.4402 13.5879C16.4065 13.5698 16.3658 13.5602 16.3238 13.5609C16.2646 13.5483 16.202 13.5444 16.131 13.5618C16.2169 13.5646 16.4288 13.613 16.4509 13.6813C16.4899 13.6601 16.4973 13.6737 16.5129 13.6865C16.5144 13.686 16.516 13.6854 16.5176 13.685C16.5836 13.6654 16.647 13.6568 16.7125 13.6505C16.7111 13.6506 16.7098 13.6508 16.7086 13.6508C16.7104 13.6507 16.7125 13.6505 16.7149 13.6502C16.7141 13.6503 16.7133 13.6504 16.7125 13.6505C16.7166 13.6501 16.7218 13.6496 16.7274 13.6491C16.8261 13.7472 16.8421 13.8113 16.7853 13.9805C16.9474 13.9638 16.8465 14.1813 16.7904 14.2909C16.7192 14.4302 16.6285 14.4845 16.5421 14.626C16.3685 14.9108 16.5095 15.2174 16.1564 15.3662C16.161 15.4514 16.2297 15.504 16.2903 15.5364C16.228 15.5771 16.2406 15.6002 16.1928 15.6494C16.2764 15.6472 16.3559 15.6701 16.3407 15.7493C16.0742 15.5957 15.9203 16.7712 15.8702 16.9403C15.7295 17.4144 15.4007 17.7985 15.1033 18.218C15.3553 17.9425 15.7604 17.5326 15.9171 17.1493ZM18.7371 8.19107C18.7375 8.17424 18.738 8.15939 18.7385 8.14657C18.7394 8.17755 18.7405 8.20846 18.7421 8.23939C18.7419 8.25592 18.7417 8.274 18.7414 8.29304C18.7406 8.30588 18.7393 8.31885 18.7376 8.33177C18.7361 8.27587 18.7363 8.22859 18.7371 8.19107Z"
        fill="white" />
    <path
        d="M16.4402 13.5879C16.529 13.5946 16.6227 13.5883 16.6354 13.5469C16.6962 13.5372 16.7978 13.5479 16.8701 13.5224C16.8745 13.5178 16.8785 13.5137 16.8831 13.5089C16.945 13.4427 17.0203 13.3603 17.0932 13.2567C17.1292 13.2046 17.1651 13.1469 17.1905 13.0831C17.2029 13.051 17.2126 13.0178 17.2159 12.9838C17.2165 12.9783 17.2165 12.9728 17.2167 12.9674C17.1854 12.9531 17.1517 12.945 17.1193 12.9484C17.0503 12.7681 16.9011 12.8294 16.7541 12.7341C16.9302 12.7635 17.0385 12.7845 17.1746 12.6363C17.1346 12.6896 17.0968 12.7413 17.0934 12.8044C17.141 12.8169 17.1562 12.8527 17.1984 12.8692C17.1977 12.8667 17.1976 12.8645 17.1987 12.8634C17.2219 12.8664 17.2455 12.8705 17.2633 12.8666C17.2763 12.8647 17.289 12.862 17.3023 12.8598C17.3156 12.8571 17.3291 12.8546 17.3431 12.8526L17.3598 12.8503C17.363 12.85 17.3664 12.8499 17.3692 12.8504C17.3713 12.8512 17.3712 12.8495 17.3712 12.848L17.3712 12.8438L17.372 12.835C17.3732 12.8239 17.3755 12.8102 17.3785 12.7977C17.3853 12.7722 17.3938 12.7425 17.4236 12.7179C17.4384 12.7061 17.4587 12.7002 17.4754 12.7006C17.4922 12.7011 17.5065 12.7055 17.5195 12.711C17.5321 12.7166 17.5438 12.7235 17.5546 12.7307C17.5619 12.7358 17.5632 12.7369 17.5674 12.7402C17.5707 12.738 17.5737 12.7317 17.5763 12.7277L17.5798 12.7209L17.584 12.712C17.587 12.7063 17.5894 12.7001 17.5919 12.6939C17.6009 12.6694 17.6066 12.6435 17.6094 12.617C17.6153 12.564 17.6111 12.509 17.6065 12.4527C17.6021 12.3961 17.5971 12.3372 17.6026 12.2742C17.6051 12.2428 17.6112 12.2104 17.6223 12.1778C17.6277 12.1616 17.6344 12.145 17.6424 12.1291C17.6433 12.1268 17.6453 12.1238 17.6465 12.1217C17.6444 12.1219 17.6428 12.122 17.641 12.122L17.6383 12.1217L17.6253 12.1204C17.6047 12.1176 17.585 12.1134 17.5656 12.1085C17.5271 12.0983 17.4903 12.0856 17.4541 12.0722L17.3456 12.0314L17.3222 12.0233L17.2954 12.0143C17.2779 12.0079 17.2577 12.0023 17.2365 11.9968C17.2254 11.994 17.2101 11.9913 17.1968 11.9887C17.1875 11.9861 17.1583 11.9828 17.1348 11.98L16.9365 11.9562C17.0161 11.9446 17.0263 11.9422 17.0342 11.9409C17.0358 11.9403 17.0353 11.9404 17.0361 11.9401L17.0596 11.9367L17.1094 11.9301L17.2049 11.9175C17.2408 11.9137 17.2845 11.9117 17.3287 11.9101L17.3881 11.9081L17.422 11.9062C17.4442 11.9047 17.4664 11.9027 17.4883 11.8994C17.5323 11.8929 17.5754 11.8819 17.6136 11.8617C17.6517 11.842 17.6849 11.8126 17.7103 11.7776C17.736 11.7424 17.7552 11.7007 17.7705 11.6582C17.8012 11.5717 17.8179 11.4799 17.8375 11.3865C17.8561 11.3001 17.8736 11.2128 17.9107 11.1257C17.8956 11.1231 17.8801 11.1195 17.8728 11.114L17.8319 11.0849L17.8894 11.0522C17.8987 11.0469 17.9069 11.0411 17.9148 11.0356L17.9296 11.0248C17.9296 11.0248 17.9299 11.0246 17.9302 11.0243L17.9299 11.024L17.9292 11.0239L17.915 11.0195L17.9067 11.0167C17.9015 11.0152 17.8966 11.0139 17.8914 11.0129C17.8816 11.0098 17.8691 11.009 17.856 11.0082L17.7408 11.0134L17.8122 10.9664C17.8381 10.9498 17.8634 10.9333 17.8875 10.9166L17.9039 10.9052L17.9127 10.8988L17.9299 10.886L17.9643 10.8598C18.0088 10.8243 18.0507 10.7858 18.0892 10.7459C18.1352 10.6979 18.1757 10.6467 18.2121 10.5937C18.2033 10.5105 18.1598 10.4098 18.2582 10.3773C18.2826 10.3535 18.2868 10.3385 18.3197 10.3151C18.2161 10.2973 18.3038 10.1944 18.2408 10.1366C18.3398 10.1407 18.4081 9.97931 18.4755 9.91745L18.054 9.70768C18.217 9.71583 18.382 9.76557 18.4769 9.77184C18.4878 9.72524 18.4525 9.64636 18.4585 9.61056C18.4687 9.54916 18.5768 9.42716 18.6068 9.36251C18.6223 9.32894 18.6363 9.29533 18.6473 9.26166C18.6556 9.21478 18.6634 9.16949 18.6703 9.12812C18.6703 9.11881 18.6701 9.10949 18.6691 9.10014C18.6661 9.06683 18.6537 9.03407 18.6434 9.00105C18.5927 8.97966 18.5401 8.95707 18.4932 8.93298C18.5313 8.93247 18.5859 8.94138 18.6295 8.94273C18.6256 8.91061 18.6296 8.87784 18.6513 8.84358C18.655 8.84739 18.6607 8.86695 18.6605 8.86677C18.6728 8.83735 18.6981 8.77684 18.7015 8.77034C18.6387 8.74697 18.7021 8.50969 18.7283 8.38614C18.7282 8.38184 18.7281 8.37721 18.7282 8.373C18.7276 8.25463 18.7339 8.17009 18.7382 8.12517C18.7382 8.12507 18.7382 8.12495 18.7382 8.12486C18.7397 8.10939 18.741 8.09858 18.7416 8.0928C18.7411 8.1 18.74 8.11592 18.739 8.13829C18.7404 8.16309 18.7416 8.18786 18.7423 8.21279C18.7428 8.14637 18.7422 8.10473 18.7422 8.0918C18.7431 8.1094 18.7478 8.18741 18.7499 8.31802C18.7502 8.33701 18.7504 8.35751 18.7505 8.37868C18.7555 8.45506 18.7604 8.53107 18.7618 8.60632C18.7624 8.63489 18.7618 8.66382 18.7607 8.69284C18.7609 8.69499 18.761 8.69694 18.7612 8.69904C18.7709 8.82688 18.7839 8.97248 18.782 9.13678C18.7806 9.22724 18.7738 9.32318 18.7626 9.42353C18.8595 9.48312 19.0239 9.45919 19.1577 9.4275C19.0855 9.50566 19.0012 9.56784 18.9333 9.51346C18.9254 9.51629 18.9172 9.51911 18.9087 9.52186C18.8631 9.59299 18.7744 9.68454 18.7131 9.7473C18.6794 9.92179 18.6342 10.1059 18.5696 10.2966L18.5407 10.378C18.5317 10.4039 18.5239 10.4301 18.5186 10.4565C18.5081 10.5085 18.5079 10.5611 18.5268 10.6039C18.545 10.6469 18.5845 10.6773 18.6342 10.6887C18.6397 10.6899 18.6452 10.6912 18.6509 10.6917C18.6274 10.7068 18.605 10.7227 18.5835 10.7402C18.592 10.7436 18.601 10.746 18.6098 10.7482C18.6272 10.7524 18.6446 10.755 18.663 10.7553C18.6452 10.7676 18.6279 10.781 18.6108 10.795C18.5868 10.8153 18.5638 10.8371 18.5438 10.8602C18.5337 10.8715 18.5244 10.8831 18.5167 10.8951C18.5158 10.8959 18.5128 10.9031 18.5117 10.9074C18.5101 10.9128 18.509 10.9186 18.5081 10.9247C18.5052 10.9484 18.5105 10.9748 18.5172 11.0031C18.5236 11.0314 18.5325 11.0617 18.5331 11.098C18.5331 11.107 18.5325 11.1165 18.531 11.1261C18.5306 11.1321 18.5265 11.1427 18.5246 11.1462C18.5227 11.1508 18.5206 11.1553 18.5183 11.1594C18.5094 11.1767 18.4985 11.1926 18.4874 11.2074C18.4656 11.2365 18.4011 11.2784 18.4262 11.2857C18.5775 11.3298 18.6092 11.3433 18.5917 11.3436L18.8956 11.3922C18.8914 11.4222 18.3989 11.4189 18.3965 11.4484C18.3917 11.5074 18.3913 11.5649 18.3947 11.6217L18.3968 11.6578L18.359 11.6606L18.3375 11.662L18.3261 11.6628L18.3183 11.6626L18.3176 11.6624L18.3175 11.6629L18.3174 11.6634L18.3193 11.6709C18.3208 11.677 18.3226 11.6833 18.3246 11.6893C18.3324 11.7138 18.3428 11.7375 18.3546 11.7613C18.3663 11.7857 18.3789 11.8101 18.3897 11.8363L18.3975 11.8565L18.4008 11.8669C18.4016 11.8698 18.4043 11.8786 18.4053 11.8842C18.4116 11.9105 18.4119 11.9339 18.4146 11.9596L18.3738 11.9621C18.3601 11.9629 18.3453 11.9615 18.3303 11.9601L18.3239 11.9594C18.3239 11.9594 18.3238 11.9594 18.3233 11.9595L18.3228 11.959L18.3223 11.9591L18.322 11.9594L18.3217 11.9596L18.3214 11.9609L18.3184 11.9799C18.3166 11.994 18.315 12.0083 18.3137 12.0224C18.3093 12.0796 18.3108 12.1367 18.3079 12.1958C18.3065 12.2256 18.3037 12.2552 18.2989 12.285C18.2976 12.2929 18.2964 12.3002 18.2947 12.3076L18.2917 12.3233C18.2919 12.3378 18.3704 12.3899 18.7185 12.4173C18.7185 12.4173 18.2564 12.4889 18.2329 12.5419C18.2099 12.5949 18.1852 12.6462 18.1803 12.695C18.1764 12.721 18.1737 12.7469 18.1733 12.7714C18.173 12.7953 18.1759 12.8185 18.1853 12.8333C18.202 12.8622 18.2618 12.8668 18.3097 12.8844C18.3341 12.8928 18.3576 12.9031 18.3799 12.9152L18.3981 12.926C18.4064 12.9315 18.4148 12.9369 18.4223 12.9422L18.4666 12.976C18.4501 12.9858 18.4322 12.9944 18.4147 13.0027C18.4058 13.0067 18.3963 13.0109 18.3867 13.0142C18.3768 13.0184 18.3666 13.0218 18.3618 13.0233C18.3375 13.0312 18.3132 13.0382 18.2897 13.0448C18.2423 13.0577 18.1964 13.0694 18.152 13.0834C18.111 13.0962 18.0715 13.1108 18.0357 13.1295C18.0027 13.1843 17.9646 13.2426 17.9351 13.2989C17.9361 13.3085 17.9358 13.3149 17.9367 13.3234C17.9374 13.3347 17.9391 13.3456 17.9405 13.3565C17.9273 13.3622 17.9144 13.3685 17.9016 13.3751C17.8998 13.3802 17.8976 13.3855 17.8961 13.3905C17.8641 13.5011 17.9468 13.5668 17.8381 13.6714C17.8056 13.821 17.8543 13.932 17.8869 14.0805C17.8191 14.0828 17.7721 14.1261 17.7152 14.1472C17.7348 14.161 17.7504 14.1855 17.7701 14.2008C17.6402 14.2374 17.5532 14.3708 17.6656 14.4395C17.551 14.5987 17.4983 14.6827 17.4959 14.7752C17.6133 14.8922 17.7881 14.9417 17.9802 14.9694C17.8867 15.0659 17.7557 15.0155 17.6302 15.027C17.5459 15.0347 17.4403 15.0758 17.3486 15.0824C17.3188 15.0885 17.2894 15.0942 17.2608 15.1025C17.2525 15.1161 17.2435 15.1304 17.2424 15.1311C17.2426 15.1303 17.2452 15.1194 17.2482 15.1065C17.2213 15.1153 17.1952 15.1267 17.1703 15.1438C17.1252 15.1748 16.9773 15.4191 16.9379 15.4773C17.075 15.66 16.6173 16.6056 16.2964 16.5649C16.2271 16.6383 16.0894 16.6387 16.0386 16.724C15.9903 16.8051 16.22 16.8886 15.9754 16.9445C15.9657 17.0113 15.9455 17.0799 15.9171 17.1493C15.7604 17.5326 15.3553 17.9425 15.1033 18.218C15.4007 17.7985 15.7295 17.4144 15.8702 16.9403C15.9203 16.7712 16.0742 15.5957 16.3407 15.7493C16.3559 15.6701 16.2764 15.6472 16.1928 15.6494C16.2406 15.6002 16.228 15.5771 16.2903 15.5364C16.2297 15.504 16.161 15.4514 16.1564 15.3662C16.5095 15.2174 16.3685 14.9108 16.5421 14.626C16.6285 14.4845 16.7192 14.4302 16.7904 14.2909C16.8465 14.1813 16.9474 13.9638 16.7853 13.9805C16.8421 13.8113 16.8261 13.7472 16.7274 13.6491C16.7218 13.6496 16.7166 13.6501 16.7125 13.6505M16.4402 13.5879C16.4475 13.5919 16.4545 13.5963 16.4612 13.601C16.4451 13.5958 16.4291 13.5905 16.413 13.5854C16.422 13.5864 16.431 13.5872 16.4402 13.5879ZM16.4402 13.5879C16.4065 13.5698 16.3658 13.5602 16.3238 13.5609C16.2646 13.5483 16.202 13.5444 16.131 13.5618C16.2169 13.5646 16.4288 13.613 16.4509 13.6813C16.4899 13.6601 16.4973 13.6737 16.5129 13.6865C16.5144 13.686 16.516 13.6854 16.5176 13.685C16.5836 13.6654 16.647 13.6568 16.7125 13.6505M16.7125 13.6505C16.7111 13.6506 16.7098 13.6508 16.7086 13.6508C16.7104 13.6507 16.7125 13.6505 16.7149 13.6502C16.7141 13.6503 16.7133 13.6504 16.7125 13.6505ZM18.7371 8.19107C18.7375 8.17424 18.738 8.15939 18.7385 8.14657C18.7394 8.17755 18.7405 8.20846 18.7421 8.23939C18.7419 8.25592 18.7417 8.274 18.7414 8.29304C18.7406 8.30588 18.7393 8.31885 18.7376 8.33177C18.7361 8.27587 18.7363 8.22859 18.7371 8.19107Z"
        stroke="black" stroke-width="0.2" stroke-miterlimit="10" />
    <path
        d="M7.27163 11.2625C7.30887 11.1971 7.34565 11.1322 7.38773 11.0566C7.42149 10.996 7.47665 10.9574 7.51163 10.8941C7.54706 10.83 7.55689 10.7205 7.5916 10.6675C7.67686 10.5371 7.83872 10.4773 7.94467 10.3748C8.06414 10.2593 7.99434 10.1607 8.21926 10.2263C8.19565 10.1568 8.15847 10.1266 8.07514 10.1136C8.17864 9.96697 8.18167 9.81769 8.24299 9.68519C8.31374 9.53229 8.43785 9.41531 8.49015 9.23745C8.69016 9.22641 8.8623 9.28312 9.05753 9.3272C8.98521 9.24874 8.92348 9.12277 8.83054 9.06478C8.84389 8.96464 8.79231 8.88164 8.71314 8.85644C8.71697 8.854 8.76002 8.84133 8.76094 8.84113C8.75905 8.69204 8.89005 8.28786 9.06948 8.30056C9.03466 8.1592 9.14682 8.08123 9.26681 8.1165C9.2936 8.04728 9.29927 7.97432 9.28197 7.91769C9.28631 7.83975 9.29013 7.75447 9.29442 7.665C9.29665 7.621 9.29907 7.57818 9.30267 7.53682L9.30436 7.51071L9.30404 7.50786C9.30431 7.50707 9.30536 7.50693 9.30636 7.50676L9.30717 7.50641L9.3135 7.50663L9.32866 7.50717C9.40867 7.50796 9.47997 7.49638 9.53922 7.48442C9.61274 7.46914 9.66828 7.45347 9.69965 7.44413C9.70383 7.44303 9.70729 7.44179 9.71012 7.44119C9.71904 7.43899 9.72507 7.43687 9.72737 7.4358C9.72762 7.43548 9.72762 7.43548 9.72762 7.43548L9.72706 7.43552C9.72246 7.43564 9.70344 7.43765 9.67335 7.44092C9.67281 7.44044 9.67201 7.44084 9.67117 7.44066C9.66675 7.441 9.66229 7.4408 9.65754 7.44039C9.63522 7.43848 9.60858 7.43354 9.57996 7.42174C9.56562 7.41588 9.55112 7.40871 9.53624 7.39981C9.53121 7.39662 9.52694 7.39354 9.52242 7.39028L9.51688 7.38556C9.51501 7.38397 9.51077 7.38245 9.51624 7.38099C9.522 7.37814 9.52741 7.3751 9.53214 7.37195C9.53518 7.36939 9.53549 7.36971 9.54121 7.36475L9.55938 7.34886C9.56637 7.34299 9.57339 7.33713 9.58322 7.33062L9.61922 7.3098L9.70019 7.26605L9.61886 7.27336C9.60311 7.27495 9.5892 7.27603 9.57528 7.27657C9.56371 7.27604 9.55162 7.27603 9.54344 7.27279L9.53656 7.27109C9.53496 7.27077 9.53422 7.27014 9.53317 7.26974C9.53099 7.26845 9.5289 7.26769 9.52707 7.26672C9.52248 7.26443 9.51848 7.26208 9.51505 7.25917C9.50733 7.2537 9.50039 7.24687 9.49425 7.23914C9.46906 7.20829 9.45603 7.1622 9.4494 7.11279C9.43649 7.0133 9.44617 6.89799 9.46477 6.77953C9.47627 6.70913 9.49044 6.6404 9.50753 6.57475C9.51617 6.54225 9.52564 6.50936 9.53595 6.48082C9.54654 6.45451 9.56456 6.4268 9.58226 6.40087C9.62532 6.33934 9.66961 6.28224 9.71022 6.22856C9.78669 6.18323 9.87844 6.11469 9.93632 6.07167C10.0375 6.17558 10.1582 5.9009 10.2595 6.08271C10.3401 5.99791 10.3897 6.06586 10.4772 6.06664C10.5826 6.06763 10.68 6.02757 10.7841 6.00536C10.578 6.02995 10.2941 6.07322 10.2813 5.83706C10.2772 5.87927 10.2428 5.92823 10.2283 5.96172C10.1731 5.88856 10.0064 5.96054 9.90813 5.94437C9.89292 5.94194 9.87833 5.9394 9.86378 5.93686C9.86179 5.9225 9.85548 5.91003 9.84681 5.90235C9.82577 5.88476 9.8037 5.88402 9.79052 5.88272C9.78002 5.88202 9.77344 5.88212 9.77059 5.88224C9.76981 5.88208 9.76925 5.88212 9.76925 5.88212C9.76925 5.88212 9.76925 5.88212 9.76954 5.88188L9.77016 5.88091C9.77629 5.87529 9.80791 5.84981 9.84911 5.79721C9.89627 5.73837 9.9496 5.64239 9.99653 5.51961C10.0202 5.45848 10.0972 5.33526 9.86857 5.27943C9.83395 5.27094 10.0979 5.24776 10.1144 5.21111L10.1204 5.1974C10.1227 5.19207 10.1246 5.19057 10.128 5.17972L10.1373 5.15024L10.1571 5.08996C10.1829 5.00798 10.2119 4.92027 10.2181 4.82289C10.2186 4.8106 10.2187 4.79841 10.218 4.78616C10.2169 4.77194 10.2171 4.76604 10.2158 4.75016C10.2129 4.72328 10.2034 4.69789 10.192 4.67664C10.1693 4.6336 10.1369 4.59878 10.1317 4.56689C10.1299 4.55567 10.1307 4.54568 10.1356 4.53397C10.1454 4.50908 10.4204 4.42028 10.4467 4.38781L10.1646 4.43587C10.1488 4.43695 10.132 4.43757 10.1131 4.44008C10.0868 4.44359 10.079 4.44462 10.0766 4.44471C10.0763 4.44447 10.0761 4.44476 10.0761 4.44476C10.0761 4.44476 10.0763 4.44447 10.0758 4.44454L10.0756 4.44486C10.0755 4.43917 10.0767 4.41728 10.0796 4.40133L10.0841 4.37094L10.0838 4.36868L10.0854 4.36847C10.0861 4.36857 10.084 4.36831 10.0953 4.36865C10.1117 4.36856 10.1295 4.36622 10.147 4.36C10.165 4.35365 10.1822 4.34366 10.1967 4.3298C10.2107 4.31597 10.2218 4.29924 10.228 4.28267C10.2412 4.24884 10.2399 4.21663 10.2341 4.18837C10.231 4.17447 10.2269 4.16134 10.2216 4.14888L10.2176 4.13985C10.2176 4.13985 10.217 4.13881 10.2168 4.13857L10.2146 4.13475C10.2156 4.13359 10.2165 4.13322 10.2185 4.13137L10.2284 4.12389L10.2611 4.09828C10.2824 4.08147 10.3031 4.06519 10.3234 4.05064C10.3642 4.02113 10.4046 3.99687 10.4448 3.98427C10.477 3.97221 10.508 3.96726 10.5377 3.96563C10.6383 3.93471 10.7413 3.91525 10.8446 3.905C10.8419 3.90267 10.8384 3.90002 10.8349 3.89728C10.7628 3.90228 10.6919 3.8937 10.6226 3.87782C10.6208 3.8786 10.6187 3.87946 10.6158 3.88064C10.5462 3.90743 10.4736 3.88729 10.4341 3.83601C10.4275 3.83613 10.421 3.83627 10.4143 3.8363C10.3964 3.83599 10.3783 3.83557 10.3599 3.83445C10.3507 3.83386 10.3417 3.83248 10.3325 3.83191L10.3186 3.82989L10.3127 3.82852L10.3074 3.8272C10.3053 3.82694 10.3032 3.82669 10.3056 3.82301L10.3119 3.808C10.3131 3.80543 10.3185 3.79103 10.322 3.7818L10.3336 3.75073C10.3635 3.66666 10.3906 3.57524 10.4141 3.47916C10.462 3.28638 10.4936 3.07372 10.5337 2.85292C10.5537 2.74274 10.5756 2.63577 10.6029 2.53322C10.6296 2.43177 10.6644 2.3329 10.6928 2.23799C10.7518 2.04883 10.8008 1.87682 10.8345 1.73178C10.8685 1.58635 10.8867 1.46762 10.8947 1.38607C10.9001 1.33361 10.9014 1.29706 10.9016 1.27717C10.9031 1.26737 10.9034 1.26175 10.9017 1.26448C10.8865 1.28695 10.8326 1.4676 10.8137 1.51442C10.7947 1.56121 10.6831 1.84236 10.6596 1.90931C10.5789 2.06903 10.5771 2.2352 10.4813 2.46073C10.4586 2.51716 10.3076 2.58835 10.2988 2.65237C10.2944 2.68439 10.2933 2.71757 10.2973 2.75051L10.299 2.76213L10.2991 2.7632C10.2993 2.76339 10.2986 2.76379 10.2983 2.76409L10.282 2.78101C10.2761 2.78722 10.2702 2.79403 10.2645 2.80046C10.1724 2.90724 10.1166 3.03733 10.0631 3.16282C10.0323 3.23481 10.0018 3.30567 9.96194 3.36604C9.94202 3.39621 9.91934 3.42349 9.89395 3.44555C9.88669 3.45168 9.88276 3.45506 9.8721 3.46249C9.8641 3.468 9.85624 3.4726 9.84797 3.47791C9.83806 3.48229 9.8302 3.48698 9.81844 3.49139L9.65906 3.54835C9.71018 3.55346 9.79138 3.5579 9.84379 3.56515C9.85723 3.56728 9.86942 3.56981 9.8805 3.5735C9.88944 3.57589 9.89207 3.57709 9.8979 3.57947C9.90793 3.58328 9.9173 3.58804 9.9258 3.59363C9.9605 3.61516 9.97662 3.6516 9.97495 3.69407C9.97328 3.7365 9.95687 3.78142 9.93652 3.82293C9.9156 3.86451 9.89027 3.90392 9.863 3.94076C9.75199 4.08778 9.62234 4.19671 9.50816 4.27223C9.39322 4.3481 9.29028 4.38819 9.21855 4.4019C9.15639 4.41408 9.11878 4.41053 9.10935 4.40972C9.1085 4.40955 9.10795 4.40963 9.10778 4.40944L9.1075 4.40972C9.10766 4.40986 9.10801 4.41067 9.10957 4.41199C9.11817 4.42225 9.15059 4.46123 9.20722 4.51945C9.2417 4.55292 9.28495 4.5938 9.34802 4.62575C9.37933 4.64181 9.41576 4.65413 9.45654 4.66079C9.47666 4.66386 9.5003 4.66529 9.51974 4.66479C9.53107 4.66511 9.54178 4.66442 9.55148 4.66341C9.5559 4.6615 9.55055 4.66621 9.54948 4.66789L9.54353 4.67462L9.53189 4.68677L9.48744 4.73305C9.4523 4.76833 9.41421 4.80416 9.37485 4.84157C9.33555 4.87887 9.29458 4.91753 9.25403 4.95994C9.2338 4.98121 9.21375 5.00364 9.19441 5.02714L9.1869 5.03614L9.17558 5.05065C9.16804 5.06013 9.16016 5.0714 9.15246 5.08221C9.13756 5.10388 9.12185 5.12639 9.10772 5.14826L9.19507 5.1394L9.23419 5.13654L9.25736 5.13557L9.35163 5.13259L9.4481 5.12992C9.44942 5.12994 9.45046 5.13039 9.45104 5.13028C9.44995 5.13092 9.44884 5.13153 9.44841 5.13168L9.40521 5.16223C9.35845 5.19438 9.31008 5.22517 9.26003 5.25458C9.21993 5.27803 9.17984 5.30047 9.13941 5.32169L9.07888 5.35299L8.97702 5.40308L9.00402 5.43341C9.00886 5.43849 9.01342 5.4439 9.01687 5.4488C9.02036 5.45329 9.02498 5.46118 9.02522 5.46189C9.03037 5.4708 9.03417 5.48064 9.03701 5.4907C9.0426 5.51119 9.04396 5.53374 9.04245 5.55646C9.03875 5.60223 9.02219 5.64904 8.99865 5.69154C8.9754 5.73372 8.94453 5.77204 8.90867 5.80115C8.89111 5.81539 8.87208 5.82746 8.85221 5.83634C8.84288 5.84069 8.83294 5.84414 8.82291 5.84643C8.81794 5.84779 8.813 5.84883 8.80805 5.84976C8.79913 5.85039 8.78913 5.85123 8.77836 5.85182C8.75317 5.88632 8.74654 5.89908 8.73638 5.92012C8.72721 5.93998 8.72018 5.96007 8.71525 5.97988C8.70534 6.01952 8.70255 6.05694 8.69888 6.09212C8.69288 6.16206 8.67734 6.22501 8.64349 6.27916C8.60995 6.3326 8.56709 6.37818 8.52099 6.4099C8.47448 6.44227 8.42706 6.46627 8.38403 6.48624C8.29738 6.52563 8.22631 6.55018 8.17797 6.56774L8.10505 6.59327L8.10367 6.59365C8.10367 6.59365 8.1042 6.59363 8.10505 6.59377C8.1108 6.59401 8.13559 6.59441 8.17448 6.60004C8.22008 6.60616 8.28326 6.62293 8.36315 6.64411C8.40353 6.6545 8.4484 6.66512 8.49996 6.66968C8.51289 6.67081 8.5263 6.67134 8.54015 6.67123C8.54681 6.67121 8.5539 6.67104 8.56073 6.67067C8.56408 6.67041 8.5686 6.67012 8.56885 6.67034L8.57832 6.67115C8.60568 6.67319 8.63442 6.67378 8.66299 6.67381L8.75214 6.67363L8.79711 6.67419L8.80864 6.67469C8.81339 6.67465 8.81103 6.67468 8.81253 6.67491L8.81627 6.67549C8.82364 6.6771 8.83028 6.68065 8.81682 6.68106L8.81168 6.68182L8.81081 6.68163L8.8103 6.68171L8.80567 6.68338L8.76848 6.69454C8.7196 6.7096 8.66883 6.72471 8.62598 6.72336L8.62071 6.72307L8.60888 6.72121L8.58512 6.71711L8.55013 6.76269L8.52975 6.79052C8.51666 6.80909 8.50412 6.82759 8.4917 6.84632C8.46739 6.8835 8.44464 6.92096 8.42312 6.95805C8.3807 7.03206 8.28946 7.18448 8.42758 7.21469C8.56868 7.24556 8.28946 7.18448 8.11855 7.53512C8.1169 7.53857 8.11488 7.54156 8.1132 7.5449C8.03094 7.56494 7.90584 7.65721 7.80872 7.74406C7.67783 7.72125 7.55555 7.64897 7.41569 7.67437C7.57897 7.69634 7.55442 7.84596 7.70473 7.84245C7.70462 7.84406 7.70449 7.84569 7.70433 7.8473C7.70059 7.85162 7.69662 7.85599 7.69337 7.85994C7.69595 7.86235 7.69837 7.86583 7.70076 7.86973C7.69993 7.87312 7.69945 7.87633 7.69852 7.87971C7.70195 7.882 7.7055 7.88411 7.70891 7.88646C7.71295 7.89607 7.71644 7.906 7.71913 7.9131C7.7294 7.91583 7.74079 7.91966 7.75289 7.92426C7.75167 7.93134 7.75008 7.93863 7.74741 7.94642C7.78438 7.98667 7.85614 8.00173 7.92577 8.01924C7.94765 8.03445 7.96933 8.05087 7.99033 8.06821C7.93088 8.32996 7.99346 8.80101 7.82253 8.90354C7.82698 8.95426 7.78919 9.01551 7.7832 9.06361C7.7581 9.06446 7.72836 9.05399 7.70589 9.04755C7.69343 9.08619 7.65899 9.1267 7.6488 9.16818C7.63939 9.10666 7.61163 9.06069 7.60923 8.99789C7.53682 9.1664 7.55222 9.41308 7.49352 9.59745C7.41688 9.66985 7.2914 9.7519 7.18376 9.76903C7.42489 9.84407 7.49634 10.1934 7.37665 10.4758C7.30358 10.6482 7.15387 10.8176 7.06751 11.0037C6.93643 11.2861 6.92209 11.2012 6.66972 11.2914C6.79662 11.3008 6.96047 11.2271 7.07135 11.2907C6.75801 11.8155 6.73304 12.5055 6.49338 13.0761C6.72422 12.543 6.86675 11.973 7.1567 11.4639C7.19896 11.3898 7.23549 11.326 7.27163 11.2625ZM10.8889 1.34872C10.8912 1.33633 10.8938 1.32238 10.8961 1.30942C10.8934 1.32926 10.8895 1.3546 10.8839 1.3852C10.8822 1.38689 10.885 1.37021 10.8889 1.34872Z"
        fill="white" />
    <path
        d="M7.27163 11.2625C7.30887 11.1971 7.34565 11.1322 7.38773 11.0566C7.42149 10.996 7.47665 10.9574 7.51163 10.8941C7.54706 10.83 7.55689 10.7205 7.5916 10.6675C7.67686 10.5371 7.83872 10.4773 7.94468 10.3748C8.06414 10.2593 7.99434 10.1607 8.21926 10.2263C8.19565 10.1568 8.15847 10.1266 8.07514 10.1136C8.17864 9.96697 8.18167 9.81769 8.24299 9.68519C8.31374 9.53229 8.43784 9.41531 8.49015 9.23745C8.69016 9.22641 8.8623 9.28312 9.05753 9.3272C8.98521 9.24874 8.92348 9.12277 8.83054 9.06478C8.84389 8.96464 8.79231 8.88164 8.71314 8.85644C8.71697 8.854 8.76002 8.84133 8.76094 8.84113C8.75905 8.69204 8.89006 8.28786 9.06948 8.30056C9.03466 8.1592 9.14682 8.08123 9.26681 8.1165C9.2936 8.04728 9.29927 7.97432 9.28197 7.91769C9.28631 7.83975 9.29013 7.75447 9.29442 7.665C9.29665 7.621 9.29907 7.57818 9.30267 7.53682L9.30436 7.51071L9.30404 7.50786C9.30431 7.50707 9.30536 7.50693 9.30636 7.50676L9.30717 7.50641L9.3135 7.50663L9.32866 7.50717C9.40867 7.50796 9.47997 7.49638 9.53922 7.48442C9.61274 7.46914 9.66828 7.45347 9.69965 7.44413C9.70383 7.44303 9.70729 7.44179 9.71012 7.44119C9.71904 7.43899 9.72507 7.43687 9.72737 7.4358C9.72762 7.43548 9.72762 7.43548 9.72762 7.43548L9.72706 7.43552C9.72246 7.43564 9.70344 7.43765 9.67335 7.44092C9.67281 7.44044 9.67201 7.44084 9.67117 7.44066C9.66675 7.441 9.66229 7.4408 9.65754 7.44039C9.63522 7.43848 9.60858 7.43354 9.57996 7.42174C9.56562 7.41588 9.55112 7.40871 9.53624 7.39981C9.53121 7.39662 9.52694 7.39354 9.52242 7.39028L9.51688 7.38556C9.51501 7.38397 9.51077 7.38245 9.51624 7.38099C9.522 7.37814 9.52741 7.3751 9.53214 7.37195C9.53518 7.36939 9.53549 7.36971 9.54121 7.36475L9.55938 7.34886C9.56637 7.34299 9.57339 7.33713 9.58322 7.33062L9.61922 7.3098L9.70019 7.26605L9.61886 7.27336C9.60311 7.27495 9.5892 7.27603 9.57528 7.27657C9.56371 7.27604 9.55162 7.27603 9.54344 7.27279L9.53656 7.27109C9.53496 7.27077 9.53422 7.27014 9.53317 7.26974C9.53099 7.26845 9.5289 7.26769 9.52707 7.26672C9.52248 7.26443 9.51848 7.26208 9.51505 7.25917C9.50733 7.2537 9.50039 7.24687 9.49425 7.23914C9.46906 7.20829 9.45603 7.1622 9.4494 7.11279C9.43649 7.0133 9.44617 6.89799 9.46477 6.77953C9.47627 6.70913 9.49044 6.6404 9.50753 6.57475C9.51617 6.54225 9.52564 6.50936 9.53595 6.48082C9.54654 6.45451 9.56456 6.4268 9.58226 6.40087C9.62532 6.33934 9.66961 6.28224 9.71022 6.22856C9.78669 6.18323 9.87844 6.11469 9.93632 6.07167C10.0375 6.17558 10.1582 5.9009 10.2595 6.08271C10.3401 5.99791 10.3897 6.06586 10.4772 6.06664C10.5826 6.06763 10.68 6.02757 10.7841 6.00536C10.578 6.02995 10.2941 6.07322 10.2813 5.83706C10.2772 5.87927 10.2428 5.92823 10.2283 5.96172C10.1731 5.88856 10.0064 5.96054 9.90813 5.94437C9.89292 5.94194 9.87833 5.9394 9.86378 5.93686C9.86179 5.9225 9.85548 5.91003 9.84681 5.90235C9.82577 5.88476 9.8037 5.88402 9.79052 5.88272C9.78002 5.88202 9.77344 5.88212 9.77059 5.88224C9.76981 5.88208 9.76925 5.88212 9.76925 5.88212C9.76925 5.88212 9.76925 5.88212 9.76954 5.88188L9.77016 5.88091C9.77629 5.87529 9.80791 5.84981 9.84911 5.79721C9.89627 5.73837 9.9496 5.64239 9.99653 5.51961C10.0202 5.45848 10.0972 5.33526 9.86857 5.27943C9.83395 5.27094 10.0979 5.24776 10.1144 5.21111L10.1204 5.1974C10.1227 5.19207 10.1246 5.19057 10.128 5.17972L10.1373 5.15024L10.1571 5.08996C10.1829 5.00798 10.2119 4.92027 10.2181 4.82289C10.2186 4.8106 10.2187 4.79841 10.218 4.78616C10.2169 4.77194 10.2171 4.76604 10.2158 4.75016C10.2129 4.72328 10.2034 4.69789 10.192 4.67664C10.1693 4.6336 10.1369 4.59878 10.1317 4.56689C10.1299 4.55567 10.1307 4.54568 10.1356 4.53397C10.1454 4.50908 10.4204 4.42028 10.4467 4.38781L10.1646 4.43587C10.1488 4.43695 10.132 4.43757 10.1131 4.44008C10.0868 4.44359 10.079 4.44462 10.0766 4.44471C10.0763 4.44447 10.0761 4.44476 10.0761 4.44476C10.0761 4.44476 10.0763 4.44447 10.0758 4.44454L10.0756 4.44486C10.0755 4.43917 10.0767 4.41728 10.0796 4.40133L10.0841 4.37094L10.0838 4.36868L10.0854 4.36847C10.0861 4.36857 10.084 4.36831 10.0953 4.36865C10.1117 4.36856 10.1295 4.36622 10.147 4.36C10.165 4.35365 10.1822 4.34366 10.1967 4.3298C10.2107 4.31597 10.2218 4.29924 10.228 4.28267C10.2412 4.24884 10.2399 4.21663 10.2341 4.18837C10.231 4.17447 10.2269 4.16134 10.2216 4.14888L10.2176 4.13985C10.2176 4.13985 10.217 4.13881 10.2168 4.13857L10.2146 4.13475C10.2156 4.13359 10.2165 4.13322 10.2185 4.13137L10.2284 4.12389L10.2611 4.09828C10.2824 4.08147 10.3031 4.06519 10.3234 4.05064C10.3642 4.02113 10.4046 3.99687 10.4448 3.98427C10.477 3.97221 10.508 3.96726 10.5377 3.96563C10.6383 3.93471 10.7413 3.91525 10.8446 3.905C10.8419 3.90267 10.8384 3.90002 10.8349 3.89728C10.7628 3.90228 10.6919 3.8937 10.6226 3.87782C10.6208 3.8786 10.6187 3.87946 10.6158 3.88064C10.5462 3.90743 10.4736 3.88729 10.4341 3.83601C10.4275 3.83613 10.421 3.83627 10.4143 3.8363C10.3964 3.83599 10.3783 3.83557 10.3599 3.83445C10.3507 3.83386 10.3417 3.83248 10.3325 3.83191L10.3186 3.82989L10.3127 3.82852L10.3074 3.8272C10.3053 3.82694 10.3032 3.82669 10.3056 3.82301L10.3119 3.808C10.3131 3.80543 10.3185 3.79103 10.322 3.7818L10.3336 3.75073C10.3635 3.66666 10.3906 3.57524 10.4141 3.47916C10.462 3.28638 10.4936 3.07372 10.5337 2.85292C10.5537 2.74274 10.5756 2.63577 10.6029 2.53322C10.6296 2.43177 10.6644 2.3329 10.6928 2.23799C10.7518 2.04883 10.8008 1.87682 10.8345 1.73178C10.8685 1.58635 10.8867 1.46762 10.8947 1.38607C10.9001 1.33361 10.9014 1.29706 10.9016 1.27717C10.9031 1.26737 10.9034 1.26175 10.9017 1.26448C10.8865 1.28695 10.8326 1.4676 10.8137 1.51442C10.7947 1.56121 10.6831 1.84236 10.6596 1.90931C10.5789 2.06903 10.5771 2.2352 10.4813 2.46073C10.4586 2.51716 10.3076 2.58835 10.2988 2.65237C10.2944 2.68439 10.2933 2.71757 10.2973 2.75051L10.299 2.76213L10.2991 2.7632C10.2993 2.76339 10.2986 2.76379 10.2983 2.76409L10.282 2.78101C10.2761 2.78722 10.2702 2.79403 10.2645 2.80046C10.1724 2.90724 10.1166 3.03733 10.0631 3.16282C10.0323 3.23481 10.0018 3.30567 9.96194 3.36604C9.94202 3.39621 9.91934 3.42349 9.89395 3.44555C9.88669 3.45168 9.88276 3.45506 9.8721 3.46249C9.8641 3.468 9.85624 3.4726 9.84797 3.47791C9.83806 3.48229 9.8302 3.48698 9.81844 3.49139L9.65906 3.54835C9.71018 3.55346 9.79138 3.5579 9.84379 3.56515C9.85723 3.56728 9.86942 3.56981 9.8805 3.5735C9.88944 3.57589 9.89207 3.57709 9.8979 3.57947C9.90793 3.58328 9.9173 3.58804 9.9258 3.59363C9.9605 3.61516 9.97662 3.6516 9.97495 3.69407C9.97328 3.7365 9.95687 3.78142 9.93652 3.82293C9.9156 3.86451 9.89027 3.90392 9.863 3.94076C9.75199 4.08778 9.62234 4.19671 9.50816 4.27223C9.39322 4.3481 9.29028 4.38819 9.21855 4.4019C9.15639 4.41408 9.11878 4.41053 9.10935 4.40972C9.1085 4.40955 9.10795 4.40963 9.10778 4.40944L9.1075 4.40972C9.10766 4.40986 9.10801 4.41067 9.10957 4.41199C9.11817 4.42225 9.15059 4.46123 9.20722 4.51945C9.2417 4.55292 9.28495 4.5938 9.34802 4.62575C9.37933 4.64181 9.41576 4.65413 9.45654 4.66079C9.47666 4.66386 9.5003 4.66529 9.51974 4.66479C9.53107 4.66511 9.54178 4.66442 9.55148 4.66341C9.5559 4.6615 9.55055 4.66621 9.54948 4.66789L9.54353 4.67462L9.53189 4.68677L9.48744 4.73305C9.4523 4.76833 9.41421 4.80416 9.37485 4.84157C9.33555 4.87887 9.29458 4.91753 9.25403 4.95994C9.2338 4.98121 9.21376 5.00364 9.19441 5.02714L9.1869 5.03614L9.17558 5.05065C9.16804 5.06013 9.16016 5.0714 9.15246 5.08221C9.13756 5.10388 9.12185 5.12639 9.10772 5.14826L9.19507 5.1394L9.23419 5.13654L9.25736 5.13557L9.35163 5.13259L9.4481 5.12992C9.44942 5.12994 9.45046 5.13039 9.45104 5.13028C9.44995 5.13092 9.44884 5.13153 9.44841 5.13168L9.40521 5.16223C9.35845 5.19438 9.31008 5.22517 9.26003 5.25458C9.21993 5.27803 9.17984 5.30047 9.13941 5.32169L9.07888 5.35299L8.97702 5.40308L9.00402 5.43341C9.00886 5.43849 9.01342 5.4439 9.01687 5.4488C9.02036 5.45329 9.02498 5.46118 9.02522 5.46189C9.03037 5.4708 9.03417 5.48064 9.03701 5.4907C9.0426 5.51119 9.04396 5.53374 9.04245 5.55646C9.03875 5.60223 9.02219 5.64904 8.99865 5.69154C8.9754 5.73372 8.94453 5.77204 8.90867 5.80115C8.89111 5.81539 8.87208 5.82746 8.85221 5.83634C8.84288 5.84069 8.83294 5.84414 8.82291 5.84643C8.81794 5.84779 8.813 5.84883 8.80805 5.84976C8.79913 5.85039 8.78913 5.85123 8.77836 5.85182C8.75317 5.88632 8.74654 5.89908 8.73638 5.92012C8.72721 5.93998 8.72018 5.96007 8.71525 5.97988C8.70534 6.01952 8.70255 6.05694 8.69888 6.09212C8.69288 6.16206 8.67734 6.22501 8.64349 6.27916C8.60995 6.3326 8.56709 6.37818 8.52099 6.4099C8.47448 6.44227 8.42706 6.46627 8.38403 6.48624C8.29738 6.52563 8.22631 6.55018 8.17797 6.56774L8.10505 6.59327L8.10367 6.59365C8.10367 6.59365 8.1042 6.59363 8.10505 6.59377C8.1108 6.59401 8.13559 6.59441 8.17448 6.60004C8.22008 6.60616 8.28326 6.62293 8.36315 6.64411C8.40353 6.6545 8.4484 6.66512 8.49996 6.66968C8.51289 6.67081 8.52629 6.67134 8.54015 6.67123C8.54681 6.67121 8.5539 6.67104 8.56073 6.67067C8.56408 6.67041 8.5686 6.67012 8.56884 6.67034L8.57832 6.67115C8.60568 6.67319 8.63442 6.67378 8.66299 6.67381L8.75214 6.67363L8.79711 6.67419L8.80864 6.67469C8.81339 6.67465 8.81103 6.67468 8.81253 6.67491L8.81627 6.67549C8.82364 6.6771 8.83028 6.68065 8.81682 6.68106L8.81168 6.68182L8.81081 6.68163L8.8103 6.68171L8.80567 6.68338L8.76848 6.69454C8.7196 6.7096 8.66883 6.72471 8.62598 6.72336L8.62071 6.72307L8.60888 6.72121L8.58512 6.71711L8.55013 6.76269L8.52975 6.79052C8.51666 6.80909 8.50412 6.82759 8.4917 6.84632C8.46739 6.8835 8.44464 6.92096 8.42312 6.95805C8.3807 7.03206 8.28946 7.18448 8.42758 7.21469C8.56868 7.24556 8.28946 7.18448 8.11855 7.53512C8.1169 7.53857 8.11488 7.54156 8.1132 7.5449C8.03094 7.56494 7.90584 7.65721 7.80872 7.74406C7.67783 7.72125 7.55555 7.64897 7.41569 7.67437C7.57897 7.69634 7.55442 7.84596 7.70473 7.84245C7.70462 7.84406 7.70449 7.84569 7.70433 7.8473C7.70059 7.85162 7.69662 7.85599 7.69337 7.85994C7.69594 7.86235 7.69837 7.86583 7.70076 7.86973C7.69993 7.87312 7.69945 7.87633 7.69852 7.87971C7.70195 7.882 7.7055 7.88411 7.70891 7.88646C7.71295 7.89607 7.71644 7.906 7.71913 7.9131C7.7294 7.91583 7.74079 7.91966 7.75289 7.92426C7.75167 7.93134 7.75008 7.93863 7.74741 7.94642C7.78438 7.98667 7.85614 8.00173 7.92577 8.01924C7.94765 8.03445 7.96933 8.05087 7.99033 8.06821C7.93088 8.32996 7.99346 8.80101 7.82253 8.90354C7.82698 8.95426 7.78919 9.01551 7.7832 9.06361C7.7581 9.06446 7.72836 9.05399 7.70589 9.04755C7.69343 9.08619 7.65899 9.1267 7.6488 9.16818C7.63939 9.10666 7.61163 9.06069 7.60923 8.99789C7.53682 9.1664 7.55222 9.41308 7.49352 9.59745C7.41688 9.66985 7.2914 9.7519 7.18376 9.76903C7.42489 9.84407 7.49634 10.1934 7.37665 10.4758C7.30358 10.6482 7.15387 10.8176 7.06751 11.0037C6.93643 11.2861 6.92209 11.2012 6.66972 11.2914C6.79662 11.3008 6.96047 11.2271 7.07135 11.2907C6.75801 11.8155 6.73304 12.5055 6.49338 13.0761C6.72422 12.543 6.86675 11.973 7.1567 11.4639C7.19896 11.3898 7.23549 11.326 7.27163 11.2625ZM10.8889 1.34872C10.8912 1.33633 10.8938 1.32238 10.8961 1.30942C10.8934 1.32926 10.8895 1.3546 10.8839 1.3852C10.8822 1.38689 10.885 1.37021 10.8889 1.34872Z"
        stroke="black" stroke-width="0.2" stroke-miterlimit="10" />
    <path
        d="M12.4257 17.5546C12.4257 17.5546 13.3977 17.4812 13.4169 17.2902C13.4408 17.0535 12.4238 16.9526 12.4238 16.9526L12.4257 17.5546Z"
        fill="#7A796E" />
    <path
        d="M12.1135 14.8003C12.1135 14.8003 12.9686 14.3326 12.9074 14.1507C12.8315 13.9252 11.8635 14.2527 11.8635 14.2527L12.1135 14.8003Z"
        fill="#7A796E" />
    <path
        d="M6.17407 12.7092C6.17407 12.7092 5.99577 11.7509 6.17546 11.6833C6.39815 11.5995 6.75645 12.5566 6.75645 12.5566L6.17407 12.7092Z"
        fill="#7A796E" />
    <path
        d="M8.91657 12.3056C8.91657 12.3056 9.1493 11.359 9.34086 11.3716C9.57827 11.3871 9.51003 12.4068 9.51003 12.4068L8.91657 12.3056Z"
        fill="#7A796E" />
    <path
        d="M12.5376 17.775C12.0568 18.9394 10.5338 17.9796 10.1442 18.3699C9.75474 18.7602 6.00976 24.8694 6.00976 24.8694L0.72572 20.7485C0.72572 20.7485 5.70695 15.5974 5.98766 15.1228C6.26835 14.6482 4.95881 13.4128 5.96641 12.6567C7.22194 11.7145 7.95094 13.0489 7.95094 13.0489C7.95094 13.0489 8.34208 11.8116 9.41391 12.1799C10.2885 12.4805 10.4825 13.4687 10.4541 13.6746C10.6667 13.5939 11.5383 13.5046 12.1163 14.1863C12.8357 15.0347 11.6625 15.9512 11.6625 15.9512C11.6625 15.9512 13.1367 16.324 12.5376 17.775Z"
        fill="#AAA897" />
    <path
        d="M9.40827 15.0712C8.63785 14.4532 7.45667 14.4721 7.53693 15.2028C7.6172 15.9335 8.27913 15.5982 8.7293 15.9592C9.15505 16.3007 9.0366 16.9054 9.59667 16.9548C10.1567 17.0042 10.2801 15.7704 9.40827 15.0712Z"
        fill="#2D2B2C" />
    <path
        d="M7.06095 13.1965C6.95709 12.9019 6.74706 12.7807 6.54369 12.8607C6.29363 12.959 6.31014 13.2542 6.42458 13.5253C6.53902 13.7965 6.75456 13.9364 6.92579 13.8658C7.09703 13.7953 7.1648 13.491 7.06095 13.1965Z"
        fill="#2D2B2C" />
    <path
        d="M9.14583 13.8126C9.33096 13.8181 9.51698 13.5679 9.54236 13.2567C9.56774 12.9454 9.42544 12.749 9.20713 12.7391C8.93871 12.7268 8.83335 13.003 8.82718 13.2972C8.82101 13.5914 8.9607 13.8071 9.14583 13.8126Z"
        fill="#2D2B2C" />
    <path
        d="M12.072 17.2135C12.0842 16.9953 11.9032 16.8338 11.591 16.8275C11.2788 16.8212 11.011 16.9809 10.9977 17.1656C10.9844 17.3503 11.1847 17.5112 11.4781 17.5349C11.7714 17.5586 12.0569 17.4818 12.072 17.2135Z"
        fill="#2D2B2C" />
    <path
        d="M11.5347 14.5489C11.4568 14.3447 11.2257 14.2711 10.9381 14.3927C10.6504 14.5144 10.4712 14.7695 10.5344 14.9435C10.5976 15.1176 10.8462 15.1827 11.1237 15.0846C11.4011 14.9866 11.6304 14.8 11.5347 14.5489Z"
        fill="#2D2B2C" />
    <path
        d="M9.26842 19.6231C8.56187 19.467 7.02366 20.5032 6.03248 20.006C4.91323 19.4446 5.00181 18.219 3.90118 17.6623C3.85061 17.6367 3.79869 17.6135 3.74566 17.5922C2.31267 19.1073 0.725472 20.7486 0.725472 20.7486L6.00951 24.8694C6.00951 24.8694 8.0919 21.4864 9.26842 19.6231Z"
        fill="#2D2B2C" />
    <path
        d="M8.68637 14.9038C8.19559 14.7706 7.83364 14.9148 7.85756 15.1325C7.88182 15.3533 8.36474 15.131 8.64358 15.2666C8.90548 15.3939 9.2819 15.6591 9.39309 15.5699C9.57873 15.421 9.21635 15.0476 8.68637 14.9038Z"
        fill="#AAA897" />
    <path
        d="M6.52771 13.0028C6.40803 13.0253 6.42464 13.2004 6.44475 13.3155C6.4615 13.4115 6.49901 13.5469 6.58984 13.538C6.68067 13.529 6.66044 13.3823 6.66403 13.2884C6.66763 13.1945 6.62546 12.9845 6.52771 13.0028Z"
        fill="#AAA897" />
    <path
        d="M9.20536 12.855C9.08986 12.8165 9.01927 12.9775 8.98083 13.0878C8.94879 13.1799 8.91567 13.3165 8.99938 13.3528C9.0831 13.3892 9.13679 13.2511 9.1856 13.1708C9.23441 13.0905 9.2997 12.8865 9.20536 12.855Z"
        fill="#AAA897" />
    <path
        d="M11.3951 14.5296C11.3649 14.4117 11.1913 14.4397 11.0777 14.4673C10.983 14.4903 10.8504 14.5366 10.8652 14.6266C10.8801 14.7167 11.0252 14.6869 11.1191 14.6843C11.213 14.6818 11.4199 14.6259 11.3951 14.5296Z"
        fill="#AAA897" />
    <path
        d="M11.9628 17.1337C11.969 17.0121 11.795 16.9871 11.6784 16.9795C11.5812 16.9733 11.4407 16.9779 11.428 17.0683C11.4153 17.1586 11.5627 17.1735 11.6531 17.1991C11.7436 17.2246 11.9577 17.233 11.9628 17.1337Z"
        fill="#AAA897" />
</svg>