<svg width="56" height="56" viewBox="0 0 56 56" fill="none" xmlns="http://www.w3.org/2000/svg">
<path d="M23.0607 37.1851H21.3533V15.6582L23.0607 18.2172V37.1851Z" fill="#717374"/>
<path d="M35.8678 40.4336L34.1562 37.8788V18.2172L35.8678 15.6582V40.4336Z" fill="#717374"/>
<path d="M22.8752 17.9232L21.4528 18.875L34.4473 38.2955L35.8697 37.3437L22.8752 17.9232Z" fill="#717374"/>
<path d="M29.4955 25.1612L30.5257 26.6983L35.8514 18.7638L34.4265 17.8125L29.4955 25.1612Z" fill="#717374"/>
<path d="M19.1018 43.6487C21.7272 45.1442 24.7639 46 28 46C37.9409 46 46 37.9409 46 28C46 18.0591 37.9409 10 28 10C18.0591 10 10 18.0591 10 28C10 33.8781 12.8165 39.0999 17.1742 42.3817L17.3487 42.5147L18.3748 41.1147L18.2169 40.9942C14.2788 38.024 11.7323 33.309 11.7323 27.9958C11.7323 19.0104 19.0145 11.7281 28 11.7281C36.9855 11.7281 44.2677 19.0104 44.2677 27.9958C44.2677 36.9813 36.9855 44.2636 28 44.2636C25.0755 44.2636 22.3296 43.4909 19.9617 42.1408L19.1018 43.6487Z" fill="#717374"/>
</svg>
