<svg width="183" height="56" viewBox="0 0 183 56" fill="none" xmlns="http://www.w3.org/2000/svg">
<path d="M59.2646 19.6304L66.7964 36.6836H63.3174L61.5474 32.5332H53.9668L52.3188 36.6836H48.8643L55.8955 19.6304H59.2646ZM54.9678 30.0308H60.4731L57.5923 23.2803L54.9678 30.0308ZM71.7769 19.6304L77.3799 26.3564L82.9829 19.6304H85.9248V36.6836H82.6289V24.7085H82.5312L77.5996 30.7144H77.1357L72.2041 24.7085H72.1064V36.6836H68.8105V19.6304H71.7769ZM95.9346 19.6304C97.4971 19.6304 98.7707 20.0373 99.7554 20.8511C100.74 21.6649 101.232 22.6821 101.232 23.9028C101.232 24.6841 101.025 25.3717 100.61 25.9658C100.203 26.5599 99.6089 27.0319 98.8276 27.3818V27.5283C100.016 27.7969 100.939 28.3299 101.599 29.1274C102.266 29.9168 102.6 30.8446 102.6 31.9106C102.6 32.8547 102.355 33.701 101.867 34.4497C101.387 35.1903 100.716 35.7477 99.853 36.1221C98.9985 36.4964 97.9894 36.6836 96.8257 36.6836H89.6846V19.6304H95.9346ZM95.0557 26.7104C95.9264 26.7104 96.6141 26.5029 97.1187 26.0879C97.6232 25.6729 97.8755 25.0951 97.8755 24.3545C97.8755 23.6953 97.6436 23.1745 97.1797 22.792C96.7158 22.4014 96.1055 22.2061 95.3486 22.2061H92.9805V26.7104H95.0557ZM95.8247 34.1079C96.9396 34.1079 97.7819 33.9004 98.3516 33.4854C98.9212 33.0622 99.2061 32.4437 99.2061 31.6299C99.2061 30.9056 98.9212 30.3359 98.3516 29.9209C97.79 29.4977 97.0332 29.2861 96.0811 29.2861H92.9805V34.1079H95.8247ZM108.752 19.6304V36.6836H105.456V19.6304H108.752ZM126.733 19.6304V22.2061H120.678V36.6836H117.382V22.2061H111.328V19.6304H126.733ZM132.604 19.6304V36.6836H129.309V19.6304H132.604ZM145.178 19.4106C146.944 19.4106 148.531 19.7769 149.938 20.5093C151.354 21.2336 152.482 22.2834 153.32 23.6587C154.158 25.0259 154.577 26.5273 154.577 28.1631C154.577 29.7581 154.166 31.2393 153.344 32.6064C152.53 33.9655 151.407 35.0234 149.975 35.7803C148.551 36.529 146.944 36.9033 145.153 36.9033C143.387 36.9033 141.78 36.5208 140.332 35.7559C138.891 34.9909 137.768 33.9411 136.962 32.6064C136.157 31.2637 135.754 29.7826 135.754 28.1631C135.754 26.6006 136.157 25.1317 136.962 23.7563C137.768 22.381 138.879 21.3149 140.295 20.5581C141.711 19.7931 143.339 19.4106 145.178 19.4106ZM139.16 28.1631C139.16 29.2943 139.416 30.3115 139.929 31.2148C140.441 32.1182 141.153 32.818 142.065 33.3145C142.985 33.8109 144.022 34.0591 145.178 34.0591C146.927 34.0591 148.364 33.5098 149.487 32.4111C150.618 31.3125 151.184 29.8965 151.184 28.1631C151.184 27.0319 150.927 26.0146 150.415 25.1113C149.91 24.1999 149.194 23.4959 148.266 22.9995C147.347 22.5031 146.309 22.2549 145.153 22.2549C143.998 22.2549 142.956 22.5072 142.028 23.0117C141.109 23.5081 140.401 24.208 139.904 25.1113C139.408 26.0065 139.16 27.0238 139.16 28.1631ZM160.571 19.6304L170.703 31.5322V19.6304H173.925V36.6836H171.093L160.9 24.5864V36.6836H157.678V19.6304H160.571Z" fill="#717374"/>
<path d="M18.4154 37.1851H16.708V15.6582L18.4154 18.2172V37.1851Z" fill="#717374"/>
<path d="M31.2223 40.4336L29.5107 37.8788V18.2172L31.2223 15.6582V40.4336Z" fill="#717374"/>
<path d="M18.2296 17.9232L16.8071 18.875L29.8016 38.2955L31.2241 37.3437L18.2296 17.9232Z" fill="#717374"/>
<path d="M24.8501 25.1632L25.8803 26.7002L31.206 18.7658L29.7811 17.8145L24.8501 25.1632Z" fill="#717374"/>
<path d="M14.4563 43.6487C17.0817 45.1442 20.1184 46 23.3545 46C33.2954 46 41.3545 37.9409 41.3545 28C41.3545 18.0591 33.2954 10 23.3545 10C13.4136 10 5.35449 18.0591 5.35449 28C5.35449 33.8781 8.17102 39.0999 12.5287 42.3817L12.7032 42.5147L13.7293 41.1147L13.5714 40.9942C9.63328 38.024 7.08678 33.309 7.08678 27.9958C7.08678 19.0104 14.369 11.7281 23.3545 11.7281C32.3399 11.7281 39.6222 19.0104 39.6222 27.9958C39.6222 36.9813 32.3399 44.2636 23.3545 44.2636C20.43 44.2636 17.6841 43.4909 15.3162 42.1408L14.4563 43.6487Z" fill="#717374"/>
</svg>
