<svg width="139" height="104" viewBox="0 0 139 104" fill="none" xmlns="http://www.w3.org/2000/svg">
<g filter="url(#filter0_d_3927_40812)">
<rect x="4" y="4" width="246" height="96" rx="16" fill="white" fill-opacity="0.1" shape-rendering="crispEdges"/>
<path fill-rule="evenodd" clip-rule="evenodd" d="M138.742 41.5058C137.687 40.6207 136.084 39.9047 133.979 39.3782L129.179 38.1749C127.342 37.7184 126.125 37.3161 125.564 36.9791C124.703 36.4813 124.284 35.7518 124.284 34.7485C124.284 33.649 124.711 32.8142 125.589 32.1983C126.472 31.5793 127.674 31.2657 129.161 31.2657C130.499 31.2657 131.633 31.5086 132.532 31.9869C133.73 32.6315 134.415 33.6385 134.626 35.0636H140.323C140.115 32.2141 139.023 29.991 137.073 28.4537C135.007 26.8255 132.479 26.0005 129.559 26.0005C126.061 26.0005 123.368 26.8774 121.557 28.6079C119.74 30.3437 118.818 32.5562 118.818 35.1825C118.818 38.0636 119.763 40.2123 121.627 41.5683C122.719 42.3737 124.747 43.128 127.654 43.8109L130.616 44.5021C132.333 44.8924 133.602 45.3466 134.388 45.852C135.162 46.3627 135.538 47.0606 135.538 47.9864C135.538 49.5921 134.76 50.6622 133.157 51.2571C132.311 51.5677 131.191 51.7257 129.829 51.7257C127.566 51.7257 125.95 51.133 125.024 49.9636C124.7 49.5522 124.369 48.7685 124.248 48.2782L124.236 48.2338C124.207 48.115 124.173 47.9796 124.156 47.8503C124.127 47.6442 124.102 47.2779 124.099 47.1674H118.37C118.369 47.3419 118.391 47.763 118.402 47.8999C118.402 47.8999 118.415 48.0857 118.421 48.1391C118.644 50.6848 119.682 52.7507 121.506 54.2797C123.575 56.0139 126.45 56.8931 130.053 56.8931C133.581 56.8931 136.354 55.9997 138.292 54.2376C140.239 52.4687 141.226 50.2125 141.226 47.5329C141.226 44.9165 140.391 42.8889 138.742 41.5058Z" fill="#00A161"/>
<path fill-rule="evenodd" clip-rule="evenodd" d="M99.4243 44.6381C98.6083 43.9364 97.3854 43.3731 95.7888 42.964L92.2578 42.0562C90.6153 41.6373 89.9542 41.3553 89.6858 41.1899C89.1631 40.8808 88.9194 40.4476 88.9194 39.8286C88.9194 39.1217 89.1766 38.6073 89.7286 38.2102C90.3213 37.7845 91.1418 37.5687 92.1668 37.5687C93.0971 37.5687 93.8793 37.7379 94.4907 38.0718C95.2917 38.5133 95.7406 39.2134 95.8625 40.2107L95.8903 40.4325H100.737L100.721 40.1595C100.583 37.8432 99.7311 36.0359 98.1886 34.7883C96.6093 33.512 94.6817 32.8652 92.4594 32.8652C89.8001 32.8652 87.7439 33.5586 86.3481 34.9266C84.9372 36.3082 84.222 38.068 84.222 40.1558C84.222 42.4563 84.9658 44.1778 86.4316 45.2713C87.2716 45.9061 88.8036 46.4949 90.9853 47.0206L93.1648 47.5418C94.3907 47.8276 95.2879 48.1547 95.8309 48.512C96.2994 48.8286 96.5175 49.2422 96.5175 49.8115C96.5175 50.8629 96.0332 51.5368 94.9938 51.9324C94.4072 52.1535 93.6213 52.2655 92.6579 52.2655C91.0989 52.2655 89.9979 51.8624 89.3849 51.069C89.2511 50.8945 89.1337 50.6764 89.0337 50.4177C88.9871 50.2966 88.9412 50.1552 88.9202 50.0123C88.8908 49.8153 88.8713 49.604 88.881 49.4558H83.9294C83.9317 49.4851 83.9242 49.7213 83.9445 50.0281C83.9558 50.2071 83.9753 50.3816 84.0016 50.5538C84.2701 52.3061 85.0485 53.7448 86.327 54.8436C87.9094 56.2041 90.0949 56.8945 92.8226 56.8945C95.5015 56.8945 97.6148 56.1906 99.1039 54.803C100.613 53.3959 101.379 51.6015 101.379 49.4693C101.379 47.3794 100.721 45.7541 99.4243 44.6381Z" fill="#00A161"/>
<mask id="mask0_3927_40812" style="mask-type:luminance" maskUnits="userSpaceOnUse" x="36" y="26" width="182" height="51">
<path d="M36 76.9149H217.355V26H36V76.9149Z" fill="#00A161"/>
</mask>
<g mask="url(#mask0_3927_40812)">
<path fill-rule="evenodd" clip-rule="evenodd" d="M112.088 26.0005L106.367 29.4329V33.4377H102.934V38.014H106.367V51.5C106.367 54.1631 108.525 56.3208 111.188 56.3208H115.52V51.1721H113.401C112.676 51.1721 112.088 50.5848 112.088 49.859V38.014H115.52V33.4377H112.088V26.0005Z" fill="#00A161"/>
</g>
<mask id="mask1_3927_40812" style="mask-type:luminance" maskUnits="userSpaceOnUse" x="36" y="26" width="182" height="51">
<path d="M36 76.9149H217.355V26H36V76.9149Z" fill="#00A161"/>
</mask>
<g mask="url(#mask1_3927_40812)">
<path fill-rule="evenodd" clip-rule="evenodd" d="M49.4375 51.7444H41.7206V43.1633H42.1109H48.8607H48.8652C48.8652 43.1633 48.8675 43.1633 48.869 43.1633H49.3495C51.5448 43.1633 53.5589 44.9472 53.7168 47.1365C53.8973 49.6492 51.9126 51.7444 49.4375 51.7444ZM41.7206 31.1491H48.8652C51.0312 31.1491 52.7639 32.9999 52.5691 35.2057C52.3992 37.1363 50.7198 38.5863 48.7817 38.5863H41.8845H41.7206V31.1491ZM55.5248 40.5078C56.898 39.0277 57.7396 37.046 57.7396 34.868C57.7396 30.2865 54.0251 26.5728 49.4443 26.5728H49.442H41.7206H36.0004V31.1491V38.5863V43.1633V51.7444V56.3207H41.7206H50.0151C54.9126 56.3207 58.8835 52.3513 58.8835 47.4539C58.8835 44.6389 57.5704 42.1322 55.5248 40.5078Z" fill="#00A161"/>
</g>
<mask id="mask2_3927_40812" style="mask-type:luminance" maskUnits="userSpaceOnUse" x="36" y="26" width="182" height="51">
<path d="M36 76.9149H217.355V26H36V76.9149Z" fill="#00A161"/>
</mask>
<g mask="url(#mask2_3927_40812)">
<path fill-rule="evenodd" clip-rule="evenodd" d="M76.0463 42.5917H66.8929V42.0194C66.8929 41.9246 66.8959 41.8314 66.9019 41.7381C66.9027 41.7306 66.9034 41.7223 66.9042 41.714C66.9102 41.6238 66.9185 41.5351 66.9298 41.4471C67.0373 40.5874 67.3825 39.8015 67.8977 39.1585C68.1067 38.8976 68.3436 38.6614 68.6039 38.4516C68.6069 38.4493 68.6106 38.4463 68.6136 38.4433C68.673 38.3959 68.734 38.3501 68.7949 38.3057C68.8047 38.2989 68.8144 38.2929 68.8235 38.2861C68.8799 38.2455 68.9378 38.2072 68.9964 38.1696C69.0085 38.1613 69.0205 38.1538 69.0325 38.1462C69.0904 38.1094 69.1491 38.074 69.2093 38.0402C69.2206 38.0334 69.2318 38.0267 69.2439 38.0199C69.3093 37.9838 69.3755 37.9492 69.4432 37.9154C69.4484 37.9124 69.4544 37.9093 69.4597 37.9071C69.6086 37.8341 69.7613 37.7687 69.9185 37.7123C69.932 37.7078 69.9463 37.7033 69.9598 37.698C70.0223 37.677 70.0847 37.6559 70.1478 37.6371C70.1719 37.6296 70.1967 37.6228 70.2216 37.616C70.2749 37.601 70.3283 37.5867 70.3825 37.5732C70.4111 37.5664 70.4404 37.5596 70.4697 37.5536C70.5209 37.5416 70.572 37.5318 70.6239 37.522C70.6547 37.516 70.6856 37.51 70.7164 37.5055C70.7683 37.4965 70.8202 37.4889 70.8728 37.4822C70.9029 37.4784 70.9338 37.4739 70.9646 37.4709C71.021 37.4641 71.0782 37.4604 71.1353 37.4558C71.1624 37.4543 71.1887 37.4513 71.2158 37.4498C71.3 37.4453 71.3842 37.4423 71.4692 37.4423C73.9969 37.4423 76.0463 39.4917 76.0463 42.0194V42.5917ZM71.4692 32.8652C71.3173 32.8652 71.1661 32.8697 71.0157 32.8773C70.9691 32.8795 70.9232 32.8825 70.8774 32.8848C70.7706 32.8916 70.6638 32.8998 70.5585 32.9096C70.5088 32.9141 70.46 32.9186 70.4103 32.9239C70.296 32.9359 70.1824 32.951 70.0696 32.9675C70.035 32.972 70.0004 32.9758 69.9666 32.9818C69.8222 33.0036 69.6786 33.0292 69.5372 33.0585C69.4981 33.066 69.4597 33.0751 69.4206 33.0833C69.3161 33.1059 69.2123 33.13 69.1085 33.1555C69.0581 33.1683 69.0085 33.1811 68.9581 33.1946C68.8626 33.2202 68.7678 33.2473 68.673 33.2759C68.6272 33.2894 68.5798 33.3029 68.5339 33.318C68.4 33.3593 68.2677 33.4045 68.1368 33.4518C68.109 33.4616 68.0827 33.4729 68.0548 33.4834C67.9488 33.5233 67.8435 33.5647 67.7397 33.6075C67.6878 33.6293 67.6375 33.6519 67.5863 33.6737C67.5058 33.7091 67.4261 33.7452 67.3472 33.782C67.2938 33.8068 67.2404 33.8324 67.1877 33.858C67.1057 33.8986 67.0245 33.9407 66.944 33.9828C66.8989 34.0069 66.853 34.0294 66.8087 34.0543C66.6936 34.1167 66.58 34.1821 66.4687 34.249C66.4146 34.2814 66.3619 34.3152 66.3093 34.3483C66.2446 34.3897 66.1799 34.4303 66.116 34.4724C66.0581 34.5108 66.0017 34.5491 65.9446 34.5882C65.8866 34.6288 65.8295 34.6702 65.7716 34.7116C65.7152 34.7529 65.658 34.7928 65.6024 34.8356C65.5414 34.8823 65.4813 34.9297 65.4211 34.9785C65.3248 35.0545 65.2308 35.132 65.1383 35.2117C65.0917 35.2515 65.0451 35.2914 64.9992 35.332C64.9398 35.3854 64.8819 35.4388 64.824 35.4937C64.7826 35.5321 64.742 35.5712 64.7014 35.6103C64.642 35.6682 64.5833 35.7253 64.5262 35.784C64.4923 35.8186 64.4592 35.8539 64.4261 35.8885C64.2968 36.0239 64.1719 36.1623 64.0516 36.3052C64.0396 36.3187 64.0275 36.3315 64.0163 36.3458C63.9576 36.4157 63.9004 36.4872 63.8433 36.5594C63.8162 36.594 63.7891 36.6278 63.7621 36.6624C63.7064 36.7346 63.6523 36.8076 63.5989 36.8813C63.5755 36.9136 63.5522 36.9459 63.5289 36.979C63.3477 37.2355 63.1785 37.501 63.0213 37.7747C63.007 37.8003 62.9919 37.8251 62.9777 37.8507C62.9303 37.9357 62.8844 38.0222 62.8393 38.1086C62.8227 38.141 62.8062 38.1733 62.7896 38.2057C62.7453 38.2936 62.7009 38.3831 62.6588 38.4734C62.6513 38.4899 62.6437 38.5065 62.6362 38.5238C62.5399 38.7314 62.4505 38.9427 62.3692 39.1578V39.1585C62.0331 40.0482 61.8247 40.9996 61.7646 41.9916C61.7638 42.0013 61.7623 42.0119 61.7623 42.0216C61.751 42.2104 61.7443 42.3992 61.7443 42.591V47.168C61.7443 52.5393 66.0987 56.893 71.4692 56.893C71.6219 56.893 71.7731 56.8885 71.9235 56.8817C71.9694 56.8795 72.016 56.8764 72.0619 56.8734C72.1687 56.8674 72.2747 56.8592 72.3807 56.8494C72.4304 56.8449 72.4793 56.8403 72.5289 56.8351C72.6425 56.8223 72.7568 56.808 72.8696 56.7915C72.9034 56.7862 72.938 56.7824 72.9726 56.7772C73.117 56.7546 73.2599 56.729 73.402 56.7005C73.4411 56.6929 73.4795 56.6832 73.5179 56.6749C73.6231 56.6523 73.7269 56.629 73.8307 56.6027C73.8811 56.5907 73.9307 56.5771 73.9804 56.5643C74.0759 56.5388 74.1714 56.5117 74.2654 56.4831C74.312 56.4688 74.3587 56.456 74.4053 56.441C74.5384 56.3989 74.6715 56.3545 74.8024 56.3064C74.8295 56.2966 74.8565 56.2853 74.8836 56.2755C74.9897 56.2357 75.0949 56.1943 75.1995 56.1507C75.2506 56.1296 75.3018 56.1071 75.3529 56.0845C75.4334 56.0499 75.5123 56.0138 75.5921 55.9762C75.6455 55.9514 75.6988 55.9266 75.7515 55.9003C75.8335 55.8604 75.9147 55.8183 75.9952 55.7762C76.0403 55.7521 76.0862 55.7295 76.1305 55.7047C76.2456 55.6416 76.3584 55.5769 76.4705 55.5092C76.5239 55.4769 76.5765 55.443 76.6299 55.4099C76.6946 55.3693 76.7593 55.3279 76.8232 55.2858C76.8803 55.2482 76.9375 55.2091 76.9939 55.17C77.0526 55.1302 77.1097 55.0888 77.1676 55.0474C77.224 55.0061 77.2804 54.9654 77.3369 54.9233C77.3978 54.8767 77.4579 54.8286 77.5181 54.7804C77.6136 54.7045 77.7084 54.6263 77.8009 54.5465C77.8475 54.5067 77.8934 54.4676 77.9393 54.4262C77.9987 54.3736 78.0573 54.3194 78.1152 54.2653C78.1566 54.2269 78.1972 54.1878 78.2378 54.148C78.2972 54.0908 78.3559 54.0336 78.4131 53.975C78.4469 53.9404 78.48 53.905 78.5131 53.8697C78.6417 53.7343 78.7665 53.5959 78.8876 53.4538C78.8996 53.4403 78.9117 53.4267 78.923 53.4132C78.9816 53.3425 79.0388 53.271 79.0952 53.1996C79.123 53.165 79.1501 53.1312 79.1764 53.0958C79.2321 53.0244 79.287 52.9514 79.3404 52.8777C79.3637 52.8454 79.387 52.8123 79.4095 52.7799C79.5915 52.5235 79.7608 52.258 79.9172 51.9835C79.9322 51.9587 79.9465 51.9331 79.9608 51.9075C80.0089 51.8233 80.0548 51.7368 80.0992 51.6503C80.1165 51.618 80.133 51.5857 80.1496 51.5533C80.1939 51.4646 80.2383 51.3758 80.2804 51.2856C80.288 51.269 80.2955 51.2517 80.303 51.2352C80.3993 51.0276 80.4888 50.8163 80.57 50.6005C80.7099 50.2289 80.8264 49.8476 80.9212 49.4566H75.7094C75.5417 49.871 75.3168 50.256 75.0408 50.6005C74.8317 50.8607 74.5956 51.0976 74.3354 51.3066C74.3316 51.3097 74.3278 51.3127 74.3248 51.3149C74.2654 51.3623 74.2052 51.4082 74.1443 51.4525C74.1346 51.4593 74.1248 51.4661 74.115 51.4729C74.0586 51.5127 74.0014 51.5518 73.9428 51.5894C73.9307 51.5969 73.9187 51.6052 73.9067 51.6127C73.8488 51.6496 73.7901 51.6842 73.7299 51.718C73.7187 51.7248 73.7066 51.7316 73.6953 51.7383C73.6299 51.7752 73.5637 51.8098 73.496 51.8429C73.4908 51.8459 73.4848 51.8489 73.4788 51.8519C73.3306 51.9248 73.1779 51.9895 73.0207 52.0459C73.0072 52.0512 72.9929 52.0557 72.9786 52.0602C72.917 52.082 72.8545 52.1023 72.7914 52.1211C72.7673 52.1287 72.7425 52.1354 72.7177 52.1429C72.6643 52.158 72.6109 52.1723 72.5567 52.1851C72.5274 52.1926 72.4988 52.1986 72.4695 52.2054C72.4183 52.2166 72.3672 52.2272 72.3153 52.237C72.2845 52.243 72.2536 52.2482 72.2228 52.2535C72.1709 52.2618 72.119 52.2693 72.0664 52.2761C72.0355 52.2798 72.0055 52.2843 71.9739 52.2881C71.9175 52.2941 71.8611 52.2986 71.8039 52.3031C71.7768 52.3046 71.7505 52.3076 71.7234 52.3092C71.6392 52.3137 71.555 52.3167 71.4692 52.3167C68.9415 52.3167 66.8929 50.2673 66.8929 47.7396V47.1688H75.304H81.1949V42.591C81.1949 37.2197 76.8405 32.8652 71.4692 32.8652Z" fill="#00A161"/>
</g>
<mask id="mask3_3927_40812" style="mask-type:luminance" maskUnits="userSpaceOnUse" x="36" y="26" width="182" height="51">
<path d="M36 76.9149H217.355V26H36V76.9149Z" fill="#888889"/>
</mask>
<g mask="url(#mask3_3927_40812)">
<path fill-rule="evenodd" clip-rule="evenodd" d="M36 65.2373H42.4836V66.3308H37.18V69.0405H42.082V70.0738H37.18V73.0994H42.5746V74.1628H36V65.2373Z" fill="#888889"/>
</g>
<mask id="mask4_3927_40812" style="mask-type:luminance" maskUnits="userSpaceOnUse" x="36" y="26" width="182" height="51">
<path d="M36 76.9149H217.355V26H36V76.9149Z" fill="#888889"/>
</mask>
<g mask="url(#mask4_3927_40812)">
<path fill-rule="evenodd" clip-rule="evenodd" d="M43.7658 74.1628H44.8608V65.2373H43.7658V74.1628Z" fill="#888889"/>
</g>
<mask id="mask5_3927_40812" style="mask-type:luminance" maskUnits="userSpaceOnUse" x="36" y="26" width="182" height="51">
<path d="M36 76.9149H217.355V26H36V76.9149Z" fill="#888889"/>
</mask>
<g mask="url(#mask5_3927_40812)">
<path fill-rule="evenodd" clip-rule="evenodd" d="M51.2796 70.3894C51.2352 69.9156 51.1329 69.5366 50.972 69.2531C50.6742 68.7266 50.1778 68.4634 49.4821 68.4634C48.9835 68.4634 48.5654 68.6446 48.2277 69.0071C47.89 69.3696 47.711 69.8306 47.6915 70.3894H51.2796ZM50.8877 67.8347C51.3187 68.0513 51.6473 68.3318 51.873 68.6762C52.0903 69.0041 52.2355 69.3869 52.3077 69.8246C52.3723 70.1239 52.4047 70.6023 52.4047 71.2581H47.6667C47.687 71.9206 47.8419 72.4516 48.1314 72.8517C48.421 73.2518 48.87 73.4518 49.4776 73.4518C50.0439 73.4518 50.4974 73.2623 50.8351 72.884C51.0239 72.6644 51.1585 72.4102 51.2367 72.1214H52.3137C52.2851 72.3598 52.1903 72.6261 52.0309 72.9201C51.8699 73.2142 51.6917 73.4541 51.4947 73.6399C51.1645 73.964 50.7561 74.1828 50.2696 74.2964C50.0078 74.3611 49.7123 74.3934 49.3821 74.3934C48.5767 74.3934 47.893 74.0986 47.3327 73.5097C46.7732 72.9201 46.4927 72.0944 46.4927 71.0332C46.4927 69.9886 46.7747 69.1395 47.3388 68.4875C47.9036 67.8354 48.6406 67.5098 49.5513 67.5098C50.0108 67.5098 50.4561 67.6181 50.8877 67.8347Z" fill="#888889"/>
</g>
<mask id="mask6_3927_40812" style="mask-type:luminance" maskUnits="userSpaceOnUse" x="36" y="26" width="182" height="51">
<path d="M36 76.9149H217.355V26H36V76.9149Z" fill="#888889"/>
</mask>
<g mask="url(#mask6_3927_40812)">
<path fill-rule="evenodd" clip-rule="evenodd" d="M58.4554 68.0015C58.9156 68.358 59.1924 68.9717 59.2856 69.8426H58.2215C58.156 69.4417 58.0086 69.1086 57.777 68.8431C57.5461 68.5776 57.1753 68.4452 56.6639 68.4452C55.9668 68.4452 55.4681 68.7852 55.1681 69.4643C54.9733 69.9057 54.8763 70.4502 54.8763 71.097C54.8763 71.7483 55.0139 72.2966 55.2899 72.7418C55.5652 73.187 55.9991 73.4089 56.591 73.4089C57.0452 73.4089 57.4055 73.2712 57.6709 72.9945C57.9364 72.7185 58.1199 72.3394 58.2215 71.8596H59.2856C59.1638 72.7222 58.86 73.3532 58.3734 73.7526C57.8868 74.1512 57.2641 74.3512 56.506 74.3512C55.6547 74.3512 54.9755 74.0399 54.4687 73.4179C53.9618 72.7967 53.7083 72.0198 53.7083 71.088C53.7083 69.9456 53.9858 69.0567 54.5416 68.4212C55.0974 67.7849 55.8043 67.4668 56.6639 67.4668C57.3979 67.4668 57.9951 67.645 58.4554 68.0015Z" fill="#888889"/>
</g>
<mask id="mask7_3927_40812" style="mask-type:luminance" maskUnits="userSpaceOnUse" x="36" y="26" width="182" height="51">
<path d="M36 76.9149H217.355V26H36V76.9149Z" fill="#888889"/>
</mask>
<g mask="url(#mask7_3927_40812)">
<path fill-rule="evenodd" clip-rule="evenodd" d="M60.9607 65.8389H62.0677V67.6551H63.1071V68.5486H62.0677V72.7955C62.0677 73.0226 62.1444 73.1745 62.2986 73.2512C62.3836 73.2964 62.5257 73.3182 62.7243 73.3182C62.7769 73.3182 62.8341 73.3167 62.8942 73.3137C62.9551 73.3114 63.0266 73.3046 63.1071 73.2941V74.1627C62.9822 74.1988 62.8514 74.2252 62.7152 74.2417C62.5791 74.2575 62.4325 74.2658 62.2745 74.2658C61.7631 74.2658 61.4172 74.1349 61.2344 73.8739C61.0517 73.613 60.9607 73.2738 60.9607 72.8564V68.5486H60.0785V67.6551H60.9607V65.8389Z" fill="#888889"/>
</g>
<mask id="mask8_3927_40812" style="mask-type:luminance" maskUnits="userSpaceOnUse" x="36" y="26" width="182" height="51">
<path d="M36 76.9149H217.355V26H36V76.9149Z" fill="#888889"/>
</mask>
<g mask="url(#mask8_3927_40812)">
<path fill-rule="evenodd" clip-rule="evenodd" d="M64.5939 67.6557H65.634V68.7793C65.719 68.5612 65.9281 68.2942 66.2605 67.9806C66.5929 67.6669 66.9757 67.5098 67.4097 67.5098C67.43 67.5098 67.4646 67.512 67.5135 67.5158C67.5623 67.5203 67.6451 67.5278 67.7631 67.5398V68.6943C67.6977 68.6822 67.6383 68.6747 67.5834 68.6702C67.5285 68.6664 67.4683 68.6642 67.4037 68.6642C66.8524 68.6642 66.429 68.8417 66.1327 69.1959C65.8371 69.5501 65.6889 69.9585 65.6889 70.4203V74.1625H64.5939V67.6557Z" fill="#888889"/>
</g>
<mask id="mask9_3927_40812" style="mask-type:luminance" maskUnits="userSpaceOnUse" x="36" y="26" width="182" height="51">
<path d="M36 76.9149H217.355V26H36V76.9149Z" fill="#888889"/>
</mask>
<g mask="url(#mask9_3927_40812)">
<path fill-rule="evenodd" clip-rule="evenodd" d="M73.1125 72.6295C73.3795 72.0812 73.5126 71.4713 73.5126 70.7997C73.5126 70.1928 73.4163 69.6994 73.2238 69.3189C72.9192 68.7202 72.3943 68.4209 71.6482 68.4209C70.9864 68.4209 70.5051 68.6759 70.205 69.1858C69.9042 69.6957 69.7538 70.3101 69.7538 71.0306C69.7538 71.7225 69.9042 72.2986 70.205 72.7603C70.5051 73.2213 70.9826 73.4515 71.6362 73.4515C72.3536 73.4515 72.8455 73.1777 73.1125 72.6295ZM73.7923 68.3051C74.3677 68.8631 74.6557 69.6844 74.6557 70.7696C74.6557 71.818 74.4023 72.6836 73.8954 73.368C73.3877 74.0516 72.6003 74.3938 71.5339 74.3938C70.6434 74.3938 69.9373 74.0915 69.4138 73.4861C68.8904 72.8814 68.6287 72.0684 68.6287 71.0486C68.6287 69.9559 68.9047 69.0857 69.4559 68.4382C70.008 67.7907 70.7487 67.4673 71.6783 67.4673C72.5123 67.4673 73.2163 67.7463 73.7923 68.3051Z" fill="#888889"/>
</g>
<mask id="mask10_3927_40812" style="mask-type:luminance" maskUnits="userSpaceOnUse" x="36" y="26" width="182" height="51">
<path d="M36 76.9149H217.355V26H36V76.9149Z" fill="#888889"/>
</mask>
<g mask="url(#mask10_3927_40812)">
<path fill-rule="evenodd" clip-rule="evenodd" d="M76.3615 67.6557H77.4016V68.5792C77.7092 68.1987 78.0356 67.9249 78.3808 67.7587C78.7253 67.5925 79.1081 67.5098 79.53 67.5098C80.4543 67.5098 81.0792 67.8317 81.4034 68.4754C81.5816 68.8281 81.6711 69.3328 81.6711 69.9886V74.1625H80.558V70.0615C80.558 69.6644 80.4986 69.3448 80.3813 69.1019C80.1865 68.6965 79.8346 68.4942 79.3231 68.4942C79.0637 68.4942 78.8509 68.5205 78.6846 68.5732C78.3846 68.6619 78.1213 68.8402 77.8942 69.1079C77.7115 69.3222 77.5926 69.5441 77.5385 69.7727C77.4836 70.0021 77.4565 70.3285 77.4565 70.7542V74.1625H76.3615V67.6557Z" fill="#888889"/>
</g>
<mask id="mask11_3927_40812" style="mask-type:luminance" maskUnits="userSpaceOnUse" x="36" y="26" width="182" height="51">
<path d="M36 76.9149H217.355V26H36V76.9149Z" fill="#888889"/>
</mask>
<g mask="url(#mask11_3927_40812)">
<path fill-rule="evenodd" clip-rule="evenodd" d="M83.6501 74.1621H84.7632V67.6853H83.6501V74.1621ZM83.6501 66.4767H84.7632V65.2373H83.6501V66.4767Z" fill="#888889"/>
</g>
<mask id="mask12_3927_40812" style="mask-type:luminance" maskUnits="userSpaceOnUse" x="36" y="26" width="182" height="51">
<path d="M36 76.9149H217.355V26H36V76.9149Z" fill="#888889"/>
</mask>
<g mask="url(#mask12_3927_40812)">
<path fill-rule="evenodd" clip-rule="evenodd" d="M91.0814 68.0015C91.5417 68.358 91.8184 68.9717 91.9117 69.8426H90.8475C90.7821 69.4417 90.6347 69.1086 90.403 68.8431C90.1721 68.5776 89.8014 68.4452 89.29 68.4452C88.5928 68.4452 88.0942 68.7852 87.7941 69.4643C87.5993 69.9057 87.5023 70.4502 87.5023 71.097C87.5023 71.7483 87.6399 72.2966 87.9159 72.7418C88.1912 73.187 88.6251 73.4089 89.217 73.4089C89.6713 73.4089 90.0315 73.2712 90.297 72.9945C90.5625 72.7185 90.746 72.3394 90.8475 71.8596H91.9117C91.7898 72.7222 91.486 73.3532 90.9994 73.7526C90.5128 74.1512 89.8901 74.3512 89.132 74.3512C88.2807 74.3512 87.6016 74.0399 87.0947 73.4179C86.5878 72.7967 86.3344 72.0198 86.3344 71.088C86.3344 69.9456 86.6119 69.0567 87.1676 68.4212C87.7234 67.7849 88.4311 67.4668 89.29 67.4668C90.024 67.4668 90.6211 67.645 91.0814 68.0015Z" fill="#888889"/>
</g>
<mask id="mask13_3927_40812" style="mask-type:luminance" maskUnits="userSpaceOnUse" x="36" y="26" width="182" height="51">
<path d="M36 76.9149H217.355V26H36V76.9149Z" fill="#888889"/>
</mask>
<g mask="url(#mask13_3927_40812)">
<path fill-rule="evenodd" clip-rule="evenodd" d="M98.1263 71.2827C98.1533 71.7888 98.2684 72.2002 98.4722 72.5161C98.8588 73.1072 99.5401 73.4035 100.516 73.4035C100.954 73.4035 101.353 73.3381 101.711 73.2087C102.407 72.9575 102.754 72.5078 102.754 71.8603C102.754 71.3737 102.607 71.0277 102.313 70.8209C102.014 70.6186 101.547 70.4419 100.91 70.2922L99.7379 70.0192C98.9716 69.841 98.4301 69.6447 98.1112 69.4296C97.5615 69.0573 97.287 68.5 97.287 67.7585C97.287 66.9568 97.5569 66.2987 98.0977 65.7843C98.6384 65.2699 99.4033 65.0127 100.394 65.0127C101.305 65.0127 102.08 65.2383 102.717 65.6896C103.354 66.1415 103.673 66.8635 103.673 67.8563H102.536C102.477 67.3779 102.353 67.0117 102.163 66.7567C101.808 66.2905 101.208 66.0573 100.361 66.0573C99.6763 66.0573 99.1844 66.207 98.8851 66.5071C98.5858 66.8071 98.4361 67.1553 98.4361 67.5524C98.4361 67.9894 98.6129 68.3098 98.9663 68.5121C99.198 68.6414 99.7229 68.8039 100.54 68.9979L101.754 69.2837C102.339 69.4213 102.791 69.6101 103.109 69.8485C103.659 70.2659 103.934 70.872 103.934 71.6655C103.934 72.6537 103.583 73.3606 102.882 73.7863C102.18 74.2112 101.364 74.4241 100.435 74.4241C99.3514 74.4241 98.503 74.1405 97.8901 73.5735C97.2772 73.0102 96.9764 72.2468 96.9884 71.2827H98.1263Z" fill="#888889"/>
</g>
<mask id="mask14_3927_40812" style="mask-type:luminance" maskUnits="userSpaceOnUse" x="36" y="26" width="182" height="51">
<path d="M36 76.9149H217.355V26H36V76.9149Z" fill="#888889"/>
</mask>
<g mask="url(#mask14_3927_40812)">
<path fill-rule="evenodd" clip-rule="evenodd" d="M105.859 74.1621H106.972V67.6853H105.859V74.1621ZM105.859 66.4767H106.972V65.2373H105.859V66.4767Z" fill="#888889"/>
</g>
<mask id="mask15_3927_40812" style="mask-type:luminance" maskUnits="userSpaceOnUse" x="36" y="26" width="182" height="51">
<path d="M36 76.9149H217.355V26H36V76.9149Z" fill="#888889"/>
</mask>
<g mask="url(#mask15_3927_40812)">
<path fill-rule="evenodd" clip-rule="evenodd" d="M112.743 69.0893C112.412 68.7005 111.99 68.5057 111.478 68.5057C110.711 68.5057 110.187 68.8667 109.905 69.5879C109.755 69.9722 109.681 70.4769 109.681 71.1003C109.681 71.8336 109.829 72.3916 110.125 72.7744C110.422 73.1572 110.82 73.3482 111.32 73.3482C112.103 73.3482 112.654 72.994 112.973 72.2848C113.15 71.884 113.239 71.4162 113.239 70.8815C113.239 70.0753 113.073 69.4781 112.743 69.0893ZM112.609 67.9168C112.815 68.0582 113.025 68.265 113.239 68.5365V67.716H114.248V73.634C114.248 74.4606 114.127 75.1126 113.885 75.5902C113.432 76.4731 112.577 76.9145 111.32 76.9145C110.622 76.9145 110.034 76.7581 109.557 76.4437C109.08 76.1301 108.813 75.639 108.757 74.9705H109.87C109.922 75.2623 110.027 75.4871 110.184 75.6451C110.43 75.888 110.817 76.0098 111.345 76.0098C112.18 76.0098 112.727 75.7142 112.985 75.1224C113.138 74.7742 113.209 74.1522 113.196 73.2572C112.978 73.5897 112.715 73.8363 112.409 73.9988C112.102 74.1605 111.696 74.2417 111.191 74.2417C110.488 74.2417 109.873 73.9913 109.346 73.4911C108.819 72.991 108.556 72.1637 108.556 71.0093C108.556 69.9196 108.821 69.069 109.352 68.4576C109.883 67.8454 110.525 67.54 111.276 67.54C111.784 67.54 112.229 67.6656 112.609 67.9168Z" fill="#888889"/>
</g>
<mask id="mask16_3927_40812" style="mask-type:luminance" maskUnits="userSpaceOnUse" x="36" y="26" width="182" height="51">
<path d="M36 76.9149H217.355V26H36V76.9149Z" fill="#888889"/>
</mask>
<g mask="url(#mask16_3927_40812)">
<path fill-rule="evenodd" clip-rule="evenodd" d="M116.276 67.6557H117.316V68.5792C117.624 68.1987 117.951 67.9249 118.295 67.7587C118.64 67.5925 119.022 67.5098 119.444 67.5098C120.369 67.5098 120.994 67.8317 121.318 68.4754C121.496 68.8281 121.585 69.3328 121.585 69.9886V74.1625H120.472V70.0615C120.472 69.6644 120.413 69.3448 120.296 69.1019C120.102 68.6965 119.749 68.4942 119.238 68.4942C118.978 68.4942 118.765 68.5205 118.599 68.5732C118.299 68.6619 118.036 68.8402 117.809 69.1079C117.626 69.3222 117.507 69.5441 117.453 69.7727C117.398 70.0021 117.371 70.3285 117.371 70.7542V74.1625H116.276V67.6557Z" fill="#888889"/>
</g>
<mask id="mask17_3927_40812" style="mask-type:luminance" maskUnits="userSpaceOnUse" x="36" y="26" width="182" height="51">
<path d="M36 76.9149H217.355V26H36V76.9149Z" fill="#888889"/>
</mask>
<g mask="url(#mask17_3927_40812)">
<path fill-rule="evenodd" clip-rule="evenodd" d="M124.751 73.1789C124.982 73.3609 125.255 73.4519 125.571 73.4519C125.957 73.4519 126.33 73.3632 126.69 73.1849C127.299 72.8894 127.603 72.4066 127.603 71.735V70.8558C127.469 70.9408 127.297 71.0115 127.087 71.0686C126.877 71.1258 126.67 71.1664 126.468 71.1905L125.807 71.2755C125.41 71.3281 125.112 71.4108 124.912 71.5244C124.573 71.7139 124.404 72.017 124.404 72.4336C124.404 72.7488 124.52 72.9969 124.751 73.1789ZM127.056 70.2248C127.307 70.1925 127.475 70.0872 127.56 69.9089C127.609 69.8119 127.633 69.6713 127.633 69.4878C127.633 69.114 127.501 68.8425 127.235 68.6741C126.971 68.5056 126.591 68.4214 126.098 68.4214C125.527 68.4214 125.122 68.5755 124.884 68.8854C124.751 69.0561 124.663 69.3103 124.623 69.648H123.601C123.621 68.844 123.881 68.2845 124.381 67.9694C124.882 67.655 125.462 67.4971 126.122 67.4971C126.887 67.4971 127.509 67.643 127.987 67.9348C128.461 68.2266 128.698 68.6801 128.698 69.296V73.0451C128.698 73.1586 128.721 73.2496 128.767 73.3181C128.814 73.3873 128.913 73.4211 129.062 73.4211C129.111 73.4211 129.166 73.4181 129.227 73.4121C129.288 73.4061 129.353 73.397 129.422 73.385V74.1935C129.251 74.2416 129.122 74.2724 129.032 74.2837C128.943 74.2965 128.822 74.3025 128.667 74.3025C128.29 74.3025 128.017 74.1687 127.846 73.9017C127.757 73.7595 127.694 73.5595 127.657 73.3C127.435 73.5918 127.114 73.8445 126.697 74.0596C126.28 74.2739 125.819 74.3815 125.316 74.3815C124.712 74.3815 124.218 74.198 123.835 73.8325C123.452 73.4662 123.26 73.0082 123.26 72.4577C123.26 71.8553 123.449 71.3875 123.826 71.0558C124.203 70.7242 124.697 70.5204 125.31 70.4429L127.056 70.2248Z" fill="#888889"/>
</g>
<mask id="mask18_3927_40812" style="mask-type:luminance" maskUnits="userSpaceOnUse" x="36" y="26" width="182" height="51">
<path d="M36 76.9149H217.355V26H36V76.9149Z" fill="#888889"/>
</mask>
<g mask="url(#mask18_3927_40812)">
<path fill-rule="evenodd" clip-rule="evenodd" d="M131.072 65.8389H132.179V67.6551H133.219V68.5486H132.179V72.7955C132.179 73.0226 132.256 73.1745 132.41 73.2512C132.495 73.2964 132.637 73.3182 132.836 73.3182C132.889 73.3182 132.946 73.3167 133.006 73.3137C133.067 73.3114 133.138 73.3046 133.219 73.2941V74.1627C133.094 74.1988 132.962 74.2252 132.827 74.2417C132.691 74.2575 132.544 74.2658 132.386 74.2658C131.875 74.2658 131.528 74.1349 131.346 73.8739C131.163 73.613 131.072 73.2738 131.072 72.8564V68.5486H130.19V67.6551H131.072V65.8389Z" fill="#888889"/>
</g>
<mask id="mask19_3927_40812" style="mask-type:luminance" maskUnits="userSpaceOnUse" x="36" y="26" width="182" height="51">
<path d="M36 76.9149H217.355V26H36V76.9149Z" fill="#888889"/>
</mask>
<g mask="url(#mask19_3927_40812)">
<path fill-rule="evenodd" clip-rule="evenodd" d="M135.77 67.6553V71.9751C135.77 72.3076 135.821 72.5791 135.924 72.7896C136.113 73.1777 136.467 73.3725 136.984 73.3725C137.727 73.3725 138.232 73.0325 138.5 72.3519C138.646 71.9872 138.719 71.4871 138.719 70.8508V67.6553H139.814V74.1621H138.78L138.792 73.2025C138.653 73.4492 138.48 73.6583 138.273 73.8282C137.863 74.1682 137.366 74.3389 136.781 74.3389C135.87 74.3389 135.249 74.029 134.919 73.4086C134.74 73.0769 134.651 72.6332 134.651 72.0782V67.6553H135.77Z" fill="#888889"/>
</g>
</g>
<defs>
<filter id="filter0_d_3927_40812" x="0" y="0" width="254" height="104" filterUnits="userSpaceOnUse" color-interpolation-filters="sRGB">
<feFlood flood-opacity="0" result="BackgroundImageFix"/>
<feColorMatrix in="SourceAlpha" type="matrix" values="0 0 0 0 0 0 0 0 0 0 0 0 0 0 0 0 0 0 127 0" result="hardAlpha"/>
<feOffset/>
<feGaussianBlur stdDeviation="2"/>
<feComposite in2="hardAlpha" operator="out"/>
<feColorMatrix type="matrix" values="0 0 0 0 1 0 0 0 0 1 0 0 0 0 1 0 0 0 0.35 0"/>
<feBlend mode="normal" in2="BackgroundImageFix" result="effect1_dropShadow_3927_40812"/>
<feBlend mode="normal" in="SourceGraphic" in2="effect1_dropShadow_3927_40812" result="shape"/>
</filter>
</defs>
</svg>
