<svg width="121" height="56" viewBox="0 0 121 56" fill="none" xmlns="http://www.w3.org/2000/svg">
<g opacity="0.8">
<path fill-rule="evenodd" clip-rule="evenodd" d="M103.545 28.6043L99.0195 24.0783L95.6515 27.4458L103.545 35.3398L120.571 18.3143L117.203 14.9463L103.545 28.6043Z" fill="#717374"/>
<path fill-rule="evenodd" clip-rule="evenodd" d="M85.5776 28.116C84.1071 28.116 82.9151 26.924 82.9151 25.4535V23.1715V22.0305V21.27C82.9151 19.7995 84.1071 18.6075 85.5776 18.6075C87.0481 18.6075 88.2396 19.7995 88.2401 21.2695V25.454C88.2396 26.9245 87.0481 28.116 85.5776 28.116ZM92.0436 15.945H88.2401V16.7135C87.2856 15.9955 86.1031 15.5645 84.8171 15.5645C81.6661 15.5645 79.1116 18.119 79.1116 21.27V22.0305V23.1715V25.4535C79.1116 28.6045 81.6661 31.1585 84.8171 31.1585C86.1031 31.1585 87.2856 30.728 88.2401 30.01V31.3815C88.2401 32.6415 87.2181 33.6635 85.9581 33.6635H85.1976C84.5216 33.6635 83.9146 33.3695 83.4971 32.903H79.3186C79.9846 35.3145 82.1931 37.0865 84.8171 37.0865H86.3381C89.4891 37.0865 92.0436 34.532 92.0436 31.3815V15.945Z" fill="#717374"/>
<path fill-rule="evenodd" clip-rule="evenodd" d="M68.3065 21.3085C67.605 20.72 66.5395 20.244 65.14 19.894L61.9485 19.094C60.7275 18.7905 59.9185 18.523 59.5455 18.299C58.9725 17.968 58.694 17.483 58.694 16.816C58.694 16.085 58.978 15.53 59.562 15.1205C60.149 14.709 60.948 14.5005 61.9365 14.5005C62.8265 14.5005 63.58 14.662 64.1775 14.98C64.974 15.4085 65.43 16.078 65.57 17.0255H69.3575C69.2195 15.131 68.493 13.653 67.197 12.631C65.8235 11.5485 64.1425 11 62.201 11C59.8755 11 58.0855 11.583 56.8815 12.7335C55.673 13.8875 55.0605 15.3585 55.0605 17.1045C55.0605 19.02 55.6885 20.4485 56.9275 21.35C57.654 21.8855 59.002 22.387 60.935 22.841L62.904 23.3005C64.0455 23.56 64.889 23.862 65.4115 24.198C65.9265 24.5375 66.1765 25.0015 66.1765 25.617C66.1765 26.6845 65.659 27.396 64.5935 27.7915C64.031 27.998 63.2865 28.103 62.3805 28.103C60.8765 28.103 59.802 27.709 59.1865 26.9315C58.971 26.658 58.751 26.137 58.67 25.811L58.6625 25.7815C58.643 25.7025 58.6205 25.6125 58.609 25.5265C58.59 25.3895 58.5735 25.146 58.571 25.0725H54.7625C54.7615 25.1885 54.7765 25.4685 54.7835 25.5595C54.7835 25.5595 54.7925 25.683 54.796 25.7185C54.9445 27.411 55.635 28.7845 56.8475 29.801C58.223 30.954 60.1345 31.5385 62.5295 31.5385C64.8755 31.5385 66.719 30.9445 68.0075 29.773C69.302 28.597 69.958 27.097 69.958 25.3155C69.958 23.576 69.4025 22.228 68.3065 21.3085Z" fill="#717374"/>
<path fill-rule="evenodd" clip-rule="evenodd" d="M42.1667 23.3915C41.6242 22.925 40.8112 22.5505 39.7497 22.2785L37.4022 21.675C36.3102 21.3965 35.8707 21.209 35.6922 21.099C35.3447 20.8935 35.1827 20.6055 35.1827 20.194C35.1827 19.724 35.3537 19.382 35.7207 19.118C36.1147 18.835 36.6602 18.6915 37.3417 18.6915C37.9602 18.6915 38.4802 18.804 38.8867 19.026C39.4192 19.3195 39.7177 19.785 39.7987 20.448L39.8172 20.5955H43.0397L43.0287 20.414C42.9372 18.874 42.3707 17.6725 41.3452 16.843C40.2952 15.9945 39.0137 15.5645 37.5362 15.5645C35.7682 15.5645 34.4012 16.0255 33.4732 16.935C32.5352 17.8535 32.0597 19.0235 32.0597 20.4115C32.0597 21.941 32.5542 23.0855 33.5287 23.8125C34.0872 24.2345 35.1057 24.626 36.5562 24.9755L38.0052 25.322C38.8202 25.512 39.4167 25.7295 39.7777 25.967C40.0892 26.1775 40.2342 26.4525 40.2342 26.831C40.2342 27.53 39.9122 27.978 39.2212 28.241C38.8312 28.388 38.3087 28.4625 37.6682 28.4625C36.6317 28.4625 35.8997 28.1945 35.4922 27.667C35.4032 27.551 35.3252 27.406 35.2587 27.234C35.2277 27.1535 35.1972 27.0595 35.1832 26.9645C35.1637 26.8335 35.1507 26.693 35.1572 26.5945H31.8652C31.8667 26.614 31.8617 26.771 31.8752 26.975C31.8827 27.094 31.8957 27.21 31.9132 27.3245C32.0917 28.4895 32.6092 29.446 33.4592 30.1765C34.5112 31.081 35.9642 31.54 37.7777 31.54C39.5587 31.54 40.9637 31.072 41.9537 30.1495C42.9572 29.214 43.4662 28.021 43.4662 26.6035C43.4662 25.214 43.0287 24.1335 42.1667 23.3915Z" fill="#717374"/>
<mask id="mask0_6558_5022" style="mask-type:luminance" maskUnits="userSpaceOnUse" x="0" y="11" width="121" height="34">
<path d="M0 44.85H120.572V11H0V44.85Z" fill="#00A161"/>
</mask>
<g mask="url(#mask0_6558_5022)">
<path fill-rule="evenodd" clip-rule="evenodd" d="M72.646 31.1583H76.4495V15.9443H72.646V31.1583Z" fill="#717374"/>
</g>
<mask id="mask1_6558_5022" style="mask-type:luminance" maskUnits="userSpaceOnUse" x="0" y="11" width="121" height="34">
<path d="M0 44.85H120.572V11H0V44.85Z" fill="#00A161"/>
</mask>
<g mask="url(#mask1_6558_5022)">
<path fill-rule="evenodd" clip-rule="evenodd" d="M72.646 14.4234H76.4495V11.3809H72.646V14.4234Z" fill="#717374"/>
</g>
<mask id="mask2_6558_5022" style="mask-type:luminance" maskUnits="userSpaceOnUse" x="0" y="11" width="121" height="34">
<path d="M0 44.85H120.572V11H0V44.85Z" fill="#00A161"/>
</mask>
<g mask="url(#mask2_6558_5022)">
<path fill-rule="evenodd" clip-rule="evenodd" d="M50.5859 11L46.7824 13.282V15.9445H44.5004V18.987H46.7824V27.953C46.7824 29.7235 48.2174 31.158 49.9874 31.158H52.8679V27.735H51.4589C50.9769 27.735 50.5859 27.3445 50.5859 26.862V18.987H52.8679V15.9445H50.5859V11Z" fill="#717374"/>
</g>
<mask id="mask3_6558_5022" style="mask-type:luminance" maskUnits="userSpaceOnUse" x="0" y="11" width="121" height="34">
<path d="M0 44.85H120.572V11H0V44.85Z" fill="#00A161"/>
</mask>
<g mask="url(#mask3_6558_5022)">
<path fill-rule="evenodd" clip-rule="evenodd" d="M8.93374 28.1159H3.80324V22.4109H4.06274H8.55024H8.55324C8.55324 22.4109 8.55474 22.4109 8.55574 22.4109H8.87524C10.3347 22.4109 11.6737 23.5969 11.7787 25.0524C11.8987 26.7229 10.5792 28.1159 8.93374 28.1159ZM3.80324 14.4234H8.55324C9.99324 14.4234 11.1452 15.6539 11.0157 17.1204C10.9027 18.4039 9.78624 19.3679 8.49774 19.3679H3.91224H3.80324V14.4234ZM12.9807 20.6454C13.8937 19.6614 14.4532 18.3439 14.4532 16.8959C14.4532 13.8499 11.9837 11.3809 8.93824 11.3809H8.93674H3.80324H0.000244141V14.4234V19.3679V22.4109V28.1159V31.1584H3.80324H9.31774C12.5737 31.1584 15.2137 28.5194 15.2137 25.2634C15.2137 23.3919 14.3407 21.7254 12.9807 20.6454Z" fill="#717374"/>
</g>
<mask id="mask4_6558_5022" style="mask-type:luminance" maskUnits="userSpaceOnUse" x="0" y="11" width="121" height="34">
<path d="M0 44.85H120.572V11H0V44.85Z" fill="#00A161"/>
</mask>
<g mask="url(#mask4_6558_5022)">
<path fill-rule="evenodd" clip-rule="evenodd" d="M26.6242 22.031H20.5387V21.6505C20.5387 21.5875 20.5407 21.5255 20.5447 21.4635C20.5452 21.4585 20.5457 21.453 20.5462 21.4475C20.5502 21.3875 20.5557 21.3285 20.5632 21.27C20.6347 20.6985 20.8642 20.176 21.2067 19.7485C21.3457 19.575 21.5032 19.418 21.6762 19.2785C21.6782 19.277 21.6807 19.275 21.6827 19.273C21.7222 19.2415 21.7627 19.211 21.8032 19.1815C21.8097 19.177 21.8162 19.173 21.8222 19.1685C21.8597 19.1415 21.8982 19.116 21.9372 19.091C21.9452 19.0855 21.9532 19.0805 21.9612 19.0755C21.9997 19.051 22.0387 19.0275 22.0787 19.005C22.0862 19.0005 22.0937 18.996 22.1017 18.9915C22.1452 18.9675 22.1892 18.9445 22.2342 18.922C22.2377 18.92 22.2417 18.918 22.2452 18.9165C22.3442 18.868 22.4457 18.8245 22.5502 18.787C22.5592 18.784 22.5687 18.781 22.5777 18.7775C22.6192 18.7635 22.6607 18.7495 22.7027 18.737C22.7187 18.732 22.7352 18.7275 22.7517 18.723C22.7872 18.713 22.8227 18.7035 22.8587 18.6945C22.8777 18.69 22.8972 18.6855 22.9167 18.6815C22.9507 18.6735 22.9847 18.667 23.0192 18.6605C23.0397 18.6565 23.0602 18.6525 23.0807 18.6495C23.1152 18.6435 23.1497 18.6385 23.1847 18.634C23.2047 18.6315 23.2252 18.6285 23.2457 18.6265C23.2832 18.622 23.3212 18.6195 23.3592 18.6165C23.3772 18.6155 23.3947 18.6135 23.4127 18.6125C23.4687 18.6095 23.5247 18.6075 23.5812 18.6075C25.2617 18.6075 26.6242 19.97 26.6242 21.6505V22.031ZM23.5812 15.5645C23.4802 15.5645 23.3797 15.5675 23.2797 15.5725C23.2487 15.574 23.2182 15.576 23.1877 15.5775C23.1167 15.582 23.0457 15.5875 22.9757 15.594C22.9427 15.597 22.9102 15.6 22.8772 15.6035C22.8012 15.6115 22.7257 15.6215 22.6507 15.6325C22.6277 15.6355 22.6047 15.638 22.5822 15.642C22.4862 15.6565 22.3907 15.6735 22.2967 15.693C22.2707 15.698 22.2452 15.704 22.2192 15.7095C22.1497 15.7245 22.0807 15.7405 22.0117 15.7575C21.9782 15.766 21.9452 15.7745 21.9117 15.7835C21.8482 15.8005 21.7852 15.8185 21.7222 15.8375C21.6917 15.8465 21.6602 15.8555 21.6297 15.8655C21.5407 15.893 21.4527 15.923 21.3657 15.9545C21.3472 15.961 21.3297 15.9685 21.3112 15.9755C21.2407 16.002 21.1707 16.0295 21.1017 16.058C21.0672 16.0725 21.0337 16.0875 20.9997 16.102C20.9462 16.1255 20.8932 16.1495 20.8407 16.174C20.8052 16.1905 20.7697 16.2075 20.7347 16.2245C20.6802 16.2515 20.6262 16.2795 20.5727 16.3075C20.5427 16.3235 20.5122 16.3385 20.4827 16.355C20.4062 16.3965 20.3307 16.44 20.2567 16.4845C20.2207 16.506 20.1857 16.5285 20.1507 16.5505C20.1077 16.578 20.0647 16.605 20.0222 16.633C19.9837 16.6585 19.9462 16.684 19.9082 16.71C19.8697 16.737 19.8317 16.7645 19.7932 16.792C19.7557 16.8195 19.7177 16.846 19.6807 16.8745C19.6402 16.9055 19.6002 16.937 19.5602 16.9695C19.4962 17.02 19.4337 17.0715 19.3722 17.1245C19.3412 17.151 19.3102 17.1775 19.2797 17.2045C19.2402 17.24 19.2017 17.2755 19.1632 17.312C19.1357 17.3375 19.1087 17.3635 19.0817 17.3895C19.0422 17.428 19.0032 17.466 18.9652 17.505C18.9427 17.528 18.9207 17.5515 18.8987 17.5745C18.8127 17.6645 18.7297 17.7565 18.6497 17.8515C18.6417 17.8605 18.6337 17.869 18.6262 17.8785C18.5872 17.925 18.5492 17.9725 18.5112 18.0205C18.4932 18.0435 18.4752 18.066 18.4572 18.089C18.4202 18.137 18.3842 18.1855 18.3487 18.2345C18.3332 18.256 18.3177 18.2775 18.3022 18.2995C18.1817 18.47 18.0692 18.6465 17.9647 18.8285C17.9552 18.8455 17.9452 18.862 17.9357 18.879C17.9042 18.9355 17.8737 18.993 17.8437 19.0505C17.8327 19.072 17.8217 19.0935 17.8107 19.115C17.7812 19.1735 17.7517 19.233 17.7237 19.293C17.7187 19.304 17.7137 19.315 17.7087 19.3265C17.6447 19.4645 17.5852 19.605 17.5312 19.748V19.7485C17.3077 20.34 17.1692 20.9725 17.1292 21.632C17.1287 21.6385 17.1277 21.6455 17.1277 21.652C17.1202 21.7775 17.1157 21.903 17.1157 22.0305V25.0735C17.1157 28.6445 20.0107 31.539 23.5812 31.539C23.6827 31.539 23.7832 31.536 23.8832 31.5315C23.9137 31.53 23.9447 31.528 23.9752 31.526C24.0462 31.522 24.1167 31.5165 24.1872 31.51C24.2202 31.507 24.2527 31.504 24.2857 31.5005C24.3612 31.492 24.4372 31.4825 24.5122 31.4715C24.5347 31.468 24.5577 31.4655 24.5807 31.462C24.6767 31.447 24.7717 31.43 24.8662 31.411C24.8922 31.406 24.9177 31.3995 24.9432 31.394C25.0132 31.379 25.0822 31.3635 25.1512 31.346C25.1847 31.338 25.2177 31.329 25.2507 31.3205C25.3142 31.3035 25.3777 31.2855 25.4402 31.2665C25.4712 31.257 25.5022 31.2485 25.5332 31.2385C25.6217 31.2105 25.7102 31.181 25.7972 31.149C25.8152 31.1425 25.8332 31.135 25.8512 31.1285C25.9217 31.102 25.9917 31.0745 26.0612 31.0455C26.0952 31.0315 26.1292 31.0165 26.1632 31.0015C26.2167 30.9785 26.2692 30.9545 26.3222 30.9295C26.3577 30.913 26.3932 30.8965 26.4282 30.879C26.4827 30.8525 26.5367 30.8245 26.5902 30.7965C26.6202 30.7805 26.6507 30.7655 26.6802 30.749C26.7567 30.707 26.8317 30.664 26.9062 30.619C26.9417 30.5975 26.9767 30.575 27.0122 30.553C27.0552 30.526 27.0982 30.4985 27.1407 30.4705C27.1787 30.4455 27.2167 30.4195 27.2542 30.3935C27.2932 30.367 27.3312 30.3395 27.3697 30.312C27.4072 30.2845 27.4447 30.2575 27.4822 30.2295C27.5227 30.1985 27.5627 30.1665 27.6027 30.1345C27.6662 30.084 27.7292 30.032 27.7907 29.979C27.8217 29.9525 27.8522 29.9265 27.8827 29.899C27.9222 29.864 27.9612 29.828 27.9997 29.792C28.0272 29.7665 28.0542 29.7405 28.0812 29.714C28.1207 29.676 28.1597 29.638 28.1977 29.599C28.2202 29.576 28.2422 29.5525 28.2642 29.529C28.3497 29.439 28.4327 29.347 28.5132 29.2525C28.5212 29.2435 28.5292 29.2345 28.5367 29.2255C28.5757 29.1785 28.6137 29.131 28.6512 29.0835C28.6697 29.0605 28.6877 29.038 28.7052 29.0145C28.7422 28.967 28.7787 28.9185 28.8142 28.8695C28.8297 28.848 28.8452 28.826 28.8602 28.8045C28.9812 28.634 29.0937 28.4575 29.1977 28.275C29.2077 28.2585 29.2172 28.2415 29.2267 28.2245C29.2587 28.1685 29.2892 28.111 29.3187 28.0535C29.3302 28.032 29.3412 28.0105 29.3522 27.989C29.3817 27.93 29.4112 27.871 29.4392 27.811C29.4442 27.8 29.4492 27.7885 29.4542 27.7775C29.5182 27.6395 29.5777 27.499 29.6317 27.3555C29.7247 27.1085 29.8022 26.855 29.8652 26.595H26.4002C26.2887 26.8705 26.1392 27.1265 25.9557 27.3555C25.8167 27.5285 25.6597 27.686 25.4867 27.825C25.4842 27.827 25.4817 27.829 25.4797 27.8305C25.4402 27.862 25.4002 27.8925 25.3597 27.922C25.3532 27.9265 25.3467 27.931 25.3402 27.9355C25.3027 27.962 25.2647 27.988 25.2257 28.013C25.2177 28.018 25.2097 28.0235 25.2017 28.0285C25.1632 28.053 25.1242 28.076 25.0842 28.0985C25.0767 28.103 25.0687 28.1075 25.0612 28.112C25.0177 28.1365 24.9737 28.1595 24.9287 28.1815C24.9252 28.1835 24.9212 28.1855 24.9172 28.1875C24.8187 28.236 24.7172 28.279 24.6127 28.3165C24.6037 28.32 24.5942 28.323 24.5847 28.326C24.5437 28.3405 24.5022 28.354 24.4602 28.3665C24.4442 28.3715 24.4277 28.376 24.4112 28.381C24.3757 28.391 24.3402 28.4005 24.3042 28.409C24.2847 28.414 24.2657 28.418 24.2462 28.4225C24.2122 28.43 24.1782 28.437 24.1437 28.4435C24.1232 28.4475 24.1027 28.451 24.0822 28.4545C24.0477 28.46 24.0132 28.465 23.9782 28.4695C23.9577 28.472 23.9377 28.475 23.9167 28.4775C23.8792 28.4815 23.8417 28.4845 23.8037 28.4875C23.7857 28.4885 23.7682 28.4905 23.7502 28.4915C23.6942 28.4945 23.6382 28.4965 23.5812 28.4965C21.9007 28.4965 20.5387 27.134 20.5387 25.4535V25.074H26.1307H30.0472V22.0305C30.0472 18.4595 27.1522 15.5645 23.5812 15.5645Z" fill="#717374"/>
</g>
<mask id="mask5_6558_5022" style="mask-type:luminance" maskUnits="userSpaceOnUse" x="0" y="11" width="121" height="34">
<path d="M0 44.85H120.572V11H0V44.85Z" fill="#00A161"/>
</mask>
<g mask="url(#mask5_6558_5022)">
<path fill-rule="evenodd" clip-rule="evenodd" d="M102.313 15.5645C101.028 15.5645 99.8431 15.989 98.8896 16.7055V15.9445H95.0861L95.0871 26.672L98.8896 22.8695V21.269C98.8896 19.799 100.082 18.607 101.552 18.607C103.022 18.607 104.214 19.799 104.214 21.2695V26.597L108.018 22.794V21.2695C108.018 18.119 105.463 15.5645 102.313 15.5645Z" fill="#717374"/>
</g>
<mask id="mask6_6558_5022" style="mask-type:luminance" maskUnits="userSpaceOnUse" x="0" y="11" width="121" height="34">
<path d="M0 44.85H120.572V11H0V44.85Z" fill="#888889"/>
</mask>
<g mask="url(#mask6_6558_5022)">
<path fill-rule="evenodd" clip-rule="evenodd" d="M0 37.0859H4.3105V37.8129H0.7845V39.6144H4.0435V40.3014H0.7845V42.3129H4.371V43.0199H0V37.0859Z" fill="#717374"/>
</g>
<mask id="mask7_6558_5022" style="mask-type:luminance" maskUnits="userSpaceOnUse" x="0" y="11" width="121" height="34">
<path d="M0 44.85H120.572V11H0V44.85Z" fill="#888889"/>
</mask>
<g mask="url(#mask7_6558_5022)">
<path fill-rule="evenodd" clip-rule="evenodd" d="M5.16309 43.0209H5.89109V37.0869H5.16309V43.0209Z" fill="#717374"/>
</g>
<mask id="mask8_6558_5022" style="mask-type:luminance" maskUnits="userSpaceOnUse" x="0" y="11" width="121" height="34">
<path d="M0 44.85H120.572V11H0V44.85Z" fill="#888889"/>
</mask>
<g mask="url(#mask8_6558_5022)">
<path fill-rule="evenodd" clip-rule="evenodd" d="M10.1583 40.5122C10.1288 40.1972 10.0608 39.9452 9.95383 39.7567C9.75583 39.4067 9.42583 39.2317 8.96333 39.2317C8.63183 39.2317 8.35383 39.3522 8.12933 39.5932C7.90483 39.8342 7.78583 40.1407 7.77283 40.5122H10.1583ZM9.89783 38.8137C10.1843 38.9577 10.4028 39.1442 10.5528 39.3732C10.6973 39.5912 10.7938 39.8457 10.8418 40.1367C10.8848 40.3357 10.9063 40.6537 10.9063 41.0897H7.75633C7.76983 41.5302 7.87283 41.8832 8.06533 42.1492C8.25783 42.4152 8.55633 42.5482 8.96033 42.5482C9.33683 42.5482 9.63833 42.4222 9.86283 42.1707C9.98833 42.0247 10.0778 41.8557 10.1298 41.6637H10.8458C10.8268 41.8222 10.7638 41.9992 10.6578 42.1947C10.5508 42.3902 10.4323 42.5497 10.3013 42.6732C10.0818 42.8887 9.81033 43.0342 9.48683 43.1097C9.31283 43.1527 9.11633 43.1742 8.89683 43.1742C8.36133 43.1742 7.90683 42.9782 7.53433 42.5867C7.16233 42.1947 6.97583 41.6457 6.97583 40.9402C6.97583 40.2457 7.16333 39.6812 7.53833 39.2477C7.91383 38.8142 8.40383 38.5977 9.00933 38.5977C9.31483 38.5977 9.61083 38.6697 9.89783 38.8137Z" fill="#717374"/>
</g>
<mask id="mask9_6558_5022" style="mask-type:luminance" maskUnits="userSpaceOnUse" x="0" y="11" width="121" height="34">
<path d="M0 44.85H120.572V11H0V44.85Z" fill="#888889"/>
</mask>
<g mask="url(#mask9_6558_5022)">
<path fill-rule="evenodd" clip-rule="evenodd" d="M14.9292 38.9239C15.2352 39.1609 15.4192 39.5689 15.4812 40.1479H14.7737C14.7302 39.8814 14.6322 39.6599 14.4782 39.4834C14.3247 39.3069 14.0782 39.2189 13.7382 39.2189C13.2747 39.2189 12.9432 39.4449 12.7437 39.8964C12.6142 40.1899 12.5497 40.5519 12.5497 40.9819C12.5497 41.4149 12.6412 41.7794 12.8247 42.0754C13.0077 42.3714 13.2962 42.5189 13.6897 42.5189C13.9917 42.5189 14.2312 42.4274 14.4077 42.2434C14.5842 42.0599 14.7062 41.8079 14.7737 41.4889H15.4812C15.4002 42.0624 15.1982 42.4819 14.8747 42.7474C14.5512 43.0124 14.1372 43.1454 13.6332 43.1454C13.0672 43.1454 12.6157 42.9384 12.2787 42.5249C11.9417 42.1119 11.7732 41.5954 11.7732 40.9759C11.7732 40.2164 11.9577 39.6254 12.3272 39.2029C12.6967 38.7799 13.1667 38.5684 13.7382 38.5684C14.2262 38.5684 14.6232 38.6869 14.9292 38.9239Z" fill="#717374"/>
</g>
<mask id="mask10_6558_5022" style="mask-type:luminance" maskUnits="userSpaceOnUse" x="0" y="11" width="121" height="34">
<path d="M0 44.85H120.572V11H0V44.85Z" fill="#888889"/>
</mask>
<g mask="url(#mask10_6558_5022)">
<path fill-rule="evenodd" clip-rule="evenodd" d="M16.5948 37.4863H17.3308V38.6938H18.0218V39.2878H17.3308V42.1113C17.3308 42.2623 17.3818 42.3633 17.4843 42.4143C17.5408 42.4443 17.6353 42.4588 17.7673 42.4588C17.8023 42.4588 17.8403 42.4578 17.8803 42.4558C17.9208 42.4543 17.9683 42.4498 18.0218 42.4428V43.0203C17.9388 43.0443 17.8518 43.0618 17.7613 43.0728C17.6708 43.0833 17.5733 43.0888 17.4683 43.0888C17.1283 43.0888 16.8983 43.0018 16.7768 42.8283C16.6553 42.6548 16.5948 42.4293 16.5948 42.1518V39.2878H16.0083V38.6938H16.5948V37.4863Z" fill="#717374"/>
</g>
<mask id="mask11_6558_5022" style="mask-type:luminance" maskUnits="userSpaceOnUse" x="0" y="11" width="121" height="34">
<path d="M0 44.85H120.572V11H0V44.85Z" fill="#888889"/>
</mask>
<g mask="url(#mask11_6558_5022)">
<path fill-rule="evenodd" clip-rule="evenodd" d="M19.0103 38.6937H19.7018V39.4407C19.7583 39.2957 19.8973 39.1182 20.1183 38.9097C20.3393 38.7012 20.5938 38.5967 20.8823 38.5967C20.8958 38.5967 20.9188 38.5982 20.9513 38.6007C20.9838 38.6037 21.0388 38.6087 21.1173 38.6167V39.3842C21.0738 39.3762 21.0343 39.3712 20.9978 39.3682C20.9613 39.3657 20.9213 39.3642 20.8783 39.3642C20.5118 39.3642 20.2303 39.4822 20.0333 39.7177C19.8368 39.9532 19.7383 40.2247 19.7383 40.5317V43.0197H19.0103V38.6937Z" fill="#717374"/>
</g>
<mask id="mask12_6558_5022" style="mask-type:luminance" maskUnits="userSpaceOnUse" x="0" y="11" width="121" height="34">
<path d="M0 44.85H120.572V11H0V44.85Z" fill="#888889"/>
</mask>
<g mask="url(#mask12_6558_5022)">
<path fill-rule="evenodd" clip-rule="evenodd" d="M24.6736 42.0013C24.8511 41.6368 24.9396 41.2313 24.9396 40.7848C24.9396 40.3813 24.8756 40.0533 24.7476 39.8003C24.5451 39.4023 24.1961 39.2033 23.7001 39.2033C23.2601 39.2033 22.9401 39.3728 22.7406 39.7118C22.5406 40.0508 22.4406 40.4593 22.4406 40.9383C22.4406 41.3983 22.5406 41.7813 22.7406 42.0883C22.9401 42.3948 23.2576 42.5478 23.6921 42.5478C24.1691 42.5478 24.4961 42.3658 24.6736 42.0013ZM25.1256 39.1263C25.5081 39.4973 25.6996 40.0433 25.6996 40.7648C25.6996 41.4618 25.5311 42.0373 25.1941 42.4923C24.8566 42.9468 24.3331 43.1743 23.6241 43.1743C23.0321 43.1743 22.5626 42.9733 22.2146 42.5708C21.8666 42.1688 21.6926 41.6283 21.6926 40.9503C21.6926 40.2238 21.8761 39.6453 22.2426 39.2148C22.6096 38.7843 23.1021 38.5693 23.7201 38.5693C24.2746 38.5693 24.7426 38.7548 25.1256 39.1263Z" fill="#717374"/>
</g>
<mask id="mask13_6558_5022" style="mask-type:luminance" maskUnits="userSpaceOnUse" x="0" y="11" width="121" height="34">
<path d="M0 44.85H120.572V11H0V44.85Z" fill="#888889"/>
</mask>
<g mask="url(#mask13_6558_5022)">
<path fill-rule="evenodd" clip-rule="evenodd" d="M26.8337 38.6937H27.5252V39.3077C27.7297 39.0547 27.9467 38.8727 28.1762 38.7622C28.4052 38.6517 28.6597 38.5967 28.9402 38.5967C29.5547 38.5967 29.9702 38.8107 30.1857 39.2387C30.3042 39.4732 30.3637 39.8087 30.3637 40.2447V43.0197H29.6237V40.2932C29.6237 40.0292 29.5842 39.8167 29.5062 39.6552C29.3767 39.3857 29.1427 39.2512 28.8027 39.2512C28.6302 39.2512 28.4887 39.2687 28.3782 39.3037C28.1787 39.3627 28.0037 39.4812 27.8527 39.6592C27.7312 39.8017 27.6522 39.9492 27.6162 40.1012C27.5797 40.2537 27.5617 40.4707 27.5617 40.7537V43.0197H26.8337V38.6937Z" fill="#717374"/>
</g>
<mask id="mask14_6558_5022" style="mask-type:luminance" maskUnits="userSpaceOnUse" x="0" y="11" width="121" height="34">
<path d="M0 44.85H120.572V11H0V44.85Z" fill="#888889"/>
</mask>
<g mask="url(#mask14_6558_5022)">
<path fill-rule="evenodd" clip-rule="evenodd" d="M31.6794 43.0204H32.4194V38.7144H31.6794V43.0204ZM31.6794 37.9109H32.4194V37.0869H31.6794V37.9109Z" fill="#717374"/>
</g>
<mask id="mask15_6558_5022" style="mask-type:luminance" maskUnits="userSpaceOnUse" x="0" y="11" width="121" height="34">
<path d="M0 44.85H120.572V11H0V44.85Z" fill="#888889"/>
</mask>
<g mask="url(#mask15_6558_5022)">
<path fill-rule="evenodd" clip-rule="evenodd" d="M36.6201 38.9239C36.9261 39.1609 37.1101 39.5689 37.1721 40.1479H36.4646C36.4211 39.8814 36.3231 39.6599 36.1691 39.4834C36.0156 39.3069 35.7691 39.2189 35.4291 39.2189C34.9656 39.2189 34.6341 39.4449 34.4346 39.8964C34.3051 40.1899 34.2406 40.5519 34.2406 40.9819C34.2406 41.4149 34.3321 41.7794 34.5156 42.0754C34.6986 42.3714 34.9871 42.5189 35.3806 42.5189C35.6826 42.5189 35.9221 42.4274 36.0986 42.2434C36.2751 42.0599 36.3971 41.8079 36.4646 41.4889H37.1721C37.0911 42.0624 36.8891 42.4819 36.5656 42.7474C36.2421 43.0124 35.8281 43.1454 35.3241 43.1454C34.7581 43.1454 34.3066 42.9384 33.9696 42.5249C33.6326 42.1119 33.4641 41.5954 33.4641 40.9759C33.4641 40.2164 33.6486 39.6254 34.0181 39.2029C34.3876 38.7799 34.8581 38.5684 35.4291 38.5684C35.9171 38.5684 36.3141 38.6869 36.6201 38.9239Z" fill="#717374"/>
</g>
<mask id="mask16_6558_5022" style="mask-type:luminance" maskUnits="userSpaceOnUse" x="0" y="11" width="121" height="34">
<path d="M0 44.85H120.572V11H0V44.85Z" fill="#888889"/>
</mask>
<g mask="url(#mask16_6558_5022)">
<path fill-rule="evenodd" clip-rule="evenodd" d="M41.3036 41.105C41.3216 41.4415 41.3981 41.715 41.5336 41.925C41.7906 42.318 42.2436 42.515 42.8926 42.515C43.1836 42.515 43.4486 42.4715 43.6871 42.3855C44.1496 42.2185 44.3806 41.9195 44.3806 41.489C44.3806 41.1655 44.2826 40.9355 44.0871 40.798C43.8881 40.6635 43.5776 40.546 43.1546 40.4465L42.3751 40.265C41.8656 40.1465 41.5056 40.016 41.2936 39.873C40.9281 39.6255 40.7456 39.255 40.7456 38.762C40.7456 38.229 40.9251 37.7915 41.2846 37.4495C41.6441 37.1075 42.1526 36.9365 42.8116 36.9365C43.4171 36.9365 43.9321 37.0865 44.3556 37.3865C44.7791 37.687 44.9911 38.167 44.9911 38.827H44.2351C44.1961 38.509 44.1136 38.2655 43.9871 38.096C43.7516 37.786 43.3526 37.631 42.7891 37.631C42.3341 37.631 42.0071 37.7305 41.8081 37.93C41.6091 38.1295 41.5096 38.361 41.5096 38.625C41.5096 38.9155 41.6271 39.1285 41.8621 39.263C42.0161 39.349 42.3651 39.457 42.9081 39.586L43.7156 39.776C44.1046 39.8675 44.4051 39.993 44.6166 40.1515C44.9821 40.429 45.1651 40.832 45.1651 41.3595C45.1651 42.0165 44.9316 42.4865 44.4651 42.7695C43.9986 43.052 43.4561 43.1935 42.8386 43.1935C42.1181 43.1935 41.5541 43.005 41.1466 42.628C40.7391 42.2535 40.5391 41.746 40.5471 41.105H41.3036Z" fill="#717374"/>
</g>
<mask id="mask17_6558_5022" style="mask-type:luminance" maskUnits="userSpaceOnUse" x="0" y="11" width="121" height="34">
<path d="M0 44.85H120.572V11H0V44.85Z" fill="#888889"/>
</mask>
<g mask="url(#mask17_6558_5022)">
<path fill-rule="evenodd" clip-rule="evenodd" d="M46.4446 43.0204H47.1846V38.7144H46.4446V43.0204ZM46.4446 37.9109H47.1846V37.0869H46.4446V37.9109Z" fill="#717374"/>
</g>
<mask id="mask18_6558_5022" style="mask-type:luminance" maskUnits="userSpaceOnUse" x="0" y="11" width="121" height="34">
<path d="M0 44.85H120.572V11H0V44.85Z" fill="#888889"/>
</mask>
<g mask="url(#mask18_6558_5022)">
<path fill-rule="evenodd" clip-rule="evenodd" d="M51.0212 39.6472C50.8012 39.3887 50.5212 39.2592 50.1807 39.2592C49.6707 39.2592 49.3222 39.4992 49.1347 39.9787C49.0352 40.2342 48.9857 40.5697 48.9857 40.9842C48.9857 41.4717 49.0842 41.8427 49.2812 42.0972C49.4782 42.3517 49.7432 42.4787 50.0757 42.4787C50.5962 42.4787 50.9622 42.2432 51.1742 41.7717C51.2922 41.5052 51.3512 41.1942 51.3512 40.8387C51.3512 40.3027 51.2412 39.9057 51.0212 39.6472ZM50.9322 38.8677C51.0692 38.9617 51.2087 39.0992 51.3512 39.2797V38.7342H52.0222V42.6687C52.0222 43.2182 51.9417 43.6517 51.7807 43.9692C51.4797 44.5562 50.9112 44.8497 50.0757 44.8497C49.6112 44.8497 49.2202 44.7457 48.9032 44.5367C48.5862 44.3282 48.4087 44.0017 48.3712 43.5572H49.1112C49.1457 43.7512 49.2157 43.9007 49.3202 44.0057C49.4837 44.1672 49.7412 44.2482 50.0922 44.2482C50.6472 44.2482 51.0107 44.0517 51.1822 43.6582C51.2842 43.4267 51.3312 43.0132 51.3227 42.4182C51.1777 42.6392 51.0032 42.8032 50.7992 42.9112C50.5952 43.0187 50.3252 43.0727 49.9897 43.0727C49.5222 43.0727 49.1137 42.9062 48.7632 42.5737C48.4127 42.2412 48.2377 41.6912 48.2377 40.9237C48.2377 40.1992 48.4142 39.6337 48.7672 39.2272C49.1202 38.8202 49.5467 38.6172 50.0462 38.6172C50.3842 38.6172 50.6797 38.7007 50.9322 38.8677Z" fill="#717374"/>
</g>
<mask id="mask19_6558_5022" style="mask-type:luminance" maskUnits="userSpaceOnUse" x="0" y="11" width="121" height="34">
<path d="M0 44.85H120.572V11H0V44.85Z" fill="#888889"/>
</mask>
<g mask="url(#mask19_6558_5022)">
<path fill-rule="evenodd" clip-rule="evenodd" d="M53.3704 38.6937H54.0619V39.3077C54.2664 39.0547 54.4839 38.8727 54.7129 38.7622C54.9419 38.6517 55.1964 38.5967 55.4769 38.5967C56.0914 38.5967 56.5069 38.8107 56.7224 39.2387C56.8409 39.4732 56.9004 39.8087 56.9004 40.2447V43.0197H56.1604V40.2932C56.1604 40.0292 56.1209 39.8167 56.0429 39.6552C55.9139 39.3857 55.6794 39.2512 55.3394 39.2512C55.1669 39.2512 55.0254 39.2687 54.9149 39.3037C54.7154 39.3627 54.5404 39.4812 54.3894 39.6592C54.2679 39.8017 54.1889 39.9492 54.1529 40.1012C54.1164 40.2537 54.0984 40.4707 54.0984 40.7537V43.0197H53.3704V38.6937Z" fill="#717374"/>
</g>
<mask id="mask20_6558_5022" style="mask-type:luminance" maskUnits="userSpaceOnUse" x="0" y="11" width="121" height="34">
<path d="M0 44.85H120.572V11H0V44.85Z" fill="#888889"/>
</mask>
<g mask="url(#mask20_6558_5022)">
<path fill-rule="evenodd" clip-rule="evenodd" d="M59.0046 42.3664C59.1581 42.4874 59.34 42.5479 59.55 42.5479C59.8065 42.5479 60.0545 42.4889 60.294 42.3704C60.6985 42.1739 60.9006 41.8529 60.9006 41.4064V40.8219C60.8121 40.8784 60.6975 40.9254 60.558 40.9634C60.418 41.0014 60.2805 41.0284 60.146 41.0444L59.7066 41.1009C59.4431 41.1359 59.2445 41.1909 59.1115 41.2664C58.8865 41.3924 58.7741 41.5939 58.7741 41.8709C58.7741 42.0804 58.8511 42.2454 59.0046 42.3664ZM60.537 40.4024C60.704 40.3809 60.8161 40.3109 60.8726 40.1924C60.9051 40.1279 60.9211 40.0344 60.9211 39.9124C60.9211 39.6639 60.8331 39.4834 60.6566 39.3714C60.4806 39.2594 60.2281 39.2034 59.9001 39.2034C59.5206 39.2034 59.2515 39.3059 59.093 39.5119C59.0045 39.6254 58.9466 39.7944 58.9196 40.0189H58.2401C58.2536 39.4844 58.4265 39.1124 58.759 38.9029C59.0915 38.6939 59.4775 38.5889 59.9165 38.5889C60.425 38.5889 60.8386 38.6859 61.1561 38.8799C61.4711 39.0739 61.6286 39.3754 61.6286 39.7849V42.2774C61.6286 42.3529 61.644 42.4134 61.675 42.4589C61.706 42.5049 61.7716 42.5274 61.8711 42.5274C61.9036 42.5274 61.94 42.5254 61.9805 42.5214C62.021 42.5174 62.064 42.5114 62.11 42.5034V43.0409C61.9965 43.0729 61.9106 43.0934 61.8511 43.1009C61.7916 43.1094 61.7111 43.1134 61.6086 43.1134C61.3576 43.1134 61.176 43.0244 61.0625 42.8469C61.003 42.7524 60.9615 42.6194 60.937 42.4469C60.789 42.6409 60.576 42.8089 60.2985 42.9519C60.021 43.0944 59.7146 43.1659 59.3806 43.1659C58.9791 43.1659 58.6505 43.0439 58.396 42.8009C58.141 42.5574 58.0135 42.2529 58.0135 41.8869C58.0135 41.4864 58.139 41.1754 58.3895 40.9549C58.6405 40.7344 58.969 40.5989 59.3765 40.5474L60.537 40.4024Z" fill="#717374"/>
</g>
<mask id="mask21_6558_5022" style="mask-type:luminance" maskUnits="userSpaceOnUse" x="0" y="11" width="121" height="34">
<path d="M0 44.85H120.572V11H0V44.85Z" fill="#888889"/>
</mask>
<g mask="url(#mask21_6558_5022)">
<path fill-rule="evenodd" clip-rule="evenodd" d="M63.2074 37.4863H63.9434V38.6938H64.6343V39.2878H63.9434V42.1113C63.9434 42.2623 63.9944 42.3633 64.0969 42.4143C64.1534 42.4443 64.2478 42.4588 64.3798 42.4588C64.4148 42.4588 64.4528 42.4578 64.4928 42.4558C64.5333 42.4543 64.5808 42.4498 64.6343 42.4428V43.0203C64.5513 43.0443 64.4639 43.0618 64.3739 43.0728C64.2834 43.0833 64.1859 43.0888 64.0809 43.0888C63.7409 43.0888 63.5104 43.0018 63.3894 42.8283C63.2679 42.6548 63.2074 42.4293 63.2074 42.1518V39.2878H62.6208V38.6938H63.2074V37.4863Z" fill="#717374"/>
</g>
<mask id="mask22_6558_5022" style="mask-type:luminance" maskUnits="userSpaceOnUse" x="0" y="11" width="121" height="34">
<path d="M0 44.85H120.572V11H0V44.85Z" fill="#888889"/>
</mask>
<g mask="url(#mask22_6558_5022)">
<path fill-rule="evenodd" clip-rule="evenodd" d="M66.3304 38.6943V41.5663C66.3304 41.7873 66.3644 41.9678 66.4329 42.1078C66.5589 42.3658 66.7939 42.4953 67.1379 42.4953C67.6314 42.4953 67.9674 42.2693 68.1459 41.8168C68.2429 41.5743 68.2914 41.2418 68.2914 40.8188V38.6943H69.0194V43.0203H68.3319L68.3399 42.3823C68.2474 42.5463 68.1324 42.6853 67.9949 42.7983C67.7224 43.0243 67.3914 43.1378 67.0029 43.1378C66.3969 43.1378 65.9844 42.9318 65.7649 42.5193C65.6459 42.2988 65.5864 42.0038 65.5864 41.6348V38.6943H66.3304Z" fill="#717374"/>
</g>
<mask id="mask23_6558_5022" style="mask-type:luminance" maskUnits="userSpaceOnUse" x="0" y="11" width="121" height="34">
<path d="M0 44.85H120.572V11H0V44.85Z" fill="#888889"/>
</mask>
<g mask="url(#mask23_6558_5022)">
<path fill-rule="evenodd" clip-rule="evenodd" d="M70.4685 38.6937H71.16V39.4407C71.2165 39.2957 71.3555 39.1182 71.5765 38.9097C71.7975 38.7012 72.052 38.5967 72.3405 38.5967C72.354 38.5967 72.377 38.5982 72.4095 38.6007C72.442 38.6037 72.497 38.6087 72.5755 38.6167V39.3842C72.532 39.3762 72.4925 39.3712 72.456 39.3682C72.4195 39.3657 72.3795 39.3642 72.3365 39.3642C71.97 39.3642 71.6885 39.4822 71.4915 39.7177C71.295 39.9532 71.1965 40.2247 71.1965 40.5317V43.0197H70.4685V38.6937Z" fill="#717374"/>
</g>
<mask id="mask24_6558_5022" style="mask-type:luminance" maskUnits="userSpaceOnUse" x="0" y="11" width="121" height="34">
<path d="M0 44.85H120.572V11H0V44.85Z" fill="#888889"/>
</mask>
<g mask="url(#mask24_6558_5022)">
<path fill-rule="evenodd" clip-rule="evenodd" d="M76.382 40.5122C76.3525 40.1972 76.2845 39.9452 76.1775 39.7567C75.9795 39.4067 75.6495 39.2317 75.187 39.2317C74.8555 39.2317 74.5775 39.3522 74.353 39.5932C74.1285 39.8342 74.0095 40.1407 73.9965 40.5122H76.382ZM76.1215 38.8137C76.408 38.9577 76.6265 39.1442 76.7765 39.3732C76.921 39.5912 77.0175 39.8457 77.0655 40.1367C77.1085 40.3357 77.13 40.6537 77.13 41.0897H73.98C73.9935 41.5302 74.0965 41.8832 74.289 42.1492C74.482 42.4152 74.78 42.5482 75.184 42.5482C75.561 42.5482 75.862 42.4222 76.0865 42.1707C76.212 42.0247 76.3015 41.8557 76.3535 41.6637H77.0695C77.0505 41.8222 76.9875 41.9992 76.8815 42.1947C76.775 42.3902 76.656 42.5497 76.525 42.6732C76.3055 42.8887 76.034 43.0342 75.7105 43.1097C75.5365 43.1527 75.34 43.1742 75.1205 43.1742C74.585 43.1742 74.1305 42.9782 73.758 42.5867C73.386 42.1947 73.1995 41.6457 73.1995 40.9402C73.1995 40.2457 73.387 39.6812 73.7625 39.2477C74.1375 38.8142 74.6275 38.5977 75.233 38.5977C75.5385 38.5977 75.8345 38.6697 76.1215 38.8137Z" fill="#717374"/>
</g>
</g>
</svg>
