<svg width="56" height="56" viewBox="0 0 56 56" fill="none" xmlns="http://www.w3.org/2000/svg">
<path fill-rule="evenodd" clip-rule="evenodd" d="M48.0922 28.1765L45.9901 26.0744L44.4258 27.6385L48.0922 31.3049L55.9997 23.3973L54.4357 21.833L48.0922 28.1765Z" fill="#717374"/>
<path fill-rule="evenodd" clip-rule="evenodd" d="M39.7469 27.9497C39.0639 27.9497 38.5103 27.3961 38.5103 26.7131V25.6532V25.1233V24.7701C38.5103 24.0871 39.0639 23.5335 39.7469 23.5335C40.4299 23.5335 40.9833 24.0871 40.9835 24.7698V26.7133C40.9833 27.3963 40.4299 27.9497 39.7469 27.9497ZM42.7501 22.2968H40.9835V22.6538C40.5402 22.3203 39.991 22.1201 39.3937 22.1201C37.9302 22.1201 36.7437 23.3066 36.7437 24.7701V25.1233V25.6532V26.7131C36.7437 28.1766 37.9302 29.3628 39.3937 29.3628C39.991 29.3628 40.5402 29.1629 40.9835 28.8294V29.4664C40.9835 30.0516 40.5088 30.5263 39.9236 30.5263H39.5704C39.2564 30.5263 38.9745 30.3897 38.7806 30.1731H36.8399C37.1492 31.2931 38.175 32.1161 39.3937 32.1161H40.1001C41.5636 32.1161 42.7501 30.9297 42.7501 29.4664V22.2968Z" fill="#717374"/>
<path fill-rule="evenodd" clip-rule="evenodd" d="M31.7253 24.7878C31.3995 24.5145 30.9046 24.2934 30.2546 24.1309L28.7723 23.7593C28.2052 23.6183 27.8294 23.4941 27.6562 23.3901C27.3901 23.2363 27.2607 23.0111 27.2607 22.7013C27.2607 22.3618 27.3926 22.104 27.6639 21.9138C27.9365 21.7227 28.3076 21.6258 28.7667 21.6258C29.1801 21.6258 29.53 21.7008 29.8076 21.8485C30.1775 22.0475 30.3893 22.3585 30.4543 22.7986H32.2134C32.1493 21.9187 31.8119 21.2322 31.21 20.7575C30.5721 20.2548 29.7913 20 28.8896 20C27.8095 20 26.9781 20.2708 26.4189 20.8051C25.8576 21.3411 25.5731 22.0243 25.5731 22.8353C25.5731 23.7249 25.8648 24.3884 26.4403 24.8071C26.7777 25.0558 27.4038 25.2887 28.3016 25.4996L29.2161 25.713C29.7463 25.8336 30.138 25.9738 30.3807 26.1299C30.6199 26.2876 30.736 26.5031 30.736 26.7889C30.736 27.2847 30.4957 27.6152 30.0008 27.7989C29.7395 27.8948 29.3937 27.9436 28.9729 27.9436C28.2744 27.9436 27.7753 27.7606 27.4895 27.3995C27.3894 27.2724 27.2872 27.0305 27.2496 26.879L27.2461 26.8653C27.237 26.8286 27.2266 26.7868 27.2212 26.7469C27.2124 26.6833 27.2048 26.5702 27.2036 26.536H25.4347C25.4343 26.5899 25.4412 26.72 25.4445 26.7622C25.4445 26.7622 25.4487 26.8196 25.4503 26.8361C25.5193 27.6222 25.84 28.2601 26.4031 28.7322C27.042 29.2677 27.9298 29.5392 29.0421 29.5392C30.1317 29.5392 30.988 29.2633 31.5864 28.7192C32.1877 28.173 32.4923 27.4763 32.4923 26.6489C32.4923 25.841 32.2343 25.2149 31.7253 24.7878Z" fill="#717374"/>
<path fill-rule="evenodd" clip-rule="evenodd" d="M19.5845 25.7554C19.3326 25.5387 18.955 25.3648 18.4619 25.2385L17.3716 24.9582C16.8644 24.8288 16.6603 24.7417 16.5774 24.6906C16.416 24.5952 16.3408 24.4614 16.3408 24.2703C16.3408 24.052 16.4202 23.8932 16.5906 23.7706C16.7736 23.6391 17.027 23.5725 17.3435 23.5725C17.6308 23.5725 17.8723 23.6247 18.0611 23.7278C18.3084 23.8641 18.4471 24.0803 18.4847 24.3883L18.4933 24.4568H19.99L19.9849 24.3725C19.9424 23.6572 19.6793 23.0992 19.203 22.7139C18.7153 22.3198 18.1201 22.1201 17.4339 22.1201C16.6127 22.1201 15.9778 22.3342 15.5468 22.7567C15.1111 23.1833 14.8903 23.7267 14.8903 24.3713C14.8903 25.0817 15.12 25.6133 15.5726 25.9509C15.832 26.1469 16.305 26.3288 16.9787 26.4911L17.6517 26.652C18.0302 26.7403 18.3073 26.8413 18.4749 26.9516C18.6196 27.0494 18.687 27.1771 18.687 27.3529C18.687 27.6775 18.5374 27.8856 18.2165 28.0078C18.0353 28.0761 17.7927 28.1107 17.4952 28.1107C17.0138 28.1107 16.6738 27.9862 16.4845 27.7412C16.4432 27.6873 16.407 27.62 16.3761 27.5401C16.3617 27.5027 16.3475 27.459 16.341 27.4149C16.3319 27.3541 16.3259 27.2888 16.3289 27.2431H14.7999C14.8006 27.2521 14.7983 27.325 14.8046 27.4198C14.8081 27.475 14.8141 27.5289 14.8222 27.5821C14.9051 28.1232 15.1455 28.5674 15.5403 28.9067C16.0289 29.3268 16.7037 29.54 17.546 29.54C18.3732 29.54 19.0258 29.3226 19.4856 28.8942C19.9517 28.4597 20.1881 27.9056 20.1881 27.2472C20.1881 26.6019 19.9849 26.1 19.5845 25.7554Z" fill="#717374"/>
<mask id="mask0_8348_11352" style="mask-type:luminance" maskUnits="userSpaceOnUse" x="0" y="20" width="56" height="16">
<path d="M0 35.7218H56V20H0V35.7218Z" fill="#00A161"/>
</mask>
<g mask="url(#mask0_8348_11352)">
<path fill-rule="evenodd" clip-rule="evenodd" d="M33.7408 29.3626H35.5073V22.2964H33.7408V29.3626Z" fill="#717374"/>
</g>
<mask id="mask1_8348_11352" style="mask-type:luminance" maskUnits="userSpaceOnUse" x="0" y="20" width="56" height="16">
<path d="M0 35.7218H56V20H0V35.7218Z" fill="#00A161"/>
</mask>
<g mask="url(#mask1_8348_11352)">
<path fill-rule="evenodd" clip-rule="evenodd" d="M33.7408 21.5899H35.5073V20.1768H33.7408V21.5899Z" fill="#717374"/>
</g>
<mask id="mask2_8348_11352" style="mask-type:luminance" maskUnits="userSpaceOnUse" x="0" y="20" width="56" height="16">
<path d="M0 35.7218H56V20H0V35.7218Z" fill="#00A161"/>
</mask>
<g mask="url(#mask2_8348_11352)">
<path fill-rule="evenodd" clip-rule="evenodd" d="M23.4948 20L21.7283 21.0599V22.2965H20.6684V23.7096H21.7283V27.8739C21.7283 28.6962 22.3948 29.3625 23.2169 29.3625H24.5547V27.7726H23.9003C23.6764 27.7726 23.4948 27.5913 23.4948 27.3672V23.7096H24.5547V22.2965H23.4948V20Z" fill="#717374"/>
</g>
<mask id="mask3_8348_11352" style="mask-type:luminance" maskUnits="userSpaceOnUse" x="0" y="20" width="56" height="16">
<path d="M0 35.7218H56V20H0V35.7218Z" fill="#00A161"/>
</mask>
<g mask="url(#mask3_8348_11352)">
<path fill-rule="evenodd" clip-rule="evenodd" d="M4.14932 27.9494H1.76644V25.2997H1.88697H3.97121H3.9726C3.9726 25.2997 3.9733 25.2997 3.97376 25.2997H4.12215C4.80003 25.2997 5.42193 25.8505 5.4707 26.5266C5.52643 27.3024 4.91358 27.9494 4.14932 27.9494ZM1.76644 21.5899H3.9726C4.64141 21.5899 5.17647 22.1614 5.11632 22.8425C5.06384 23.4386 4.54527 23.8864 3.94682 23.8864H1.81706H1.76644V21.5899ZM6.02897 24.4797C6.45302 24.0227 6.71288 23.4108 6.71288 22.7382C6.71288 21.3235 5.56591 20.1768 4.15141 20.1768H4.15072H1.76644H0.000118256V21.5899V23.8864V25.2997V27.9494V29.3625H1.76644H4.32767C5.83994 29.3625 7.0661 28.1368 7.0661 26.6246C7.0661 25.7553 6.66063 24.9813 6.02897 24.4797Z" fill="#717374"/>
</g>
<mask id="mask4_8348_11352" style="mask-type:luminance" maskUnits="userSpaceOnUse" x="0" y="20" width="56" height="16">
<path d="M0 35.7218H56V20H0V35.7218Z" fill="#00A161"/>
</mask>
<g mask="url(#mask4_8348_11352)">
<path fill-rule="evenodd" clip-rule="evenodd" d="M12.3657 25.1235H9.53931V24.9468C9.53931 24.9175 9.54024 24.8887 9.54209 24.8599C9.54233 24.8576 9.54256 24.8551 9.54279 24.8525C9.54465 24.8246 9.5472 24.7972 9.55069 24.7701C9.58389 24.5046 9.69049 24.262 9.84956 24.0634C9.91412 23.9828 9.98727 23.9099 10.0676 23.8451C10.0686 23.8444 10.0697 23.8435 10.0706 23.8425C10.089 23.8279 10.1078 23.8138 10.1266 23.8C10.1296 23.798 10.1326 23.7961 10.1354 23.794C10.1529 23.7815 10.1707 23.7696 10.1888 23.758C10.1926 23.7555 10.1963 23.7531 10.2 23.7508C10.2179 23.7394 10.236 23.7285 10.2546 23.7181C10.258 23.716 10.2615 23.7139 10.2652 23.7118C10.2855 23.7007 10.3059 23.69 10.3268 23.6795C10.3284 23.6786 10.3303 23.6777 10.3319 23.677C10.3779 23.6544 10.425 23.6342 10.4736 23.6168C10.4777 23.6154 10.4821 23.614 10.4863 23.6124C10.5056 23.6059 10.5249 23.5994 10.5444 23.5936C10.5518 23.5913 10.5595 23.5892 10.5671 23.5871C10.5836 23.5825 10.6001 23.578 10.6168 23.5739C10.6257 23.5718 10.6347 23.5697 10.6438 23.5678C10.6596 23.5641 10.6754 23.5611 10.6914 23.5581C10.7009 23.5562 10.7104 23.5544 10.72 23.553C10.736 23.5502 10.752 23.5479 10.7683 23.5458C10.7775 23.5446 10.7871 23.5432 10.7966 23.5423C10.814 23.5402 10.8317 23.539 10.8493 23.5376C10.8577 23.5372 10.8658 23.5362 10.8741 23.5358C10.9002 23.5344 10.9262 23.5335 10.9524 23.5335C11.7329 23.5335 12.3657 24.1663 12.3657 24.9468V25.1235ZM10.9524 22.1201C10.9055 22.1201 10.8588 22.1215 10.8124 22.1238C10.798 22.1245 10.7838 22.1255 10.7696 22.1262C10.7367 22.1282 10.7037 22.1308 10.6712 22.1338C10.6559 22.1352 10.6408 22.1366 10.6254 22.1382C10.5901 22.1419 10.5551 22.1466 10.5202 22.1517C10.5096 22.1531 10.4989 22.1543 10.4884 22.1561C10.4438 22.1628 10.3995 22.1707 10.3558 22.1798C10.3437 22.1821 10.3319 22.1849 10.3198 22.1875C10.2875 22.1944 10.2555 22.2019 10.2234 22.2098C10.2079 22.2137 10.1926 22.2177 10.177 22.2218C10.1475 22.2297 10.1182 22.2381 10.089 22.2469C10.0748 22.2511 10.0602 22.2553 10.046 22.2599C10.0047 22.2727 9.96382 22.2866 9.92341 22.3013C9.91482 22.3043 9.90669 22.3078 9.8981 22.311C9.86535 22.3233 9.83284 22.3361 9.80079 22.3493C9.78477 22.3561 9.76921 22.363 9.75342 22.3698C9.72857 22.3807 9.70396 22.3918 9.67957 22.4032C9.66308 22.4109 9.6466 22.4188 9.63034 22.4267C9.60503 22.4392 9.57995 22.4522 9.5551 22.4652C9.54116 22.4726 9.527 22.4796 9.5133 22.4873C9.47777 22.5065 9.4427 22.5267 9.40833 22.5474C9.39161 22.5574 9.37535 22.5679 9.3591 22.5781C9.33913 22.5908 9.31915 22.6034 9.29942 22.6164C9.28153 22.6282 9.26412 22.6401 9.24647 22.6522C9.22859 22.6647 9.21094 22.6775 9.19306 22.6902C9.17564 22.703 9.15799 22.7153 9.1408 22.7286C9.12199 22.743 9.10342 22.7576 9.08484 22.7727C9.05511 22.7961 9.02608 22.8201 8.99752 22.8447C8.98312 22.857 8.96872 22.8693 8.95456 22.8818C8.93621 22.8983 8.91833 22.9148 8.90045 22.9318C8.88768 22.9436 8.87514 22.9557 8.8626 22.9677C8.84425 22.9856 8.82614 23.0033 8.80849 23.0214C8.79804 23.0321 8.78782 23.043 8.7776 23.0537C8.73766 23.0955 8.69911 23.1382 8.66195 23.1823C8.65824 23.1865 8.65452 23.1905 8.65104 23.1949C8.63292 23.2165 8.61527 23.2385 8.59762 23.2608C8.58926 23.2715 8.5809 23.282 8.57254 23.2926C8.55536 23.3149 8.53864 23.3375 8.52215 23.3602C8.51495 23.3702 8.50775 23.3802 8.50055 23.3904C8.44459 23.4696 8.39234 23.5516 8.3438 23.6361C8.33939 23.644 8.33474 23.6517 8.33033 23.6596C8.3157 23.6858 8.30154 23.7125 8.2876 23.7392C8.28249 23.7492 8.27738 23.7592 8.27227 23.7692C8.25857 23.7963 8.24487 23.824 8.23187 23.8518C8.22954 23.8569 8.22722 23.8621 8.2249 23.8674C8.19517 23.9315 8.16754 23.9967 8.14246 24.0632V24.0634C8.03865 24.3381 7.97433 24.6319 7.95575 24.9382C7.95552 24.9412 7.95505 24.9445 7.95505 24.9475C7.95157 25.0058 7.94948 25.0641 7.94948 25.1233V26.5366C7.94948 28.1952 9.29407 29.5395 10.9524 29.5395C10.9996 29.5395 11.0462 29.5382 11.0927 29.5361C11.1068 29.5354 11.1212 29.5344 11.1354 29.5335C11.1684 29.5317 11.2011 29.5291 11.2339 29.5261C11.2492 29.5247 11.2643 29.5233 11.2796 29.5217C11.3147 29.5177 11.35 29.5133 11.3848 29.5082C11.3953 29.5066 11.4059 29.5054 11.4166 29.5038C11.4612 29.4968 11.5053 29.4889 11.5492 29.4801C11.5613 29.4778 11.5732 29.4748 11.585 29.4722C11.6175 29.4652 11.6496 29.458 11.6816 29.4499C11.6972 29.4462 11.7125 29.442 11.7278 29.4381C11.7573 29.4302 11.7868 29.4218 11.8158 29.413C11.8302 29.4086 11.8446 29.4046 11.859 29.4C11.9001 29.387 11.9412 29.3733 11.9816 29.3584C11.99 29.3554 11.9984 29.3519 12.0067 29.3489C12.0395 29.3366 12.072 29.3238 12.1043 29.3103C12.12 29.3038 12.1358 29.2969 12.1516 29.2899C12.1765 29.2792 12.2009 29.2681 12.2255 29.2565C12.242 29.2488 12.2585 29.2411 12.2747 29.233C12.3 29.2207 12.3251 29.2077 12.35 29.1947C12.3639 29.1873 12.3781 29.1803 12.3918 29.1726C12.4273 29.1531 12.4621 29.1332 12.4967 29.1123C12.5132 29.1023 12.5295 29.0918 12.546 29.0816C12.5659 29.0691 12.5859 29.0563 12.6056 29.0433C12.6233 29.0317 12.6409 29.0196 12.6584 29.0075C12.6765 28.9952 12.6941 28.9824 12.712 28.9697C12.7294 28.9569 12.7468 28.9443 12.7642 28.9313C12.7831 28.9169 12.8016 28.9021 12.8202 28.8872C12.8497 28.8638 12.879 28.8396 12.9075 28.815C12.9219 28.8027 12.9361 28.7906 12.9503 28.7778C12.9686 28.7616 12.9867 28.7449 13.0046 28.7281C13.0174 28.7163 13.0299 28.7042 13.0425 28.6919C13.0608 28.6743 13.0789 28.6566 13.0966 28.6385C13.107 28.6278 13.1172 28.6169 13.1275 28.606C13.1672 28.5642 13.2057 28.5215 13.2431 28.4776C13.2468 28.4734 13.2505 28.4692 13.254 28.465C13.2721 28.4432 13.2898 28.4211 13.3072 28.3991C13.3158 28.3884 13.3241 28.3779 13.3323 28.367C13.3495 28.345 13.3664 28.3224 13.3829 28.2997C13.3901 28.2897 13.3973 28.2795 13.4043 28.2695C13.4605 28.1903 13.5127 28.1083 13.561 28.0236C13.5657 28.0159 13.5701 28.008 13.5745 28.0001C13.5894 27.9741 13.6035 27.9474 13.6172 27.9207C13.6226 27.9107 13.6277 27.9007 13.6328 27.8907C13.6465 27.8633 13.6602 27.8359 13.6732 27.8081C13.6755 27.803 13.6778 27.7976 13.6802 27.7925C13.7099 27.7284 13.7375 27.6632 13.7626 27.5965C13.8058 27.4818 13.8418 27.364 13.871 27.2433H12.2617C12.2099 27.3712 12.1405 27.4901 12.0553 27.5965C11.9907 27.6769 11.9178 27.75 11.8374 27.8146C11.8363 27.8155 11.8351 27.8164 11.8342 27.8171C11.8158 27.8317 11.7973 27.8459 11.7784 27.8596C11.7754 27.8617 11.7724 27.8638 11.7694 27.8659C11.752 27.8782 11.7343 27.8903 11.7162 27.9019C11.7125 27.9042 11.7088 27.9068 11.7051 27.9091C11.6872 27.9205 11.6691 27.9311 11.6505 27.9416C11.647 27.9437 11.6433 27.9458 11.6398 27.9479C11.6196 27.9592 11.5992 27.9699 11.5783 27.9801C11.5766 27.9811 11.5748 27.982 11.5729 27.9829C11.5272 28.0055 11.48 28.0254 11.4315 28.0428C11.4273 28.0445 11.4229 28.0459 11.4185 28.0473C11.3994 28.054 11.3802 28.0603 11.3607 28.0661C11.3532 28.0684 11.3456 28.0705 11.3379 28.0728C11.3214 28.0774 11.3049 28.0819 11.2882 28.0858C11.2792 28.0881 11.2703 28.09 11.2613 28.0921C11.2455 28.0956 11.2297 28.0988 11.2137 28.1018C11.2041 28.1037 11.1946 28.1053 11.1851 28.1069C11.1691 28.1095 11.1531 28.1118 11.1368 28.1139C11.1273 28.1151 11.118 28.1165 11.1082 28.1176C11.0908 28.1195 11.0734 28.1209 11.0558 28.1223C11.0474 28.1227 11.0393 28.1237 11.0309 28.1241C11.0049 28.1255 10.9789 28.1264 10.9524 28.1264C10.1719 28.1264 9.53931 27.4936 9.53931 26.7131V26.5368H12.1365H13.9556V25.1233C13.9556 23.4647 12.611 22.1201 10.9524 22.1201Z" fill="#717374"/>
</g>
<mask id="mask5_8348_11352" style="mask-type:luminance" maskUnits="userSpaceOnUse" x="0" y="20" width="56" height="16">
<path d="M0 35.7218H56V20H0V35.7218Z" fill="#00A161"/>
</mask>
<g mask="url(#mask5_8348_11352)">
<path fill-rule="evenodd" clip-rule="evenodd" d="M47.5195 22.1201C46.9229 22.1201 46.3726 22.3173 45.9297 22.6501V22.2966H44.1632L44.1636 27.279L45.9297 25.513V24.7696C45.9297 24.0869 46.4833 23.5332 47.1663 23.5332C47.8491 23.5332 48.4027 24.0869 48.4027 24.7698V27.2442L50.1693 25.4779V24.7698C50.1693 23.3066 48.9828 22.1201 47.5195 22.1201Z" fill="#717374"/>
</g>
<mask id="mask6_8348_11352" style="mask-type:luminance" maskUnits="userSpaceOnUse" x="0" y="20" width="56" height="16">
<path d="M0 35.7218H56V20H0V35.7218Z" fill="#888889"/>
</mask>
<g mask="url(#mask6_8348_11352)">
<path fill-rule="evenodd" clip-rule="evenodd" d="M0 32.1157H2.00203V32.4534H0.364365V33.2901H1.87802V33.6092H0.364365V34.5434H2.03013V34.8718H0V32.1157Z" fill="#717374"/>
</g>
<mask id="mask7_8348_11352" style="mask-type:luminance" maskUnits="userSpaceOnUse" x="0" y="20" width="56" height="16">
<path d="M0 35.7218H56V20H0V35.7218Z" fill="#888889"/>
</mask>
<g mask="url(#mask7_8348_11352)">
<path fill-rule="evenodd" clip-rule="evenodd" d="M2.39802 34.8723H2.73614V32.1162H2.39802V34.8723Z" fill="#717374"/>
</g>
<mask id="mask8_8348_11352" style="mask-type:luminance" maskUnits="userSpaceOnUse" x="0" y="20" width="56" height="16">
<path d="M0 35.7218H56V20H0V35.7218Z" fill="#888889"/>
</mask>
<g mask="url(#mask8_8348_11352)">
<path fill-rule="evenodd" clip-rule="evenodd" d="M4.71808 33.7071C4.70438 33.5608 4.6728 33.4437 4.6231 33.3562C4.53114 33.1936 4.37787 33.1123 4.16306 33.1123C4.00909 33.1123 3.87997 33.1683 3.7757 33.2802C3.67143 33.3922 3.61616 33.5345 3.61013 33.7071H4.71808ZM4.59709 32.9182C4.73016 32.9851 4.83164 33.0717 4.90131 33.1781C4.96842 33.2793 5.01324 33.3975 5.03554 33.5327C5.05551 33.6251 5.06549 33.7728 5.06549 33.9753H3.60246C3.60873 34.1799 3.65657 34.3438 3.74598 34.4674C3.83539 34.5909 3.97403 34.6527 4.16167 34.6527C4.33653 34.6527 4.47657 34.5942 4.58084 34.4774C4.63913 34.4096 4.68069 34.3311 4.70485 34.2419H5.0374C5.02857 34.3155 4.99931 34.3977 4.95008 34.4885C4.90038 34.5793 4.84534 34.6534 4.7845 34.7108C4.68255 34.8108 4.55645 34.8784 4.4062 34.9135C4.32539 34.9335 4.23412 34.9434 4.13217 34.9434C3.88346 34.9434 3.67236 34.8524 3.49935 34.6706C3.32658 34.4885 3.23996 34.2335 3.23996 33.9059C3.23996 33.5833 3.32704 33.3211 3.50121 33.1198C3.67561 32.9184 3.9032 32.8179 4.18442 32.8179C4.32632 32.8179 4.46379 32.8513 4.59709 32.9182Z" fill="#717374"/>
</g>
<mask id="mask9_8348_11352" style="mask-type:luminance" maskUnits="userSpaceOnUse" x="0" y="20" width="56" height="16">
<path d="M0 35.7218H56V20H0V35.7218Z" fill="#888889"/>
</mask>
<g mask="url(#mask9_8348_11352)">
<path fill-rule="evenodd" clip-rule="evenodd" d="M6.93394 32.9693C7.07606 33.0794 7.16152 33.2689 7.19031 33.5378H6.86171C6.84151 33.414 6.79599 33.3112 6.72447 33.2292C6.65317 33.1472 6.53868 33.1063 6.38077 33.1063C6.1655 33.1063 6.01153 33.2113 5.91887 33.421C5.85872 33.5573 5.82877 33.7254 5.82877 33.9252C5.82877 34.1263 5.87126 34.2956 5.95649 34.433C6.04149 34.5705 6.17548 34.639 6.35824 34.639C6.49851 34.639 6.60975 34.5965 6.69172 34.5111C6.7737 34.4258 6.83036 34.3088 6.86171 34.1606H7.19031C7.15269 34.427 7.05887 34.6218 6.90862 34.7452C6.75837 34.8682 6.56609 34.93 6.332 34.93C6.06912 34.93 5.85942 34.8339 5.7029 34.6418C5.54638 34.45 5.46812 34.2101 5.46812 33.9224C5.46812 33.5696 5.55381 33.2951 5.72542 33.0989C5.89704 32.9024 6.11533 32.8042 6.38077 32.8042C6.60742 32.8042 6.79181 32.8592 6.93394 32.9693Z" fill="#717374"/>
</g>
<mask id="mask10_8348_11352" style="mask-type:luminance" maskUnits="userSpaceOnUse" x="0" y="20" width="56" height="16">
<path d="M0 35.7218H56V20H0V35.7218Z" fill="#888889"/>
</mask>
<g mask="url(#mask10_8348_11352)">
<path fill-rule="evenodd" clip-rule="evenodd" d="M7.70751 32.3018H8.04935V32.8626H8.37028V33.1385H8.04935V34.4499C8.04935 34.52 8.07303 34.5669 8.12064 34.5906C8.14688 34.6045 8.19077 34.6113 8.25208 34.6113C8.26834 34.6113 8.28599 34.6108 8.30456 34.6099C8.32337 34.6092 8.34544 34.6071 8.37028 34.6038V34.872C8.33173 34.8832 8.29133 34.8913 8.24929 34.8964C8.20726 34.9013 8.16198 34.9039 8.11321 34.9039C7.95529 34.9039 7.84847 34.8635 7.79204 34.7829C7.73561 34.7023 7.70751 34.5976 7.70751 34.4687V33.1385H7.4351V32.8626H7.70751V32.3018Z" fill="#717374"/>
</g>
<mask id="mask11_8348_11352" style="mask-type:luminance" maskUnits="userSpaceOnUse" x="0" y="20" width="56" height="16">
<path d="M0 35.7218H56V20H0V35.7218Z" fill="#888889"/>
</mask>
<g mask="url(#mask11_8348_11352)">
<path fill-rule="evenodd" clip-rule="evenodd" d="M8.8294 32.8624H9.15057V33.2094C9.17681 33.142 9.24137 33.0596 9.34402 32.9628C9.44666 32.8659 9.56487 32.8174 9.69886 32.8174C9.70513 32.8174 9.71581 32.8181 9.73091 32.8192C9.746 32.8206 9.77155 32.823 9.80801 32.8267V33.1831C9.78781 33.1794 9.76946 33.1771 9.75251 33.1757C9.73555 33.1745 9.71698 33.1739 9.697 33.1739C9.52678 33.1739 9.39604 33.2287 9.30454 33.338C9.21328 33.4474 9.16753 33.5735 9.16753 33.7161V34.8717H8.8294V32.8624Z" fill="#717374"/>
</g>
<mask id="mask12_8348_11352" style="mask-type:luminance" maskUnits="userSpaceOnUse" x="0" y="20" width="56" height="16">
<path d="M0 35.7218H56V20H0V35.7218Z" fill="#888889"/>
</mask>
<g mask="url(#mask12_8348_11352)">
<path fill-rule="evenodd" clip-rule="evenodd" d="M11.4598 34.3987C11.5422 34.2294 11.5833 34.0411 11.5833 33.8337C11.5833 33.6463 11.5536 33.4939 11.4942 33.3764C11.4001 33.1916 11.238 33.0992 11.0076 33.0992C10.8033 33.0992 10.6546 33.1779 10.562 33.3353C10.4691 33.4928 10.4227 33.6825 10.4227 33.905C10.4227 34.1186 10.4691 34.2965 10.562 34.4391C10.6546 34.5815 10.8021 34.6525 11.0039 34.6525C11.2255 34.6525 11.3773 34.568 11.4598 34.3987ZM11.6697 33.0634C11.8474 33.2357 11.9363 33.4893 11.9363 33.8244C11.9363 34.1481 11.8581 34.4154 11.7015 34.6267C11.5448 34.8378 11.3016 34.9435 10.9723 34.9435C10.6974 34.9435 10.4793 34.8501 10.3177 34.6632C10.1561 34.4765 10.0752 34.2255 10.0752 33.9106C10.0752 33.5731 10.1605 33.3044 10.3307 33.1045C10.5011 32.9045 10.7299 32.8047 11.0169 32.8047C11.2745 32.8047 11.4918 32.8908 11.6697 33.0634Z" fill="#717374"/>
</g>
<mask id="mask13_8348_11352" style="mask-type:luminance" maskUnits="userSpaceOnUse" x="0" y="20" width="56" height="16">
<path d="M0 35.7218H56V20H0V35.7218Z" fill="#888889"/>
</mask>
<g mask="url(#mask13_8348_11352)">
<path fill-rule="evenodd" clip-rule="evenodd" d="M12.4631 32.8624H12.7842V33.1476C12.8792 33.0301 12.98 32.9456 13.0866 32.8943C13.1929 32.8429 13.3112 32.8174 13.4414 32.8174C13.7268 32.8174 13.9198 32.9168 14.0199 33.1156C14.0749 33.2245 14.1026 33.3803 14.1026 33.5828V34.8717H13.7589V33.6053C13.7589 33.4827 13.7405 33.384 13.7043 33.309C13.6442 33.1838 13.5355 33.1214 13.3776 33.1214C13.2975 33.1214 13.2317 33.1295 13.1804 33.1458C13.0878 33.1732 13.0065 33.2282 12.9363 33.3109C12.8799 33.3771 12.8432 33.4456 12.8265 33.5162C12.8095 33.587 12.8012 33.6878 12.8012 33.8192V34.8717H12.4631V32.8624Z" fill="#717374"/>
</g>
<mask id="mask14_8348_11352" style="mask-type:luminance" maskUnits="userSpaceOnUse" x="0" y="20" width="56" height="16">
<path d="M0 35.7218H56V20H0V35.7218Z" fill="#888889"/>
</mask>
<g mask="url(#mask14_8348_11352)">
<path fill-rule="evenodd" clip-rule="evenodd" d="M14.7137 34.8721H15.0574V32.8721H14.7137V34.8721ZM14.7137 32.4989H15.0574V32.1162H14.7137V32.4989Z" fill="#717374"/>
</g>
<mask id="mask15_8348_11352" style="mask-type:luminance" maskUnits="userSpaceOnUse" x="0" y="20" width="56" height="16">
<path d="M0 35.7218H56V20H0V35.7218Z" fill="#888889"/>
</mask>
<g mask="url(#mask15_8348_11352)">
<path fill-rule="evenodd" clip-rule="evenodd" d="M17.0084 32.9693C17.1505 33.0794 17.236 33.2689 17.2648 33.5378H16.9362C16.916 33.414 16.8704 33.3112 16.7989 33.2292C16.7276 33.1472 16.6131 33.1063 16.4552 33.1063C16.2399 33.1063 16.086 33.2113 15.9933 33.421C15.9332 33.5573 15.9032 33.7254 15.9032 33.9252C15.9032 34.1263 15.9457 34.2956 16.0309 34.433C16.1159 34.5705 16.2499 34.639 16.4327 34.639C16.573 34.639 16.6842 34.5965 16.7662 34.5111C16.8481 34.4258 16.9048 34.3088 16.9362 34.1606H17.2648C17.2271 34.427 17.1333 34.6218 16.9831 34.7452C16.8328 34.8682 16.6405 34.93 16.4065 34.93C16.1436 34.93 15.9339 34.8339 15.7773 34.6418C15.6208 34.45 15.5426 34.2101 15.5426 33.9224C15.5426 33.5696 15.6283 33.2951 15.7999 33.0989C15.9715 32.9024 16.19 32.8042 16.4552 32.8042C16.6819 32.8042 16.8663 32.8592 17.0084 32.9693Z" fill="#717374"/>
</g>
<mask id="mask16_8348_11352" style="mask-type:luminance" maskUnits="userSpaceOnUse" x="0" y="20" width="56" height="16">
<path d="M0 35.7218H56V20H0V35.7218Z" fill="#888889"/>
</mask>
<g mask="url(#mask16_8348_11352)">
<path fill-rule="evenodd" clip-rule="evenodd" d="M19.1837 33.9825C19.192 34.1388 19.2275 34.2658 19.2905 34.3633C19.4098 34.5458 19.6202 34.6373 19.9217 34.6373C20.0568 34.6373 20.1799 34.6171 20.2907 34.5772C20.5055 34.4996 20.6128 34.3608 20.6128 34.1608C20.6128 34.0106 20.5673 33.9037 20.4765 33.8399C20.384 33.7774 20.2398 33.7228 20.0434 33.6766L19.6813 33.5923C19.4447 33.5373 19.2775 33.4767 19.179 33.4103C19.0092 33.2953 18.9245 33.1232 18.9245 32.8942C18.9245 32.6467 19.0079 32.4435 19.1748 32.2847C19.3418 32.1258 19.578 32.0464 19.884 32.0464C20.1653 32.0464 20.4045 32.1161 20.6012 32.2554C20.7979 32.395 20.8963 32.6179 20.8963 32.9244H20.5452C20.5271 32.7767 20.4888 32.6636 20.43 32.5849C20.3206 32.4409 20.1353 32.369 19.8736 32.369C19.6623 32.369 19.5104 32.4152 19.418 32.5078C19.3255 32.6005 19.2793 32.708 19.2793 32.8306C19.2793 32.9655 19.3339 33.0645 19.4431 33.1269C19.5146 33.1669 19.6767 33.217 19.9289 33.277L20.3039 33.3652C20.4846 33.4077 20.6242 33.466 20.7224 33.5396C20.8921 33.6685 20.9771 33.8557 20.9771 34.1007C20.9771 34.4058 20.8687 34.6241 20.652 34.7556C20.4354 34.8868 20.1834 34.9525 19.8966 34.9525C19.5619 34.9525 19.3 34.8649 19.1107 34.6898C18.9215 34.5159 18.8286 34.2802 18.8323 33.9825H19.1837Z" fill="#717374"/>
</g>
<mask id="mask17_8348_11352" style="mask-type:luminance" maskUnits="userSpaceOnUse" x="0" y="20" width="56" height="16">
<path d="M0 35.7218H56V20H0V35.7218Z" fill="#888889"/>
</mask>
<g mask="url(#mask17_8348_11352)">
<path fill-rule="evenodd" clip-rule="evenodd" d="M21.5714 34.8721H21.9151V32.8721H21.5714V34.8721ZM21.5714 32.4989H21.9151V32.1162H21.5714V32.4989Z" fill="#717374"/>
</g>
<mask id="mask18_8348_11352" style="mask-type:luminance" maskUnits="userSpaceOnUse" x="0" y="20" width="56" height="16">
<path d="M0 35.7218H56V20H0V35.7218Z" fill="#888889"/>
</mask>
<g mask="url(#mask18_8348_11352)">
<path fill-rule="evenodd" clip-rule="evenodd" d="M23.697 33.3055C23.5948 33.1855 23.4648 33.1253 23.3066 33.1253C23.0698 33.1253 22.9079 33.2368 22.8208 33.4595C22.7746 33.5782 22.7516 33.734 22.7516 33.9265C22.7516 34.1529 22.7974 34.3252 22.8889 34.4435C22.9804 34.5617 23.1034 34.6206 23.2579 34.6206C23.4996 34.6206 23.6696 34.5113 23.7681 34.2923C23.8229 34.1685 23.8503 34.024 23.8503 33.8589C23.8503 33.61 23.7992 33.4256 23.697 33.3055ZM23.6557 32.9435C23.7193 32.9872 23.7841 33.051 23.8503 33.1348V32.8815H24.1619V34.7089C24.1619 34.9641 24.1245 35.1654 24.0498 35.3129C23.91 35.5855 23.6459 35.7219 23.2579 35.7219C23.0421 35.7219 22.8605 35.6736 22.7133 35.5765C22.5661 35.4796 22.4836 35.328 22.4662 35.1216H22.8099C22.8259 35.2117 22.8584 35.2811 22.907 35.3299C22.9829 35.4049 23.1025 35.4425 23.2655 35.4425C23.5233 35.4425 23.6921 35.3512 23.7718 35.1685C23.8192 35.0609 23.841 34.8689 23.837 34.5925C23.7697 34.6952 23.6887 34.7714 23.5939 34.8215C23.4992 34.8714 23.3738 34.8965 23.2179 34.8965C23.0008 34.8965 22.8111 34.8192 22.6483 34.6648C22.4855 34.5103 22.4042 34.2549 22.4042 33.8984C22.4042 33.5619 22.4862 33.2993 22.6501 33.1105C22.8141 32.9214 23.0122 32.8271 23.2442 32.8271C23.4012 32.8271 23.5384 32.8659 23.6557 32.9435Z" fill="#717374"/>
</g>
<mask id="mask19_8348_11352" style="mask-type:luminance" maskUnits="userSpaceOnUse" x="0" y="20" width="56" height="16">
<path d="M0 35.7218H56V20H0V35.7218Z" fill="#888889"/>
</mask>
<g mask="url(#mask19_8348_11352)">
<path fill-rule="evenodd" clip-rule="evenodd" d="M24.7881 32.8624H25.1093V33.1476C25.2043 33.0301 25.3053 32.9456 25.4116 32.8943C25.518 32.8429 25.6362 32.8174 25.7665 32.8174C26.0519 32.8174 26.2449 32.9168 26.345 33.1156C26.4 33.2245 26.4276 33.3803 26.4276 33.5828V34.8717H26.0839V33.6053C26.0839 33.4827 26.0656 33.384 26.0294 33.309C25.9695 33.1838 25.8605 33.1214 25.7026 33.1214C25.6225 33.1214 25.5568 33.1295 25.5055 33.1458C25.4128 33.1732 25.3315 33.2282 25.2614 33.3109C25.205 33.3771 25.1683 33.4456 25.1516 33.5162C25.1346 33.587 25.1262 33.6878 25.1262 33.8192V34.8717H24.7881V32.8624Z" fill="#717374"/>
</g>
<mask id="mask20_8348_11352" style="mask-type:luminance" maskUnits="userSpaceOnUse" x="0" y="20" width="56" height="16">
<path d="M0 35.7218H56V20H0V35.7218Z" fill="#888889"/>
</mask>
<g mask="url(#mask20_8348_11352)">
<path fill-rule="evenodd" clip-rule="evenodd" d="M27.4049 34.5684C27.4762 34.6246 27.5608 34.6527 27.6583 34.6527C27.7774 34.6527 27.8926 34.6253 28.0039 34.5703C28.1917 34.479 28.2855 34.3299 28.2855 34.1226V33.8511C28.2444 33.8773 28.1913 33.8992 28.1265 33.9168C28.0614 33.9345 27.9976 33.947 27.9351 33.9544L27.731 33.9807C27.6086 33.9969 27.5164 34.0225 27.4546 34.0575C27.3501 34.1161 27.2979 34.2097 27.2979 34.3383C27.2979 34.4356 27.3336 34.5122 27.4049 34.5684ZM28.1167 33.6563C28.1943 33.6463 28.2463 33.6138 28.2725 33.5587C28.2876 33.5288 28.2951 33.4853 28.2951 33.4287C28.2951 33.3133 28.2542 33.2294 28.1722 33.1774C28.0905 33.1254 27.9732 33.0994 27.8209 33.0994C27.6446 33.0994 27.5197 33.147 27.446 33.2427C27.4049 33.2954 27.378 33.3739 27.3655 33.4781H27.0499C27.0561 33.2299 27.1365 33.0571 27.2909 32.9598C27.4453 32.8627 27.6246 32.814 27.8285 32.814C28.0647 32.814 28.2567 32.859 28.4042 32.9491C28.5505 33.0392 28.6237 33.1793 28.6237 33.3695V34.5271C28.6237 34.5622 28.6309 34.5903 28.6453 34.6114C28.6597 34.6328 28.6901 34.6432 28.7363 34.6432C28.7514 34.6432 28.7683 34.6423 28.7872 34.6404C28.806 34.6386 28.8259 34.6358 28.8473 34.6321V34.8817C28.7946 34.8966 28.7546 34.9061 28.727 34.9096C28.6994 34.9135 28.662 34.9154 28.6144 34.9154C28.4978 34.9154 28.4135 34.8741 28.3608 34.7916C28.3332 34.7477 28.3139 34.6859 28.3025 34.6058C28.2338 34.6959 28.1348 34.774 28.0059 34.8404C27.8771 34.9066 27.7347 34.9398 27.5796 34.9398C27.3931 34.9398 27.2405 34.8831 27.1223 34.7702C27.0039 34.6572 26.9447 34.5157 26.9447 34.3457C26.9447 34.1597 27.003 34.0153 27.1193 33.9129C27.2359 33.8105 27.3884 33.7475 27.5777 33.7236L28.1167 33.6563Z" fill="#717374"/>
</g>
<mask id="mask21_8348_11352" style="mask-type:luminance" maskUnits="userSpaceOnUse" x="0" y="20" width="56" height="16">
<path d="M0 35.7218H56V20H0V35.7218Z" fill="#888889"/>
</mask>
<g mask="url(#mask21_8348_11352)">
<path fill-rule="evenodd" clip-rule="evenodd" d="M29.357 32.3018H29.6988V32.8626H30.0197V33.1385H29.6988V34.4499C29.6988 34.52 29.7225 34.5669 29.7701 34.5906C29.7963 34.6045 29.8402 34.6113 29.9015 34.6113C29.9178 34.6113 29.9354 34.6108 29.954 34.6099C29.9728 34.6092 29.9949 34.6071 30.0197 34.6038V34.872C29.9812 34.8832 29.9406 34.8913 29.8988 34.8964C29.8567 34.9013 29.8114 34.9039 29.7627 34.9039C29.6048 34.9039 29.4977 34.8635 29.4415 34.7829C29.3851 34.7023 29.357 34.5976 29.357 34.4687V33.1385H29.0846V32.8626H29.357V32.3018Z" fill="#717374"/>
</g>
<mask id="mask22_8348_11352" style="mask-type:luminance" maskUnits="userSpaceOnUse" x="0" y="20" width="56" height="16">
<path d="M0 35.7218H56V20H0V35.7218Z" fill="#888889"/>
</mask>
<g mask="url(#mask22_8348_11352)">
<path fill-rule="evenodd" clip-rule="evenodd" d="M30.8075 32.8628V34.1967C30.8075 34.2994 30.8233 34.3832 30.8551 34.4482C30.9136 34.568 31.0227 34.6282 31.1825 34.6282C31.4117 34.6282 31.5678 34.5232 31.6507 34.3131C31.6957 34.2004 31.7183 34.046 31.7183 33.8495V32.8628H32.0564V34.872H31.7371L31.7408 34.5757C31.6978 34.6519 31.6444 34.7164 31.5806 34.7689C31.454 34.8739 31.3003 34.9266 31.1198 34.9266C30.8384 34.9266 30.6468 34.8309 30.5448 34.6393C30.4896 34.5369 30.4619 34.3999 30.4619 34.2285V32.8628H30.8075Z" fill="#717374"/>
</g>
<mask id="mask23_8348_11352" style="mask-type:luminance" maskUnits="userSpaceOnUse" x="0" y="20" width="56" height="16">
<path d="M0 35.7218H56V20H0V35.7218Z" fill="#888889"/>
</mask>
<g mask="url(#mask23_8348_11352)">
<path fill-rule="evenodd" clip-rule="evenodd" d="M32.7294 32.8624H33.0506V33.2094C33.0768 33.142 33.1414 33.0596 33.244 32.9628C33.3467 32.8659 33.4649 32.8174 33.5989 32.8174C33.6052 32.8174 33.6158 32.8181 33.6309 32.8192C33.646 32.8206 33.6716 32.823 33.708 32.8267V33.1831C33.6878 33.1794 33.6695 33.1771 33.6525 33.1757C33.6356 33.1745 33.617 33.1739 33.597 33.1739C33.4268 33.1739 33.2961 33.2287 33.2046 33.338C33.1133 33.4474 33.0675 33.5735 33.0675 33.7161V34.8717H32.7294V32.8624Z" fill="#717374"/>
</g>
<mask id="mask24_8348_11352" style="mask-type:luminance" maskUnits="userSpaceOnUse" x="0" y="20" width="56" height="16">
<path d="M0 35.7218H56V20H0V35.7218Z" fill="#888889"/>
</mask>
<g mask="url(#mask24_8348_11352)">
<path fill-rule="evenodd" clip-rule="evenodd" d="M35.476 33.7071C35.4623 33.5608 35.4307 33.4437 35.381 33.3562C35.289 33.1936 35.1357 33.1123 34.9209 33.1123C34.767 33.1123 34.6378 33.1683 34.5336 33.2802C34.4293 33.3922 34.374 33.5345 34.368 33.7071H35.476ZM35.355 32.9182C35.488 32.9851 35.5895 33.0717 35.6592 33.1781C35.7263 33.2793 35.7711 33.3975 35.7934 33.5327C35.8134 33.6251 35.8234 33.7728 35.8234 33.9753H34.3603C34.3666 34.1799 34.4144 34.3438 34.5039 34.4674C34.5935 34.5909 34.7319 34.6527 34.9195 34.6527C35.0946 34.6527 35.2344 34.5942 35.3387 34.4774C35.397 34.4096 35.4386 34.3311 35.4627 34.2419H35.7953C35.7864 34.3155 35.7572 34.3977 35.708 34.4885C35.6585 34.5793 35.6032 34.6534 35.5424 34.7108C35.4404 34.8108 35.3143 34.8784 35.1641 34.9135C35.0833 34.9335 34.992 34.9434 34.89 34.9434C34.6413 34.9434 34.4302 34.8524 34.2572 34.6706C34.0845 34.4885 33.9978 34.2335 33.9978 33.9059C33.9978 33.5833 34.0849 33.3211 34.2593 33.1198C34.4335 32.9184 34.6611 32.8179 34.9423 32.8179C35.0842 32.8179 35.2217 32.8513 35.355 32.9182Z" fill="#717374"/>
</g>
</svg>
