<svg width="121" height="34" viewBox="0 0 121 34" fill="none" xmlns="http://www.w3.org/2000/svg">
<path fill-rule="evenodd" clip-rule="evenodd" d="M103.921 17.6043L99.3951 13.0783L96.0271 16.4458L103.921 24.3398L120.947 7.31429L117.579 3.94629L103.921 17.6043Z" fill="#717374"/>
<path fill-rule="evenodd" clip-rule="evenodd" d="M85.9532 17.116C84.4827 17.116 83.2907 15.924 83.2907 14.4535V12.1715V11.0305V10.27C83.2907 8.79945 84.4827 7.60745 85.9532 7.60745C87.4237 7.60745 88.6152 8.79945 88.6157 10.2695V14.454C88.6152 15.9245 87.4237 17.116 85.9532 17.116ZM92.4192 4.94495H88.6157V5.71345C87.6612 4.99545 86.4787 4.56445 85.1927 4.56445C82.0417 4.56445 79.4872 7.11895 79.4872 10.27V11.0305V12.1715V14.4535C79.4872 17.6045 82.0417 20.1585 85.1927 20.1585C86.4787 20.1585 87.6612 19.728 88.6157 19.01V20.3815C88.6157 21.6415 87.5937 22.6635 86.3337 22.6635H85.5732C84.8972 22.6635 84.2902 22.3695 83.8727 21.903H79.6942C80.3602 24.3145 82.5687 26.0865 85.1927 26.0865H86.7137C89.8647 26.0865 92.4192 23.532 92.4192 20.3815V4.94495Z" fill="#717374"/>
<path fill-rule="evenodd" clip-rule="evenodd" d="M68.6822 10.3085C67.9807 9.72 66.9152 9.244 65.5157 8.894L62.3242 8.094C61.1032 7.7905 60.2942 7.523 59.9212 7.299C59.3482 6.968 59.0697 6.483 59.0697 5.816C59.0697 5.085 59.3537 4.53 59.9377 4.1205C60.5247 3.709 61.3237 3.5005 62.3122 3.5005C63.2022 3.5005 63.9557 3.662 64.5532 3.98C65.3497 4.4085 65.8057 5.078 65.9457 6.0255H69.7332C69.5952 4.131 68.8687 2.653 67.5727 1.631C66.1992 0.5485 64.5182 0 62.5767 0C60.2512 0 58.4612 0.583 57.2572 1.7335C56.0487 2.8875 55.4362 4.3585 55.4362 6.1045C55.4362 8.02 56.0642 9.4485 57.3032 10.35C58.0297 10.8855 59.3777 11.387 61.3107 11.841L63.2797 12.3005C64.4212 12.56 65.2647 12.862 65.7872 13.198C66.3022 13.5375 66.5522 14.0015 66.5522 14.617C66.5522 15.6845 66.0347 16.396 64.9692 16.7915C64.4067 16.998 63.6622 17.103 62.7562 17.103C61.2522 17.103 60.1777 16.709 59.5622 15.9315C59.3467 15.658 59.1267 15.137 59.0457 14.811L59.0382 14.7815C59.0187 14.7025 58.9962 14.6125 58.9847 14.5265C58.9657 14.3895 58.9492 14.146 58.9467 14.0725H55.1381C55.1372 14.1885 55.1522 14.4685 55.1592 14.5595C55.1592 14.5595 55.1682 14.683 55.1717 14.7185C55.3202 16.411 56.0107 17.7845 57.2232 18.801C58.5987 19.954 60.5102 20.5385 62.9052 20.5385C65.2512 20.5385 67.0947 19.9445 68.3832 18.773C69.6777 17.597 70.3337 16.097 70.3337 14.3155C70.3337 12.576 69.7782 11.228 68.6822 10.3085Z" fill="#717374"/>
<path fill-rule="evenodd" clip-rule="evenodd" d="M42.5423 12.3915C41.9998 11.925 41.1868 11.5505 40.1253 11.2785L37.7778 10.675C36.6858 10.3965 36.2463 10.209 36.0678 10.099C35.7203 9.89345 35.5583 9.60545 35.5583 9.19395C35.5583 8.72395 35.7293 8.38195 36.0963 8.11795C36.4903 7.83495 37.0358 7.69145 37.7173 7.69145C38.3358 7.69145 38.8558 7.80395 39.2623 8.02595C39.7948 8.31945 40.0933 8.78495 40.1743 9.44795L40.1928 9.59545H43.4153L43.4043 9.41395C43.3128 7.87395 42.7463 6.67245 41.7208 5.84295C40.6708 4.99445 39.3893 4.56445 37.9118 4.56445C36.1438 4.56445 34.7768 5.02545 33.8488 5.93495C32.9108 6.85345 32.4353 8.02345 32.4353 9.41145C32.4353 10.941 32.9298 12.0855 33.9043 12.8125C34.4628 13.2345 35.4813 13.626 36.9318 13.9755L38.3808 14.322C39.1958 14.512 39.7923 14.7295 40.1533 14.967C40.4648 15.1775 40.6098 15.4525 40.6098 15.831C40.6098 16.53 40.2878 16.978 39.5968 17.241C39.2068 17.388 38.6843 17.4625 38.0438 17.4625C37.0073 17.4625 36.2753 17.1945 35.8678 16.667C35.7788 16.551 35.7008 16.406 35.6343 16.234C35.6033 16.1535 35.5728 16.0595 35.5588 15.9645C35.5393 15.8335 35.5263 15.693 35.5328 15.5945H32.2408C32.2423 15.614 32.2373 15.771 32.2508 15.975C32.2583 16.094 32.2713 16.21 32.2888 16.3245C32.4673 17.4895 32.9848 18.446 33.8348 19.1765C34.8868 20.081 36.3398 20.54 38.1533 20.54C39.9343 20.54 41.3393 20.072 42.3293 19.1495C43.3328 18.214 43.8418 17.021 43.8418 15.6035C43.8418 14.214 43.4043 13.1335 42.5423 12.3915Z" fill="#717374"/>
<mask id="mask0_6558_5023" style="mask-type:luminance" maskUnits="userSpaceOnUse" x="0" y="0" width="121" height="34">
<path d="M0.37561 33.85H120.947V0H0.37561V33.85Z" fill="#00A161"/>
</mask>
<g mask="url(#mask0_6558_5023)">
<path fill-rule="evenodd" clip-rule="evenodd" d="M73.0216 20.1583H76.8251V4.94434H73.0216V20.1583Z" fill="#717374"/>
</g>
<mask id="mask1_6558_5023" style="mask-type:luminance" maskUnits="userSpaceOnUse" x="0" y="0" width="121" height="34">
<path d="M0.37561 33.85H120.947V0H0.37561V33.85Z" fill="#00A161"/>
</mask>
<g mask="url(#mask1_6558_5023)">
<path fill-rule="evenodd" clip-rule="evenodd" d="M73.0216 3.42336H76.8251V0.380859H73.0216V3.42336Z" fill="#717374"/>
</g>
<mask id="mask2_6558_5023" style="mask-type:luminance" maskUnits="userSpaceOnUse" x="0" y="0" width="121" height="34">
<path d="M0.37561 33.85H120.947V0H0.37561V33.85Z" fill="#00A161"/>
</mask>
<g mask="url(#mask2_6558_5023)">
<path fill-rule="evenodd" clip-rule="evenodd" d="M50.9615 0L47.158 2.282V4.9445H44.876V7.987H47.158V16.953C47.158 18.7235 48.593 20.158 50.363 20.158H53.2435V16.735H51.8345C51.3525 16.735 50.9615 16.3445 50.9615 15.862V7.987H53.2435V4.9445H50.9615V0Z" fill="#717374"/>
</g>
<mask id="mask3_6558_5023" style="mask-type:luminance" maskUnits="userSpaceOnUse" x="0" y="0" width="121" height="34">
<path d="M0.37561 33.85H120.947V0H0.37561V33.85Z" fill="#00A161"/>
</mask>
<g mask="url(#mask3_6558_5023)">
<path fill-rule="evenodd" clip-rule="evenodd" d="M9.30935 17.1159H4.17885V11.4109H4.43835H8.92585H8.92885C8.92885 11.4109 8.93035 11.4109 8.93135 11.4109H9.25085C10.7104 11.4109 12.0494 12.5969 12.1544 14.0524C12.2744 15.7229 10.9549 17.1159 9.30935 17.1159ZM4.17885 3.42336H8.92885C10.3689 3.42336 11.5209 4.65386 11.3914 6.12036C11.2784 7.40386 10.1619 8.36786 8.87335 8.36786H4.28785H4.17885V3.42336ZM13.3564 9.64536C14.2694 8.66136 14.8289 7.34386 14.8289 5.89586C14.8289 2.84986 12.3594 0.380859 9.31385 0.380859H9.31236H4.17885H0.375854V3.42336V8.36786V11.4109V17.1159V20.1584H4.17885H9.69335C12.9494 20.1584 15.5894 17.5194 15.5894 14.2634C15.5894 12.3919 14.7164 10.7254 13.3564 9.64536Z" fill="#717374"/>
</g>
<mask id="mask4_6558_5023" style="mask-type:luminance" maskUnits="userSpaceOnUse" x="0" y="0" width="121" height="34">
<path d="M0.37561 33.85H120.947V0H0.37561V33.85Z" fill="#00A161"/>
</mask>
<g mask="url(#mask4_6558_5023)">
<path fill-rule="evenodd" clip-rule="evenodd" d="M26.9998 11.031H20.9143V10.6505C20.9143 10.5875 20.9163 10.5255 20.9203 10.4635C20.9208 10.4585 20.9213 10.453 20.9218 10.4475C20.9258 10.3875 20.9313 10.3285 20.9388 10.27C21.0103 9.69845 21.2398 9.17595 21.5823 8.74845C21.7213 8.57495 21.8788 8.41795 22.0518 8.27845C22.0538 8.27695 22.0563 8.27495 22.0583 8.27295C22.0978 8.24145 22.1383 8.21095 22.1788 8.18145C22.1853 8.17695 22.1918 8.17295 22.1978 8.16845C22.2353 8.14145 22.2738 8.11595 22.3128 8.09095C22.3208 8.08545 22.3288 8.08045 22.3368 8.07545C22.3753 8.05095 22.4143 8.02745 22.4543 8.00495C22.4618 8.00045 22.4693 7.99595 22.4773 7.99145C22.5208 7.96745 22.5648 7.94445 22.6098 7.92195C22.6133 7.91995 22.6173 7.91795 22.6208 7.91645C22.7198 7.86795 22.8213 7.82445 22.9258 7.78695C22.9348 7.78395 22.9443 7.78095 22.9533 7.77745C22.9948 7.76345 23.0363 7.74945 23.0783 7.73695C23.0943 7.73195 23.1108 7.72745 23.1273 7.72295C23.1628 7.71295 23.1983 7.70345 23.2343 7.69445C23.2533 7.68995 23.2728 7.68545 23.2923 7.68145C23.3263 7.67345 23.3603 7.66695 23.3948 7.66045C23.4153 7.65645 23.4358 7.65245 23.4563 7.64945C23.4908 7.64345 23.5253 7.63845 23.5603 7.63395C23.5803 7.63145 23.6008 7.62845 23.6213 7.62645C23.6588 7.62195 23.6968 7.61945 23.7348 7.61645C23.7528 7.61545 23.7703 7.61345 23.7883 7.61245C23.8443 7.60945 23.9003 7.60745 23.9568 7.60745C25.6373 7.60745 26.9998 8.96995 26.9998 10.6505V11.031ZM23.9568 4.56445C23.8558 4.56445 23.7553 4.56745 23.6553 4.57245C23.6243 4.57395 23.5938 4.57595 23.5633 4.57745C23.4923 4.58195 23.4213 4.58745 23.3513 4.59395C23.3183 4.59695 23.2858 4.59995 23.2528 4.60345C23.1768 4.61145 23.1013 4.62145 23.0263 4.63245C23.0033 4.63545 22.9803 4.63795 22.9578 4.64195C22.8618 4.65645 22.7663 4.67345 22.6723 4.69295C22.6463 4.69795 22.6208 4.70395 22.5948 4.70945C22.5253 4.72445 22.4563 4.74045 22.3873 4.75745C22.3538 4.76595 22.3208 4.77445 22.2873 4.78345C22.2238 4.80045 22.1608 4.81845 22.0978 4.83745C22.0673 4.84645 22.0358 4.85545 22.0053 4.86545C21.9163 4.89295 21.8283 4.92295 21.7413 4.95445C21.7228 4.96095 21.7053 4.96845 21.6868 4.97545C21.6163 5.00195 21.5463 5.02945 21.4773 5.05795C21.4428 5.07245 21.4093 5.08745 21.3753 5.10195C21.3218 5.12545 21.2688 5.14945 21.2163 5.17395C21.1808 5.19045 21.1453 5.20745 21.1103 5.22445C21.0558 5.25145 21.0018 5.27945 20.9483 5.30745C20.9183 5.32345 20.8878 5.33845 20.8583 5.35495C20.7818 5.39645 20.7063 5.43995 20.6323 5.48445C20.5963 5.50595 20.5613 5.52845 20.5263 5.55045C20.4833 5.57795 20.4403 5.60495 20.3978 5.63295C20.3593 5.65845 20.3218 5.68395 20.2838 5.70995C20.2453 5.73695 20.2073 5.76445 20.1688 5.79195C20.1313 5.81945 20.0933 5.84595 20.0563 5.87445C20.0158 5.90545 19.9758 5.93695 19.9358 5.96945C19.8718 6.01995 19.8093 6.07145 19.7478 6.12445C19.7168 6.15095 19.6858 6.17745 19.6553 6.20445C19.6158 6.23995 19.5773 6.27545 19.5388 6.31195C19.5113 6.33745 19.4843 6.36345 19.4573 6.38945C19.4178 6.42795 19.3788 6.46595 19.3408 6.50495C19.3183 6.52795 19.2963 6.55145 19.2743 6.57445C19.1883 6.66445 19.1053 6.75645 19.0253 6.85145C19.0173 6.86045 19.0093 6.86895 19.0018 6.87845C18.9628 6.92495 18.9248 6.97245 18.8868 7.02045C18.8688 7.04345 18.8508 7.06595 18.8328 7.08895C18.7958 7.13695 18.7598 7.18545 18.7243 7.23445C18.7088 7.25595 18.6933 7.27745 18.6778 7.29945C18.5573 7.46995 18.4448 7.64645 18.3403 7.82845C18.3308 7.84545 18.3208 7.86195 18.3113 7.87895C18.2798 7.93545 18.2493 7.99295 18.2193 8.05045C18.2083 8.07195 18.1973 8.09345 18.1863 8.11495C18.1568 8.17345 18.1273 8.23295 18.0993 8.29295C18.0943 8.30395 18.0893 8.31495 18.0843 8.32645C18.0203 8.46445 17.9608 8.60495 17.9068 8.74795V8.74845C17.6833 9.33995 17.5448 9.97245 17.5048 10.632C17.5043 10.6385 17.5033 10.6455 17.5033 10.652C17.4958 10.7775 17.4913 10.903 17.4913 11.0305V14.0735C17.4913 17.6445 20.3863 20.539 23.9568 20.539C24.0583 20.539 24.1588 20.536 24.2588 20.5315C24.2893 20.53 24.3203 20.528 24.3508 20.526C24.4218 20.522 24.4923 20.5165 24.5628 20.51C24.5958 20.507 24.6283 20.504 24.6613 20.5005C24.7368 20.492 24.8128 20.4825 24.8878 20.4715C24.9103 20.468 24.9333 20.4655 24.9563 20.462C25.0523 20.447 25.1473 20.43 25.2418 20.411C25.2678 20.406 25.2933 20.3995 25.3188 20.394C25.3888 20.379 25.4578 20.3635 25.5268 20.346C25.5603 20.338 25.5933 20.329 25.6263 20.3205C25.6898 20.3035 25.7533 20.2855 25.8158 20.2665C25.8468 20.257 25.8778 20.2485 25.9088 20.2385C25.9973 20.2105 26.0858 20.181 26.1728 20.149C26.1908 20.1425 26.2088 20.135 26.2268 20.1285C26.2973 20.102 26.3673 20.0745 26.4368 20.0455C26.4708 20.0315 26.5048 20.0165 26.5388 20.0015C26.5923 19.9785 26.6448 19.9545 26.6978 19.9295C26.7333 19.913 26.7688 19.8965 26.8038 19.879C26.8583 19.8525 26.9123 19.8245 26.9658 19.7965C26.9958 19.7805 27.0263 19.7655 27.0558 19.749C27.1323 19.707 27.2073 19.664 27.2818 19.619C27.3173 19.5975 27.3523 19.575 27.3878 19.553C27.4308 19.526 27.4738 19.4985 27.5163 19.4705C27.5543 19.4455 27.5923 19.4195 27.6298 19.3935C27.6688 19.367 27.7068 19.3395 27.7453 19.312C27.7828 19.2845 27.8203 19.2575 27.8578 19.2295C27.8983 19.1985 27.9383 19.1665 27.9783 19.1345C28.0418 19.084 28.1048 19.032 28.1663 18.979C28.1973 18.9525 28.2278 18.9265 28.2583 18.899C28.2978 18.864 28.3368 18.828 28.3753 18.792C28.4028 18.7665 28.4298 18.7405 28.4568 18.714C28.4963 18.676 28.5353 18.638 28.5733 18.599C28.5958 18.576 28.6178 18.5525 28.6398 18.529C28.7253 18.439 28.8083 18.347 28.8888 18.2525C28.8968 18.2435 28.9048 18.2345 28.9123 18.2255C28.9513 18.1785 28.9893 18.131 29.0268 18.0835C29.0453 18.0605 29.0633 18.038 29.0808 18.0145C29.1178 17.967 29.1543 17.9185 29.1898 17.8695C29.2053 17.848 29.2208 17.826 29.2358 17.8045C29.3568 17.634 29.4693 17.4575 29.5733 17.275C29.5833 17.2585 29.5928 17.2415 29.6023 17.2245C29.6343 17.1685 29.6648 17.111 29.6943 17.0535C29.7058 17.032 29.7168 17.0105 29.7278 16.989C29.7573 16.93 29.7868 16.871 29.8148 16.811C29.8198 16.8 29.8248 16.7885 29.8298 16.7775C29.8938 16.6395 29.9533 16.499 30.0073 16.3555C30.1003 16.1085 30.1778 15.855 30.2408 15.595H26.7758C26.6643 15.8705 26.5148 16.1265 26.3313 16.3555C26.1923 16.5285 26.0353 16.686 25.8623 16.825C25.8598 16.827 25.8573 16.829 25.8553 16.8305C25.8158 16.862 25.7758 16.8925 25.7353 16.922C25.7288 16.9265 25.7223 16.931 25.7158 16.9355C25.6783 16.962 25.6403 16.988 25.6013 17.013C25.5933 17.018 25.5853 17.0235 25.5773 17.0285C25.5388 17.053 25.4998 17.076 25.4598 17.0985C25.4523 17.103 25.4443 17.1075 25.4368 17.112C25.3933 17.1365 25.3493 17.1595 25.3043 17.1815C25.3008 17.1835 25.2968 17.1855 25.2928 17.1875C25.1943 17.236 25.0928 17.279 24.9883 17.3165C24.9793 17.32 24.9698 17.323 24.9603 17.326C24.9193 17.3405 24.8778 17.354 24.8358 17.3665C24.8198 17.3715 24.8033 17.376 24.7868 17.381C24.7513 17.391 24.7158 17.4005 24.6798 17.409C24.6603 17.414 24.6413 17.418 24.6218 17.4225C24.5878 17.43 24.5538 17.437 24.5193 17.4435C24.4988 17.4475 24.4783 17.451 24.4578 17.4545C24.4233 17.46 24.3888 17.465 24.3538 17.4695C24.3333 17.472 24.3133 17.475 24.2923 17.4775C24.2548 17.4815 24.2173 17.4845 24.1793 17.4875C24.1613 17.4885 24.1438 17.4905 24.1258 17.4915C24.0698 17.4945 24.0138 17.4965 23.9568 17.4965C22.2763 17.4965 20.9143 16.134 20.9143 14.4535V14.074H26.5063H30.4228V11.0305C30.4228 7.45945 27.5278 4.56445 23.9568 4.56445Z" fill="#717374"/>
</g>
<mask id="mask5_6558_5023" style="mask-type:luminance" maskUnits="userSpaceOnUse" x="0" y="0" width="121" height="34">
<path d="M0.37561 33.85H120.947V0H0.37561V33.85Z" fill="#00A161"/>
</mask>
<g mask="url(#mask5_6558_5023)">
<path fill-rule="evenodd" clip-rule="evenodd" d="M102.688 4.56445C101.404 4.56445 100.219 4.98895 99.2652 5.70545V4.94445H95.4617L95.4627 15.672L99.2652 11.8695V10.269C99.2652 8.79895 100.457 7.60695 101.928 7.60695C103.398 7.60695 104.59 8.79895 104.59 10.2695V15.597L108.393 11.794V10.2695C108.393 7.11895 105.839 4.56445 102.688 4.56445Z" fill="#717374"/>
</g>
<mask id="mask6_6558_5023" style="mask-type:luminance" maskUnits="userSpaceOnUse" x="0" y="0" width="121" height="34">
<path d="M0.37561 33.85H120.947V0H0.37561V33.85Z" fill="#888889"/>
</mask>
<g mask="url(#mask6_6558_5023)">
<path fill-rule="evenodd" clip-rule="evenodd" d="M0.37561 26.0859H4.68611V26.8129H1.16011V28.6144H4.41911V29.3014H1.16011V31.3129H4.74661V32.0199H0.37561V26.0859Z" fill="#717374"/>
</g>
<mask id="mask7_6558_5023" style="mask-type:luminance" maskUnits="userSpaceOnUse" x="0" y="0" width="121" height="34">
<path d="M0.37561 33.85H120.947V0H0.37561V33.85Z" fill="#888889"/>
</mask>
<g mask="url(#mask7_6558_5023)">
<path fill-rule="evenodd" clip-rule="evenodd" d="M5.5387 32.0209H6.2667V26.0869H5.5387V32.0209Z" fill="#717374"/>
</g>
<mask id="mask8_6558_5023" style="mask-type:luminance" maskUnits="userSpaceOnUse" x="0" y="0" width="121" height="34">
<path d="M0.37561 33.85H120.947V0H0.37561V33.85Z" fill="#888889"/>
</mask>
<g mask="url(#mask8_6558_5023)">
<path fill-rule="evenodd" clip-rule="evenodd" d="M10.5339 29.5122C10.5044 29.1972 10.4364 28.9452 10.3294 28.7567C10.1314 28.4067 9.80144 28.2317 9.33894 28.2317C9.00744 28.2317 8.72944 28.3522 8.50494 28.5932C8.28044 28.8342 8.16144 29.1407 8.14844 29.5122H10.5339ZM10.2734 27.8137C10.5599 27.9577 10.7784 28.1442 10.9284 28.3732C11.0729 28.5912 11.1694 28.8457 11.2174 29.1367C11.2604 29.3357 11.2819 29.6537 11.2819 30.0897H8.13194C8.14544 30.5302 8.24844 30.8832 8.44094 31.1492C8.63344 31.4152 8.93194 31.5482 9.33594 31.5482C9.71244 31.5482 10.0139 31.4222 10.2384 31.1707C10.3639 31.0247 10.4534 30.8557 10.5054 30.6637H11.2214C11.2024 30.8222 11.1394 30.9992 11.0334 31.1947C10.9264 31.3902 10.8079 31.5497 10.6769 31.6732C10.4574 31.8887 10.1859 32.0342 9.86244 32.1097C9.68844 32.1527 9.49194 32.1742 9.27244 32.1742C8.73694 32.1742 8.28244 31.9782 7.90994 31.5867C7.53794 31.1947 7.35144 30.6457 7.35144 29.9402C7.35144 29.2457 7.53894 28.6812 7.91394 28.2477C8.28944 27.8142 8.77944 27.5977 9.38494 27.5977C9.69044 27.5977 9.98644 27.6697 10.2734 27.8137Z" fill="#717374"/>
</g>
<mask id="mask9_6558_5023" style="mask-type:luminance" maskUnits="userSpaceOnUse" x="0" y="0" width="121" height="34">
<path d="M0.37561 33.85H120.947V0H0.37561V33.85Z" fill="#888889"/>
</mask>
<g mask="url(#mask9_6558_5023)">
<path fill-rule="evenodd" clip-rule="evenodd" d="M15.3048 27.9239C15.6108 28.1609 15.7948 28.5689 15.8568 29.1479H15.1493C15.1058 28.8814 15.0078 28.6599 14.8538 28.4834C14.7003 28.3069 14.4538 28.2189 14.1138 28.2189C13.6503 28.2189 13.3188 28.4449 13.1193 28.8964C12.9898 29.1899 12.9253 29.5519 12.9253 29.9819C12.9253 30.4149 13.0168 30.7794 13.2003 31.0754C13.3833 31.3714 13.6718 31.5189 14.0653 31.5189C14.3673 31.5189 14.6068 31.4274 14.7833 31.2434C14.9598 31.0599 15.0818 30.8079 15.1493 30.4889H15.8568C15.7758 31.0624 15.5738 31.4819 15.2503 31.7474C14.9268 32.0124 14.5128 32.1454 14.0088 32.1454C13.4428 32.1454 12.9913 31.9384 12.6543 31.5249C12.3173 31.1119 12.1488 30.5954 12.1488 29.9759C12.1488 29.2164 12.3333 28.6254 12.7028 28.2029C13.0723 27.7799 13.5423 27.5684 14.1138 27.5684C14.6018 27.5684 14.9988 27.6869 15.3048 27.9239Z" fill="#717374"/>
</g>
<mask id="mask10_6558_5023" style="mask-type:luminance" maskUnits="userSpaceOnUse" x="0" y="0" width="121" height="34">
<path d="M0.37561 33.85H120.947V0H0.37561V33.85Z" fill="#888889"/>
</mask>
<g mask="url(#mask10_6558_5023)">
<path fill-rule="evenodd" clip-rule="evenodd" d="M16.9704 26.4863H17.7064V27.6938H18.3974V28.2878H17.7064V31.1113C17.7064 31.2623 17.7574 31.3633 17.8599 31.4143C17.9164 31.4443 18.0109 31.4588 18.1429 31.4588C18.1779 31.4588 18.2159 31.4578 18.2559 31.4558C18.2964 31.4543 18.3439 31.4498 18.3974 31.4428V32.0203C18.3144 32.0443 18.2274 32.0618 18.1369 32.0728C18.0464 32.0833 17.9489 32.0888 17.8439 32.0888C17.5039 32.0888 17.2739 32.0018 17.1524 31.8283C17.0309 31.6548 16.9704 31.4293 16.9704 31.1518V28.2878H16.3839V27.6938H16.9704V26.4863Z" fill="#717374"/>
</g>
<mask id="mask11_6558_5023" style="mask-type:luminance" maskUnits="userSpaceOnUse" x="0" y="0" width="121" height="34">
<path d="M0.37561 33.85H120.947V0H0.37561V33.85Z" fill="#888889"/>
</mask>
<g mask="url(#mask11_6558_5023)">
<path fill-rule="evenodd" clip-rule="evenodd" d="M19.3859 27.6937H20.0774V28.4407C20.1339 28.2957 20.2729 28.1182 20.4939 27.9097C20.7149 27.7012 20.9694 27.5967 21.2579 27.5967C21.2714 27.5967 21.2944 27.5982 21.3269 27.6007C21.3594 27.6037 21.4144 27.6087 21.4929 27.6167V28.3842C21.4494 28.3762 21.4099 28.3712 21.3734 28.3682C21.3369 28.3657 21.2969 28.3642 21.2539 28.3642C20.8874 28.3642 20.6059 28.4822 20.4089 28.7177C20.2124 28.9532 20.1139 29.2247 20.1139 29.5317V32.0197H19.3859V27.6937Z" fill="#717374"/>
</g>
<mask id="mask12_6558_5023" style="mask-type:luminance" maskUnits="userSpaceOnUse" x="0" y="0" width="121" height="34">
<path d="M0.37561 33.85H120.947V0H0.37561V33.85Z" fill="#888889"/>
</mask>
<g mask="url(#mask12_6558_5023)">
<path fill-rule="evenodd" clip-rule="evenodd" d="M25.0492 31.0013C25.2267 30.6368 25.3152 30.2313 25.3152 29.7848C25.3152 29.3813 25.2512 29.0533 25.1232 28.8003C24.9207 28.4023 24.5717 28.2033 24.0757 28.2033C23.6357 28.2033 23.3157 28.3728 23.1162 28.7118C22.9162 29.0508 22.8162 29.4593 22.8162 29.9383C22.8162 30.3983 22.9162 30.7813 23.1162 31.0883C23.3157 31.3948 23.6332 31.5478 24.0677 31.5478C24.5447 31.5478 24.8717 31.3658 25.0492 31.0013ZM25.5012 28.1263C25.8837 28.4973 26.0752 29.0433 26.0752 29.7648C26.0752 30.4618 25.9067 31.0373 25.5697 31.4923C25.2322 31.9468 24.7087 32.1743 23.9997 32.1743C23.4077 32.1743 22.9382 31.9733 22.5902 31.5708C22.2422 31.1688 22.0682 30.6283 22.0682 29.9503C22.0682 29.2238 22.2517 28.6453 22.6182 28.2148C22.9852 27.7843 23.4777 27.5693 24.0957 27.5693C24.6502 27.5693 25.1182 27.7548 25.5012 28.1263Z" fill="#717374"/>
</g>
<mask id="mask13_6558_5023" style="mask-type:luminance" maskUnits="userSpaceOnUse" x="0" y="0" width="121" height="34">
<path d="M0.37561 33.85H120.947V0H0.37561V33.85Z" fill="#888889"/>
</mask>
<g mask="url(#mask13_6558_5023)">
<path fill-rule="evenodd" clip-rule="evenodd" d="M27.2094 27.6937H27.9009V28.3077C28.1054 28.0547 28.3224 27.8727 28.5519 27.7622C28.7809 27.6517 29.0354 27.5967 29.3159 27.5967C29.9304 27.5967 30.3458 27.8107 30.5613 28.2387C30.6798 28.4732 30.7394 28.8087 30.7394 29.2447V32.0197H29.9994V29.2932C29.9994 29.0292 29.9599 28.8167 29.8819 28.6552C29.7524 28.3857 29.5184 28.2512 29.1784 28.2512C29.0059 28.2512 28.8644 28.2687 28.7539 28.3037C28.5544 28.3627 28.3794 28.4812 28.2284 28.6592C28.1069 28.8017 28.0278 28.9492 27.9918 29.1012C27.9553 29.2537 27.9374 29.4707 27.9374 29.7537V32.0197H27.2094V27.6937Z" fill="#717374"/>
</g>
<mask id="mask14_6558_5023" style="mask-type:luminance" maskUnits="userSpaceOnUse" x="0" y="0" width="121" height="34">
<path d="M0.37561 33.85H120.947V0H0.37561V33.85Z" fill="#888889"/>
</mask>
<g mask="url(#mask14_6558_5023)">
<path fill-rule="evenodd" clip-rule="evenodd" d="M32.0551 32.0204H32.7951V27.7144H32.0551V32.0204ZM32.0551 26.9109H32.7951V26.0869H32.0551V26.9109Z" fill="#717374"/>
</g>
<mask id="mask15_6558_5023" style="mask-type:luminance" maskUnits="userSpaceOnUse" x="0" y="0" width="121" height="34">
<path d="M0.37561 33.85H120.947V0H0.37561V33.85Z" fill="#888889"/>
</mask>
<g mask="url(#mask15_6558_5023)">
<path fill-rule="evenodd" clip-rule="evenodd" d="M36.9957 27.9239C37.3017 28.1609 37.4857 28.5689 37.5477 29.1479H36.8402C36.7967 28.8814 36.6987 28.6599 36.5447 28.4834C36.3912 28.3069 36.1447 28.2189 35.8047 28.2189C35.3412 28.2189 35.0097 28.4449 34.8102 28.8964C34.6807 29.1899 34.6162 29.5519 34.6162 29.9819C34.6162 30.4149 34.7077 30.7794 34.8912 31.0754C35.0742 31.3714 35.3627 31.5189 35.7562 31.5189C36.0582 31.5189 36.2977 31.4274 36.4742 31.2434C36.6507 31.0599 36.7727 30.8079 36.8402 30.4889H37.5477C37.4667 31.0624 37.2647 31.4819 36.9412 31.7474C36.6177 32.0124 36.2037 32.1454 35.6997 32.1454C35.1337 32.1454 34.6822 31.9384 34.3452 31.5249C34.0082 31.1119 33.8397 30.5954 33.8397 29.9759C33.8397 29.2164 34.0242 28.6254 34.3937 28.2029C34.7632 27.7799 35.2337 27.5684 35.8047 27.5684C36.2927 27.5684 36.6897 27.6869 36.9957 27.9239Z" fill="#717374"/>
</g>
<mask id="mask16_6558_5023" style="mask-type:luminance" maskUnits="userSpaceOnUse" x="0" y="0" width="121" height="34">
<path d="M0.37561 33.85H120.947V0H0.37561V33.85Z" fill="#888889"/>
</mask>
<g mask="url(#mask16_6558_5023)">
<path fill-rule="evenodd" clip-rule="evenodd" d="M41.6792 30.105C41.6972 30.4415 41.7737 30.715 41.9092 30.925C42.1662 31.318 42.6192 31.515 43.2682 31.515C43.5592 31.515 43.8242 31.4715 44.0627 31.3855C44.5252 31.2185 44.7562 30.9195 44.7562 30.489C44.7562 30.1655 44.6582 29.9355 44.4627 29.798C44.2637 29.6635 43.9532 29.546 43.5302 29.4465L42.7507 29.265C42.2412 29.1465 41.8812 29.016 41.6692 28.873C41.3037 28.6255 41.1212 28.255 41.1212 27.762C41.1212 27.229 41.3007 26.7915 41.6602 26.4495C42.0197 26.1075 42.5282 25.9365 43.1872 25.9365C43.7927 25.9365 44.3077 26.0865 44.7312 26.3865C45.1547 26.687 45.3667 27.167 45.3667 27.827H44.6107C44.5717 27.509 44.4892 27.2655 44.3627 27.096C44.1272 26.786 43.7282 26.631 43.1647 26.631C42.7097 26.631 42.3827 26.7305 42.1837 26.93C41.9847 27.1295 41.8852 27.361 41.8852 27.625C41.8852 27.9155 42.0027 28.1285 42.2377 28.263C42.3917 28.349 42.7407 28.457 43.2837 28.586L44.0912 28.776C44.4802 28.8675 44.7807 28.993 44.9922 29.1515C45.3577 29.429 45.5407 29.832 45.5407 30.3595C45.5407 31.0165 45.3072 31.4865 44.8407 31.7695C44.3742 32.052 43.8317 32.1935 43.2142 32.1935C42.4937 32.1935 41.9297 32.005 41.5222 31.628C41.1147 31.2535 40.9147 30.746 40.9227 30.105H41.6792Z" fill="#717374"/>
</g>
<mask id="mask17_6558_5023" style="mask-type:luminance" maskUnits="userSpaceOnUse" x="0" y="0" width="121" height="34">
<path d="M0.37561 33.85H120.947V0H0.37561V33.85Z" fill="#888889"/>
</mask>
<g mask="url(#mask17_6558_5023)">
<path fill-rule="evenodd" clip-rule="evenodd" d="M46.8202 32.0204H47.5602V27.7144H46.8202V32.0204ZM46.8202 26.9109H47.5602V26.0869H46.8202V26.9109Z" fill="#717374"/>
</g>
<mask id="mask18_6558_5023" style="mask-type:luminance" maskUnits="userSpaceOnUse" x="0" y="0" width="121" height="34">
<path d="M0.37561 33.85H120.947V0H0.37561V33.85Z" fill="#888889"/>
</mask>
<g mask="url(#mask18_6558_5023)">
<path fill-rule="evenodd" clip-rule="evenodd" d="M51.3968 28.6472C51.1768 28.3887 50.8968 28.2592 50.5563 28.2592C50.0463 28.2592 49.6978 28.4992 49.5103 28.9787C49.4108 29.2342 49.3613 29.5697 49.3613 29.9842C49.3613 30.4717 49.4598 30.8427 49.6568 31.0972C49.8538 31.3517 50.1188 31.4787 50.4513 31.4787C50.9718 31.4787 51.3378 31.2432 51.5498 30.7717C51.6678 30.5052 51.7268 30.1942 51.7268 29.8387C51.7268 29.3027 51.6168 28.9057 51.3968 28.6472ZM51.3078 27.8677C51.4448 27.9617 51.5843 28.0992 51.7268 28.2797V27.7342H52.3978V31.6687C52.3978 32.2182 52.3173 32.6517 52.1563 32.9692C51.8553 33.5562 51.2868 33.8497 50.4513 33.8497C49.9868 33.8497 49.5958 33.7457 49.2788 33.5367C48.9618 33.3282 48.7843 33.0017 48.7468 32.5572H49.4868C49.5213 32.7512 49.5913 32.9007 49.6958 33.0057C49.8593 33.1672 50.1168 33.2482 50.4678 33.2482C51.0228 33.2482 51.3863 33.0517 51.5578 32.6582C51.6598 32.4267 51.7068 32.0132 51.6983 31.4182C51.5533 31.6392 51.3788 31.8032 51.1748 31.9112C50.9708 32.0187 50.7008 32.0727 50.3653 32.0727C49.8978 32.0727 49.4893 31.9062 49.1388 31.5737C48.7883 31.2412 48.6133 30.6912 48.6133 29.9237C48.6133 29.1992 48.7898 28.6337 49.1428 28.2272C49.4958 27.8202 49.9223 27.6172 50.4218 27.6172C50.7598 27.6172 51.0553 27.7007 51.3078 27.8677Z" fill="#717374"/>
</g>
<mask id="mask19_6558_5023" style="mask-type:luminance" maskUnits="userSpaceOnUse" x="0" y="0" width="121" height="34">
<path d="M0.37561 33.85H120.947V0H0.37561V33.85Z" fill="#888889"/>
</mask>
<g mask="url(#mask19_6558_5023)">
<path fill-rule="evenodd" clip-rule="evenodd" d="M53.746 27.6937H54.4375V28.3077C54.642 28.0547 54.8595 27.8727 55.0885 27.7622C55.3175 27.6517 55.572 27.5967 55.8525 27.5967C56.467 27.5967 56.8825 27.8107 57.098 28.2387C57.2165 28.4732 57.276 28.8087 57.276 29.2447V32.0197H56.536V29.2932C56.536 29.0292 56.4965 28.8167 56.4185 28.6552C56.2895 28.3857 56.055 28.2512 55.715 28.2512C55.5425 28.2512 55.401 28.2687 55.2905 28.3037C55.091 28.3627 54.916 28.4812 54.765 28.6592C54.6435 28.8017 54.5645 28.9492 54.5285 29.1012C54.492 29.2537 54.474 29.4707 54.474 29.7537V32.0197H53.746V27.6937Z" fill="#717374"/>
</g>
<mask id="mask20_6558_5023" style="mask-type:luminance" maskUnits="userSpaceOnUse" x="0" y="0" width="121" height="34">
<path d="M0.37561 33.85H120.947V0H0.37561V33.85Z" fill="#888889"/>
</mask>
<g mask="url(#mask20_6558_5023)">
<path fill-rule="evenodd" clip-rule="evenodd" d="M59.3802 31.3664C59.5337 31.4874 59.7157 31.5479 59.9257 31.5479C60.1822 31.5479 60.4302 31.4889 60.6697 31.3704C61.0742 31.1739 61.2762 30.8529 61.2762 30.4064V29.8219C61.1877 29.8784 61.0732 29.9254 60.9337 29.9634C60.7937 30.0014 60.6562 30.0284 60.5217 30.0444L60.0822 30.1009C59.8187 30.1359 59.6202 30.1909 59.4872 30.2664C59.2622 30.3924 59.1497 30.5939 59.1497 30.8709C59.1497 31.0804 59.2267 31.2454 59.3802 31.3664ZM60.9127 29.4024C61.0797 29.3809 61.1917 29.3109 61.2482 29.1924C61.2807 29.1279 61.2967 29.0344 61.2967 28.9124C61.2967 28.6639 61.2087 28.4834 61.0322 28.3714C60.8562 28.2594 60.6037 28.2034 60.2757 28.2034C59.8962 28.2034 59.6272 28.3059 59.4687 28.5119C59.3802 28.6254 59.3222 28.7944 59.2952 29.0189H58.6157C58.6292 28.4844 58.8022 28.1124 59.1347 27.9029C59.4672 27.6939 59.8532 27.5889 60.2922 27.5889C60.8007 27.5889 61.2142 27.6859 61.5317 27.8799C61.8467 28.0739 62.0042 28.3754 62.0042 28.7849V31.2774C62.0042 31.3529 62.0197 31.4134 62.0507 31.4589C62.0817 31.5049 62.1472 31.5274 62.2467 31.5274C62.2792 31.5274 62.3157 31.5254 62.3562 31.5214C62.3967 31.5174 62.4397 31.5114 62.4857 31.5034V32.0409C62.3722 32.0729 62.2862 32.0934 62.2267 32.1009C62.1672 32.1094 62.0867 32.1134 61.9842 32.1134C61.7332 32.1134 61.5517 32.0244 61.4382 31.8469C61.3787 31.7524 61.3372 31.6194 61.3127 31.4469C61.1647 31.6409 60.9517 31.8089 60.6742 31.9519C60.3967 32.0944 60.0902 32.1659 59.7562 32.1659C59.3547 32.1659 59.0262 32.0439 58.7717 31.8009C58.5167 31.5574 58.3892 31.2529 58.3892 30.8869C58.3892 30.4864 58.5147 30.1754 58.7652 29.9549C59.0162 29.7344 59.3447 29.5989 59.7522 29.5474L60.9127 29.4024Z" fill="#717374"/>
</g>
<mask id="mask21_6558_5023" style="mask-type:luminance" maskUnits="userSpaceOnUse" x="0" y="0" width="121" height="34">
<path d="M0.37561 33.85H120.947V0H0.37561V33.85Z" fill="#888889"/>
</mask>
<g mask="url(#mask21_6558_5023)">
<path fill-rule="evenodd" clip-rule="evenodd" d="M63.583 26.4863H64.319V27.6938H65.01V28.2878H64.319V31.1113C64.319 31.2623 64.37 31.3633 64.4725 31.4143C64.529 31.4443 64.6235 31.4588 64.7555 31.4588C64.7905 31.4588 64.8285 31.4578 64.8685 31.4558C64.909 31.4543 64.9565 31.4498 65.01 31.4428V32.0203C64.927 32.0443 64.8395 32.0618 64.7495 32.0728C64.659 32.0833 64.5615 32.0888 64.4565 32.0888C64.1165 32.0888 63.886 32.0018 63.765 31.8283C63.6435 31.6548 63.583 31.4293 63.583 31.1518V28.2878H62.9965V27.6938H63.583V26.4863Z" fill="#717374"/>
</g>
<mask id="mask22_6558_5023" style="mask-type:luminance" maskUnits="userSpaceOnUse" x="0" y="0" width="121" height="34">
<path d="M0.37561 33.85H120.947V0H0.37561V33.85Z" fill="#888889"/>
</mask>
<g mask="url(#mask22_6558_5023)">
<path fill-rule="evenodd" clip-rule="evenodd" d="M66.706 27.6943V30.5663C66.706 30.7873 66.74 30.9678 66.8085 31.1078C66.9345 31.3658 67.1695 31.4953 67.5135 31.4953C68.007 31.4953 68.343 31.2693 68.5215 30.8168C68.6185 30.5743 68.667 30.2418 68.667 29.8188V27.6943H69.395V32.0203H68.7075L68.7155 31.3823C68.623 31.5463 68.508 31.6853 68.3705 31.7983C68.098 32.0243 67.767 32.1378 67.3785 32.1378C66.7725 32.1378 66.36 31.9318 66.1405 31.5193C66.0215 31.2988 65.962 31.0038 65.962 30.6348V27.6943H66.706Z" fill="#717374"/>
</g>
<mask id="mask23_6558_5023" style="mask-type:luminance" maskUnits="userSpaceOnUse" x="0" y="0" width="121" height="34">
<path d="M0.37561 33.85H120.947V0H0.37561V33.85Z" fill="#888889"/>
</mask>
<g mask="url(#mask23_6558_5023)">
<path fill-rule="evenodd" clip-rule="evenodd" d="M70.8441 27.6937H71.5356V28.4407C71.5921 28.2957 71.7311 28.1182 71.9521 27.9097C72.1731 27.7012 72.4276 27.5967 72.7161 27.5967C72.7296 27.5967 72.7526 27.5982 72.7851 27.6007C72.8176 27.6037 72.8726 27.6087 72.9511 27.6167V28.3842C72.9076 28.3762 72.8681 28.3712 72.8316 28.3682C72.7951 28.3657 72.7551 28.3642 72.7121 28.3642C72.3456 28.3642 72.0641 28.4822 71.8671 28.7177C71.6706 28.9532 71.5721 29.2247 71.5721 29.5317V32.0197H70.8441V27.6937Z" fill="#717374"/>
</g>
<mask id="mask24_6558_5023" style="mask-type:luminance" maskUnits="userSpaceOnUse" x="0" y="0" width="121" height="34">
<path d="M0.37561 33.85H120.947V0H0.37561V33.85Z" fill="#888889"/>
</mask>
<g mask="url(#mask24_6558_5023)">
<path fill-rule="evenodd" clip-rule="evenodd" d="M76.7576 29.5122C76.7281 29.1972 76.6601 28.9452 76.5531 28.7567C76.3551 28.4067 76.0251 28.2317 75.5626 28.2317C75.2311 28.2317 74.9531 28.3522 74.7286 28.5932C74.5041 28.8342 74.3851 29.1407 74.3721 29.5122H76.7576ZM76.4971 27.8137C76.7836 27.9577 77.0021 28.1442 77.1521 28.3732C77.2966 28.5912 77.3931 28.8457 77.4411 29.1367C77.4841 29.3357 77.5056 29.6537 77.5056 30.0897H74.3556C74.3691 30.5302 74.4721 30.8832 74.6646 31.1492C74.8576 31.4152 75.1556 31.5482 75.5596 31.5482C75.9366 31.5482 76.2376 31.4222 76.4621 31.1707C76.5876 31.0247 76.6771 30.8557 76.7291 30.6637H77.4451C77.4261 30.8222 77.3631 30.9992 77.2571 31.1947C77.1506 31.3902 77.0316 31.5497 76.9006 31.6732C76.6811 31.8887 76.4096 32.0342 76.0861 32.1097C75.9121 32.1527 75.7156 32.1742 75.4961 32.1742C74.9606 32.1742 74.5061 31.9782 74.1336 31.5867C73.7616 31.1947 73.5751 30.6457 73.5751 29.9402C73.5751 29.2457 73.7626 28.6812 74.1381 28.2477C74.5131 27.8142 75.0031 27.5977 75.6086 27.5977C75.9141 27.5977 76.2101 27.6697 76.4971 27.8137Z" fill="#717374"/>
</g>
</svg>
