<svg width="254" height="104" viewBox="0 0 254 104" fill="none" xmlns="http://www.w3.org/2000/svg">
<g filter="url(#filter0_d_6748_41015)">
<rect x="4" y="4" width="246" height="96" rx="16" fill="white" fill-opacity="0.1" shape-rendering="crispEdges"/>
<path fill-rule="evenodd" clip-rule="evenodd" d="M100.982 44.5C100.982 48.6323 97.6182 52 93.4909 52C89.3636 52 86 48.6323 86 44.5C86 40.3677 89.3636 37 93.4909 37C97.6182 37 100.982 40.3677 100.982 44.5ZM97.2363 44.5C97.2363 42.4248 95.5454 40.75 93.4909 40.75C91.4364 40.75 89.7455 42.4248 89.7455 44.5C89.7455 46.5752 91.4182 48.25 93.4909 48.25C95.5636 48.25 97.2363 46.5752 97.2363 44.5ZM102.873 67V53.8568H116V67H102.873ZM106.637 63.25H112.255V57.625H106.637V63.25ZM109.891 37L87.4361 66.9818H92.127L114.582 37H109.891ZM123.896 42.806H126.209C126.915 42.806 127.216 42.6105 127.411 42.4149C127.591 42.2194 127.697 41.9487 127.697 41.6328C127.682 41.0161 127.501 40.4144 126.209 40.4144H123.896V42.806ZM126.585 46.2205H126.209H123.896V48.6421H126.585C128.313 48.6421 128.433 47.9953 128.433 47.4539C128.418 46.9124 128.192 46.2205 126.585 46.2205ZM131.107 41.5877C131.122 42.4901 130.867 43.4227 130.326 44.2049C131.257 45.0623 131.813 46.2054 131.843 47.3937C131.873 49.7853 129.68 52.0415 126.585 52.0415H123.896V63.5856H131.588V67H120.5V52.0415V51.9434V48.6421V46.2205V42.806V40.4144V37H123.896H126.209C129.079 37 131.077 39.3013 131.107 41.5877ZM135.301 52.0566V37H139.433L143.519 45.3781L147.621 37H151.753V52.0566H148.357V43.2723L144.977 50.1613H143.519H142.077L138.697 43.2723V52.0566H135.301ZM160.441 43.7687H159.058V40.4144H162.168C162.754 40.4144 162.98 40.5799 163.205 40.8506C163.43 41.1364 163.596 41.6027 163.596 42.084C163.596 42.5804 163.43 43.0467 163.205 43.3174C162.98 43.6032 162.754 43.7687 162.168 43.7687H160.441ZM160.441 47.1681C160.711 47.1681 160.967 47.2734 161.372 47.6945C161.793 48.1157 162.244 48.8377 162.649 49.6349C163.007 50.3511 163.327 51.1303 163.62 51.8455L163.701 52.0415H167.412C167.307 51.8159 167.096 51.3646 166.886 50.8382C166.571 50.056 166.18 49.0934 165.699 48.1157C165.414 47.5441 165.098 46.9876 164.738 46.4461C165.158 46.1904 165.534 45.8594 165.834 45.4985C166.661 44.5057 167.006 43.2874 167.006 42.084C167.006 40.8958 166.646 39.6774 165.834 38.6846C165.008 37.6919 163.671 37 162.168 37H159.058H158.067H155.663V51.9434H155.658V55.3579V57.7495V61.1639V63.5856V66.985H159.053H161.742C164.837 66.985 167.031 64.7287 167.001 62.3371C166.971 61.1489 166.415 60.0057 165.483 59.1483C166.024 58.3662 166.28 57.4336 166.265 56.5311C166.235 54.2448 164.236 51.9434 161.367 51.9434H159.058V47.1681H160.441ZM141.528 51.9434L135.863 66.985H139.499L140.656 63.9165H146.576L147.732 66.985H151.383L145.704 51.9434H141.528ZM141.948 60.5171L143.616 56.0799L145.299 60.5171H141.948ZM159.053 57.7495H161.367C162.073 57.7495 162.374 57.5539 162.569 57.3584C162.749 57.1629 162.854 56.8921 162.854 56.5762C162.839 55.9595 162.659 55.3579 161.367 55.3579H159.053V57.7495ZM161.742 61.1639H161.367H159.053V63.5856H161.742C163.47 63.5856 163.59 62.9388 163.59 62.3973C163.575 61.8558 163.35 61.1639 161.742 61.1639Z" fill="white"/>
</g>
<defs>
<filter id="filter0_d_6748_41015" x="0" y="0" width="254" height="104" filterUnits="userSpaceOnUse" color-interpolation-filters="sRGB">
<feFlood flood-opacity="0" result="BackgroundImageFix"/>
<feColorMatrix in="SourceAlpha" type="matrix" values="0 0 0 0 0 0 0 0 0 0 0 0 0 0 0 0 0 0 127 0" result="hardAlpha"/>
<feOffset/>
<feGaussianBlur stdDeviation="2"/>
<feComposite in2="hardAlpha" operator="out"/>
<feColorMatrix type="matrix" values="0 0 0 0 1 0 0 0 0 1 0 0 0 0 1 0 0 0 0.35 0"/>
<feBlend mode="normal" in2="BackgroundImageFix" result="effect1_dropShadow_6748_41015"/>
<feBlend mode="normal" in="SourceGraphic" in2="effect1_dropShadow_6748_41015" result="shape"/>
</filter>
</defs>
</svg>
