<svg width="143" height="56" viewBox="0 0 143 56" fill="none" xmlns="http://www.w3.org/2000/svg">
<path fill-rule="evenodd" clip-rule="evenodd" d="M119.235 33.3083C119.551 35.0143 121.194 36.5673 124.434 36.5673C127.776 36.5673 129.577 34.6972 129.577 32.931C129.577 30.2663 126.751 29.8719 125.235 29.6603C125.01 29.6295 124.794 29.5987 124.6 29.566C122.397 29.1869 121.347 28.8465 121.347 27.9422C121.347 27.3246 122.432 26.4339 124.394 26.4339C126.285 26.4339 127.239 27.3466 127.365 28.0499L129.326 27.389C128.886 25.8198 127.186 24.3887 124.397 24.3887C121.488 24.3887 119.295 25.9163 119.295 27.9422C119.295 30.7273 122.274 31.2408 124.249 31.5813L124.254 31.5823C124.454 31.616 124.67 31.6464 124.894 31.678L124.952 31.6862C126.947 31.9652 127.527 32.273 127.527 32.9367C127.527 33.6005 126.448 34.522 124.434 34.522C122.489 34.522 121.235 33.8025 121.235 32.6886H121.07L119.235 33.3083Z" fill="#717374"/>
<path d="M34.561 26.6432C35.2175 26.642 35.8638 26.8054 36.4401 27.1185C37.0164 27.4316 37.5041 27.8841 37.8584 28.4343L39.8878 27.457C39.2155 26.3006 38.1787 25.3973 36.9382 24.8871C35.6977 24.3768 34.3228 24.288 33.0265 24.6345C31.7302 24.981 30.5849 25.7435 29.7681 26.8037C28.9513 27.8639 28.5085 29.1626 28.5085 30.4987C28.5085 31.8348 28.9513 33.1335 29.7681 34.1938C30.5849 35.254 31.7302 36.0164 33.0265 36.363C34.3228 36.7094 35.6977 36.6207 36.9382 36.1104C38.1787 35.6001 39.2155 34.6968 39.8878 33.5405L37.8584 32.5535C37.5024 33.1002 37.0136 33.5487 36.4372 33.8574C35.8608 34.1661 35.2156 34.3251 34.561 34.3197C34.0481 34.3311 33.5379 34.2404 33.0607 34.0529C32.5833 33.8654 32.1485 33.5848 31.7816 33.2277C31.4147 32.8706 31.1232 32.4442 30.9242 31.9734C30.7252 31.5026 30.6227 30.997 30.6227 30.4862C30.6227 29.9755 30.7252 29.4698 30.9242 28.999C31.1232 28.5283 31.4147 28.1018 31.7816 27.7447C32.1485 27.3876 32.5833 27.107 33.0607 26.9195C33.5379 26.732 34.0481 26.6413 34.561 26.6527V26.6432Z" fill="#717374"/>
<path d="M72.1376 22.5585C72.4824 22.5595 72.8139 22.4252 73.0599 22.1846C73.3059 21.944 73.4467 21.6166 73.4518 21.2733C73.4518 20.9294 73.3146 20.5996 73.0703 20.3564C72.8259 20.1132 72.4946 19.9766 72.1491 19.9766C71.8036 19.9766 71.4723 20.1132 71.228 20.3564C70.9837 20.5996 70.8464 20.9294 70.8464 21.2733C70.8499 21.6131 70.9871 21.9379 71.2285 22.1782C71.4698 22.4185 71.7962 22.555 72.1376 22.5585Z" fill="#717374"/>
<path d="M47.8779 24.3946C47.147 24.3797 46.4233 24.5412 45.7687 24.8652C45.1141 25.1891 44.5479 25.666 44.1186 26.255V19.9541H41.8591V36.3076H44.1186V30.7282C44.1186 28.5022 45.4329 26.6417 47.6692 26.6417C49.4222 26.6417 50.7829 27.9884 50.7829 30.0625V36.3076H53.0424V30.0644C53.0424 26.9207 51.0361 24.3946 47.8779 24.3946Z" fill="#717374"/>
<path d="M137.02 24.394C133.63 24.394 131.048 27.1029 131.048 30.4775C131.048 33.8521 133.815 36.5611 137.275 36.5611C139.488 36.5611 141.528 35.5048 142.602 33.7367L140.619 32.7747C139.834 33.7848 138.613 34.3138 137.275 34.3138C136.408 34.3263 135.56 34.0512 134.868 33.5319C134.174 33.0126 133.674 32.2785 133.447 31.4453H142.969C143.338 26.9433 140.341 24.394 137.02 24.394ZM133.47 29.3963C133.658 28.6036 134.113 27.8988 134.758 27.3979C135.404 26.8971 136.202 26.6301 137.02 26.6412C138.82 26.6412 140.203 27.6282 140.596 29.3963H133.47Z" fill="#717374"/>
<path d="M96.861 24.3946C96.0643 24.3946 95.2775 24.5577 94.5474 24.8738C93.8174 25.1899 93.1602 25.6522 92.6185 26.232V19.9541H90.3564V36.3076H92.6185V34.7242C93.1575 35.3077 93.8139 35.7726 94.5439 36.089C95.2748 36.4054 96.0635 36.5664 96.861 36.5616C100.251 36.5616 102.88 33.8527 102.88 30.4781C102.88 27.1034 100.251 24.3946 96.861 24.3946ZM96.6541 34.3106C94.5084 34.3106 92.7091 32.6137 92.7091 30.4781C92.7091 28.3425 94.5084 26.6436 96.6541 26.6436C98.7988 26.6436 100.619 28.3425 100.619 30.4781C100.619 32.6137 98.7971 34.3106 96.6541 34.3106Z" fill="#717374"/>
<path d="M73.2665 24.6694H71.0303V36.3073H72.3021H73.2665V24.6694Z" fill="#717374"/>
<path d="M82.6624 24.3945C81.9315 24.3797 81.2077 24.5411 80.5531 24.8651C79.8985 25.1891 79.3323 25.6659 78.903 26.2549V24.6696H76.6436V36.3075H78.903V30.7281C78.903 28.5021 80.2173 26.6417 82.4536 26.6417C84.2066 26.6417 85.5674 27.9884 85.5674 30.0625V36.3075H87.8268V30.0644C87.8268 26.9206 85.8205 24.3945 82.6624 24.3945Z" fill="#717374"/>
<path fill-rule="evenodd" clip-rule="evenodd" d="M63.2789 24.8709C64.0129 25.187 64.6735 25.6501 65.2197 26.2314V24.6692H67.4792V34.4986H68.4457V36.3071H66.7912H65.2197V34.7237C64.6767 35.309 64.0167 35.7749 63.282 36.0913C62.5474 36.4077 61.7545 36.5678 60.954 36.5611C57.5638 36.5611 54.9353 33.8522 54.9353 30.4775C54.9353 27.1029 57.5638 24.3941 60.954 24.3941C61.7537 24.3925 62.5451 24.5548 63.2789 24.8709ZM57.2179 30.4795C57.2179 32.6151 59.0155 34.312 61.1609 34.312V34.3101C63.3063 34.3101 65.127 32.6151 65.127 30.4795C65.127 28.3439 63.3063 26.6451 61.1609 26.6451C59.0155 26.6451 57.2179 28.3439 57.2179 30.4795Z" fill="#717374"/>
<path fill-rule="evenodd" clip-rule="evenodd" d="M112.832 24.8734C113.563 25.1895 114.222 25.6517 114.766 26.2314V24.6692H117.026V34.4985H118.013V36.307H117.026H114.766V34.7237C114.226 35.3075 113.567 35.7725 112.835 36.089C112.103 36.4053 111.313 36.5661 110.514 36.5611C107.118 36.5611 104.495 33.8521 104.495 30.4775C104.495 27.1029 107.124 24.394 110.514 24.394C111.312 24.3942 112.1 24.5574 112.832 24.8734ZM106.764 30.4795C106.764 32.615 108.564 34.312 110.708 34.312V34.3101C112.86 34.3101 114.674 32.6132 114.674 30.4775C114.674 28.342 112.834 26.6431 110.708 26.6431C108.582 26.6431 106.764 28.3439 106.764 30.4795Z" fill="#717374"/>
<path fill-rule="evenodd" clip-rule="evenodd" d="M22.7357 17.1113H0V39.6056H22.7357V17.1113ZM19.1832 34.3335H11.1902V36.0908H19.1832V34.3335Z" fill="#717374"/>
</svg>
