<svg width="254" height="104" viewBox="0 0 254 104" fill="none" xmlns="http://www.w3.org/2000/svg">
<g filter="url(#filter0_d_6516_40705)">
<rect x="4" y="4" width="246" height="96" rx="16" fill="white" fill-opacity="0.1" shape-rendering="crispEdges"/>
<g opacity="0.72">
<path fill-rule="evenodd" clip-rule="evenodd" d="M187.675 58.8246C188.076 61.0179 190.166 63.0146 194.288 63.0146C198.539 63.0146 200.831 60.6102 200.831 58.3395C200.831 54.9134 197.236 54.4063 195.306 54.1342C195.02 54.0946 194.746 54.0551 194.5 54.013C191.697 53.5257 190.361 53.0879 190.361 51.9253C190.361 51.1312 191.741 49.986 194.236 49.986C196.643 49.986 197.856 51.1594 198.016 52.0638L200.511 51.214C199.95 49.1965 197.788 47.3564 194.241 47.3564C190.541 47.3564 187.751 49.3206 187.751 51.9253C187.751 55.5061 191.54 56.1663 194.052 56.6041L194.059 56.6054C194.313 56.6487 194.588 56.6878 194.873 56.7285L194.947 56.739C197.484 57.0976 198.222 57.4934 198.222 58.3468C198.222 59.2002 196.849 60.3851 194.288 60.3851C191.814 60.3851 190.219 59.4599 190.219 58.0278H190.009L187.675 58.8246Z" fill="white"/>
<path d="M79.9638 50.2554C80.7989 50.2539 81.621 50.4641 82.3541 50.8666C83.0872 51.2691 83.7076 51.8509 84.1583 52.5584L86.7398 51.3018C85.8845 49.815 84.5656 48.6536 82.9877 47.9976C81.4097 47.3415 79.6607 47.2274 78.0117 47.6729C76.3628 48.1184 74.9059 49.0987 73.8668 50.4618C72.8278 51.825 72.2646 53.4947 72.2646 55.2126C72.2646 56.9303 72.8278 58.6002 73.8668 59.9633C74.9059 61.3265 76.3628 62.3067 78.0117 62.7523C79.6607 63.1978 81.4097 63.0837 82.9877 62.4276C84.5656 61.7715 85.8845 60.6101 86.7398 59.1234L84.1583 57.8545C83.7053 58.5574 83.0835 59.134 82.3503 59.5309C81.6171 59.9277 80.7964 60.1322 79.9638 60.1252C79.3112 60.1399 78.6623 60.0233 78.0552 59.7822C77.448 59.5411 76.8949 59.1804 76.4282 58.7213C75.9615 58.2622 75.5907 57.7139 75.3375 57.1086C75.0844 56.5033 74.954 55.8532 74.954 55.1965C74.954 54.5398 75.0844 53.8897 75.3375 53.2843C75.5907 52.6791 75.9615 52.1308 76.4282 51.6717C76.8949 51.2125 77.448 50.8518 78.0552 50.6107C78.6623 50.3696 79.3112 50.253 79.9638 50.2677V50.2554Z" fill="white"/>
<path d="M127.764 45.0037C128.202 45.0051 128.624 44.8323 128.937 44.523C129.25 44.2137 129.429 43.7927 129.435 43.3513C129.435 42.9091 129.261 42.4851 128.95 42.1724C128.639 41.8597 128.218 41.6841 127.778 41.6841C127.339 41.6841 126.917 41.8597 126.606 42.1724C126.296 42.4851 126.121 42.9091 126.121 43.3513C126.125 43.7882 126.3 44.2058 126.607 44.5148C126.914 44.8237 127.329 44.9992 127.764 45.0037Z" fill="white"/>
<path d="M96.9038 47.3639C95.974 47.3449 95.0535 47.5525 94.2208 47.969C93.388 48.3856 92.6678 48.9986 92.1217 49.7559V41.6548H89.2476V62.6807H92.1217V55.5072C92.1217 52.6452 93.7936 50.2531 96.6383 50.2531C98.8683 50.2531 100.599 51.9847 100.599 54.6513V62.6807H103.473V54.6538C103.473 50.6118 100.921 47.3639 96.9038 47.3639Z" fill="white"/>
<path d="M210.299 47.3638C205.985 47.3638 202.701 50.8466 202.701 55.1854C202.701 59.5241 206.221 63.0071 210.623 63.0071C213.438 63.0071 216.032 61.649 217.399 59.3758L214.876 58.139C213.878 59.4376 212.324 60.1178 210.623 60.1178C209.519 60.1338 208.441 59.7801 207.56 59.1125C206.678 58.4448 206.042 57.5009 205.753 56.4297H217.866C218.336 50.6414 214.523 47.3638 210.299 47.3638ZM205.782 53.7952C206.021 52.7761 206.6 51.8698 207.421 51.2259C208.243 50.5819 209.257 50.2387 210.299 50.253C212.587 50.253 214.348 51.522 214.847 53.7952H205.782Z" fill="white"/>
<path d="M159.213 47.3639C158.2 47.3639 157.199 47.5737 156.27 47.9801C155.342 48.3865 154.506 48.9809 153.816 49.7263V41.6548H150.939V62.6807H153.816V60.645C154.502 61.3951 155.337 61.9929 156.266 62.3997C157.195 62.8065 158.199 63.0135 159.213 63.0072C163.525 63.0072 166.869 59.5244 166.869 55.1856C166.869 50.8468 163.525 47.3639 159.213 47.3639ZM158.95 60.1131C156.22 60.1131 153.932 57.9313 153.932 55.1856C153.932 52.4398 156.22 50.2556 158.95 50.2556C161.678 50.2556 163.994 52.4398 163.994 55.1856C163.994 57.9313 161.676 60.1131 158.95 60.1131Z" fill="white"/>
<path d="M129.199 47.7173H126.354V62.6803H127.972H129.199V47.7173Z" fill="white"/>
<path d="M141.151 47.364C140.222 47.3449 139.301 47.5525 138.468 47.9691C137.636 48.3856 136.915 48.9987 136.369 49.756V47.7177H133.495V62.6807H136.369V55.5073C136.369 52.6452 138.041 50.2532 140.886 50.2532C143.116 50.2532 144.847 51.9848 144.847 54.6514V62.6807H147.721V54.6539C147.721 50.6119 145.169 47.364 141.151 47.364Z" fill="white"/>
<path fill-rule="evenodd" clip-rule="evenodd" d="M116.494 47.9769C117.428 48.3833 118.268 48.9787 118.963 49.7261V47.7175H121.837V60.3554H123.067V62.6806H120.962H118.963V60.6447C118.273 61.3973 117.433 61.9963 116.498 62.4031C115.564 62.81 114.555 63.0157 113.537 63.0071C109.225 63.0071 105.881 59.5242 105.881 55.1854C105.881 50.8466 109.225 47.3638 113.537 47.3638C114.554 47.3618 115.561 47.5705 116.494 47.9769ZM108.784 55.1879C108.784 57.9337 111.071 60.1154 113.8 60.1154V60.1129C116.529 60.1129 118.845 57.9337 118.845 55.1879C118.845 52.4422 116.529 50.2579 113.8 50.2579C111.071 50.2579 108.784 52.4422 108.784 55.1879Z" fill="white"/>
<path fill-rule="evenodd" clip-rule="evenodd" d="M179.529 47.9801C180.459 48.3865 181.297 48.9807 181.99 49.7261V47.7175H184.864V60.3553H186.12V62.6805H184.864H181.99V60.6447C181.302 61.3954 180.465 61.9933 179.533 62.4001C178.602 62.8068 177.596 63.0135 176.581 63.0071C172.26 63.0071 168.924 59.5241 168.924 55.1854C168.924 50.8466 172.268 47.3638 176.581 47.3638C177.595 47.364 178.598 47.5738 179.529 47.9801ZM171.811 55.1879C171.811 57.9336 174.1 60.1154 176.827 60.1154V60.1129C179.565 60.1129 181.872 57.9312 181.872 55.1854C181.872 52.4397 179.531 50.2555 176.827 50.2555C174.122 50.2555 171.811 52.4422 171.811 55.1879Z" fill="white"/>
<path fill-rule="evenodd" clip-rule="evenodd" d="M64.9212 38H36V66.9212H64.9212V38ZM60.4022 60.1428H50.2346V62.4022H60.4022V60.1428Z" fill="white"/>
</g>
</g>
<defs>
<filter id="filter0_d_6516_40705" x="0" y="0" width="254" height="104" filterUnits="userSpaceOnUse" color-interpolation-filters="sRGB">
<feFlood flood-opacity="0" result="BackgroundImageFix"/>
<feColorMatrix in="SourceAlpha" type="matrix" values="0 0 0 0 0 0 0 0 0 0 0 0 0 0 0 0 0 0 127 0" result="hardAlpha"/>
<feOffset/>
<feGaussianBlur stdDeviation="2"/>
<feComposite in2="hardAlpha" operator="out"/>
<feColorMatrix type="matrix" values="0 0 0 0 1 0 0 0 0 1 0 0 0 0 1 0 0 0 0.35 0"/>
<feBlend mode="normal" in2="BackgroundImageFix" result="effect1_dropShadow_6516_40705"/>
<feBlend mode="normal" in="SourceGraphic" in2="effect1_dropShadow_6516_40705" result="shape"/>
</filter>
</defs>
</svg>
