<svg width="57" height="56" viewBox="0 0 57 56" fill="none" xmlns="http://www.w3.org/2000/svg">
<g clip-path="url(#clip0_8115_96909)">
<path d="M28.3545 56C43.8185 56 56.3545 43.464 56.3545 28C56.3545 12.536 43.8185 0 28.3545 0C12.8905 0 0.354492 12.536 0.354492 28C0.354492 43.464 12.8905 56 28.3545 56Z" fill="#717374"/>
<path opacity="0.5" d="M23.0176 15.6914C34.2142 19.4882 36.5662 30.4481 33.3686 37.8358C33.3686 37.8358 30.9402 36.1437 23.8071 37.2933C21.2081 37.7122 17.1693 38.4876 13.4168 40.1065C11.7485 40.6945 12.33 40.4528 10.8545 41.1246C20.4321 35.3026 23.4836 24.8122 23.0176 15.6914Z" fill="white"/>
<path d="M31.4497 10.7686C45.5543 16.4523 46.464 31.8279 40.3251 39.782C33.4473 37.2263 24.8459 35.5879 13.4055 40.1196C24.7045 33.9765 31.4627 21.3439 31.4497 10.7686Z" fill="white"/>
</g>
<defs>
<clipPath id="clip0_8115_96909">
<rect width="56" height="56" fill="white" transform="translate(0.354492)"/>
</clipPath>
</defs>
</svg>
