<svg width="56" height="56" viewBox="0 0 56 56" fill="none" xmlns="http://www.w3.org/2000/svg">
<g clip-path="url(#clip0_8348_11380)">
<path d="M28 44C36.8366 44 44 36.8366 44 28C44 19.1634 36.8366 12 28 12C19.1634 12 12 19.1634 12 28C12 36.8366 19.1634 44 28 44Z" fill="#717374"/>
<path opacity="0.5" d="M24.9504 20.9668C31.3484 23.1364 32.6924 29.3992 30.8652 33.6208C30.8652 33.6208 29.4776 32.6538 25.4015 33.3107C23.9164 33.5501 21.6085 33.9932 19.4643 34.9183C18.5109 35.2543 18.8432 35.1162 18.0001 35.5001C23.473 32.1732 25.2167 26.1787 24.9504 20.9668Z" fill="white"/>
<path d="M29.7686 18.1533C37.8284 21.4012 38.3482 30.1872 34.8403 34.7324C30.9101 33.272 25.995 32.3358 19.4577 34.9254C25.9142 31.415 29.7761 24.1964 29.7686 18.1533Z" fill="white"/>
</g>
<defs>
<clipPath id="clip0_8348_11380">
<rect width="32" height="32" fill="white" transform="translate(12 12)"/>
</clipPath>
</defs>
</svg>
