<svg width="71" height="56" viewBox="0 0 71 56" fill="none" xmlns="http://www.w3.org/2000/svg">
<path d="M41.5002 38.9999C44.3002 41.7999 43.3335 45.4999 42.5002 46.9999C54.5003 44.9998 61.5 38.5 59.5 24.5C57.9 13.3 48.1667 9.5 43.5 9H27.5001C27.0001 9.16667 26.1001 9.8 26.5001 11C27.0001 12.5 28.0001 12.5 29.5001 13C31.0001 13.5 30.5001 16.5 28.5001 16.5C26.5001 16.5 26.5001 17 26.5001 19C26.5001 20.6 29.1667 20.6665 30.5001 20.4997C36.0001 19.3331 45 17.5 48.5 19.5C50.7238 20.7707 51.6667 23.9998 52.0001 24.9999C51.1667 23.9999 48.7001 22.1999 45.5001 22.9999C42.3001 23.7999 39.1667 26.9999 38.0001 28.4999L38.0002 25.9999C35.5002 33.9999 38.0002 35.4999 41.5002 38.9999Z" fill="#717374"/>
<circle cx="24.75" cy="14.75" r="1.75" fill="#717374"/>
<circle cx="20.5" cy="18.5" r="1.5" fill="#717374"/>
<circle cx="20.5" cy="10.5" r="1.5" fill="#717374"/>
<circle cx="13" cy="11" r="1" fill="#717374"/>
</svg>
