<svg width="56" height="56" viewBox="0 0 56 56" fill="none" xmlns="http://www.w3.org/2000/svg">
<path d="M32.9476 38.421C35.6002 41.0737 34.6844 44.5789 33.895 46C45.2635 44.1052 51.8948 37.9474 50.0001 24.6842C48.4843 14.0737 39.2633 10.4737 34.8422 10H19.6843C19.2106 10.1579 18.358 10.7579 18.737 11.8947C19.2106 13.3158 20.158 13.3158 21.5791 13.7895C23.0001 14.2632 22.5264 17.1053 20.6317 17.1053C18.737 17.1053 18.737 17.579 18.737 19.4737C18.737 20.9895 21.2632 21.0525 22.5264 20.8945C27.737 19.7893 36.2632 18.0527 39.579 19.9474C41.6858 21.1512 42.5791 24.2104 42.8949 25.1578C42.1054 24.2105 39.7686 22.5052 36.737 23.2631C33.7054 24.021 30.7369 27.0526 29.6317 28.4736L29.6318 26.1052C27.2634 33.6842 29.6318 35.1052 32.9476 38.421Z" fill="#717374"/>
<path d="M17.079 17.1049C17.9946 17.1049 18.7369 16.3626 18.7369 15.447C18.7369 14.5313 17.9946 13.7891 17.079 13.7891C16.1633 13.7891 15.4211 14.5313 15.4211 15.447C15.4211 16.3626 16.1633 17.1049 17.079 17.1049Z" fill="#717374"/>
<path d="M13.0526 20.4212C13.8375 20.4212 14.4737 19.785 14.4737 19.0002C14.4737 18.2153 13.8375 17.5791 13.0526 17.5791C12.2678 17.5791 11.6316 18.2153 11.6316 19.0002C11.6316 19.785 12.2678 20.4212 13.0526 20.4212Z" fill="#717374"/>
<path d="M13.0526 12.8421C13.8375 12.8421 14.4737 12.2059 14.4737 11.4211C14.4737 10.6362 13.8375 10 13.0526 10C12.2678 10 11.6316 10.6362 11.6316 11.4211C11.6316 12.2059 12.2678 12.8421 13.0526 12.8421Z" fill="#717374"/>
<path d="M5.94737 12.842C6.47059 12.842 6.89474 12.4179 6.89474 11.8946C6.89474 11.3714 6.47059 10.9473 5.94737 10.9473C5.42415 10.9473 5 11.3714 5 11.8946C5 12.4179 5.42415 12.842 5.94737 12.842Z" fill="#717374"/>
</svg>
