<svg width="56" height="56" viewBox="0 0 56 56" fill="none" xmlns="http://www.w3.org/2000/svg">
<g clip-path="url(#clip0_8348_11386)">
<mask id="mask0_8348_11386" style="mask-type:luminance" maskUnits="userSpaceOnUse" x="0" y="17" width="56" height="22">
<path d="M55.289 17H0V38.0965H55.289V17Z" fill="white"/>
</mask>
<g mask="url(#mask0_8348_11386)">
<mask id="mask1_8348_11386" style="mask-type:luminance" maskUnits="userSpaceOnUse" x="0" y="17" width="56" height="22">
<path d="M0 17H55.2823V38.0965H0V17Z" fill="white"/>
</mask>
<g mask="url(#mask1_8348_11386)">
<path d="M22.6534 28.1649H25.7223C28.6329 28.1649 30.3357 26.6175 30.3357 24.3649C30.3395 23.8628 30.2429 23.3649 30.0517 22.9005C29.8605 22.4361 29.5785 22.0146 29.2223 21.6607C28.866 21.3067 28.4426 21.0275 27.977 20.8394C27.5114 20.6512 27.0129 20.558 26.5108 20.565H19.3111L17.8175 17.2161H26.7642C27.7112 17.1922 28.6531 17.3605 29.5333 17.7107C30.4134 18.0609 31.2134 18.5859 31.885 19.2539C32.5566 19.9218 33.086 20.719 33.441 21.5972C33.796 22.4754 33.9694 23.4164 33.9507 24.3635C33.9566 25.8101 33.5094 27.2224 32.6719 28.402C31.8343 29.5816 30.6484 30.4693 29.2806 30.9405L34.8806 37.956H30.5597L22.6534 28.1649Z" fill="#717374"/>
</g>
<mask id="mask2_8348_11386" style="mask-type:luminance" maskUnits="userSpaceOnUse" x="0" y="17" width="56" height="22">
<path d="M0 17H55.2823V38.0965H0V17Z" fill="white"/>
</mask>
<g mask="url(#mask2_8348_11386)">
<path d="M22.6534 28.1649H25.7223C28.6329 28.1649 30.3357 26.6175 30.3357 24.3649C30.3395 23.8628 30.2429 23.3649 30.0517 22.9005C29.8605 22.4361 29.5785 22.0146 29.2223 21.6607C28.866 21.3067 28.4426 21.0275 27.977 20.8394C27.5114 20.6512 27.0129 20.558 26.5108 20.565H19.3111L17.8175 17.2161H26.7642C27.7112 17.1922 28.6531 17.3605 29.5333 17.7107C30.4134 18.0609 31.2134 18.5859 31.885 19.2539C32.5566 19.9218 33.086 20.719 33.441 21.5972C33.796 22.4754 33.9694 23.4164 33.9507 24.3635C33.9566 25.8101 33.5094 27.2224 32.6719 28.402C31.8343 29.5816 30.6484 30.4693 29.2806 30.9405L34.8806 37.956H30.5597L22.6534 28.1649Z" fill="#717374"/>
</g>
<mask id="mask3_8348_11386" style="mask-type:luminance" maskUnits="userSpaceOnUse" x="17" y="17" width="18" height="21">
<path d="M17.8175 17.2161L19.3111 20.565H26.5167C27.0187 20.5582 27.5171 20.6515 27.9827 20.8396C28.4482 21.0277 28.8716 21.3068 29.2279 21.6605C29.5844 22.0142 29.8666 22.4354 30.0582 22.8996C30.2498 23.3637 30.3469 23.8614 30.3438 24.3635C30.3438 26.6131 28.641 28.1634 25.7305 28.1634H22.6549L30.5531 37.9553H34.8739L29.2739 30.9398C30.6436 30.4703 31.8316 29.5835 32.6711 28.4039C33.5106 27.2243 33.9594 25.8113 33.9543 24.3635C33.9731 23.4164 33.7997 22.4754 33.4447 21.5972C33.0897 20.719 32.5603 19.9218 31.8887 19.2539C31.2171 18.5859 30.4171 18.0609 29.537 17.7107C28.6568 17.3605 27.7148 17.1922 26.7679 17.2161H17.8175Z" fill="white"/>
</mask>
<g mask="url(#mask3_8348_11386)">
<path d="M16.7056 16.1167H35.991V39.0619H16.7056V16.1167Z" fill="#717374"/>
</g>
<mask id="mask4_8348_11386" style="mask-type:luminance" maskUnits="userSpaceOnUse" x="0" y="17" width="56" height="22">
<path d="M0 17H55.2823V38.0965H0V17Z" fill="white"/>
</mask>
<g mask="url(#mask4_8348_11386)">
<path d="M38.0873 17.2158C38.7577 18.2516 39.2787 19.3768 39.6347 20.5581H44.8957V37.9476H48.4922V20.5648H55.2911V17.2158H38.0873Z" fill="#717374"/>
</g>
<mask id="mask5_8348_11386" style="mask-type:luminance" maskUnits="userSpaceOnUse" x="0" y="17" width="56" height="22">
<path d="M0 17H55.2823V38.0965H0V17Z" fill="white"/>
</mask>
<g mask="url(#mask5_8348_11386)">
<path d="M38.0873 17.2158C38.7577 18.2516 39.2787 19.3768 39.6347 20.5581H44.8957V37.9476H48.4922V20.5648H55.2911V17.2158H38.0873Z" fill="#717374"/>
</g>
<mask id="mask6_8348_11386" style="mask-type:luminance" maskUnits="userSpaceOnUse" x="38" y="17" width="18" height="21">
<path d="M38.0873 17.2158C38.7564 18.2547 39.2772 19.3819 39.6347 20.5648H44.8957V37.9543H48.4922V20.5648H55.2911V17.2158H38.0873Z" fill="white"/>
</mask>
<g mask="url(#mask6_8348_11386)">
<path d="M36.9754 16.1167H56.4007V39.0619H36.9754V16.1167Z" fill="#717374"/>
</g>
<mask id="mask7_8348_11386" style="mask-type:luminance" maskUnits="userSpaceOnUse" x="0" y="17" width="56" height="22">
<path d="M0 17H55.2823V38.0965H0V17Z" fill="white"/>
</mask>
<g mask="url(#mask7_8348_11386)">
<path d="M8.30495 25.1841L13.986 37.8674H17.9465L8.63506 17C8.63506 17 6.23292 22.3789 5.7886 23.3796C6.86882 22.9154 7.52979 23.3604 8.30495 25.1841Z" fill="#717374"/>
</g>
<mask id="mask8_8348_11386" style="mask-type:luminance" maskUnits="userSpaceOnUse" x="0" y="17" width="56" height="22">
<path d="M0 17H55.2823V38.0965H0V17Z" fill="white"/>
</mask>
<g mask="url(#mask8_8348_11386)">
<path d="M8.30495 25.1841L13.986 37.8674H17.9465L8.63506 17C8.63506 17 6.23292 22.3789 5.7886 23.3796C6.86882 22.9154 7.52979 23.3604 8.30495 25.1841Z" fill="#717374"/>
</g>
<mask id="mask9_8348_11386" style="mask-type:luminance" maskUnits="userSpaceOnUse" x="5" y="17" width="13" height="21">
<path d="M8.63506 17C8.63506 17 6.23292 22.3789 5.7886 23.3796C6.86882 22.9154 7.52316 23.3604 8.30495 25.1841L13.986 37.8674H17.9465L8.63506 17Z" fill="white"/>
</mask>
<g mask="url(#mask9_8348_11386)">
<path d="M4.67668 15.894H19.0561V38.9668H4.67668V15.894Z" fill="#717374"/>
</g>
<mask id="mask10_8348_11386" style="mask-type:luminance" maskUnits="userSpaceOnUse" x="0" y="17" width="56" height="22">
<path d="M0 17H55.2823V38.0965H0V17Z" fill="white"/>
</mask>
<g mask="url(#mask10_8348_11386)">
<path d="M2.73288 32.6694C2.19687 32.672 1.67364 32.8334 1.22923 33.1331C0.784814 33.4328 0.439142 33.8575 0.23583 34.3534C0.0325173 34.8494 -0.0193214 35.3944 0.086855 35.9199C0.193032 36.4452 0.452466 36.9274 0.832414 37.3055C1.21237 37.6837 1.6958 37.9407 2.22172 38.0443C2.74764 38.1479 3.29246 38.0935 3.78743 37.8878C4.2824 37.682 4.70534 37.3342 5.00287 36.8884C5.30041 36.4425 5.45919 35.9185 5.4592 35.3825C5.45843 35.0253 5.38728 34.6717 5.24984 34.3421C5.11239 34.0124 4.91134 33.713 4.65816 33.4611C4.40497 33.2092 4.10463 33.0096 3.77429 32.8737C3.44394 32.7379 3.09007 32.6685 2.73288 32.6694Z" fill="#717374"/>
</g>
<mask id="mask11_8348_11386" style="mask-type:luminance" maskUnits="userSpaceOnUse" x="0" y="32" width="6" height="7">
<path d="M3.22761e-05 35.383C-0.00259367 35.9228 0.155068 36.4512 0.453039 36.9012C0.751012 37.3513 1.17587 37.7029 1.67381 37.9112C2.17174 38.1196 2.72033 38.1755 3.25005 38.0718C3.77977 37.9681 4.26679 37.7095 4.64941 37.3288C5.03201 36.948 5.29299 36.4622 5.39927 35.933C5.50554 35.4038 5.45233 34.855 5.24638 34.356C5.04043 33.8571 4.691 33.4305 4.24238 33.1304C3.79376 32.8302 3.26613 32.6699 2.72635 32.6699C2.36917 32.669 2.01529 32.7384 1.68495 32.8743C1.3546 33.0101 1.05426 33.2097 0.80108 33.4616C0.5479 33.7136 0.346841 34.013 0.209394 34.3426C0.0719472 34.6723 0.000805339 35.0258 3.22761e-05 35.383Z" fill="white"/>
</mask>
<g mask="url(#mask11_8348_11386)">
<path d="M-1.11192 31.564H6.57039V39.1954H-1.11192V31.564Z" fill="#717374"/>
</g>
</g>
</g>
<defs>
<clipPath id="clip0_8348_11386">
<rect width="56" height="21.3684" fill="white" transform="translate(0 17)"/>
</clipPath>
</defs>
</svg>
