<svg width="76" height="29" viewBox="0 0 76 29" fill="none" xmlns="http://www.w3.org/2000/svg">
<g clip-path="url(#clip0_8313_6645)">
<mask id="mask0_8313_6645" style="mask-type:luminance" maskUnits="userSpaceOnUse" x="0" y="0" width="76" height="29">
<path d="M0 0H75.026V28.631H0V0Z" fill="white"/>
</mask>
<g mask="url(#mask0_8313_6645)">
<path d="M30.7439 15.1521H34.9089C38.8589 15.1521 41.1699 13.0521 41.1699 9.99506C41.175 9.31353 41.044 8.63784 40.7845 8.00762C40.525 7.3774 40.1423 6.80534 39.6588 6.325C39.1753 5.84466 38.6007 5.46571 37.9688 5.21037C37.3369 4.95504 36.6604 4.82846 35.9789 4.83806H26.2079L24.1809 0.293063H36.3229C37.608 0.260656 38.8864 0.489005 40.0809 0.964325C41.2753 1.43964 42.361 2.15208 43.2725 3.05861C44.184 3.96515 44.9024 5.04699 45.3842 6.23882C45.866 7.43066 46.1013 8.70777 46.0759 9.99306C46.084 11.9564 45.4771 13.873 44.3404 15.4739C43.2037 17.0748 41.5942 18.2795 39.7379 18.9191L47.3379 28.4401H41.4739L30.7439 15.1521Z" fill="#717374"/>
</g>
<mask id="mask1_8313_6645" style="mask-type:luminance" maskUnits="userSpaceOnUse" x="0" y="0" width="76" height="29">
<path d="M0 0H75.026V28.631H0V0Z" fill="white"/>
</mask>
<g mask="url(#mask1_8313_6645)">
<path d="M30.7439 15.1521H34.9089C38.8589 15.1521 41.1699 13.0521 41.1699 9.99506C41.175 9.31353 41.044 8.63784 40.7845 8.00762C40.525 7.3774 40.1423 6.80534 39.6588 6.325C39.1753 5.84466 38.6007 5.46571 37.9688 5.21037C37.3369 4.95504 36.6604 4.82846 35.9789 4.83806H26.2079L24.1809 0.293063H36.3229C37.608 0.260656 38.8864 0.489005 40.0809 0.964325C41.2753 1.43964 42.361 2.15208 43.2725 3.05861C44.184 3.96515 44.9024 5.04699 45.3842 6.23882C45.866 7.43066 46.1013 8.70777 46.0759 9.99306C46.084 11.9564 45.4771 13.873 44.3404 15.4739C43.2037 17.0748 41.5942 18.2795 39.7379 18.9191L47.3379 28.4401H41.4739L30.7439 15.1521Z" fill="#717374"/>
</g>
<mask id="mask2_8313_6645" style="mask-type:luminance" maskUnits="userSpaceOnUse" x="24" y="0" width="24" height="29">
<path d="M24.1809 0.293063L26.2079 4.83806H35.9869C36.6683 4.82874 37.3447 4.95542 37.9765 5.2107C38.6083 5.46597 39.1829 5.84471 39.6665 6.32474C40.1502 6.80477 40.5333 7.37646 40.7933 8.00634C41.0533 8.63622 41.1851 9.31164 41.1809 9.99306C41.1809 13.0461 38.8699 15.1501 34.9199 15.1501H30.7459L41.4649 28.4391H47.3289L39.7289 18.9181C41.5877 18.2809 43.2 17.0774 44.3394 15.4765C45.4787 13.8756 46.0878 11.958 46.0809 9.99306C46.1063 8.70777 45.871 7.43066 45.3892 6.23882C44.9074 5.04699 44.189 3.96515 43.2775 3.05861C42.366 2.15208 41.2803 1.43965 40.0859 0.964326C38.8914 0.489006 37.613 0.260656 36.3279 0.293063H24.1809Z" fill="white"/>
</mask>
<g mask="url(#mask2_8313_6645)">
<path d="M22.6719 -1.19897H48.8449V29.941H22.6719V-1.19897Z" fill="#717374"/>
</g>
<mask id="mask3_8313_6645" style="mask-type:luminance" maskUnits="userSpaceOnUse" x="0" y="0" width="76" height="29">
<path d="M0 0H75.026V28.631H0V0Z" fill="white"/>
</mask>
<g mask="url(#mask3_8313_6645)">
<path d="M51.6899 0.292969C52.5998 1.69867 53.3068 3.22572 53.7899 4.82897H60.9299V28.429H65.8109V4.83797H75.0379V0.292969H51.6899Z" fill="#717374"/>
</g>
<mask id="mask4_8313_6645" style="mask-type:luminance" maskUnits="userSpaceOnUse" x="0" y="0" width="76" height="29">
<path d="M0 0H75.026V28.631H0V0Z" fill="white"/>
</mask>
<g mask="url(#mask4_8313_6645)">
<path d="M51.6899 0.292969C52.5998 1.69867 53.3068 3.22572 53.7899 4.82897H60.9299V28.429H65.8109V4.83797H75.0379V0.292969H51.6899Z" fill="#717374"/>
</g>
<mask id="mask5_8313_6645" style="mask-type:luminance" maskUnits="userSpaceOnUse" x="51" y="0" width="25" height="29">
<path d="M51.6899 0.292969C52.598 1.70286 53.3048 3.23262 53.7899 4.83797H60.9299V28.438H65.8109V4.83797H75.0379V0.292969H51.6899Z" fill="white"/>
</mask>
<g mask="url(#mask5_8313_6645)">
<path d="M50.1809 -1.19897H76.5439V29.941H50.1809V-1.19897Z" fill="#717374"/>
</g>
<mask id="mask6_8313_6645" style="mask-type:luminance" maskUnits="userSpaceOnUse" x="0" y="0" width="76" height="29">
<path d="M0 0H75.026V28.631H0V0Z" fill="white"/>
</mask>
<g mask="url(#mask6_8313_6645)">
<path d="M11.271 11.107L18.981 28.32H24.356L11.719 0C11.719 0 8.45896 7.3 7.85596 8.658C9.32196 8.028 10.219 8.632 11.271 11.107Z" fill="#717374"/>
</g>
<mask id="mask7_8313_6645" style="mask-type:luminance" maskUnits="userSpaceOnUse" x="0" y="0" width="76" height="29">
<path d="M0 0H75.026V28.631H0V0Z" fill="white"/>
</mask>
<g mask="url(#mask7_8313_6645)">
<path d="M11.271 11.107L18.981 28.32H24.356L11.719 0C11.719 0 8.45896 7.3 7.85596 8.658C9.32196 8.028 10.219 8.632 11.271 11.107Z" fill="#717374"/>
</g>
<mask id="mask8_8313_6645" style="mask-type:luminance" maskUnits="userSpaceOnUse" x="7" y="0" width="18" height="29">
<path d="M11.719 0C11.719 0 8.45896 7.3 7.85596 8.658C9.32196 8.028 10.21 8.632 11.271 11.107L18.981 28.32H24.356L11.719 0Z" fill="white"/>
</mask>
<g mask="url(#mask8_8313_6645)">
<path d="M6.34692 -1.50098H25.8619V29.812H6.34692V-1.50098Z" fill="#717374"/>
</g>
<mask id="mask9_8313_6645" style="mask-type:luminance" maskUnits="userSpaceOnUse" x="0" y="0" width="76" height="29">
<path d="M0 0H75.026V28.631H0V0Z" fill="white"/>
</mask>
<g mask="url(#mask9_8313_6645)">
<path d="M3.70892 21.2659C2.98147 21.2694 2.27137 21.4884 1.66824 21.8951C1.06511 22.3019 0.595984 22.8782 0.32006 23.5513C0.044136 24.2244 -0.0262166 24.9641 0.11788 25.6772C0.261977 26.3902 0.614066 27.0446 1.12971 27.5577C1.64536 28.0709 2.30145 28.4198 3.0152 28.5604C3.72894 28.701 4.46834 28.6271 5.14009 28.3479C5.81184 28.0686 6.38583 27.5967 6.78962 26.9916C7.19342 26.3865 7.40891 25.6753 7.40892 24.9479C7.40787 24.4631 7.31132 23.9833 7.12479 23.5359C6.93825 23.0885 6.66539 22.6822 6.32179 22.3403C5.97818 21.9984 5.57057 21.7275 5.12225 21.5431C4.67392 21.3588 4.19367 21.2646 3.70892 21.2659Z" fill="#717374"/>
</g>
<mask id="mask10_8313_6645" style="mask-type:luminance" maskUnits="userSpaceOnUse" x="0" y="21" width="8" height="8">
<path d="M4.38033e-05 24.9481C-0.00351998 25.6807 0.210449 26.3978 0.614838 27.0086C1.01923 27.6194 1.59583 28.0965 2.2716 28.3793C2.94736 28.6621 3.69187 28.7379 4.41078 28.5972C5.12969 28.4565 5.79065 28.1055 6.30991 27.5888C6.82916 27.0721 7.18335 26.4128 7.32758 25.6946C7.47181 24.9764 7.39959 24.2315 7.12009 23.5544C6.84058 22.8773 6.36636 22.2983 5.75751 21.891C5.14867 21.4836 4.4326 21.2661 3.70004 21.2661C3.2153 21.2648 2.73504 21.359 2.28672 21.5434C1.83839 21.7277 1.43078 21.9986 1.08718 22.3405C0.743578 22.6825 0.470713 23.0888 0.284178 23.5362C0.0976426 23.9836 0.00109296 24.4634 4.38033e-05 24.9481Z" fill="white"/>
</mask>
<g mask="url(#mask10_8313_6645)">
<path d="M-1.50903 19.7651H8.91697V30.1221H-1.50903V19.7651Z" fill="#717374"/>
</g>
</g>
<defs>
<clipPath id="clip0_8313_6645">
<rect width="75.035" height="28.631" fill="white"/>
</clipPath>
</defs>
</svg>
