<svg width="56" height="56" viewBox="0 0 56 56" fill="none" xmlns="http://www.w3.org/2000/svg">
<g clip-path="url(#clip0_8348_11839)">
<path d="M10 29.0799L16.66 35.9199H19.9L14.68 30.3399L26.92 35.1999V42.5799L20.26 36.2799V39.3399L27.64 46.3599V31.2399L26.74 29.7999V32.3199L15.76 28.3599H10V29.0799Z" fill="#717374"/>
<path d="M46 29.0799L39.34 35.9199H36.1L41.32 30.3399L29.08 35.1999V42.5799L35.74 36.2799V39.3399L28.36 46.3599V31.2399L29.26 29.7999V32.3199L40.24 28.3599H46V29.0799Z" fill="#717374"/>
<path d="M20.08 20.08V16.84L27.1 10H27.64V24.58L26.74 26.2V13.42L20.08 20.08Z" fill="#717374"/>
<path d="M35.92 20.08V16.84L28.9 10H28.36V24.58L29.26 26.2V13.42L35.92 20.08Z" fill="#717374"/>
<path d="M10 26.9201L16.66 20.0801H20.08L13.6 26.9201V27.6401H10V26.9201Z" fill="#717374"/>
<path d="M46 26.9201L39.34 20.0801H35.92L42.4 26.9201V27.6401H46V26.9201Z" fill="#717374"/>
</g>
<defs>
<clipPath id="clip0_8348_11839">
<rect width="36" height="36.36" fill="white" transform="translate(10 10)"/>
</clipPath>
</defs>
</svg>
