<svg width="100" height="101" viewBox="0 0 100 101" fill="none" xmlns="http://www.w3.org/2000/svg">
<path d="M0 53L18.5 72H27.5L13 56.5L47 70V90.5L28.5 73V81.5L49 101V59L46.5 55V62L16 51H0V53Z" fill="#717374"/>
<path d="M100 53L81.5 72H72.5L87 56.5L53 70V90.5L71.5 73V81.5L51 101V59L53.5 55V62L84 51H100V53Z" fill="#717374"/>
<path d="M28 28V19L47.5 0H49V40.5L46.5 45V9.5L28 28Z" fill="#717374"/>
<path d="M72 28V19L52.5 0H51V40.5L53.5 45V9.5L72 28Z" fill="#717374"/>
<path d="M0 47L18.5 28H28L10 47V49H0V47Z" fill="#717374"/>
<path d="M100 47L81.5 28H72L90 47V49H100V47Z" fill="#717374"/>
</svg>
