<svg width="254" height="104" viewBox="0 0 254 104" fill="none" xmlns="http://www.w3.org/2000/svg">
<g filter="url(#filter0_d_6748_41011)">
<rect x="4" y="4" width="246" height="96" rx="16" fill="white" fill-opacity="0.1" shape-rendering="crispEdges"/>
<path d="M45.8479 50.2093H40.6585V45.3256H36.5884V58.4419H40.6585V53.4651H45.8479V58.4419H49.9181V45.3256H45.8479V50.2093ZM52.5637 58.4419H56.6338V45.3256H52.5637V58.4419ZM65.5372 45.3256H59.2285V58.4419H63.2986V54.6744H65.3337C68.946 54.6744 71.5915 53.0465 71.5915 49.9302V49.8837C71.5407 47 69.2003 45.3256 65.5372 45.3256ZM67.5214 50.1163C67.5214 51.1395 66.6056 51.8372 65.232 51.8372H63.2986V48.3488H65.232C66.6565 48.3488 67.5214 48.9535 67.5214 50.1163ZM79.5283 45.3256H73.2705V58.4419H77.3406V54.6744H79.3757C82.9879 54.6744 85.6335 53.0465 85.6335 49.9302V49.8837C85.5826 47 83.1914 45.3256 79.5283 45.3256ZM81.5634 50.1163C81.5634 51.1395 80.6476 51.8372 79.2739 51.8372H77.2897V48.3488H79.223C80.6476 48.3488 81.5634 48.9535 81.5634 50.1163ZM93.1633 50.1163L90.1615 45.3256H85.5318L91.0773 53.5581V58.4884H95.1474V53.4651L100.693 45.3256H96.165L93.1633 50.1163ZM114.786 53.4186H117.635V55C117.075 55.3721 116.312 55.5581 115.295 55.5581C113.005 55.5581 111.326 54.0233 111.326 51.8837V51.8372C111.326 49.8372 112.954 48.2558 115.04 48.2558C116.516 48.2558 117.533 48.7209 118.551 49.5116L120.942 46.907C119.416 45.6977 117.584 45 115.04 45C110.512 45 107.205 48.0233 107.205 51.8372V51.8837C107.205 55.8837 110.563 58.6744 115.142 58.6744C117.788 58.6744 119.924 57.7907 121.502 56.6279V50.7674H114.786V53.4186ZM132.949 50.2093H127.759V45.3256H123.689V58.4419H127.759V53.4651H132.949V58.4419H137.019V45.3256H132.949V50.2093ZM163.068 50.2558C161.033 49.8372 160.524 49.5581 160.524 49V48.9535C160.524 48.4884 160.982 48.1163 161.999 48.1163C163.271 48.1163 164.747 48.5349 166.07 49.4186L168.105 46.8605C166.527 45.6977 164.594 45.093 162.101 45.093C158.591 45.093 156.454 46.8605 156.454 49.2791V49.3256C156.454 52.0233 158.845 52.814 161.949 53.4186C163.933 53.8372 164.441 54.1163 164.441 54.6744V54.7209C164.441 55.2791 163.882 55.6047 162.763 55.6047C161.084 55.6047 159.506 55.0465 158.031 54.0233L155.792 56.4419C157.624 57.8837 160.066 58.6279 162.61 58.6279C166.171 58.6279 168.512 57.0465 168.512 54.3488C168.461 51.8837 166.426 50.907 163.068 50.2558ZM169.224 48.4884H173.599V58.4419H177.669V48.4884H182.045V45.3256H169.275V48.4884H169.224ZM189.676 50.2558C187.641 49.8372 187.132 49.5581 187.132 49V48.9535C187.132 48.4884 187.59 48.1163 188.608 48.1163C189.88 48.1163 191.355 48.5349 192.678 49.4186L194.713 46.8605C193.136 45.6977 191.203 45.093 188.71 45.093C185.199 45.093 183.062 46.8605 183.062 49.2791V49.3256C183.062 52.0233 185.454 52.814 188.557 53.4186C190.541 53.8372 191.05 54.1163 191.05 54.6744V54.7209C191.05 55.2791 190.49 55.6047 189.371 55.6047C187.692 55.6047 186.115 55.0465 184.64 54.0233L182.401 56.4419C184.233 57.8837 186.675 58.6279 189.218 58.6279C192.78 58.6279 195.12 57.0465 195.12 54.3488C195.069 51.8837 192.983 50.907 189.676 50.2558ZM204.583 47.2326L202.904 45.2791H201.836V49H202.955V46.907L204.736 48.9535H205.753V45.2326H204.634V47.2326H204.583ZM206.466 48.9535H207.585V47.6512H209.518V46.7674H207.585V46.1628H209.722V45.2326H206.415V48.9535H206.466ZM210.027 45.2326V46.1163H211.248V48.907H212.367V46.1163H213.588V45.2326H210.027ZM151.773 46.7209H150.908V45.8837H150.043V45.093H143.836V45.9302H142.921V46.7674H142.056V47.6047H141.191V59H142.056V58.1628H142.921V57.3256H143.786V58.1628H144.65V59H145.515V58.1628H146.38V57.3256H147.245V58.1628H148.11V59H148.975V58.1628H149.84V57.3256H150.705V58.1628H151.57V59H152.435V47.5581H151.57V46.7209H151.773ZM145.566 51.1395H144.701V51.9302H143.836V51.1395H142.972V50.3488H143.836V49.5581H144.701V50.3488H145.566V51.1395ZM150.908 51.1395H150.043V51.9302H149.178V51.1395H148.314V50.3488H149.178V49.5581H150.043V50.3488H150.908V51.1395Z" fill="white"/>
</g>
<defs>
<filter id="filter0_d_6748_41011" x="0" y="0" width="254" height="104" filterUnits="userSpaceOnUse" color-interpolation-filters="sRGB">
<feFlood flood-opacity="0" result="BackgroundImageFix"/>
<feColorMatrix in="SourceAlpha" type="matrix" values="0 0 0 0 0 0 0 0 0 0 0 0 0 0 0 0 0 0 127 0" result="hardAlpha"/>
<feOffset/>
<feGaussianBlur stdDeviation="2"/>
<feComposite in2="hardAlpha" operator="out"/>
<feColorMatrix type="matrix" values="0 0 0 0 1 0 0 0 0 1 0 0 0 0 1 0 0 0 0.35 0"/>
<feBlend mode="normal" in2="BackgroundImageFix" result="effect1_dropShadow_6748_41011"/>
<feBlend mode="normal" in="SourceGraphic" in2="effect1_dropShadow_6748_41011" result="shape"/>
</filter>
</defs>
</svg>
