<svg width="57" height="56" viewBox="0 0 57 56" fill="none" xmlns="http://www.w3.org/2000/svg">
<path d="M3.87246 27.6481H2.2306V26.103H0.942871V30.2528H2.2306V28.6782H3.87246V30.2528H5.16019V26.103H3.87246V27.6481ZM5.99722 30.2528H7.28494V26.103H5.99722V30.2528ZM10.1018 26.103H8.10586V30.2528H9.39358V29.0608H10.0375C11.1803 29.0608 12.0173 28.5458 12.0173 27.5598V27.5451C12.0013 26.6328 11.2608 26.103 10.1018 26.103ZM10.7296 27.6187C10.7296 27.9425 10.4399 28.1632 10.0053 28.1632H9.39358V27.0595H10.0053C10.456 27.0595 10.7296 27.2508 10.7296 27.6187ZM14.5284 26.103H12.5485V30.2528H13.8363V29.0608H14.4801C15.623 29.0608 16.46 28.5458 16.46 27.5598V27.5451C16.4439 26.6328 15.6874 26.103 14.5284 26.103ZM15.1723 27.6187C15.1723 27.9425 14.8825 28.1632 14.4479 28.1632H13.8202V27.0595H14.4318C14.8825 27.0595 15.1723 27.2508 15.1723 27.6187ZM18.8423 27.6187L17.8926 26.103H16.4278L18.1823 28.7077V30.2675H19.4701V28.6782L21.2246 26.103H19.792L18.8423 27.6187ZM25.6834 28.6635H26.5848V29.1638C26.4077 29.2816 26.1662 29.3404 25.8443 29.3404C25.12 29.3404 24.5888 28.8548 24.5888 28.1779V28.1632C24.5888 27.5304 25.1039 27.0301 25.7638 27.0301C26.2307 27.0301 26.5526 27.1772 26.8745 27.4274L27.631 26.6033C27.1481 26.2207 26.5687 26 25.7638 26C24.3312 26 23.285 26.9565 23.285 28.1632V28.1779C23.285 29.4434 24.3474 30.3264 25.796 30.3264C26.6331 30.3264 27.3091 30.0468 27.8081 29.6789V27.8247H25.6834V28.6635ZM31.4298 27.6481H29.788V26.103H28.5003V30.2528H29.788V28.6782H31.4298V30.2528H32.7176V26.103H31.4298V27.6481ZM40.9591 27.6629C40.3153 27.5304 40.1542 27.4421 40.1542 27.2655V27.2508C40.1542 27.1037 40.2991 26.9859 40.6209 26.9859C41.0233 26.9859 41.4903 27.1184 41.9089 27.398L42.5527 26.5886C42.0535 26.2207 41.4419 26.0294 40.6532 26.0294C39.5427 26.0294 38.8665 26.5886 38.8665 27.3538V27.3685C38.8665 28.2221 39.623 28.4722 40.6051 28.6635C41.2328 28.796 41.3935 28.8843 41.3935 29.0608V29.0755C41.3935 29.2522 41.2166 29.3552 40.8626 29.3552C40.3314 29.3552 39.8321 29.1786 39.3655 28.8548L38.6571 29.62C39.2367 30.0762 40.0093 30.3117 40.8142 30.3117C41.9408 30.3117 42.6815 29.8113 42.6815 28.9578C42.6654 28.1779 42.0215 27.8689 40.9591 27.6629ZM42.9068 27.1037H44.291V30.2528H45.5786V27.1037H46.9631V26.103H42.9229V27.1037H42.9068ZM49.3775 27.6629C48.7336 27.5304 48.5726 27.4421 48.5726 27.2655V27.2508C48.5726 27.1037 48.7175 26.9859 49.0396 26.9859C49.442 26.9859 49.9087 27.1184 50.3273 27.398L50.9711 26.5886C50.4722 26.2207 49.8606 26.0294 49.0718 26.0294C47.961 26.0294 47.2849 26.5886 47.2849 27.3538V27.3685C47.2849 28.2221 48.0417 28.4722 49.0234 28.6635C49.6512 28.796 49.8122 28.8843 49.8122 29.0608V29.0755C49.8122 29.2522 49.635 29.3552 49.281 29.3552C48.7498 29.3552 48.2508 29.1786 47.7842 28.8548L47.0758 29.62C47.6554 30.0762 48.428 30.3117 49.2326 30.3117C50.3595 30.3117 51.0999 29.8113 51.0999 28.9578C51.0837 28.1779 50.4238 27.8689 49.3775 27.6629ZM54.0938 26.7063L53.5626 26.0883H53.2247V27.2655H53.5788V26.6033L54.1422 27.2508H54.464V26.0736H54.11V26.7063H54.0938ZM54.6896 27.2508H55.0436V26.8388H55.6552V26.5592H55.0436V26.3679H55.7197V26.0736H54.6734V27.2508H54.6896ZM55.8162 26.0736V26.3532H56.2025V27.2361H56.5566V26.3532H56.9429V26.0736H55.8162ZM37.3855 26.5445H37.1119V26.2796H36.8382V26.0294H34.8744V26.2943H34.5849V26.5592H34.3112V26.8241H34.0376V30.4294H34.3112V30.1645H34.5849V29.8996H34.8586V30.1645H35.1319V30.4294H35.4056V30.1645H35.6793V29.8996H35.953V30.1645H36.2266V30.4294H36.5003V30.1645H36.774V29.8996H37.0476V30.1645H37.3213V30.4294H37.595V26.8094H37.3213V26.5445H37.3855ZM35.4217 27.9425H35.1481V28.1926H34.8744V27.9425H34.601V27.6923H34.8744V27.4421H35.1481V27.6923H35.4217V27.9425ZM37.1119 27.9425H36.8382V28.1926H36.5645V27.9425H36.2912V27.6923H36.5645V27.4421H36.8382V27.6923H37.1119V27.9425Z" fill="#717374"/>
</svg>
