<svg width="229" height="56" viewBox="0 0 229 56" fill="none" xmlns="http://www.w3.org/2000/svg">
<g clip-path="url(#clip0_8117_111000)">
<path d="M12.848 27.6977H6.1759V21.4186H0.942871V38.2824H6.1759V31.8837H12.848V38.2824H18.0811V21.4186H12.848V27.6977ZM21.4826 38.2824H26.7156V21.4186H21.4826V38.2824ZM38.1628 21.4186H30.0516V38.2824H35.2846V33.4385H37.9011C42.5455 33.4385 45.9469 31.3455 45.9469 27.3389V27.2791C45.8816 23.5714 42.8725 21.4186 38.1628 21.4186ZM40.7139 27.5781C40.7139 28.8937 39.5364 29.7907 37.7704 29.7907H35.2846V25.3057H37.7704C39.6019 25.3057 40.7139 26.0831 40.7139 27.5781ZM56.1514 21.4186H48.1056V38.2824H53.3386V33.4385H55.9552C60.5994 33.4385 64.0009 31.3455 64.0009 27.3389V27.2791C63.9355 23.5714 60.8611 21.4186 56.1514 21.4186ZM58.7679 27.5781C58.7679 28.8937 57.5904 29.7907 55.8243 29.7907H53.2731V25.3057H55.7588C57.5905 25.3057 58.7679 26.0831 58.7679 27.5781ZM73.6821 27.5781L69.8226 21.4186H63.8701L71.0001 32.0033V38.3422H76.2331V31.8837L83.3631 21.4186H77.5414L73.6821 27.5781ZM101.483 31.8239H105.146V33.8571C104.426 34.3356 103.445 34.5747 102.137 34.5747C99.1931 34.5747 97.0344 32.6013 97.0344 29.8505V29.7907C97.0344 27.2193 99.1276 25.186 101.81 25.186C103.707 25.186 105.015 25.7841 106.323 26.8007L109.397 23.4518C107.435 21.897 105.08 21 101.81 21C95.9878 21 91.7359 24.887 91.7359 29.7907V29.8505C91.7359 34.9933 96.0532 38.5814 101.94 38.5814C105.342 38.5814 108.089 37.4452 110.117 35.9502V28.4153H101.483V31.8239ZM124.835 27.6977H118.163V21.4186H112.93V38.2824H118.163V31.8837H124.835V38.2824H130.068V21.4186H124.835V27.6977ZM163.56 27.7575C160.943 27.2193 160.289 26.8605 160.289 26.1429V26.0831C160.289 25.485 160.878 25.0066 162.185 25.0066C163.821 25.0066 165.718 25.5448 167.419 26.6811L170.036 23.392C168.007 21.897 165.522 21.1196 162.316 21.1196C157.803 21.1196 155.056 23.392 155.056 26.5017V26.5615C155.056 30.0299 158.13 31.0465 162.121 31.8239C164.672 32.3621 165.325 32.7209 165.325 33.4385V33.4983C165.325 34.216 164.606 34.6346 163.167 34.6346C161.009 34.6346 158.98 33.9169 157.083 32.6013L154.205 35.711C156.56 37.5648 159.7 38.5216 162.971 38.5216C167.549 38.5216 170.559 36.4884 170.559 33.0199C170.493 29.8505 167.877 28.5947 163.56 27.7575ZM171.474 25.485H177.099V38.2824H182.332V25.485H187.959V21.4186H171.54V25.485H171.474ZM197.77 27.7575C195.153 27.2193 194.499 26.8605 194.499 26.1429V26.0831C194.499 25.485 195.088 25.0066 196.397 25.0066C198.032 25.0066 199.929 25.5448 201.63 26.6811L204.246 23.392C202.218 21.897 199.733 21.1196 196.528 21.1196C192.014 21.1196 189.266 23.392 189.266 26.5017V26.5615C189.266 30.0299 192.342 31.0465 196.331 31.8239C198.882 32.3621 199.536 32.7209 199.536 33.4385V33.4983C199.536 34.216 198.816 34.6346 197.378 34.6346C195.219 34.6346 193.191 33.9169 191.295 32.6013L188.416 35.711C190.772 37.5648 193.911 38.5216 197.181 38.5216C201.761 38.5216 204.769 36.4884 204.769 33.0199C204.704 29.8505 202.022 28.5947 197.77 27.7575ZM216.936 23.8704L214.777 21.3588H213.404V26.1429H214.843V23.4518L217.133 26.0831H218.44V21.299H217.002V23.8704H216.936ZM219.357 26.0831H220.796V24.4086H223.281V23.2724H220.796V22.495H223.543V21.299H219.291V26.0831H219.357ZM223.935 21.299V22.4352H225.505V26.0233H226.944V22.4352H228.514V21.299H223.935ZM149.037 23.2126H147.925V22.1362H146.813V21.1196H138.833V22.196H137.656V23.2724H136.544V24.3488H135.432V39H136.544V37.9236H137.656V36.8472H138.768V37.9236H139.879V39H140.991V37.9236H142.104V36.8472H143.216V37.9236H144.328V39H145.44V37.9236H146.552V36.8472H147.664V37.9236H148.776V39H149.889V24.289H148.776V23.2126H149.037ZM141.057 28.8937H139.945V29.9103H138.833V28.8937H137.722V27.8771H138.833V26.8605H139.945V27.8771H141.057V28.8937ZM147.925 28.8937H146.813V29.9103H145.701V28.8937H144.59V27.8771H145.701V26.8605H146.813V27.8771H147.925V28.8937Z" fill="#717374"/>
</g>
<defs>
<clipPath id="clip0_8117_111000">
<rect width="228" height="56" fill="white" transform="translate(0.354492)"/>
</clipPath>
</defs>
</svg>
