<svg width="56" height="56" viewBox="0 0 56 56" fill="none" xmlns="http://www.w3.org/2000/svg">
<path d="M28 44C36.8365 44 44 36.8365 44 28C44 19.1634 36.8365 12 28 12C19.1635 12 12 19.1634 12 28C12 36.8365 19.1635 44 28 44Z" fill="#717374"/>
<path fill-rule="evenodd" clip-rule="evenodd" d="M37.5967 24.0064V29.3198H21.4008H20.704C21.4415 32.5438 24.3684 34.952 27.8669 34.952C30.7591 34.952 33.2609 33.306 34.4576 30.9138H37.5967V35.377C37.5967 36.4335 36.7265 37.2899 35.6531 37.2899H20.1051C19.0318 37.2899 18.1617 36.4335 18.1617 35.377V24.0064H37.5967ZM32.5936 30.9138C31.5629 32.397 29.8303 33.3703 27.8669 33.3703C25.9034 33.3703 24.1709 32.397 23.1402 30.9138H32.5936ZM23.7222 25.2816C22.1992 25.2816 20.9392 26.39 20.7296 27.832H22.3863C22.5684 27.277 23.0977 26.8756 23.7222 26.8756C24.3468 26.8756 24.8761 27.277 25.0581 27.832H26.7148C26.5053 26.39 25.2453 25.2816 23.7222 25.2816ZM32.0361 25.2816C30.513 25.2816 29.253 26.39 29.0435 27.832H30.7001C30.8823 27.277 31.4115 26.8756 32.0361 26.8756C32.6606 26.8756 33.1898 27.277 33.372 27.832H35.0287C34.8191 26.39 33.5592 25.2816 32.0361 25.2816ZM35.6531 18.1616C36.7265 18.1616 37.5967 19.018 37.5967 20.0744V22.4123H18.1617V20.0744C18.1617 19.018 19.0318 18.1616 20.1051 18.1616H35.6531Z" fill="white"/>
</svg>
