<svg width="151" height="56" viewBox="0 0 151 56" fill="none" xmlns="http://www.w3.org/2000/svg">
<g clip-path="url(#clip0_8117_117266)">
<mask id="mask0_8117_117266" style="mask-type:luminance" maskUnits="userSpaceOnUse" x="0" y="9" width="38" height="38">
<path d="M37.849 9H0.708984V46.14H37.849V9Z" fill="white"/>
</mask>
<g mask="url(#mask0_8117_117266)">
<path d="M28.441 9H10.1169C4.92106 9 0.708984 13.2121 0.708984 18.4079V36.732C0.708984 41.9279 4.92106 46.14 10.1169 46.14H28.441C33.6369 46.14 37.849 41.9279 37.849 36.732V18.4079C37.849 13.2121 33.6369 9 28.441 9Z" fill="#717374"/>
<path fill-rule="evenodd" clip-rule="evenodd" d="M13.9469 20.3477H19.1462L21.1792 24.4649L25.4119 20.3477H30.6278L28.9448 26.54H27.9115L27.6282 27.5611H28.6948L27.5449 31.6783H26.5118L26.2451 32.6994H28.3115L28.0448 33.7205H24.912L24.6287 34.7745H21.4792L23.4622 27.5611L19.2128 31.6783L17.2132 27.5776L15.2467 34.791H7.93115L8.24777 33.7205H11.3473L11.6473 32.6994H9.54758L9.81421 31.6783H10.8807L12.0139 27.5611H10.9474L11.2306 26.5071H12.2806L13.9469 20.3477ZM13.8136 28.5822H12.7804L12.4805 29.6033H13.547L13.8136 28.5822Z" fill="white" fill-opacity="0.96"/>
<path d="M29.4278 28.582H30.4777L30.1944 29.6031H29.1279L29.4278 28.582Z" fill="white" fill-opacity="0.96"/>
</g>
<path d="M46.1025 34.5965H55.825V31.2642H50.0229V20.6401H46.1025V34.5965Z" fill="#717374"/>
<path d="M62.2979 34.8313C64.0425 34.8313 65.395 34.2824 66.3751 33.1847L64.4541 31.2834C63.8857 31.9302 63.1996 32.2242 62.2979 32.2242C61.2983 32.2242 60.6318 31.8126 60.3378 30.9697L66.9631 30.9305C67.0807 30.3621 67.1199 29.9504 67.1199 29.5584C67.1199 26.7358 64.9834 24.7168 61.9843 24.7168C58.9069 24.7168 56.6331 26.8534 56.6331 29.774C56.6331 32.7731 58.9265 34.8313 62.2979 34.8313ZM62.0627 27.3238C62.9056 27.3238 63.4348 27.7355 63.6505 28.5979L60.3378 28.6175C60.6122 27.7747 61.2002 27.3238 62.0627 27.3238Z" fill="#717374"/>
<path d="M69.5853 34.5992H73.4272V28.0914H75.4854V24.9551H73.4272V20.9956H69.5853V24.9551H67.5271V28.0914H69.5853V34.5992Z" fill="#717374"/>
<path d="M77.2283 26.6789H79.4432L80.0705 20.2495H76.6206L77.2283 26.6789Z" fill="#717374"/>
<path d="M85.1986 34.8929C87.7664 34.8929 89.3933 33.6972 89.3933 31.7762C89.3933 28.1303 85.0418 28.7771 85.0418 27.8755C85.0418 27.6598 85.1986 27.503 85.7082 27.503C86.2375 27.503 87.1195 27.699 87.7664 28.4243L89.805 26.3465C88.8641 25.2096 87.1391 24.6216 85.4338 24.6216C82.9052 24.6216 81.239 25.9937 81.239 27.8167C81.239 31.443 85.6494 30.6197 85.6494 31.6782C85.6494 31.8938 85.3946 32.0114 84.9438 32.0114C83.9833 32.0114 83.062 31.6194 82.4347 30.9921L80.4158 33.0699C81.4547 34.148 83.3952 34.8929 85.1986 34.8929Z" fill="#717374"/>
<path d="M95.0195 34.5965H98.9007V28.0104L101.174 31.3034H103.683L105.957 28.0496V34.5965H109.838V20.6401H106.996L102.429 27.3439L97.8618 20.6401H95.0195V34.5965Z" fill="#717374"/>
<path d="M117.13 34.8313C118.875 34.8313 120.227 34.2824 121.207 33.1847L119.286 31.2834C118.718 31.9302 118.032 32.2242 117.13 32.2242C116.131 32.2242 115.464 31.8126 115.17 30.9697L121.795 30.9305C121.913 30.3621 121.952 29.9504 121.952 29.5584C121.952 26.7358 119.816 24.7168 116.817 24.7168C113.739 24.7168 111.465 26.8534 111.465 29.774C111.465 32.7731 113.759 34.8313 117.13 34.8313ZM116.895 27.3238C117.738 27.3238 118.267 27.7355 118.483 28.5979L115.17 28.6175C115.444 27.7747 116.033 27.3238 116.895 27.3238Z" fill="#717374"/>
<path d="M123.531 34.5965H127.412V28.0104L129.686 31.3034H132.195L134.469 28.0496V34.5965H138.35V20.6401H135.508L130.94 27.3439L126.373 20.6401H123.531V34.5965Z" fill="#717374"/>
<path d="M145.643 34.8313C147.388 34.8313 148.74 34.2824 149.721 33.1847L147.8 31.2834C147.231 31.9302 146.545 32.2242 145.643 32.2242C144.644 32.2242 143.977 31.8126 143.683 30.9697L150.309 30.9305C150.426 30.3621 150.465 29.9504 150.465 29.5584C150.465 26.7358 148.329 24.7168 145.33 24.7168C142.252 24.7168 139.979 26.8534 139.979 29.774C139.979 32.7731 142.272 34.8313 145.643 34.8313ZM145.408 27.3238C146.251 27.3238 146.78 27.7355 146.996 28.5979L143.683 28.6175C143.958 27.7747 144.546 27.3238 145.408 27.3238Z" fill="#717374"/>
</g>
<defs>
<clipPath id="clip0_8117_117266">
<rect width="150" height="56" fill="white" transform="translate(0.354492)"/>
</clipPath>
</defs>
</svg>
