<svg width="56" height="56" viewBox="0 0 56 56" fill="none" xmlns="http://www.w3.org/2000/svg">
<mask id="mask0_8348_11738" style="mask-type:luminance" maskUnits="userSpaceOnUse" x="9" y="9" width="38" height="38">
<path d="M46.14 9H9V46.14H46.14V9Z" fill="white"/>
</mask>
<g mask="url(#mask0_8348_11738)">
<path d="M36.732 9H18.4079C13.2121 9 9 13.2121 9 18.4079V36.732C9 41.9279 13.2121 46.14 18.4079 46.14H36.732C41.9279 46.14 46.14 41.9279 46.14 36.732V18.4079C46.14 13.2121 41.9279 9 36.732 9Z" fill="#717374"/>
<path fill-rule="evenodd" clip-rule="evenodd" d="M22.2378 20.3477H27.4371L29.4701 24.4649L33.7028 20.3477H38.9187L37.2357 26.54H36.2024L35.9191 27.5611H36.9857L35.8358 31.6783H34.8027L34.536 32.6994H36.6024L36.3357 33.7205H33.2029L32.9196 34.7745H29.7701L31.7531 27.5611L27.5037 31.6783L25.5041 27.5776L23.5376 34.791H16.222L16.5387 33.7205H19.6382L19.9382 32.6994H17.8385L18.1051 31.6783H19.1716L20.3048 27.5611H19.2383L19.5215 26.5071H20.5714L22.2378 20.3477ZM22.1045 28.5822H21.0713L20.7714 29.6033H21.8379L22.1045 28.5822Z" fill="white" fill-opacity="0.96"/>
<path d="M37.7188 28.582H38.7686L38.4853 29.6031H37.4189L37.7188 28.582Z" fill="white" fill-opacity="0.96"/>
</g>
</svg>
