<?xml version="1.0" encoding="UTF-8"?>
<svg id="Layer_1" data-name="Layer 1" xmlns="http://www.w3.org/2000/svg" viewBox="0 0 778.1 907.36">
  <defs>
    <style>
      .cls-1 {
        stroke-linejoin: round;
      }

      .cls-1, .cls-2, .cls-3 {
        fill: none;
        stroke: #717374;
        stroke-width: 40px;
      }

      .cls-1, .cls-3 {
        stroke-linecap: round;
      }

      .cls-2, .cls-3 {
        stroke-miterlimit: 10;
      }

      .cls-4 {
        fill: #717374;
        stroke-width: 0px;
      }
    </style>
  </defs>
  <path class="cls-1" d="m121.71,20L20,443.23l50.85,4.37-50.85,204.27h738.1V20s-145.72,25.42-293.87,157.27c0,0-174.74-150.27-342.52-157.27Z"/>
  <path class="cls-3" d="m56.95,503.45s102.56,10.87,159.1,51.08"/>
  <path class="cls-2" d="m464.23,177.27s-124.25,111.67-154.15,224.78c0,0,11.17,31.2,79.69,49.4l-2.61,200.43"/>
  <path class="cls-3" d="m394.9,589.27s73.62-8.13,138.66-31.78"/>
  <polygon class="cls-4" points="20 868.44 20 725.07 47.2 725.07 83.51 805.55 83.51 811.91 90.25 811.91 90.25 805.18 126.93 725.07 151.64 725.07 153.51 868.44 126.18 868.44 125.37 790.6 93.14 857.85 81.81 857.88 49.89 790.6 47.57 868.44 20 868.44"/>
  <path class="cls-4" d="m256.76,829.17s-21.31,35.64-44.63,3.83l58.09-26.99s-16.73-48.62-50.43-43.95c-33.7,4.67-61.28,41.13-28.64,87.59,31.2,44.41,79.93,11.82,87.92-11.49l-22.31-8.99Zm-39.61-42.66c18.8-4.62,21.99,12.86,21.99,12.86l-35.19,14.89s-9.22-22.23,13.19-27.74Z"/>
  <path class="cls-4" d="m304.81,733.93l29.15-14.77v123.39s7.99,11.98,24.76-2.4c0,0-.4,28.77-17.17,31.55s-30.35-6.4-34.74-20.37l-2-117.4Z"/>
  <rect class="cls-4" x="287.38" y="761.74" width="72.22" height="26.31"/>
  <path class="cls-4" d="m425.92,760.35c-26.95,0-48.8,25.22-48.8,56.32s21.85,56.32,48.8,56.32,48.8-25.22,48.8-56.32-21.85-56.32-48.8-56.32Zm.45,86.43c-11.78,0-21.32-13.46-21.32-30.06s9.55-30.06,21.32-30.06,21.32,13.46,21.32,30.06-9.55,30.06-21.32,30.06Z"/>
  <polygon class="cls-4" points="525.66 897.58 497.64 907.36 497.64 761.74 525.66 761.74 525.66 897.58"/>
  <path class="cls-4" d="m544.16,760.35c-24.79,5.6-41.35,22.84-41.37,56.32-.02,27.65,22.88,55.63,41.37,56.32,26.93,1,48.8-25.22,48.8-56.32s-22.74-62.21-48.8-56.32Zm.45,86.43c-11.78,0-21.35,0-21.32-30.06.03-27.15,9.55-30.06,21.32-30.06s21.32,13.46,21.32,30.06-9.55,30.06-21.32,30.06Z"/>
  <rect class="cls-4" x="615.89" y="761.74" width="25.46" height="109.96"/>
  <circle class="cls-4" cx="628.62" cy="735.39" r="16.23"/>
  <path class="cls-4" d="m662.3,835.11c0,20.91,23.23,38.54,51.84,37.87,19.65-.46,43.98-19.28,43.96-37.87-.02-22.51-17.61-34.1-43.96-37.87-27.69-3.96-51.84,16.95-51.84,37.87Zm33.51-.23c0-11.16,5.34-14.81,17.85-14.81s18.55,6.58,18.55,13.81c0,10.96-7.22,12.9-19.73,12.9-5.92,0-16.66-.75-16.66-11.91Zm-22.27-63.66l10.34,18.33s38.39-18.47,48.33,7.21l1.48,74.95h24.41v-85.04s-12.66-48.99-84.56-15.45Z"/>
</svg>