<svg width="56" height="56" viewBox="0 0 56 56" fill="none" xmlns="http://www.w3.org/2000/svg">
<path d="M17.1829 10L13 27.4057L15.0912 27.5854L13 35.9862H43.355V10C43.355 10 37.3621 11.0454 31.2693 16.4679C31.2693 16.4679 24.083 10.2879 17.1829 10Z" stroke="#717374" stroke-width="2" stroke-linecap="round" stroke-linejoin="round"/>
<path d="M14.5196 29.8818C14.5196 29.8818 18.7375 30.3289 21.0627 31.9825" stroke="#717374" stroke-width="2" stroke-miterlimit="10" stroke-linecap="round"/>
<path d="M31.2694 16.4678C31.2694 16.4678 26.1595 21.0603 24.9298 25.712C24.9298 25.712 25.3892 26.9952 28.2071 27.7437L28.0998 35.9865" stroke="#717374" stroke-width="2" stroke-miterlimit="10"/>
<path d="M28.4181 33.4115C28.4181 33.4115 31.4458 33.0771 34.1206 32.1045" stroke="#717374" stroke-width="2" stroke-miterlimit="10" stroke-linecap="round"/>
<path d="M13 44.8928V38.9966H14.1186L15.6119 42.3064V42.5679H15.8891V42.2912L17.3976 38.9966H18.4138L18.4907 44.8928H17.3667L17.3334 41.6916L16.0079 44.4573L15.542 44.4585L14.2293 41.6916L14.1338 44.8928H13Z" fill="#717374"/>
<path d="M22.737 43.2773C22.737 43.2773 21.8606 44.7431 20.9015 43.4349L23.2905 42.3249C23.2905 42.3249 22.6025 40.3253 21.2166 40.5174C19.8306 40.7095 18.6964 42.2089 20.0387 44.1196C21.3218 45.946 23.3259 44.6057 23.6545 43.6471L22.737 43.2773ZM21.108 41.5229C21.8811 41.3329 22.0123 42.0518 22.0123 42.0518L20.5651 42.6642C20.5651 42.6642 20.1859 41.7499 21.1076 41.5233L21.108 41.5229Z" fill="#717374"/>
<path d="M24.7131 39.3608L25.9119 38.7534V43.8279C25.9119 43.8279 26.2405 44.3206 26.9302 43.7292C26.9302 43.7292 26.9137 44.9124 26.224 45.0268C25.5344 45.1411 24.9759 44.7635 24.7953 44.189L24.7131 39.3608Z" fill="#717374"/>
<path d="M26.9663 40.5044H23.9962V41.5864H26.9663V40.5044Z" fill="#717374"/>
<path d="M29.6938 40.4473C28.5855 40.4473 27.6869 41.4845 27.6869 42.7635C27.6869 44.0425 28.5855 45.0797 29.6938 45.0797C30.8022 45.0797 31.7008 44.0425 31.7008 42.7635C31.7008 41.4845 30.8022 40.4473 29.6938 40.4473ZM29.7123 44.0018C29.2279 44.0018 28.8355 43.4482 28.8355 42.7655C28.8355 42.0828 29.2283 41.5293 29.7123 41.5293C30.1964 41.5293 30.5891 42.0828 30.5891 42.7655C30.5891 43.4482 30.1964 44.0018 29.7123 44.0018Z" fill="#717374"/>
<path d="M33.7957 46.0909L32.6434 46.4931V40.5044H33.7957V46.0909Z" fill="#717374"/>
<path d="M34.5565 40.4472C33.537 40.6775 32.856 41.3865 32.8552 42.7634C32.8543 43.9006 33.7961 45.0513 34.5565 45.0796C35.6641 45.1208 36.5635 44.0424 36.5635 42.7634C36.5635 41.4844 35.6283 40.205 34.5565 40.4472ZM34.575 44.0017C34.0906 44.0017 33.697 44.0017 33.6982 42.7655C33.6995 41.6489 34.091 41.5292 34.575 41.5292C35.0591 41.5292 35.4518 42.0828 35.4518 42.7655C35.4518 43.4482 35.0591 44.0017 34.575 44.0017Z" fill="#717374"/>
<path d="M38.5535 40.5044H37.5065V45.0266H38.5535V40.5044Z" fill="#717374"/>
<path d="M38.03 40.0884C38.3987 40.0884 38.6975 39.7895 38.6975 39.4209C38.6975 39.0523 38.3987 38.7534 38.03 38.7534C37.6614 38.7534 37.3625 39.0523 37.3625 39.4209C37.3625 39.7895 37.6614 40.0884 38.03 40.0884Z" fill="#717374"/>
<path d="M39.4151 43.5219C39.4151 44.3819 40.3705 45.1069 41.5471 45.0794C42.3552 45.0605 43.3558 44.2865 43.355 43.5219C43.3541 42.5962 42.6307 42.1196 41.5471 41.9645C40.4083 41.8016 39.4151 42.6616 39.4151 43.5219ZM40.7932 43.5125C40.7932 43.0535 41.0128 42.9034 41.5273 42.9034C42.0418 42.9034 42.2902 43.174 42.2902 43.4714C42.2902 43.9221 41.9933 44.0019 41.4788 44.0019C41.2353 44.0019 40.7936 43.971 40.7936 43.5121L40.7932 43.5125ZM39.8774 40.8944L40.3026 41.6482C40.3026 41.6482 41.8814 40.8887 42.2902 41.9448L42.3511 45.0271H43.355V41.5298C43.355 41.5298 42.8343 39.5151 39.8774 40.8944Z" fill="#717374"/>
</svg>
