<svg width="133" height="56" viewBox="0 0 133 56" fill="none" xmlns="http://www.w3.org/2000/svg">
<path d="M120.963 37.3413C122.286 37.3413 123.431 37.0349 124.392 36.4229C125.419 35.7706 126.25 34.7501 126.883 33.3774L132.153 21.7294H129.139L125.476 30.224L121.29 21.7294H118.38L124.046 33.1589C123.642 33.7694 123.223 34.1711 122.792 34.3721L122.792 34.3722C122.353 34.5792 121.692 34.6888 120.805 34.6888H120.757L119.031 37.3413H120.963Z" fill="#717374"/>
<path fill-rule="evenodd" clip-rule="evenodd" d="M116.769 34.9831H117.542V32.1549H117.283C117.036 32.1549 116.863 32.0559 116.748 31.8601L116.748 31.8594C116.628 31.6597 116.563 31.3534 116.563 30.9428V25.8662C116.563 24.5248 116.143 23.4876 115.293 22.769L115.293 22.7687C114.392 22.0166 113.051 21.6504 111.284 21.6504H109.317C107.674 21.6504 106.427 21.9679 105.589 22.6174C104.747 23.2701 104.332 24.2474 104.332 25.5325V25.6203H107.064V25.5325C107.064 25.0405 107.249 24.681 107.616 24.4399C107.989 24.1946 108.559 24.0657 109.339 24.0657H111.284C112.191 24.0657 112.863 24.2438 113.316 24.5788C113.696 24.8849 113.888 25.3103 113.888 25.8662V26.7226H109.018C107.371 26.7226 106.099 27.0313 105.213 27.6563C104.319 28.2822 103.875 29.2564 103.875 30.5476V31.158C103.875 32.2943 104.248 33.1978 104.985 33.8581C105.784 34.5898 106.964 34.9435 108.526 34.9435H111.025C111.818 34.9435 112.509 34.8461 113.1 34.6446C113.65 34.4569 114.11 34.1903 114.489 33.8367C114.725 34.2181 115.025 34.5058 115.395 34.6884C115.787 34.8844 116.249 34.9831 116.769 34.9831ZM112.949 32.0388C112.512 32.2825 111.841 32.4096 110.928 32.4096H108.825C108.15 32.4096 107.609 32.2842 107.187 32.0396C106.777 31.7976 106.572 31.4282 106.572 30.9033V30.53C106.572 29.9904 106.756 29.5928 107.116 29.3224C107.479 29.0508 108.134 28.9052 109.101 28.9052H113.888V30.8882C113.701 31.4117 113.386 31.7933 112.949 32.0388Z" fill="#717374"/>
<path d="M99.1985 34.9479H101.912V18.7432H99.1985V34.9479Z" fill="#717374"/>
<path d="M47.3305 34.9479L51.0101 34.9479V18.7388L48.2391 18.7388V31.5237L41.2956 18.7388H37.616V34.9479H40.3475V22.0841L47.3305 34.9479Z" fill="#717374"/>
<path d="M73.3367 34.9435H76.1034V21.4923H81.909V18.7388H53.4299V34.9435H56.201V28.5934H65.9765V25.9409H56.201V21.5098H66.6355L73.3367 21.4925V34.9435Z" fill="#717374"/>
<path fill-rule="evenodd" clip-rule="evenodd" d="M86.3225 30.0865H86.4103V34.9435H83.6173V18.7388H91.9656C93.8185 18.7388 95.2069 19.1942 96.121 20.1263L96.0585 20.188L96.1212 20.1265C96.933 20.9474 97.3277 22.1323 97.3233 23.6662V23.6661H97.2355L97.3233 23.6663V25.2382C97.3233 26.7376 96.9326 27.8913 96.1389 28.7031L96.1387 28.7033C95.2244 29.6311 93.8317 30.0865 91.9656 30.0865H86.4103V29.9987L86.3225 29.9987L86.3225 30.0865ZM93.8891 26.7349C93.4563 27.1053 92.7532 27.2935 91.7504 27.2935H86.4103V21.4703H91.7504C92.7377 21.4703 93.4361 21.6795 93.8738 22.0797L93.8741 22.08C94.3103 22.4747 94.5303 23.0833 94.5303 23.9208V25.0538H94.5338C94.5186 25.8322 94.2994 26.3883 93.8895 26.7345L93.8891 26.7349Z" fill="#717374"/>
<path d="M114.916 18.7431H105.544V20.8247H114.916V18.7431Z" fill="#717374"/>
<path d="M23.2447 12H19.1937C18.9381 12.0009 18.6895 12.0841 18.4848 12.2372C18.2802 12.3903 18.1302 12.6053 18.0572 12.8503L14.0816 26.1366C14.0286 26.3145 14.0177 26.5024 14.0501 26.6852C14.0824 26.868 14.157 27.0407 14.2678 27.1896C14.3787 27.3385 14.5228 27.4595 14.6887 27.5428C14.8546 27.6262 15.0376 27.6697 15.2233 27.6698H17.3671C18.2412 27.6698 19.0794 28.0171 19.6975 28.6351C20.3156 29.2532 20.6628 30.0915 20.6628 30.9656V32.9286C21.4274 34.0568 23.7974 33.4813 24.5712 33.1879C24.7588 33.1325 24.9604 33.15 25.1357 33.2368C25.3109 33.3237 25.4469 33.4736 25.5163 33.6564C25.5858 33.8392 25.5837 34.0416 25.5104 34.2229C25.437 34.4042 25.2979 34.5512 25.1209 34.6343C24.4247 34.8821 23.701 35.0445 22.9657 35.1178C22.7508 35.1371 22.5473 35.1467 22.3551 35.1467C21.7759 35.1589 21.2002 35.0535 20.6628 34.8368V38.6956C20.6631 39.0117 20.7888 39.3146 21.0124 39.538C21.236 39.7614 21.5391 39.8869 21.8551 39.8869H23.2488C24.4785 39.8822 25.6564 39.3915 26.5257 38.5216C27.3949 37.6518 27.8849 36.4736 27.8887 35.2439V16.6471C27.8849 15.4166 27.3944 14.2376 26.5243 13.3675C25.6542 12.4974 24.4752 12.0069 23.2447 12.0031V12ZM21.8561 22.1466C21.5876 22.1466 21.3251 22.0669 21.1018 21.9177C20.8785 21.7685 20.7045 21.5564 20.6018 21.3083C20.4991 21.0602 20.4723 20.7872 20.5247 20.5238C20.5772 20.2604 20.7066 20.0185 20.8965 19.8287C21.0865 19.6389 21.3285 19.5097 21.5919 19.4574C21.8553 19.4052 22.1283 19.4322 22.3764 19.5351C22.6244 19.638 22.8363 19.8122 22.9854 20.0356C23.1344 20.2589 23.2139 20.5215 23.2137 20.7901C23.2137 20.9683 23.1786 21.1448 23.1103 21.3094C23.0421 21.4741 22.9421 21.6237 22.816 21.7496C22.6899 21.8756 22.5403 21.9755 22.3756 22.0436C22.2109 22.1117 22.0343 22.1467 21.8561 22.1466Z" fill="#717374"/>
<path d="M9.46884 22.5813C9.4957 22.5916 11.9939 23.4873 13.1086 22.6102L15.8124 13.5794C15.8669 13.3967 15.8781 13.2038 15.8449 13.016C15.8117 12.8282 15.7351 12.6508 15.6212 12.4979C15.5073 12.345 15.3592 12.2208 15.1889 12.1352C15.0185 12.0496 14.8304 12.005 14.6398 12.0049H4.64299C3.41268 12.0084 2.23378 12.4987 1.36381 13.3687C0.493852 14.2387 0.00354361 15.4176 0 16.6479V26.4391C0 26.7679 0.13062 27.0832 0.363125 27.3157C0.595629 27.5482 0.910972 27.6788 1.23978 27.6788H10.6756C10.9418 27.6786 11.2009 27.5927 11.4145 27.4338C11.6281 27.2749 11.7849 27.0514 11.8616 26.7965L12.5538 24.4833C12.2677 24.531 11.9781 24.5545 11.688 24.5535C11.4959 24.5535 11.2924 24.5439 11.0775 24.5246C10.3423 24.4508 9.61874 24.2888 8.9223 24.0421C8.73037 23.969 8.57528 23.8227 8.49103 23.6354C8.40678 23.448 8.40024 23.235 8.47286 23.0428C8.54548 22.8507 8.69132 22.6952 8.8784 22.6104C9.06549 22.5256 9.27856 22.5185 9.4709 22.5906L9.46884 22.5813ZM10.3253 15.9557C10.6093 15.9069 10.9015 15.9499 11.1595 16.0782C11.4175 16.2066 11.628 16.4137 11.7604 16.6697C11.8929 16.9256 11.9405 17.217 11.8963 17.5018C11.8521 17.7865 11.7185 18.0499 11.5147 18.2536C11.311 18.4574 11.0476 18.591 10.7629 18.6352C10.4781 18.6794 10.1867 18.6318 9.93076 18.4993C9.67484 18.3669 9.4677 18.1564 9.33934 17.8984C9.21098 17.6404 9.16804 17.3483 9.21675 17.0642C9.26435 16.7876 9.39649 16.5324 9.595 16.3339C9.79351 16.1354 10.0486 16.0033 10.3253 15.9557" fill="#717374"/>
<path d="M16.309 29.6094H2.24675C1.65133 29.6094 1.08029 29.8459 0.659266 30.2669C0.23824 30.688 0.00170923 31.259 0.00170923 31.8544V41.8006C0.0015731 42.0896 0.0584425 42.3759 0.169063 42.643C0.279683 42.91 0.441883 43.1526 0.646379 43.3569C0.850875 43.5612 1.09365 43.7232 1.36082 43.8336C1.62798 43.944 1.91429 44.0006 2.20336 44.0002C2.6328 43.9996 3.05241 43.8716 3.40904 43.6324C5.13234 42.4959 7.085 41.1972 8.17291 40.4678C8.73836 40.089 9.40365 39.8869 10.0842 39.8872H16.4753C16.7701 39.8872 17.0621 39.8291 17.3345 39.7163C17.6068 39.6035 17.8543 39.4381 18.0628 39.2296C18.2713 39.0211 18.4366 38.7737 18.5495 38.5013C18.6623 38.2289 18.7204 37.937 18.7204 37.6421V32.0197C18.7204 31.7031 18.658 31.3896 18.5368 31.0971C18.4156 30.8046 18.238 30.5388 18.014 30.315C17.7901 30.0912 17.5243 29.9136 17.2317 29.7926C16.9391 29.6715 16.6256 29.6092 16.309 29.6094V29.6094ZM17.4455 37.6421C17.4452 37.8994 17.3429 38.1461 17.1611 38.3282C16.9792 38.5102 16.7326 38.6127 16.4753 38.6133H14.6291C15.3296 37.1307 14.6363 35.7473 14.0763 35.1481C13.9582 35.0393 13.8032 34.9791 13.6426 34.9796C13.4819 34.9801 13.3274 35.0412 13.2099 35.1508C13.0923 35.2603 13.0205 35.4102 13.0088 35.5704C12.997 35.7306 13.0462 35.8894 13.1465 36.0149C13.2612 36.142 14.2437 37.2971 13.1289 38.6123H10.0842C9.15119 38.6109 8.23893 38.8879 7.46417 39.4078C6.56842 40.007 4.92365 41.1001 2.70547 42.5682C2.55733 42.669 2.38252 42.7233 2.20336 42.7242C1.95675 42.7242 1.72024 42.6262 1.54586 42.4519C1.37148 42.2775 1.27352 42.041 1.27352 41.7944V31.8544C1.27379 31.5972 1.37609 31.3506 1.55797 31.1687C1.73984 30.9869 1.98644 30.8846 2.24365 30.8843H16.309C16.6104 30.8843 16.8995 31.004 17.1126 31.2171C17.3257 31.4303 17.4455 31.7193 17.4455 32.0208V37.6421Z" fill="#717374"/>
<path d="M4.42104 36.5527C4.15249 36.5527 3.88998 36.6324 3.66671 36.7816C3.44344 36.9308 3.26944 37.1429 3.16672 37.391C3.064 37.6391 3.03717 37.9122 3.08964 38.1755C3.1421 38.4389 3.2715 38.6808 3.46146 38.8706C3.65142 39.0604 3.89342 39.1896 4.15682 39.2419C4.42023 39.2942 4.69323 39.2671 4.94127 39.1642C5.18931 39.0613 5.40127 38.8872 5.55031 38.6638C5.69936 38.4404 5.7788 38.1778 5.7786 37.9093C5.7786 37.731 5.74348 37.5546 5.67524 37.3899C5.60701 37.2253 5.50699 37.0757 5.38092 36.9497C5.25484 36.8237 5.10518 36.7238 4.94048 36.6557C4.77578 36.5876 4.59927 36.5526 4.42104 36.5527Z" fill="#717374"/>
</svg>
