<svg width="56" height="56" viewBox="0 0 56 56" fill="none" xmlns="http://www.w3.org/2000/svg">
<path d="M37.2446 12H33.1936C32.938 12.0009 32.6894 12.0841 32.4847 12.2372C32.2801 12.3903 32.1301 12.6053 32.0571 12.8503L28.0815 26.1365C28.0285 26.3144 28.0176 26.5023 28.05 26.6851C28.0823 26.8679 28.1569 27.0406 28.2677 27.1895C28.3786 27.3384 28.5227 27.4594 28.6886 27.5427C28.8545 27.6261 29.0375 27.6696 29.2232 27.6697H31.367C32.2411 27.6697 33.0793 28.017 33.6974 28.635C34.3155 29.2531 34.6627 30.0914 34.6627 30.9655V32.9285C35.4273 34.0567 37.7973 33.4812 38.5711 33.1878C38.7587 33.1324 38.9603 33.1499 39.1356 33.2367C39.3108 33.3236 39.4468 33.4735 39.5162 33.6563C39.5857 33.8391 39.5836 34.0415 39.5103 34.2228C39.4369 34.4041 39.2978 34.5511 39.1208 34.6342C38.4246 34.882 37.7009 35.0444 36.9656 35.1177C36.7507 35.137 36.5472 35.1466 36.355 35.1466C35.7758 35.1588 35.2001 35.0534 34.6627 34.8367V38.6955C34.663 39.0116 34.7887 39.3144 35.0123 39.5378C35.2359 39.7612 35.539 39.8867 35.855 39.8867H37.2487C38.4784 39.882 39.6563 39.3913 40.5256 38.5215C41.3948 37.6517 41.8848 36.4735 41.8886 35.2438V16.6471C41.8848 15.4166 41.3943 14.2376 40.5242 13.3675C39.6541 12.4974 38.4751 12.0069 37.2446 12.0031V12ZM35.856 22.1465C35.5875 22.1465 35.325 22.0668 35.1017 21.9176C34.8784 21.7684 34.7044 21.5563 34.6017 21.3082C34.499 21.0602 34.4722 20.7872 34.5246 20.5238C34.5771 20.2604 34.7065 20.0185 34.8964 19.8287C35.0864 19.6389 35.3284 19.5097 35.5918 19.4574C35.8552 19.4052 36.1282 19.4322 36.3763 19.5351C36.6243 19.638 36.8362 19.8122 36.9853 20.0356C37.1343 20.2589 37.2138 20.5215 37.2136 20.7901C37.2136 20.9683 37.1785 21.1448 37.1102 21.3093C37.042 21.474 36.942 21.6236 36.8159 21.7495C36.6898 21.8755 36.5402 21.9754 36.3755 22.0435C36.2108 22.1116 36.0342 22.1466 35.856 22.1465Z" fill="#717374"/>
<path d="M23.4688 22.5812C23.4956 22.5915 25.9938 23.4872 27.1085 22.6101L29.8123 13.5794C29.8668 13.3967 29.878 13.2038 29.8448 13.016C29.8116 12.8282 29.735 12.6508 29.6211 12.4979C29.5072 12.345 29.3591 12.2208 29.1888 12.1352C29.0184 12.0496 28.8303 12.005 28.6397 12.0049H18.643C17.4127 12.0084 16.2338 12.4987 15.3638 13.3687C14.4938 14.2387 14.0035 15.4176 14 16.6479V26.439C14 26.7678 14.1306 27.0831 14.3631 27.3156C14.5956 27.5481 14.911 27.6787 15.2398 27.6787H24.6755C24.9417 27.6785 25.2008 27.5926 25.4144 27.4337C25.628 27.2748 25.7848 27.0513 25.8615 26.7964L26.5537 24.4832C26.2676 24.5309 25.978 24.5544 25.6879 24.5534C25.4958 24.5534 25.2923 24.5438 25.0774 24.5245C24.3422 24.4507 23.6187 24.2887 22.9223 24.042C22.7303 23.9689 22.5752 23.8226 22.491 23.6353C22.4067 23.4479 22.4002 23.2349 22.4728 23.0427C22.5454 22.8506 22.6913 22.6951 22.8784 22.6103C23.0654 22.5255 23.2785 22.5184 23.4708 22.5905L23.4688 22.5812ZM24.3252 15.9557C24.6092 15.9069 24.9014 15.9499 25.1594 16.0782C25.4174 16.2066 25.6279 16.4137 25.7603 16.6697C25.8928 16.9256 25.9404 17.217 25.8962 17.5018C25.852 17.7865 25.7184 18.0498 25.5146 18.2535C25.3109 18.4573 25.0475 18.5909 24.7628 18.6351C24.478 18.6793 24.1866 18.6317 23.9307 18.4992C23.6748 18.3668 23.4676 18.1563 23.3393 17.8984C23.2109 17.6404 23.168 17.3483 23.2167 17.0642C23.2643 16.7876 23.3964 16.5324 23.5949 16.3339C23.7935 16.1354 24.0485 16.0033 24.3252 15.9557Z" fill="#717374"/>
<path d="M30.3089 29.6094H16.2467C15.6513 29.6094 15.0803 29.8459 14.6593 30.2669C14.2382 30.688 14.0017 31.259 14.0017 31.8544V41.8005C14.0016 42.0895 14.0584 42.3758 14.1691 42.6429C14.2797 42.9099 14.4419 43.1525 14.6464 43.3568C14.8509 43.5611 15.0936 43.7231 15.3608 43.8335C15.628 43.9439 15.9143 44.0005 16.2033 44.0001C16.6328 43.9995 17.0524 43.8715 17.409 43.6323C19.1323 42.4958 21.085 41.1971 22.1729 40.4677C22.7383 40.0889 23.4036 39.8868 24.0841 39.8871H30.4752C30.77 39.8871 31.062 39.829 31.3344 39.7162C31.6067 39.6034 31.8542 39.438 32.0627 39.2295C32.2712 39.021 32.4365 38.7736 32.5494 38.5012C32.6622 38.2288 32.7203 37.9369 32.7203 37.642V32.0197C32.7203 31.7031 32.6579 31.3896 32.5367 31.0971C32.4155 30.8046 32.2379 30.5388 32.0139 30.315C31.79 30.0912 31.5242 29.9136 31.2316 29.7926C30.939 29.6715 30.6255 29.6092 30.3089 29.6094ZM31.4454 37.642C31.4451 37.8993 31.3428 38.146 31.161 38.3281C30.9791 38.5101 30.7325 38.6126 30.4752 38.6132H28.629C29.3295 37.1306 28.6362 35.7472 28.0762 35.148C27.9581 35.0392 27.8031 34.979 27.6425 34.9795C27.4818 34.98 27.3273 35.0411 27.2098 35.1507C27.0922 35.2602 27.0204 35.4101 27.0087 35.5703C26.9969 35.7305 27.0461 35.8893 27.1464 36.0148C27.2611 36.1419 28.2436 37.297 27.1288 38.6122H24.0841C23.1511 38.6108 22.2389 38.8878 21.4641 39.4077C20.5684 40.0069 18.9236 41.1 16.7055 42.5681C16.5573 42.6689 16.3825 42.7232 16.2033 42.7241C15.9567 42.7241 15.7202 42.6261 15.5459 42.4518C15.3715 42.2774 15.2735 42.0409 15.2735 41.7943V31.8544C15.2738 31.5972 15.3761 31.3506 15.558 31.1687C15.7398 30.9869 15.9864 30.8846 16.2436 30.8843H30.3089C30.6103 30.8843 30.8994 31.004 31.1125 31.2171C31.3256 31.4303 31.4454 31.7193 31.4454 32.0208V37.642Z" fill="#717374"/>
<path d="M18.421 36.5527C18.1525 36.5527 17.8899 36.6324 17.6667 36.7816C17.4434 36.9308 17.2694 37.1429 17.1667 37.391C17.064 37.6391 17.0371 37.9122 17.0896 38.1755C17.1421 38.4389 17.2715 38.6808 17.4614 38.8706C17.6514 39.0604 17.8934 39.1896 18.1568 39.2419C18.4202 39.2942 18.6932 39.2671 18.9412 39.1642C19.1893 39.0613 19.4012 38.8872 19.5503 38.6638C19.6993 38.4404 19.7788 38.1778 19.7786 37.9093C19.7786 37.731 19.7434 37.5546 19.6752 37.3899C19.607 37.2253 19.5069 37.0757 19.3809 36.9497C19.2548 36.8237 19.1051 36.7238 18.9404 36.6557C18.7757 36.5876 18.5992 36.5526 18.421 36.5527Z" fill="#717374"/>
</svg>
