<svg width="183" height="56" viewBox="0 0 183 56" fill="none" xmlns="http://www.w3.org/2000/svg">
<g clip-path="url(#clip0_8117_129819)">
<path d="M20.0097 15.2717L16.7339 12L0.353843 28.3595L3.62964 31.6312L20.0097 15.2717Z" fill="#717374"/>
<path d="M33.1149 28.3605L16.7349 12.001L13.4591 15.2727L29.8391 31.6322L33.1149 28.3605Z" fill="#717374"/>
<path d="M20.0106 41.4485L10.1821 31.6323L6.90634 34.904L16.7348 44.7202L20.0106 41.4485Z" fill="#717374"/>
<path d="M20.0107 28.3596L16.7349 25.0879L6.90641 34.904L10.1822 38.1757L20.0107 28.3596Z" fill="#717374"/>
<path d="M33.1142 28.3596L29.8384 25.0879L13.4583 41.4474L16.7341 44.7191L33.1142 28.3596Z" fill="#717374"/>
<path d="M47.0585 35.1539H43.3107V23.4873H38.938V20.5718H51.4311V23.4873H47.0585V35.1539Z" fill="#717374"/>
<path d="M63.3907 32.0288C63.3907 33.0704 63.0957 33.8864 62.5058 34.4766C61.9159 35.0668 61.1004 35.3619 60.0594 35.3619H55.2702C54.2282 35.3619 53.4127 35.0668 52.8238 34.4766C52.2349 33.8864 51.94 33.0704 51.939 32.0288V27.2379C51.939 26.1962 52.2339 25.3803 52.8238 24.7901C53.4138 24.1999 54.2292 23.9048 55.2702 23.9048H60.0594C61.0994 23.9048 61.9148 24.1999 62.5058 24.7901C63.0967 25.3803 63.3917 26.1962 63.3907 27.2379V32.0288ZM59.7417 27.5492C59.7417 26.9944 59.4645 26.717 58.91 26.717H56.415C55.8596 26.717 55.5819 26.9944 55.5819 27.5492V31.7159C55.5819 32.2717 55.8596 32.5496 56.415 32.5496H58.9146C59.469 32.5496 59.7462 32.2717 59.7462 31.7159L59.7417 27.5492Z" fill="#717374"/>
<path d="M69.4146 30.779V35.1538H65.7656V20.5762H69.4146V27.9713H71.087L73.3768 24.1173H77.2295L74.1066 29.4321L77.2295 35.1614H73.3707L70.9776 30.779H69.4146Z" fill="#717374"/>
<path d="M88.7662 34.9458C86.3459 35.209 83.9136 35.3479 81.4789 35.3619C80.5342 35.3619 79.7776 35.0774 79.209 34.5085C78.6403 33.9395 78.3555 33.1803 78.3545 32.2307V27.2379C78.3545 26.1962 78.6495 25.3803 79.2394 24.7901C79.8293 24.1999 80.6452 23.9048 81.6872 23.9048H85.8501C86.8911 23.9048 87.7065 24.1999 88.2964 24.7901C88.8863 25.3803 89.1813 26.1962 89.1813 27.2379V31.0918H82.0004V31.924C81.9981 32.0203 82.0154 32.116 82.0512 32.2054C82.0869 32.2949 82.1404 32.3762 82.2085 32.4444C82.2765 32.5127 82.3577 32.5664 82.4471 32.6025C82.5365 32.6386 82.6323 32.6562 82.7287 32.6544C84.1031 32.6544 86.1162 32.5501 88.7677 32.3416L88.7662 34.9458ZM82.8366 26.5075C82.2802 26.5075 82.0035 26.7869 82.0035 27.3411V28.4876H85.543V27.3381C85.543 26.7839 85.2647 26.5045 84.7098 26.5045L82.8366 26.5075Z" fill="#717374"/>
<path d="M97.7061 26.9251C96.8574 26.9419 96.0155 27.081 95.2066 27.3382V35.1508H91.5576V24.1129H94.7839L94.9922 25.1546C95.6106 24.7393 96.2882 24.4199 97.0022 24.207C97.5645 24.0256 98.1494 23.9234 98.74 23.9033H99.6766C100.621 23.9033 101.378 24.1878 101.947 24.7567C102.515 25.3256 102.802 26.0849 102.807 27.0345V35.16H99.1581V27.654C99.1606 27.5577 99.1435 27.462 99.1078 27.3725C99.0721 27.2831 99.0186 27.2018 98.9505 27.1336C98.8824 27.0654 98.8011 27.0118 98.7116 26.976C98.6221 26.9401 98.5262 26.9228 98.4298 26.9251H97.7061Z" fill="#717374"/>
<path d="M112.267 35.1539H104.771V32.2369H106.645V23.4873H104.771V20.5718H112.267V23.4873H110.392V32.2369H112.267V35.1539Z" fill="#717374"/>
<path d="M120.582 26.9251C119.734 26.9421 118.892 27.0812 118.084 27.3382V35.1508H114.435V24.1129H117.663L117.882 25.1546C118.5 24.7394 119.177 24.4199 119.89 24.207C120.453 24.0254 121.039 23.9232 121.63 23.9033H122.566C123.511 23.9033 124.268 24.1878 124.836 24.7567C125.405 25.3256 125.687 26.0849 125.683 27.0345V35.16H122.034V27.654C122.037 27.5576 122.019 27.4617 121.984 27.3721C121.948 27.2826 121.894 27.2012 121.826 27.133C121.758 27.0649 121.676 27.0113 121.586 26.9755C121.497 26.9398 121.401 26.9226 121.304 26.9251H120.582Z" fill="#717374"/>
<path d="M127.648 32.2368C130.467 32.4454 132.688 32.5496 134.312 32.5496C134.408 32.5519 134.504 32.5346 134.593 32.4988C134.683 32.463 134.764 32.4093 134.832 32.3412C134.9 32.273 134.954 32.1917 134.99 32.1023C135.025 32.0128 135.042 31.917 135.04 31.8208V31.0919H130.564C129.62 31.0919 128.864 30.8069 128.294 30.237C127.724 29.667 127.44 28.9078 127.441 27.9592V27.2303C127.441 26.2858 127.725 25.5266 128.294 24.9526C128.862 24.3786 129.619 24.0941 130.564 24.0992H137.647V26.8203H131.812C131.713 26.8158 131.615 26.8314 131.522 26.866C131.43 26.9007 131.345 26.9537 131.274 27.0219C131.202 27.0901 131.145 27.172 131.106 27.2628C131.067 27.3536 131.047 27.4513 131.047 27.55C131.047 27.6487 131.067 27.7464 131.106 27.8372C131.145 27.9279 131.202 28.0099 131.274 28.0781C131.345 28.1463 131.43 28.1993 131.522 28.2339C131.615 28.2686 131.713 28.2841 131.812 28.2796H135.56C136.505 28.2796 137.261 28.5641 137.83 29.133C138.398 29.7019 138.683 30.4612 138.683 31.4108V32.2429C138.683 33.1874 138.398 33.9467 137.83 34.5206C137.261 35.0946 136.505 35.3791 135.56 35.374C133.103 35.374 130.468 35.2354 127.654 34.958L127.648 32.2368Z" fill="#717374"/>
<path d="M145.021 24.5291V35.1586H141.372V27.3383H139.815V24.5291H145.021ZM141.372 20.3623H145.021V23.2793H141.372V20.3623Z" fill="#717374"/>
<path d="M154.793 34.3232C153.63 34.58 152.444 34.7194 151.254 34.7393H150.525C149.581 34.7393 148.824 34.4548 148.255 33.8859C147.687 33.3169 147.402 32.5602 147.402 31.6157V27.4459C147.402 26.4042 147.697 25.5883 148.287 24.9981C148.877 24.4079 149.693 24.1128 150.734 24.1128H158.437V35.7779C158.437 36.7224 158.153 37.4817 157.583 38.0557C157.013 38.6296 156.257 38.9141 155.315 38.909C152.88 38.8951 150.448 38.7563 148.027 38.493V35.7779C150.678 35.9875 152.69 36.0917 154.065 36.0907C154.161 36.093 154.257 36.0757 154.347 36.0399C154.436 36.004 154.517 35.9504 154.585 35.8822C154.654 35.8141 154.707 35.7328 154.743 35.6433C154.778 35.5539 154.796 35.4581 154.793 35.3618V34.3232ZM152.295 31.924C153.132 31.9276 153.968 31.858 154.793 31.7159V26.9251H151.878C151.323 26.9251 151.045 27.2029 151.045 27.7587V31.1951C151.043 31.2915 151.06 31.3874 151.096 31.4769C151.131 31.5665 151.185 31.6479 151.253 31.716C151.322 31.7842 151.403 31.8378 151.493 31.8736C151.582 31.9093 151.679 31.9265 151.775 31.924H152.295Z" fill="#717374"/>
<path d="M164.669 24.3208C165.832 24.0642 167.017 23.9248 168.207 23.9047H169.145C170.088 23.9047 170.844 24.1892 171.414 24.7581C171.983 25.327 172.269 26.0858 172.27 27.0343V35.1598H168.621V27.4459C168.623 27.3496 168.606 27.2538 168.57 27.1644C168.535 27.0749 168.481 26.9936 168.413 26.9255C168.345 26.8573 168.264 26.8037 168.174 26.7678C168.085 26.732 167.989 26.7147 167.892 26.717H167.164C166.68 26.7142 166.197 26.742 165.717 26.8005C165.279 26.8552 164.929 26.8977 164.665 26.925V35.1538H161.016V20.5762H164.665L164.669 24.3208Z" fill="#717374"/>
<path d="M182.355 35.1542C181.041 35.2909 179.722 35.3603 178.401 35.3623C177.457 35.3623 176.7 35.0778 176.132 34.5089C175.563 33.9399 175.279 33.1807 175.279 32.2311V26.9164H174.029V24.1132H175.279L175.695 21.6138H178.921V24.1132H181.524V26.9255H178.921V31.7163C178.919 31.8127 178.936 31.9086 178.972 31.9982C179.008 32.0878 179.061 32.1691 179.13 32.2373C179.198 32.3055 179.279 32.3591 179.369 32.3948C179.459 32.4306 179.555 32.4477 179.651 32.4452H182.358L182.355 35.1542Z" fill="#717374"/>
</g>
<defs>
<clipPath id="clip0_8117_129819">
<rect width="182" height="56" fill="white" transform="translate(0.354492)"/>
</clipPath>
</defs>
</svg>
