<svg width="56" height="56" viewBox="0 0 56 56" fill="none" xmlns="http://www.w3.org/2000/svg">
<mask id="mask0_8348_11851" style="mask-type:luminance" maskUnits="userSpaceOnUse" x="3" y="12" width="50" height="32">
<path d="M52.5964 12H3V44H52.5964V12Z" fill="white"/>
</mask>
<g mask="url(#mask0_8348_11851)">
<path d="M37.0156 24.7012H27.1876V42.4402C27.1876 43.2789 27.8654 43.9566 28.7036 43.9566H35.4996C36.3378 43.9566 37.0156 43.2789 37.0156 42.4402V24.7012Z" fill="#717374"/>
<path d="M22.4428 12H22.1125H4.51618C3.67782 12 3 12.6778 3 13.5162V19.67C3 20.5084 3.67782 21.1862 4.51618 21.1862H8.64542H10.2863V23.0056V42.484C10.2863 43.3222 10.9645 44 11.8028 44H18.2596C19.0983 44 19.7761 43.3222 19.7761 42.484V23.0056V22.8361V21.1862H21.417H22.0859H22.4156C24.9485 21.1862 27.009 19.126 27.009 16.5931C27.0356 14.0602 24.9756 12 22.4428 12Z" fill="#717374"/>
<path d="M37.0241 24.7012V37.0802C37.3632 37.1606 37.7112 37.2229 38.0676 37.2766C38.5672 37.3477 39.0845 37.3922 39.6019 37.4011C39.6285 37.4011 39.6552 37.4011 39.6907 37.4011V27.5551C38.2014 27.457 37.0241 26.2173 37.0241 24.7012Z" fill="#717374"/>
<path d="M39.8876 12C32.8774 12 27.1876 17.6901 27.1876 24.7001C27.1876 30.7289 31.3881 35.7769 37.0245 37.0791V24.7001C37.0245 23.1215 38.309 21.8372 39.8876 21.8372C41.4663 21.8372 42.7503 23.1215 42.7503 24.7001C42.7503 26.029 41.8498 27.1438 40.6187 27.4649C40.3872 27.5273 40.1374 27.563 39.8876 27.563V37.4C40.1374 37.4 40.3783 37.3911 40.6187 37.3822C47.2898 36.9987 52.5876 31.4693 52.5876 24.7001C52.5965 17.6901 46.9067 12 39.8876 12Z" fill="#717374"/>
<path d="M39.8876 37.4009V27.5636C39.816 27.5636 39.7534 27.5636 39.6823 27.5547V37.4009C39.7534 37.4009 39.8249 37.4009 39.8876 37.4009Z" fill="#717374"/>
</g>
</svg>
