<svg width="183" height="56" viewBox="0 0 183 56" fill="none" xmlns="http://www.w3.org/2000/svg">
<path d="M146.087 22.8121C146.073 22.7981 146.052 22.7772 146.038 22.7633C144.896 21.5446 143.302 20.7925 141.533 20.7925C138.065 20.7925 135.251 23.7035 135.251 27.2969C135.251 30.8904 138.065 33.8012 141.533 33.8012C143.343 33.8012 144.98 33.0073 146.129 31.7329C146.129 31.7329 146.143 31.7261 146.136 31.7261C145.823 31.322 144.304 29.8597 144.304 29.8597H144.249C143.573 30.6258 142.612 31.1131 141.533 31.1131C139.499 31.1131 137.849 29.407 137.849 27.2969C137.849 25.1937 139.499 23.4806 141.533 23.4806C142.612 23.4806 143.58 23.975 144.249 24.7411" fill="#717374"/>
<path d="M128.259 20.7925C124.714 20.7925 121.838 23.7313 121.838 27.3526C121.838 30.9738 124.714 33.9127 128.259 33.9127C131.804 33.9127 134.68 30.9738 134.68 27.3526C134.687 23.7243 131.811 20.7925 128.259 20.7925ZM128.259 31.1968C126.177 31.1968 124.492 29.4767 124.492 27.3526C124.492 25.2286 126.177 23.5085 128.259 23.5085C130.341 23.5085 132.027 25.2286 132.027 27.3526C132.027 29.4767 130.341 31.1968 128.259 31.1968Z" fill="#717374"/>
<path d="M178.038 20.7925V23.7174H174.884V33.7945H171.861V23.7174H168.686V20.7925H178.038Z" fill="#717374"/>
<path d="M150.217 20.7925V26.8999L154.207 20.7925H157.062L153.309 26.496L157.828 33.7945H154.541L151.303 29.2121L150.21 30.8137V33.7945H147.278V20.7925H150.217Z" fill="#717374"/>
<path d="M167.501 23.2717H161.436V25.9389H166.206V28.3901H161.436V31.2316H167.501V33.8012H158.399V20.7925H167.501V23.2717Z" fill="#717374"/>
<path d="M116.762 20.7925H113.843H110.856V33.4462V33.8012H113.843V33.4462V30.7233H116.762C119.06 30.7233 120.926 28.5016 120.926 25.7578C120.926 23.014 119.06 20.7925 116.762 20.7925ZM115.557 28.0281H113.843V23.3483H115.557C116.908 23.3483 118.356 23.8706 118.356 25.6882C118.356 27.4153 116.915 28.0281 115.557 28.0281Z" fill="#717374"/>
<path d="M65.0259 20.7925C61.4813 20.7925 58.605 23.7313 58.605 27.3526C58.605 30.9738 61.4813 33.9127 65.0259 33.9127C68.5706 33.9127 71.4466 30.9738 71.4466 27.3526C71.4466 23.7243 68.5706 20.7925 65.0259 20.7925ZM65.0259 31.1968C62.9436 31.1968 61.2583 29.4767 61.2583 27.3526C61.2583 25.2286 62.9436 23.5085 65.0259 23.5085C67.108 23.5085 68.7933 25.2286 68.7933 27.3526C68.7933 29.4767 67.108 31.1968 65.0259 31.1968Z" fill="#717374"/>
<path d="M58.3264 20.8481V23.773H55.1718V33.8501H52.1425V23.773H48.9668V20.8481H58.3264Z" fill="#717374"/>
<path d="M93.6616 23.3273H87.5959V25.9946H92.3665V28.4458H87.5959V31.2873H93.6616V33.8569H84.5596V20.8481H93.6616V23.3273Z" fill="#717374"/>
<path d="M105.013 20.8481V33.8499H102.464L97.4783 25.0684C97.485 25.2912 97.492 25.4375 97.499 25.5071C97.5268 25.7299 97.5338 25.918 97.5338 26.0712V33.8569H95.208V20.8481H98.4252L102.757 28.5155C102.722 28.1324 102.701 27.8471 102.701 27.6519V20.8481H105.013Z" fill="#717374"/>
<path d="M75.3466 20.848L75.3606 26.1477L80.2353 20.8341L82.9793 20.8271L78.4248 26.5307L83.4598 33.8361L80.3049 33.8428L76.5165 28.5572L75.3744 29.6575L75.3814 33.8568L72.568 33.8638L72.5332 20.855L75.3466 20.848Z" fill="#717374"/>
<mask id="mask0_8117_126996" style="mask-type:luminance" maskUnits="userSpaceOnUse" x="4" y="16" width="37" height="24">
<path d="M40.3227 16H4.6709V39.0028H40.3227V16Z" fill="white"/>
</mask>
<g mask="url(#mask0_8117_126996)">
<path d="M29.1223 25.1299H22.0576V37.8813C22.0576 38.4842 22.5448 38.9714 23.1474 38.9714H28.0326C28.6351 38.9714 29.1223 38.4842 29.1223 37.8813V25.1299Z" fill="#717374"/>
<path d="M18.6471 16H18.4097H5.76078C5.15814 16 4.6709 16.4872 4.6709 17.0899V21.5135C4.6709 22.1161 5.15814 22.6034 5.76078 22.6034H8.72904H9.90857V23.9112V37.913C9.90857 38.5156 10.3961 39.0028 10.9986 39.0028H15.6401C16.243 39.0028 16.7302 38.5156 16.7302 37.913V23.9112V23.7894V22.6034H17.9097H18.3905H18.6276C20.4483 22.6034 21.9294 21.1224 21.9294 19.3017C21.9486 17.481 20.4678 16 18.6471 16Z" fill="#717374"/>
<path d="M29.1284 25.1299V34.0284C29.3722 34.0862 29.6223 34.1309 29.8786 34.1696C30.2377 34.2207 30.6095 34.2527 30.9814 34.259C31.0006 34.259 31.0198 34.259 31.0453 34.259V27.1814C29.9747 27.1109 29.1284 26.2198 29.1284 25.1299Z" fill="#717374"/>
<path d="M31.1873 16C26.1481 16 22.0581 20.0902 22.0581 25.1293C22.0581 29.463 25.0775 33.0917 29.1292 34.0278V25.1293C29.1292 23.9946 30.0525 23.0714 31.1873 23.0714C32.3221 23.0714 33.2451 23.9946 33.2451 25.1293C33.2451 26.0845 32.5979 26.8859 31.7129 27.1167C31.5464 27.1616 31.3669 27.1872 31.1873 27.1872V34.2585C31.3669 34.2585 31.54 34.2521 31.7129 34.2457C36.5083 33.97 40.3166 29.9953 40.3166 25.1293C40.3229 20.0902 36.2329 16 31.1873 16Z" fill="#717374"/>
<path d="M31.1871 34.2589V27.1876C31.1357 27.1876 31.0907 27.1876 31.0396 27.1812V34.2589C31.0907 34.2589 31.1421 34.2589 31.1871 34.2589Z" fill="#717374"/>
</g>
</svg>
