<svg width="56" height="56" viewBox="0 0 56 56" fill="none" xmlns="http://www.w3.org/2000/svg">
<path d="M13.1732 42.189L15.9105 38.5555V38.083H12V38.7511H14.7863L12.0326 42.3845V42.8734L15.9594 42.8571V42.189H13.1732Z" fill="#717374"/>
<path d="M25.6856 38.1159L28.928 38.0996V38.7351H26.5492V40.0711H28.8303V40.7066H26.5492V42.2545H29.0095V42.89L25.6856 42.9063V38.1159Z" fill="#717374"/>
<path d="M40.6761 38.0666L43.9186 38.0503V38.6857H41.5397V40.0218H43.8208V40.6573H41.5397V42.2052H44.0001V42.8406L40.6761 42.8569V38.0666Z" fill="#717374"/>
<path d="M35.5911 40.7715V38.0505H36.4546V40.8367C36.4546 41.9121 36.9435 42.2705 37.6278 42.2542C38.3284 42.2542 38.8335 41.8958 38.8172 40.8204V38.0342H39.6482V40.7552C39.6482 42.3194 38.8335 42.8897 37.6278 42.8897C36.4221 42.906 35.5911 42.3194 35.5911 40.7715Z" fill="#717374"/>
<path d="M20.0318 42.9059L18.4839 39.8916L17.0989 42.9059H16.2353L18.4513 38.1318L20.879 42.8896L20.0318 42.9059Z" fill="#717374"/>
<path d="M24.1047 38.1318L22.5731 41.1625L21.1555 38.1481H20.3082L22.5405 42.9222L24.9519 38.1318H24.1047Z" fill="#717374"/>
<path d="M33.4241 38.083V41.4721L30.9149 38.1156V38.0993H30.1328L30.1491 42.8734H30.9312L30.9149 39.4843L33.4404 42.8571H34.2225L34.2062 38.083H33.4241Z" fill="#717374"/>
<path d="M29.5311 22.0331L30.9323 20.6318L29.4659 19.752L27.9995 21.2021L29.5311 22.0331Z" fill="#717374"/>
<path d="M33.733 27.9476H31.6637C31.6474 27.9476 31.6474 27.9476 31.6311 27.9639C30.6372 28.9415 29.3174 29.5932 27.8673 29.7725L27.8998 23.6786C27.8998 23.6623 27.8998 23.646 27.8998 23.646L29.5292 22.0329L27.9976 21.2183L21.0728 28.0779C20.8447 28.306 20.8447 28.6645 21.0565 28.8926C24.2338 32.298 29.5944 32.3957 32.8694 29.137L32.8531 29.1207C33.179 28.7948 33.4886 28.4364 33.7656 28.0453C33.7982 27.9964 33.7819 27.9476 33.733 27.9476ZM26.2216 29.7725C25.0973 29.6258 24.0057 29.1859 23.0606 28.4527L26.2379 25.308L26.2216 29.7725Z" fill="#717374"/>
<path d="M31.1591 19.1815C28.8617 16.8189 25.0815 16.7374 22.6864 19.0185L22.5071 19.2304C22.0509 19.7192 21.6762 20.2569 21.3992 20.8597C21.3992 20.8597 21.3992 20.8597 21.4155 20.876H23.2078C23.3055 20.876 23.4033 20.8271 23.4685 20.7457C24.2994 19.6703 25.5704 19.0348 26.9553 19.0674H27.0694C27.9655 19.1163 28.8454 19.4422 29.546 20.0125L30.8169 20.7294L31.1591 20.4035C31.3546 20.208 31.4524 19.931 31.4035 19.654C31.3872 19.4748 31.2894 19.3118 31.1591 19.1815Z" fill="#717374"/>
<path d="M19.5925 29.6582C18.6474 28.257 18.0934 26.5624 18.0934 24.7538C18.0934 19.8983 22.0365 15.9552 26.892 15.9552C28.7006 15.9552 30.3952 16.5092 31.7964 17.4543L33.1977 16.053C31.4217 14.7658 29.2383 14 26.892 14C20.9611 14 16.1382 18.8229 16.1382 24.7538C16.1382 27.1164 16.904 29.2835 18.1912 31.0595L19.5925 29.6582Z" fill="#717374"/>
<path d="M34.4364 17.0957L33.0514 18.4807C34.6808 20.0775 35.691 22.3097 35.691 24.7537C35.691 29.6093 31.7479 33.5523 26.8924 33.5523C24.432 33.5523 22.2161 32.5421 20.6193 30.9128L19.2343 32.2977C21.1896 34.2856 23.8943 35.5076 26.8924 35.5076C32.8233 35.5076 37.6462 30.6846 37.6462 24.7537C37.6625 21.7557 36.4242 19.0509 34.4364 17.0957Z" fill="#717374"/>
</svg>
