<svg width="56" height="56" viewBox="0 0 56 56" fill="none" xmlns="http://www.w3.org/2000/svg">
<path d="M2.0386 51.9813L6.79504 45.6677V44.8467H0.00012207V46.0075H4.8415L0.0567499 52.3211V53.1705L6.87998 53.1421V51.9813H2.0386Z" fill="#717374"/>
<path d="M23.7803 44.9033L29.4144 44.875V45.9792H25.2808V48.3008H29.2445V49.4049H25.2808V52.0946H29.556V53.1988L23.7803 53.2271V44.9033Z" fill="#717374"/>
<path d="M49.8281 44.8183L55.4622 44.79V45.8942H51.3287V48.2158H55.2924V49.32H51.3287V52.0096H55.6038V53.1138L49.8281 53.1421V44.8183Z" fill="#717374"/>
<path d="M40.9922 49.5182V44.79H42.4927V49.6314C42.4927 51.5 43.3421 52.1229 44.5312 52.0946C45.7486 52.0946 46.6263 51.4717 46.598 49.6031V44.7617H48.0419V49.4898C48.0419 52.2078 46.6263 53.1987 44.5312 53.1987C42.4361 53.2271 40.9922 52.2078 40.9922 49.5182Z" fill="#717374"/>
<path d="M13.9561 53.2271L11.2665 47.9894L8.85992 53.2271H7.35938L11.2098 44.9316L15.4283 53.1988L13.9561 53.2271Z" fill="#717374"/>
<path d="M21.0333 44.9316L18.3719 50.1977L15.9088 44.9599H14.4365L18.3153 53.2554L22.5055 44.9316H21.0333Z" fill="#717374"/>
<path d="M37.2269 44.8467V50.7356L32.8668 44.9033V44.875H31.5078L31.5361 53.1705H32.8951L32.8668 47.2815L37.2552 53.1421H38.6142L38.5859 44.8467H37.2269Z" fill="#717374"/>
<path d="M30.4622 16.9588L32.8971 14.524L30.349 12.9951L27.8009 15.5149L30.4622 16.9588Z" fill="#717374"/>
<path d="M37.7636 27.2359H34.1679C34.1396 27.2359 34.1396 27.2359 34.1113 27.2642C32.3843 28.9629 30.091 30.0954 27.5712 30.4069L27.6278 19.8181C27.6278 19.7898 27.6278 19.7615 27.6278 19.7615L30.459 16.9586L27.7977 15.543L15.765 27.4624C15.3687 27.8588 15.3687 28.4816 15.7367 28.878C21.2576 34.7952 30.5723 34.9651 36.263 29.3027L36.2347 29.2744C36.801 28.7081 37.3389 28.0853 37.8202 27.4058C37.8768 27.3208 37.8485 27.2359 37.7636 27.2359ZM24.7117 30.4069C22.7581 30.152 20.8612 29.3876 19.2191 28.1136L24.74 22.6493L24.7117 30.4069Z" fill="#717374"/>
<path d="M33.2911 12.0035C29.2991 7.89824 22.7307 7.75668 18.5688 11.7204L18.2574 12.0884C17.4646 12.9378 16.8135 13.8721 16.3322 14.9197C16.3322 14.9197 16.3322 14.9197 16.3605 14.948H19.4748C19.6447 14.948 19.8145 14.863 19.9278 14.7215C21.3717 12.8529 23.5801 11.7487 25.9866 11.8053H26.1848C27.742 11.8903 29.2708 12.4565 30.4882 13.4474L32.6966 14.6932L33.2911 14.1269C33.6309 13.7872 33.8008 13.3059 33.7158 12.8246C33.6875 12.5131 33.5176 12.23 33.2911 12.0035Z" fill="#717374"/>
<path d="M13.1927 30.208C11.5506 27.7731 10.588 24.8287 10.588 21.686C10.588 13.249 17.4396 6.39746 25.8766 6.39746C29.0192 6.39746 31.9637 7.36007 34.3985 9.00217L36.8334 6.56733C33.7474 4.33067 29.9535 3 25.8766 3C15.5709 3 7.19055 11.3804 7.19055 21.686C7.19055 25.7913 8.52122 29.5568 10.7579 32.6428L13.1927 30.208Z" fill="#717374"/>
<path d="M38.9857 8.37891L36.5792 10.7854C39.4104 13.56 41.1657 17.4388 41.1657 21.6856C41.1657 30.1226 34.3142 36.9742 25.8771 36.9742C21.602 36.9742 17.7516 35.2188 14.977 32.3876L12.5704 34.7942C15.9679 38.2482 20.6677 40.3717 25.8771 40.3717C36.1828 40.3717 44.5632 31.9913 44.5632 21.6856C44.5915 16.4762 42.4398 11.7764 38.9857 8.37891Z" fill="#717374"/>
</svg>
