<svg width="57" height="52" viewBox="0 0 57 52" fill="none" xmlns="http://www.w3.org/2000/svg">
<path d="M2.81057 49.8539L7.56701 43.5403V42.7192H0.772095V43.88H5.61348L0.828723 50.1936V51.043L7.65195 51.0147V49.8539H2.81057Z" fill="#717374"/>
<path d="M24.5522 42.7759L30.1864 42.7476V43.8517H26.0528V46.1733H30.0165V47.2775H26.0528V49.9672H30.3279V51.0713L24.5522 51.0996V42.7759Z" fill="#717374"/>
<path d="M50.6001 42.6909L56.2342 42.6626V43.7668H52.1006V46.0884H56.0644V47.1925H52.1006V49.8822H56.3758V50.9864L50.6001 51.0147V42.6909Z" fill="#717374"/>
<path d="M41.7642 47.3907V42.6626H43.2647V47.504C43.2647 49.3726 44.1141 49.9954 45.3032 49.9671C46.5206 49.9671 47.3983 49.3443 47.37 47.4757V42.6343H48.8139V47.3624C48.8139 50.0804 47.3983 51.0713 45.3032 51.0713C43.2081 51.0996 41.7642 50.0804 41.7642 47.3907Z" fill="#717374"/>
<path d="M14.7281 51.0997L12.0384 45.8619L9.63189 51.0997H8.13135L11.9818 42.8042L16.2003 51.0713L14.7281 51.0997Z" fill="#717374"/>
<path d="M21.8052 42.8042L19.1439 48.0703L16.6807 42.8325H15.2085L19.0873 51.128L23.2775 42.8042H21.8052Z" fill="#717374"/>
<path d="M37.9988 42.7192V48.6082L33.6388 42.7759V42.7476H32.2798L32.3081 51.043H33.6671L33.6388 45.1541L38.0272 51.0147H39.3861L39.3578 42.7192H37.9988Z" fill="#717374"/>
<path d="M31.2342 14.8314L33.6691 12.3965L31.121 10.8677L28.5729 13.3875L31.2342 14.8314Z" fill="#717374"/>
<path d="M38.5355 25.1085H34.9399C34.9116 25.1085 34.9116 25.1084 34.8833 25.1368C33.1562 26.8355 30.8629 27.968 28.3432 28.2794L28.3998 17.6907C28.3998 17.6624 28.3998 17.634 28.3998 17.634L31.231 14.8311L28.5697 13.4155L16.537 25.3349C16.1406 25.7313 16.1406 26.3542 16.5087 26.7506C22.0296 32.6678 31.3443 32.8377 37.035 27.1752L37.0067 27.1469C37.5729 26.5807 38.1109 25.9578 38.5922 25.2783C38.6488 25.1934 38.6205 25.1085 38.5355 25.1085ZM25.4836 28.2794C23.5301 28.0246 21.6332 27.2602 19.9911 25.9861L25.512 20.5219L25.4836 28.2794Z" fill="#717374"/>
<path d="M34.0631 9.87606C30.0711 5.7708 23.5027 5.62924 19.3408 9.59294L19.0293 9.961C18.2366 10.8104 17.5854 11.7447 17.1041 12.7922C17.1041 12.7922 17.1041 12.7922 17.1324 12.8205H20.2468C20.4167 12.8205 20.5865 12.7356 20.6998 12.594C22.1437 10.7254 24.352 9.62126 26.7586 9.67788H26.9568C28.5139 9.76282 30.0428 10.3291 31.2602 11.32L33.4686 12.5657L34.0631 11.9995C34.4029 11.6597 34.5727 11.1784 34.4878 10.6971C34.4595 10.3857 34.2896 10.1026 34.0631 9.87606Z" fill="#717374"/>
<path d="M13.9647 28.0806C12.3226 25.6457 11.36 22.7012 11.36 19.5586C11.36 11.1216 18.2115 4.27002 26.6485 4.27002C29.7912 4.27002 32.7357 5.23263 35.1705 6.87473L37.6054 4.43989C34.5193 2.20323 30.7255 0.872559 26.6485 0.872559C16.3429 0.872559 7.96252 9.25296 7.96252 19.5586C7.96252 23.6639 9.29319 27.4294 11.5299 30.5154L13.9647 28.0806Z" fill="#717374"/>
<path d="M39.7577 6.25146L37.3511 8.658C40.1823 11.4326 41.9377 15.3114 41.9377 19.5582C41.9377 27.9952 35.0861 34.8468 26.6491 34.8468C22.374 34.8468 18.5235 33.0914 15.7489 30.2602L13.3424 32.6667C16.7399 36.1208 21.4397 38.2442 26.6491 38.2442C36.9547 38.2442 45.3351 29.8638 45.3351 19.5582C45.3635 14.3487 43.2117 9.64892 39.7577 6.25146Z" fill="#717374"/>
</svg>
