<svg width="254" height="104" viewBox="0 0 254 104" fill="none" xmlns="http://www.w3.org/2000/svg">
<g filter="url(#filter0_d_6742_40818)">
<rect x="4" y="4" width="246" height="96" rx="16" fill="white" fill-opacity="0.1" shape-rendering="crispEdges"/>
<path d="M101.038 75.9809L105.795 69.6672V68.8462H99V70.007H103.841L99.0566 76.3206V77.17L105.88 77.1417V75.9809H101.038Z" fill="white"/>
<path d="M122.78 68.9023L128.414 68.874V69.9782H124.281V72.2998H128.245V73.404H124.281V76.0936H128.556V77.1978L122.78 77.2261V68.9023Z" fill="white"/>
<path d="M148.828 68.8179L154.462 68.7896V69.8937H150.329V72.2153H154.292V73.3195H150.329V76.0092H154.604V77.1133L148.828 77.1416V68.8179Z" fill="white"/>
<path d="M139.992 73.5177V68.7895H141.493V73.6309C141.493 75.4995 142.342 76.1224 143.531 76.0941C144.749 76.0941 145.626 75.4712 145.598 73.6026V68.7612H147.042V73.4894C147.042 76.2073 145.626 77.1983 143.531 77.1983C141.436 77.2266 139.992 76.2073 139.992 73.5177Z" fill="white"/>
<path d="M112.956 77.2266L110.266 71.9889L107.86 77.2266H106.359L110.21 68.9312L114.428 77.1983L112.956 77.2266Z" fill="white"/>
<path d="M120.033 68.9312L117.372 74.1972L114.909 68.9595H113.437L117.315 77.2549L121.505 68.9312H120.033Z" fill="white"/>
<path d="M136.227 68.8462V74.7351L131.867 68.9028V68.8745H130.508L130.536 77.17H131.895L131.867 71.281L136.255 77.1417H137.614L137.586 68.8462H136.227Z" fill="white"/>
<path d="M129.462 40.9588L131.897 38.524L129.349 36.9951L126.801 39.5149L129.462 40.9588Z" fill="white"/>
<path d="M136.764 51.2359H133.168C133.14 51.2359 133.14 51.2359 133.111 51.2642C131.384 52.9629 129.091 54.0954 126.571 54.4069L126.628 43.8181C126.628 43.7898 126.628 43.7615 126.628 43.7615L129.459 40.9586L126.798 39.543L114.765 51.4624C114.369 51.8588 114.369 52.4816 114.737 52.878C120.258 58.7952 129.572 58.9651 135.263 53.3027L135.235 53.2744C135.801 52.7081 136.339 52.0853 136.82 51.4058C136.877 51.3208 136.849 51.2359 136.764 51.2359ZM123.712 54.4069C121.758 54.152 119.861 53.3876 118.219 52.1136L123.74 46.6493L123.712 54.4069Z" fill="white"/>
<path d="M132.291 36.0035C128.299 31.8982 121.731 31.7567 117.569 35.7204L117.257 36.0884C116.465 36.9378 115.814 37.8721 115.332 38.9197C115.332 38.9197 115.332 38.9197 115.361 38.948H118.475C118.645 38.948 118.815 38.863 118.928 38.7215C120.372 36.8529 122.58 35.7487 124.987 35.8053H125.185C126.742 35.8903 128.271 36.4565 129.488 37.4474L131.697 38.6932L132.291 38.1269C132.631 37.7872 132.801 37.3059 132.716 36.8246C132.688 36.5131 132.518 36.23 132.291 36.0035Z" fill="white"/>
<path d="M112.193 54.208C110.551 51.7731 109.588 48.8287 109.588 45.686C109.588 37.249 116.44 30.3975 124.877 30.3975C128.019 30.3975 130.964 31.3601 133.399 33.0022L135.834 30.5673C132.747 28.3307 128.954 27 124.877 27C114.571 27 106.191 35.3804 106.191 45.686C106.191 49.7913 107.521 53.5568 109.758 56.6428L112.193 54.208Z" fill="white"/>
<path d="M137.986 32.3789L135.579 34.7854C138.41 37.56 140.166 41.4388 140.166 45.6856C140.166 54.1226 133.314 60.9742 124.877 60.9742C120.602 60.9742 116.752 59.2188 113.977 56.3876L111.571 58.7942C114.968 62.2482 119.668 64.3717 124.877 64.3717C135.183 64.3717 143.563 55.9913 143.563 45.6856C143.592 40.4762 141.44 35.7764 137.986 32.3789Z" fill="white"/>
</g>
<defs>
<filter id="filter0_d_6742_40818" x="0" y="0" width="254" height="104" filterUnits="userSpaceOnUse" color-interpolation-filters="sRGB">
<feFlood flood-opacity="0" result="BackgroundImageFix"/>
<feColorMatrix in="SourceAlpha" type="matrix" values="0 0 0 0 0 0 0 0 0 0 0 0 0 0 0 0 0 0 127 0" result="hardAlpha"/>
<feOffset/>
<feGaussianBlur stdDeviation="2"/>
<feComposite in2="hardAlpha" operator="out"/>
<feColorMatrix type="matrix" values="0 0 0 0 1 0 0 0 0 1 0 0 0 0 1 0 0 0 0.35 0"/>
<feBlend mode="normal" in2="BackgroundImageFix" result="effect1_dropShadow_6742_40818"/>
<feBlend mode="normal" in="SourceGraphic" in2="effect1_dropShadow_6742_40818" result="shape"/>
</filter>
</defs>
</svg>
