<svg width="135" height="24" viewBox="0 0 135 24" fill="none" xmlns="http://www.w3.org/2000/svg">
<g clip-path="url(#clip0_10354_7630)">
<path d="M18.6821 24C25.3096 24 30.6821 18.6274 30.6821 12C30.6821 5.37259 25.3096 0 18.6821 0C12.0547 0 6.68213 5.37259 6.68213 12C6.68213 18.6274 12.0547 24 18.6821 24Z" fill="#0098EA"/>
<path d="M22.7784 6.69775H14.5834C13.0766 6.69775 12.1216 8.32315 12.8796 9.63704L17.9373 18.4034C18.2673 18.9758 19.0944 18.9758 19.4244 18.4034L24.4831 9.63704C25.2402 8.32517 24.2851 6.69775 22.7794 6.69775H22.7784ZM17.9332 15.7746L16.8317 13.6428L14.1739 8.88934C13.9986 8.58508 14.2152 8.19525 14.5823 8.19525H17.9321V15.7755L17.9332 15.7746ZM23.1857 8.8883L20.529 13.6438L19.4275 15.7746V8.19421H22.7773C23.1445 8.19421 23.3611 8.58404 23.1857 8.8883Z" fill="white"/>
<path d="M86.0098 21.9656V16.6489H87.4661V17.255C87.7427 16.8297 88.2958 16.532 88.9869 16.532C90.2736 16.532 91.0394 17.4677 91.0394 18.8501V21.9656H89.5825V19.0946C89.5825 18.329 89.2525 17.8611 88.6465 17.8611C87.9767 17.8611 87.4661 18.3503 87.4661 19.3711V21.9656H86.0098Z" fill="white"/>
<path d="M85.1717 19.3073C85.1717 20.8598 83.9166 22.0826 82.3752 22.0826C80.8332 22.0826 79.5786 20.8598 79.5786 19.3073C79.5786 17.7548 80.8332 16.532 82.3752 16.532C83.9166 16.532 85.1717 17.7548 85.1717 19.3073ZM81.0459 19.3073C81.0459 20.1261 81.6093 20.7216 82.3752 20.7216C83.1404 20.7216 83.6935 20.1261 83.6935 19.3073C83.6935 18.4885 83.1404 17.8931 82.3752 17.8931C81.6093 17.8931 81.0459 18.4885 81.0459 19.3073Z" fill="white"/>
<path d="M78.9451 14.8523C78.9451 15.3628 78.5305 15.7775 78.0091 15.7775C77.5094 15.7775 77.084 15.3628 77.084 14.8523C77.084 14.342 77.5094 13.9272 78.0091 13.9272C78.5305 13.9272 78.9451 14.342 78.9451 14.8523ZM77.2863 21.9661V16.6494H78.7427V21.9661H77.2863Z" fill="white"/>
<path d="M76.4596 21.912C76.2256 21.9865 75.9381 22.029 75.5345 22.029C74.407 22.029 73.5032 21.4016 73.5032 20.1043V17.9245H72.4292V16.6485H73.5032V15.1704H74.9601V16.6485H76.4596V17.9245H74.9601V19.8172C74.9601 20.4658 75.2367 20.7211 75.8639 20.7211C76.0979 20.7211 76.2894 20.6892 76.4596 20.6253V21.912Z" fill="white"/>
<path d="M66.27 19.3073C66.27 17.7974 67.3549 16.532 68.7687 16.532C69.5024 16.532 70.0664 16.9041 70.3004 17.2444V16.6489H71.7567V21.9656H70.3004V21.3702C70.0664 21.7105 69.5024 22.0826 68.7687 22.0826C67.3549 22.0826 66.27 20.8172 66.27 19.3073ZM70.4171 19.3073C70.4171 18.4779 69.8749 17.8611 69.0775 17.8611C68.28 17.8611 67.7373 18.4779 67.7373 19.3073C67.7373 20.1367 68.28 20.7535 69.0775 20.7535C69.8749 20.7535 70.4171 20.1367 70.4171 19.3073Z" fill="white"/>
<path d="M59.9204 19.3067C59.9204 17.7968 61.005 16.5314 62.4194 16.5314C63.153 16.5314 63.7165 16.9036 63.9505 17.2438V13.99H65.4074V21.9651H63.9505V21.3696C63.7165 21.7099 63.153 22.082 62.4194 22.082C61.005 22.082 59.9204 20.8167 59.9204 19.3067ZM64.0672 19.3067C64.0672 18.4773 63.525 17.8606 62.7276 17.8606C61.9301 17.8606 61.388 18.4773 61.388 19.3067C61.388 20.1361 61.9301 20.7529 62.7276 20.7529C63.525 20.7529 64.0672 20.1361 64.0672 19.3067Z" fill="white"/>
<path d="M54.1069 21.9656V16.6489H55.5637V17.255C55.8402 16.8297 56.3931 16.532 57.0843 16.532C58.3709 16.532 59.1365 17.4677 59.1365 18.8501V21.9656H57.6798V19.0946C57.6798 18.329 57.3501 17.8611 56.744 17.8611C56.0741 17.8611 55.5637 18.3503 55.5637 19.3711V21.9656H54.1069Z" fill="white"/>
<path d="M48.0054 19.7329V16.6492H49.4621V19.4883C49.4621 20.2858 49.7386 20.7537 50.366 20.7537C51.0146 20.7537 51.4612 20.2752 51.4612 19.2437V16.6492H52.918V21.9659H51.4612V21.3598C51.1848 21.7851 50.685 22.0829 50.0045 22.0829C48.7178 22.0829 48.0054 21.1472 48.0054 19.7329Z" fill="white"/>
<path d="M47.2309 19.3073C47.2309 20.8598 45.9761 22.0826 44.4343 22.0826C42.8925 22.0826 41.6377 20.8598 41.6377 19.3073C41.6377 17.7548 42.8925 16.532 44.4343 16.532C45.9761 16.532 47.2309 17.7548 47.2309 19.3073ZM43.1051 19.3073C43.1051 20.1261 43.6687 20.7216 44.4343 20.7216C45.1999 20.7216 45.7529 20.1261 45.7529 19.3073C45.7529 18.4885 45.1999 17.8931 44.4343 17.8931C43.6687 17.8931 43.1051 18.4885 43.1051 19.3073Z" fill="white"/>
<path d="M37.0962 21.966V14.4163H41.6898V15.8836H38.638V17.4468H41.0306V18.9142H38.638V21.966H37.0962Z" fill="white"/>
<path d="M122.896 10.0354V2.0603H124.352V6.67521L126.075 4.71866H127.83L125.724 7.11119L128.319 10.0354H126.522L124.352 7.58966V10.0354H122.896Z" fill="white"/>
<path d="M118.913 10.0351V4.71834H120.37V5.569C120.55 5.04798 121.092 4.65454 121.688 4.65454C121.837 4.65454 121.996 4.66518 122.177 4.71834V6.19638C121.954 6.12198 121.752 6.07943 121.518 6.07943C120.827 6.07943 120.37 6.62172 120.37 7.49369V10.0351H118.913Z" fill="white"/>
<path d="M118.075 7.37662C118.075 8.92915 116.82 10.1519 115.278 10.1519C113.736 10.1519 112.482 8.92915 112.482 7.37662C112.482 5.82415 113.736 4.60132 115.278 4.60132C116.82 4.60132 118.075 5.82415 118.075 7.37662ZM113.949 7.37662C113.949 8.1954 114.513 8.79087 115.278 8.79087C116.044 8.79087 116.597 8.1954 116.597 7.37662C116.597 6.55789 116.044 5.96242 115.278 5.96242C114.513 5.96242 113.949 6.55789 113.949 7.37662Z" fill="white"/>
<path d="M109.164 10.0352L108.165 7.00467L107.176 10.0352H105.73L103.965 4.71851H105.517L106.527 8.12122L107.601 4.71851H108.718L109.802 8.12122L110.802 4.71851H112.365L110.611 10.0352H109.164Z" fill="white"/>
<path d="M103.787 9.98232C103.553 10.0568 103.266 10.0993 102.862 10.0993C101.735 10.0993 100.831 9.47194 100.831 8.17463V5.99477H99.7568V4.71877H100.831V3.24072H102.287V4.71877H103.787V5.99477H102.287V7.88755C102.287 8.53615 102.564 8.79137 103.191 8.79137C103.425 8.79137 103.616 8.75946 103.787 8.69564V9.98232Z" fill="white"/>
<path d="M99.4899 8.30176C99.1708 9.37571 98.1181 10.1519 96.7676 10.1519C95.141 10.1519 93.9819 8.98227 93.9819 7.36598C93.9819 5.78165 95.1623 4.60132 96.7785 4.60132C98.3418 4.60132 99.6279 5.71784 99.5538 7.71693H95.4067C95.4705 8.34431 95.9385 8.8866 96.8423 8.8866C97.3528 8.8866 97.799 8.66329 97.9692 8.30176H99.4899ZM96.7359 5.78165C96.0661 5.78165 95.5981 6.17509 95.4601 6.75993H97.9588C97.7778 6.04745 97.2356 5.78165 96.7359 5.78165Z" fill="white"/>
<path d="M93.1173 10.0351H91.788L87.9175 5.11181V10.0351H86.3755V2.48535H87.7048L91.5753 7.40866V2.48535H93.1173V10.0351Z" fill="white"/>
<path d="M77.8779 10.035V4.71829H79.3348V5.32439C79.6114 4.89905 80.1645 4.60132 80.8556 4.60132C82.1423 4.60132 82.9076 5.53707 82.9076 6.91942V10.035H81.4512V7.164C81.4512 6.39835 81.1212 5.93051 80.5152 5.93051C79.8454 5.93051 79.3348 6.41962 79.3348 7.44044V10.035H77.8779Z" fill="white"/>
<path d="M76.966 8.30176C76.6469 9.37571 75.5942 10.1519 74.2436 10.1519C72.6171 10.1519 71.458 8.98227 71.458 7.36598C71.458 5.78165 72.6384 4.60132 74.2546 4.60132C75.8178 4.60132 77.1046 5.71784 77.0298 7.71693H72.8827C72.9466 8.34431 73.4146 8.8866 74.3184 8.8866C74.8289 8.8866 75.2751 8.66329 75.4453 8.30176H76.966ZM74.212 5.78165C73.5422 5.78165 73.0742 6.17509 72.9362 6.75993H75.4349C75.2538 6.04745 74.7116 5.78165 74.212 5.78165Z" fill="white"/>
<path d="M65.4478 12.2574V4.71829H66.9047V5.31376C67.149 4.97349 67.713 4.60132 68.4467 4.60132C69.861 4.60132 70.9454 5.86669 70.9454 7.37662C70.9454 8.8866 69.861 10.1519 68.4467 10.1519C67.713 10.1519 67.149 9.77978 66.9047 9.43953V12.2574H65.4478ZM69.4672 7.37662C69.4672 6.54725 68.925 5.93051 68.1276 5.93051C67.3301 5.93051 66.7879 6.54725 66.7879 7.37662C66.7879 8.20604 67.3301 8.82278 68.1276 8.82278C68.925 8.82278 69.4672 8.20604 69.4672 7.37662Z" fill="white"/>
<path d="M64.6318 6.26014C64.6318 8.41872 62.888 10.1626 60.7292 10.1626C58.5706 10.1626 56.8267 8.41872 56.8267 6.26014C56.8267 4.10154 58.5706 2.35767 60.7292 2.35767C62.888 2.35767 64.6318 4.10154 64.6318 6.26014ZM58.3792 6.26014C58.3792 7.57866 59.4106 8.67394 60.7292 8.67394C62.048 8.67394 63.0789 7.57866 63.0789 6.26014C63.0789 4.94159 62.048 3.84634 60.7292 3.84634C59.4106 3.84634 58.3792 4.94159 58.3792 6.26014Z" fill="white"/>
<path d="M54.0159 8.30176C53.6969 9.37571 52.6442 10.1519 51.2938 10.1519C49.6668 10.1519 48.5078 8.98227 48.5078 7.36598C48.5078 5.78165 49.6881 4.60132 51.3044 4.60132C52.8675 4.60132 54.1541 5.71784 54.0797 7.71693H49.9326C49.9965 8.34431 50.4644 8.8866 51.3682 8.8866C51.8786 8.8866 52.3252 8.66329 52.4953 8.30176H54.0159ZM51.2619 5.78165C50.5919 5.78165 50.124 6.17509 49.9858 6.75993H52.4847C52.3039 6.04745 51.7616 5.78165 51.2619 5.78165Z" fill="white"/>
<path d="M42.6948 10.0354V2.0603H44.1516V5.32477C44.4281 4.89943 44.981 4.6017 45.6722 4.6017C46.9589 4.6017 47.7245 5.53744 47.7245 6.91979V10.0354H46.2677V7.16437C46.2677 6.39877 45.938 5.93088 45.3319 5.93088C44.662 5.93088 44.1516 6.41999 44.1516 7.44081V10.0354H42.6948Z" fill="white"/>
<path d="M38.4887 10.0351V3.95277H36.479V2.48535H42.0722V3.95277H40.0412V10.0351H38.4887Z" fill="white"/>
</g>
<defs>
<clipPath id="clip0_10354_7630">
<rect width="133.8" height="24" fill="white" transform="translate(0.600098)"/>
</clipPath>
</defs>
</svg>
