<svg width="50" height="50" viewBox="0 0 50 50" fill="none" xmlns="http://www.w3.org/2000/svg">
    <path d="M23.4375 10.9375C23.4375 10.5231 23.6021 10.1257 23.8951 9.83265C24.1882 9.53962 24.5856 9.375 25 9.375C27.0719 9.375 29.0094 10.3937 30.4031 11.7844C31.7937 13.1781 32.8125 15.1156 32.8125 17.1875C32.8125 17.6019 32.6479 17.9993 32.3549 18.2924C32.0618 18.5854 31.6644 18.75 31.25 18.75C30.8356 18.75 30.4382 18.5854 30.1451 18.2924C29.8521 17.9993 29.6875 17.6019 29.6875 17.1875C29.6875 16.1344 29.1437 14.9469 28.1906 13.9969C27.2406 13.0438 26.0531 12.5 25 12.5C24.5856 12.5 24.1882 12.3354 23.8951 12.0424C23.6021 11.7493 23.4375 11.3519 23.4375 10.9375Z" fill="white" fill-opacity="0.1"/>
    <path d="M26.5625 34.2438C29.7375 33.7063 32.6531 31.5969 34.8125 28.8875C37.35 25.7125 39.0625 21.4688 39.0625 17.1875C39.0625 10.2063 33.8 3.125 25 3.125C16.2 3.125 10.9375 10.2063 10.9375 17.1875C10.9375 21.4688 12.65 25.7125 15.1875 28.8875C17.3469 31.5969 20.2625 33.7063 23.4375 34.2438V34.375C23.4375 36.0326 24.096 37.6223 25.2681 38.7944C26.4402 39.9665 28.0299 40.625 29.6875 40.625H34.375C35.2038 40.625 35.9987 40.9542 36.5847 41.5403C37.1708 42.1263 37.5 42.9212 37.5 43.75V45.3125C37.5 45.7269 37.6646 46.1243 37.9576 46.4174C38.2507 46.7104 38.6481 46.875 39.0625 46.875C39.4769 46.875 39.8743 46.7104 40.1674 46.4174C40.4604 46.1243 40.625 45.7269 40.625 45.3125V43.75C40.625 42.0924 39.9665 40.5027 38.7944 39.3306C37.6223 38.1585 36.0326 37.5 34.375 37.5H29.6875C28.8587 37.5 28.0638 37.1708 27.4778 36.5847C26.8917 35.9987 26.5625 35.2038 26.5625 34.375V34.2438ZM25 6.25C31.825 6.25 35.9375 11.6687 35.9375 17.1875C35.9375 20.6719 34.525 24.2406 32.375 26.9375C30.1937 29.6625 27.475 31.25 25 31.25C22.5219 31.25 19.8031 29.6625 17.625 26.9375C15.4781 24.2406 14.0625 20.6719 14.0625 17.1875C14.0625 11.6687 18.175 6.25 25 6.25Z" fill="white" fill-opacity="0.1"/>
    </svg>
    