<svg width="24" height="24" viewBox="0 0 24 24" fill="none" xmlns="http://www.w3.org/2000/svg">
    <path d="M17.5653 7.03613C19.3723 9.70936 20.2647 12.7247 19.9311 16.196C19.9297 16.2107 19.9221 16.2242 19.9101 16.2331C18.5417 17.2441 17.2159 17.8576 15.9087 18.2645C15.8985 18.2677 15.8876 18.2675 15.8776 18.2641C15.8675 18.2606 15.8587 18.2541 15.8525 18.2454C15.5505 17.8226 15.2761 17.3769 15.0357 16.9088C15.0219 16.8812 15.0345 16.848 15.0629 16.8372C15.4987 16.672 15.9131 16.4739 16.3117 16.2395C16.3431 16.221 16.3451 16.1757 16.3161 16.154C16.2315 16.0908 16.1477 16.0244 16.0675 15.958C16.0525 15.9457 16.0323 15.9433 16.0153 15.9515C13.4275 17.1539 10.5927 17.1539 7.97433 15.9515C7.95733 15.9439 7.93713 15.9465 7.92253 15.9586C7.84253 16.025 7.75853 16.0908 7.67473 16.154C7.64573 16.1757 7.64813 16.221 7.67973 16.2395C8.07833 16.4695 8.49273 16.672 8.92793 16.838C8.95613 16.8488 8.96953 16.8812 8.95553 16.9088C8.72033 17.3775 8.44593 17.8232 8.13833 18.246C8.12493 18.2631 8.10293 18.271 8.08213 18.2645C6.78114 17.8576 5.45534 17.2441 4.08694 16.2331C4.07554 16.2242 4.06734 16.2101 4.06614 16.1954C3.78734 13.1928 4.35554 10.1525 6.42974 7.03553C6.43474 7.02728 6.44234 7.02084 6.45114 7.01702C7.47173 6.54572 8.56513 6.19899 9.70793 6.00097C9.72873 5.99775 9.74953 6.00741 9.76033 6.02592C9.90153 6.27747 10.0629 6.60005 10.1721 6.86367C11.3767 6.67853 12.6001 6.67853 13.8299 6.86367C13.9391 6.60569 14.0949 6.27747 14.2355 6.02592C14.2405 6.01674 14.2483 6.00938 14.2577 6.0049C14.2671 6.00042 14.2777 5.99904 14.2879 6.00097C15.4313 6.19959 16.5247 6.54632 17.5445 7.01702C17.5535 7.02084 17.5609 7.02728 17.5653 7.03613ZM10.7845 12.7452C10.7971 11.8576 10.1539 11.1231 9.34653 11.1231C8.54573 11.1231 7.90873 11.8511 7.90873 12.7452C7.90873 13.6391 8.55833 14.3672 9.34653 14.3672C10.1475 14.3672 10.7845 13.6391 10.7845 12.7452ZM16.1009 12.7452C16.1135 11.8576 15.4703 11.1231 14.6631 11.1231C13.8621 11.1231 13.2251 11.8511 13.2251 12.7452C13.2251 13.6391 13.8747 14.3672 14.6631 14.3672C15.4703 14.3672 16.1009 13.6391 16.1009 12.7452Z" fill="#5865F2"/>
    </svg>
    