<svg width="281" height="252" viewBox="0 0 281 252" fill="none" xmlns="http://www.w3.org/2000/svg">
    <path d="M140 26L242 128L140 230L38 128L140 26Z" fill="url(#paint0_linear_6813_21211)"
        fill-opacity="0.08" />
    <path
        d="M133.625 32.375L137.875 28.125L138.229 28.4786L140 26.7071L141.771 28.4786L142.125 28.125L146.375 32.375L146.021 32.7286L150.271 36.9786L150.625 36.625L154.875 40.875L154.521 41.2286L158.771 45.4786L159.125 45.125L163.375 49.375L163.021 49.7286L167.271 53.9786L167.625 53.625L171.875 57.875L171.521 58.2286L175.771 62.4786L176.125 62.125L180.375 66.375L180.021 66.7286L184.271 70.9786L184.625 70.625L188.875 74.875L188.521 75.2286L192.771 79.4786L193.125 79.125L197.375 83.375L197.021 83.7286L201.271 87.9786L201.625 87.625L205.875 91.875L205.521 92.2286L209.771 96.4786L210.125 96.125L214.375 100.375L214.021 100.729L218.271 104.979L218.625 104.625L222.875 108.875L222.521 109.229L226.771 113.479L227.125 113.125L231.375 117.375L231.021 117.729L235.271 121.979L235.625 121.625L239.875 125.875L239.521 126.229L241.293 128L239.521 129.771L239.875 130.125L235.625 134.375L235.271 134.021L231.021 138.271L231.375 138.625L227.125 142.875L226.771 142.521L222.521 146.771L222.875 147.125L218.625 151.375L218.271 151.021L214.021 155.271L214.375 155.625L210.125 159.875L209.771 159.521L205.521 163.771L205.875 164.125L201.625 168.375L201.271 168.021L197.021 172.271L197.375 172.625L193.125 176.875L192.771 176.521L188.521 180.771L188.875 181.125L184.625 185.375L184.271 185.021L180.021 189.271L180.375 189.625L176.125 193.875L175.771 193.521L171.521 197.771L171.875 198.125L167.625 202.375L167.271 202.021L163.021 206.271L163.375 206.625L159.125 210.875L158.771 210.521L154.521 214.771L154.875 215.125L150.625 219.375L150.271 219.021L146.021 223.271L146.375 223.625L142.125 227.875L141.771 227.521L140 229.293L138.229 227.521L137.875 227.875L133.625 223.625L133.979 223.271L129.729 219.021L129.375 219.375L125.125 215.125L125.479 214.771L121.229 210.521L120.875 210.875L116.625 206.625L116.979 206.271L112.729 202.021L112.375 202.375L108.125 198.125L108.479 197.771L104.229 193.521L103.875 193.875L99.625 189.625L99.9785 189.271L95.7285 185.021L95.375 185.375L91.125 181.125L91.4785 180.771L87.2285 176.521L86.875 176.875L82.625 172.625L82.9785 172.271L78.7285 168.021L78.375 168.375L74.125 164.125L74.4786 163.771L70.2286 159.521L69.875 159.875L65.625 155.625L65.9786 155.271L61.7286 151.021L61.375 151.375L57.125 147.125L57.4786 146.771L53.2286 142.521L52.875 142.875L48.625 138.625L48.9786 138.271L44.7286 134.021L44.375 134.375L40.125 130.125L40.4786 129.771L38.7071 128L40.4786 126.229L40.125 125.875L44.375 121.625L44.7286 121.979L48.9786 117.729L48.625 117.375L52.875 113.125L53.2286 113.479L57.4786 109.229L57.125 108.875L61.375 104.625L61.7286 104.979L65.9786 100.729L65.625 100.375L69.875 96.125L70.2286 96.4785L74.4786 92.2285L74.125 91.875L78.375 87.625L78.7286 87.9785L82.9786 83.7285L82.625 83.375L86.875 79.125L87.2286 79.4785L91.4786 75.2285L91.125 74.875L95.375 70.625L95.7286 70.9785L99.9786 66.7285L99.625 66.375L103.875 62.125L104.229 62.4786L108.479 58.2286L108.125 57.875L112.375 53.625L112.729 53.9786L116.979 49.7286L116.625 49.375L120.875 45.125L121.229 45.4786L125.479 41.2286L125.125 40.875L129.375 36.625L129.729 36.9786L133.979 32.7286L133.625 32.375Z"
        stroke="white" stroke-opacity="0.05" stroke-dasharray="6 6" />
    <path
        d="M133.25 62.75L137.75 58.25L138.104 58.6036L140 56.7071L141.896 58.6036L142.25 58.25L146.75 62.75L146.396 63.1036L150.896 67.6036L151.25 67.25L155.75 71.75L155.396 72.1036L159.896 76.6036L160.25 76.25L164.75 80.75L164.396 81.1036L168.896 85.6036L169.25 85.25L173.75 89.75L173.396 90.1036L177.896 94.6036L178.25 94.25L182.75 98.75L182.396 99.1036L186.896 103.604L187.25 103.25L191.75 107.75L191.396 108.104L195.896 112.604L196.25 112.25L200.75 116.75L200.396 117.104L204.896 121.604L205.25 121.25L209.75 125.75L209.396 126.104L211.293 128L209.396 129.896L209.75 130.25L205.25 134.75L204.896 134.396L200.396 138.896L200.75 139.25L196.25 143.75L195.896 143.396L191.396 147.896L191.75 148.25L187.25 152.75L186.896 152.396L182.396 156.896L182.75 157.25L178.25 161.75L177.896 161.396L173.396 165.896L173.75 166.25L169.25 170.75L168.896 170.396L164.396 174.896L164.75 175.25L160.25 179.75L159.896 179.396L155.396 183.896L155.75 184.25L151.25 188.75L150.896 188.396L146.396 192.896L146.75 193.25L142.25 197.75L141.896 197.396L140 199.293L138.104 197.396L137.75 197.75L133.25 193.25L133.604 192.896L129.104 188.396L128.75 188.75L124.25 184.25L124.604 183.896L120.104 179.396L119.75 179.75L115.25 175.25L115.604 174.896L111.104 170.396L110.75 170.75L106.25 166.25L106.604 165.896L102.104 161.396L101.75 161.75L97.25 157.25L97.6036 156.896L93.1036 152.396L92.75 152.75L88.25 148.25L88.6036 147.896L84.1036 143.396L83.75 143.75L79.25 139.25L79.6036 138.896L75.1036 134.396L74.75 134.75L70.25 130.25L70.6036 129.896L68.7071 128L70.6036 126.104L70.25 125.75L74.75 121.25L75.1036 121.604L79.6036 117.104L79.25 116.75L83.75 112.25L84.1036 112.604L88.6036 108.104L88.25 107.75L92.75 103.25L93.1036 103.604L97.6036 99.1035L97.25 98.75L101.75 94.25L102.104 94.6035L106.604 90.1035L106.25 89.75L110.75 85.25L111.104 85.6036L115.604 81.1036L115.25 80.75L119.75 76.25L120.104 76.6036L124.604 72.1036L124.25 71.75L128.75 67.25L129.104 67.6036L133.604 63.1036L133.25 62.75Z"
        fill="url(#paint1_linear_6813_21211)" fill-opacity="0.08" stroke="#272727"
        stroke-dasharray="6 6" />
    <path d="M140 86L182 128L140 170L98 128L140 86Z" fill="url(#paint2_linear_6813_21211)"
        fill-opacity="0.08" />
    <path
        d="M133.7 92.3L137.9 88.1L138.254 88.4536L140 86.7071L141.746 88.4536L142.1 88.1L146.3 92.3L145.946 92.6536L150.146 96.8536L150.5 96.5L154.7 100.7L154.346 101.054L158.546 105.254L158.9 104.9L163.1 109.1L162.746 109.454L166.946 113.654L167.3 113.3L171.5 117.5L171.146 117.854L175.346 122.054L175.7 121.7L179.9 125.9L179.546 126.254L181.293 128L179.546 129.746L179.9 130.1L175.7 134.3L175.346 133.946L171.146 138.146L171.5 138.5L167.3 142.7L166.946 142.346L162.746 146.546L163.1 146.9L158.9 151.1L158.546 150.746L154.346 154.946L154.7 155.3L150.5 159.5L150.146 159.146L145.946 163.346L146.3 163.7L142.1 167.9L141.746 167.546L140 169.293L138.254 167.546L137.9 167.9L133.7 163.7L134.054 163.346L129.854 159.146L129.5 159.5L125.3 155.3L125.654 154.946L121.454 150.746L121.1 151.1L116.9 146.9L117.254 146.546L113.054 142.346L112.7 142.7L108.5 138.5L108.854 138.146L104.654 133.946L104.3 134.3L100.1 130.1L100.454 129.746L98.7071 128L100.454 126.254L100.1 125.9L104.3 121.7L104.654 122.054L108.854 117.854L108.5 117.5L112.7 113.3L113.054 113.654L117.254 109.454L116.9 109.1L121.1 104.9L121.454 105.254L125.654 101.054L125.3 100.7L129.5 96.5L129.854 96.8536L134.054 92.6536L133.7 92.3Z"
        stroke="white" stroke-opacity="0.03" stroke-dasharray="6 6" />
    <path d="M90.5 127.5L140 56.5L189 127.5L140 180.5L90.5 127.5Z"
        fill="url(#paint3_linear_6813_21211)" fill-opacity="0.13" />
    <path
        d="M140 56.5L140.412 56.216C140.318 56.0811 140.165 56.0004 140.001 56C139.837 55.9996 139.684 56.0796 139.59 56.214L140 56.5ZM90.5 127.5L90.0898 127.214C89.955 127.408 89.9736 127.669 90.1346 127.841L90.5 127.5ZM189 127.5L189.367 127.839C189.526 127.668 189.544 127.409 189.412 127.216L189 127.5ZM140 180.5L139.635 180.841L140.002 181.235L140.367 180.839L140 180.5ZM139.59 56.214L90.0898 127.214L90.9102 127.786L140.41 56.786L139.59 56.214ZM189.412 127.216L140.412 56.216L139.588 56.784L188.588 127.784L189.412 127.216ZM90.1346 127.841L139.635 180.841L140.365 180.159L90.8654 127.159L90.1346 127.841ZM140.367 180.839L189.367 127.839L188.633 127.161L139.633 180.161L140.367 180.839Z"
        fill="url(#paint4_linear_6813_21211)" fill-opacity="0.4" />
    <path
        d="M107.78 128.28C106.02 128.28 104.587 128.187 103.48 128C102.373 127.8 101.56 127.487 101.04 127.06C100.52 126.62 100.26 126.04 100.26 125.32C100.26 124.613 100.513 124 101.02 123.48C101.54 122.947 102.347 122.533 103.44 122.24C104.547 121.947 105.987 121.8 107.76 121.8C109.56 121.8 111.013 121.947 112.12 122.24C113.227 122.533 114.033 122.947 114.54 123.48C115.06 124 115.32 124.613 115.32 125.32C115.32 126.04 115.06 126.62 114.54 127.06C114.02 127.487 113.2 127.8 112.08 128C110.973 128.187 109.54 128.28 107.78 128.28ZM107.76 127.42C108.733 127.42 109.493 127.36 110.04 127.24C110.587 127.107 110.973 126.94 111.2 126.74C111.427 126.527 111.54 126.28 111.54 126C111.54 125.733 111.427 125.5 111.2 125.3C110.973 125.1 110.587 124.953 110.04 124.86C109.493 124.753 108.733 124.7 107.76 124.7C106.827 124.7 106.093 124.753 105.56 124.86C105.04 124.953 104.673 125.1 104.46 125.3C104.26 125.5 104.16 125.733 104.16 126C104.16 126.28 104.26 126.527 104.46 126.74C104.673 126.94 105.04 127.107 105.56 127.24C106.093 127.36 106.827 127.42 107.76 127.42ZM107.76 135.32C105.88 135.32 104.347 135.153 103.16 134.82C101.987 134.473 101.127 134.007 100.58 133.42C100.047 132.833 99.78 132.173 99.78 131.44C99.78 130.56 100.067 129.873 100.64 129.38C101.213 128.887 102.087 128.54 103.26 128.34C104.447 128.127 105.947 128.02 107.76 128.02C109.6 128.02 111.107 128.127 112.28 128.34C113.467 128.54 114.347 128.887 114.92 129.38C115.507 129.873 115.8 130.56 115.8 131.44C115.8 132.173 115.527 132.833 114.98 133.42C114.433 134.007 113.567 134.473 112.38 134.82C111.207 135.153 109.667 135.32 107.76 135.32ZM107.78 132.34C108.847 132.34 109.687 132.28 110.3 132.16C110.927 132.04 111.367 131.873 111.62 131.66C111.887 131.433 112.02 131.18 112.02 130.9C112.02 130.58 111.887 130.313 111.62 130.1C111.367 129.873 110.927 129.707 110.3 129.6C109.687 129.48 108.847 129.42 107.78 129.42C106.713 129.42 105.88 129.48 105.28 129.6C104.693 129.707 104.28 129.873 104.04 130.1C103.8 130.327 103.68 130.593 103.68 130.9C103.68 131.18 103.8 131.433 104.04 131.66C104.28 131.873 104.693 132.04 105.28 132.16C105.88 132.28 106.713 132.34 107.78 132.34ZM122.199 130.98V127.82H124.139C125.245 127.82 126.039 127.66 126.519 127.34C126.999 127.007 127.239 126.533 127.239 125.92C127.239 125.24 126.992 124.753 126.499 124.46C126.005 124.153 125.305 124 124.399 124C123.719 124 123.185 124.073 122.799 124.22C122.412 124.367 122.125 124.553 121.939 124.78C121.765 125.007 121.665 125.247 121.639 125.5H117.999C117.972 125.167 118.012 124.8 118.119 124.4C118.239 123.987 118.445 123.573 118.739 123.16C119.032 122.747 119.425 122.367 119.919 122.02C120.425 121.66 121.045 121.38 121.779 121.18C122.525 120.967 123.405 120.86 124.419 120.86C125.632 120.86 126.659 120.987 127.499 121.24C128.352 121.48 129.039 121.82 129.559 122.26C130.092 122.7 130.479 123.22 130.719 123.82C130.959 124.42 131.079 125.073 131.079 125.78C131.079 126.74 130.839 127.547 130.359 128.2C129.879 128.853 129.232 129.347 128.419 129.68C127.619 130.013 126.732 130.193 125.759 130.22V130.98H122.199ZM122.079 135V132.34H126.139V135H122.079ZM137.601 130.98V127.82H139.541C140.648 127.82 141.441 127.66 141.921 127.34C142.401 127.007 142.641 126.533 142.641 125.92C142.641 125.24 142.394 124.753 141.901 124.46C141.408 124.153 140.708 124 139.801 124C139.121 124 138.588 124.073 138.201 124.22C137.814 124.367 137.528 124.553 137.341 124.78C137.168 125.007 137.068 125.247 137.041 125.5H133.401C133.374 125.167 133.414 124.8 133.521 124.4C133.641 123.987 133.848 123.573 134.141 123.16C134.434 122.747 134.828 122.367 135.321 122.02C135.828 121.66 136.448 121.38 137.181 121.18C137.928 120.967 138.808 120.86 139.821 120.86C141.034 120.86 142.061 120.987 142.901 121.24C143.754 121.48 144.441 121.82 144.961 122.26C145.494 122.7 145.881 123.22 146.121 123.82C146.361 124.42 146.481 125.073 146.481 125.78C146.481 126.74 146.241 127.547 145.761 128.2C145.281 128.853 144.634 129.347 143.821 129.68C143.021 130.013 142.134 130.193 141.161 130.22V130.98H137.601ZM137.481 135V132.34H141.541V135H137.481ZM153.003 130.98V127.82H154.943C156.05 127.82 156.843 127.66 157.323 127.34C157.803 127.007 158.043 126.533 158.043 125.92C158.043 125.24 157.797 124.753 157.303 124.46C156.81 124.153 156.11 124 155.203 124C154.523 124 153.99 124.073 153.603 124.22C153.217 124.367 152.93 124.553 152.743 124.78C152.57 125.007 152.47 125.247 152.443 125.5H148.803C148.777 125.167 148.817 124.8 148.923 124.4C149.043 123.987 149.25 123.573 149.543 123.16C149.837 122.747 150.23 122.367 150.723 122.02C151.23 121.66 151.85 121.38 152.583 121.18C153.33 120.967 154.21 120.86 155.223 120.86C156.437 120.86 157.463 120.987 158.303 121.24C159.157 121.48 159.843 121.82 160.363 122.26C160.897 122.7 161.283 123.22 161.523 123.82C161.763 124.42 161.883 125.073 161.883 125.78C161.883 126.74 161.643 127.547 161.163 128.2C160.683 128.853 160.037 129.347 159.223 129.68C158.423 130.013 157.537 130.193 156.563 130.22V130.98H153.003ZM152.883 135V132.34H156.943V135H152.883ZM172.046 128.28C170.286 128.28 168.852 128.187 167.746 128C166.639 127.8 165.826 127.487 165.306 127.06C164.786 126.62 164.526 126.04 164.526 125.32C164.526 124.613 164.779 124 165.286 123.48C165.806 122.947 166.612 122.533 167.706 122.24C168.812 121.947 170.252 121.8 172.026 121.8C173.826 121.8 175.279 121.947 176.386 122.24C177.492 122.533 178.299 122.947 178.806 123.48C179.326 124 179.586 124.613 179.586 125.32C179.586 126.04 179.326 126.62 178.806 127.06C178.286 127.487 177.466 127.8 176.346 128C175.239 128.187 173.806 128.28 172.046 128.28ZM172.026 127.42C172.999 127.42 173.759 127.36 174.306 127.24C174.852 127.107 175.239 126.94 175.466 126.74C175.692 126.527 175.806 126.28 175.806 126C175.806 125.733 175.692 125.5 175.466 125.3C175.239 125.1 174.852 124.953 174.306 124.86C173.759 124.753 172.999 124.7 172.026 124.7C171.092 124.7 170.359 124.753 169.826 124.86C169.306 124.953 168.939 125.1 168.726 125.3C168.526 125.5 168.426 125.733 168.426 126C168.426 126.28 168.526 126.527 168.726 126.74C168.939 126.94 169.306 127.107 169.826 127.24C170.359 127.36 171.092 127.42 172.026 127.42ZM172.026 135.32C170.146 135.32 168.612 135.153 167.426 134.82C166.252 134.473 165.392 134.007 164.846 133.42C164.312 132.833 164.046 132.173 164.046 131.44C164.046 130.56 164.332 129.873 164.906 129.38C165.479 128.887 166.352 128.54 167.526 128.34C168.712 128.127 170.212 128.02 172.026 128.02C173.866 128.02 175.372 128.127 176.546 128.34C177.732 128.54 178.612 128.887 179.186 129.38C179.772 129.873 180.066 130.56 180.066 131.44C180.066 132.173 179.792 132.833 179.246 133.42C178.699 134.007 177.832 134.473 176.646 134.82C175.472 135.153 173.932 135.32 172.026 135.32ZM172.046 132.34C173.112 132.34 173.952 132.28 174.566 132.16C175.192 132.04 175.632 131.873 175.886 131.66C176.152 131.433 176.286 131.18 176.286 130.9C176.286 130.58 176.152 130.313 175.886 130.1C175.632 129.873 175.192 129.707 174.566 129.6C173.952 129.48 173.112 129.42 172.046 129.42C170.979 129.42 170.146 129.48 169.546 129.6C168.959 129.707 168.546 129.873 168.306 130.1C168.066 130.327 167.946 130.593 167.946 130.9C167.946 131.18 168.066 131.433 168.306 131.66C168.546 131.873 168.959 132.04 169.546 132.16C170.146 132.28 170.979 132.34 172.046 132.34Z"
        fill="url(#paint5_linear_6813_21211)" />
    <path
        d="M118.136 16V4.8H119.816V16H118.136ZM125.029 16.14C124.394 16.14 123.815 15.9813 123.293 15.664C122.77 15.3467 122.355 14.9173 122.047 14.376C121.748 13.8347 121.599 13.228 121.599 12.556C121.599 11.884 121.748 11.2773 122.047 10.736C122.355 10.1947 122.77 9.76533 123.293 9.448C123.815 9.13067 124.394 8.972 125.029 8.972C125.467 8.972 125.892 9.06067 126.303 9.238C126.713 9.406 127.077 9.63467 127.395 9.924V6.2L128.011 6.046V16H127.395V15.174C126.769 15.818 125.981 16.14 125.029 16.14ZM125.029 15.552C125.542 15.552 126.004 15.4493 126.415 15.244C126.835 15.0293 127.161 14.7493 127.395 14.404V10.708C127.152 10.3813 126.821 10.1107 126.401 9.896C125.981 9.672 125.523 9.56 125.029 9.56C124.506 9.56 124.03 9.69533 123.601 9.966C123.181 10.2273 122.845 10.5867 122.593 11.044C122.35 11.492 122.229 11.996 122.229 12.556C122.229 13.116 122.35 13.6247 122.593 14.082C122.845 14.53 123.181 14.8893 123.601 15.16C124.03 15.4213 124.506 15.552 125.029 15.552ZM133.027 16.14C132.392 16.14 131.813 15.9813 131.291 15.664C130.768 15.3467 130.353 14.9173 130.045 14.376C129.746 13.8347 129.597 13.228 129.597 12.556C129.597 11.884 129.741 11.2773 130.031 10.736C130.329 10.1947 130.735 9.76533 131.249 9.448C131.762 9.13067 132.336 8.972 132.971 8.972C133.568 8.972 134.1 9.13067 134.567 9.448C135.033 9.76533 135.402 10.19 135.673 10.722C135.953 11.2447 136.093 11.828 136.093 12.472V12.724H130.227C130.255 13.256 130.395 13.7367 130.647 14.166C130.899 14.586 131.23 14.922 131.641 15.174C132.061 15.426 132.523 15.552 133.027 15.552C133.419 15.552 133.806 15.4913 134.189 15.37C134.571 15.2393 134.898 15.0667 135.169 14.852L135.533 15.342C135.159 15.6127 134.763 15.8133 134.343 15.944C133.923 16.0747 133.484 16.14 133.027 16.14ZM130.255 12.136H135.435C135.388 11.66 135.253 11.2307 135.029 10.848C134.805 10.456 134.515 10.1433 134.161 9.91C133.806 9.67667 133.405 9.56 132.957 9.56C132.481 9.56 132.047 9.672 131.655 9.896C131.272 10.12 130.955 10.428 130.703 10.82C130.46 11.2027 130.311 11.6413 130.255 12.136ZM137.602 16V9.112H138.218V10.078C138.778 9.34067 139.539 8.972 140.5 8.972C141.023 8.972 141.48 9.084 141.872 9.308C142.274 9.52267 142.582 9.83067 142.796 10.232C143.02 10.624 143.132 11.0813 143.132 11.604V16H142.516V11.772C142.516 11.0813 142.325 10.54 141.942 10.148C141.56 9.74667 141.032 9.546 140.36 9.546C139.894 9.546 139.474 9.658 139.1 9.882C138.727 10.0967 138.433 10.4093 138.218 10.82V16H137.602ZM147.161 16.14C146.638 16.14 146.237 16.0093 145.957 15.748C145.677 15.4867 145.537 15.1227 145.537 14.656V9.672H144.025V9.112H145.537V7.376L146.153 7.18V9.112H148.281V9.672H146.153V14.446C146.153 14.838 146.237 15.1227 146.405 15.3C146.582 15.468 146.872 15.552 147.273 15.552C147.488 15.552 147.67 15.538 147.819 15.51C147.968 15.4727 148.122 15.4213 148.281 15.356V15.958C148.104 16.0233 147.922 16.07 147.735 16.098C147.548 16.126 147.357 16.14 147.161 16.14ZM149.47 16V9.112H150.086V16H149.47ZM149.778 7.558C149.628 7.558 149.502 7.50667 149.4 7.404C149.297 7.30133 149.246 7.17533 149.246 7.026C149.246 6.87667 149.297 6.75067 149.4 6.648C149.502 6.54533 149.628 6.494 149.778 6.494C149.936 6.494 150.062 6.54533 150.156 6.648C150.258 6.75067 150.31 6.87667 150.31 7.026C150.31 7.17533 150.258 7.30133 150.156 7.404C150.062 7.50667 149.936 7.558 149.778 7.558ZM154.407 16.14C153.885 16.14 153.483 16.0093 153.203 15.748C152.923 15.4867 152.783 15.1227 152.783 14.656V9.672H151.271V9.112H152.783V7.376L153.399 7.18V9.112H155.527V9.672H153.399V14.446C153.399 14.838 153.483 15.1227 153.651 15.3C153.829 15.468 154.118 15.552 154.519 15.552C154.734 15.552 154.916 15.538 155.065 15.51C155.215 15.4727 155.369 15.4213 155.527 15.356V15.958C155.35 16.0233 155.168 16.07 154.981 16.098C154.795 16.126 154.603 16.14 154.407 16.14ZM157.087 18.968C156.984 18.968 156.882 18.9587 156.779 18.94C156.676 18.9307 156.588 18.9213 156.513 18.912V18.296C156.662 18.3333 156.844 18.352 157.059 18.352C157.647 18.352 158.109 17.9787 158.445 17.232L159.005 15.972L156.135 9.112H156.835L159.341 15.23L161.959 9.112H162.645L159.061 17.288C158.884 17.6893 158.697 18.0113 158.501 18.254C158.314 18.506 158.104 18.688 157.871 18.8C157.647 18.912 157.386 18.968 157.087 18.968Z"
        fill="url(#paint6_linear_6813_21211)" />
    <path
        d="M3.90201 131L1.45401 119.8H3.18201L4.92601 128.36L7.45401 119.8H9.05401L11.582 128.344L13.342 119.8H14.99L12.542 131H10.814L8.23801 122.2L5.64601 131H3.90201ZM19.5493 131.14C18.9146 131.14 18.3359 130.981 17.8133 130.664C17.2906 130.347 16.8753 129.917 16.5673 129.376C16.2686 128.835 16.1193 128.228 16.1193 127.556C16.1193 126.884 16.2639 126.277 16.5533 125.736C16.8519 125.195 17.2579 124.765 17.7713 124.448C18.2846 124.131 18.8586 123.972 19.4933 123.972C20.0906 123.972 20.6226 124.131 21.0893 124.448C21.5559 124.765 21.9246 125.19 22.1953 125.722C22.4753 126.245 22.6153 126.828 22.6153 127.472V127.724H16.7493C16.7773 128.256 16.9173 128.737 17.1693 129.166C17.4213 129.586 17.7526 129.922 18.1633 130.174C18.5833 130.426 19.0453 130.552 19.5493 130.552C19.9413 130.552 20.3286 130.491 20.7113 130.37C21.0939 130.239 21.4206 130.067 21.6913 129.852L22.0553 130.342C21.6819 130.613 21.2853 130.813 20.8653 130.944C20.4453 131.075 20.0066 131.14 19.5493 131.14ZM16.7773 127.136H21.9573C21.9106 126.66 21.7753 126.231 21.5513 125.848C21.3273 125.456 21.0379 125.143 20.6833 124.91C20.3286 124.677 19.9273 124.56 19.4793 124.56C19.0033 124.56 18.5693 124.672 18.1773 124.896C17.7946 125.12 17.4773 125.428 17.2253 125.82C16.9826 126.203 16.8333 126.641 16.7773 127.136ZM25.9918 131.14C25.4878 131.14 25.0444 131.056 24.6618 130.888C24.2791 130.711 23.9804 130.468 23.7658 130.16C23.5511 129.843 23.4438 129.479 23.4438 129.068C23.4438 128.433 23.6911 127.925 24.1858 127.542C24.6804 127.15 25.3384 126.954 26.1598 126.954C26.9811 126.954 27.7091 127.155 28.3438 127.556V126.408C28.3438 125.773 28.1711 125.302 27.8258 124.994C27.4804 124.677 26.9858 124.518 26.3418 124.518C26.0244 124.518 25.6931 124.569 25.3478 124.672C25.0024 124.775 24.6058 124.943 24.1578 125.176L23.8918 124.63C24.3304 124.406 24.7504 124.243 25.1518 124.14C25.5531 124.028 25.9544 123.972 26.3558 123.972C27.1864 123.972 27.8258 124.173 28.2738 124.574C28.7311 124.966 28.9598 125.54 28.9598 126.296V131H28.3438V130.23C28.0264 130.519 27.6718 130.743 27.2798 130.902C26.8878 131.061 26.4584 131.14 25.9918 131.14ZM24.0598 129.054C24.0598 129.502 24.2464 129.871 24.6198 130.16C24.9931 130.449 25.4644 130.594 26.0338 130.594C26.5284 130.594 26.9624 130.51 27.3358 130.342C27.7091 130.165 28.0451 129.917 28.3438 129.6V128.172C28.0358 127.939 27.6998 127.766 27.3358 127.654C26.9718 127.542 26.5564 127.486 26.0898 127.486C25.4831 127.486 24.9931 127.631 24.6198 127.92C24.2464 128.209 24.0598 128.587 24.0598 129.054ZM30.8377 131V121.2L31.4537 121.046V131H30.8377ZM35.7754 131.14C35.2527 131.14 34.8514 131.009 34.5714 130.748C34.2914 130.487 34.1514 130.123 34.1514 129.656V124.672H32.6394V124.112H34.1514V122.376L34.7674 122.18V124.112H36.8954V124.672H34.7674V129.446C34.7674 129.838 34.8514 130.123 35.0194 130.3C35.1967 130.468 35.486 130.552 35.8874 130.552C36.102 130.552 36.284 130.538 36.4334 130.51C36.5827 130.473 36.7367 130.421 36.8954 130.356V130.958C36.718 131.023 36.536 131.07 36.3494 131.098C36.1627 131.126 35.9714 131.14 35.7754 131.14ZM38.0838 131V121.2L38.6998 121.046V125.078C39.2598 124.341 40.0205 123.972 40.9818 123.972C41.5045 123.972 41.9618 124.084 42.3538 124.308C42.7552 124.523 43.0632 124.831 43.2778 125.232C43.5018 125.624 43.6138 126.081 43.6138 126.604V131H42.9978V126.772C42.9978 126.081 42.8065 125.54 42.4238 125.148C42.0412 124.747 41.5138 124.546 40.8418 124.546C40.3752 124.546 39.9552 124.658 39.5818 124.882C39.2085 125.097 38.9145 125.409 38.6998 125.82V131H38.0838Z"
        fill="url(#paint7_linear_6813_21211)" />
    <path
        d="M248.178 130.827C247.282 130.827 246.418 130.651 245.586 130.299C244.754 129.947 244.018 129.451 243.378 128.811L244.402 127.627C245.01 128.224 245.629 128.667 246.258 128.955C246.898 129.243 247.565 129.387 248.258 129.387C248.802 129.387 249.277 129.312 249.682 129.163C250.098 129.003 250.418 128.779 250.642 128.491C250.866 128.203 250.978 127.877 250.978 127.515C250.978 127.013 250.802 126.629 250.45 126.363C250.098 126.096 249.517 125.893 248.706 125.755L246.834 125.451C245.81 125.269 245.042 124.939 244.53 124.459C244.029 123.979 243.778 123.339 243.778 122.539C243.778 121.899 243.949 121.339 244.29 120.859C244.631 120.368 245.111 119.989 245.73 119.723C246.359 119.456 247.085 119.323 247.906 119.323C248.717 119.323 249.511 119.456 250.29 119.723C251.079 119.979 251.789 120.352 252.418 120.843L251.49 122.123C250.285 121.205 249.063 120.747 247.826 120.747C247.335 120.747 246.909 120.816 246.546 120.955C246.183 121.093 245.901 121.291 245.698 121.547C245.495 121.792 245.394 122.08 245.394 122.411C245.394 122.869 245.549 123.221 245.858 123.467C246.167 123.701 246.679 123.872 247.394 123.979L249.202 124.283C250.386 124.475 251.255 124.821 251.81 125.323C252.365 125.824 252.642 126.512 252.642 127.387C252.642 128.069 252.455 128.672 252.082 129.195C251.709 129.707 251.186 130.107 250.514 130.395C249.842 130.683 249.063 130.827 248.178 130.827ZM257.123 130.807C256.488 130.807 255.909 130.648 255.387 130.331C254.864 130.013 254.449 129.584 254.141 129.043C253.842 128.492 253.693 127.885 253.693 127.223C253.693 126.551 253.842 125.944 254.141 125.403C254.449 124.861 254.864 124.432 255.387 124.115C255.909 123.797 256.488 123.639 257.123 123.639C257.767 123.639 258.345 123.797 258.859 124.115C259.381 124.432 259.792 124.861 260.091 125.403C260.399 125.944 260.553 126.551 260.553 127.223C260.553 127.885 260.399 128.492 260.091 129.043C259.792 129.584 259.381 130.013 258.859 130.331C258.345 130.648 257.767 130.807 257.123 130.807ZM257.123 130.219C257.645 130.219 258.117 130.088 258.537 129.827C258.966 129.556 259.302 129.197 259.545 128.749C259.797 128.291 259.923 127.783 259.923 127.223C259.923 126.663 259.797 126.159 259.545 125.711C259.302 125.253 258.966 124.894 258.537 124.633C258.117 124.362 257.645 124.227 257.123 124.227C256.6 124.227 256.124 124.362 255.695 124.633C255.275 124.894 254.939 125.253 254.687 125.711C254.444 126.159 254.323 126.663 254.323 127.223C254.323 127.783 254.444 128.291 254.687 128.749C254.939 129.197 255.275 129.556 255.695 129.827C256.124 130.088 256.6 130.219 257.123 130.219ZM265.244 130.807C264.609 130.807 264.03 130.648 263.508 130.331C262.985 130.013 262.57 129.584 262.262 129.043C261.963 128.501 261.814 127.895 261.814 127.223C261.814 126.551 261.963 125.944 262.262 125.403C262.57 124.861 262.985 124.432 263.508 124.115C264.03 123.797 264.609 123.639 265.244 123.639C265.71 123.639 266.177 123.732 266.644 123.919C267.12 124.105 267.535 124.362 267.89 124.689L267.47 125.193C267.171 124.894 266.826 124.661 266.434 124.493C266.051 124.315 265.654 124.227 265.244 124.227C264.721 124.227 264.245 124.362 263.816 124.633C263.396 124.894 263.06 125.253 262.808 125.711C262.565 126.159 262.444 126.663 262.444 127.223C262.444 127.783 262.565 128.291 262.808 128.749C263.06 129.197 263.396 129.556 263.816 129.827C264.245 130.088 264.721 130.219 265.244 130.219C265.654 130.219 266.051 130.13 266.434 129.953C266.826 129.775 267.171 129.542 267.47 129.253L267.89 129.757C267.535 130.083 267.12 130.34 266.644 130.527C266.177 130.713 265.71 130.807 265.244 130.807ZM269.19 130.667V123.779H269.806V130.667H269.19ZM269.498 122.225C269.349 122.225 269.223 122.173 269.12 122.071C269.018 121.968 268.966 121.842 268.966 121.693C268.966 121.543 269.018 121.417 269.12 121.315C269.223 121.212 269.349 121.161 269.498 121.161C269.657 121.161 269.783 121.212 269.876 121.315C269.979 121.417 270.03 121.543 270.03 121.693C270.03 121.842 269.979 121.968 269.876 122.071C269.783 122.173 269.657 122.225 269.498 122.225ZM273.778 130.807C273.274 130.807 272.831 130.723 272.448 130.555C272.065 130.377 271.767 130.135 271.552 129.827C271.337 129.509 271.23 129.145 271.23 128.735C271.23 128.1 271.477 127.591 271.972 127.209C272.467 126.817 273.125 126.621 273.946 126.621C274.767 126.621 275.495 126.821 276.13 127.223V126.075C276.13 125.44 275.957 124.969 275.612 124.661C275.267 124.343 274.772 124.185 274.128 124.185C273.811 124.185 273.479 124.236 273.134 124.339C272.789 124.441 272.392 124.609 271.944 124.843L271.678 124.297C272.117 124.073 272.537 123.909 272.938 123.807C273.339 123.695 273.741 123.639 274.142 123.639C274.973 123.639 275.612 123.839 276.06 124.241C276.517 124.633 276.746 125.207 276.746 125.963V130.667H276.13V129.897C275.813 130.186 275.458 130.41 275.066 130.569C274.674 130.727 274.245 130.807 273.778 130.807ZM271.846 128.721C271.846 129.169 272.033 129.537 272.406 129.827C272.779 130.116 273.251 130.261 273.82 130.261C274.315 130.261 274.749 130.177 275.122 130.009C275.495 129.831 275.831 129.584 276.13 129.267V127.839C275.822 127.605 275.486 127.433 275.122 127.321C274.758 127.209 274.343 127.153 273.876 127.153C273.269 127.153 272.779 127.297 272.406 127.587C272.033 127.876 271.846 128.254 271.846 128.721ZM278.624 130.667V120.867L279.24 120.713V130.667H278.624Z"
        fill="url(#paint8_linear_6813_21211)" />
    <path
        d="M117.136 246.667V235.467H125.392V236.939H118.816V240.299H123.136V241.723H118.816V245.195H125.456V246.667H117.136ZM126.999 246.667V239.779H127.615V240.745C128.175 240.007 128.936 239.639 129.897 239.639C130.42 239.639 130.877 239.751 131.269 239.975C131.67 240.189 131.978 240.497 132.193 240.899C132.417 241.291 132.529 241.748 132.529 242.271V246.667H131.913V242.439C131.913 241.748 131.722 241.207 131.339 240.815C130.956 240.413 130.429 240.213 129.757 240.213C129.29 240.213 128.87 240.325 128.497 240.549C128.124 240.763 127.83 241.076 127.615 241.487V246.667H126.999ZM137.727 249.663C137.27 249.663 136.817 249.597 136.369 249.467C135.921 249.336 135.51 249.154 135.137 248.921L135.487 248.417C135.898 248.65 136.271 248.818 136.607 248.921C136.952 249.023 137.312 249.075 137.685 249.075C138.404 249.075 138.95 248.902 139.323 248.557C139.696 248.211 139.883 247.698 139.883 247.017V245.841C139.258 246.485 138.469 246.807 137.517 246.807C136.882 246.807 136.304 246.648 135.781 246.331C135.258 246.013 134.843 245.584 134.535 245.043C134.236 244.501 134.087 243.895 134.087 243.223C134.087 242.551 134.236 241.944 134.535 241.403C134.843 240.861 135.258 240.432 135.781 240.115C136.304 239.797 136.882 239.639 137.517 239.639C137.956 239.639 138.38 239.727 138.791 239.905C139.202 240.073 139.566 240.301 139.883 240.591V239.779H140.499V246.989C140.499 247.866 140.256 248.529 139.771 248.977C139.295 249.434 138.614 249.663 137.727 249.663ZM137.517 246.219C138.03 246.219 138.492 246.116 138.903 245.911C139.323 245.696 139.65 245.416 139.883 245.071V241.375C139.64 241.048 139.309 240.777 138.889 240.563C138.469 240.339 138.012 240.227 137.517 240.227C136.994 240.227 136.518 240.362 136.089 240.633C135.669 240.894 135.333 241.253 135.081 241.711C134.838 242.159 134.717 242.663 134.717 243.223C134.717 243.783 134.838 244.291 135.081 244.749C135.333 245.197 135.669 245.556 136.089 245.827C136.518 246.088 136.994 246.219 137.517 246.219ZM144.479 246.807C143.975 246.807 143.532 246.723 143.149 246.555C142.766 246.377 142.468 246.135 142.253 245.827C142.038 245.509 141.931 245.145 141.931 244.735C141.931 244.1 142.178 243.591 142.673 243.209C143.168 242.817 143.826 242.621 144.647 242.621C145.468 242.621 146.196 242.821 146.831 243.223V242.075C146.831 241.44 146.658 240.969 146.313 240.661C145.968 240.343 145.473 240.185 144.829 240.185C144.512 240.185 144.18 240.236 143.835 240.339C143.49 240.441 143.093 240.609 142.645 240.843L142.379 240.297C142.818 240.073 143.238 239.909 143.639 239.807C144.04 239.695 144.442 239.639 144.843 239.639C145.674 239.639 146.313 239.839 146.761 240.241C147.218 240.633 147.447 241.207 147.447 241.963V246.667H146.831V245.897C146.514 246.186 146.159 246.41 145.767 246.569C145.375 246.727 144.946 246.807 144.479 246.807ZM142.547 244.721C142.547 245.169 142.734 245.537 143.107 245.827C143.48 246.116 143.952 246.261 144.521 246.261C145.016 246.261 145.45 246.177 145.823 246.009C146.196 245.831 146.532 245.584 146.831 245.267V243.839C146.523 243.605 146.187 243.433 145.823 243.321C145.459 243.209 145.044 243.153 144.577 243.153C143.97 243.153 143.48 243.297 143.107 243.587C142.734 243.876 142.547 244.254 142.547 244.721ZM152.643 249.663C152.186 249.663 151.733 249.597 151.285 249.467C150.837 249.336 150.426 249.154 150.053 248.921L150.403 248.417C150.814 248.65 151.187 248.818 151.523 248.921C151.868 249.023 152.228 249.075 152.601 249.075C153.32 249.075 153.866 248.902 154.239 248.557C154.612 248.211 154.799 247.698 154.799 247.017V245.841C154.174 246.485 153.385 246.807 152.433 246.807C151.798 246.807 151.22 246.648 150.697 246.331C150.174 246.013 149.759 245.584 149.451 245.043C149.152 244.501 149.003 243.895 149.003 243.223C149.003 242.551 149.152 241.944 149.451 241.403C149.759 240.861 150.174 240.432 150.697 240.115C151.22 239.797 151.798 239.639 152.433 239.639C152.872 239.639 153.296 239.727 153.707 239.905C154.118 240.073 154.482 240.301 154.799 240.591V239.779H155.415V246.989C155.415 247.866 155.172 248.529 154.687 248.977C154.211 249.434 153.53 249.663 152.643 249.663ZM152.433 246.219C152.946 246.219 153.408 246.116 153.819 245.911C154.239 245.696 154.566 245.416 154.799 245.071V241.375C154.556 241.048 154.225 240.777 153.805 240.563C153.385 240.339 152.928 240.227 152.433 240.227C151.91 240.227 151.434 240.362 151.005 240.633C150.585 240.894 150.249 241.253 149.997 241.711C149.754 242.159 149.633 242.663 149.633 243.223C149.633 243.783 149.754 244.291 149.997 244.749C150.249 245.197 150.585 245.556 151.005 245.827C151.434 246.088 151.91 246.219 152.433 246.219ZM160.431 246.807C159.796 246.807 159.218 246.648 158.695 246.331C158.172 246.013 157.757 245.584 157.449 245.043C157.15 244.501 157.001 243.895 157.001 243.223C157.001 242.551 157.146 241.944 157.435 241.403C157.734 240.861 158.14 240.432 158.653 240.115C159.166 239.797 159.74 239.639 160.375 239.639C160.972 239.639 161.504 239.797 161.971 240.115C162.438 240.432 162.806 240.857 163.077 241.389C163.357 241.911 163.497 242.495 163.497 243.139V243.391H157.631C157.659 243.923 157.799 244.403 158.051 244.833C158.303 245.253 158.634 245.589 159.045 245.841C159.465 246.093 159.927 246.219 160.431 246.219C160.823 246.219 161.21 246.158 161.593 246.037C161.976 245.906 162.302 245.733 162.573 245.519L162.937 246.009C162.564 246.279 162.167 246.48 161.747 246.611C161.327 246.741 160.888 246.807 160.431 246.807ZM157.659 242.803H162.839C162.792 242.327 162.657 241.897 162.433 241.515C162.209 241.123 161.92 240.81 161.565 240.577C161.21 240.343 160.809 240.227 160.361 240.227C159.885 240.227 159.451 240.339 159.059 240.563C158.676 240.787 158.359 241.095 158.107 241.487C157.864 241.869 157.715 242.308 157.659 242.803Z"
        fill="url(#paint9_linear_6813_21211)" />
    <defs>
        <linearGradient id="paint0_linear_6813_21211" x1="140" y1="26" x2="140" y2="230"
            gradientUnits="userSpaceOnUse">
            <stop stop-color="white" />
            <stop offset="1" />
        </linearGradient>
        <linearGradient id="paint1_linear_6813_21211" x1="140" y1="56" x2="140" y2="200"
            gradientUnits="userSpaceOnUse">
            <stop stop-color="white" />
            <stop offset="1" />
        </linearGradient>
        <linearGradient id="paint2_linear_6813_21211" x1="140" y1="86" x2="140" y2="170"
            gradientUnits="userSpaceOnUse">
            <stop stop-color="white" />
            <stop offset="1" />
        </linearGradient>
        <linearGradient id="paint3_linear_6813_21211" x1="90.5" y1="118.5" x2="181" y2="118.5"
            gradientUnits="userSpaceOnUse">
            <stop stop-color="#FFEAB5" />
            <stop offset="0.26" stop-color="#F2A85D" />
            <stop offset="0.5" stop-color="#8052E4" />
            <stop offset="0.745" stop-color="#2E85EA" />
            <stop offset="1" stop-color="#68EFAE" />
        </linearGradient>
        <linearGradient id="paint4_linear_6813_21211" x1="90.5" y1="118.5" x2="189" y2="118.5"
            gradientUnits="userSpaceOnUse">
            <stop stop-color="#FFEAB5" />
            <stop offset="0.26" stop-color="#F2A85D" />
            <stop offset="0.5" stop-color="#8052E4" />
            <stop offset="0.745" stop-color="#2E85EA" />
            <stop offset="1" stop-color="#68EFAE" />
        </linearGradient>
        <linearGradient id="paint5_linear_6813_21211" x1="99" y1="128" x2="181" y2="128"
            gradientUnits="userSpaceOnUse">
            <stop stop-color="#FFEAB5" />
            <stop offset="0.26" stop-color="#F2A85D" />
            <stop offset="0.5" stop-color="#8052E4" />
            <stop offset="0.745" stop-color="#2E85EA" />
            <stop offset="1" stop-color="#68EFAE" />
        </linearGradient>
        <linearGradient id="paint6_linear_6813_21211" x1="117" y1="10.5" x2="163" y2="10.5"
            gradientUnits="userSpaceOnUse">
            <stop stop-color="#FFEAB5" />
            <stop offset="0.26" stop-color="#F2A85D" />
            <stop offset="0.5" stop-color="#8052E4" />
            <stop offset="0.745" stop-color="#2E85EA" />
            <stop offset="1" stop-color="#68EFAE" />
        </linearGradient>
        <linearGradient id="paint7_linear_6813_21211" x1="0.75" y1="125.5" x2="44.75" y2="125.5"
            gradientUnits="userSpaceOnUse">
            <stop stop-color="#FFEAB5" />
            <stop offset="0.26" stop-color="#F2A85D" />
            <stop offset="0.5" stop-color="#8052E4" />
            <stop offset="0.745" stop-color="#2E85EA" />
            <stop offset="1" stop-color="#68EFAE" />
        </linearGradient>
        <linearGradient id="paint8_linear_6813_21211" x1="243.25" y1="125.167" x2="280.25"
            y2="125.167" gradientUnits="userSpaceOnUse">
            <stop stop-color="#FFEAB5" />
            <stop offset="0.26" stop-color="#F2A85D" />
            <stop offset="0.5" stop-color="#8052E4" />
            <stop offset="0.745" stop-color="#2E85EA" />
            <stop offset="1" stop-color="#68EFAE" />
        </linearGradient>
        <linearGradient id="paint9_linear_6813_21211" x1="116" y1="241.167" x2="165" y2="241.167"
            gradientUnits="userSpaceOnUse">
            <stop stop-color="#FFEAB5" />
            <stop offset="0.26" stop-color="#F2A85D" />
            <stop offset="0.5" stop-color="#8052E4" />
            <stop offset="0.745" stop-color="#2E85EA" />
            <stop offset="1" stop-color="#68EFAE" />
        </linearGradient>
    </defs>
</svg>
    