<svg width="280" height="252" viewBox="0 0 280 252" fill="none" xmlns="http://www.w3.org/2000/svg">
    <path d="M139.25 26L241.25 128L139.25 230L37.25 128L139.25 26Z"
        fill="url(#paint0_linear_6931_31041)" fill-opacity="0.08" />
    <path
        d="M132.875 32.375L137.125 28.125L137.479 28.4786L139.25 26.7071L141.021 28.4786L141.375 28.125L145.625 32.375L145.271 32.7286L149.521 36.9786L149.875 36.625L154.125 40.875L153.771 41.2286L158.021 45.4786L158.375 45.125L162.625 49.375L162.271 49.7286L166.521 53.9786L166.875 53.625L171.125 57.875L170.771 58.2286L175.021 62.4786L175.375 62.125L179.625 66.375L179.271 66.7286L183.521 70.9786L183.875 70.625L188.125 74.875L187.771 75.2286L192.021 79.4786L192.375 79.125L196.625 83.375L196.271 83.7286L200.521 87.9786L200.875 87.625L205.125 91.875L204.771 92.2286L209.021 96.4786L209.375 96.125L213.625 100.375L213.271 100.729L217.521 104.979L217.875 104.625L222.125 108.875L221.771 109.229L226.021 113.479L226.375 113.125L230.625 117.375L230.271 117.729L234.521 121.979L234.875 121.625L239.125 125.875L238.771 126.229L240.543 128L238.771 129.771L239.125 130.125L234.875 134.375L234.521 134.021L230.271 138.271L230.625 138.625L226.375 142.875L226.021 142.521L221.771 146.771L222.125 147.125L217.875 151.375L217.521 151.021L213.271 155.271L213.625 155.625L209.375 159.875L209.021 159.521L204.771 163.771L205.125 164.125L200.875 168.375L200.521 168.021L196.271 172.271L196.625 172.625L192.375 176.875L192.021 176.521L187.771 180.771L188.125 181.125L183.875 185.375L183.521 185.021L179.271 189.271L179.625 189.625L175.375 193.875L175.021 193.521L170.771 197.771L171.125 198.125L166.875 202.375L166.521 202.021L162.271 206.271L162.625 206.625L158.375 210.875L158.021 210.521L153.771 214.771L154.125 215.125L149.875 219.375L149.521 219.021L145.271 223.271L145.625 223.625L141.375 227.875L141.021 227.521L139.25 229.293L137.479 227.521L137.125 227.875L132.875 223.625L133.229 223.271L128.979 219.021L128.625 219.375L124.375 215.125L124.729 214.771L120.479 210.521L120.125 210.875L115.875 206.625L116.229 206.271L111.979 202.021L111.625 202.375L107.375 198.125L107.729 197.771L103.479 193.521L103.125 193.875L98.875 189.625L99.2285 189.271L94.9785 185.021L94.625 185.375L90.375 181.125L90.7285 180.771L86.4785 176.521L86.125 176.875L81.875 172.625L82.2285 172.271L77.9785 168.021L77.625 168.375L73.375 164.125L73.7286 163.771L69.4786 159.521L69.125 159.875L64.875 155.625L65.2286 155.271L60.9786 151.021L60.625 151.375L56.375 147.125L56.7286 146.771L52.4786 142.521L52.125 142.875L47.875 138.625L48.2286 138.271L43.9786 134.021L43.625 134.375L39.375 130.125L39.7286 129.771L37.9571 128L39.7286 126.229L39.375 125.875L43.625 121.625L43.9786 121.979L48.2286 117.729L47.875 117.375L52.125 113.125L52.4786 113.479L56.7286 109.229L56.375 108.875L60.625 104.625L60.9786 104.979L65.2286 100.729L64.875 100.375L69.125 96.125L69.4786 96.4785L73.7286 92.2285L73.375 91.875L77.625 87.625L77.9786 87.9785L82.2286 83.7285L81.875 83.375L86.125 79.125L86.4786 79.4785L90.7286 75.2285L90.375 74.875L94.625 70.625L94.9786 70.9785L99.2286 66.7285L98.875 66.375L103.125 62.125L103.479 62.4786L107.729 58.2286L107.375 57.875L111.625 53.625L111.979 53.9786L116.229 49.7286L115.875 49.375L120.125 45.125L120.479 45.4786L124.729 41.2286L124.375 40.875L128.625 36.625L128.979 36.9786L133.229 32.7286L132.875 32.375Z"
        stroke="white" stroke-opacity="0.05" stroke-dasharray="6 6" />
    <path
        d="M132.5 62.75L137 58.25L137.354 58.6036L139.25 56.7071L141.146 58.6036L141.5 58.25L146 62.75L145.646 63.1036L150.146 67.6036L150.5 67.25L155 71.75L154.646 72.1036L159.146 76.6036L159.5 76.25L164 80.75L163.646 81.1036L168.146 85.6036L168.5 85.25L173 89.75L172.646 90.1036L177.146 94.6036L177.5 94.25L182 98.75L181.646 99.1036L186.146 103.604L186.5 103.25L191 107.75L190.646 108.104L195.146 112.604L195.5 112.25L200 116.75L199.646 117.104L204.146 121.604L204.5 121.25L209 125.75L208.646 126.104L210.543 128L208.646 129.896L209 130.25L204.5 134.75L204.146 134.396L199.646 138.896L200 139.25L195.5 143.75L195.146 143.396L190.646 147.896L191 148.25L186.5 152.75L186.146 152.396L181.646 156.896L182 157.25L177.5 161.75L177.146 161.396L172.646 165.896L173 166.25L168.5 170.75L168.146 170.396L163.646 174.896L164 175.25L159.5 179.75L159.146 179.396L154.646 183.896L155 184.25L150.5 188.75L150.146 188.396L145.646 192.896L146 193.25L141.5 197.75L141.146 197.396L139.25 199.293L137.354 197.396L137 197.75L132.5 193.25L132.854 192.896L128.354 188.396L128 188.75L123.5 184.25L123.854 183.896L119.354 179.396L119 179.75L114.5 175.25L114.854 174.896L110.354 170.396L110 170.75L105.5 166.25L105.854 165.896L101.354 161.396L101 161.75L96.5 157.25L96.8536 156.896L92.3536 152.396L92 152.75L87.5 148.25L87.8536 147.896L83.3536 143.396L83 143.75L78.5 139.25L78.8536 138.896L74.3536 134.396L74 134.75L69.5 130.25L69.8536 129.896L67.9571 128L69.8536 126.104L69.5 125.75L74 121.25L74.3536 121.604L78.8536 117.104L78.5 116.75L83 112.25L83.3536 112.604L87.8536 108.104L87.5 107.75L92 103.25L92.3536 103.604L96.8536 99.1035L96.5 98.75L101 94.25L101.354 94.6035L105.854 90.1035L105.5 89.75L110 85.25L110.354 85.6036L114.854 81.1036L114.5 80.75L119 76.25L119.354 76.6036L123.854 72.1036L123.5 71.75L128 67.25L128.354 67.6036L132.854 63.1036L132.5 62.75Z"
        fill="url(#paint1_linear_6931_31041)" fill-opacity="0.08" stroke="#272727"
        stroke-dasharray="6 6" />
    <path d="M139.25 86L181.25 128L139.25 170L97.25 128L139.25 86Z"
        fill="url(#paint2_linear_6931_31041)" fill-opacity="0.08" />
    <path
        d="M132.95 92.3L137.15 88.1L137.504 88.4536L139.25 86.7071L140.996 88.4536L141.35 88.1L145.55 92.3L145.196 92.6536L149.396 96.8536L149.75 96.5L153.95 100.7L153.596 101.054L157.796 105.254L158.15 104.9L162.35 109.1L161.996 109.454L166.196 113.654L166.55 113.3L170.75 117.5L170.396 117.854L174.596 122.054L174.95 121.7L179.15 125.9L178.796 126.254L180.543 128L178.796 129.746L179.15 130.1L174.95 134.3L174.596 133.946L170.396 138.146L170.75 138.5L166.55 142.7L166.196 142.346L161.996 146.546L162.35 146.9L158.15 151.1L157.796 150.746L153.596 154.946L153.95 155.3L149.75 159.5L149.396 159.146L145.196 163.346L145.55 163.7L141.35 167.9L140.996 167.546L139.25 169.293L137.504 167.546L137.15 167.9L132.95 163.7L133.304 163.346L129.104 159.146L128.75 159.5L124.55 155.3L124.904 154.946L120.704 150.746L120.35 151.1L116.15 146.9L116.504 146.546L112.304 142.346L111.95 142.7L107.75 138.5L108.104 138.146L103.904 133.946L103.55 134.3L99.35 130.1L99.7036 129.746L97.9571 128L99.7036 126.254L99.35 125.9L103.55 121.7L103.904 122.054L108.104 117.854L107.75 117.5L111.95 113.3L112.304 113.654L116.504 109.454L116.15 109.1L120.35 104.9L120.704 105.254L124.904 101.054L124.55 100.7L128.75 96.5L129.104 96.8536L133.304 92.6536L132.95 92.3Z"
        stroke="white" stroke-opacity="0.03" stroke-dasharray="6 6" />
    <path d="M89.75 127.5L139.25 56.5L188.25 127.5L139.25 180.5L89.75 127.5Z"
        fill="url(#paint3_linear_6931_31041)" fill-opacity="0.13" />
    <path
        d="M139.25 56.5L139.662 56.216C139.568 56.0811 139.415 56.0004 139.251 56C139.087 55.9996 138.934 56.0796 138.84 56.214L139.25 56.5ZM89.75 127.5L89.3398 127.214C89.205 127.408 89.2236 127.669 89.3846 127.841L89.75 127.5ZM188.25 127.5L188.617 127.839C188.776 127.668 188.794 127.409 188.662 127.216L188.25 127.5ZM139.25 180.5L138.885 180.841L139.252 181.235L139.617 180.839L139.25 180.5ZM138.84 56.214L89.3398 127.214L90.1602 127.786L139.66 56.786L138.84 56.214ZM188.662 127.216L139.662 56.216L138.838 56.784L187.838 127.784L188.662 127.216ZM89.3846 127.841L138.885 180.841L139.615 180.159L90.1154 127.159L89.3846 127.841ZM139.617 180.839L188.617 127.839L187.883 127.161L138.883 180.161L139.617 180.839Z"
        fill="url(#paint4_linear_6931_31041)" fill-opacity="0.4" />
    <path
        d="M117.386 16V4.8H119.066V16H117.386ZM124.279 16.14C123.644 16.14 123.065 15.9813 122.543 15.664C122.02 15.3467 121.605 14.9173 121.297 14.376C120.998 13.8347 120.849 13.228 120.849 12.556C120.849 11.884 120.998 11.2773 121.297 10.736C121.605 10.1947 122.02 9.76533 122.543 9.448C123.065 9.13067 123.644 8.972 124.279 8.972C124.717 8.972 125.142 9.06067 125.553 9.238C125.963 9.406 126.327 9.63467 126.645 9.924V6.2L127.261 6.046V16H126.645V15.174C126.019 15.818 125.231 16.14 124.279 16.14ZM124.279 15.552C124.792 15.552 125.254 15.4493 125.665 15.244C126.085 15.0293 126.411 14.7493 126.645 14.404V10.708C126.402 10.3813 126.071 10.1107 125.651 9.896C125.231 9.672 124.773 9.56 124.279 9.56C123.756 9.56 123.28 9.69533 122.851 9.966C122.431 10.2273 122.095 10.5867 121.843 11.044C121.6 11.492 121.479 11.996 121.479 12.556C121.479 13.116 121.6 13.6247 121.843 14.082C122.095 14.53 122.431 14.8893 122.851 15.16C123.28 15.4213 123.756 15.552 124.279 15.552ZM132.277 16.14C131.642 16.14 131.063 15.9813 130.541 15.664C130.018 15.3467 129.603 14.9173 129.295 14.376C128.996 13.8347 128.847 13.228 128.847 12.556C128.847 11.884 128.991 11.2773 129.281 10.736C129.579 10.1947 129.985 9.76533 130.499 9.448C131.012 9.13067 131.586 8.972 132.221 8.972C132.818 8.972 133.35 9.13067 133.817 9.448C134.283 9.76533 134.652 10.19 134.923 10.722C135.203 11.2447 135.343 11.828 135.343 12.472V12.724H129.477C129.505 13.256 129.645 13.7367 129.897 14.166C130.149 14.586 130.48 14.922 130.891 15.174C131.311 15.426 131.773 15.552 132.277 15.552C132.669 15.552 133.056 15.4913 133.439 15.37C133.821 15.2393 134.148 15.0667 134.419 14.852L134.783 15.342C134.409 15.6127 134.013 15.8133 133.593 15.944C133.173 16.0747 132.734 16.14 132.277 16.14ZM129.505 12.136H134.685C134.638 11.66 134.503 11.2307 134.279 10.848C134.055 10.456 133.765 10.1433 133.411 9.91C133.056 9.67667 132.655 9.56 132.207 9.56C131.731 9.56 131.297 9.672 130.905 9.896C130.522 10.12 130.205 10.428 129.953 10.82C129.71 11.2027 129.561 11.6413 129.505 12.136ZM136.852 16V9.112H137.468V10.078C138.028 9.34067 138.789 8.972 139.75 8.972C140.273 8.972 140.73 9.084 141.122 9.308C141.524 9.52267 141.832 9.83067 142.046 10.232C142.27 10.624 142.382 11.0813 142.382 11.604V16H141.766V11.772C141.766 11.0813 141.575 10.54 141.192 10.148C140.81 9.74667 140.282 9.546 139.61 9.546C139.144 9.546 138.724 9.658 138.35 9.882C137.977 10.0967 137.683 10.4093 137.468 10.82V16H136.852ZM146.411 16.14C145.888 16.14 145.487 16.0093 145.207 15.748C144.927 15.4867 144.787 15.1227 144.787 14.656V9.672H143.275V9.112H144.787V7.376L145.403 7.18V9.112H147.531V9.672H145.403V14.446C145.403 14.838 145.487 15.1227 145.655 15.3C145.832 15.468 146.122 15.552 146.523 15.552C146.738 15.552 146.92 15.538 147.069 15.51C147.218 15.4727 147.372 15.4213 147.531 15.356V15.958C147.354 16.0233 147.172 16.07 146.985 16.098C146.798 16.126 146.607 16.14 146.411 16.14ZM148.72 16V9.112H149.336V16H148.72ZM149.028 7.558C148.878 7.558 148.752 7.50667 148.65 7.404C148.547 7.30133 148.496 7.17533 148.496 7.026C148.496 6.87667 148.547 6.75067 148.65 6.648C148.752 6.54533 148.878 6.494 149.028 6.494C149.186 6.494 149.312 6.54533 149.406 6.648C149.508 6.75067 149.56 6.87667 149.56 7.026C149.56 7.17533 149.508 7.30133 149.406 7.404C149.312 7.50667 149.186 7.558 149.028 7.558ZM153.657 16.14C153.135 16.14 152.733 16.0093 152.453 15.748C152.173 15.4867 152.033 15.1227 152.033 14.656V9.672H150.521V9.112H152.033V7.376L152.649 7.18V9.112H154.777V9.672H152.649V14.446C152.649 14.838 152.733 15.1227 152.901 15.3C153.079 15.468 153.368 15.552 153.769 15.552C153.984 15.552 154.166 15.538 154.315 15.51C154.465 15.4727 154.619 15.4213 154.777 15.356V15.958C154.6 16.0233 154.418 16.07 154.231 16.098C154.045 16.126 153.853 16.14 153.657 16.14ZM156.337 18.968C156.234 18.968 156.132 18.9587 156.029 18.94C155.926 18.9307 155.838 18.9213 155.763 18.912V18.296C155.912 18.3333 156.094 18.352 156.309 18.352C156.897 18.352 157.359 17.9787 157.695 17.232L158.255 15.972L155.385 9.112H156.085L158.591 15.23L161.209 9.112H161.895L158.311 17.288C158.134 17.6893 157.947 18.0113 157.751 18.254C157.564 18.506 157.354 18.688 157.121 18.8C156.897 18.912 156.636 18.968 156.337 18.968Z"
        fill="url(#paint5_linear_6931_31041)" />
    <path
        d="M3.15201 131L0.704008 119.8H2.43201L4.17601 128.36L6.70401 119.8H8.30401L10.832 128.344L12.592 119.8H14.24L11.792 131H10.064L7.48801 122.2L4.89601 131H3.15201ZM18.7993 131.14C18.1646 131.14 17.5859 130.981 17.0633 130.664C16.5406 130.347 16.1253 129.917 15.8173 129.376C15.5186 128.835 15.3693 128.228 15.3693 127.556C15.3693 126.884 15.5139 126.277 15.8033 125.736C16.1019 125.195 16.5079 124.765 17.0213 124.448C17.5346 124.131 18.1086 123.972 18.7433 123.972C19.3406 123.972 19.8726 124.131 20.3393 124.448C20.8059 124.765 21.1746 125.19 21.4453 125.722C21.7253 126.245 21.8653 126.828 21.8653 127.472V127.724H15.9993C16.0273 128.256 16.1673 128.737 16.4193 129.166C16.6713 129.586 17.0026 129.922 17.4133 130.174C17.8333 130.426 18.2953 130.552 18.7993 130.552C19.1913 130.552 19.5786 130.491 19.9613 130.37C20.3439 130.239 20.6706 130.067 20.9413 129.852L21.3053 130.342C20.9319 130.613 20.5353 130.813 20.1153 130.944C19.6953 131.075 19.2566 131.14 18.7993 131.14ZM16.0273 127.136H21.2073C21.1606 126.66 21.0253 126.231 20.8013 125.848C20.5773 125.456 20.2879 125.143 19.9333 124.91C19.5786 124.677 19.1773 124.56 18.7293 124.56C18.2533 124.56 17.8193 124.672 17.4273 124.896C17.0446 125.12 16.7273 125.428 16.4753 125.82C16.2326 126.203 16.0833 126.641 16.0273 127.136ZM25.2418 131.14C24.7378 131.14 24.2944 131.056 23.9118 130.888C23.5291 130.711 23.2304 130.468 23.0158 130.16C22.8011 129.843 22.6938 129.479 22.6938 129.068C22.6938 128.433 22.9411 127.925 23.4358 127.542C23.9304 127.15 24.5884 126.954 25.4098 126.954C26.2311 126.954 26.9591 127.155 27.5938 127.556V126.408C27.5938 125.773 27.4211 125.302 27.0758 124.994C26.7304 124.677 26.2358 124.518 25.5918 124.518C25.2744 124.518 24.9431 124.569 24.5978 124.672C24.2524 124.775 23.8558 124.943 23.4078 125.176L23.1418 124.63C23.5804 124.406 24.0004 124.243 24.4018 124.14C24.8031 124.028 25.2044 123.972 25.6058 123.972C26.4364 123.972 27.0758 124.173 27.5238 124.574C27.9811 124.966 28.2098 125.54 28.2098 126.296V131H27.5938V130.23C27.2764 130.519 26.9218 130.743 26.5298 130.902C26.1378 131.061 25.7084 131.14 25.2418 131.14ZM23.3098 129.054C23.3098 129.502 23.4964 129.871 23.8698 130.16C24.2431 130.449 24.7144 130.594 25.2838 130.594C25.7784 130.594 26.2124 130.51 26.5858 130.342C26.9591 130.165 27.2951 129.917 27.5938 129.6V128.172C27.2858 127.939 26.9498 127.766 26.5858 127.654C26.2218 127.542 25.8064 127.486 25.3398 127.486C24.7331 127.486 24.2431 127.631 23.8698 127.92C23.4964 128.209 23.3098 128.587 23.3098 129.054ZM30.0877 131V121.2L30.7037 121.046V131H30.0877ZM35.0254 131.14C34.5027 131.14 34.1014 131.009 33.8214 130.748C33.5414 130.487 33.4014 130.123 33.4014 129.656V124.672H31.8894V124.112H33.4014V122.376L34.0174 122.18V124.112H36.1454V124.672H34.0174V129.446C34.0174 129.838 34.1014 130.123 34.2694 130.3C34.4467 130.468 34.736 130.552 35.1374 130.552C35.352 130.552 35.534 130.538 35.6834 130.51C35.8327 130.473 35.9867 130.421 36.1454 130.356V130.958C35.968 131.023 35.786 131.07 35.5994 131.098C35.4127 131.126 35.2214 131.14 35.0254 131.14ZM37.3338 131V121.2L37.9498 121.046V125.078C38.5098 124.341 39.2705 123.972 40.2318 123.972C40.7545 123.972 41.2118 124.084 41.6038 124.308C42.0052 124.523 42.3132 124.831 42.5278 125.232C42.7518 125.624 42.8638 126.081 42.8638 126.604V131H42.2478V126.772C42.2478 126.081 42.0565 125.54 41.6738 125.148C41.2912 124.747 40.7638 124.546 40.0918 124.546C39.6252 124.546 39.2052 124.658 38.8318 124.882C38.4585 125.097 38.1645 125.409 37.9498 125.82V131H37.3338Z"
        fill="url(#paint6_linear_6931_31041)" />
    <path
        d="M247.428 130.827C246.532 130.827 245.668 130.651 244.836 130.299C244.004 129.947 243.268 129.451 242.628 128.811L243.652 127.627C244.26 128.224 244.879 128.667 245.508 128.955C246.148 129.243 246.815 129.387 247.508 129.387C248.052 129.387 248.527 129.312 248.932 129.163C249.348 129.003 249.668 128.779 249.892 128.491C250.116 128.203 250.228 127.877 250.228 127.515C250.228 127.013 250.052 126.629 249.7 126.363C249.348 126.096 248.767 125.893 247.956 125.755L246.084 125.451C245.06 125.269 244.292 124.939 243.78 124.459C243.279 123.979 243.028 123.339 243.028 122.539C243.028 121.899 243.199 121.339 243.54 120.859C243.881 120.368 244.361 119.989 244.98 119.723C245.609 119.456 246.335 119.323 247.156 119.323C247.967 119.323 248.761 119.456 249.54 119.723C250.329 119.979 251.039 120.352 251.668 120.843L250.74 122.123C249.535 121.205 248.313 120.747 247.076 120.747C246.585 120.747 246.159 120.816 245.796 120.955C245.433 121.093 245.151 121.291 244.948 121.547C244.745 121.792 244.644 122.08 244.644 122.411C244.644 122.869 244.799 123.221 245.108 123.467C245.417 123.701 245.929 123.872 246.644 123.979L248.452 124.283C249.636 124.475 250.505 124.821 251.06 125.323C251.615 125.824 251.892 126.512 251.892 127.387C251.892 128.069 251.705 128.672 251.332 129.195C250.959 129.707 250.436 130.107 249.764 130.395C249.092 130.683 248.313 130.827 247.428 130.827ZM256.373 130.807C255.738 130.807 255.159 130.648 254.637 130.331C254.114 130.013 253.699 129.584 253.391 129.043C253.092 128.492 252.943 127.885 252.943 127.223C252.943 126.551 253.092 125.944 253.391 125.403C253.699 124.861 254.114 124.432 254.637 124.115C255.159 123.797 255.738 123.639 256.373 123.639C257.017 123.639 257.595 123.797 258.109 124.115C258.631 124.432 259.042 124.861 259.341 125.403C259.649 125.944 259.803 126.551 259.803 127.223C259.803 127.885 259.649 128.492 259.341 129.043C259.042 129.584 258.631 130.013 258.109 130.331C257.595 130.648 257.017 130.807 256.373 130.807ZM256.373 130.219C256.895 130.219 257.367 130.088 257.787 129.827C258.216 129.556 258.552 129.197 258.795 128.749C259.047 128.291 259.173 127.783 259.173 127.223C259.173 126.663 259.047 126.159 258.795 125.711C258.552 125.253 258.216 124.894 257.787 124.633C257.367 124.362 256.895 124.227 256.373 124.227C255.85 124.227 255.374 124.362 254.945 124.633C254.525 124.894 254.189 125.253 253.937 125.711C253.694 126.159 253.573 126.663 253.573 127.223C253.573 127.783 253.694 128.291 253.937 128.749C254.189 129.197 254.525 129.556 254.945 129.827C255.374 130.088 255.85 130.219 256.373 130.219ZM264.494 130.807C263.859 130.807 263.28 130.648 262.758 130.331C262.235 130.013 261.82 129.584 261.512 129.043C261.213 128.501 261.064 127.895 261.064 127.223C261.064 126.551 261.213 125.944 261.512 125.403C261.82 124.861 262.235 124.432 262.758 124.115C263.28 123.797 263.859 123.639 264.494 123.639C264.96 123.639 265.427 123.732 265.894 123.919C266.37 124.105 266.785 124.362 267.14 124.689L266.72 125.193C266.421 124.894 266.076 124.661 265.684 124.493C265.301 124.315 264.904 124.227 264.494 124.227C263.971 124.227 263.495 124.362 263.066 124.633C262.646 124.894 262.31 125.253 262.058 125.711C261.815 126.159 261.694 126.663 261.694 127.223C261.694 127.783 261.815 128.291 262.058 128.749C262.31 129.197 262.646 129.556 263.066 129.827C263.495 130.088 263.971 130.219 264.494 130.219C264.904 130.219 265.301 130.13 265.684 129.953C266.076 129.775 266.421 129.542 266.72 129.253L267.14 129.757C266.785 130.083 266.37 130.34 265.894 130.527C265.427 130.713 264.96 130.807 264.494 130.807ZM268.44 130.667V123.779H269.056V130.667H268.44ZM268.748 122.225C268.599 122.225 268.473 122.173 268.37 122.071C268.268 121.968 268.216 121.842 268.216 121.693C268.216 121.543 268.268 121.417 268.37 121.315C268.473 121.212 268.599 121.161 268.748 121.161C268.907 121.161 269.033 121.212 269.126 121.315C269.229 121.417 269.28 121.543 269.28 121.693C269.28 121.842 269.229 121.968 269.126 122.071C269.033 122.173 268.907 122.225 268.748 122.225ZM273.028 130.807C272.524 130.807 272.081 130.723 271.698 130.555C271.315 130.377 271.017 130.135 270.802 129.827C270.587 129.509 270.48 129.145 270.48 128.735C270.48 128.1 270.727 127.591 271.222 127.209C271.717 126.817 272.375 126.621 273.196 126.621C274.017 126.621 274.745 126.821 275.38 127.223V126.075C275.38 125.44 275.207 124.969 274.862 124.661C274.517 124.343 274.022 124.185 273.378 124.185C273.061 124.185 272.729 124.236 272.384 124.339C272.039 124.441 271.642 124.609 271.194 124.843L270.928 124.297C271.367 124.073 271.787 123.909 272.188 123.807C272.589 123.695 272.991 123.639 273.392 123.639C274.223 123.639 274.862 123.839 275.31 124.241C275.767 124.633 275.996 125.207 275.996 125.963V130.667H275.38V129.897C275.063 130.186 274.708 130.41 274.316 130.569C273.924 130.727 273.495 130.807 273.028 130.807ZM271.096 128.721C271.096 129.169 271.283 129.537 271.656 129.827C272.029 130.116 272.501 130.261 273.07 130.261C273.565 130.261 273.999 130.177 274.372 130.009C274.745 129.831 275.081 129.584 275.38 129.267V127.839C275.072 127.605 274.736 127.433 274.372 127.321C274.008 127.209 273.593 127.153 273.126 127.153C272.519 127.153 272.029 127.297 271.656 127.587C271.283 127.876 271.096 128.254 271.096 128.721ZM277.874 130.667V120.867L278.49 120.713V130.667H277.874Z"
        fill="url(#paint7_linear_6931_31041)" />
    <path
        d="M116.386 246.667V235.467H124.642V236.939H118.066V240.299H122.386V241.723H118.066V245.195H124.706V246.667H116.386ZM126.249 246.667V239.779H126.865V240.745C127.425 240.007 128.186 239.639 129.147 239.639C129.67 239.639 130.127 239.751 130.519 239.975C130.92 240.189 131.228 240.497 131.443 240.899C131.667 241.291 131.779 241.748 131.779 242.271V246.667H131.163V242.439C131.163 241.748 130.972 241.207 130.589 240.815C130.206 240.413 129.679 240.213 129.007 240.213C128.54 240.213 128.12 240.325 127.747 240.549C127.374 240.763 127.08 241.076 126.865 241.487V246.667H126.249ZM136.977 249.663C136.52 249.663 136.067 249.597 135.619 249.467C135.171 249.336 134.76 249.154 134.387 248.921L134.737 248.417C135.148 248.65 135.521 248.818 135.857 248.921C136.202 249.023 136.562 249.075 136.935 249.075C137.654 249.075 138.2 248.902 138.573 248.557C138.946 248.211 139.133 247.698 139.133 247.017V245.841C138.508 246.485 137.719 246.807 136.767 246.807C136.132 246.807 135.554 246.648 135.031 246.331C134.508 246.013 134.093 245.584 133.785 245.043C133.486 244.501 133.337 243.895 133.337 243.223C133.337 242.551 133.486 241.944 133.785 241.403C134.093 240.861 134.508 240.432 135.031 240.115C135.554 239.797 136.132 239.639 136.767 239.639C137.206 239.639 137.63 239.727 138.041 239.905C138.452 240.073 138.816 240.301 139.133 240.591V239.779H139.749V246.989C139.749 247.866 139.506 248.529 139.021 248.977C138.545 249.434 137.864 249.663 136.977 249.663ZM136.767 246.219C137.28 246.219 137.742 246.116 138.153 245.911C138.573 245.696 138.9 245.416 139.133 245.071V241.375C138.89 241.048 138.559 240.777 138.139 240.563C137.719 240.339 137.262 240.227 136.767 240.227C136.244 240.227 135.768 240.362 135.339 240.633C134.919 240.894 134.583 241.253 134.331 241.711C134.088 242.159 133.967 242.663 133.967 243.223C133.967 243.783 134.088 244.291 134.331 244.749C134.583 245.197 134.919 245.556 135.339 245.827C135.768 246.088 136.244 246.219 136.767 246.219ZM143.729 246.807C143.225 246.807 142.782 246.723 142.399 246.555C142.016 246.377 141.718 246.135 141.503 245.827C141.288 245.509 141.181 245.145 141.181 244.735C141.181 244.1 141.428 243.591 141.923 243.209C142.418 242.817 143.076 242.621 143.897 242.621C144.718 242.621 145.446 242.821 146.081 243.223V242.075C146.081 241.44 145.908 240.969 145.563 240.661C145.218 240.343 144.723 240.185 144.079 240.185C143.762 240.185 143.43 240.236 143.085 240.339C142.74 240.441 142.343 240.609 141.895 240.843L141.629 240.297C142.068 240.073 142.488 239.909 142.889 239.807C143.29 239.695 143.692 239.639 144.093 239.639C144.924 239.639 145.563 239.839 146.011 240.241C146.468 240.633 146.697 241.207 146.697 241.963V246.667H146.081V245.897C145.764 246.186 145.409 246.41 145.017 246.569C144.625 246.727 144.196 246.807 143.729 246.807ZM141.797 244.721C141.797 245.169 141.984 245.537 142.357 245.827C142.73 246.116 143.202 246.261 143.771 246.261C144.266 246.261 144.7 246.177 145.073 246.009C145.446 245.831 145.782 245.584 146.081 245.267V243.839C145.773 243.605 145.437 243.433 145.073 243.321C144.709 243.209 144.294 243.153 143.827 243.153C143.22 243.153 142.73 243.297 142.357 243.587C141.984 243.876 141.797 244.254 141.797 244.721ZM151.893 249.663C151.436 249.663 150.983 249.597 150.535 249.467C150.087 249.336 149.676 249.154 149.303 248.921L149.653 248.417C150.064 248.65 150.437 248.818 150.773 248.921C151.118 249.023 151.478 249.075 151.851 249.075C152.57 249.075 153.116 248.902 153.489 248.557C153.862 248.211 154.049 247.698 154.049 247.017V245.841C153.424 246.485 152.635 246.807 151.683 246.807C151.048 246.807 150.47 246.648 149.947 246.331C149.424 246.013 149.009 245.584 148.701 245.043C148.402 244.501 148.253 243.895 148.253 243.223C148.253 242.551 148.402 241.944 148.701 241.403C149.009 240.861 149.424 240.432 149.947 240.115C150.47 239.797 151.048 239.639 151.683 239.639C152.122 239.639 152.546 239.727 152.957 239.905C153.368 240.073 153.732 240.301 154.049 240.591V239.779H154.665V246.989C154.665 247.866 154.422 248.529 153.937 248.977C153.461 249.434 152.78 249.663 151.893 249.663ZM151.683 246.219C152.196 246.219 152.658 246.116 153.069 245.911C153.489 245.696 153.816 245.416 154.049 245.071V241.375C153.806 241.048 153.475 240.777 153.055 240.563C152.635 240.339 152.178 240.227 151.683 240.227C151.16 240.227 150.684 240.362 150.255 240.633C149.835 240.894 149.499 241.253 149.247 241.711C149.004 242.159 148.883 242.663 148.883 243.223C148.883 243.783 149.004 244.291 149.247 244.749C149.499 245.197 149.835 245.556 150.255 245.827C150.684 246.088 151.16 246.219 151.683 246.219ZM159.681 246.807C159.046 246.807 158.468 246.648 157.945 246.331C157.422 246.013 157.007 245.584 156.699 245.043C156.4 244.501 156.251 243.895 156.251 243.223C156.251 242.551 156.396 241.944 156.685 241.403C156.984 240.861 157.39 240.432 157.903 240.115C158.416 239.797 158.99 239.639 159.625 239.639C160.222 239.639 160.754 239.797 161.221 240.115C161.688 240.432 162.056 240.857 162.327 241.389C162.607 241.911 162.747 242.495 162.747 243.139V243.391H156.881C156.909 243.923 157.049 244.403 157.301 244.833C157.553 245.253 157.884 245.589 158.295 245.841C158.715 246.093 159.177 246.219 159.681 246.219C160.073 246.219 160.46 246.158 160.843 246.037C161.226 245.906 161.552 245.733 161.823 245.519L162.187 246.009C161.814 246.279 161.417 246.48 160.997 246.611C160.577 246.741 160.138 246.807 159.681 246.807ZM156.909 242.803H162.089C162.042 242.327 161.907 241.897 161.683 241.515C161.459 241.123 161.17 240.81 160.815 240.577C160.46 240.343 160.059 240.227 159.611 240.227C159.135 240.227 158.701 240.339 158.309 240.563C157.926 240.787 157.609 241.095 157.357 241.487C157.114 241.869 156.965 242.308 156.909 242.803Z"
        fill="url(#paint8_linear_6931_31041)" />
    <defs>
        <linearGradient id="paint0_linear_6931_31041" x1="139.25" y1="26" x2="139.25" y2="230"
            gradientUnits="userSpaceOnUse">
            <stop stop-color="white" />
            <stop offset="1" />
        </linearGradient>
        <linearGradient id="paint1_linear_6931_31041" x1="139.25" y1="56" x2="139.25" y2="200"
            gradientUnits="userSpaceOnUse">
            <stop stop-color="white" />
            <stop offset="1" />
        </linearGradient>
        <linearGradient id="paint2_linear_6931_31041" x1="139.25" y1="86" x2="139.25" y2="170"
            gradientUnits="userSpaceOnUse">
            <stop stop-color="white" />
            <stop offset="1" />
        </linearGradient>
        <linearGradient id="paint3_linear_6931_31041" x1="89.75" y1="118.5" x2="180.25" y2="118.5"
            gradientUnits="userSpaceOnUse">
            <stop stop-color="#FFEAB5" />
            <stop offset="0.26" stop-color="#F2A85D" />
            <stop offset="0.5" stop-color="#8052E4" />
            <stop offset="0.745" stop-color="#2E85EA" />
            <stop offset="1" stop-color="#68EFAE" />
        </linearGradient>
        <linearGradient id="paint4_linear_6931_31041" x1="89.75" y1="118.5" x2="188.25" y2="118.5"
            gradientUnits="userSpaceOnUse">
            <stop stop-color="#FFEAB5" />
            <stop offset="0.26" stop-color="#F2A85D" />
            <stop offset="0.5" stop-color="#8052E4" />
            <stop offset="0.745" stop-color="#2E85EA" />
            <stop offset="1" stop-color="#68EFAE" />
        </linearGradient>
        <linearGradient id="paint5_linear_6931_31041" x1="116.25" y1="10.5" x2="162.25" y2="10.5"
            gradientUnits="userSpaceOnUse">
            <stop stop-color="#FFEAB5" />
            <stop offset="0.26" stop-color="#F2A85D" />
            <stop offset="0.5" stop-color="#8052E4" />
            <stop offset="0.745" stop-color="#2E85EA" />
            <stop offset="1" stop-color="#68EFAE" />
        </linearGradient>
        <linearGradient id="paint6_linear_6931_31041" x1="1.63913e-07" y1="125.5" x2="44" y2="125.5"
            gradientUnits="userSpaceOnUse">
            <stop stop-color="#FFEAB5" />
            <stop offset="0.26" stop-color="#F2A85D" />
            <stop offset="0.5" stop-color="#8052E4" />
            <stop offset="0.745" stop-color="#2E85EA" />
            <stop offset="1" stop-color="#68EFAE" />
        </linearGradient>
        <linearGradient id="paint7_linear_6931_31041" x1="242.5" y1="125.167" x2="279.5"
            y2="125.167" gradientUnits="userSpaceOnUse">
            <stop stop-color="#FFEAB5" />
            <stop offset="0.26" stop-color="#F2A85D" />
            <stop offset="0.5" stop-color="#8052E4" />
            <stop offset="0.745" stop-color="#2E85EA" />
            <stop offset="1" stop-color="#68EFAE" />
        </linearGradient>
        <linearGradient id="paint8_linear_6931_31041" x1="115.25" y1="241.167" x2="164.25"
            y2="241.167" gradientUnits="userSpaceOnUse">
            <stop stop-color="#FFEAB5" />
            <stop offset="0.26" stop-color="#F2A85D" />
            <stop offset="0.5" stop-color="#8052E4" />
            <stop offset="0.745" stop-color="#2E85EA" />
            <stop offset="1" stop-color="#68EFAE" />
        </linearGradient>
    </defs>
</svg>
    