<svg width="30" height="29" viewBox="0 0 30 29" fill="none" xmlns="http://www.w3.org/2000/svg">
    <path d="M13.2065 1.63397C13.9402 0.147478 16.0598 0.14748 16.7935 1.63397L19.8247 7.77596C20.1161 8.36625 20.6792 8.77539 21.3306 8.87005L28.1087 9.85496C29.7491 10.0933 30.4042 12.1093 29.2171 13.2663L24.3124 18.0472C23.8411 18.5067 23.626 19.1687 23.7373 19.8175L24.8951 26.5682C25.1753 28.202 23.4604 29.4479 21.9932 28.6765L15.9307 25.4893C15.348 25.183 14.652 25.183 14.0693 25.4893L8.00681 28.6765C6.53955 29.4479 4.82469 28.202 5.10491 26.5682L6.26275 19.8175C6.37402 19.1687 6.15893 18.5067 5.68755 18.0472L0.782881 13.2663C-0.404154 12.1093 0.250869 10.0933 1.89131 9.85496L8.6694 8.87005C9.32082 8.77539 9.88395 8.36625 10.1753 7.77596L13.2065 1.63397Z" fill="#FFB800"/>
    </svg>
    