<svg width="45" height="42" viewBox="0 0 45 42" fill="none" xmlns="http://www.w3.org/2000/svg">
    <path
        d="M18.9131 2.26794C20.3803 -0.705039 24.6197 -0.705038 26.0869 2.26795L29.6514 9.49025C30.234 10.6708 31.3603 11.4891 32.6631 11.6784L40.6334 12.8366C43.9143 13.3133 45.2243 17.3452 42.8503 19.6593L37.0829 25.2811C36.1402 26.2001 35.71 27.5241 35.9325 28.8216L37.294 36.7597C37.8544 40.0273 34.4247 42.5192 31.4902 40.9764L24.3614 37.2286C23.1961 36.6159 21.8039 36.6159 20.6386 37.2286L13.5098 40.9764C10.5753 42.5192 7.14555 40.0273 7.706 36.7597L9.06748 28.8216C9.29004 27.5241 8.85984 26.2001 7.9171 25.2811L2.14974 19.6593C-0.224324 17.3452 1.08571 13.3133 4.3666 12.8366L12.3369 11.6784C13.6397 11.4891 14.766 10.6708 15.3486 9.49025L18.9131 2.26794Z"
        fill="#FFB800" />
</svg>
    