<svg width="55" height="50" viewBox="0 0 55 50" fill="none" xmlns="http://www.w3.org/2000/svg">
    <path
        d="M33.0729 16.3021C31.4236 14.566 29.7049 13.0556 27.9167 11.7708C26.1285 10.4861 24.4531 9.52257 22.8906 8.88021C21.3281 8.23785 19.8958 7.92969 18.5938 7.95573C17.2917 7.98177 16.276 8.38542 15.5469 9.16667C15.3733 9.34028 15.2257 9.53559 15.1042 9.7526C14.9826 9.96962 14.8958 10.1389 14.8438 10.2604C14.7917 10.3819 14.7222 10.599 14.6354 10.9115C14.5486 11.224 14.4878 11.4236 14.4531 11.5104L4.76562 43.3854L5.36458 44.0104C4.6875 44.4792 4.0842 45.026 3.55469 45.651C3.02517 46.276 2.56076 46.7882 2.16146 47.1875C1.76215 47.5868 1.28472 47.8646 0.729167 48.0208C0.607639 48.0556 0.455729 48.1727 0.273438 48.3724C0.0911458 48.572 0 48.75 0 48.9062C0 49.2188 0.15625 49.4792 0.46875 49.6875C0.78125 49.8958 1.12847 50 1.51042 50C1.99653 50 2.46528 49.8047 2.91667 49.4141C3.36806 49.0234 3.82378 48.5243 4.28385 47.9167C4.74392 47.309 5.07812 46.9097 5.28646 46.7188C5.73785 46.3194 6.24132 45.9375 6.79688 45.5729L7.47396 46.224L38.2552 35.7812C38.9323 35.5729 39.4531 35.2604 39.8177 34.8438C40.5469 34.0625 40.9245 32.9818 40.9505 31.6016C40.9766 30.2214 40.6858 28.7023 40.0781 27.0443C39.4705 25.3863 38.5634 23.6154 37.3568 21.7318C36.1502 19.8481 34.7222 18.0382 33.0729 16.3021ZM30.2604 19.1406C32.9167 21.849 34.9349 24.4401 36.3151 26.9141C37.6953 29.388 38.0295 31.0156 37.3177 31.7969C36.6059 32.5781 35.0521 32.2917 32.6562 30.9375C30.2604 29.5833 27.7431 27.5608 25.1042 24.8698C22.4306 22.1615 20.4036 19.5747 19.0234 17.1094C17.6432 14.6441 17.309 13.0122 18.0208 12.2135C18.7326 11.4323 20.2908 11.7187 22.6953 13.0729C25.0998 14.4271 27.6215 16.4497 30.2604 19.1406ZM24.5573 29.9219C25.8247 31.0503 27.0833 32.0399 28.3333 32.8906C28.3507 32.9253 28.7847 33.7413 29.6354 35.3385L27.4479 36.0938C26.4062 34.1319 25.4427 32.0747 24.5573 29.9219ZM15.6771 17.9948C16.059 18.8455 16.5885 19.8785 17.2656 21.0938C17.8212 23.5938 18.6936 26.3021 19.8828 29.2188C21.072 32.1354 22.3698 34.8698 23.776 37.4219L21.6146 38.151C19.9826 35.1302 18.559 31.9661 17.3438 28.6589C16.1285 25.3516 15.3819 22.4306 15.1042 19.8958L15.6771 17.9948ZM12.6562 27.526C13.8715 31.4149 15.5816 35.408 17.7865 39.5052L15.651 40.2604C13.9323 36.9618 12.5781 33.8628 11.5885 30.9635L12.6562 27.526ZM9.66146 37.0312C10.3385 38.6285 11.059 40.1476 11.8229 41.5885L9.6875 42.3438C9.44444 41.875 9.09722 41.1545 8.64583 40.1823L9.66146 37.0312ZM28.8021 0L30.1042 3.93229L26.7448 6.38021H30.8854L32.1615 10.3125L33.4375 6.38021H37.5521L34.2188 3.93229L35.5208 0.0260417L32.1615 2.44792L28.8021 0ZM21.5104 0L20.8073 3.56771L24.375 4.27083L25.0781 0.703125L21.5104 0ZM44.974 10.7292L47.8385 7.73438L51.5625 9.55729L49.6354 5.91146L52.526 2.96875L48.4375 3.67188L46.5104 0L45.9375 4.11458L41.849 4.81771L45.5729 6.61458L44.974 10.7292ZM44.0104 17.1354L47.474 19.4271L46.3802 23.4375L49.6094 20.8333L53.0469 23.125L51.6146 19.2188L54.8438 16.6667L50.7031 16.849L49.2448 12.9688L48.1771 16.9531L44.0104 17.1354ZM42.526 7.47396L34.7656 13.8281L35.7292 15L43.4896 8.64583L42.526 7.47396ZM45.2344 19.7656L39.1667 19.2188L39.0104 20.7292L45.1042 21.276L45.2344 19.7656ZM45.8333 27.0573L44.7135 30.5469L48.1771 31.6667L49.3229 28.2031L45.8333 27.0573Z"
        fill="white" fill-opacity="0.1" />
</svg>
    