<svg width="24" height="24" viewBox="0 0 24 24" fill="none" xmlns="http://www.w3.org/2000/svg">
  <path fill-rule="evenodd" clip-rule="evenodd" d="M6.09992 10.7082C10.3949 8.83695 13.2589 7.60331 14.6919 7.00728C18.7834 5.30549 19.6335 5.00987 20.1877 5.0001C20.3095 4.99796 20.5821 5.02816 20.7586 5.17139C20.9076 5.29234 20.9486 5.45571 20.9683 5.57038C20.9879 5.68505 21.0123 5.94626 20.9929 6.15037C20.7712 8.48 19.8118 14.1334 19.3237 16.7426C19.1172 17.8467 18.7105 18.2169 18.3169 18.2531C17.4613 18.3318 16.8116 17.6877 15.9829 17.1445C14.6862 16.2945 13.9537 15.7653 12.695 14.9359C11.2404 13.9773 12.1834 13.4505 13.0124 12.5895C13.2293 12.3642 16.999 8.93536 17.0719 8.62432C17.0811 8.58541 17.0895 8.44041 17.0034 8.36384C16.9172 8.28727 16.7901 8.31345 16.6983 8.33428C16.5683 8.36379 14.4968 9.73297 10.4839 12.4418C9.89591 12.8455 9.36333 13.0423 8.88616 13.032C8.36012 13.0206 7.34822 12.7345 6.59598 12.49C5.67333 12.1901 4.94002 12.0315 5.00388 11.5222C5.03714 11.2569 5.40248 10.9855 6.09992 10.7082Z" fill="url(#paint0_linear_2866_2454)"/>
  <defs>
  <linearGradient id="paint0_linear_2866_2454" x1="13" y1="5" x2="13" y2="18.1613" gradientUnits="userSpaceOnUse">
  <stop stop-color="#2AABEE"/>
  <stop offset="1" stop-color="#229ED9"/>
  </linearGradient>
  </defs>
  </svg>
  