<svg width="21" height="20" viewBox="0 0 21 20" fill="none" xmlns="http://www.w3.org/2000/svg">
    <path fill-rule="evenodd" clip-rule="evenodd"
        d="M3.96243 8.99467C7.72052 7.35733 10.2265 6.2779 11.4804 5.75637C15.0604 4.2673 15.8043 4.00863 16.2892 4.00009C16.3959 3.99821 16.6343 4.02464 16.7887 4.14997C16.9192 4.2558 16.955 4.39875 16.9722 4.49908C16.9894 4.59942 17.0108 4.82798 16.9938 5.00657C16.7998 7.045 15.9603 11.9917 15.5332 14.2748C15.3525 15.2408 14.9967 15.5647 14.6522 15.5964C13.9036 15.6653 13.3351 15.1017 12.6101 14.6264C11.4755 13.8827 10.8345 13.4197 9.73315 12.6939C8.46037 11.8552 9.28546 11.3942 10.0108 10.6408C10.2006 10.4436 13.4991 7.44344 13.5629 7.17128C13.5709 7.13724 13.5783 7.01036 13.503 6.94336C13.4276 6.87636 13.3163 6.89927 13.236 6.91749C13.1223 6.94332 11.3097 8.14135 7.79841 10.5116C7.28392 10.8649 6.81791 11.037 6.40039 11.028C5.9401 11.018 5.05469 10.7677 4.39648 10.5538C3.58916 10.2913 2.94752 10.1526 3.00339 9.70689C3.03249 9.47476 3.35217 9.23735 3.96243 8.99467Z"
        fill="black" />
</svg>