<svg width="36" height="36" viewBox="0 0 36 36" fill="none" xmlns="http://www.w3.org/2000/svg">
    <path
        d="M16.2065 3.63397C16.9402 2.14748 19.0598 2.14748 19.7935 3.63397L22.8247 9.77596C23.1161 10.3663 23.6792 10.7754 24.3306 10.87L31.1087 11.855C32.7491 12.0933 33.4042 14.1093 32.2171 15.2663L27.3124 20.0472C26.8411 20.5067 26.626 21.1687 26.7373 21.8175L27.8951 28.5682C28.1753 30.202 26.4604 31.4479 24.9932 30.6765L18.9307 27.4893C18.348 27.183 17.652 27.183 17.0693 27.4893L11.0068 30.6765C9.53955 31.4479 7.82469 30.202 8.10491 28.5682L9.26275 21.8175C9.37402 21.1687 9.15893 20.5067 8.68755 20.0472L3.78288 15.2663C2.59585 14.1093 3.25087 12.0933 4.89131 11.855L11.6694 10.87C12.3208 10.7754 12.8839 10.3663 13.1753 9.77596L16.2065 3.63397Z"
        fill="#DBD5E4" />
    <path
        d="M19.0873 22.8565L21.7121 22.1599C21.6936 21.9799 21.6286 21.5544 21.4085 21.0537C21.2381 20.6664 21.0093 20.31 20.7281 19.9945C20.3769 19.6 19.9421 19.2682 19.436 19.0083C18.9767 18.7723 18.6054 18.5685 18.3326 18.4023C17.9767 18.1857 17.8545 17.7297 18.0544 17.3641C18.2076 17.0837 18.4272 16.7216 18.707 16.2876C19.0168 15.8074 19.2278 15.3004 19.3343 14.7807C19.4195 14.3657 19.4387 13.9413 19.3913 13.5196C19.3306 12.979 19.176 12.5837 19.1025 12.4201L16.4813 13.1291L13.8565 13.8257C13.875 14.0059 13.9399 14.4312 14.1601 14.9319C14.3305 15.3194 14.5593 15.6757 14.8403 15.9912C15.1917 16.3857 15.6264 16.7175 16.1325 16.9775C16.5919 17.2134 16.9632 17.4172 17.236 17.5834C17.5919 17.8 17.7141 18.256 17.5142 18.6216C17.361 18.9019 17.1414 19.264 16.8615 19.6981C16.5532 20.1763 16.3426 20.681 16.2355 21.1983C16.1499 21.6121 16.13 22.0351 16.1761 22.4557C16.2357 22.9995 16.3922 23.4002 16.4662 23.5655L19.0873 22.8565ZM21.8674 22.3621C21.8673 22.3622 21.8671 22.3622 21.8671 22.3622L19.1482 23.0838L16.4331 23.8182C16.433 23.8183 16.433 23.8183 16.4329 23.8183C16.3803 23.8324 16.3249 23.8084 16.299 23.7606C16.288 23.7401 16.0291 23.254 15.9436 22.4923C15.8935 22.0459 15.9137 21.5968 16.0038 21.1575C16.1164 20.6093 16.3384 20.0753 16.664 19.5705C16.9407 19.1412 17.1574 18.7839 17.3079 18.5086C17.4474 18.2537 17.3621 17.9354 17.1138 17.7843C16.8459 17.6212 16.4796 17.42 16.0252 17.1866C15.4908 16.9122 15.0316 16.5608 14.66 16.1423C14.3623 15.8069 14.1203 15.4281 13.9404 15.0165C13.6337 14.3143 13.6148 13.7637 13.6142 13.7406C13.6126 13.6861 13.6487 13.6378 13.7012 13.6237C13.7014 13.6236 13.7014 13.6236 13.7014 13.6236L16.4204 12.9019L19.1355 12.1676C19.1355 12.1676 19.1356 12.1675 19.1358 12.1675C19.1883 12.1534 19.2437 12.1772 19.2696 12.2252C19.2806 12.2456 19.5396 12.7318 19.6249 13.4933C19.6751 13.9397 19.6549 14.3888 19.5647 14.8281C19.4522 15.3763 19.2302 15.9103 18.9046 16.4151C18.6278 16.8444 18.4111 17.2016 18.2607 17.477C18.1212 17.732 18.2065 18.0503 18.4548 18.2013C18.7227 18.3646 19.089 18.5655 19.5434 18.7989C20.0777 19.0733 20.537 19.4248 20.9085 19.8433C21.2062 20.1786 21.4483 20.5575 21.6281 20.9691C21.9349 21.6715 21.9538 22.2221 21.9544 22.2452C21.956 22.2996 21.92 22.348 21.8674 22.3621Z"
        fill="black" fill-opacity="0.6" />
    <path
        d="M19.1034 22.9163L21.5887 22.2565C21.3892 21.7627 20.562 21.2857 19.8306 20.864C19.1995 20.5001 18.6033 20.1563 18.4661 19.8405C18.2764 19.4041 17.94 18.3776 17.7974 17.8433C17.7031 17.4902 17.7749 17.1509 17.9941 16.9127C18.219 16.6682 18.4253 16.3449 18.5247 16.1896C18.535 16.1732 18.5444 16.1586 18.5525 16.1461C18.6921 15.9295 18.8105 15.7047 18.9042 15.4779C19.0291 15.1759 19.0388 14.9695 18.9328 14.8647C18.7639 14.6975 18.2978 14.7699 17.5852 15.0739C17.1122 15.2757 16.5816 15.3671 16.0506 15.3386C15.2121 15.2933 14.9695 15.4248 14.9138 15.5429C14.8693 15.637 14.9235 15.7684 15.0747 15.9336C15.3827 16.2697 15.7598 16.5537 16.1956 16.7776C16.4144 16.89 16.7342 17.0452 17.0148 17.1465C17.3311 17.2606 17.5644 17.5222 17.6715 17.883C17.7685 18.2094 17.8605 18.6349 17.958 19.0853C18.0227 19.3846 18.0898 19.6942 18.1599 19.9811C18.2646 20.4093 18.2103 20.8355 17.9937 21.2845C17.8055 21.6748 17.5173 22.0341 17.2632 22.3511C16.893 22.8126 16.5722 23.2127 16.6215 23.5874L19.1034 22.9163ZM21.6293 22.2987C21.6293 22.2987 21.6293 22.2987 21.6292 22.2987L19.1166 22.9657L16.6073 23.6443C16.6004 23.6462 16.5932 23.645 16.587 23.6412C16.581 23.6375 16.5768 23.6311 16.5756 23.6242C16.502 23.2185 16.8362 22.8017 17.2232 22.3191C17.7461 21.667 18.3389 20.9279 18.1102 19.9933C18.0399 19.7057 17.9729 19.3958 17.908 19.0962C17.8108 18.6466 17.7189 18.222 17.6225 17.8976C17.5201 17.5526 17.2981 17.3031 16.9974 17.1946C16.7143 17.0924 16.3925 16.9362 16.1723 16.8231C15.731 16.5964 15.349 16.3087 15.037 15.9681C14.8704 15.7862 14.8133 15.6357 14.8676 15.5211C14.9584 15.3286 15.3574 15.2499 16.0534 15.2874C16.5765 15.3156 17.0993 15.2255 17.565 15.0268C18.309 14.7095 18.7813 14.6427 18.9688 14.8283C19.091 14.9493 19.085 15.1743 18.9515 15.4975C18.8565 15.7271 18.7368 15.9546 18.5954 16.1739C18.5873 16.1862 18.5781 16.2008 18.5677 16.2171C18.4677 16.3737 18.2596 16.6995 18.0317 16.9473C17.8246 17.1725 17.7572 17.4943 17.8468 17.8303C17.9889 18.3627 18.3241 19.3855 18.513 19.8202C18.6436 20.1205 19.2326 20.4601 19.8561 20.8197C20.6447 21.2744 21.4601 21.7445 21.6467 22.2654C21.6491 22.272 21.6486 22.2796 21.6453 22.2859C21.642 22.2922 21.6362 22.2968 21.6293 22.2987Z"
        fill="black" fill-opacity="0.6" />
    <mask id="mask0_3084_2883" style="mask-type:luminance" maskUnits="userSpaceOnUse" x="12" y="10"
        width="8" height="4">
        <path d="M12.5 12.687L19.706 10.7562L19.9577 11.6954L12.7517 13.6263L12.5 12.687Z"
            fill="white" />
    </mask>
    <g mask="url(#mask0_3084_2883)">
        <path
            d="M12.9946 12.7976C12.8807 12.8281 12.8129 12.9456 12.8434 13.0596L12.861 13.1253C12.8915 13.2393 13.0091 13.3073 13.123 13.2768L19.4627 11.578C19.5766 11.5475 19.6444 11.4299 19.6139 11.3159L19.5963 11.2501C19.5657 11.1362 19.4482 11.0683 19.3343 11.0988L12.9946 12.7976ZM19.5236 11.8052L13.1839 13.504C12.9446 13.5681 12.6979 13.4255 12.6338 13.1862L12.6162 13.1205C12.5521 12.8811 12.6945 12.6344 12.9337 12.5703L19.2734 10.8716C19.5125 10.8075 19.7593 10.95 19.8235 11.1893L19.8411 11.255C19.9052 11.4943 19.7627 11.7412 19.5236 11.8052Z"
            fill="black" fill-opacity="0.6" />
    </g>
    <path
        d="M13.384 13.4522C13.3295 13.4667 13.2972 13.5228 13.3118 13.5773L13.3234 13.6208C13.338 13.6752 13.3941 13.7077 13.4485 13.6931L19.39 12.1011C19.4444 12.0865 19.4767 12.0304 19.4621 11.9759L19.4505 11.9324C19.4359 11.8779 19.3799 11.8456 19.3254 11.8602L13.384 13.4522ZM19.4508 12.3282L13.5094 13.9202C13.3298 13.9683 13.1444 13.8614 13.0962 13.6817L13.0846 13.6382C13.0364 13.4584 13.1435 13.2731 13.3231 13.225L19.2645 11.6329C19.4441 11.5848 19.6294 11.6918 19.6775 11.8716L19.6892 11.9151C19.7373 12.0948 19.6304 12.2801 19.4508 12.3282Z"
        fill="black" fill-opacity="0.6" />
    <mask id="mask1_3084_2883" style="mask-type:luminance" maskUnits="userSpaceOnUse" x="15" y="22"
        width="9" height="4">
        <path d="M15.6128 24.3037L22.8188 22.3729L23.0706 23.3124L15.8645 25.2432L15.6128 24.3037Z"
            fill="white" />
    </mask>
    <g mask="url(#mask1_3084_2883)">
        <path
            d="M16.1091 24.4206C15.9951 24.4511 15.9273 24.5687 15.9579 24.6827L15.9755 24.7485C16.0061 24.8625 16.1235 24.9304 16.2375 24.8999L22.5772 23.2012C22.6911 23.1706 22.7589 23.0531 22.7284 22.9391L22.7108 22.8733C22.6802 22.7593 22.5627 22.6914 22.4488 22.7219L16.1091 24.4206ZM22.6381 23.4283L16.2983 25.127C16.0591 25.1911 15.8124 25.0486 15.7483 24.8094L15.7307 24.7436C15.6665 24.5042 15.8089 24.2574 16.0482 24.1933L22.3879 22.4946C22.627 22.4306 22.8738 22.573 22.938 22.8124L22.9556 22.8782C23.0197 23.1174 22.8772 23.3642 22.6381 23.4283Z"
            fill="black" fill-opacity="0.6" />
    </g>
    <path
        d="M16.1839 23.9019C16.1295 23.9165 16.0972 23.9725 16.1117 24.0269L16.1234 24.0706C16.138 24.1249 16.194 24.1573 16.2484 24.1427L22.1899 22.5507C22.2443 22.5361 22.2767 22.48 22.2621 22.4257L22.2504 22.3821C22.2358 22.3277 22.1798 22.2953 22.1254 22.3099L16.1839 23.9019ZM22.2508 22.778L16.3093 24.37C16.1297 24.4181 15.9443 24.311 15.8962 24.1315L15.8845 24.0878C15.8364 23.9082 15.9434 23.7228 16.123 23.6747L22.0645 22.0827C22.2441 22.0345 22.4293 22.1416 22.4775 22.3212L22.4892 22.3649C22.5373 22.5444 22.4304 22.7298 22.2508 22.778Z"
        fill="black" fill-opacity="0.6" />
</svg>
    