<svg width="21" height="20" viewBox="0 0 21 20" fill="none" xmlns="http://www.w3.org/2000/svg">
    <path
        d="M15.7267 3H6.27223C4.53388 3 3.43207 4.87516 4.30663 6.39106L10.1416 16.5047C10.5224 17.1651 11.4766 17.1651 11.8574 16.5047L17.6935 6.39106C18.5669 4.87758 17.4651 3 15.7279 3H15.7267ZM10.1369 13.4718L8.86611 11.0124L5.79989 5.52841C5.59762 5.17741 5.84746 4.72762 6.27104 4.72762H10.1357V13.473L10.1369 13.4718ZM16.1967 5.52723L13.1317 11.0136L11.8609 13.4718V4.72643H15.7256C16.1491 4.72643 16.399 5.17623 16.1967 5.52723Z"
        fill="url(#paint0_linear_3082_2758)" />
    <defs>
        <linearGradient id="paint0_linear_3082_2758" x1="3.99994" y1="3" x2="17.9999" y2="17"
            gradientUnits="userSpaceOnUse">
            <stop stop-color="#2D83EC" />
            <stop offset="1" stop-color="#1AC9FF" />
        </linearGradient>
    </defs>
</svg>
    