<svg width="59" height="56" viewBox="0 0 59 56" fill="none" xmlns="http://www.w3.org/2000/svg">
    <path
        d="M21.7941 11C21.3393 11 20.9706 11.3917 20.9706 11.875V18.4377H15.8235C15.3687 18.4377 15 18.8294 15 19.3127V21.0627C15 21.5459 15.3687 21.9377 15.8235 21.9377H20.9706V37.2498H20.976C21.1386 42.1115 24.8992 45.9998 29.5146 45.9998C29.618 45.9998 29.7209 45.9978 29.8234 45.9939V45.9998H30.2352C30.69 45.9998 31.0587 45.608 31.0587 45.1248V44.031C31.0587 43.5478 30.69 43.156 30.2352 43.156H30.0293V43.1552C26.9394 43.0987 24.4315 40.5044 24.2726 37.2498H24.2647V21.9377H28.9999C29.4547 21.9377 29.8234 21.5459 29.8234 21.0627V19.3127C29.8234 18.8294 29.4547 18.4377 28.9999 18.4377H24.2647V11.875C24.2647 11.3917 23.8959 11 23.4411 11H21.7941Z"
        fill="url(#paint0_linear_10647_7593)" />
    <path
        d="M27.7085 27.6252H32.4438V27.6177C33.9395 27.5096 35.1202 26.2321 35.1202 24.672C35.1202 23.112 33.9395 21.8345 32.4438 21.7263V21.7189H31.8261C31.3713 21.7189 31.0026 21.3272 31.0026 20.8439V19.3127C31.0026 18.8295 31.3713 18.4377 31.8261 18.4377H32.4438C35.5138 18.4377 38.0025 21.131 38.0025 24.4533C38.0025 26.2183 37.3001 27.8058 36.1813 28.9062C39.2989 30.2084 41.5025 33.4045 41.5025 37.1407C41.5025 42.0337 37.7234 46 33.0614 46C32.6066 46 32.2379 45.6082 32.2379 45.125V44.0313C32.2379 43.548 32.6066 43.1563 33.0614 43.1563L33.0614 43.1554C36.1408 43.097 38.6202 40.4265 38.6202 37.1407C38.6202 33.8549 36.1408 31.1844 33.0614 31.1261L33.0614 31.1252H27.7085C27.2537 31.1252 26.885 30.7334 26.885 30.2502V28.5002C26.885 28.017 27.2537 27.6252 27.7085 27.6252Z"
        fill="url(#paint1_linear_10647_7593)" />
    <path fill-rule="evenodd" clip-rule="evenodd"
        d="M45 48.4001C48.5346 48.4001 51.4 45.5347 51.4 42.0001C51.4 38.4655 48.5346 35.6001 45 35.6001C41.4654 35.6001 38.6 38.4655 38.6 42.0001C38.6 45.5347 41.4654 48.4001 45 48.4001ZM47.9657 40.9658C48.2781 40.6534 48.2781 40.1468 47.9657 39.8344C47.6532 39.522 47.1467 39.522 46.8343 39.8344L44.2 42.4687L43.1657 41.4344C42.8532 41.122 42.3467 41.122 42.0343 41.4344C41.7219 41.7468 41.7219 42.2534 42.0343 42.5658L43.6343 44.1658C43.9467 44.4782 44.4532 44.4782 44.7657 44.1658L47.9657 40.9658Z"
        fill="#34D399" />
    <defs>
        <linearGradient id="paint0_linear_10647_7593" x1="15" y1="11" x2="49.6441" y2="23.5816"
            gradientUnits="userSpaceOnUse">
            <stop stop-color="#7535C4" />
            <stop offset="1" stop-color="#351857" />
        </linearGradient>
        <linearGradient id="paint1_linear_10647_7593" x1="15" y1="11" x2="49.6441" y2="23.5816"
            gradientUnits="userSpaceOnUse">
            <stop stop-color="#7535C4" />
            <stop offset="1" stop-color="#351857" />
        </linearGradient>
    </defs>
</svg>