<svg width="57" height="56" viewBox="0 0 57 56" fill="none" xmlns="http://www.w3.org/2000/svg">
<path d="M22.2941 11C21.8393 11 21.4706 11.3917 21.4706 11.875V18.4377H16.3235C15.8687 18.4377 15.5 18.8294 15.5 19.3127V21.0627C15.5 21.5459 15.8687 21.9377 16.3235 21.9377H21.4706V37.2498H21.476C21.6386 42.1115 25.3992 45.9998 30.0146 45.9998C30.118 45.9998 30.2209 45.9978 30.3234 45.9939V45.9998H30.7352C31.19 45.9998 31.5587 45.608 31.5587 45.1248V44.031C31.5587 43.5478 31.19 43.156 30.7352 43.156H30.5293V43.1552C27.4394 43.0987 24.9315 40.5044 24.7726 37.2498H24.7647V21.9377H29.4999C29.9547 21.9377 30.3234 21.5459 30.3234 21.0627V19.3127C30.3234 18.8294 29.9547 18.4377 29.4999 18.4377H24.7647V11.875C24.7647 11.3917 24.3959 11 23.9411 11H22.2941Z" fill="white" fill-opacity="0.4"/>
<path d="M28.2085 27.6252H32.9438V27.6177C34.4395 27.5096 35.6202 26.2321 35.6202 24.672C35.6202 23.112 34.4395 21.8345 32.9438 21.7263V21.7189H32.3261C31.8713 21.7189 31.5026 21.3272 31.5026 20.8439V19.3127C31.5026 18.8295 31.8713 18.4377 32.3261 18.4377H32.9438C36.0138 18.4377 38.5025 21.131 38.5025 24.4533C38.5025 26.2183 37.8001 27.8058 36.6813 28.9062C39.7989 30.2084 42.0025 33.4045 42.0025 37.1407C42.0025 42.0337 38.2234 46 33.5614 46C33.1066 46 32.7379 45.6082 32.7379 45.125V44.0313C32.7379 43.548 33.1066 43.1563 33.5614 43.1563L33.5614 43.1554C36.6408 43.097 39.1202 40.4265 39.1202 37.1407C39.1202 33.8549 36.6408 31.1844 33.5614 31.1261L33.5614 31.1252H28.2085C27.7537 31.1252 27.385 30.7334 27.385 30.2502V28.5002C27.385 28.017 27.7537 27.6252 28.2085 27.6252Z" fill="white" fill-opacity="0.4"/>
<path fill-rule="evenodd" clip-rule="evenodd" d="M45 48.3996C48.5346 48.3996 51.4 45.5342 51.4 41.9996C51.4 38.465 48.5346 35.5996 45 35.5996C41.4654 35.5996 38.6 38.465 38.6 41.9996C38.6 45.5342 41.4654 48.3996 45 48.3996ZM47.9657 40.9653C48.2781 40.6529 48.2781 40.1463 47.9657 39.8339C47.6532 39.5215 47.1467 39.5215 46.8343 39.8339L44.2 42.4682L43.1657 41.4339C42.8532 41.1215 42.3467 41.1215 42.0343 41.4339C41.7219 41.7463 41.7219 42.2529 42.0343 42.5653L43.6343 44.1653C43.9467 44.4777 44.4532 44.4777 44.7657 44.1653L47.9657 40.9653Z" fill="#34D399"/>
</svg>
