<svg width="43" height="40" viewBox="0 0 43 40" fill="none" xmlns="http://www.w3.org/2000/svg">
<mask id="path-1-inside-1_9647_8153" fill="white">
<path d="M0.759277 20.7407C0.759277 9.28595 10.0452 0 21.5 0V0C32.9548 0 42.2408 9.28595 42.2408 20.7407V40H0.759277V20.7407Z"/>
</mask>
<g filter="url(#filter0_i_9647_8153)">
<path d="M0.759277 20.7407C0.759277 9.28595 10.0452 0 21.5 0V0C32.9548 0 42.2408 9.28595 42.2408 20.7407V40H0.759277V20.7407Z" fill="#C0ABD9"/>
</g>
<path d="M-1.24072 20.7407C-1.24072 8.18138 8.94065 -2 21.5 -2C34.0594 -2 44.2408 8.18138 44.2408 20.7407H40.2408C40.2408 10.3905 31.8502 2 21.5 2C11.1498 2 2.75928 10.3905 2.75928 20.7407H-1.24072ZM42.2408 40H0.759277H42.2408ZM-1.24072 40V20.7407C-1.24072 8.18138 8.94065 -2 21.5 -2V2C11.1498 2 2.75928 10.3905 2.75928 20.7407V40H-1.24072ZM21.5 -2C34.0594 -2 44.2408 8.18138 44.2408 20.7407V40H40.2408V20.7407C40.2408 10.3905 31.8502 2 21.5 2V-2Z" fill="white" fill-opacity="0.4" mask="url(#path-1-inside-1_9647_8153)"/>
<ellipse cx="14.0926" cy="17.0367" rx="2.22222" ry="2.22222" fill="white"/>
<ellipse cx="30.389" cy="17.0367" rx="2.22222" ry="2.22222" fill="white"/>
<path d="M19 24.5C19.3333 25.1667 20.4 26.5 22 26.5C23.6 26.5 24.8333 25.1667 25 24.5" stroke="white"/>
<defs>
<filter id="filter0_i_9647_8153" x="0.759277" y="0" width="41.4814" height="40" filterUnits="userSpaceOnUse" color-interpolation-filters="sRGB">
<feFlood flood-opacity="0" result="BackgroundImageFix"/>
<feBlend mode="normal" in="SourceGraphic" in2="BackgroundImageFix" result="shape"/>
<feColorMatrix in="SourceAlpha" type="matrix" values="0 0 0 0 0 0 0 0 0 0 0 0 0 0 0 0 0 0 127 0" result="hardAlpha"/>
<feOffset/>
<feGaussianBlur stdDeviation="9"/>
<feComposite in2="hardAlpha" operator="arithmetic" k2="-1" k3="1"/>
<feColorMatrix type="matrix" values="0 0 0 0 0.180392 0 0 0 0 0.180392 0 0 0 0 0.180392 0 0 0 0.08 0"/>
<feBlend mode="normal" in2="shape" result="effect1_innerShadow_9647_8153"/>
</filter>
</defs>
</svg>
