<svg width="16" height="16" viewBox="0 0 16 16" fill="none" xmlns="http://www.w3.org/2000/svg">
    <mask id="mask0_9021_696" style="mask-type:luminance" maskUnits="userSpaceOnUse" x="3" y="3"
        width="11" height="11">
        <path d="M14 3H3V14H14V3Z" fill="white" />
    </mask>
    <g mask="url(#mask0_9021_696)">
        <path
            d="M13.3125 8.60035C13.2594 11.2106 11.1235 13.3136 8.50053 13.3136C5.84422 13.3136 3.6875 11.1568 3.6875 8.50053C3.6875 5.84422 5.84422 3.6875 8.50053 3.6875C8.84331 3.6875 9.17782 3.72341 9.50039 3.79165"
            stroke="white" stroke-linecap="round" />
        <path
            d="M13.3125 8.60035C13.2594 11.2106 11.1235 13.3136 8.50053 13.3136C5.84422 13.3136 3.6875 11.1568 3.6875 8.50053C3.6875 5.84422 5.84422 3.6875 8.50053 3.6875C8.84331 3.6875 9.17782 3.72341 9.50039 3.79165"
            stroke="white" stroke-linecap="round" />
        <path
            d="M13.3125 8.60035C13.2594 11.2106 11.1235 13.3136 8.50053 13.3136C5.84422 13.3136 3.6875 11.1568 3.6875 8.50053C3.6875 5.84422 5.84422 3.6875 8.50053 3.6875C8.84331 3.6875 9.17782 3.72341 9.50039 3.79165"
            stroke="white" stroke-linecap="round" />
        <path d="M6.59717 7.5235L8.44624 9.48135L13.2865 4.3692" stroke="white"
            stroke-linecap="round" stroke-linejoin="round" />
        <path d="M6.59717 7.5235L8.44624 9.48135L13.2865 4.3692" stroke="#33328B"
            stroke-linecap="round" stroke-linejoin="round" />
        <path d="M6.59717 7.5235L8.44624 9.48135L13.2865 4.3692" stroke="white"
            stroke-linecap="round" stroke-linejoin="round" />
        <path d="M6.59717 7.5235L8.44624 9.48135L13.2865 4.3692" stroke="white"
            stroke-linecap="round" stroke-linejoin="round" />
        <path d="M6.59717 7.5235L8.44624 9.48135L13.2865 4.3692" stroke="white"
            stroke-linecap="round" stroke-linejoin="round" />
    </g>
</svg>