<svg width="16" height="16" viewBox="0 0 16 16" fill="none" xmlns="http://www.w3.org/2000/svg">
    <g clip-path="url(#clip0_5078_37010)">
    <mask id="mask0_5078_37010" style="mask-type:luminance" maskUnits="userSpaceOnUse" x="0" y="0" width="16" height="16">
    <path d="M16 0H0V16H16V0Z" fill="white"/>
    </mask>
    <g mask="url(#mask0_5078_37010)">
    <path d="M15 8.14596C14.9227 11.9428 11.8161 15.0015 8.00077 15.0015C4.13705 15.0015 1 11.8645 1 8.00077C1 4.13704 4.13705 1 8.00077 1C8.49937 1 8.98592 1.05223 9.45511 1.1515" stroke="white" stroke-width="1.5" stroke-linecap="round"/>
    <path d="M15 8.14596C14.9227 11.9428 11.8161 15.0015 8.00077 15.0015C4.13705 15.0015 1 11.8645 1 8.00077C1 4.13704 4.13705 1 8.00077 1C8.49937 1 8.98592 1.05223 9.45511 1.1515" stroke="#65C467" stroke-width="1.5" stroke-linecap="round"/>
    <path d="M15 8.14596C14.9227 11.9428 11.8161 15.0015 8.00077 15.0015C4.13705 15.0015 1 11.8645 1 8.00077C1 4.13704 4.13705 1 8.00077 1C8.49937 1 8.98592 1.05223 9.45511 1.1515" stroke="#65C467" stroke-width="1.5" stroke-linecap="round"/>
    <path d="M5.2323 6.57967L7.92186 9.42744L14.9622 1.99159" stroke="white" stroke-width="1.5" stroke-linecap="round" stroke-linejoin="round"/>
    <path d="M5.2323 6.57967L7.92186 9.42744L14.9622 1.99159" stroke="#33328B" stroke-width="1.5" stroke-linecap="round" stroke-linejoin="round"/>
    <path d="M5.2323 6.57967L7.92186 9.42744L14.9622 1.99159" stroke="#65C467" stroke-width="1.5" stroke-linecap="round" stroke-linejoin="round"/>
    <path d="M5.2323 6.57967L7.92186 9.42744L14.9622 1.99159" stroke="#65C467" stroke-width="1.5" stroke-linecap="round" stroke-linejoin="round"/>
    <path d="M5.2323 6.57967L7.92186 9.42744L14.9622 1.99159" stroke="#65C467" stroke-width="1.5" stroke-linecap="round" stroke-linejoin="round"/>
    </g>
    </g>
    <defs>
    <clipPath id="clip0_5078_37010">
    <rect width="16" height="16" fill="white"/>
    </clipPath>
    </defs>
    </svg>
    