<svg width="856" height="1626" viewBox="0 0 856 1626" fill="none" xmlns="http://www.w3.org/2000/svg">
<mask id="mask0_7266_3190" style="mask-type:luminance" maskUnits="userSpaceOnUse" x="0" y="0" width="856" height="1626">
<path d="M856 1626H0V0H856V1626Z" fill="white"/>
</mask>
<g mask="url(#mask0_7266_3190)">
<path d="M856 1626V0H0V1626H856Z" fill="#FEF5BD"/>
<mask id="mask1_7266_3190" style="mask-type:luminance" maskUnits="userSpaceOnUse" x="0" y="0" width="856" height="1626">
<path d="M856 1626V0H0V1626H856Z" fill="url(#paint0_linear_7266_3190)"/>
</mask>
<g mask="url(#mask1_7266_3190)">
<path d="M856 1626V0H0V1626H856Z" fill="url(#paint1_linear_7266_3190)"/>
</g>
<g opacity="0.6">
<mask id="mask2_7266_3190" style="mask-type:luminance" maskUnits="userSpaceOnUse" x="426" y="701" width="360" height="1223">
<path d="M785.066 1879.85L530.832 1923.77L426.58 708.574L464.955 701.614L785.066 1879.85Z" fill="url(#paint2_linear_7266_3190)"/>
</mask>
<g mask="url(#mask2_7266_3190)">
<path d="M785.066 1879.85L530.832 1923.77L426.58 708.574L464.955 701.614L785.066 1879.85Z" fill="url(#paint3_linear_7266_3190)"/>
</g>
</g>
<g opacity="0.6">
<mask id="mask3_7266_3190" style="mask-type:luminance" maskUnits="userSpaceOnUse" x="476" y="676" width="805" height="1091">
<path d="M1280.45 1622.76L1066.06 1766.29L476.558 698.555L508.784 676.588L1280.45 1622.76Z" fill="url(#paint4_linear_7266_3190)"/>
</mask>
<g mask="url(#mask3_7266_3190)">
<path d="M1280.45 1622.76L1066.06 1766.29L476.558 698.555L508.784 676.588L1280.45 1622.76Z" fill="url(#paint5_linear_7266_3190)"/>
</g>
</g>
<g opacity="0.6">
<mask id="mask4_7266_3190" style="mask-type:luminance" maskUnits="userSpaceOnUse" x="518" y="635" width="1111" height="770">
<path d="M1628.44 1186.4L1490.96 1404.72L518.141 669.073L538.646 635.898L1628.44 1186.4Z" fill="url(#paint6_linear_7266_3190)"/>
</mask>
<g mask="url(#mask4_7266_3190)">
<path d="M1628.44 1186.4L1490.96 1404.72L518.141 669.073L538.646 635.898L1628.44 1186.4Z" fill="url(#paint7_linear_7266_3190)"/>
</g>
</g>
<g opacity="0.6">
<mask id="mask5_7266_3190" style="mask-type:luminance" maskUnits="userSpaceOnUse" x="544" y="586" width="1225" height="316">
<path d="M1768.86 646.23L1732.07 901.594L544.137 625.228L549.376 586.58L1768.86 646.23Z" fill="url(#paint8_linear_7266_3190)"/>
</mask>
<g mask="url(#mask5_7266_3190)">
<path d="M1768.86 646.23L1732.07 901.594L544.137 625.228L549.376 586.58L1768.86 646.23Z" fill="url(#paint9_linear_7266_3190)"/>
</g>
</g>
<g opacity="0.6">
<mask id="mask6_7266_3190" style="mask-type:luminance" maskUnits="userSpaceOnUse" x="539" y="95" width="1209" height="480">
<path d="M1677.44 95.6459L1747.69 343.896L550.051 574.6L539.118 537.163L1677.44 95.6459Z" fill="url(#paint10_linear_7266_3190)"/>
</mask>
<g mask="url(#mask6_7266_3190)">
<path d="M1677.44 95.6459L1747.69 343.896L550.051 574.6L539.118 537.163L1677.44 95.6459Z" fill="url(#paint11_linear_7266_3190)"/>
</g>
</g>
<g opacity="0.6">
<mask id="mask7_7266_3190" style="mask-type:luminance" maskUnits="userSpaceOnUse" x="509" y="-371" width="1027" height="897">
<path d="M1369.97 -370.152L1535.13 -171.94L534.863 525.942L509.648 496.189L1369.97 -370.152Z" fill="url(#paint12_linear_7266_3190)"/>
</mask>
<g mask="url(#mask7_7266_3190)">
<path d="M1369.97 -370.152L1535.13 -171.94L534.863 525.942L509.648 496.189L1369.97 -370.152Z" fill="url(#paint13_linear_7266_3190)"/>
</g>
</g>
<g opacity="0.6">
<mask id="mask8_7266_3190" style="mask-type:luminance" maskUnits="userSpaceOnUse" x="466" y="-671" width="666" height="1159">
<path d="M899.632 -670.623L1131.13 -556.721L501.196 487.67L466.059 470.744L899.632 -670.623Z" fill="url(#paint14_linear_7266_3190)"/>
</mask>
<g mask="url(#mask8_7266_3190)">
<path d="M899.632 -670.623L1131.13 -556.721L501.196 487.67L466.059 470.744L899.632 -670.623Z" fill="url(#paint15_linear_7266_3190)"/>
</g>
</g>
<g opacity="0.6">
<mask id="mask9_7266_3190" style="mask-type:luminance" maskUnits="userSpaceOnUse" x="347" y="-754" width="259" height="1221">
<path d="M347.742 -753.812L605.553 -743.916L454.874 466.399L415.89 465.229L347.742 -753.812Z" fill="url(#paint16_linear_7266_3190)"/>
</mask>
<g mask="url(#mask9_7266_3190)">
<path d="M347.742 -753.812L605.553 -743.916L454.874 466.399L415.89 465.229L347.742 -753.812Z" fill="url(#paint17_linear_7266_3190)"/>
</g>
</g>
<g opacity="0.6">
<mask id="mask10_7266_3190" style="mask-type:luminance" maskUnits="userSpaceOnUse" x="-191" y="-702" width="595" height="1183">
<path d="M-190.269 -605.336L49.2774 -701.156L403.904 465.809L367.815 480.595L-190.269 -605.336Z" fill="url(#paint18_linear_7266_3190)"/>
</mask>
<g mask="url(#mask10_7266_3190)">
<path d="M-190.269 -605.336L49.2774 -701.156L403.904 465.809L367.815 480.595L-190.269 -605.336Z" fill="url(#paint19_linear_7266_3190)"/>
</g>
</g>
<g opacity="0.6">
<mask id="mask11_7266_3190" style="mask-type:luminance" maskUnits="userSpaceOnUse" x="-622" y="-436" width="980" height="951">
<path d="M-621.377 -250.866L-441.514 -435.835L357.101 486L330.147 514.187L-621.377 -250.866Z" fill="url(#paint20_linear_7266_3190)"/>
</mask>
<g mask="url(#mask11_7266_3190)">
<path d="M-621.377 -250.866L-441.514 -435.835L357.101 486L330.147 514.187L-621.377 -250.866Z" fill="url(#paint21_linear_7266_3190)"/>
</g>
</g>
<g opacity="0.6">
<mask id="mask12_7266_3190" style="mask-type:luminance" maskUnits="userSpaceOnUse" x="-872" y="6" width="1195" height="555">
<path d="M-871.038 248.305L-781.958 6.17026L322.558 523.483L309.398 560.196L-871.038 248.305Z" fill="url(#paint22_linear_7266_3190)"/>
</mask>
<g mask="url(#mask12_7266_3190)">
<path d="M-871.038 248.305L-781.958 6.17026L322.558 523.483L309.398 560.196L-871.038 248.305Z" fill="url(#paint23_linear_7266_3190)"/>
</g>
</g>
<g opacity="0.6">
<mask id="mask13_7266_3190" style="mask-type:luminance" maskUnits="userSpaceOnUse" x="-914" y="548" width="1224" height="258">
<path d="M-896.083 805.866L-913.19 548.434L306.246 571.775L309.156 610.667L-896.083 805.866Z" fill="url(#paint24_linear_7266_3190)"/>
</mask>
<g mask="url(#mask13_7266_3190)">
<path d="M-896.083 805.866L-913.19 548.434L306.246 571.775L309.156 610.667L-896.083 805.866Z" fill="url(#paint25_linear_7266_3190)"/>
</g>
</g>
<g opacity="0.6">
<mask id="mask14_7266_3190" style="mask-type:luminance" maskUnits="userSpaceOnUse" x="-813" y="622" width="1143" height="704">
<path d="M-692.182 1325.41L-812.517 1097.19L310.986 622.527L329.464 656.873L-692.182 1325.41Z" fill="url(#paint26_linear_7266_3190)"/>
</mask>
<g mask="url(#mask14_7266_3190)">
<path d="M-692.182 1325.41L-812.517 1097.19L310.986 622.527L329.464 656.873L-692.182 1325.41Z" fill="url(#paint27_linear_7266_3190)"/>
</g>
</g>
<g opacity="0.6">
<mask id="mask15_7266_3190" style="mask-type:luminance" maskUnits="userSpaceOnUse" x="-498" y="666" width="865" height="1052">
<path d="M-294.592 1717.1L-497.348 1557.56L335.959 666.963L366.809 690.823L-294.592 1717.1Z" fill="url(#paint28_linear_7266_3190)"/>
</mask>
<g mask="url(#mask15_7266_3190)">
<path d="M-294.592 1717.1L-497.348 1557.56L335.959 666.963L366.809 690.823L-294.592 1717.1Z" fill="url(#paint29_linear_7266_3190)"/>
</g>
</g>
<g opacity="0.6">
<mask id="mask16_7266_3190" style="mask-type:luminance" maskUnits="userSpaceOnUse" x="-23" y="697" width="438" height="1217">
<path d="M227.941 1913.22L-22.1781 1849.94L376.847 697.399L414.735 706.65L227.941 1913.22Z" fill="url(#paint30_linear_7266_3190)"/>
</mask>
<g mask="url(#mask16_7266_3190)">
<path d="M227.941 1913.22L-22.1781 1849.94L376.847 697.399L414.735 706.65L227.941 1913.22Z" fill="url(#paint31_linear_7266_3190)"/>
</g>
</g>
</g>
<defs>
<linearGradient id="paint0_linear_7266_3190" x1="430" y1="1623" x2="426" y2="83" gradientUnits="userSpaceOnUse">
<stop stop-color="white" stop-opacity="0.85"/>
<stop offset="0.4" stop-color="white" stop-opacity="0.575"/>
<stop offset="0.8" stop-color="white" stop-opacity="0.3"/>
<stop offset="0.9" stop-color="white" stop-opacity="0.15"/>
<stop offset="1" stop-color="white" stop-opacity="0"/>
</linearGradient>
<linearGradient id="paint1_linear_7266_3190" x1="430" y1="1623" x2="426" y2="83" gradientUnits="userSpaceOnUse">
<stop stop-color="#EBDA70"/>
<stop offset="0.48" stop-color="#F8E152"/>
<stop offset="0.8" stop-color="#FFDD00"/>
<stop offset="0.9" stop-color="#FCDB03"/>
<stop offset="1" stop-color="#F5D505"/>
</linearGradient>
<linearGradient id="paint2_linear_7266_3190" x1="448.878" y1="711.276" x2="558.901" y2="1364.08" gradientUnits="userSpaceOnUse">
<stop stop-color="white"/>
<stop offset="0.5" stop-color="white" stop-opacity="0.5"/>
<stop offset="1" stop-color="white" stop-opacity="0"/>
</linearGradient>
<linearGradient id="paint3_linear_7266_3190" x1="448.878" y1="711.276" x2="558.901" y2="1364.08" gradientUnits="userSpaceOnUse">
<stop stop-color="white"/>
<stop offset="0.13" stop-color="white"/>
<stop offset="0.5" stop-color="white"/>
<stop offset="0.75" stop-color="white"/>
<stop offset="1" stop-color="white"/>
</linearGradient>
<linearGradient id="paint4_linear_7266_3190" x1="498.027" y1="691.953" x2="864.058" y2="1243.57" gradientUnits="userSpaceOnUse">
<stop stop-color="white"/>
<stop offset="0.5" stop-color="white" stop-opacity="0.5"/>
<stop offset="1" stop-color="white" stop-opacity="0"/>
</linearGradient>
<linearGradient id="paint5_linear_7266_3190" x1="498.027" y1="691.953" x2="864.058" y2="1243.57" gradientUnits="userSpaceOnUse">
<stop stop-color="white"/>
<stop offset="0.13" stop-color="white"/>
<stop offset="0.5" stop-color="white"/>
<stop offset="0.75" stop-color="white"/>
<stop offset="1" stop-color="white"/>
</linearGradient>
<linearGradient id="paint6_linear_7266_3190" x1="535.069" y1="654.31" x2="1093.82" y2="1009.36" gradientUnits="userSpaceOnUse">
<stop stop-color="white"/>
<stop offset="0.5" stop-color="white" stop-opacity="0.5"/>
<stop offset="1" stop-color="white" stop-opacity="0"/>
</linearGradient>
<linearGradient id="paint7_linear_7266_3190" x1="535.069" y1="654.31" x2="1093.82" y2="1009.36" gradientUnits="userSpaceOnUse">
<stop stop-color="white"/>
<stop offset="0.13" stop-color="white"/>
<stop offset="0.5" stop-color="white"/>
<stop offset="0.75" stop-color="white"/>
<stop offset="1" stop-color="white"/>
</linearGradient>
<linearGradient id="paint8_linear_7266_3190" x1="553.597" y1="604.856" x2="1208.45" y2="701.946" gradientUnits="userSpaceOnUse">
<stop stop-color="white"/>
<stop offset="0.5" stop-color="white" stop-opacity="0.5"/>
<stop offset="1" stop-color="white" stop-opacity="0"/>
</linearGradient>
<linearGradient id="paint9_linear_7266_3190" x1="553.597" y1="604.856" x2="1208.45" y2="701.946" gradientUnits="userSpaceOnUse">
<stop stop-color="white"/>
<stop offset="0.13" stop-color="white"/>
<stop offset="0.5" stop-color="white"/>
<stop offset="0.75" stop-color="white"/>
<stop offset="1" stop-color="white"/>
</linearGradient>
<linearGradient id="paint10_linear_7266_3190" x1="550.407" y1="552.141" x2="1188.14" y2="374.485" gradientUnits="userSpaceOnUse">
<stop stop-color="white"/>
<stop offset="0.5" stop-color="white" stop-opacity="0.5"/>
<stop offset="1" stop-color="white" stop-opacity="0"/>
</linearGradient>
<linearGradient id="paint11_linear_7266_3190" x1="550.407" y1="552.141" x2="1188.14" y2="374.485" gradientUnits="userSpaceOnUse">
<stop stop-color="white"/>
<stop offset="0.13" stop-color="white"/>
<stop offset="0.5" stop-color="white"/>
<stop offset="0.75" stop-color="white"/>
<stop offset="1" stop-color="white"/>
</linearGradient>
<linearGradient id="paint12_linear_7266_3190" x1="526.053" y1="505.281" x2="1036.39" y2="83.5955" gradientUnits="userSpaceOnUse">
<stop stop-color="white"/>
<stop offset="0.5" stop-color="white" stop-opacity="0.5"/>
<stop offset="1" stop-color="white" stop-opacity="0"/>
</linearGradient>
<linearGradient id="paint13_linear_7266_3190" x1="526.053" y1="505.281" x2="1036.39" y2="83.5955" gradientUnits="userSpaceOnUse">
<stop stop-color="white"/>
<stop offset="0.13" stop-color="white"/>
<stop offset="0.5" stop-color="white"/>
<stop offset="0.75" stop-color="white"/>
<stop offset="1" stop-color="white"/>
</linearGradient>
<linearGradient id="paint14_linear_7266_3190" x1="484.745" y1="472.378" x2="779.444" y2="-120.423" gradientUnits="userSpaceOnUse">
<stop stop-color="white"/>
<stop offset="0.5" stop-color="white" stop-opacity="0.5"/>
<stop offset="1" stop-color="white" stop-opacity="0"/>
</linearGradient>
<linearGradient id="paint15_linear_7266_3190" x1="484.745" y1="472.378" x2="779.444" y2="-120.423" gradientUnits="userSpaceOnUse">
<stop stop-color="white"/>
<stop offset="0.13" stop-color="white"/>
<stop offset="0.5" stop-color="white"/>
<stop offset="0.75" stop-color="white"/>
<stop offset="1" stop-color="white"/>
</linearGradient>
<linearGradient id="paint16_linear_7266_3190" x1="433.625" y1="459.121" x2="461.732" y2="-202.294" gradientUnits="userSpaceOnUse">
<stop stop-color="white"/>
<stop offset="0.5" stop-color="white" stop-opacity="0.5"/>
<stop offset="1" stop-color="white" stop-opacity="0"/>
</linearGradient>
<linearGradient id="paint17_linear_7266_3190" x1="433.625" y1="459.121" x2="461.732" y2="-202.294" gradientUnits="userSpaceOnUse">
<stop stop-color="white"/>
<stop offset="0.13" stop-color="white"/>
<stop offset="0.5" stop-color="white"/>
<stop offset="0.75" stop-color="white"/>
<stop offset="1" stop-color="white"/>
</linearGradient>
<linearGradient id="paint18_linear_7266_3190" x1="381.532" y1="467.802" x2="138.187" y2="-147.863" gradientUnits="userSpaceOnUse">
<stop stop-color="white"/>
<stop offset="0.5" stop-color="white" stop-opacity="0.5"/>
<stop offset="1" stop-color="white" stop-opacity="0"/>
</linearGradient>
<linearGradient id="paint19_linear_7266_3190" x1="381.532" y1="467.802" x2="138.187" y2="-147.863" gradientUnits="userSpaceOnUse">
<stop stop-color="white"/>
<stop offset="0.13" stop-color="white"/>
<stop offset="0.5" stop-color="white"/>
<stop offset="0.75" stop-color="white"/>
<stop offset="1" stop-color="white"/>
</linearGradient>
<linearGradient id="paint20_linear_7266_3190" x1="337.474" y1="496.921" x2="-135.246" y2="33.4602" gradientUnits="userSpaceOnUse">
<stop stop-color="white"/>
<stop offset="0.5" stop-color="white" stop-opacity="0.5"/>
<stop offset="1" stop-color="white" stop-opacity="0"/>
</linearGradient>
<linearGradient id="paint21_linear_7266_3190" x1="337.474" y1="496.921" x2="-135.246" y2="33.4602" gradientUnits="userSpaceOnUse">
<stop stop-color="white"/>
<stop offset="0.13" stop-color="white"/>
<stop offset="0.5" stop-color="white"/>
<stop offset="0.75" stop-color="white"/>
<stop offset="1" stop-color="white"/>
</linearGradient>
<linearGradient id="paint22_linear_7266_3190" x1="309.069" y1="541.443" x2="-311.289" y2="310.323" gradientUnits="userSpaceOnUse">
<stop stop-color="white"/>
<stop offset="0.5" stop-color="white" stop-opacity="0.5"/>
<stop offset="1" stop-color="white" stop-opacity="0"/>
</linearGradient>
<linearGradient id="paint23_linear_7266_3190" x1="309.069" y1="541.443" x2="-311.289" y2="310.323" gradientUnits="userSpaceOnUse">
<stop stop-color="white"/>
<stop offset="0.13" stop-color="white"/>
<stop offset="0.5" stop-color="white"/>
<stop offset="0.75" stop-color="white"/>
<stop offset="1" stop-color="white"/>
</linearGradient>
<linearGradient id="paint24_linear_7266_3190" x1="301.228" y1="593.669" x2="-359.502" y2="634.852" gradientUnits="userSpaceOnUse">
<stop stop-color="white"/>
<stop offset="0.5" stop-color="white" stop-opacity="0.5"/>
<stop offset="1" stop-color="white" stop-opacity="0"/>
</linearGradient>
<linearGradient id="paint25_linear_7266_3190" x1="301.228" y1="593.669" x2="-359.502" y2="634.852" gradientUnits="userSpaceOnUse">
<stop stop-color="white"/>
<stop offset="0.13" stop-color="white"/>
<stop offset="0.5" stop-color="white"/>
<stop offset="0.75" stop-color="white"/>
<stop offset="1" stop-color="white"/>
</linearGradient>
<linearGradient id="paint26_linear_7266_3190" x1="315.307" y1="644.568" x2="-271.549" y2="950.934" gradientUnits="userSpaceOnUse">
<stop stop-color="white"/>
<stop offset="0.5" stop-color="white" stop-opacity="0.5"/>
<stop offset="1" stop-color="white" stop-opacity="0"/>
</linearGradient>
<linearGradient id="paint27_linear_7266_3190" x1="315.307" y1="644.568" x2="-271.549" y2="950.934" gradientUnits="userSpaceOnUse">
<stop stop-color="white"/>
<stop offset="0.13" stop-color="white"/>
<stop offset="0.5" stop-color="white"/>
<stop offset="0.75" stop-color="white"/>
<stop offset="1" stop-color="white"/>
</linearGradient>
<linearGradient id="paint28_linear_7266_3190" x1="348.872" y1="685.341" x2="-62.6375" y2="1203.92" gradientUnits="userSpaceOnUse">
<stop stop-color="white"/>
<stop offset="0.5" stop-color="white" stop-opacity="0.5"/>
<stop offset="1" stop-color="white" stop-opacity="0"/>
</linearGradient>
<linearGradient id="paint29_linear_7266_3190" x1="348.872" y1="685.341" x2="-62.6375" y2="1203.92" gradientUnits="userSpaceOnUse">
<stop stop-color="white"/>
<stop offset="0.13" stop-color="white"/>
<stop offset="0.5" stop-color="white"/>
<stop offset="0.75" stop-color="white"/>
<stop offset="1" stop-color="white"/>
</linearGradient>
<linearGradient id="paint30_linear_7266_3190" x1="396.119" y1="708.937" x2="231.11" y2="1350.05" gradientUnits="userSpaceOnUse">
<stop stop-color="white"/>
<stop offset="0.5" stop-color="white" stop-opacity="0.5"/>
<stop offset="1" stop-color="white" stop-opacity="0"/>
</linearGradient>
<linearGradient id="paint31_linear_7266_3190" x1="396.119" y1="708.937" x2="231.11" y2="1350.05" gradientUnits="userSpaceOnUse">
<stop stop-color="white"/>
<stop offset="0.13" stop-color="white"/>
<stop offset="0.5" stop-color="white"/>
<stop offset="0.75" stop-color="white"/>
<stop offset="1" stop-color="white"/>
</linearGradient>
</defs>
</svg>
