<svg width="375" height="688" viewBox="0 0 375 688" fill="none" xmlns="http://www.w3.org/2000/svg">
<g opacity="0.4" clip-path="url(#clip0_7175_3724)">
<mask id="mask0_7175_3724" style="mask-type:luminance" maskUnits="userSpaceOnUse" x="-1" y="0" width="376" height="713">
<path d="M374.654 712.325H-0.345703V-6.10352e-05H374.654V712.325Z" fill="white"/>
</mask>
<g mask="url(#mask0_7175_3724)">
<path d="M374.654 712.325V-6.10352e-05H-0.345703V712.325H374.654Z" fill="#868686"/>
<mask id="mask1_7175_3724" style="mask-type:luminance" maskUnits="userSpaceOnUse" x="-1" y="0" width="376" height="713">
<path d="M374.654 712.325V-6.10352e-05H-0.345703V712.325H374.654Z" fill="url(#paint0_linear_7175_3724)"/>
</mask>
<g mask="url(#mask1_7175_3724)">
<path d="M374.654 712.325V-6.10352e-05H-0.345703V712.325H374.654Z" fill="url(#paint1_linear_7175_3724)"/>
</g>
<g opacity="0.2">
<mask id="mask2_7175_3724" style="mask-type:luminance" maskUnits="userSpaceOnUse" x="193" y="304" width="227" height="528">
<path d="M419.292 796.957L311.572 831.182L193.849 310L210.088 304.69L419.292 796.957Z" fill="url(#paint2_linear_7175_3724)"/>
</mask>
<g mask="url(#mask2_7175_3724)">
<path d="M419.292 796.957L311.572 831.182L193.849 310L210.088 304.69L419.292 796.957Z" fill="url(#paint3_linear_7175_3724)"/>
</g>
</g>
<g opacity="0.2">
<mask id="mask3_7175_3724" style="mask-type:luminance" maskUnits="userSpaceOnUse" x="214" y="291" width="405" height="440">
<path d="M618.958 655.832L534.472 730.912L214.942 302.67L227.618 291.214L618.958 655.832Z" fill="url(#paint4_linear_7175_3724)"/>
</mask>
<g mask="url(#mask3_7175_3724)">
<path d="M618.958 655.832L534.472 730.912L214.942 302.67L227.618 291.214L618.958 655.832Z" fill="url(#paint5_linear_7175_3724)"/>
</g>
</g>
<g opacity="0.2">
<mask id="mask4_7175_3724" style="mask-type:luminance" maskUnits="userSpaceOnUse" x="231" y="271" width="513" height="278">
<path d="M743.961 445.696L697.317 548.649L231.23 287.395L238.151 271.774L743.961 445.696Z" fill="url(#paint6_linear_7175_3724)"/>
</mask>
<g mask="url(#mask4_7175_3724)">
<path d="M743.961 445.696L697.317 548.649L231.23 287.395L238.151 271.774L743.961 445.696Z" fill="url(#paint7_linear_7175_3724)"/>
</g>
</g>
<g opacity="0.2">
<mask id="mask5_7175_3724" style="mask-type:luminance" maskUnits="userSpaceOnUse" x="239" y="202" width="534" height="114">
<path d="M772.687 202.885L771.951 315.908L239.898 266.816L239.867 249.73L772.687 202.885Z" fill="url(#paint8_linear_7175_3724)"/>
</mask>
<g mask="url(#mask5_7175_3724)">
<path d="M772.687 202.885L771.951 315.908L239.898 266.816L239.867 249.73L772.687 202.885Z" fill="url(#paint9_linear_7175_3724)"/>
</g>
</g>
<g opacity="0.2">
<mask id="mask6_7175_3724" style="mask-type:luminance" maskUnits="userSpaceOnUse" x="232" y="-31" width="514" height="276">
<path d="M700.17 -30.6193L745.467 72.9324L239.445 244.49L232.467 228.894L700.17 -30.6193Z" fill="url(#paint10_linear_7175_3724)"/>
</mask>
<g mask="url(#mask6_7175_3724)">
<path d="M700.17 -30.6193L745.467 72.9324L239.445 244.49L232.467 228.894L700.17 -30.6193Z" fill="url(#paint11_linear_7175_3724)"/>
</g>
</g>
<g opacity="0.2">
<mask id="mask7_7175_3724" style="mask-type:luminance" maskUnits="userSpaceOnUse" x="217" y="-215" width="406" height="440">
<path d="M538.947 -214.44L622.447 -138.265L229.951 224.278L217.233 212.869L538.947 -214.44Z" fill="url(#paint12_linear_7175_3724)"/>
</mask>
<g mask="url(#mask7_7175_3724)">
<path d="M538.947 -214.44L622.447 -138.265L229.951 224.278L217.233 212.869L538.947 -214.44Z" fill="url(#paint13_linear_7175_3724)"/>
</g>
</g>
<g opacity="0.2">
<mask id="mask8_7175_3724" style="mask-type:luminance" maskUnits="userSpaceOnUse" x="196" y="-317" width="229" height="527">
<path d="M316.896 -316.793L424.16 -281.167L213.057 209.676L196.798 204.426L316.896 -316.793Z" fill="url(#paint14_linear_7175_3724)"/>
</mask>
<g mask="url(#mask8_7175_3724)">
<path d="M316.896 -316.793L424.16 -281.167L213.057 209.676L196.798 204.426L316.896 -316.793Z" fill="url(#paint15_linear_7175_3724)"/>
</g>
</g>
<g opacity="0.2">
<mask id="mask9_7175_3724" style="mask-type:luminance" maskUnits="userSpaceOnUse" x="72" y="-332" width="120" height="538">
<path d="M72.4116 -319.981L184.893 -331.063L191.684 203.207L174.695 205.024L72.4116 -319.981Z" fill="url(#paint16_linear_7175_3724)"/>
</mask>
<g mask="url(#mask9_7175_3724)">
<path d="M72.4116 -319.981L184.893 -331.063L191.684 203.207L174.695 205.024L72.4116 -319.981Z" fill="url(#paint17_linear_7175_3724)"/>
</g>
</g>
<g opacity="0.2">
<mask id="mask10_7175_3724" style="mask-type:luminance" maskUnits="userSpaceOnUse" x="-153" y="-280" width="323" height="495">
<path d="M-152.233 -223.453L-53.9831 -279.327L169.528 205.991L154.747 214.56L-152.233 -223.453Z" fill="url(#paint18_linear_7175_3724)"/>
</mask>
<g mask="url(#mask10_7175_3724)">
<path d="M-152.233 -223.453L-53.9831 -279.327L169.528 205.991L154.747 214.56L-152.233 -223.453Z" fill="url(#paint19_linear_7175_3724)"/>
</g>
</g>
<g opacity="0.2">
<mask id="mask11_7175_3724" style="mask-type:luminance" maskUnits="userSpaceOnUse" x="-319" y="-135" width="470" height="367">
<path d="M-318.194 -43.8991L-251.164 -134.904L150.42 217.545L140.403 231.386L-318.194 -43.8991Z" fill="url(#paint20_linear_7175_3724)"/>
</mask>
<g mask="url(#mask11_7175_3724)">
<path d="M-318.194 -43.8991L-251.164 -134.904L150.42 217.545L140.403 231.386L-318.194 -43.8991Z" fill="url(#paint21_linear_7175_3724)"/>
</g>
</g>
<g opacity="0.2">
<mask id="mask12_7175_3724" style="mask-type:luminance" maskUnits="userSpaceOnUse" x="-397" y="77" width="535" height="176">
<path d="M-396.776 187.634L-372.556 77.2335L137.663 235.873L134.141 252.592L-396.776 187.634Z" fill="url(#paint22_linear_7175_3724)"/>
</mask>
<g mask="url(#mask12_7175_3724)">
<path d="M-396.776 187.634L-372.556 77.2335L137.663 235.873L134.141 252.592L-396.776 187.634Z" fill="url(#paint23_linear_7175_3724)"/>
</g>
</g>
<g opacity="0.2">
<mask id="mask13_7175_3724" style="mask-type:luminance" maskUnits="userSpaceOnUse" x="-398" y="257" width="536" height="175">
<path d="M-374.391 431.112L-397.169 320.406L133.464 257.805L137.047 274.511L-374.391 431.112Z" fill="url(#paint24_linear_7175_3724)"/>
</mask>
<g mask="url(#mask13_7175_3724)">
<path d="M-374.391 431.112L-397.169 320.406L133.464 257.805L137.047 274.511L-374.391 431.112Z" fill="url(#paint25_linear_7175_3724)"/>
</g>
</g>
<g opacity="0.2">
<mask id="mask14_7175_3724" style="mask-type:luminance" maskUnits="userSpaceOnUse" x="-321" y="279" width="470" height="366">
<path d="M-254.91 644.436L-320.747 552.565L138.548 279.549L148.616 293.353L-254.91 644.436Z" fill="url(#paint26_linear_7175_3724)"/>
</mask>
<g mask="url(#mask14_7175_3724)">
<path d="M-254.91 644.436L-320.747 552.565L138.548 279.549L148.616 293.353L-254.91 644.436Z" fill="url(#paint27_linear_7175_3724)"/>
</g>
</g>
<g opacity="0.2">
<mask id="mask15_7175_3724" style="mask-type:luminance" maskUnits="userSpaceOnUse" x="-157" y="297" width="324" height="494">
<path d="M-58.9919 790.72L-156.505 733.57L152.037 297.345L166.849 305.861L-58.9919 790.72Z" fill="url(#paint28_linear_7175_3724)"/>
</mask>
<g mask="url(#mask15_7175_3724)">
<path d="M-58.9919 790.72L-156.505 733.57L152.037 297.345L166.849 305.861L-58.9919 790.72Z" fill="url(#paint29_linear_7175_3724)"/>
</g>
</g>
<g opacity="0.2">
<mask id="mask16_7175_3724" style="mask-type:luminance" maskUnits="userSpaceOnUse" x="67" y="308" width="122" height="537">
<path d="M179.487 844.669L67.1596 832.123L171.598 308.116L188.593 309.871L179.487 844.669Z" fill="url(#paint30_linear_7175_3724)"/>
</mask>
<g mask="url(#mask16_7175_3724)">
<path d="M179.487 844.669L67.1596 832.123L171.598 308.116L188.593 309.871L179.487 844.669Z" fill="url(#paint31_linear_7175_3724)"/>
</g>
</g>
</g>
</g>
<defs>
<linearGradient id="paint0_linear_7175_3724" x1="188.03" y1="711.01" x2="186.278" y2="36.3609" gradientUnits="userSpaceOnUse">
<stop stop-color="white" stop-opacity="0.85"/>
<stop offset="0.4" stop-color="white" stop-opacity="0.575"/>
<stop offset="0.8" stop-color="white" stop-opacity="0.3"/>
<stop offset="0.9" stop-color="white" stop-opacity="0.15"/>
<stop offset="1" stop-color="white" stop-opacity="0"/>
</linearGradient>
<linearGradient id="paint1_linear_7175_3724" x1="188.03" y1="711.01" x2="186.278" y2="36.3609" gradientUnits="userSpaceOnUse">
<stop/>
<stop offset="1" stop-opacity="0"/>
</linearGradient>
<linearGradient id="paint2_linear_7175_3724" x1="203.687" y1="309.842" x2="290.373" y2="586.601" gradientUnits="userSpaceOnUse">
<stop stop-color="white"/>
<stop offset="0.5" stop-color="white" stop-opacity="0.5"/>
<stop offset="1" stop-color="white" stop-opacity="0"/>
</linearGradient>
<linearGradient id="paint3_linear_7175_3724" x1="203.687" y1="309.842" x2="290.373" y2="586.601" gradientUnits="userSpaceOnUse">
<stop stop-color="white"/>
<stop offset="0.13" stop-color="white"/>
<stop offset="0.5" stop-color="white"/>
<stop offset="0.75" stop-color="white"/>
<stop offset="1" stop-color="white"/>
</linearGradient>
<linearGradient id="paint4_linear_7175_3724" x1="223.866" y1="298.525" x2="415.626" y2="516.098" gradientUnits="userSpaceOnUse">
<stop stop-color="white"/>
<stop offset="0.5" stop-color="white" stop-opacity="0.5"/>
<stop offset="1" stop-color="white" stop-opacity="0"/>
</linearGradient>
<linearGradient id="paint5_linear_7175_3724" x1="223.866" y1="298.525" x2="415.626" y2="516.098" gradientUnits="userSpaceOnUse">
<stop stop-color="white"/>
<stop offset="0.13" stop-color="white"/>
<stop offset="0.5" stop-color="white"/>
<stop offset="0.75" stop-color="white"/>
<stop offset="1" stop-color="white"/>
</linearGradient>
<linearGradient id="paint6_linear_7175_3724" x1="237.697" y1="279.978" x2="501.373" y2="400.746" gradientUnits="userSpaceOnUse">
<stop stop-color="white"/>
<stop offset="0.5" stop-color="white" stop-opacity="0.5"/>
<stop offset="1" stop-color="white" stop-opacity="0"/>
</linearGradient>
<linearGradient id="paint7_linear_7175_3724" x1="237.697" y1="279.978" x2="501.373" y2="400.746" gradientUnits="userSpaceOnUse">
<stop stop-color="white"/>
<stop offset="0.13" stop-color="white"/>
<stop offset="0.5" stop-color="white"/>
<stop offset="0.75" stop-color="white"/>
<stop offset="1" stop-color="white"/>
</linearGradient>
<linearGradient id="paint8_linear_7175_3724" x1="242.789" y1="257.41" x2="532.789" y2="260.49" gradientUnits="userSpaceOnUse">
<stop stop-color="white"/>
<stop offset="0.5" stop-color="white" stop-opacity="0.5"/>
<stop offset="1" stop-color="white" stop-opacity="0"/>
</linearGradient>
<linearGradient id="paint9_linear_7175_3724" x1="242.789" y1="257.41" x2="532.789" y2="260.49" gradientUnits="userSpaceOnUse">
<stop stop-color="white"/>
<stop offset="0.13" stop-color="white"/>
<stop offset="0.5" stop-color="white"/>
<stop offset="0.75" stop-color="white"/>
<stop offset="1" stop-color="white"/>
</linearGradient>
<linearGradient id="paint10_linear_7175_3724" x1="238.26" y1="234.721" x2="504.442" y2="119.581" gradientUnits="userSpaceOnUse">
<stop stop-color="white"/>
<stop offset="0.5" stop-color="white" stop-opacity="0.5"/>
<stop offset="1" stop-color="white" stop-opacity="0"/>
</linearGradient>
<linearGradient id="paint11_linear_7175_3724" x1="238.26" y1="234.721" x2="504.442" y2="119.581" gradientUnits="userSpaceOnUse">
<stop stop-color="white"/>
<stop offset="0.13" stop-color="white"/>
<stop offset="0.5" stop-color="white"/>
<stop offset="0.75" stop-color="white"/>
<stop offset="1" stop-color="white"/>
</linearGradient>
<linearGradient id="paint12_linear_7175_3724" x1="224.896" y1="215.836" x2="421.233" y2="2.38504" gradientUnits="userSpaceOnUse">
<stop stop-color="white"/>
<stop offset="0.5" stop-color="white" stop-opacity="0.5"/>
<stop offset="1" stop-color="white" stop-opacity="0"/>
</linearGradient>
<linearGradient id="paint13_linear_7175_3724" x1="224.896" y1="215.836" x2="421.233" y2="2.38504" gradientUnits="userSpaceOnUse">
<stop stop-color="white"/>
<stop offset="0.13" stop-color="white"/>
<stop offset="0.5" stop-color="white"/>
<stop offset="0.75" stop-color="white"/>
<stop offset="1" stop-color="white"/>
</linearGradient>
<linearGradient id="paint14_linear_7175_3724" x1="205.005" y1="204.02" x2="297.55" y2="-70.8353" gradientUnits="userSpaceOnUse">
<stop stop-color="white"/>
<stop offset="0.5" stop-color="white" stop-opacity="0.5"/>
<stop offset="1" stop-color="white" stop-opacity="0"/>
</linearGradient>
<linearGradient id="paint15_linear_7175_3724" x1="205.005" y1="204.02" x2="297.55" y2="-70.8353" gradientUnits="userSpaceOnUse">
<stop stop-color="white"/>
<stop offset="0.13" stop-color="white"/>
<stop offset="0.5" stop-color="white"/>
<stop offset="0.75" stop-color="white"/>
<stop offset="1" stop-color="white"/>
</linearGradient>
<linearGradient id="paint16_linear_7175_3724" x1="182.028" y1="201.315" x2="154.778" y2="-87.4187" gradientUnits="userSpaceOnUse">
<stop stop-color="white"/>
<stop offset="0.5" stop-color="white" stop-opacity="0.5"/>
<stop offset="1" stop-color="white" stop-opacity="0"/>
</linearGradient>
<linearGradient id="paint17_linear_7175_3724" x1="182.028" y1="201.315" x2="154.778" y2="-87.4187" gradientUnits="userSpaceOnUse">
<stop stop-color="white"/>
<stop offset="0.13" stop-color="white"/>
<stop offset="0.5" stop-color="white"/>
<stop offset="0.75" stop-color="white"/>
<stop offset="1" stop-color="white"/>
</linearGradient>
<linearGradient id="paint18_linear_7175_3724" x1="159.937" y1="208.19" x2="17.6043" y2="-44.498" gradientUnits="userSpaceOnUse">
<stop stop-color="white"/>
<stop offset="0.5" stop-color="white" stop-opacity="0.5"/>
<stop offset="1" stop-color="white" stop-opacity="0"/>
</linearGradient>
<linearGradient id="paint19_linear_7175_3724" x1="159.937" y1="208.19" x2="17.6043" y2="-44.498" gradientUnits="userSpaceOnUse">
<stop stop-color="white"/>
<stop offset="0.13" stop-color="white"/>
<stop offset="0.5" stop-color="white"/>
<stop offset="0.75" stop-color="white"/>
<stop offset="1" stop-color="white"/>
</linearGradient>
<linearGradient id="paint20_linear_7175_3724" x1="142.553" y1="223.456" x2="-90.2522" y2="50.5057" gradientUnits="userSpaceOnUse">
<stop stop-color="white"/>
<stop offset="0.5" stop-color="white" stop-opacity="0.5"/>
<stop offset="1" stop-color="white" stop-opacity="0"/>
</linearGradient>
<linearGradient id="paint21_linear_7175_3724" x1="142.553" y1="223.456" x2="-90.2522" y2="50.5057" gradientUnits="userSpaceOnUse">
<stop stop-color="white"/>
<stop offset="0.13" stop-color="white"/>
<stop offset="0.5" stop-color="white"/>
<stop offset="0.75" stop-color="white"/>
<stop offset="1" stop-color="white"/>
</linearGradient>
<linearGradient id="paint22_linear_7175_3724" x1="132.88" y1="244.472" x2="-150.143" y2="181.165" gradientUnits="userSpaceOnUse">
<stop stop-color="white"/>
<stop offset="0.5" stop-color="white" stop-opacity="0.5"/>
<stop offset="1" stop-color="white" stop-opacity="0"/>
</linearGradient>
<linearGradient id="paint23_linear_7175_3724" x1="132.88" y1="244.472" x2="-150.143" y2="181.165" gradientUnits="userSpaceOnUse">
<stop stop-color="white"/>
<stop offset="0.13" stop-color="white"/>
<stop offset="0.5" stop-color="white"/>
<stop offset="0.75" stop-color="white"/>
<stop offset="1" stop-color="white"/>
</linearGradient>
<linearGradient id="paint24_linear_7175_3724" x1="132.592" y1="267.606" x2="-151.712" y2="324.888" gradientUnits="userSpaceOnUse">
<stop stop-color="white"/>
<stop offset="0.5" stop-color="white" stop-opacity="0.5"/>
<stop offset="1" stop-color="white" stop-opacity="0"/>
</linearGradient>
<linearGradient id="paint25_linear_7175_3724" x1="132.592" y1="267.606" x2="-151.712" y2="324.888" gradientUnits="userSpaceOnUse">
<stop stop-color="white"/>
<stop offset="0.13" stop-color="white"/>
<stop offset="0.5" stop-color="white"/>
<stop offset="0.75" stop-color="white"/>
<stop offset="1" stop-color="white"/>
</linearGradient>
<linearGradient id="paint26_linear_7175_3724" x1="141.738" y1="288.858" x2="-94.6877" y2="456.824" gradientUnits="userSpaceOnUse">
<stop stop-color="white"/>
<stop offset="0.5" stop-color="white" stop-opacity="0.5"/>
<stop offset="1" stop-color="white" stop-opacity="0"/>
</linearGradient>
<linearGradient id="paint27_linear_7175_3724" x1="141.738" y1="288.858" x2="-94.6877" y2="456.824" gradientUnits="userSpaceOnUse">
<stop stop-color="white"/>
<stop offset="0.13" stop-color="white"/>
<stop offset="0.5" stop-color="white"/>
<stop offset="0.75" stop-color="white"/>
<stop offset="1" stop-color="white"/>
</linearGradient>
<linearGradient id="paint28_linear_7175_3724" x1="158.737" y1="304.551" x2="11.0694" y2="554.159" gradientUnits="userSpaceOnUse">
<stop stop-color="white"/>
<stop offset="0.5" stop-color="white" stop-opacity="0.5"/>
<stop offset="1" stop-color="white" stop-opacity="0"/>
</linearGradient>
<linearGradient id="paint29_linear_7175_3724" x1="158.737" y1="304.551" x2="11.0694" y2="554.159" gradientUnits="userSpaceOnUse">
<stop stop-color="white"/>
<stop offset="0.13" stop-color="white"/>
<stop offset="0.5" stop-color="white"/>
<stop offset="0.75" stop-color="white"/>
<stop offset="1" stop-color="white"/>
</linearGradient>
<linearGradient id="paint30_linear_7175_3724" x1="180.65" y1="311.974" x2="147.273" y2="600.064" gradientUnits="userSpaceOnUse">
<stop stop-color="white"/>
<stop offset="0.5" stop-color="white" stop-opacity="0.5"/>
<stop offset="1" stop-color="white" stop-opacity="0"/>
</linearGradient>
<linearGradient id="paint31_linear_7175_3724" x1="180.65" y1="311.974" x2="147.273" y2="600.064" gradientUnits="userSpaceOnUse">
<stop stop-color="white"/>
<stop offset="0.13" stop-color="white"/>
<stop offset="0.5" stop-color="white"/>
<stop offset="0.75" stop-color="white"/>
<stop offset="1" stop-color="white"/>
</linearGradient>
<clipPath id="clip0_7175_3724">
<rect width="375" height="712.325" fill="white" transform="matrix(1 0 0 -1 -0.345703 712.325)"/>
</clipPath>
</defs>
</svg>
