<svg width="373" height="689" viewBox="0 0 373 689" fill="none" xmlns="http://www.w3.org/2000/svg">
<g clip-path="url(#clip0_10630_12308)">
<rect width="373" height="689" fill="#CFF469"/>
<path d="M211.148 179.239C122.117 195.206 40.1165 115.385 -13.1424 89.8748L-11.3125 -64.167L318.412 -51.2392C324.319 -46.7918 336.47 -25.0486 337.823 26.3444C339.514 90.5857 295.469 164.116 211.148 179.239Z" fill="#904BF6"/>
<g clip-path="url(#clip1_10630_12308)">
<path d="M225.614 161.05C209.09 150.725 201.797 153.062 197.772 159.503L186.177 178.06C182.152 184.501 183.248 192.08 199.772 202.405C216.244 212.698 223.537 210.361 227.562 203.92L239.158 185.364C243.182 178.923 242.086 171.343 225.614 161.05ZM230.161 180.524L219.268 197.955C217.32 201.074 213.434 203.195 203.254 196.833C193.022 190.44 193.225 186.018 195.174 182.899L206.066 165.468C208.015 162.349 211.901 160.229 222.132 166.622C232.312 172.983 232.109 177.405 230.161 180.524Z" fill="#503658" fill-opacity="0.1"/>
<path d="M293.797 204.651L283.177 198.014C282.965 197.882 282.715 197.827 282.468 197.859L251.36 201.874L261.459 185.713C261.774 185.208 261.62 184.544 261.116 184.229L254.297 179.968C253.793 179.653 253.128 179.806 252.813 180.31L229.039 218.358C228.724 218.862 228.877 219.526 229.382 219.842L236.2 224.102C236.705 224.417 237.369 224.264 237.684 223.76L249.539 204.787L257.827 237.265C257.896 237.533 258.065 237.765 258.3 237.912L268.882 244.524L259.533 208.829L293.797 204.651Z" fill="#503658" fill-opacity="0.1"/>
</g>
<g clip-path="url(#clip2_10630_12308)">
<mask id="mask0_10630_12308" style="mask-type:alpha" maskUnits="userSpaceOnUse" x="-14" y="-65" width="352" height="247">
<path d="M211.148 179.239C122.117 195.206 40.1165 115.385 -13.1424 89.8748L-11.3125 -64.167L318.412 -51.2392C324.319 -46.7918 336.47 -25.0486 337.823 26.3444C339.514 90.5857 295.469 164.116 211.148 179.239Z" fill="#904BF6"/>
</mask>
<g mask="url(#mask0_10630_12308)">
<path d="M42.65 25.2308L8.25928 3.74106C7.07219 2.99928 5.4714 3.4197 4.68383 4.68007L1.83178 9.24432C1.04419 10.5047 1.36808 12.1278 2.55517 12.8695L36.9459 34.3592C38.1331 35.1011 39.7338 34.6807 40.5214 33.4203L43.3734 28.856C44.161 27.5956 43.8372 25.9726 42.65 25.2308Z" fill="#503658"/>
<path fill-rule="evenodd" clip-rule="evenodd" d="M35.9639 -5.91959C34.7768 -6.66136 33.176 -6.24096 32.3884 -4.98057L-8.9664 61.201L-8.95212 61.2099C-16.4512 74.1551 -12.9727 90.4296 -0.9264 97.957C-0.475434 98.2388 -0.0185743 98.5044 0.44349 98.7542L5.05298 91.3774C-2.92001 86.1906 -5.23738 75.3338 -0.347895 66.5864L-0.368724 66.5734L40.9861 0.391852C41.7737 -0.868531 41.4498 -2.49161 40.2627 -3.23337L35.9639 -5.91959Z" fill="#503658"/>
<path fill-rule="evenodd" clip-rule="evenodd" d="M32.0308 62.2266C30.6831 61.3844 29.5024 60.3704 28.4964 59.2247L32.3873 61.656L36.6775 54.7902C40.7578 56.9476 45.9214 55.5413 48.4639 51.4724C51.0062 47.4039 50.0068 42.1462 46.279 39.4246L51.6387 30.8473C59.6517 35.8544 61.7579 46.9378 56.3434 55.6028C50.9289 64.2679 40.0437 67.2336 32.0308 62.2266ZM50.0267 29.84C48.8394 29.0981 47.2387 29.5187 46.4512 30.779L43.9556 34.7727C43.1681 36.0331 43.4918 37.6561 44.6791 38.398L46.2911 39.4053L51.6387 30.8473L50.0267 29.84Z" fill="#503658"/>
<path d="M20.7307 48.0258C21.5183 46.7654 23.119 46.3449 24.3059 47.0866L38.2773 55.8169L32.5732 64.9454L18.6018 56.2151C17.4148 55.4734 17.0911 53.8504 17.8787 52.59L20.7307 48.0258Z" fill="#503658"/>
<path fill-rule="evenodd" clip-rule="evenodd" d="M8.33068 103.742C20.4985 111.345 36.8265 107.164 44.8009 94.402C52.775 81.6407 49.3756 65.1321 37.2078 57.5288L32.5717 64.9481C40.5139 70.1225 42.6329 81.1313 37.2779 89.7011C31.9227 98.2712 21.0992 101.193 12.9668 96.3225L8.33068 103.742Z" fill="#503658"/>
<path d="M9.38989 97.2636C10.1774 96.0032 11.7781 95.5827 12.9654 96.3246L8.3308 103.741C7.14355 103 6.81981 101.377 7.60735 100.116L9.38989 97.2636Z" fill="#503658"/>
<path d="M4.51416 91.0439L5.58874 91.7154C6.77599 92.4573 7.09974 94.0803 6.31219 95.3407L4.52965 98.1933C3.74211 99.4537 2.1414 99.8742 0.954152 99.1323L-0.120432 98.4608L4.51416 91.0439Z" fill="#503658"/>
<path d="M103.435 86.9687C103.75 86.4645 103.596 85.8003 103.092 85.485L66.0402 62.3325C65.5357 62.0173 64.8714 62.1704 64.5563 62.6746L62.2473 66.3698C61.9322 66.874 62.0858 67.5382 62.5904 67.8534L76.8191 76.7445L55.9238 110.184C55.6087 110.688 55.7623 111.352 56.2669 111.668L63.0852 115.928C63.5898 116.244 64.2541 116.09 64.5692 115.586L85.4645 82.1468L99.642 91.0059C100.147 91.3212 100.811 91.1681 101.126 90.6639L103.435 86.9687Z" fill="#503658"/>
<path d="M84.6338 128.124C84.3187 128.628 84.4723 129.293 84.9769 129.608L106.828 143.262C120.998 152.116 126.54 151.101 130.054 145.478L132.961 140.826C135.229 137.197 135.247 133.867 130.444 129.373C136.026 131.369 138.729 130.002 140.901 126.526L143.329 122.64C146.875 116.966 145.319 111.943 131.149 103.088L109.861 89.7857C109.356 89.4704 108.692 89.6235 108.377 90.1277L84.6338 128.124ZM107.051 111.487L114.302 99.8824L127.756 108.289C135.583 113.18 135.693 115.737 134.287 117.986L132.243 121.257C130.678 123.762 128.332 124.784 120.505 119.894L107.051 111.487ZM95.9989 129.174L104.049 116.292L118.168 125.114C125.943 129.973 125.753 133.124 124.379 135.322L121.856 139.36C120.291 141.865 117.894 142.855 110.118 137.996L95.9989 129.174Z" fill="#503658"/>
<path d="M177.445 130.951C160.922 120.626 153.629 122.963 149.604 129.405L138.008 147.961C133.984 154.402 135.08 161.982 151.603 172.307C168.076 182.6 175.369 180.262 179.394 173.821L190.989 155.265C195.014 148.824 193.918 141.244 177.445 130.951ZM181.992 150.425L171.1 167.857C169.151 170.975 165.265 173.096 155.085 166.735C144.854 160.342 145.057 155.919 147.005 152.801L157.898 135.369C159.846 132.251 163.732 130.13 173.964 136.523C184.144 142.884 183.941 147.307 181.992 150.425Z" fill="#503658"/>
<path d="M225.614 161.05C209.09 150.725 201.797 153.062 197.772 159.503L186.177 178.06C182.152 184.501 183.248 192.08 199.772 202.405C216.244 212.698 223.537 210.361 227.562 203.92L239.158 185.364C243.182 178.923 242.086 171.343 225.614 161.05ZM230.161 180.524L219.268 197.955C217.32 201.074 213.434 203.195 203.254 196.833C193.022 190.44 193.225 186.018 195.174 182.899L206.066 165.468C208.015 162.349 211.901 160.229 222.132 166.622C232.312 172.983 232.109 177.405 230.161 180.524Z" fill="#503658"/>
<path d="M293.797 204.651L283.177 198.014C282.965 197.882 282.715 197.827 282.468 197.859L251.36 201.874L261.459 185.713C261.774 185.208 261.62 184.544 261.116 184.229L254.297 179.968C253.793 179.653 253.128 179.806 252.813 180.31L229.039 218.358C228.724 218.862 228.877 219.526 229.382 219.842L236.2 224.102C236.705 224.417 237.369 224.264 237.684 223.76L249.539 204.787L257.827 237.265C257.896 237.533 258.065 237.765 258.3 237.912L268.882 244.524L259.533 208.829L293.797 204.651Z" fill="#503658"/>
</g>
</g>
</g>
<defs>
<clipPath id="clip0_10630_12308">
<rect width="373" height="689" fill="white"/>
</clipPath>
<clipPath id="clip1_10630_12308">
<rect width="351.162" height="108" fill="white" transform="translate(18.2312 -17) rotate(32)"/>
</clipPath>
<clipPath id="clip2_10630_12308">
<rect width="351.162" height="108" fill="white" transform="translate(18.2312 -17) rotate(32)"/>
</clipPath>
</defs>
</svg>
