<svg width="375" height="689" viewBox="0 0 375 689" fill="none" xmlns="http://www.w3.org/2000/svg">
<g clip-path="url(#clip0_10630_12407)">
<rect width="375" height="689" fill="#22306D"/>
<path d="M34.8732 11.7754C33.7862 9.60145 27.9287 3.32126 24.9094 0H0V133.605C21.2862 147.192 56.1594 151.268 91.9384 156.25C127.717 161.232 181.159 163.949 209.239 166.214C237.319 168.478 304.801 175.725 334.239 180.707C357.79 184.692 370.471 189.738 375 192.305V69.2935C368.207 67.9348 350.091 64.5833 322.917 60.2355C288.949 54.8007 178.442 46.1956 138.134 43.0254C97.8261 39.8551 54.8007 29.8913 45.7428 26.2681C36.6848 22.6449 36.2319 14.4928 34.8732 11.7754Z" fill="#ABEDBB"/>
<mask id="mask0_10630_12407" style="mask-type:alpha" maskUnits="userSpaceOnUse" x="0" y="0" width="375" height="193">
<path d="M34.8732 11.7754C33.7862 9.60145 27.9287 3.32126 24.9094 0H0V133.605C21.2862 147.192 56.1594 151.268 91.9384 156.25C127.717 161.232 181.159 163.949 209.239 166.214C237.319 168.478 304.801 175.725 334.239 180.707C357.79 184.692 370.471 189.738 375 192.305V69.2935C368.207 67.9348 350.091 64.5833 322.917 60.2355C288.949 54.8007 178.442 46.1956 138.134 43.0254C97.8261 39.8551 54.8007 29.8913 45.7428 26.2681C36.6848 22.6449 36.2319 14.4928 34.8732 11.7754Z" fill="#F36EBD"/>
</mask>
<g mask="url(#mask0_10630_12407)">
<path d="M54.8574 90.2417C48.6868 89.6469 42.4611 90.2424 36.5151 91.9963C37.852 85.4211 40.8595 80.7616 44.6547 80.3985C48.4498 80.0355 52.2863 84.0399 54.8574 90.2417ZM33.8762 104.441C33.5699 101.363 33.5719 98.2663 33.8817 95.1877C27.6793 97.747 23.6744 101.583 24.0374 105.378C24.4005 109.174 29.0676 112.224 35.6364 113.53L35.6367 113.534C34.7485 110.566 34.1591 107.522 33.8762 104.441ZM49.0194 126.015C52.8262 125.651 55.8645 120.985 57.1707 114.416L57.1704 114.412C51.2245 116.166 44.9988 116.762 38.8281 116.167C41.3874 122.369 45.2237 126.374 49.0188 126.011L49.0194 126.015ZM58.0845 92.8723C59.8384 98.8182 60.4343 105.048 59.8396 111.219C66.0409 108.648 70.0469 104.823 69.6827 101.016C69.3186 97.2091 64.6255 94.2164 58.0845 92.8723ZM13.7008 122.055L10.725 90.9475C10.5606 89.2287 9.03538 87.9698 7.31662 88.1342L6.88111 88.1759C5.16624 88.34 3.90348 89.8655 4.0679 91.5843L7.04373 122.692C7.20815 124.411 8.73725 125.67 10.4521 125.505L10.8682 125.466C11.6968 125.39 12.4631 124.991 12.9945 124.352C13.5255 123.709 13.7801 122.884 13.7008 122.055ZM55.6996 92.4726C49.1137 91.639 42.4219 92.2791 36.113 94.3463C35.2798 100.936 35.9196 107.624 37.9871 113.937C44.573 114.77 51.2649 114.13 57.5737 112.063C58.4108 105.473 57.771 98.785 55.6996 92.4726ZM69.375 107.324C66.6654 110.216 63.2745 112.385 59.5132 113.635C59.0023 117.565 57.5158 121.306 55.1854 124.511C62.5728 121.622 67.939 115.121 69.375 107.324ZM74.6204 134.468L4.10627 141.213C0.672748 141.542 -2.38166 139.024 -2.71049 135.587L-8.446 75.6305C-8.50068 75.0588 -8.07833 74.5514 -7.50669 74.4968L73.3741 66.7596C73.9457 66.7049 74.4566 67.123 74.5113 67.6946L80.2438 127.62C80.4101 129.276 79.909 130.929 78.8548 132.215C77.8002 133.497 76.273 134.31 74.6204 134.468ZM11.0697 127.57C12.4462 127.438 13.7123 126.768 14.5915 125.703C15.4706 124.638 15.8889 123.267 15.7572 121.891L12.7814 90.7829C12.5076 87.921 9.96413 85.8216 7.10219 86.0954L6.66668 86.1371C5.29017 86.2687 4.02406 86.9392 3.14489 88.0043C2.26576 89.0694 1.84751 90.4397 1.97919 91.8162L4.95503 122.924C5.08671 124.301 5.7572 125.567 6.82228 126.446C7.8874 127.325 9.2577 127.743 10.6342 127.612L11.0697 127.57ZM49.2203 128.108C55.8229 127.476 61.9025 124.25 66.1225 119.133C70.3423 114.02 72.3575 107.439 71.7263 100.84C71.095 94.2414 67.8686 88.162 62.756 83.9417C57.6431 79.718 51.0618 77.7027 44.4589 78.3344C37.8601 78.9656 31.7806 82.192 27.5607 87.3085C23.3409 92.4211 21.3217 99.0028 21.953 105.602C22.5881 112.2 25.818 118.275 30.9306 122.496C36.0429 126.711 42.6202 128.727 49.2191 128.096L49.2203 128.108ZM34.2051 92.7718C34.7242 88.8451 36.2072 85.1088 38.5212 81.8974C31.1384 84.7933 25.7638 91.2916 24.3045 99.0873C27.0254 96.1901 30.4279 94.0201 34.2051 92.7718ZM36.4125 115.846C32.4819 115.328 28.7453 113.841 25.533 111.519C28.4253 118.906 34.9198 124.281 42.7149 125.736C39.8215 123.015 37.656 119.616 36.4125 115.846ZM57.2758 90.5648C61.2095 91.0754 64.9466 92.5662 68.1553 94.8923C65.2661 87.4971 58.7674 82.1192 50.9603 80.6641C53.8614 83.3846 56.0318 86.7912 57.2758 90.5648ZM80.9918 135.428L80.7705 133.115C79.3718 135.065 77.2037 136.317 74.8208 136.552L4.3067 143.298C1.92234 143.518 -0.44366 142.701 -2.18682 141.051L-1.96549 143.364C-1.63666 146.802 1.41775 149.319 4.85128 148.991L75.3654 142.245C78.7989 141.917 81.3206 138.866 80.9918 135.428Z" fill="#F36EBD"/>
<path d="M147.318 84.1286C147.011 91.5069 148.123 98.8735 150.595 105.832C142.687 104.669 136.95 101.394 136.272 96.9028C135.594 92.4122 140.108 87.589 147.318 84.1286ZM165.569 108.164C161.927 108.728 158.244 108.926 154.562 108.758C158.008 115.969 162.831 120.484 167.322 119.806C171.813 119.128 175.138 113.379 176.265 105.481L176.27 105.48C172.797 106.729 169.215 107.628 165.569 108.164ZM190.248 88.7522C189.568 84.2477 183.821 80.9364 175.923 79.8088L175.918 79.8095C178.39 86.7682 179.502 94.1348 179.195 101.513C186.407 98.0667 190.922 93.2438 190.244 88.7531L190.248 88.7522ZM150.238 80.1193C157.196 77.6474 164.568 76.5345 171.946 76.8417C168.486 69.6322 163.677 65.1153 159.172 65.7954C154.668 66.4755 151.412 72.2518 150.238 80.1193ZM187.829 131.019L151.02 136.577C148.986 136.884 147.588 138.78 147.895 140.813L147.973 141.329C148.279 143.358 150.176 144.761 152.209 144.454L189.018 138.896C191.052 138.589 192.45 136.689 192.144 134.66L192.069 134.167C191.926 133.187 191.402 132.301 190.606 131.711C189.807 131.121 188.809 130.871 187.829 131.019ZM149.917 82.982C149.353 90.8698 150.548 98.788 153.416 106.158C161.309 106.722 169.222 105.527 176.597 102.658C177.161 94.7704 175.966 86.8522 173.098 79.4821C165.205 78.9138 157.291 80.1087 149.917 82.982ZM166.695 65.7522C170.311 68.7876 173.11 72.6803 174.842 77.0731C179.55 77.4259 184.095 78.9515 188.059 81.5155C184.144 72.9158 176.063 66.9546 166.695 65.7522ZM198.642 57.7524L211.239 141.189C211.852 145.252 209.056 149.048 204.989 149.662L134.045 160.374C133.368 160.476 132.737 160.006 132.635 159.33L118.186 63.6267C118.084 62.9503 118.548 62.3155 119.224 62.2134L190.132 51.5076C192.09 51.2024 194.089 51.6913 195.687 52.8618C197.28 54.0331 198.346 55.7968 198.642 57.7524ZM194.559 133.791C194.313 132.162 193.434 130.7 192.11 129.723C190.786 128.747 189.129 128.338 187.5 128.584L150.691 134.142C147.305 134.653 144.972 137.814 145.484 141.201L145.562 141.716C145.807 143.345 146.687 144.807 148.011 145.784C149.335 146.761 150.992 147.169 152.621 146.923L189.43 141.366C191.059 141.12 192.521 140.24 193.498 138.916C194.474 137.592 194.883 135.935 194.637 134.307L194.559 133.791ZM192.724 88.3775C191.544 80.5648 187.312 73.5426 180.953 68.855C174.598 64.1673 166.639 62.1971 158.83 63.376C151.022 64.5549 144 68.787 139.312 75.142C134.62 81.4977 132.65 89.4567 133.829 97.2696C135.008 105.078 139.24 112.1 145.6 116.787C151.955 121.475 159.914 123.45 167.723 122.271C175.53 121.087 182.547 116.852 187.235 110.496C191.918 104.142 193.889 96.1879 192.71 88.3797L192.724 88.3775ZM151.667 108.53C146.963 108.167 142.422 106.645 138.452 104.101C142.376 112.695 150.454 118.666 159.821 119.896C156.199 116.848 153.397 112.942 151.667 108.53ZM178.97 104.407C178.608 109.116 177.082 113.657 174.529 117.629C183.128 113.709 189.1 105.636 190.325 96.2693C187.276 99.8874 183.373 102.684 178.97 104.407ZM147.545 81.2309C147.898 76.5188 149.428 71.977 151.987 68.0094C143.378 71.9257 137.403 80.0045 136.178 89.3853C139.226 85.758 143.138 82.9554 147.545 81.2309ZM199.371 50.1114L196.633 50.5248C199.044 52.062 200.673 54.5597 201.108 57.3787L213.706 140.815C214.122 143.637 213.303 146.505 211.454 148.685L214.191 148.272C218.259 147.658 221.055 143.861 220.442 139.798L207.844 56.3617C207.231 52.299 203.438 49.4973 199.371 50.1114Z" fill="#F36EBD"/>
<path d="M346.018 94.7575C338.192 100.076 331.463 106.846 326.192 114.703C321.35 105.679 320.338 97.2755 324.44 93.1486C328.542 89.0217 336.952 89.9826 346.018 94.7575ZM335.228 131.889C331.867 128.572 328.85 124.935 326.212 121.018C321.425 130.071 320.463 138.481 324.59 142.583C328.717 146.685 337.171 145.715 346.157 140.844L346.161 140.848C342.224 138.229 338.565 135.23 335.228 131.889ZM374.046 142.454C378.16 138.314 377.178 129.873 372.306 120.887L372.302 120.882C367.031 128.74 360.302 135.509 352.476 140.828C361.529 145.615 369.939 146.577 374.041 142.45L374.046 142.454ZM352.372 94.6995C360.229 99.9707 367.003 106.704 372.322 114.53C377.096 105.464 378.071 97.067 373.931 92.9522C369.791 88.8374 361.363 89.8996 352.372 94.6995ZM328.715 172.244L294.887 138.619C293.018 136.762 290 136.771 288.142 138.64L287.671 139.113C285.818 140.978 285.823 144.001 287.692 145.858L321.519 179.483C323.388 181.34 326.411 181.327 328.264 179.462L328.714 179.01C329.613 178.113 330.124 176.898 330.125 175.629C330.121 174.356 329.615 173.139 328.715 172.244ZM349.182 96.5557C340.636 101.999 333.403 109.276 328.011 117.854C333.458 126.404 340.731 133.633 349.314 139.03C357.86 133.586 365.093 126.31 370.485 117.731C365.042 109.177 357.769 101.948 349.182 96.5557ZM379.72 100.659C379.359 106.697 377.492 112.55 374.296 117.686C377.528 122.798 379.43 128.64 379.819 134.675C385.676 124.08 385.638 111.214 379.72 100.659ZM412.347 127.415L336.13 204.093C332.418 207.827 326.377 207.85 322.639 204.134L257.442 139.328C256.82 138.71 256.821 137.703 257.439 137.081L344.862 49.1301C345.48 48.5085 346.487 48.5012 347.109 49.1191L412.273 113.892C414.083 115.674 415.106 118.103 415.122 120.641C415.134 123.174 414.134 125.618 412.347 127.415ZM331.003 181.284C332.49 179.787 333.323 177.765 333.317 175.658C333.311 173.55 332.466 171.533 330.969 170.045L297.141 136.421C294.029 133.328 288.996 133.343 285.902 136.455L285.432 136.928C283.944 138.425 283.111 140.447 283.117 142.555C283.124 144.663 283.969 146.68 285.465 148.168L319.293 181.792C320.79 183.279 322.812 184.112 324.919 184.106C327.027 184.1 329.044 183.255 330.532 181.758L331.003 181.284ZM376.322 144.715C383.458 137.535 387.451 127.819 387.417 117.696C387.386 107.578 383.335 97.8857 376.159 90.7531C368.983 83.6205 359.267 79.6284 349.149 79.6583C339.027 79.6846 329.334 83.7358 322.197 90.9158C315.065 98.0915 311.073 107.808 311.107 117.93C311.137 128.048 315.184 137.745 322.36 144.877C329.54 152.006 339.256 155.989 349.374 155.96C359.488 155.925 369.176 151.878 376.309 144.702L376.322 144.715ZM324.236 117.866C321.016 112.749 319.114 106.916 318.7 100.889C312.855 111.488 312.881 124.359 318.769 134.936C319.139 128.881 321.018 123.015 324.236 117.866ZM349.327 142.807C344.207 146.031 338.369 147.928 332.333 148.335C342.933 154.188 355.799 154.166 366.371 148.274C360.32 147.9 354.463 146.021 349.327 142.807ZM349.172 92.7787C354.289 89.5424 360.131 87.6489 366.166 87.2512C355.563 81.3854 342.689 81.4077 332.103 87.3118C338.162 87.6772 344.032 89.5608 349.172 92.7787ZM420.765 122.33L418.249 119.83C418.509 123.484 417.183 127.067 414.615 129.668L338.398 206.346C335.813 208.929 332.238 210.277 328.582 210.039L331.098 212.54C334.836 216.255 340.877 216.233 344.588 212.499L420.806 135.821C424.517 132.087 424.503 126.046 420.765 122.33Z" fill="#F36EBD"/>
</g>
<path d="M64.7645 597.578L0 608.078V461.578C44.686 454.578 134.058 440.478 135.87 440.078C137.681 439.678 138.738 440.911 139.04 441.578C145.833 455.078 167.12 497.578 197.917 559.578C228.714 621.578 268.72 641.078 284.873 643.078L375 673.578V689.078H117.131L104.62 670.078L94.6558 651.078C86.5036 635.078 69.9275 602.478 68.8406 600.078C67.7536 597.678 65.6703 597.411 64.7645 597.578Z" fill="#ABEDBB"/>
<mask id="mask1_10630_12407" style="mask-type:alpha" maskUnits="userSpaceOnUse" x="0" y="440" width="375" height="250">
<path d="M64.7645 597.578L0 608.078V461.578C44.686 454.578 134.058 440.478 135.87 440.078C137.681 439.678 138.738 440.911 139.04 441.578C145.833 455.078 167.12 497.578 197.917 559.578C228.714 621.578 268.72 641.078 284.873 643.078L375 673.578V689.078H117.131L104.62 670.078L94.6558 651.078C86.5036 635.078 69.9275 602.478 68.8406 600.078C67.7536 597.678 65.6703 597.411 64.7645 597.578Z" fill="#ABEDBB"/>
</mask>
<g mask="url(#mask1_10630_12407)">
<path d="M234.051 639.409C227.414 644.55 221.827 650.916 217.59 658.164C212.806 650.439 211.447 643.052 214.853 639.171C218.259 635.29 225.759 635.679 234.051 639.409ZM226.539 672.887C223.379 670.135 220.508 667.08 217.956 663.756C214.214 672.037 213.825 679.538 217.706 682.944C221.587 686.35 229.02 685.026 236.711 680.217L236.715 680.22C233.084 678.118 229.678 675.663 226.539 672.887ZM261.499 680.108C264.915 676.216 263.581 668.794 258.772 661.103L258.768 661.1C254.532 668.348 248.945 674.714 242.307 679.855C250.588 683.597 258.089 683.986 261.495 680.105L261.499 680.108ZM239.676 639.008C246.925 643.244 253.295 648.834 258.436 655.472C262.165 647.181 262.566 639.69 258.674 636.274C254.781 632.857 247.375 634.262 239.676 639.008ZM222.991 708.986L191.182 681.068C189.424 679.526 186.752 679.7 185.209 681.457L184.818 681.903C183.279 683.656 183.45 686.333 185.208 687.875L217.017 715.793C218.774 717.335 221.45 717.157 222.989 715.404L223.363 714.978C224.11 714.135 224.495 713.03 224.426 711.906C224.353 710.779 223.838 709.729 222.991 708.986ZM236.953 640.827C229.684 646.118 223.678 652.961 219.375 660.855C224.67 668.128 231.509 674.13 239.407 678.437C246.676 673.146 252.682 666.303 256.985 658.408C251.694 651.132 244.855 645.13 236.953 640.827ZM264.225 642.78C264.237 648.148 262.906 653.434 260.357 658.159C263.501 662.509 265.507 667.578 266.184 672.902C270.788 663.196 270.046 651.803 264.225 642.78ZM294.593 664.682L231.311 736.785C228.229 740.296 222.88 740.649 219.365 737.564L158.058 683.757C157.473 683.244 157.419 682.351 157.932 681.767L230.517 599.063C231.03 598.478 231.922 598.416 232.507 598.929L293.783 652.709C295.484 654.187 296.524 656.283 296.678 658.529C296.828 660.773 296.076 662.992 294.593 664.682ZM225.515 716.867C226.75 715.459 227.376 713.623 227.255 711.756C227.133 709.89 226.274 708.15 224.866 706.915L193.057 678.997C190.131 676.429 185.674 676.719 183.105 679.646L182.714 680.091C181.479 681.499 180.853 683.335 180.974 685.201C181.096 687.068 181.955 688.808 183.363 690.043L215.172 717.96C216.58 719.196 218.416 719.822 220.283 719.701C222.149 719.579 223.889 718.72 225.124 717.312L225.515 716.867ZM263.639 681.986C269.565 675.234 272.566 666.409 271.978 657.446C271.395 648.487 267.273 640.126 260.526 634.204C253.778 628.282 244.953 625.281 235.994 625.864C227.031 626.444 218.67 630.565 212.744 637.317C206.822 644.065 203.821 652.89 204.408 661.853C204.992 670.812 209.11 679.177 215.857 685.099C222.608 691.017 231.433 694.01 240.392 693.427C249.347 692.84 257.705 688.723 263.627 681.975L263.639 681.986ZM216.032 661.073C212.899 656.719 210.894 651.657 210.195 646.342C205.602 656.051 206.333 667.449 212.13 676.492C212.124 671.109 213.466 665.81 216.032 661.073ZM239.627 681.781C235.269 684.918 230.204 686.92 224.88 687.612C234.59 692.212 245.984 691.485 255.022 685.685C249.643 685.687 244.352 684.345 239.627 681.781ZM236.737 637.483C241.09 634.335 246.159 632.336 251.483 631.652C241.769 627.041 230.369 627.769 221.318 633.58C226.705 633.57 232.007 634.916 236.737 637.483ZM301.768 659.715L299.402 657.639C299.834 660.861 298.857 664.107 296.726 666.552L233.443 738.655C231.296 741.086 228.204 742.476 224.953 742.466L227.319 744.543C230.834 747.627 236.183 747.275 239.264 743.764L302.547 671.661C305.628 668.15 305.283 662.8 301.768 659.715Z" fill="#F36EBD"/>
<path fill-rule="evenodd" clip-rule="evenodd" d="M117.477 484.531L119.709 479.86C122.909 481.016 126.263 481.741 129.681 482.005C131.977 487.86 135.695 493.044 140.503 497.09C131.42 495.897 123.25 491.345 117.477 484.531ZM124.76 441.607L113.616 443.255C117.344 436.739 123.061 431.434 130.106 428.228C127.472 432.313 125.659 436.856 124.76 441.607ZM138.075 441.436L139 439.5L128.373 441.072C130.279 432.307 134.298 426.097 139.641 425.29C145.62 424.388 152.002 430.382 156.594 439.95C150.371 439.691 144.152 440.193 138.075 441.436ZM127.843 462.843L136.228 445.299C143.367 443.552 150.752 442.924 158.123 443.454C161.929 453.236 163.516 463.744 162.767 474.213C152.979 478.02 142.477 479.605 132.002 478.857C129.989 473.685 128.597 468.309 127.843 462.843ZM125.37 468.017C126.085 471.543 127.049 475.021 128.258 478.425C125.704 478.049 123.321 477.507 121.164 476.817L125.37 468.017ZM109.552 443.857L88.9445 446.905L85.2465 422.412C85.1109 421.514 85.727 420.672 86.6247 420.536L180.729 406.328C183.329 405.923 185.981 406.572 188.102 408.126C190.216 409.68 191.631 412.021 192.023 414.616L208.742 525.349C209.556 530.74 205.845 535.779 200.447 536.594L106.294 550.809C105.396 550.945 104.559 550.322 104.423 549.424L100.111 520.864L115.907 487.815C117.63 489.7 119.543 491.426 121.629 492.964C130.063 499.185 140.626 501.806 150.989 500.241C161.351 498.671 170.663 493.049 176.885 484.615C183.1 476.182 185.716 465.626 184.151 455.263L184.169 455.26C182.604 444.891 176.987 435.572 168.547 429.351C160.113 423.13 149.551 420.515 139.188 422.079C128.825 423.644 119.506 429.26 113.284 437.695C111.845 439.644 110.598 441.708 109.552 443.857ZM133.523 482.307C138.409 482.531 143.297 482.268 148.131 481.519C152.968 480.808 157.719 479.616 162.326 477.96C160.83 488.441 156.417 496.07 150.457 496.97C144.497 497.87 138.097 491.878 133.523 482.307ZM162.326 477.96C162.328 477.959 162.33 477.958 162.333 477.957L162.326 477.958C162.326 477.959 162.326 477.959 162.326 477.96ZM161.872 443.888C172.354 445.385 179.981 449.779 180.884 455.757L180.878 455.758C181.778 461.718 175.786 468.119 166.215 472.693C166.622 462.901 165.146 453.124 161.866 443.889L161.872 443.888ZM128.823 519.227L177.673 511.852C178.974 511.655 180.298 511.986 181.359 512.769C182.415 513.553 183.11 514.728 183.301 516.03L183.399 516.683C183.806 519.376 181.951 521.898 179.252 522.306L130.401 529.681C127.702 530.089 125.185 528.227 124.778 525.534L124.675 524.85C124.268 522.151 126.123 519.635 128.823 519.227ZM160.438 440.257C158.14 434.427 154.424 429.261 149.625 425.233C162.058 426.829 172.783 434.74 177.978 446.153C172.718 442.75 166.685 440.726 160.438 440.257ZM183.354 510.132C185.111 511.428 186.279 513.369 186.605 515.531L186.708 516.214C187.035 518.376 186.493 520.575 185.196 522.332C183.9 524.089 181.959 525.257 179.798 525.583L130.947 532.959C128.785 533.285 126.586 532.743 124.829 531.447C123.072 530.151 121.905 528.21 121.578 526.048L121.475 525.364C120.796 520.87 123.891 516.674 128.386 515.995L177.237 508.62C179.398 508.293 181.597 508.836 183.354 510.132ZM160.022 494.081C163.411 488.81 165.436 482.783 165.917 476.534C171.76 474.246 176.94 470.535 180.986 465.733C179.36 478.164 171.434 488.879 160.022 494.081ZM189.358 405.024L192.991 404.475C198.389 403.66 203.422 407.379 204.236 412.77L220.955 523.503C221.769 528.895 218.058 533.933 212.66 534.748L209.027 535.297C211.481 532.403 212.568 528.598 212.015 524.853L195.297 414.12C194.719 410.379 192.557 407.064 189.358 405.024Z" fill="#F36EBD"/>
<path fill-rule="evenodd" clip-rule="evenodd" d="M82.0041 504.003C84.9106 494.272 89.2063 484.87 94.6603 476.303C86.378 476.097 79.3184 479.118 76.6997 484.849C74.081 490.58 76.4188 497.895 82.0041 504.003ZM83.1541 509.844C86.0179 512.246 89.1417 514.212 92.4901 515.721C93.8939 516.371 95.3339 516.939 96.8066 517.422L90.4653 530.374C88.6629 531.09 87.0401 531.19 85.6974 530.577C81.581 528.696 80.8588 520.458 83.1541 509.844ZM88.1629 535.076C86.8303 534.755 85.5336 534.31 84.2832 533.74C77.1258 530.469 72.0705 523.368 70.2291 514.009C68.3839 504.647 69.9091 493.789 74.4622 483.824C79.0182 473.852 86.2289 465.591 94.5139 460.859C102.795 456.125 111.469 455.304 118.627 458.574C120.555 459.455 122.331 460.614 123.933 462.019L128.652 452.381L87.3606 433.515C86.7406 433.232 85.9167 433.707 85.5223 434.57L29.7145 556.713C29.3201 557.577 29.5001 558.511 30.1201 558.794L68.0624 576.13L74.487 563.008L54.6578 553.948C53.1648 553.266 52.1106 551.791 51.727 549.841C51.3434 547.891 51.6625 545.631 52.6123 543.552L52.9128 542.894C54.8875 538.572 59.0072 536.217 62.1113 537.635L82.3766 546.895L88.1629 535.076ZM80.8769 549.958L60.66 540.72C58.7958 539.869 56.3254 541.281 55.1395 543.877L54.8389 544.534C53.6557 547.124 54.2023 549.922 56.0666 550.774L76.0147 559.888L80.8769 549.958ZM120.832 468.353C120.382 464.939 119.187 462.557 117.197 461.647C113.068 459.761 106.356 464.665 99.8539 473.294C105.483 474.231 110.748 476.249 115.486 479.272L120.832 468.353ZM113.932 482.445C109.03 479.254 103.508 477.24 97.5746 476.497C91.553 485.515 86.9356 495.621 84.0599 506.076C88.264 509.853 93.0864 512.612 98.3501 514.27L113.932 482.445ZM73.3883 494.69C74.8098 500.081 77.4147 504.6 80.97 507.843C79.2589 514.11 78.773 520.418 79.5573 526.199C72.8363 519.14 70.5044 507.228 73.3883 494.69ZM109.814 459.978C104.942 463.153 100.498 467.625 96.8887 473.003C92.1011 472.412 86.9554 473.398 81.9275 475.878C89.5371 465.484 100.077 459.475 109.814 459.978Z" fill="#F36EBD"/>
</g>
</g>
<defs>
<clipPath id="clip0_10630_12407">
<rect width="375" height="689" fill="white"/>
</clipPath>
</defs>
</svg>
