<svg width="375" height="689" viewBox="0 0 375 689" fill="none" xmlns="http://www.w3.org/2000/svg">
<rect width="375" height="689" fill="#22306D"/>
<path d="M34.8732 433.304C33.7862 435.704 27.9287 442.638 24.9094 446.304H0V298.804C21.2862 283.804 56.1594 279.304 91.9384 273.804C127.717 268.304 181.159 265.304 209.239 262.804C237.319 260.304 304.801 252.304 334.239 246.804C357.79 242.404 370.471 236.833 375 234V369.804C368.207 371.304 350.091 375.004 322.917 379.804C288.949 385.804 178.442 395.304 138.134 398.804C97.8261 402.304 54.8007 413.304 45.7428 417.304C36.6848 421.304 36.2319 430.304 34.8732 433.304Z" fill="#ABEDBB"/>
</svg>
