<svg width="375" height="689" viewBox="0 0 375 689" fill="none" xmlns="http://www.w3.org/2000/svg">
<g clip-path="url(#clip0_10630_12775)">
<rect width="375" height="689" fill="#F36EBD"/>
<rect x="16" y="52" width="19.1333" height="2" rx="1" fill="white" fill-opacity="0.3"/>
<rect x="16" y="52" width="7.97222" height="2" rx="1" fill="white"/>
<rect x="39.1333" y="52" width="19.1333" height="2" rx="1" fill="white" fill-opacity="0.3"/>
<rect x="62.2667" y="52" width="19.1333" height="2" rx="1" fill="white" fill-opacity="0.3"/>
<rect x="85.4" y="52" width="19.1333" height="2" rx="1" fill="white" fill-opacity="0.3"/>
<rect x="108.533" y="52" width="19.1333" height="2" rx="1" fill="white" fill-opacity="0.3"/>
<rect x="131.667" y="52" width="19.1333" height="2" rx="1" fill="white" fill-opacity="0.3"/>
<rect x="154.8" y="52" width="19.1333" height="2" rx="1" fill="white" fill-opacity="0.3"/>
<rect x="177.933" y="52" width="19.1333" height="2" rx="1" fill="white" fill-opacity="0.3"/>
<rect x="201.067" y="52" width="19.1333" height="2" rx="1" fill="white" fill-opacity="0.3"/>
<rect x="224.2" y="52" width="19.1333" height="2" rx="1" fill="white" fill-opacity="0.3"/>
<rect x="247.333" y="52" width="19.1333" height="2" rx="1" fill="white" fill-opacity="0.3"/>
<rect x="270.467" y="52" width="19.1333" height="2" rx="1" fill="white" fill-opacity="0.3"/>
<rect x="293.6" y="52" width="19.1333" height="2" rx="1" fill="white" fill-opacity="0.3"/>
<rect x="316.733" y="52" width="19.1333" height="2" rx="1" fill="white" fill-opacity="0.3"/>
<rect x="339.867" y="52" width="19.1333" height="2" rx="1" fill="white" fill-opacity="0.3"/>
<path d="M73.3986 165.877L0 114.721V-8.5H126.779L141.904 15.0765L178.826 -6.2758H375V102.71C369.958 103.155 357.918 104.4 350.089 105.824C340.302 107.603 318.505 120.948 307.829 124.062C297.153 127.176 272.687 143.635 254.004 157.87C235.32 172.105 190.836 196.126 166.815 203.689C147.598 209.738 128.262 201.168 120.996 196.126L73.3986 165.877Z" fill="#ABEDBB"/>
<g clip-path="url(#clip1_10630_12775)">
<path d="M-6.19005 89.2953C-6.78369 89.4546 -7.32315 89.7716 -7.75125 90.2127C-8.17934 90.6537 -8.48011 91.2024 -8.62167 91.8006C-8.76324 92.3987 -8.74031 93.024 -8.55534 93.6101C-8.37036 94.1963 -8.03022 94.7215 -7.57098 95.13L20.4855 120.106L53.5598 100.056C54.3323 99.5875 55.2593 99.4453 56.1367 99.6604C57.0141 99.8755 57.7701 100.43 58.2384 101.203C58.7067 101.975 58.849 102.902 58.6338 103.78C58.4187 104.657 57.8639 105.413 57.0913 105.882L24.0171 125.931L33.1829 162.358C33.3335 162.954 33.6422 163.497 34.0763 163.931C34.5105 164.366 35.054 164.675 35.6493 164.825C36.2446 164.976 36.8696 164.963 37.4581 164.787C38.0465 164.612 38.5767 164.281 38.9924 163.829C60.1544 140.784 77.2264 114.295 89.4725 85.5032C89.6842 85.0059 89.7746 84.4654 89.7362 83.9263C89.6978 83.3872 89.5316 82.865 89.2514 82.4028C88.9712 81.9406 88.5851 81.5517 88.1249 81.2683C87.6647 80.9848 87.1437 80.815 86.6049 80.7727C55.4136 78.311 24.031 81.1933 -6.19005 89.2953Z" fill="#22306D"/>
</g>
<g clip-path="url(#clip2_10630_12775)">
<path d="M237.567 -3.12433C237.033 -3.95443 236.285 -4.62467 235.401 -5.06399C234.517 -5.50332 233.531 -5.69536 232.547 -5.61976C231.564 -5.54416 230.618 -5.20374 229.812 -4.63457C229.006 -4.06541 228.369 -3.28872 227.968 -2.38684L203.473 52.7199L250.289 93.5122C251.382 94.465 252.053 95.8132 252.152 97.2601C252.252 98.7071 251.772 100.134 250.819 101.228C249.867 102.321 248.518 102.992 247.072 103.091C245.625 103.191 244.197 102.711 243.104 101.758L196.288 60.9661L145.052 92.7739C144.215 93.2949 143.535 94.0325 143.083 94.9086C142.63 95.7847 142.424 96.7667 142.484 97.7508C142.544 98.7348 142.869 99.6843 143.425 100.499C143.98 101.313 144.746 101.962 145.64 102.377C191.22 123.488 240.07 136.662 290.084 141.33C290.948 141.411 291.819 141.285 292.625 140.963C293.43 140.641 294.148 140.132 294.718 139.478C295.288 138.824 295.694 138.043 295.903 137.201C296.112 136.359 296.117 135.479 295.919 134.634C284.451 85.728 264.717 39.1391 237.567 -3.12433Z" fill="#22306D"/>
</g>
<path d="M282.018 649.491C267.281 649.14 222.661 675.661 202.193 688.965H0V597.298L247.368 478L375 506.509V681.07C363.45 679.023 338.947 674.404 333.333 672.298C326.316 669.667 317.982 659.14 312.281 653.877C306.579 648.614 300.439 649.93 282.018 649.491Z" fill="#ABEDBB"/>
<g clip-path="url(#clip3_10630_12775)">
<path d="M253.71 512.742C253.025 512.899 252.396 513.238 251.888 513.724C251.381 514.21 251.014 514.824 250.827 515.501C250.641 516.179 250.64 516.894 250.827 517.571C251.014 518.248 251.38 518.863 251.888 519.348L282.886 549.056L321.507 527.544C322.409 527.041 323.474 526.918 324.467 527.2C325.461 527.483 326.301 528.149 326.803 529.051C327.306 529.953 327.429 531.018 327.147 532.011C326.864 533.004 326.199 533.844 325.296 534.347L286.675 555.859L295.614 597.853C295.761 598.539 296.09 599.173 296.568 599.687C297.046 600.201 297.654 600.577 298.327 600.774C299.001 600.971 299.715 600.983 300.395 600.807C301.074 600.631 301.694 600.275 302.188 599.776C327.329 574.342 347.942 544.803 363.14 512.43C363.403 511.871 363.529 511.257 363.508 510.64C363.486 510.023 363.318 509.419 363.018 508.879C362.717 508.34 362.293 507.879 361.779 507.536C361.265 507.193 360.677 506.977 360.063 506.906C324.539 502.784 288.571 504.757 253.71 512.742Z" fill="#22306D"/>
</g>
<path d="M54.8715 578.325C54.1362 578.12 53.3591 578.117 52.6225 578.318C51.886 578.518 51.2174 578.915 50.6877 579.464C50.1579 580.014 49.7868 580.697 49.6137 581.44C49.4405 582.184 49.4718 582.96 49.7041 583.687L63.8886 628.131L111.922 627.628C113.044 627.616 114.124 628.05 114.926 628.835C115.728 629.62 116.185 630.692 116.196 631.814C116.208 632.936 115.774 634.016 114.989 634.818C114.204 635.619 113.132 636.076 112.01 636.088L63.9772 636.591L50.7269 681.322C50.5111 682.054 50.4972 682.83 50.6864 683.569C50.8757 684.307 51.2612 684.981 51.8021 685.519C52.343 686.057 53.0192 686.438 53.7591 686.623C54.499 686.808 55.2752 686.789 56.0054 686.569C93.2025 675.328 128.207 657.819 159.511 634.795C160.052 634.398 160.49 633.877 160.79 633.277C161.09 632.676 161.243 632.013 161.236 631.342C161.229 630.671 161.062 630.011 160.75 629.417C160.437 628.823 159.988 628.311 159.439 627.925C127.66 605.561 92.2964 588.786 54.8715 578.325Z" fill="#22306D"/>
</g>
<defs>
<clipPath id="clip0_10630_12775">
<rect width="375" height="689" fill="white"/>
</clipPath>
<clipPath id="clip1_10630_12775">
<rect width="109" height="109" fill="white" transform="translate(-25.3577 88.147) rotate(-31.2243)"/>
</clipPath>
<clipPath id="clip2_10630_12775">
<rect width="174.997" height="174.997" fill="white" transform="translate(229.962 -33) rotate(41.0665)"/>
</clipPath>
<clipPath id="clip3_10630_12775">
<rect width="124.59" height="124.59" fill="white" transform="translate(231.864 510.625) rotate(-29.1174)"/>
</clipPath>
</defs>
</svg>
