<svg width="375" height="689" viewBox="0 0 375 689" fill="none" xmlns="http://www.w3.org/2000/svg">
<g clip-path="url(#clip0_10630_12979)">
<rect width="375" height="689" fill="#CFF469"/>
<path fill-rule="evenodd" clip-rule="evenodd" d="M6.15183 118.769L18.6592 94.165C20.1021 91.3266 23.5908 90.1863 26.4514 91.618C27.5744 92.1801 28.4829 93.0891 29.0399 94.2081L40.852 117.936C41.8169 119.874 43.7034 121.197 45.8667 121.454L70.6021 124.385C73.9601 124.783 76.3572 127.806 75.9562 131.138C75.791 132.51 75.1593 133.786 74.1653 134.754L54.6144 153.795C53.825 154.563 53.4425 155.654 53.5802 156.743L56.8292 182.449C57.2944 186.129 54.6649 189.486 50.9561 189.948C49.5505 190.123 48.1251 189.856 46.8806 189.184L26.2247 178.039C24.7303 177.232 22.9313 177.209 21.4163 177.977L0.0153491 188.82C-2.99658 190.346 -6.68497 189.16 -8.22292 186.172C-8.79835 185.053 -9.01054 183.786 -8.83031 182.543L-7.11988 170.749C-6.2833 164.981 -2.67014 159.977 2.56562 157.336L26.3349 145.347C26.9696 145.027 27.2226 144.257 26.9 143.627C26.65 143.139 26.1149 142.863 25.5688 142.94L-3.50102 147.053C-7.94487 147.681 -12.4516 146.442 -15.9357 143.634L-25.6182 135.83C-28.3813 133.603 -28.8016 129.575 -26.5571 126.833C-25.5133 125.558 -24.0152 124.73 -22.3732 124.522L2.44988 121.366C4.04194 121.164 5.42896 120.191 6.15183 118.769Z" fill="url(#paint0_linear_10630_12979)"/>
<path fill-rule="evenodd" clip-rule="evenodd" d="M295.183 445.037L315.027 406.019C317.316 401.518 322.851 399.71 327.389 401.98C329.171 402.872 330.612 404.313 331.496 406.088L350.236 443.716C351.767 446.79 354.76 448.889 358.192 449.295L397.436 453.943C402.764 454.574 406.567 459.369 405.93 464.653C405.668 466.83 404.666 468.852 403.089 470.387L372.071 500.583C370.819 501.803 370.212 503.532 370.43 505.259L375.585 546.025C376.323 551.861 372.151 557.185 366.267 557.917C364.037 558.195 361.775 557.771 359.801 556.706L327.03 539.031C324.659 537.752 321.804 537.716 319.401 538.933L285.447 556.128C280.669 558.548 274.817 556.668 272.377 551.929C271.464 550.155 271.128 548.145 271.413 546.174L274.127 527.471C275.454 518.323 281.187 510.388 289.494 506.2L327.204 487.187C328.211 486.679 328.613 485.458 328.101 484.459C327.704 483.685 326.855 483.248 325.989 483.37L279.869 489.892C272.818 490.889 265.668 488.924 260.14 484.47L244.779 472.094C240.395 468.562 239.728 462.174 243.289 457.826C244.945 455.804 247.322 454.492 249.927 454.161L289.31 449.157C291.836 448.836 294.036 447.292 295.183 445.037Z" fill="url(#paint1_linear_10630_12979)"/>
</g>
<defs>
<linearGradient id="paint0_linear_10630_12979" x1="68" y1="107.127" x2="-20.7691" y2="205.207" gradientUnits="userSpaceOnUse">
<stop offset="0.139343" stop-color="#FA7FD8"/>
<stop offset="0.830677" stop-color="#1F90FF"/>
</linearGradient>
<linearGradient id="paint1_linear_10630_12979" x1="393.308" y1="426.575" x2="252.538" y2="582.176" gradientUnits="userSpaceOnUse">
<stop offset="0.139343" stop-color="#FA7FD8"/>
<stop offset="0.830677" stop-color="#1F90FF"/>
</linearGradient>
<clipPath id="clip0_10630_12979">
<rect width="375" height="689" fill="white"/>
</clipPath>
</defs>
</svg>
