<svg width="375" height="689" viewBox="0 0 375 689" fill="none" xmlns="http://www.w3.org/2000/svg">
<g clip-path="url(#clip0_10630_13078)">
<rect width="375" height="689" fill="#9BEFE2"/>
<path d="M76.5 0L0 24.5V219C22 212.5 84.6 193.4 159 169C233.4 144.6 256.333 113.833 258.5 101.5L316.5 0H76.5Z" fill="#3C00E4"/>
<mask id="mask0_10630_13078" style="mask-type:alpha" maskUnits="userSpaceOnUse" x="0" y="0" width="317" height="219">
<path d="M76.5 0L0 24.5V219C22 212.5 84.6 193.4 159 169C233.4 144.6 256.333 113.833 258.5 101.5L316.5 0H76.5Z" fill="#3C00E4"/>
</mask>
<g mask="url(#mask0_10630_13078)">
<path fill-rule="evenodd" clip-rule="evenodd" d="M97.3509 164.791C85.5601 190.656 55.0339 202.066 29.1685 190.275C3.30311 178.485 -8.10661 147.958 3.68414 122.093C15.4749 96.2275 46.0011 84.8178 71.8665 96.6085C97.7319 108.399 109.142 138.925 97.3509 164.791ZM43.9584 115.458L75.9417 130.037L75.9457 130.039C81.8223 132.718 82.6542 140.768 77.3658 144.542L42.0268 169.755C39.7203 171.402 36.4924 169.93 36.2226 167.109L32.0797 123.898C31.4588 117.421 38.0778 112.777 43.9584 115.458ZM40.8831 156.832L54.3638 127.26L41.2902 121.3C39.8573 120.647 38.3185 121.783 38.4615 123.282L40.3774 146.562L40.8831 156.832ZM54.8054 153.144L73.6343 139.311C74.8599 138.436 74.7083 136.529 73.2754 135.876L60.2019 129.916L46.7159 159.5L54.8054 153.144Z" fill="#C0AFD0"/>
<path fill-rule="evenodd" clip-rule="evenodd" d="M247.715 22.3833C261.511 54.0576 247.018 90.9184 215.343 104.714C183.669 118.511 146.808 104.017 133.012 72.3432C119.216 40.669 133.709 3.80818 165.383 -9.98788C197.058 -23.7839 233.918 -9.29088 247.715 22.3833ZM159.741 30.5518L198.907 13.4925L198.912 13.4904C206.109 10.3559 214.061 16.1459 213.174 23.9915L207.245 76.4186C206.86 79.8413 202.907 81.5631 200.138 79.5145L157.717 48.1461C151.359 43.4444 152.54 33.6883 159.741 30.5518ZM194.637 66.9515L178.863 30.7376L162.854 37.7107C161.099 38.475 160.875 40.7891 162.347 41.8782L184.944 59.0635L194.637 66.9515ZM202.616 51.3718L205.414 23.1138C205.619 21.2947 203.772 19.8822 202.018 20.6465L186.008 27.6197L201.788 63.848L202.616 51.3718Z" fill="#C0AFD0"/>
</g>
<g clip-path="url(#clip1_10630_13078)">
<path d="M77.5 515.5L-21 563.5L-42.5 632V705L27 693.5C48 683.167 92.1 661.4 100.5 657C108.9 652.6 111 655.167 111 657L163 689.5L399.5 705C404 631.667 410.3 481.6 399.5 468C388.7 454.4 366.333 437.667 356.5 431L276 537C338 581.4 363.5 627.167 368.5 644.5C370.1 647.7 367.833 647.5 366.5 647C339.5 641.5 201.5 551.5 163 525C132.2 503.8 93.1667 509.834 77.5 515.5Z" fill="#3C00E4"/>
<mask id="mask1_10630_13078" style="mask-type:alpha" maskUnits="userSpaceOnUse" x="-43" y="431" width="449" height="274">
<path d="M77.5 515.5L-21 563.5L-42.5 632V705L27 693.5C48 683.167 92.1 661.4 100.5 657C108.9 652.6 111 655.167 111 657L163 689.5L399.5 705C404 631.667 410.3 481.6 399.5 468C388.7 454.4 366.333 437.667 356.5 431L276 537C338 581.4 363.5 627.167 368.5 644.5C370.1 647.7 367.833 647.5 366.5 647C339.5 641.5 201.5 551.5 163 525C132.2 503.8 93.1667 509.834 77.5 515.5Z" fill="#3C00E4"/>
</mask>
<g mask="url(#mask1_10630_13078)">
<path fill-rule="evenodd" clip-rule="evenodd" d="M48.6619 594.023C51.677 622.289 31.2073 647.647 2.94162 650.662C-25.3241 653.677 -50.682 633.207 -53.6971 604.942C-56.7121 576.676 -36.2425 551.318 -7.97675 548.303C20.289 545.288 45.6469 565.757 48.6619 594.023ZM-22.4065 578.732L12.5449 575.004L12.5493 575.003C18.9712 574.318 23.7847 580.825 21.1529 586.764L3.56586 626.454C2.41864 629.045 -1.10891 629.421 -2.77693 627.13L-28.3357 592.043C-32.1666 586.784 -28.8328 579.417 -22.4065 578.732ZM-3.99574 615.912L-7.44289 583.595L-21.7297 585.119C-23.2956 585.286 -24.0418 587.047 -23.1556 588.265L-9.65798 607.329L-3.99574 615.912ZM6.11144 605.652L15.2788 584.161C15.8882 582.784 14.7872 581.22 13.2213 581.387L-1.06548 582.91L2.38305 615.24L6.11144 605.652Z" fill="#C0AFD0"/>
<path fill-rule="evenodd" clip-rule="evenodd" d="M169.001 563.672C202.344 543.213 245.958 553.658 266.416 587.001C286.874 620.344 276.429 663.958 243.086 684.416C209.744 704.874 166.13 694.429 145.672 661.087C125.213 627.744 135.658 584.13 169.001 563.672ZM192.017 661.028L166.719 619.798L166.716 619.793C162.068 612.218 167.308 602.389 176.245 602.148L235.964 600.538C239.862 600.431 242.416 604.593 240.555 608.02L212.064 660.526C207.793 668.396 196.668 668.608 192.017 661.028ZM227.335 616.167L189.213 639.557L199.554 656.41C200.687 658.257 203.317 658.143 204.306 656.322L220.017 628.278L227.335 616.167ZM208.609 609.673L176.483 610.987C174.411 611.044 173.118 613.337 174.251 615.184L184.592 632.037L222.728 608.637L208.609 609.673Z" fill="#C0AFD0"/>
<path fill-rule="evenodd" clip-rule="evenodd" d="M428.573 583.685C397.291 607.173 352.891 600.855 329.402 569.573C305.914 538.291 312.233 493.891 343.515 470.402C374.797 446.914 419.197 453.233 442.685 484.515C466.173 515.797 459.855 560.197 428.573 583.685ZM396.549 488.91L425.593 527.591L425.597 527.596C430.933 534.703 426.636 544.979 417.761 546.055L358.454 553.246C354.583 553.717 351.651 549.813 353.184 546.226L376.637 491.285C380.152 483.05 391.209 481.798 396.549 488.91ZM365.583 536.878L401.349 510.024L389.477 494.212C388.176 492.479 385.568 492.839 384.754 494.744L371.736 524.136L365.583 536.878ZM384.835 541.591L416.697 537.277C418.754 537.027 419.827 534.623 418.526 532.89L406.654 517.078L370.874 543.944L384.835 541.591Z" fill="#C0AFD0"/>
</g>
</g>
</g>
<defs>
<clipPath id="clip0_10630_13078">
<rect width="375" height="689" fill="white"/>
</clipPath>
<clipPath id="clip1_10630_13078">
<rect width="414" height="258" fill="white" transform="translate(-20 431)"/>
</clipPath>
</defs>
</svg>
