<svg width="96" height="96" viewBox="0 0 96 96" fill="none" xmlns="http://www.w3.org/2000/svg">
<rect width="96" height="96" rx="16" fill="white" fill-opacity="0.1"/>
<rect x="29" y="55" width="38" height="21" rx="4" fill="url(#paint0_linear_6781_32599)"/>
<g filter="url(#filter0_biii_6781_32599)">
<rect x="20" y="26" width="56" height="42" rx="12" fill="url(#paint1_linear_6781_32599)" fill-opacity="0.15"/>
</g>
<path d="M46 41C46 39.8954 46.8954 39 48 39C49.1046 39 50 39.8954 50 41V53C50 54.1046 49.1046 55 48 55C46.8954 55 46 54.1046 46 53V41Z" fill="white" fill-opacity="0.7"/>
<path d="M39 47C39 45.8954 39.8954 45 41 45C42.1046 45 43 45.8954 43 47V53C43 54.1046 42.1046 55 41 55C39.8954 55 39 54.1046 39 53V47Z" fill="white" fill-opacity="0.7"/>
<path d="M55 49C53.8954 49 53 49.8954 53 51V53C53 54.1046 53.8954 55 55 55C56.1046 55 57 54.1046 57 53V51C57 49.8954 56.1046 49 55 49Z" fill="white" fill-opacity="0.7"/>
<defs>
<filter id="filter0_biii_6781_32599" x="6" y="12" width="84" height="70" filterUnits="userSpaceOnUse" color-interpolation-filters="sRGB">
<feFlood flood-opacity="0" result="BackgroundImageFix"/>
<feGaussianBlur in="BackgroundImageFix" stdDeviation="7"/>
<feComposite in2="SourceAlpha" operator="in" result="effect1_backgroundBlur_6781_32599"/>
<feBlend mode="normal" in="SourceGraphic" in2="effect1_backgroundBlur_6781_32599" result="shape"/>
<feColorMatrix in="SourceAlpha" type="matrix" values="0 0 0 0 0 0 0 0 0 0 0 0 0 0 0 0 0 0 127 0" result="hardAlpha"/>
<feOffset dy="-3"/>
<feGaussianBlur stdDeviation="1.5"/>
<feComposite in2="hardAlpha" operator="arithmetic" k2="-1" k3="1"/>
<feColorMatrix type="matrix" values="0 0 0 0 1 0 0 0 0 1 0 0 0 0 1 0 0 0 0.08 0"/>
<feBlend mode="normal" in2="shape" result="effect2_innerShadow_6781_32599"/>
<feColorMatrix in="SourceAlpha" type="matrix" values="0 0 0 0 0 0 0 0 0 0 0 0 0 0 0 0 0 0 127 0" result="hardAlpha"/>
<feOffset dy="4"/>
<feGaussianBlur stdDeviation="2"/>
<feComposite in2="hardAlpha" operator="arithmetic" k2="-1" k3="1"/>
<feColorMatrix type="matrix" values="0 0 0 0 1 0 0 0 0 1 0 0 0 0 1 0 0 0 0.1 0"/>
<feBlend mode="normal" in2="effect2_innerShadow_6781_32599" result="effect3_innerShadow_6781_32599"/>
<feColorMatrix in="SourceAlpha" type="matrix" values="0 0 0 0 0 0 0 0 0 0 0 0 0 0 0 0 0 0 127 0" result="hardAlpha"/>
<feOffset dy="-1"/>
<feGaussianBlur stdDeviation="0.5"/>
<feComposite in2="hardAlpha" operator="arithmetic" k2="-1" k3="1"/>
<feColorMatrix type="matrix" values="0 0 0 0 1 0 0 0 0 1 0 0 0 0 1 0 0 0 0.15 0"/>
<feBlend mode="normal" in2="effect3_innerShadow_6781_32599" result="effect4_innerShadow_6781_32599"/>
</filter>
<linearGradient id="paint0_linear_6781_32599" x1="23.1538" y1="73.375" x2="50.1543" y2="42.115" gradientUnits="userSpaceOnUse">
<stop stop-color="#6AB3F7"/>
<stop offset="1" stop-color="#67EBD4"/>
</linearGradient>
<linearGradient id="paint1_linear_6781_32599" x1="11.3846" y1="62.75" x2="65.2841" y2="16.7691" gradientUnits="userSpaceOnUse">
<stop stop-color="#6AB3F7"/>
<stop offset="1" stop-color="#67EBD4"/>
</linearGradient>
</defs>
</svg>
