<svg width="96" height="96" viewBox="0 0 96 96" fill="none" xmlns="http://www.w3.org/2000/svg">
<rect width="96" height="96" rx="16" fill="white" fill-opacity="0.1"/>
<path d="M55.8759 51.2655C55.8759 48.5174 58.1037 46.2896 60.8518 46.2896C63.6 46.2896 65.8278 48.5174 65.8278 51.2655V68.6815C65.8278 71.4297 63.6 73.6575 60.8518 73.6575C58.1037 73.6575 55.8759 71.4297 55.8759 68.6815V51.2655Z" fill="url(#paint0_linear_3815_33197)"/>
<path d="M74.5361 37.5815H82.0001V52.5095C82.0001 54.5706 80.3292 56.2415 78.2681 56.2415C76.207 56.2415 74.5361 54.5706 74.5361 52.5095V37.5815Z" fill="url(#paint1_linear_3815_33197)"/>
<path d="M74.5361 37.5815H82.0001V52.5095C82.0001 54.5706 80.3292 56.2415 78.2681 56.2415C76.207 56.2415 74.5361 54.5706 74.5361 52.5095V37.5815Z" fill="black" fill-opacity="0.2"/>
<rect x="74.5361" y="59.9736" width="7.46398" height="7.46398" rx="3.73199" fill="url(#paint2_linear_3815_33197)"/>
<rect x="74.5361" y="59.9736" width="7.46398" height="7.46398" rx="3.73199" fill="black" fill-opacity="0.2"/>
<g filter="url(#filter0_b_3815_33197)">
<path d="M26.0203 42.5575C26.0203 39.8094 28.2481 37.5815 30.9963 37.5815H60.8522C63.6004 37.5815 65.8282 39.8094 65.8282 42.5575V69.6009C65.8282 70.6219 65.5124 71.6219 64.7383 72.2875C62.6557 74.078 57.2702 77.3895 45.9242 77.3895C34.5782 77.3895 29.1928 74.078 27.1102 72.2875C26.336 71.622 26.0203 70.6219 26.0203 69.6009V42.5575Z" fill="url(#paint3_linear_3815_33197)" fill-opacity="0.15"/>
</g>
<g filter="url(#filter1_biii_3815_33197)">
<path d="M12.7461 41.0108C9.08464 39.117 9.08464 36.0464 12.7461 34.1526L39.295 20.4204C42.9565 18.5265 48.8928 18.5265 52.5543 20.4204L79.1032 34.1526C82.7647 36.0464 82.7647 39.117 79.1032 41.0108L52.5543 54.743C48.8928 56.6369 42.9565 56.6369 39.295 54.743L12.7461 41.0108Z" fill="url(#paint4_linear_3815_33197)" fill-opacity="0.15"/>
</g>
<rect x="32.2402" y="58.7295" width="4.97599" height="11.196" rx="2.488" fill="white" fill-opacity="0.7"/>
<defs>
<filter id="filter0_b_3815_33197" x="12.0203" y="23.5815" width="67.8079" height="67.8081" filterUnits="userSpaceOnUse" color-interpolation-filters="sRGB">
<feFlood flood-opacity="0" result="BackgroundImageFix"/>
<feGaussianBlur in="BackgroundImageFix" stdDeviation="7"/>
<feComposite in2="SourceAlpha" operator="in" result="effect1_backgroundBlur_3815_33197"/>
<feBlend mode="normal" in="SourceGraphic" in2="effect1_backgroundBlur_3815_33197" result="shape"/>
</filter>
<filter id="filter1_biii_3815_33197" x="-4" y="5" width="99.8492" height="65.1636" filterUnits="userSpaceOnUse" color-interpolation-filters="sRGB">
<feFlood flood-opacity="0" result="BackgroundImageFix"/>
<feGaussianBlur in="BackgroundImageFix" stdDeviation="7"/>
<feComposite in2="SourceAlpha" operator="in" result="effect1_backgroundBlur_3815_33197"/>
<feBlend mode="normal" in="SourceGraphic" in2="effect1_backgroundBlur_3815_33197" result="shape"/>
<feColorMatrix in="SourceAlpha" type="matrix" values="0 0 0 0 0 0 0 0 0 0 0 0 0 0 0 0 0 0 127 0" result="hardAlpha"/>
<feOffset dy="-3"/>
<feGaussianBlur stdDeviation="1.5"/>
<feComposite in2="hardAlpha" operator="arithmetic" k2="-1" k3="1"/>
<feColorMatrix type="matrix" values="0 0 0 0 1 0 0 0 0 1 0 0 0 0 1 0 0 0 0.08 0"/>
<feBlend mode="normal" in2="shape" result="effect2_innerShadow_3815_33197"/>
<feColorMatrix in="SourceAlpha" type="matrix" values="0 0 0 0 0 0 0 0 0 0 0 0 0 0 0 0 0 0 127 0" result="hardAlpha"/>
<feOffset dy="-4"/>
<feGaussianBlur stdDeviation="2"/>
<feComposite in2="hardAlpha" operator="arithmetic" k2="-1" k3="1"/>
<feColorMatrix type="matrix" values="0 0 0 0 1 0 0 0 0 1 0 0 0 0 1 0 0 0 0.1 0"/>
<feBlend mode="normal" in2="effect2_innerShadow_3815_33197" result="effect3_innerShadow_3815_33197"/>
<feColorMatrix in="SourceAlpha" type="matrix" values="0 0 0 0 0 0 0 0 0 0 0 0 0 0 0 0 0 0 127 0" result="hardAlpha"/>
<feOffset dy="-1"/>
<feGaussianBlur stdDeviation="0.5"/>
<feComposite in2="hardAlpha" operator="arithmetic" k2="-1" k3="1"/>
<feColorMatrix type="matrix" values="0 0 0 0 1 0 0 0 0 1 0 0 0 0 1 0 0 0 0.15 0"/>
<feBlend mode="normal" in2="effect3_innerShadow_3815_33197" result="effect4_innerShadow_3815_33197"/>
</filter>
<linearGradient id="paint0_linear_3815_33197" x1="54.3448" y1="70.2365" x2="70.0446" y2="66.5838" gradientUnits="userSpaceOnUse">
<stop stop-color="#6AB3F7"/>
<stop offset="1" stop-color="#67EBD4"/>
</linearGradient>
<linearGradient id="paint1_linear_3815_33197" x1="73.3878" y1="53.909" x2="85.0371" y2="50.9277" gradientUnits="userSpaceOnUse">
<stop stop-color="#6AB3F7"/>
<stop offset="1" stop-color="#67EBD4"/>
</linearGradient>
<linearGradient id="paint2_linear_3815_33197" x1="73.3878" y1="66.5046" x2="82.1948" y2="60.8698" gradientUnits="userSpaceOnUse">
<stop stop-color="#6AB3F7"/>
<stop offset="1" stop-color="#67EBD4"/>
</linearGradient>
<linearGradient id="paint3_linear_3815_33197" x1="19.896" y1="72.4135" x2="66.8665" y2="42.361" gradientUnits="userSpaceOnUse">
<stop stop-color="#6AB3F7"/>
<stop offset="1" stop-color="#67EBD4"/>
</linearGradient>
<linearGradient id="paint4_linear_3815_33197" x1="-1.05374" y1="51.518" x2="46.1702" y2="-6.8969" gradientUnits="userSpaceOnUse">
<stop stop-color="#6AB3F7"/>
<stop offset="1" stop-color="#67EBD4"/>
</linearGradient>
</defs>
</svg>
