<svg width="32" height="32" viewBox="0 0 32 32" fill="none" xmlns="http://www.w3.org/2000/svg">
    <path d="M28.5 15.7777C28.5 14.7499 28.4149 13.9999 28.2307 13.2222H16.2551V17.861H23.2845C23.1428 19.0138 22.3775 20.7499 20.6768 21.9165L20.653 22.0718L24.4394 24.9465L24.7018 24.9722C27.111 22.7916 28.5 19.5832 28.5 15.7777Z" fill="#4285F4"/>
    <path d="M16.2541 28C19.6979 28 22.589 26.8889 24.7008 24.9722L20.6758 21.9166C19.5988 22.6527 18.1531 23.1666 16.2541 23.1666C12.8811 23.1666 10.0183 20.9861 8.99784 17.9722L8.84826 17.9846L4.91105 20.9708L4.85956 21.111C6.95703 25.1944 11.2654 28 16.2541 28Z" fill="#34A853"/>
    <path d="M8.99881 17.9722C8.72954 17.1944 8.5737 16.361 8.5737 15.5C8.5737 14.6388 8.72954 13.8055 8.98464 13.0277L8.97751 12.8621L4.99094 9.828L4.86051 9.8888C3.99604 11.5833 3.5 13.4861 3.5 15.5C3.5 17.5139 3.99604 19.4166 4.86051 21.111L8.99881 17.9722Z" fill="#FBBC05"/>
    <path d="M16.2542 7.8333C18.6493 7.8333 20.2649 8.84719 21.1861 9.69447L24.7859 6.25C22.5751 4.23612 19.698 3 16.2542 3C11.2655 3 6.95705 5.80553 4.85956 9.88884L8.9837 13.0278C10.0184 10.0139 12.8812 7.8333 16.2542 7.8333Z" fill="#EB4335"/>
    </svg>
    