<svg width="24" height="24" viewBox="0 0 24 24" fill="none" xmlns="http://www.w3.org/2000/svg">
    <path d="M19.8617 3.59998L12.6843 8.84998L14.0219 5.74313L19.8617 3.59998Z" fill="#E27625"/>
    <path d="M3.30621 3.59998L10.4261 8.89313L9.14594 5.74313L3.30621 3.59998Z" fill="#E27625"/>
    <path d="M17.2726 15.7684L15.374 18.6451L19.4589 19.7671L20.624 15.826L17.2726 15.7684Z" fill="#E27625"/>
    <path d="M2.54388 15.826L3.70895 19.7671L7.79388 18.6451L5.89525 15.7684L2.54388 15.826Z" fill="#E27625"/>
    <path d="M7.57807 10.8925L6.44177 12.5898L10.4836 12.7767L10.3541 8.46167L7.57807 10.8925Z" fill="#E27625"/>
    <path d="M15.5897 10.8924L12.7706 8.41846L12.6843 12.7767L16.726 12.5897L15.5897 10.8924Z" fill="#E27625"/>
    <path d="M7.79388 18.6451L10.2391 17.4801L8.13909 15.8547L7.79388 18.6451Z" fill="#E27625"/>
    <path d="M12.9288 17.4801L15.374 18.6451L15.0288 15.8547L12.9288 17.4801Z" fill="#E27625"/>
    <path d="M15.374 18.6452L12.9288 17.4801L13.1301 19.0479L13.1014 19.7096L15.374 18.6452Z" fill="#D7C1B3"/>
    <path d="M7.79388 18.6452L10.0665 19.7096L10.0521 19.0479L10.2391 17.4801L7.79388 18.6452Z" fill="#D7C1B3"/>
    <path d="M10.1096 14.8191L8.08154 14.2294L9.50552 13.5822L10.1096 14.8191Z" fill="#2F343B"/>
    <path d="M13.0582 14.8191L13.6623 13.5822L15.1007 14.2294L13.0582 14.8191Z" fill="#2F343B"/>
    <path d="M7.79389 18.6451L8.15348 15.7684L5.89526 15.826L7.79389 18.6451Z" fill="#CC6228"/>
    <path d="M15.0144 15.7684L15.374 18.6451L17.2726 15.826L15.0144 15.7684Z" fill="#CC6228"/>
    <path d="M16.726 12.5897L12.6843 12.7767L13.0582 14.8192L13.6623 13.5822L15.1007 14.2294L16.726 12.5897Z" fill="#CC6228"/>
    <path d="M8.0815 14.2294L9.50547 13.5822L10.1096 14.8192L10.4836 12.7767L6.44177 12.5897L8.0815 14.2294Z" fill="#CC6228"/>
    <path d="M6.44177 12.5897L8.13903 15.8548L8.0815 14.2294L6.44177 12.5897Z" fill="#E27625"/>
    <path d="M15.1007 14.2294L15.0288 15.8548L16.7261 12.5897L15.1007 14.2294Z" fill="#E27625"/>
    <path d="M10.4836 12.7767L10.1096 14.8192L10.5843 17.25L10.685 14.0569L10.4836 12.7767Z" fill="#E27625"/>
    <path d="M12.6843 12.7767L12.4829 14.0425L12.5836 17.25L13.0583 14.8192L12.6843 12.7767Z" fill="#E27625"/>
    <path d="M13.0583 14.8192L12.5836 17.25L12.9288 17.4802L15.0288 15.8548L15.1007 14.2295L13.0583 14.8192Z" fill="#F5841F"/>
    <path d="M8.08154 14.2295L8.13908 15.8548L10.2391 17.4802L10.5843 17.25L10.1096 14.8192L8.08154 14.2295Z" fill="#F5841F"/>
    <path d="M13.1014 19.7095L13.1302 19.0479L12.9432 18.904H10.2247L10.0521 19.0479L10.0665 19.7095L7.79388 18.6451L8.58498 19.2924L10.1959 20.3999H12.9576L14.5829 19.2924L15.374 18.6451L13.1014 19.7095Z" fill="#C0AD9E"/>
    <path d="M12.9288 17.4801L12.5836 17.25H10.5843L10.239 17.4801L10.0521 19.0479L10.2247 18.9041H12.9432L13.1301 19.0479L12.9288 17.4801Z" fill="#2F343B"/>
    <path d="M20.1637 9.1808L20.7678 6.2897L19.8616 3.59998L12.9288 8.66299L15.5897 10.8924L19.3582 11.9856L20.1925 11.0219L19.8329 10.763L20.4082 10.2452L19.9623 9.91436L20.5377 9.46847L20.1637 9.1808Z" fill="#763E1A"/>
    <path d="M2.40002 6.2897L3.00413 9.1808L2.61578 9.46847L3.2055 9.91436L2.75961 10.2452L3.33496 10.763L2.97537 11.0219L3.80961 11.9856L7.57811 10.8924L10.2391 8.66299L3.30619 3.59998L2.40002 6.2897Z" fill="#763E1A"/>
    <path d="M19.3583 11.9856L15.5898 10.8925L16.7261 12.5897L15.0288 15.8548L17.2726 15.826H20.624L19.3583 11.9856Z" fill="#F5841F"/>
    <path d="M7.57813 10.8925L3.80964 11.9856L2.54388 15.826H5.89525L8.13909 15.8548L6.44183 12.5897L7.57813 10.8925Z" fill="#F5841F"/>
    <path d="M12.6843 12.7767L12.9288 8.66303L14.022 5.74316H9.14594L10.2391 8.66303L10.4836 12.7767L10.5699 14.0569L10.5843 17.25H12.5836L12.598 14.0569L12.6843 12.7767Z" fill="#F5841F"/>
    </svg>
    