<svg width="20" height="20" viewBox="0 0 20 20" fill="none" xmlns="http://www.w3.org/2000/svg">
    <path fill-rule="evenodd" clip-rule="evenodd" d="M14.0162 8.67299C14.6689 9.49146 15.0587 10.5288 15.0587 11.6563C15.0587 12.8006 14.6569 13.8513 13.9866 14.6754L13.9288 14.7463L13.9136 14.6561C13.9005 14.5795 13.8852 14.502 13.8675 14.424C13.532 12.95 12.4389 11.686 10.6399 10.6625C9.42502 9.97331 8.72963 9.14341 8.54706 8.20048C8.42915 7.59075 8.51682 6.97832 8.68622 6.45374C8.85558 5.92934 9.10752 5.48998 9.32155 5.22547L10.0215 4.36955C10.1443 4.21949 10.3739 4.21949 10.4967 4.36955L14.0162 8.67299ZM15.1231 7.81803L10.4325 2.08213C10.3429 1.97262 10.1752 1.97262 10.0857 2.08213L5.39489 7.81778L5.37975 7.83702C4.51656 8.90816 4 10.2694 4 11.7512C4 15.2023 6.80222 18 10.2591 18C13.7159 18 16.5181 15.2023 16.5181 11.7512C16.5181 10.2694 16.0016 8.90818 15.1384 7.83702L15.1231 7.81803ZM6.51725 8.65451L6.93699 8.14125L6.94968 8.23597C6.95973 8.31099 6.9719 8.3864 6.98635 8.46214C7.25782 9.8865 8.2276 11.0742 9.84896 11.994C11.2583 12.7961 12.0789 13.7185 12.3153 14.7301C12.414 15.1523 12.4316 15.5676 12.3888 15.9308L12.3862 15.9533L12.3659 15.9632C11.7298 16.274 11.0147 16.4484 10.2589 16.4484C7.60814 16.4484 5.45915 14.303 5.45915 11.6563C5.45915 10.52 5.8553 9.47592 6.51725 8.65451Z" fill="#63A1F8"/>
    </svg>
    