<svg width="66" height="74" viewBox="0 0 66 74" fill="none" xmlns="http://www.w3.org/2000/svg">
<path fill-rule="evenodd" clip-rule="evenodd" d="M56.8092 33.2283C58.5362 38.3384 58.6021 44.0424 56.6179 49.4939C54.6042 55.0265 50.8056 59.3972 46.1028 62.1974L45.6978 62.4384L45.7823 61.9755C45.8541 61.5817 45.916 61.1804 45.9672 60.7717C46.9333 53.0522 43.8538 45.0105 36.9254 36.8849C32.2434 31.407 30.3296 26.1663 31.103 21.2848C31.6039 18.1286 33.1071 15.3223 34.8522 13.0852C36.5968 10.8488 38.5925 9.16946 40.0965 8.26855L44.9992 5.36641C45.8588 4.85762 46.9733 5.26325 47.3048 6.20557L56.8092 33.2283ZM63.6848 31.0495L51.0186 -4.96743C50.7768 -5.65508 49.9631 -5.95121 49.3358 -5.57991L16.4813 13.8674L16.374 13.9338C10.3005 17.5882 5.39856 23.2574 2.79093 30.4219C-3.28223 47.1077 5.39155 65.5837 22.1652 71.6888C38.9388 77.7939 57.4594 69.2158 63.5325 52.53C66.1401 45.3657 66.0291 37.8718 63.7257 31.1684L63.6848 31.0495ZM20.4548 19.8952L23.3948 18.1549L23.2897 18.6353C23.2064 19.0158 23.1328 19.4019 23.0696 19.7936C21.8803 27.1598 24.4959 34.6148 30.7445 41.9256C36.1716 48.2929 38.53 54.2017 37.8971 59.5104C37.6328 61.7258 36.9871 63.7652 36.1407 65.4456L36.0883 65.5495L35.9722 65.5617C32.3389 65.9408 28.5622 65.5212 24.895 64.1865C12.0326 59.5049 5.38055 45.3366 10.038 32.5403C12.0377 27.0463 15.7973 22.6976 20.4548 19.8952Z" fill="#63A1F8" fill-opacity="0.1"/>
</svg>
