<svg width="81" height="80" viewBox="0 0 81 80" fill="none" xmlns="http://www.w3.org/2000/svg">
    <g clip-path="url(#clip0_167_1089)">
    <mask id="mask0_167_1089" style="mask-type:luminance" maskUnits="userSpaceOnUse" x="0" y="0" width="81" height="80">
    <path d="M80.5 0H0.5V80H80.5V0Z" fill="white"/>
    </mask>
    <g mask="url(#mask0_167_1089)">
    <g opacity="0.3">
    <path d="M40.5 16C27.2467 16 16.5 26.7467 16.5 40C16.5 53.2533 27.2467 64 40.5 64C53.7533 64 64.5 53.2533 64.5 40C64.5 26.7467 53.7533 16 40.5 16ZM40.5 62.8178C27.9222 62.8178 17.6822 52.5778 17.6822 40C17.6822 27.4222 27.9222 17.1822 40.5 17.1822C53.0778 17.1822 63.3178 27.4222 63.3178 40C63.3178 52.5778 53.0778 62.8178 40.5 62.8178ZM40.5 42.3644C40.0111 42.3644 39.6111 42.7822 39.6111 43.2978V44.6844C39.6111 45.2 40.0111 45.6178 40.5 45.6178C40.9889 45.6178 41.3889 45.2 41.3889 44.6844V43.2978C41.3889 42.7822 40.9889 42.3644 40.5 42.3644ZM45.54 38.2133V34.48C45.54 31.8044 43.2822 29.6267 40.5 29.6267C37.7267 29.6267 35.4689 31.8044 35.4689 34.48V38.2133C34.3133 38.2311 33.3889 39.1822 33.3889 40.3467V47.9378C33.3889 49.1111 34.3311 50.0711 35.4956 50.0711H45.5044C46.6689 50.0711 47.6111 49.1111 47.6111 47.9378V40.3467C47.6111 39.1822 46.6867 38.24 45.54 38.2133ZM36.9444 34.5511C36.9444 32.6489 38.5 31.1022 40.5 31.1022C42.5089 31.1022 44.0644 32.6489 44.0644 34.5511V38.2133H36.9444V34.5511ZM46.1267 47.9378C46.1267 48.2844 45.8422 48.5778 45.5044 48.5778H35.4956C35.1578 48.5778 34.8733 48.2844 34.8733 47.9378V40.3467C34.8733 40 35.1578 39.7067 35.4956 39.7067H45.5044C45.8422 39.7067 46.1267 40 46.1267 40.3467V47.9378Z" fill="white"/>
    </g>
    <path d="M40.5 16C27.2449 16 16.5 26.7449 16.5 40C16.5 53.2551 27.2449 64 40.5 64C53.7551 64 64.5 53.2551 64.5 40C64.5 26.7449 53.7551 16 40.5 16ZM40.5 62.8178C27.9187 62.8178 17.6822 52.5813 17.6822 40C17.6822 27.4187 27.9187 17.1822 40.5 17.1822C53.0813 17.1822 63.3178 27.4187 63.3178 40C63.3178 52.5813 53.0813 62.8178 40.5 62.8178ZM40.5009 42.3644C40.0102 42.3644 39.6111 42.7831 39.6111 43.2996V44.6862C39.6111 45.2027 40.0102 45.6213 40.5009 45.6213C40.9907 45.6213 41.3898 45.2027 41.3898 44.6862V43.2996C41.3898 42.7831 40.9907 42.3644 40.5009 42.3644ZM45.5391 38.2178V34.4827C45.5391 31.8036 43.2796 29.6231 40.5018 29.6231C37.724 29.6231 35.4644 31.8036 35.4644 34.4827V38.2178C34.3169 38.2356 33.3898 39.1849 33.3898 40.3502V47.936C33.3898 49.1129 34.3347 50.0693 35.4973 50.0693H45.5027C46.6653 50.0693 47.6102 49.1129 47.6102 47.936V40.3502C47.6102 39.1858 46.6849 38.2373 45.5391 38.2178ZM36.9427 34.5493C36.9427 32.6462 38.4991 31.0987 40.5018 31.0987C42.5044 31.0987 44.06 32.6462 44.06 34.5493V38.216H36.9427V34.5493ZM46.1249 47.936C46.1249 48.2889 45.8467 48.5778 45.5027 48.5778H35.4973C35.1542 48.5778 34.8751 48.2889 34.8751 47.936V40.3502C34.8751 39.9964 35.1542 39.7084 35.4973 39.7084H45.5027C45.8467 39.7084 46.1249 39.9964 46.1249 40.3502V47.936Z" fill="url(#paint0_linear_167_1089)"/>
    </g>
    </g>
    <defs>
    <linearGradient id="paint0_linear_167_1089" x1="62.8839" y1="52.6706" x2="40.6876" y2="40.0364" gradientUnits="userSpaceOnUse">
    <stop stop-color="white"/>
    <stop offset="0.5" stop-color="white" stop-opacity="0.5"/>
    <stop offset="1" stop-color="white" stop-opacity="0"/>
    </linearGradient>
    <clipPath id="clip0_167_1089">
    <rect width="80" height="80" fill="white" transform="translate(0.5)"/>
    </clipPath>
    </defs>
    </svg>
    