<svg width="276" height="309" viewBox="0 0 276 309" fill="none" xmlns="http://www.w3.org/2000/svg">
<path d="M272.002 91.7095L116.283 1.64239C115.228 1.03233 114.039 1.11454 113.119 1.65754L113.108 1.66403C113.017 1.71811 112.929 1.77652 112.844 1.83926L107.471 5.99723L110.039 8.79013L112.39 121.763C112.39 124.203 113.691 126.457 115.801 127.677L268.312 218.538C268.701 218.763 267.776 219.415 268.181 219.462L268.36 220.239L273.997 217.1C274.007 217.091 274.02 217.085 274.031 217.076L274.042 217.07C274.853 216.518 275.414 215.594 275.414 214.474V97.6241C275.414 95.1838 274.113 92.9296 272.002 91.7095Z" fill="url(#paint0_linear_17306_14573)"/>
<path d="M272.002 91.7095L116.283 1.64239C115.228 1.03233 114.039 1.11454 113.119 1.65754L112.771 1.95392C112.68 2.008 112.431 2.25462 112.347 2.31736L108.264 5.37419L110.037 8.79229L112.388 121.765C112.388 124.205 113.689 126.459 115.799 127.68L268.31 218.541C268.699 218.766 267.774 219.417 268.178 219.464L268.358 220.241L273.994 217.102C274.005 217.093 274.018 217.087 274.029 217.078L274.04 217.072C274.85 216.52 275.412 215.596 275.412 214.476V97.6241C275.412 95.1838 274.111 92.9296 272 91.7095H272.002Z" stroke="#0B132B" stroke-width="0.5" stroke-miterlimit="10"/>
<path d="M266.259 94.9177L111.357 5.40015C109.265 4.19083 106.65 5.70302 106.65 8.12166V124.971C106.65 127.411 107.951 129.666 110.06 130.886L264.964 220.403C267.057 221.613 269.674 220.1 269.674 217.682V100.832C269.674 98.3921 268.373 96.1379 266.263 94.9177H266.259Z" fill="#D8D9DE"/>
<path d="M266.259 94.9177L111.357 5.40015C109.265 4.19083 106.65 5.70302 106.65 8.12166V124.971C106.65 127.411 107.951 129.666 110.06 130.886L264.964 220.403C267.057 221.613 269.674 220.1 269.674 217.682V100.832C269.674 98.3921 268.373 96.1379 266.263 94.9177H266.259Z" stroke="#0B132B" stroke-width="0.5" stroke-miterlimit="10"/>
<path d="M258.13 100.926L116.642 18.6899C115.792 18.1966 114.727 18.8089 114.727 19.7932V121.731C114.727 123.425 115.628 124.989 117.089 125.839L258.578 208.075C259.427 208.568 260.493 207.956 260.493 206.971V105.034C260.493 103.34 259.591 101.776 258.13 100.926Z" fill="url(#paint1_linear_17306_14573)"/>
<path d="M258.156 100.94L116.65 18.6939C115.797 18.1985 114.727 18.815 114.727 19.8015V121.758C114.727 123.433 115.617 124.98 117.063 125.821L258.569 208.068C259.423 208.563 260.493 207.947 260.493 206.96V105.003C260.493 103.329 259.602 101.782 258.156 100.94Z" stroke="#0B132B" stroke-width="0.5" stroke-miterlimit="10"/>
<path d="M99.6731 144.407L0.414478 192.21C0.414478 192.21 -1.5199 204.109 2.96916 206.8L154.03 293.587C157.91 295.829 162.689 295.839 166.577 293.613L264.191 237.762C268.226 235.257 266.542 224.507 266.542 224.507L112.22 144.435C108.34 142.193 103.561 142.183 99.6731 144.407Z" fill="black"/>
<path d="M99.6731 136.807L0.477156 189.182C0.477156 189.182 -0.0696571 196.935 2.04844 198.158L154.03 285.988C157.91 288.229 162.689 288.24 166.577 286.014L264.191 230.162C268.226 227.657 265.786 221.169 265.786 221.169L112.22 136.835C108.34 134.594 103.561 134.583 99.6731 136.807Z" fill="url(#paint2_linear_17306_14573)"/>
<path d="M99.6731 136.807L0.477156 189.182C0.477156 189.182 -0.069657 196.935 2.04844 198.158L154.03 285.988C157.91 288.229 162.689 288.24 166.577 286.014L264.191 230.162C268.226 227.657 265.786 221.169 265.786 221.169L112.22 136.835C108.34 134.594 103.561 134.583 99.6731 136.807Z" stroke="#0B132B" stroke-width="0.5" stroke-miterlimit="10"/>
<path d="M99.6731 130.795L2.05924 186.646C-0.0631737 187.86 -0.0696568 190.921 2.04844 192.145L154.03 279.976C157.91 282.217 162.689 282.228 166.577 280.002L264.191 224.148C266.313 222.934 266.32 219.873 264.204 218.649L112.222 130.819C108.342 128.577 103.564 128.567 99.6753 130.793L99.6731 130.795Z" fill="#D8D9DE"/>
<path d="M99.6731 130.795L2.05924 186.646C-0.0631737 187.86 -0.0696568 190.921 2.04844 192.145L154.03 279.976C157.91 282.217 162.689 282.228 166.577 280.002L264.191 224.148C266.313 222.934 266.32 219.873 264.204 218.649L112.222 130.819C108.342 128.577 103.564 128.567 99.6753 130.793L99.6731 130.795Z" stroke="#0B132B" stroke-width="0.5" stroke-miterlimit="10"/>
<path d="M91.0192 203.116L65.2908 217.837C64.7311 218.158 64.7289 218.965 65.2887 219.287L105.349 242.437C106.371 243.028 107.631 243.03 108.656 242.444L134.384 227.722C134.944 227.402 134.946 226.595 134.386 226.272L94.326 203.122C93.3037 202.532 92.0437 202.53 91.0192 203.116Z" fill="url(#paint3_linear_17306_14573)"/>
<path d="M91.0192 203.116L65.2908 217.837C64.7311 218.158 64.7289 218.965 65.2887 219.287L105.349 242.437C106.371 243.028 107.631 243.03 108.656 242.444L134.384 227.722C134.944 227.402 134.946 226.595 134.386 226.272L94.326 203.122C93.3037 202.532 92.0437 202.53 91.0192 203.116Z" stroke="#0B132B" stroke-width="0.5" stroke-miterlimit="10"/>
<path d="M189.854 54.8634C189.1 54.4264 188.482 54.7833 188.482 55.6573C188.482 56.5313 189.1 57.6 189.854 58.037C190.609 58.474 191.227 58.1171 191.227 57.2431C191.227 56.3691 190.609 55.3004 189.854 54.8634Z" fill="#151617"/>
<path d="M255.139 231.618L252.137 233.353C251.997 233.435 251.912 233.587 251.921 233.749L251.958 234.539C251.973 234.863 252.325 235.056 252.606 234.894L255.571 233.18C255.705 233.102 255.788 232.959 255.788 232.804V231.992C255.788 231.659 255.427 231.449 255.137 231.616L255.139 231.618Z" fill="#151617"/>
<path d="M250.123 234.45L247.121 236.185C246.98 236.267 246.896 236.419 246.904 236.581L246.941 237.371C246.956 237.695 247.309 237.888 247.59 237.726L250.555 236.012C250.689 235.934 250.771 235.791 250.771 235.636V234.824C250.771 234.491 250.41 234.281 250.121 234.448L250.123 234.45Z" fill="#151617"/>
<path d="M173.471 275.943V282.068" stroke="#0B132B" stroke-width="0.5" stroke-miterlimit="10"/>
<path d="M129.819 265.812V271.936" stroke="#0B132B" stroke-width="0.5" stroke-miterlimit="10"/>
<path d="M24.6753 205.134V211.257" stroke="#0B132B" stroke-width="0.5" stroke-miterlimit="10"/>
<path d="M100.95 144.028L54.9857 170.491C54.1925 170.947 54.1903 172.091 54.9814 172.552L184.654 247.995C185.73 248.62 187.055 248.635 188.142 248.032L236.407 221.269C237.22 220.819 237.226 219.653 236.42 219.194L104.46 144.024C103.371 143.403 102.035 143.407 100.95 144.033V144.028Z" fill="url(#paint4_linear_17306_14573)"/>
<path d="M54.9814 172.55L55.446 172.82L100.95 146.624C102.035 145.999 103.371 145.997 104.46 146.615L235.951 221.52L236.407 221.266C237.22 220.816 237.226 219.65 236.42 219.192L104.46 144.022C103.371 143.401 102.035 143.405 100.95 144.03L54.9857 170.492C54.1925 170.949 54.1903 172.093 54.9814 172.554V172.55Z" fill="#151617"/>
<path d="M100.95 144.028L54.9857 170.491C54.1925 170.947 54.1903 172.091 54.9814 172.552L184.654 247.995C185.73 248.62 187.055 248.635 188.142 248.032L236.407 221.269C237.22 220.819 237.226 219.653 236.42 219.194L104.46 144.024C103.371 143.403 102.035 143.407 100.95 144.033V144.028Z" stroke="#0B132B" stroke-width="0.5" stroke-miterlimit="10"/>
<path d="M250.252 136.095L217.539 117.19C217.379 117.097 217.201 117.105 217.057 117.181L217.048 117.185C217.039 117.19 217.031 117.196 217.022 117.2L214.854 118.503L216.784 121.276V135.541C216.784 136.232 217.152 136.868 217.748 137.212L247.337 154.315L248.783 157.428L250.957 156.124C250.957 156.124 250.968 156.117 250.974 156.113L250.987 156.104C251.121 156.015 251.218 155.866 251.218 155.682V137.763C251.218 137.073 250.851 136.437 250.255 136.093L250.252 136.095Z" fill="#151617"/>
<path d="M250.252 168.173L217.539 149.268C217.359 149.164 217.156 149.188 217.007 149.29L214.923 150.542L216.598 152.943L216.786 152.954V167.62C216.786 168.31 217.154 168.946 217.75 169.29L247.177 186.298L247.741 188.048L248.802 189.498L250.95 188.206C251.106 188.122 251.218 187.962 251.218 187.76V169.841C251.218 169.151 250.851 168.515 250.255 168.171L250.252 168.173Z" fill="#151617"/>
<path d="M250.131 114.195L129.43 44.3707C129.147 44.2063 128.827 44.2344 128.583 44.3858L126.43 45.6795L128.192 47.4557V55.4038C128.192 56.1805 128.605 56.8965 129.277 57.2838L247.313 125.568L248.221 127.556L248.618 128.421L250.784 127.121C250.801 127.113 250.819 127.102 250.834 127.091C251.059 126.948 251.216 126.699 251.216 126.397V116.08C251.216 115.303 250.804 114.587 250.131 114.2V114.195Z" fill="#151617"/>
<path d="M215.377 118.49L248.091 137.395C248.688 137.739 249.055 138.377 249.055 139.065V156.984C249.055 157.372 248.636 157.614 248.301 157.421L215.587 138.514C214.99 138.17 214.623 137.532 214.623 136.844V118.929C214.623 118.542 215.042 118.299 215.377 118.492V118.49Z" fill="#D8D9DE"/>
<path d="M215.377 150.566L248.091 169.471C248.688 169.815 249.055 170.454 249.055 171.142V189.061C249.055 189.448 248.636 189.69 248.301 189.498L215.587 170.59C214.99 170.246 214.623 169.608 214.623 168.92V151.005C214.623 150.618 215.042 150.375 215.377 150.568V150.566Z" fill="url(#paint5_linear_17306_14573)"/>
<path d="M127.115 58.5799L247.817 128.407C248.368 128.725 249.055 128.327 249.055 127.691V117.373C249.055 116.597 248.642 115.881 247.97 115.494L127.269 45.669C126.718 45.351 126.03 45.749 126.03 46.385V56.7021C126.03 57.4788 126.443 58.1948 127.115 58.5821V58.5799Z" fill="#D8D9DE"/>
<path d="M135.095 33.5712C134.295 33.1082 133.638 33.4868 133.638 34.4127C133.638 35.3386 134.293 36.4744 135.095 36.9373C135.897 37.4003 136.552 37.0217 136.552 36.0958C136.552 35.1699 135.897 34.0341 135.095 33.5712Z" fill="#E48745"/>
<path d="M129.108 30.1425C128.308 29.6795 127.651 30.0581 127.651 30.984C127.651 31.9099 128.306 33.0457 129.108 33.5086C129.91 33.9716 130.565 33.593 130.565 32.6671C130.565 31.7412 129.91 30.6054 129.108 30.1425Z" fill="#E46B65"/>
<path d="M123.119 26.7137C122.319 26.2508 121.662 26.6294 121.662 27.5553C121.662 28.4812 122.317 29.617 123.119 30.0799C123.921 30.5429 124.576 30.1643 124.576 29.2384C124.576 28.3125 123.921 27.1767 123.119 26.7137Z" fill="#56C097"/>
<path d="M135.095 33.5712C134.295 33.1082 133.638 33.4868 133.638 34.4127C133.638 35.3386 134.293 36.4744 135.095 36.9373C135.897 37.4003 136.552 37.0217 136.552 36.0958C136.552 35.1699 135.897 34.0341 135.095 33.5712Z" stroke="#0B132B" stroke-width="0.5" stroke-miterlimit="10"/>
<path d="M129.108 30.1425C128.308 29.6795 127.651 30.0581 127.651 30.984C127.651 31.9099 128.306 33.0457 129.108 33.5086C129.91 33.9716 130.565 33.593 130.565 32.6671C130.565 31.7412 129.91 30.6054 129.108 30.1425Z" stroke="#0B132B" stroke-width="0.5" stroke-miterlimit="10"/>
<path d="M123.119 26.7137C122.319 26.2508 121.662 26.6294 121.662 27.5553C121.662 28.4812 122.317 29.617 123.119 30.0799C123.921 30.5429 124.576 30.1643 124.576 29.2384C124.576 28.3125 123.921 27.1767 123.119 26.7137Z" stroke="#0B132B" stroke-width="0.5" stroke-miterlimit="10"/>
<path d="M114.727 28.7925L260.495 113.003" stroke="#0B132B" stroke-width="0.5" stroke-miterlimit="10"/>
<path d="M240.01 112.958C239.072 112.415 238.305 112.858 238.305 113.944C238.305 115.03 239.072 116.359 240.01 116.902C240.948 117.445 241.715 117.001 241.715 115.915C241.715 114.829 240.948 113.501 240.01 112.958Z" fill="#151617"/>
<path d="M237.237 119.018V120.212C237.237 120.244 237.254 120.275 237.282 120.292L242.642 123.472C242.705 123.509 242.783 123.463 242.783 123.392V121.899C242.783 120.006 241.763 118.26 240.114 117.332C238.825 116.608 237.237 117.54 237.237 119.018Z" fill="#151617"/>
<path d="M207.96 110.332L129.294 64.6588C129.037 64.5095 128.747 64.5376 128.529 64.6783L126.277 66.0455L128.192 68.0509V118.585C128.192 119.816 128.847 120.956 129.91 121.575L206.505 166.118L207.117 168.638L209.215 167.371C209.479 167.265 209.68 167.012 209.68 166.687V113.321C209.68 112.088 209.025 110.95 207.96 110.332Z" fill="#151617"/>
<path d="M126.03 66.5928V119.883C126.03 121.114 126.685 122.254 127.749 122.873L206.416 168.621C206.905 168.904 207.519 168.552 207.519 167.987V114.621C207.519 113.388 206.864 112.25 205.798 111.632L127.133 65.9589C126.644 65.6755 126.03 66.0281 126.03 66.5928Z" fill="#D8D9DE"/>
<path d="M215.377 118.49L248.091 137.395C248.688 137.739 249.055 138.377 249.055 139.065V156.984C249.055 157.372 248.636 157.614 248.301 157.421L215.587 138.514C214.99 138.17 214.623 137.532 214.623 136.844V118.929C214.623 118.542 215.042 118.299 215.377 118.492V118.49Z" stroke="#0B132B" stroke-width="0.5" stroke-miterlimit="10"/>
<path d="M215.377 150.566L248.091 169.471C248.688 169.815 249.055 170.454 249.055 171.142V189.061C249.055 189.448 248.636 189.69 248.301 189.498L215.587 170.59C214.99 170.246 214.623 169.608 214.623 168.92V151.005C214.623 150.618 215.042 150.375 215.377 150.568V150.566Z" stroke="#0B132B" stroke-width="0.5" stroke-miterlimit="10"/>
<path d="M127.115 58.5799L247.817 128.407C248.368 128.725 249.055 128.327 249.055 127.691V117.373C249.055 116.597 248.642 115.881 247.97 115.494L127.269 45.669C126.718 45.351 126.03 45.749 126.03 46.385V56.7021C126.03 57.4787 126.443 58.1948 127.115 58.5821V58.5799Z" stroke="#0B132B" stroke-width="0.5" stroke-miterlimit="10"/>
<path d="M126.03 66.5928V119.883C126.03 121.114 126.685 122.254 127.749 122.873L206.416 168.621C206.905 168.904 207.519 168.552 207.519 167.987V114.621C207.519 113.388 206.864 112.25 205.798 111.632L127.133 65.9589C126.644 65.6755 126.03 66.0281 126.03 66.5928Z" stroke="#0B132B" stroke-width="0.5" stroke-miterlimit="10"/>
<path d="M227.136 308.396L239.639 301.168L227.136 293.942L214.631 301.168L227.136 308.396Z" fill="#151617"/>
<path d="M215.886 285.501V298.501L227.136 305.001V292.002L215.886 285.501Z" fill="url(#paint6_linear_17306_14573)"/>
<path d="M238.384 285.501V298.501L227.136 305.001V292.002L238.384 285.501Z" fill="white"/>
<path d="M227.136 292.002L238.384 285.501L227.136 279L215.886 285.501L227.136 292.002Z" fill="url(#paint7_linear_17306_14573)"/>
<path d="M227.136 292.002L238.226 285.594C238.297 285.553 238.297 285.451 238.226 285.41L227.136 279.002L216.046 285.41C215.975 285.451 215.975 285.553 216.046 285.594L227.136 292.002Z" stroke="#0B132B" stroke-width="0.5" stroke-miterlimit="10"/>
<path d="M215.992 285.501L215.886 298.501L227.136 305.001L238.384 298.501L238.278 285.501" stroke="#0B132B" stroke-width="0.5" stroke-miterlimit="10"/>
<path d="M227.136 292.002V305.002" stroke="#0B132B" stroke-width="0.5" stroke-miterlimit="10"/>
<defs>
<linearGradient id="paint0_linear_17306_14573" x1="295.122" y1="277.732" x2="34.1176" y2="243.851" gradientUnits="userSpaceOnUse">
<stop offset="0.3" stop-color="#904BF6"/>
<stop offset="0.675" stop-color="#B43DD1"/>
<stop offset="1" stop-color="#CF0063"/>
</linearGradient>
<linearGradient id="paint1_linear_17306_14573" x1="277.598" y1="258.054" x2="51.0742" y2="228.592" gradientUnits="userSpaceOnUse">
<stop offset="0.3" stop-color="#904BF6"/>
<stop offset="0.675" stop-color="#B43DD1"/>
<stop offset="1" stop-color="#CF0063"/>
</linearGradient>
<linearGradient id="paint2_linear_17306_14573" x1="297.743" y1="327.715" x2="-89.0428" y2="213.478" gradientUnits="userSpaceOnUse">
<stop offset="0.3" stop-color="#904BF6"/>
<stop offset="0.675" stop-color="#B43DD1"/>
<stop offset="1" stop-color="#CF0063"/>
</linearGradient>
<linearGradient id="paint3_linear_17306_14573" x1="143.012" y1="253.435" x2="41.3122" y2="223.486" gradientUnits="userSpaceOnUse">
<stop offset="0.3" stop-color="#904BF6"/>
<stop offset="0.675" stop-color="#B43DD1"/>
<stop offset="1" stop-color="#CF0063"/>
</linearGradient>
<linearGradient id="paint4_linear_17306_14573" x1="258.452" y1="276.014" x2="-7.09934" y2="197.756" gradientUnits="userSpaceOnUse">
<stop offset="0.3" stop-color="#904BF6"/>
<stop offset="0.675" stop-color="#B43DD1"/>
<stop offset="1" stop-color="#CF0063"/>
</linearGradient>
<linearGradient id="paint5_linear_17306_14573" x1="253.095" y1="199.82" x2="199.867" y2="191.877" gradientUnits="userSpaceOnUse">
<stop offset="0.3" stop-color="#904BF6"/>
<stop offset="0.675" stop-color="#B43DD1"/>
<stop offset="1" stop-color="#CF0063"/>
</linearGradient>
<linearGradient id="paint6_linear_17306_14573" x1="228.456" y1="310.12" x2="210.846" y2="308.401" gradientUnits="userSpaceOnUse">
<stop offset="0.3" stop-color="#904BF6"/>
<stop offset="0.675" stop-color="#B43DD1"/>
<stop offset="1" stop-color="#CF0063"/>
</linearGradient>
<linearGradient id="paint7_linear_17306_14573" x1="241.024" y1="295.415" x2="208.281" y2="285.823" gradientUnits="userSpaceOnUse">
<stop offset="0.3" stop-color="#904BF6"/>
<stop offset="0.675" stop-color="#B43DD1"/>
<stop offset="1" stop-color="#CF0063"/>
</linearGradient>
</defs>
</svg>
