<svg width="40" height="40" viewBox="0 0 40 40" fill="none" xmlns="http://www.w3.org/2000/svg">
    <path
        d="M22.3061 20.2225C22.3061 25.8683 17.7604 30.4454 12.1529 30.4454C6.54534 30.4454 2 25.8697 2 20.2225C2 14.5753 6.54568 10 12.1529 10C17.7601 10 22.3061 14.5767 22.3061 20.2225ZM33.4443 20.2225C33.4443 25.5374 31.1713 29.8455 28.3677 29.8455C25.5641 29.8455 23.2911 25.536 23.2911 20.2225C23.2911 14.9091 25.5641 10.5995 28.3677 10.5995C31.1713 10.5995 33.4443 14.9091 33.4443 20.2225ZM38 20.2225C38 24.9844 37.2005 28.8443 36.2145 28.8443C35.2285 28.8443 34.429 24.983 34.429 20.2225C34.429 15.4621 35.2285 11.6007 36.2148 11.6007C37.2012 11.6007 38 15.461 38 20.2225Z"
        fill="white" fill-opacity="0.6" />
</svg>
    