<svg width="1506" height="900" viewBox="0 0 1506 900" fill="none" xmlns="http://www.w3.org/2000/svg">
<g clip-path="url(#clip0_14311_9490)">
<rect width="1506" height="900" fill="#FFFFFE"/>
<rect width="2066.08" height="768.775" transform="translate(-185.295 846.598) rotate(-15)" fill="#2F2F2F"/>
<rect width="2205.84" height="899.114" transform="translate(-459 40.7419) rotate(-15)" fill="#1C1C1C"/>
<path opacity="0.2" d="M1141.61 547.692V526.736L1111.34 509.262V488.306L1081.08 470.814V449.875L1050.84 432.4L920.073 503.725L954.038 523.238V544.194L984.3 561.652V582.625L1014.56 600.082V621.055L1147.12 812.631C1278.4 790.469 1378.61 723.627 1420.89 637.239C1425.78 627.254 1430.14 617.195 1433.95 607.062L1141.61 547.692Z" fill="url(#paint0_linear_14311_9490)"/>
<path opacity="0.15" d="M955.21 139.153C866.733 190.099 795 326.636 795 444.186C795 514.034 820.337 561.465 859.532 577.768L875.716 568.427L1034.84 476.571L1051.43 466.993C1090.34 405.772 1115.49 329.438 1115.49 259.811C1115.42 142.294 1043.7 88.2572 955.21 139.153Z" fill="url(#paint1_linear_14311_9490)"/>
<path opacity="0.15" d="M955.21 173.151C880.862 215.946 820.592 330.677 820.592 429.462C820.592 528.248 880.862 573.658 955.21 530.897C1029.56 488.136 1089.84 373.353 1089.84 274.568C1089.84 175.783 1029.57 130.373 955.21 173.151Z" fill="url(#paint2_linear_14311_9490)"/>
<path opacity="0.15" d="M955.21 197.113C891.051 234.168 839.035 333.547 839.035 419.086C839.035 504.625 891.051 543.973 955.21 506.935C1019.37 469.897 1071.38 370.5 1071.38 284.944C1071.38 199.388 1019.39 160.041 955.21 197.113Z" fill="url(#paint3_linear_14311_9490)"/>
<path d="M886.704 423.145C886.704 349.035 931.774 262.935 987.357 230.822C1011.86 216.693 1034.3 215.385 1051.74 224.692L1029.13 211.615C1011.47 201.426 988.376 202.275 963.174 216.846C907.558 248.959 862.504 335.059 862.504 409.169C862.504 449.739 876.005 478.303 897.351 490.598C901.003 492.687 914.571 500.55 920.107 503.742C899.542 490.989 886.704 462.798 886.704 423.145Z" fill="url(#paint4_linear_14311_9490)"/>
<path opacity="0.3" d="M886.704 423.145C886.704 349.035 931.774 262.935 987.357 230.822C1011.86 216.693 1034.3 215.385 1051.74 224.692L1029.13 211.615C1011.47 201.426 988.376 202.275 963.174 216.846C907.558 248.959 862.504 335.059 862.504 409.169C862.504 449.739 876.005 478.303 897.351 490.598C901.003 492.687 914.571 500.55 920.107 503.742C899.542 490.989 886.704 462.798 886.704 423.145Z" fill="white"/>
<path d="M1026.91 246.361C1035.69 258.079 1040.39 276.725 1039.34 300.976C1036.81 360.413 1000.65 431.127 958.606 458.791C945.835 467.197 933.965 470.678 923.742 469.744C936.512 486.726 957.91 489.155 982.805 472.767C1024.87 445.103 1061.03 374.44 1063.56 314.935C1065.29 273.532 1050.31 248.45 1026.91 246.361Z" fill="url(#paint5_linear_14311_9490)"/>
<path opacity="0.15" d="M1026.91 246.361C1035.69 258.079 1040.39 276.725 1039.34 300.976C1036.81 360.413 1000.65 431.127 958.606 458.791C945.835 467.197 933.965 470.678 923.742 469.744C936.512 486.726 957.91 489.155 982.805 472.767C1024.87 445.103 1061.03 374.44 1063.56 314.935C1065.29 273.532 1050.31 248.45 1026.91 246.361Z" fill="black"/>
<path d="M912.347 264.566L936.546 278.542L938.482 275.944L914.283 261.934C913.62 262.834 912.992 263.632 912.347 264.566Z" fill="url(#paint6_linear_14311_9490)"/>
<path d="M901.24 345.503L876.956 331.56C876.616 332.494 876.293 333.462 875.971 334.413L900.17 348.39C900.51 347.405 900.816 346.437 901.24 345.503Z" fill="url(#paint7_linear_14311_9490)"/>
<path d="M1011.62 205.451L1035.84 219.478C1036.83 219.648 1037.81 219.818 1038.78 220.022L1014.56 206.045C1013.59 205.791 1012.61 205.604 1011.62 205.451Z" fill="url(#paint8_linear_14311_9490)"/>
<path d="M890.117 386.549C890.304 385.496 890.507 384.426 890.711 383.373L866.512 369.397C866.291 370.449 866.087 371.502 865.9 372.572L890.117 386.549Z" fill="url(#paint9_linear_14311_9490)"/>
<path d="M936.139 237.394L960.338 251.371C961.17 250.573 962.036 249.774 962.852 249.01L938.601 235.034C937.803 235.798 936.903 236.596 936.139 237.394Z" fill="url(#paint10_linear_14311_9490)"/>
<path d="M890.236 456.413C890.015 455.479 889.811 454.528 889.607 453.577L889.421 453.153L865.34 439.244C865.561 440.331 865.781 441.401 866.036 442.454L890.236 456.413Z" fill="url(#paint11_linear_14311_9490)"/>
<path d="M990.515 206.079C989.497 206.283 988.444 206.555 987.408 206.81L1011.62 220.786C1012.68 220.514 1013.73 220.276 1014.77 220.073L990.515 206.079Z" fill="url(#paint12_linear_14311_9490)"/>
<path d="M988.868 230.007L964.669 216.082C964.159 216.37 963.667 216.608 963.174 216.897L961.697 217.797L985.896 231.773L987.357 230.873L988.868 230.007Z" fill="url(#paint13_linear_14311_9490)"/>
<path d="M891.832 297.596L916.032 311.572L917.458 308.923L893.259 294.947C892.749 295.796 892.291 296.679 891.832 297.596Z" fill="url(#paint14_linear_14311_9490)"/>
<path d="M900.51 483.075C899.967 482.141 899.457 481.207 898.931 480.239L874.748 466.28C875.257 467.248 875.801 468.182 876.344 469.116L900.51 483.075Z" fill="url(#paint15_linear_14311_9490)"/>
<path d="M862.504 409.441L886.704 423.434V423.145C886.704 422.109 886.704 421.039 886.704 419.986L862.487 406.01C862.487 407.063 862.487 408.133 862.487 409.169L862.504 409.441Z" fill="url(#paint16_linear_14311_9490)"/>
<path d="M987.357 230.822C931.774 262.935 886.703 349.035 886.703 423.145C886.703 497.255 931.774 531.338 987.357 499.242C1042.94 467.146 1088.04 381.046 1088.04 306.919C1088.04 232.792 1042.96 198.726 987.357 230.822ZM1063.5 314.935C1060.97 374.372 1024.82 445.086 982.755 472.75C940.69 500.414 908.678 474.618 911.209 415.13C913.739 355.641 949.928 284.978 991.959 257.314C1033.99 229.65 1066.05 255.446 1063.5 314.935Z" fill="url(#paint17_linear_14311_9490)"/>
<g opacity="0.15">
<path d="M966.757 279.68C967.572 278.78 968.371 277.863 969.203 276.98L962.834 249.01C961.985 249.774 961.136 250.556 960.321 251.354L966.757 279.68Z" fill="black"/>
<path d="M985.879 231.705V261.696C986.864 260.932 987.849 260.184 988.851 259.471V229.99L987.357 230.822L985.879 231.705Z" fill="black"/>
<path d="M1006.34 249.774C1007.43 249.35 1008.52 248.959 1009.59 248.62L1014.68 220.056C1013.65 220.259 1012.59 220.497 1011.54 220.752L1006.34 249.774Z" fill="black"/>
<path d="M924.285 352.975L925.355 350.156L901.24 345.486C900.901 346.437 900.561 347.388 900.238 348.339L924.285 352.975Z" fill="black"/>
<path d="M935.714 326.466L937.072 323.749L917.441 308.906L916.032 311.572L935.714 326.466Z" fill="black"/>
<path d="M1083.92 271.325L1062.57 291.347C1062.74 292.535 1062.89 293.741 1063.03 294.998L1084.78 274.619C1084.46 273.532 1084.21 272.412 1083.92 271.325Z" fill="black"/>
<path d="M911.939 405.433L886.737 419.969C886.737 421.039 886.737 422.092 886.737 423.145V423.434L911.633 409.067C911.684 407.861 911.82 406.638 911.939 405.433Z" fill="black"/>
<path d="M916.015 380.809C916.269 379.739 916.541 378.669 916.796 377.582L890.694 383.339C890.491 384.392 890.287 385.462 890.1 386.515L916.015 380.809Z" fill="black"/>
<path d="M1026.4 246.344C1027.43 246.429 1028.44 246.548 1029.42 246.718L1038.8 219.937C1037.81 219.733 1036.83 219.546 1035.82 219.376L1026.4 246.344Z" fill="black"/>
<path d="M1056.02 268.625C1056.49 269.627 1056.95 270.679 1057.39 271.749L1074.88 248.195C1074.36 247.244 1073.8 246.327 1073.18 245.427L1056.02 268.625Z" fill="black"/>
<path d="M1043.65 252.848C1044.45 253.46 1045.23 254.105 1046 254.801L1059.17 229.566C1058.38 228.937 1057.58 228.343 1056.75 227.766L1043.65 252.848Z" fill="black"/>
<path d="M949.928 301.74L951.762 298.972L938.465 275.927L936.529 278.542L949.928 301.74Z" fill="black"/>
<path d="M1008.48 449.807C1007.68 450.741 1006.78 451.641 1006.05 452.524L1012.42 480.579C1013.27 479.815 1014.12 478.982 1014.94 478.184L1008.48 449.807Z" fill="black"/>
<path d="M1040.05 401.561C1039.61 402.478 1039.15 403.378 1038.69 404.278L1058.38 419.154L1059.75 416.454L1040.05 401.561Z" fill="black"/>
<path d="M1025.69 427L1023.85 429.785L1037.18 452.881C1037.83 452.015 1038.49 451.183 1039.12 450.283L1025.69 427Z" fill="black"/>
<path d="M1051.4 374.406C1051.06 375.357 1050.73 376.308 1050.38 377.242L1074.49 381.896C1074.83 380.945 1075.15 379.994 1075.48 379.043L1051.4 374.406Z" fill="black"/>
<path d="M1059.36 346.233C1059.14 347.303 1058.92 348.373 1058.66 349.426L1084.65 343.737C1084.83 342.667 1085 341.614 1085.19 340.561L1059.36 346.233Z" fill="black"/>
<path d="M1088.04 303.795L1063.32 317.975C1063.32 319.163 1063.16 320.352 1063.08 321.558L1088.04 307.208V306.919C1088.04 305.866 1088.04 304.83 1088.04 303.795Z" fill="black"/>
<path d="M988.851 498.342V468.386C987.866 469.15 986.864 469.897 985.879 470.61V500.091L987.357 499.242C987.849 498.953 988.359 498.631 988.851 498.342Z" fill="black"/>
<path d="M917.9 459.674C917.441 458.638 917 457.568 916.575 456.447L898.931 480.222C899.44 481.19 899.984 482.141 900.527 483.058L917.9 459.674Z" fill="black"/>
<path d="M930.008 476.401C929.227 475.756 928.463 475.077 927.715 474.346L914.469 499.684C915.25 500.329 916.049 500.94 916.864 501.535L930.008 476.401Z" fill="black"/>
<path d="M967.81 480.545C966.723 480.952 965.653 481.309 964.584 481.649L959.489 510.128C960.542 509.924 961.595 509.703 962.648 509.449L967.81 480.545Z" fill="black"/>
<path d="M947.347 483.652C946.328 483.551 945.343 483.398 944.358 483.211L935.086 509.873C936.071 510.111 937.056 510.297 938.04 510.467L947.347 483.652Z" fill="black"/>
<path d="M911.888 436.187C911.752 434.965 911.633 433.708 911.531 432.434L889.454 453.034C889.692 454.172 889.93 455.292 890.185 456.43L911.888 436.187Z" fill="black"/>
</g>
<path d="M1014.53 621.072L899.491 554.655V491.77L923.708 505.746L954.004 523.255V544.211L984.266 561.668V582.641L1014.53 600.099V621.072Z" fill="#1C1C1C"/>
<path d="M923.742 505.78L1050.84 432.4L1081.08 449.875L954.004 523.255L923.742 505.78Z" fill="#474747"/>
<path d="M954.004 523.255V544.211L1081.08 470.831V449.875L954.004 523.255Z" fill="#2F2F2F"/>
<path d="M954.004 544.211L1081.08 470.831L1111.34 488.306L984.266 561.668L954.004 544.211Z" fill="#474747"/>
<path d="M984.266 561.669V582.642L1111.34 509.262V488.306L984.266 561.669Z" fill="#2F2F2F"/>
<path d="M984.266 582.642L1111.34 509.262L1141.61 526.736L1014.53 600.099L984.266 582.642Z" fill="#474747"/>
<path d="M1014.53 600.099V621.072L1141.61 547.692V526.736L1014.53 600.099Z" fill="#2F2F2F"/>
<path d="M1050.92 307.785C1048.39 367.223 1012.22 437.936 970.171 465.617C954.547 475.892 940.316 478.796 928.7 475.314C916.813 464.463 910.02 443.676 911.209 415.163C913.756 355.726 949.928 285.012 991.959 257.348C1007.6 247.057 1021.86 244.17 1033.46 247.669C1045.42 258.537 1052.14 279.255 1050.92 307.785Z" fill="url(#paint18_linear_14311_9490)"/>
<path opacity="0.9" d="M1050.92 307.785C1048.39 367.223 1012.22 437.936 970.171 465.617C954.547 475.892 940.316 478.796 928.7 475.314C916.813 464.463 910.02 443.676 911.209 415.163C913.756 355.726 949.928 285.012 991.959 257.348C1007.6 247.057 1021.86 244.17 1033.46 247.669C1045.42 258.537 1052.14 279.255 1050.92 307.785Z" fill="white"/>
<path opacity="0.1" d="M969.984 435.151C956.857 436.671 944.71 442.847 935.748 452.558C930.906 457.755 926.958 463.717 924.064 470.203C925.462 472.03 927.013 473.734 928.7 475.297C931.201 476.028 933.776 476.472 936.376 476.622C937.056 474.924 937.565 473.141 938.159 471.425C941.096 463.439 946.33 456.499 953.201 451.48C960.073 446.461 968.275 443.586 976.777 443.218C982.602 443.065 988.376 444.118 994.167 444.577C996.459 442.046 998.701 439.482 1000.96 436.697C990.702 436.17 980.122 434.133 969.984 435.151ZM967.471 348.186C979.358 349.731 992.332 350.394 1002.73 344.314C1014.49 337.419 1020.08 323.749 1025.75 311.369C1031.03 299.872 1038.25 287.729 1049.78 283.28C1047.39 267.198 1041.65 255.09 1033.45 247.618C1027.85 246.008 1021.95 245.757 1016.24 246.887C1010.49 253.475 1006.3 261.277 1003.98 269.711C1001.27 279.221 1000.31 289.326 995.95 298.173C991.505 307.069 983.961 314.033 974.739 317.754C967.471 320.641 959.574 321.337 951.847 322.526C946.457 323.322 941.129 324.491 935.901 326.024C931.867 334.036 928.273 342.262 925.134 350.665C927.219 349.599 929.389 348.707 931.621 347.999C943.152 344.45 955.583 346.657 967.471 348.186ZM979.63 288.748C983.434 282.176 984.724 274.517 986.813 267.198C987.561 264.464 988.512 261.798 989.395 259.132C986.677 261.045 983.983 263.128 981.311 265.381C977.473 274.704 973.737 284.061 966.655 291.092C963.046 294.628 958.736 297.37 954.004 299.141C953.11 299.441 952.188 299.651 951.253 299.77C949.52 302.317 947.822 304.921 946.158 307.582C949.989 307.274 953.786 306.626 957.502 305.646C966.703 302.885 974.578 296.858 979.647 288.697L979.63 288.748ZM1050.95 299.057C1047.63 300.778 1044.63 303.045 1042.06 305.764C1035.74 312.693 1032.34 321.677 1028.47 330.236C1023.07 342.429 1016.02 354.843 1004.29 361.16C996.476 365.355 987.306 366.408 978.526 366.646C961.799 367.104 944.816 364.947 928.463 368.531C924.938 369.3 921.492 370.398 918.171 371.808C917.039 375.872 916.049 379.92 915.2 383.95C919.008 381.935 923.037 380.367 927.206 379.28C951.372 373.167 978.152 386.583 1001.3 377.582C1018.28 370.942 1028.62 354.079 1036.96 337.878C1040.36 331.272 1044.01 324.292 1049.87 319.911C1050.32 315.869 1050.64 311.861 1050.82 307.887C1051.04 304.746 1051.07 301.842 1051.02 299.006L1050.95 299.057ZM990.668 398.045C977.592 398.521 964.533 397.298 951.456 397.111C944.756 396.747 938.041 397.435 931.553 399.149C925.875 401.07 920.533 403.872 915.726 407.454C914.249 408.506 912.822 409.593 911.413 410.697C911.311 412.209 911.209 413.703 911.141 415.18C910.411 432.417 912.601 446.801 917.068 457.908C919.954 455.402 922.521 452.55 924.71 449.416C933.693 437.274 942.354 423.841 955.974 417.337C970.595 410.358 987.832 412.854 1003.73 409.661C1010.68 408.241 1017.36 405.712 1023.51 402.172C1026.03 397.462 1028.4 392.662 1030.63 387.771C1029.95 388.179 1029.25 388.569 1028.56 388.96C1017.06 395.26 1003.8 397.519 990.736 397.995L990.668 398.045Z" fill="url(#paint19_linear_14311_9490)"/>
<path d="M1129.03 281.895C1129.03 287.669 1127.95 292.797 1120.88 294.037C1128.12 294.343 1128.62 299.132 1129.03 305.823C1129.27 299.183 1129.9 294.343 1136.45 294.037C1129.69 292.916 1129.03 287.669 1129.03 281.895Z" fill="url(#paint20_linear_14311_9490)"/>
<path d="M964.204 589.289C964.204 595.063 963.117 600.191 956.052 601.431C963.287 601.737 963.796 606.526 964.204 613.217C964.441 606.56 965.07 601.737 971.625 601.431C964.832 600.293 964.204 595.063 964.204 589.289Z" fill="url(#paint21_linear_14311_9490)"/>
<path d="M911.1 411.384C911.1 413.914 910.625 416.139 907.534 416.682C910.693 416.818 910.931 418.941 911.1 421.777C911.202 418.873 911.474 416.682 914.344 416.682C911.372 416.19 911.1 413.914 911.1 411.384Z" fill="url(#paint22_linear_14311_9490)"/>
<path d="M897.209 421.318C897.209 427.075 896.105 432.204 889.058 433.444C896.292 433.749 896.802 438.538 897.209 445.246C897.43 438.589 898.058 433.766 904.63 433.444C897.838 432.408 897.209 427.075 897.209 421.318Z" fill="#E0E0E0"/>
<path d="M890.586 392.381C890.586 395.353 890.026 397.968 886.409 398.613C890.111 398.766 890.382 401.246 890.586 404.659C890.705 401.263 891.028 398.766 894.407 398.613C890.909 398.036 890.586 395.353 890.586 392.381Z" fill="#E0E0E0"/>
<path d="M1109.42 264.539C1109.42 267.936 1109.33 271.162 1104.46 271.926C1109.55 271.926 1109.21 275.102 1109.47 279.178C1109.6 275.102 1109.96 272.181 1113.99 271.994C1109.83 271.298 1109.94 269.379 1109.42 264.539Z" fill="#E0E0E0"/>
<path d="M1151.77 421.709C1151.41 428.077 1150.91 430.828 1145.15 431.593C1151.01 431.915 1151.5 435.804 1151.84 441.221C1152.03 435.804 1152.5 431.864 1157.85 431.593C1152.35 430.71 1152.21 428.162 1151.77 421.709Z" fill="#E0E0E0"/>
<path d="M940.802 589.34C940.599 593.059 940.31 594.655 936.947 595.114C940.344 595.301 940.65 597.542 940.853 600.701C940.955 597.542 941.227 595.25 944.352 595.114C941.193 594.57 941.057 593.11 940.802 589.34Z" fill="#E0E0E0"/>
<path d="M1139.75 275.985C1139.75 278.04 1139.75 280.01 1136.74 280.469C1139.87 280.469 1139.63 282.388 1139.78 284.85C1139.87 282.388 1140.07 280.621 1142.5 280.502C1139.99 280.078 1140.05 278.923 1139.75 275.985Z" fill="#E0E0E0"/>
<path d="M1146.15 440.22C1146.15 442.257 1146.15 444.227 1143.14 444.686C1146.25 444.686 1146.01 446.622 1146.17 449.084C1146.25 446.622 1146.47 444.839 1148.9 444.737C1146.39 444.295 1146.46 443.141 1146.15 440.22Z" fill="#E0E0E0"/>
<path d="M956.477 581.239C956.477 583.277 956.477 585.247 953.471 585.706C956.596 585.706 956.358 587.625 956.511 590.087C956.596 587.625 956.816 585.859 959.245 585.74C956.766 585.332 956.833 584.16 956.477 581.239Z" fill="#E0E0E0"/>
<path d="M1383.62 536.532L1437.09 505.658L1517.83 552.257L1556.56 529.892L1475.85 483.293L1502.07 468.145L1459.61 443.605L1433.39 458.753L1386.59 431.769L1347.83 454.151L1394.59 481.204L1294.88 538.671L1326.08 556.673L1577.72 624.228L1582.61 621.408C1585.01 611.763 1587 601.919 1588.57 591.877L1383.62 536.532Z" fill="#1C1C1C"/>
<path d="M1388.64 299.648L1386.64 300.803V235.557L1362.42 221.581L1332.46 238.869L1357.17 145.976L1332.97 132L1291.32 156.047L1224 407.756V443.843L1248.2 457.819L1323.75 414.175V440.175L1347.97 454.151L1386.59 431.769V377.834L1412.79 362.702V313.624L1388.64 299.648ZM1323.75 337.161L1303.26 349.049L1323.75 271.916V337.161Z" fill="url(#paint23_linear_14311_9490)"/>
<path opacity="0.3" d="M1388.64 299.648L1386.64 300.803V235.557L1362.42 221.581L1332.46 238.869L1357.17 145.976L1332.97 132L1291.32 156.047L1224 407.756V443.843L1248.2 457.819L1323.75 414.175V440.175L1347.97 454.151L1386.59 431.769V377.834L1412.79 362.702V313.624L1388.64 299.648ZM1323.75 337.161L1303.26 349.049L1323.75 271.916V337.161Z" fill="black"/>
<path d="M1386.62 328.755V235.557L1347.88 257.923V351.138L1294.39 382.011L1357.17 145.976L1315.52 170.023L1248.2 421.732V457.752L1347.88 400.216V454.151L1386.62 431.769V377.834L1412.84 362.702V313.624L1386.62 328.755Z" fill="url(#paint24_linear_14311_9490)"/>
<path opacity="0.3" d="M1386.62 328.755V235.557L1347.88 257.923V351.138L1294.39 382.011L1357.17 145.976L1315.52 170.023L1248.2 421.732V457.752L1347.88 400.216V454.151L1386.62 431.769V377.834L1412.84 362.702V313.624L1386.62 328.755Z" fill="white"/>
<path d="M1357.17 145.976L1332.97 132L1291.32 156.047L1315.52 170.023L1357.17 145.976Z" fill="url(#paint25_linear_14311_9490)"/>
<path opacity="0.5" d="M1357.17 145.976L1332.97 132L1291.32 156.047L1315.52 170.023L1357.17 145.976Z" fill="white"/>
<path d="M1362.42 221.581L1386.62 235.557L1347.88 257.923L1330.12 247.665L1332.47 238.869L1362.42 221.581Z" fill="url(#paint26_linear_14311_9490)"/>
<path opacity="0.5" d="M1362.42 221.581L1386.62 235.557L1347.88 257.923L1330.12 247.665L1332.47 238.869L1362.42 221.581Z" fill="white"/>
<path d="M1347.88 351.138L1323.67 337.161L1303.17 348.998L1294.39 382.011L1347.88 351.138Z" fill="url(#paint27_linear_14311_9490)"/>
<path opacity="0.5" d="M1347.88 351.138L1323.67 337.161L1303.17 348.998L1294.39 382.011L1347.88 351.138Z" fill="white"/>
<path d="M1412.84 313.624L1388.64 299.648L1386.62 300.803V328.755L1412.84 313.624Z" fill="url(#paint28_linear_14311_9490)"/>
<path opacity="0.5" d="M1386.62 328.755L1412.84 313.624L1388.64 299.648L1386.62 300.803V328.755Z" fill="white"/>
<path d="M1248.2 421.733L1224 407.756L1291.32 156.047L1315.52 170.023L1248.2 421.733Z" fill="url(#paint29_linear_14311_9490)"/>
<path opacity="0.15" d="M1248.2 421.733L1224 407.756L1291.32 156.047L1315.52 170.023L1248.2 421.733Z" fill="black"/>
<path d="M948.066 753.162L905.559 728.622L879.356 743.753L832.638 716.786L793.885 739.151L840.603 766.119L740.917 823.671L772.114 841.689L1023.77 909.244L1065.43 885.198L829.615 821.549L883.109 790.658L963.825 837.274L1002.58 814.892L921.845 768.293L948.066 753.162Z" fill="#1C1C1C"/>
<path d="M834.642 584.648L832.638 585.819V520.506L808.421 506.53L778.465 523.903L803.174 431.01L778.974 417.034L737.317 441.047L670 692.773V728.792L694.267 742.768L769.753 699.192V725.175L793.953 739.151L832.706 716.786V662.833L858.909 647.702V598.624L834.642 584.648ZM769.685 622.161L749.188 634.049L769.685 556.984V622.161Z" fill="url(#paint30_linear_14311_9490)"/>
<path opacity="0.3" d="M834.642 584.648L832.638 585.819V520.506L808.421 506.53L778.465 523.903L803.174 431.01L778.974 417.034L737.317 441.047L670 692.773V728.792L694.267 742.768L769.753 699.192V725.175L793.953 739.151L832.706 716.786V662.833L858.909 647.702V598.624L834.642 584.648ZM769.685 622.161L749.188 634.049L769.685 556.984V622.161Z" fill="black"/>
<path d="M832.638 613.772V520.557L793.885 542.923V636.138L740.391 667.011L803.191 430.976L761.534 455.023L694.199 706.732V742.768L793.885 685.216V739.151L832.638 716.786V662.834L858.841 647.702V598.624L832.638 613.772Z" fill="url(#paint31_linear_14311_9490)"/>
<path opacity="0.3" d="M832.638 613.772V520.557L793.885 542.923V636.138L740.391 667.011L803.191 430.976L761.534 455.023L694.199 706.732V742.768L793.885 685.216V739.151L832.638 716.786V662.834L858.841 647.702V598.624L832.638 613.772Z" fill="white"/>
<path d="M803.191 430.976L778.974 417L737.317 441.047L761.534 455.023L803.191 430.976Z" fill="url(#paint32_linear_14311_9490)"/>
<path opacity="0.5" d="M803.191 430.976L778.974 417L737.317 441.047L761.534 455.023L803.191 430.976Z" fill="white"/>
<path d="M808.421 506.581L832.638 520.557L793.885 542.923L776.121 532.682L778.465 523.886L808.421 506.581Z" fill="url(#paint33_linear_14311_9490)"/>
<path opacity="0.5" d="M808.421 506.581L832.638 520.557L793.885 542.923L776.121 532.682L778.465 523.886L808.421 506.581Z" fill="white"/>
<path d="M793.885 636.138L769.685 622.161L749.188 633.998L740.391 667.011L793.885 636.138Z" fill="url(#paint34_linear_14311_9490)"/>
<path opacity="0.5" d="M793.885 636.138L769.685 622.161L749.188 633.998L740.391 667.011L793.885 636.138Z" fill="white"/>
<path d="M858.841 598.624L834.642 584.648L832.638 585.819V613.772L858.841 598.624Z" fill="url(#paint35_linear_14311_9490)"/>
<path opacity="0.5" d="M832.638 613.772L858.841 598.624L834.642 584.648L832.638 585.819V613.772Z" fill="white"/>
<path d="M694.2 706.732L670 692.773L737.317 441.047L761.534 455.023L694.2 706.732Z" fill="url(#paint36_linear_14311_9490)"/>
<path opacity="0.15" d="M694.2 706.732L670 692.773L737.317 441.047L761.534 455.023L694.2 706.732Z" fill="black"/>
</g>
<defs>
<linearGradient id="paint0_linear_14311_9490" x1="1494.26" y1="912.441" x2="722.563" y2="735.879" gradientUnits="userSpaceOnUse">
<stop offset="0.46997" stop-color="#904BF6"/>
<stop offset="0.90795" stop-color="#CF0063"/>
</linearGradient>
<linearGradient id="paint1_linear_14311_9490" x1="1153.1" y1="697.932" x2="653.642" y2="638.735" gradientUnits="userSpaceOnUse">
<stop offset="0.46997" stop-color="#904BF6"/>
<stop offset="0.90795" stop-color="#CF0063"/>
</linearGradient>
<linearGradient id="paint2_linear_14311_9490" x1="1121.44" y1="649.344" x2="701.674" y2="600.274" gradientUnits="userSpaceOnUse">
<stop offset="0.46997" stop-color="#904BF6"/>
<stop offset="0.90795" stop-color="#CF0063"/>
</linearGradient>
<linearGradient id="paint3_linear_14311_9490" x1="1098.65" y1="609.518" x2="736.38" y2="567.322" gradientUnits="userSpaceOnUse">
<stop offset="0.46997" stop-color="#904BF6"/>
<stop offset="0.90795" stop-color="#CF0063"/>
</linearGradient>
<linearGradient id="paint4_linear_14311_9490" x1="1073.94" y1="582.213" x2="778.292" y2="550.53" gradientUnits="userSpaceOnUse">
<stop offset="0.46997" stop-color="#904BF6"/>
<stop offset="0.90795" stop-color="#CF0063"/>
</linearGradient>
<linearGradient id="paint5_linear_14311_9490" x1="1080.11" y1="546.194" x2="861.129" y2="524.348" gradientUnits="userSpaceOnUse">
<stop offset="0.46997" stop-color="#904BF6"/>
<stop offset="0.90795" stop-color="#CF0063"/>
</linearGradient>
<linearGradient id="paint6_linear_14311_9490" x1="941.549" y1="282.902" x2="902.984" y2="272.628" gradientUnits="userSpaceOnUse">
<stop offset="0.46997" stop-color="#904BF6"/>
<stop offset="0.90795" stop-color="#CF0063"/>
</linearGradient>
<linearGradient id="paint7_linear_14311_9490" x1="904.206" y1="352.807" x2="866.696" y2="343.273" gradientUnits="userSpaceOnUse">
<stop offset="0.46997" stop-color="#904BF6"/>
<stop offset="0.90795" stop-color="#CF0063"/>
</linearGradient>
<linearGradient id="paint8_linear_14311_9490" x1="1041.97" y1="223.846" x2="1002.94" y2="211.533" gradientUnits="userSpaceOnUse">
<stop offset="0.46997" stop-color="#904BF6"/>
<stop offset="0.90795" stop-color="#CF0063"/>
</linearGradient>
<linearGradient id="paint9_linear_14311_9490" x1="893.623" y1="391.051" x2="856.632" y2="381.992" gradientUnits="userSpaceOnUse">
<stop offset="0.46997" stop-color="#904BF6"/>
<stop offset="0.90795" stop-color="#CF0063"/>
</linearGradient>
<linearGradient id="paint10_linear_14311_9490" x1="965.986" y1="255.659" x2="926.776" y2="244.805" gradientUnits="userSpaceOnUse">
<stop offset="0.46997" stop-color="#904BF6"/>
<stop offset="0.90795" stop-color="#CF0063"/>
</linearGradient>
<linearGradient id="paint11_linear_14311_9490" x1="893.157" y1="460.92" x2="856.05" y2="451.811" gradientUnits="userSpaceOnUse">
<stop offset="0.46997" stop-color="#904BF6"/>
<stop offset="0.90795" stop-color="#CF0063"/>
</linearGradient>
<linearGradient id="paint12_linear_14311_9490" x1="1017.98" y1="224.646" x2="978.643" y2="212.259" gradientUnits="userSpaceOnUse">
<stop offset="0.46997" stop-color="#904BF6"/>
<stop offset="0.90795" stop-color="#CF0063"/>
</linearGradient>
<linearGradient id="paint13_linear_14311_9490" x1="992.057" y1="235.892" x2="952.515" y2="224.301" gradientUnits="userSpaceOnUse">
<stop offset="0.46997" stop-color="#904BF6"/>
<stop offset="0.90795" stop-color="#CF0063"/>
</linearGradient>
<linearGradient id="paint14_linear_14311_9490" x1="920.465" y1="315.937" x2="882.55" y2="306.043" gradientUnits="userSpaceOnUse">
<stop offset="0.46997" stop-color="#904BF6"/>
<stop offset="0.90795" stop-color="#CF0063"/>
</linearGradient>
<linearGradient id="paint15_linear_14311_9490" x1="903.533" y1="487.484" x2="865.393" y2="477.58" gradientUnits="userSpaceOnUse">
<stop offset="0.46997" stop-color="#904BF6"/>
<stop offset="0.90795" stop-color="#CF0063"/>
</linearGradient>
<linearGradient id="paint16_linear_14311_9490" x1="889.545" y1="428.008" x2="853.283" y2="419.475" gradientUnits="userSpaceOnUse">
<stop offset="0.46997" stop-color="#904BF6"/>
<stop offset="0.90795" stop-color="#CF0063"/>
</linearGradient>
<linearGradient id="paint17_linear_14311_9490" x1="1111.67" y1="588.121" x2="797.751" y2="551.549" gradientUnits="userSpaceOnUse">
<stop offset="0.46997" stop-color="#904BF6"/>
<stop offset="0.90795" stop-color="#CF0063"/>
</linearGradient>
<linearGradient id="paint18_linear_14311_9490" x1="1067.49" y1="537.216" x2="848.58" y2="514.705" gradientUnits="userSpaceOnUse">
<stop offset="0.46997" stop-color="#904BF6"/>
<stop offset="0.90795" stop-color="#CF0063"/>
</linearGradient>
<linearGradient id="paint19_linear_14311_9490" x1="1067.48" y1="537.11" x2="848.487" y2="514.579" gradientUnits="userSpaceOnUse">
<stop offset="0.46997" stop-color="#904BF6"/>
<stop offset="0.90795" stop-color="#CF0063"/>
</linearGradient>
<linearGradient id="paint20_linear_14311_9490" x1="1138.28" y1="312.104" x2="1113.97" y2="309.425" gradientUnits="userSpaceOnUse">
<stop offset="0.46997" stop-color="#904BF6"/>
<stop offset="0.90795" stop-color="#CF0063"/>
</linearGradient>
<linearGradient id="paint21_linear_14311_9490" x1="973.452" y1="619.498" x2="949.138" y2="616.819" gradientUnits="userSpaceOnUse">
<stop offset="0.46997" stop-color="#904BF6"/>
<stop offset="0.90795" stop-color="#CF0063"/>
</linearGradient>
<linearGradient id="paint22_linear_14311_9490" x1="915.143" y1="424.505" x2="904.512" y2="423.326" gradientUnits="userSpaceOnUse">
<stop offset="0.46997" stop-color="#904BF6"/>
<stop offset="0.90795" stop-color="#CF0063"/>
</linearGradient>
<linearGradient id="paint23_linear_14311_9490" x1="1434.94" y1="543.347" x2="1139.44" y2="514.36" gradientUnits="userSpaceOnUse">
<stop offset="0.46997" stop-color="#904BF6"/>
<stop offset="0.90795" stop-color="#CF0063"/>
</linearGradient>
<linearGradient id="paint24_linear_14311_9490" x1="1432.16" y1="539.593" x2="1174.04" y2="516.516" gradientUnits="userSpaceOnUse">
<stop offset="0.46997" stop-color="#904BF6"/>
<stop offset="0.90795" stop-color="#CF0063"/>
</linearGradient>
<linearGradient id="paint25_linear_14311_9490" x1="1364.9" y1="180.004" x2="1269.07" y2="151.904" gradientUnits="userSpaceOnUse">
<stop offset="0.46997" stop-color="#904BF6"/>
<stop offset="0.90795" stop-color="#CF0063"/>
</linearGradient>
<linearGradient id="paint26_linear_14311_9490" x1="1393.25" y1="267.462" x2="1309.75" y2="245.485" gradientUnits="userSpaceOnUse">
<stop offset="0.46997" stop-color="#904BF6"/>
<stop offset="0.90795" stop-color="#CF0063"/>
</linearGradient>
<linearGradient id="paint27_linear_14311_9490" x1="1354.16" y1="393.784" x2="1272.94" y2="377.383" gradientUnits="userSpaceOnUse">
<stop offset="0.46997" stop-color="#904BF6"/>
<stop offset="0.90795" stop-color="#CF0063"/>
</linearGradient>
<linearGradient id="paint28_linear_14311_9490" x1="1415.92" y1="336.396" x2="1375.42" y2="330.22" gradientUnits="userSpaceOnUse">
<stop offset="0.46997" stop-color="#904BF6"/>
<stop offset="0.90795" stop-color="#CF0063"/>
</linearGradient>
<linearGradient id="paint29_linear_14311_9490" x1="1326.26" y1="491.475" x2="1182.12" y2="483.07" gradientUnits="userSpaceOnUse">
<stop offset="0.46997" stop-color="#904BF6"/>
<stop offset="0.90795" stop-color="#CF0063"/>
</linearGradient>
<linearGradient id="paint30_linear_14311_9490" x1="881.077" y1="828.274" x2="585.392" y2="799.243" gradientUnits="userSpaceOnUse">
<stop offset="0.46997" stop-color="#904BF6"/>
<stop offset="0.90795" stop-color="#CF0063"/>
</linearGradient>
<linearGradient id="paint31_linear_14311_9490" x1="878.162" y1="824.614" x2="620.039" y2="801.539" gradientUnits="userSpaceOnUse">
<stop offset="0.46997" stop-color="#904BF6"/>
<stop offset="0.90795" stop-color="#CF0063"/>
</linearGradient>
<linearGradient id="paint32_linear_14311_9490" x1="810.921" y1="465.004" x2="715.066" y2="436.89" gradientUnits="userSpaceOnUse">
<stop offset="0.46997" stop-color="#904BF6"/>
<stop offset="0.90795" stop-color="#CF0063"/>
</linearGradient>
<linearGradient id="paint33_linear_14311_9490" x1="839.27" y1="552.462" x2="755.746" y2="530.472" gradientUnits="userSpaceOnUse">
<stop offset="0.46997" stop-color="#904BF6"/>
<stop offset="0.90795" stop-color="#CF0063"/>
</linearGradient>
<linearGradient id="paint34_linear_14311_9490" x1="800.162" y1="678.784" x2="718.937" y2="662.383" gradientUnits="userSpaceOnUse">
<stop offset="0.46997" stop-color="#904BF6"/>
<stop offset="0.90795" stop-color="#CF0063"/>
</linearGradient>
<linearGradient id="paint35_linear_14311_9490" x1="861.916" y1="621.417" x2="821.446" y2="615.253" gradientUnits="userSpaceOnUse">
<stop offset="0.46997" stop-color="#904BF6"/>
<stop offset="0.90795" stop-color="#CF0063"/>
</linearGradient>
<linearGradient id="paint36_linear_14311_9490" x1="772.275" y1="776.475" x2="628.113" y2="768.067" gradientUnits="userSpaceOnUse">
<stop offset="0.46997" stop-color="#904BF6"/>
<stop offset="0.90795" stop-color="#CF0063"/>
</linearGradient>
<clipPath id="clip0_14311_9490">
<rect width="1506" height="900" fill="white"/>
</clipPath>
</defs>
</svg>
