<?xml version="1.0" encoding="utf-8"?>
<!-- Generator: Adobe Illustrator 28.3.0, SVG Export Plug-In . SVG Version: 6.00 Build 0)  -->
<svg version="1.1" id="Layer_1" xmlns="http://www.w3.org/2000/svg" xmlns:xlink="http://www.w3.org/1999/xlink" x="0px" y="0px"
	 viewBox="0 0 375 812" style="enable-background:new 0 0 375 812;" xml:space="preserve">
<style type="text/css">
	.st0{clip-path:url(#SVGID_00000178200118491844600120000011631558172937111212_);}
	.st1{fill:none;}
	.st2{fill:#2F2F2F;}
	.st3{fill:#1C1C1C;}
	.st4{opacity:0.2;fill:url(#SVGID_00000024722234874982879620000011186455462911695520_);enable-background:new    ;}
	.st5{opacity:0.15;fill:url(#SVGID_00000102540585971672622680000017166499231413711492_);enable-background:new    ;}
	.st6{opacity:0.15;fill:url(#SVGID_00000000181892494304383870000014430970761493595794_);enable-background:new    ;}
	.st7{opacity:0.15;fill:url(#SVGID_00000087414546897089983740000011200251955343308427_);enable-background:new    ;}
	.st8{fill:url(#SVGID_00000096740931310733420650000014444888295552906681_);}
	.st9{opacity:0.3;fill:#FFFFFF;enable-background:new    ;}
	.st10{fill:url(#SVGID_00000052825253463972691560000012386101723487182728_);}
	.st11{opacity:0.15;enable-background:new    ;}
	.st12{fill:url(#SVGID_00000145772087525334984390000010691658759197831334_);}
	.st13{fill:url(#SVGID_00000038402024269550382270000010350588845402100655_);}
	.st14{fill:url(#SVGID_00000116941834264810358560000010982422380686162588_);}
	.st15{fill:url(#SVGID_00000112607457220633914810000011272706089524444555_);}
	.st16{fill:url(#SVGID_00000041274153238596281120000012067388174682374294_);}
	.st17{fill:url(#SVGID_00000080923097515550579080000014010216412573156510_);}
	.st18{fill:url(#SVGID_00000017516936074330021710000018377871432745992339_);}
	.st19{fill:url(#SVGID_00000155111114696091945320000006529434667484751777_);}
	.st20{fill:url(#SVGID_00000155141160678309899470000010064496097470653569_);}
	.st21{fill:url(#SVGID_00000126313941085279198860000010657535072703452599_);}
	.st22{fill:url(#SVGID_00000044165830380955624090000011355307165611378564_);}
	.st23{fill:url(#SVGID_00000002382663314739375930000013072332950708005045_);}
	.st24{opacity:0.15;}
	.st25{fill:#474747;}
	.st26{fill:url(#SVGID_00000138557744622793387760000010515311850238481596_);}
	.st27{opacity:0.9;fill:#FFFFFF;enable-background:new    ;}
	.st28{opacity:0.1;fill:url(#SVGID_00000029014472400411499120000004510911074253600175_);enable-background:new    ;}
	.st29{fill:url(#SVGID_00000141443541760013209100000009295742742584358073_);}
	.st30{fill:url(#SVGID_00000023968565671007435640000006994482863290499459_);}
	.st31{fill:url(#SVGID_00000153695613550886048460000011089390972178407047_);}
	.st32{fill:#E0E0E0;}
	.st33{fill:url(#SVGID_00000092420020024091836950000006067795761920043168_);}
	.st34{opacity:0.3;enable-background:new    ;}
	.st35{fill:url(#SVGID_00000125598177756951907880000017282786308576736671_);}
	.st36{fill:url(#SVGID_00000125602268049602715690000013105832307679340166_);}
	.st37{opacity:0.5;fill:#FFFFFF;enable-background:new    ;}
	.st38{fill:url(#SVGID_00000147200541765158700660000009270508627830950799_);}
	.st39{fill:url(#SVGID_00000119109019785274379700000013594385077091235742_);}
	.st40{fill:url(#SVGID_00000176730957732018419970000011866538571151448716_);}
	.st41{fill:url(#SVGID_00000154425883757477300220000014340749828200791433_);}
	.st42{fill:url(#SVGID_00000038386755495778454940000001485414047970269608_);}
	.st43{fill:url(#SVGID_00000163771404017193939410000004943368222508258709_);}
	.st44{fill:url(#SVGID_00000037674507687253089130000013735540042115423908_);}
	.st45{fill:url(#SVGID_00000007395161795880032170000009773081148761849512_);}
	.st46{fill:url(#SVGID_00000170251363689652541390000017471177218066036638_);}
	.st47{fill:url(#SVGID_00000074438625936319623320000000507128819977512342_);}
	.st48{fill:url(#SVGID_00000042017695154726460760000004955291528511132861_);}
</style>
<g>
	<defs>
		<rect id="SVGID_1_" width="375" height="812"/>
	</defs>
	<clipPath id="SVGID_00000129207415924243847360000006105163933119888046_">
		<use xlink:href="#SVGID_1_"  style="overflow:visible;"/>
	</clipPath>
	<g style="clip-path:url(#SVGID_00000129207415924243847360000006105163933119888046_);">
		<rect width="375" height="812"/>
		<rect class="st1" width="375" height="93"/>
		
			<rect x="-70.9" y="333.5" transform="matrix(0.9266 -0.3759 0.3759 0.9266 -209.8029 134.3107)" class="st2" width="620.4" height="542.5"/>
		
			<rect x="-172.4" y="-82.6" transform="matrix(0.9266 -0.3759 0.3759 0.9266 -41.4742 77.5569)" class="st3" width="700.8" height="455.3"/>
		
			<linearGradient id="SVGID_00000091734660317108652850000005841463536826053288_" gradientUnits="userSpaceOnUse" x1="321.3063" y1="387.4472" x2="68.4361" y2="445.3042" gradientTransform="matrix(1 0 0 -1 0 812)">
			<stop  offset="0.47" style="stop-color:#904BF6"/>
			<stop  offset="0.9079" style="stop-color:#CF0063"/>
		</linearGradient>
		<path style="opacity:0.2;fill:url(#SVGID_00000091734660317108652850000005841463536826053288_);enable-background:new    ;" d="
			M191.5,367.1v-6.9l-9.9-5.7v-6.9l-9.9-5.7v-6.9l-9.9-5.7l-42.8,23.4l11.1,6.4v6.9l9.9,5.7v6.9l9.9,5.7v6.9l43.4,62.8
			c43-7.3,75.9-29.2,89.7-57.5c1.6-3.3,3-6.6,4.3-9.9L191.5,367.1z"/>
		
			<linearGradient id="SVGID_00000101073936101743957100000012535352879515391671_" gradientUnits="userSpaceOnUse" x1="207.7116" y1="500.3232" x2="44.0493" y2="519.7211" gradientTransform="matrix(1 0 0 -1 0 812)">
			<stop  offset="0.47" style="stop-color:#904BF6"/>
			<stop  offset="0.9079" style="stop-color:#CF0063"/>
		</linearGradient>
		<path style="opacity:0.15;fill:url(#SVGID_00000101073936101743957100000012535352879515391671_);enable-background:new    ;" d="
			M130.5,233.3c-29,16.7-52.5,61.4-52.5,100c0,22.9,8.3,38.4,21.1,43.8l5.3-3.1l52.1-30.1l5.4-3.1c12.7-20.1,21-45.1,21-67.9
			C183,234.3,159.5,216.6,130.5,233.3z"/>
		
			<linearGradient id="SVGID_00000049179991047671043500000000159669534315173279_" gradientUnits="userSpaceOnUse" x1="195.4308" y1="501.3762" x2="57.8807" y2="517.4562" gradientTransform="matrix(1 0 0 -1 0 812)">
			<stop  offset="0.47" style="stop-color:#904BF6"/>
			<stop  offset="0.9079" style="stop-color:#CF0063"/>
		</linearGradient>
		<path style="opacity:0.15;fill:url(#SVGID_00000049179991047671043500000000159669534315173279_);enable-background:new    ;" d="
			M130.5,244.4c-24.4,14-44.1,51.6-44.1,84c0,32.4,19.7,47.3,44.1,33.2c24.4-14,44.1-51.6,44.1-84
			C174.6,245.3,154.8,230.4,130.5,244.4z"/>
		
			<linearGradient id="SVGID_00000104694441178276049620000006631717971914132661_" gradientUnits="userSpaceOnUse" x1="186.5286" y1="502.4427" x2="67.8191" y2="516.2697" gradientTransform="matrix(1 0 0 -1 0 812)">
			<stop  offset="0.47" style="stop-color:#904BF6"/>
			<stop  offset="0.9079" style="stop-color:#CF0063"/>
		</linearGradient>
		<path style="opacity:0.15;fill:url(#SVGID_00000104694441178276049620000006631717971914132661_);enable-background:new    ;" d="
			M130.5,252.3c-21,12.1-38.1,44.7-38.1,72.7c0,28,17,40.9,38.1,28.8c21-12.1,38.1-44.7,38.1-72.7
			C168.5,253,151.5,240.1,130.5,252.3z"/>
		
			<linearGradient id="SVGID_00000015342389167141717630000005500505924002428820_" gradientUnits="userSpaceOnUse" x1="176.866" y1="503.5368" x2="79.9863" y2="513.9188" gradientTransform="matrix(1 0 0 -1 0 812)">
			<stop  offset="0.47" style="stop-color:#904BF6"/>
			<stop  offset="0.9079" style="stop-color:#CF0063"/>
		</linearGradient>
		<path style="fill:url(#SVGID_00000015342389167141717630000005500505924002428820_);" d="M108,326.3c0-24.3,14.8-52.5,33-63
			c8-4.6,15.4-5.1,21.1-2l-7.4-4.3c-5.8-3.3-13.4-3.1-21.6,1.7c-18.2,10.5-33,38.7-33,63c0,13.3,4.4,22.7,11.4,26.7
			c1.2,0.7,5.6,3.3,7.5,4.3C112.2,348.6,108,339.3,108,326.3z"/>
		<path class="st9" d="M108,326.3c0-24.3,14.8-52.5,33-63c8-4.6,15.4-5.1,21.1-2l-7.4-4.3c-5.8-3.3-13.4-3.1-21.6,1.7
			c-18.2,10.5-33,38.7-33,63c0,13.3,4.4,22.7,11.4,26.7c1.2,0.7,5.6,3.3,7.5,4.3C112.2,348.6,108,339.3,108,326.3z"/>
		
			<linearGradient id="SVGID_00000019663860483332787930000014189795563497670286_" gradientUnits="userSpaceOnUse" x1="176.951" y1="501.1221" x2="105.1936" y2="508.2801" gradientTransform="matrix(1 0 0 -1 0 812)">
			<stop  offset="0.47" style="stop-color:#904BF6"/>
			<stop  offset="0.9079" style="stop-color:#CF0063"/>
		</linearGradient>
		<path style="fill:url(#SVGID_00000019663860483332787930000014189795563497670286_);" d="M154,268.4c2.9,3.8,4.4,9.9,4.1,17.9
			c-0.8,19.5-12.7,42.6-26.5,51.7c-4.2,2.8-8.1,3.9-11.4,3.6c4.2,5.6,11.2,6.4,19.4,1c13.8-9.1,25.6-32.2,26.5-51.7
			C166.5,277.3,161.6,269.1,154,268.4z"/>
		<path class="st11" d="M154,268.4c2.9,3.8,4.4,9.9,4.1,17.9c-0.8,19.5-12.7,42.6-26.5,51.7c-4.2,2.8-8.1,3.9-11.4,3.6
			c4.2,5.6,11.2,6.4,19.4,1c13.8-9.1,25.6-32.2,26.5-51.7C166.5,277.3,161.6,269.1,154,268.4z"/>
		
			<linearGradient id="SVGID_00000139264883116999982590000009550163117905238943_" gradientUnits="userSpaceOnUse" x1="126.6639" y1="534.18" x2="114.0269" y2="537.546" gradientTransform="matrix(1 0 0 -1 0 812)">
			<stop  offset="0.47" style="stop-color:#904BF6"/>
			<stop  offset="0.9079" style="stop-color:#CF0063"/>
		</linearGradient>
		<path style="fill:url(#SVGID_00000139264883116999982590000009550163117905238943_);" d="M116.4,274.4l7.9,4.6l0.6-0.9l-7.9-4.6
			C116.8,273.8,116.6,274.1,116.4,274.4z"/>
		
			<linearGradient id="SVGID_00000040556209084764446460000016716734752238157986_" gradientUnits="userSpaceOnUse" x1="114.438" y1="511.4386" x2="102.147" y2="514.5637" gradientTransform="matrix(1 0 0 -1 0 812)">
			<stop  offset="0.47" style="stop-color:#904BF6"/>
			<stop  offset="0.9079" style="stop-color:#CF0063"/>
		</linearGradient>
		<path style="fill:url(#SVGID_00000040556209084764446460000016716734752238157986_);" d="M112.8,300.9l-8-4.6
			c-0.1,0.3-0.2,0.6-0.3,0.9l7.9,4.6C112.5,301.5,112.6,301.2,112.8,300.9z"/>
		
			<linearGradient id="SVGID_00000072964179104127225140000017091845959176305027_" gradientUnits="userSpaceOnUse" x1="159.4312" y1="552.6989" x2="146.6432" y2="556.7339" gradientTransform="matrix(1 0 0 -1 0 812)">
			<stop  offset="0.47" style="stop-color:#904BF6"/>
			<stop  offset="0.9079" style="stop-color:#CF0063"/>
		</linearGradient>
		<path style="fill:url(#SVGID_00000072964179104127225140000017091845959176305027_);" d="M148.9,255l7.9,4.6
			c0.3,0.1,0.6,0.1,1,0.2l-7.9-4.6C149.6,255.1,149.3,255.1,148.9,255z"/>
		
			<linearGradient id="SVGID_00000123409715414948724520000006351368680396607885_" gradientUnits="userSpaceOnUse" x1="110.9835" y1="499.0652" x2="98.8625" y2="502.0342" gradientTransform="matrix(1 0 0 -1 0 812)">
			<stop  offset="0.47" style="stop-color:#904BF6"/>
			<stop  offset="0.9079" style="stop-color:#CF0063"/>
		</linearGradient>
		<path style="fill:url(#SVGID_00000123409715414948724520000006351368680396607885_);" d="M109.1,314.3c0.1-0.3,0.1-0.7,0.2-1
			l-7.9-4.6c-0.1,0.3-0.1,0.7-0.2,1L109.1,314.3z"/>
		
			<linearGradient id="SVGID_00000001633769894678599620000010573806741601007762_" gradientUnits="userSpaceOnUse" x1="134.6542" y1="542.9463" x2="121.8052" y2="546.5033" gradientTransform="matrix(1 0 0 -1 0 812)">
			<stop  offset="0.47" style="stop-color:#904BF6"/>
			<stop  offset="0.9079" style="stop-color:#CF0063"/>
		</linearGradient>
		<path style="fill:url(#SVGID_00000001633769894678599620000010573806741601007762_);" d="M124.2,265.5l7.9,4.6
			c0.3-0.3,0.6-0.5,0.8-0.8l-7.9-4.6C124.8,264.9,124.5,265.2,124.2,265.5z"/>
		
			<linearGradient id="SVGID_00000080176090773185296220000016718858940667379336_" gradientUnits="userSpaceOnUse" x1="110.8316" y1="476.1665" x2="98.6719" y2="479.1505" gradientTransform="matrix(1 0 0 -1 0 812)">
			<stop  offset="0.47" style="stop-color:#904BF6"/>
			<stop  offset="0.9079" style="stop-color:#CF0063"/>
		</linearGradient>
		<path style="fill:url(#SVGID_00000080176090773185296220000016718858940667379336_);" d="M109.2,337.2c-0.1-0.3-0.1-0.6-0.2-0.9
			l-0.1-0.1l-7.9-4.6c0.1,0.4,0.1,0.7,0.2,1.1L109.2,337.2z"/>
		
			<linearGradient id="SVGID_00000181052254111998515560000014626779093176723903_" gradientUnits="userSpaceOnUse" x1="151.5789" y1="552.4646" x2="138.6898" y2="556.5236" gradientTransform="matrix(1 0 0 -1 0 812)">
			<stop  offset="0.47" style="stop-color:#904BF6"/>
			<stop  offset="0.9079" style="stop-color:#CF0063"/>
		</linearGradient>
		<path style="fill:url(#SVGID_00000181052254111998515560000014626779093176723903_);" d="M142,255.2c-0.3,0.1-0.7,0.2-1,0.2
			l7.9,4.6c0.3-0.1,0.7-0.2,1-0.2L142,255.2z"/>
		
			<linearGradient id="SVGID_00000000900905300869417410000015754854937214625684_" gradientUnits="userSpaceOnUse" x1="143.1555" y1="549.1512" x2="130.1985" y2="552.9492" gradientTransform="matrix(1 0 0 -1 0 812)">
			<stop  offset="0.47" style="stop-color:#904BF6"/>
			<stop  offset="0.9079" style="stop-color:#CF0063"/>
		</linearGradient>
		<path style="fill:url(#SVGID_00000000900905300869417410000015754854937214625684_);" d="M141.5,263l-7.9-4.6
			c-0.2,0.1-0.3,0.2-0.5,0.3l-0.5,0.3l7.9,4.6l0.5-0.3L141.5,263z"/>
		
			<linearGradient id="SVGID_00000044891443441121635750000017012021852331321998_" gradientUnits="userSpaceOnUse" x1="119.7574" y1="523.4177" x2="107.3334" y2="526.6597" gradientTransform="matrix(1 0 0 -1 0 812)">
			<stop  offset="0.47" style="stop-color:#904BF6"/>
			<stop  offset="0.9079" style="stop-color:#CF0063"/>
		</linearGradient>
		<path style="fill:url(#SVGID_00000044891443441121635750000017012021852331321998_);" d="M109.7,285.2l7.9,4.6l0.5-0.9l-7.9-4.6
			C110,284.6,109.8,284.9,109.7,285.2z"/>
		
			<linearGradient id="SVGID_00000144325090170852399020000014972842674637827467_" gradientUnits="userSpaceOnUse" x1="114.2166" y1="467.2457" x2="101.7186" y2="470.4907" gradientTransform="matrix(1 0 0 -1 0 812)">
			<stop  offset="0.47" style="stop-color:#904BF6"/>
			<stop  offset="0.9079" style="stop-color:#CF0063"/>
		</linearGradient>
		<path style="fill:url(#SVGID_00000144325090170852399020000014972842674637827467_);" d="M112.5,346c-0.2-0.3-0.3-0.6-0.5-0.9
			l-7.9-4.6c0.2,0.3,0.3,0.6,0.5,0.9L112.5,346z"/>
		
			<linearGradient id="SVGID_00000090973269842467165000000007538377502661623985_" gradientUnits="userSpaceOnUse" x1="109.6548" y1="487.1044" x2="97.7725" y2="489.9004" gradientTransform="matrix(1 0 0 -1 0 812)">
			<stop  offset="0.47" style="stop-color:#904BF6"/>
			<stop  offset="0.9079" style="stop-color:#CF0063"/>
		</linearGradient>
		<path style="fill:url(#SVGID_00000090973269842467165000000007538377502661623985_);" d="M100.1,321.8l7.9,4.6v-0.1
			c0-0.3,0-0.7,0-1l-7.9-4.6C100.1,321.1,100.1,321.4,100.1,321.8L100.1,321.8z"/>
		
			<linearGradient id="SVGID_00000006672329741797633970000000112604078239104172_" gradientUnits="userSpaceOnUse" x1="189.5851" y1="499.0472" x2="86.7188" y2="511.0312" gradientTransform="matrix(1 0 0 -1 0 812)">
			<stop  offset="0.47" style="stop-color:#904BF6"/>
			<stop  offset="0.9079" style="stop-color:#CF0063"/>
		</linearGradient>
		<path style="fill:url(#SVGID_00000006672329741797633970000000112604078239104172_);" d="M141,263.3c-18.2,10.5-33,38.7-33,63
			c0,24.3,14.8,35.5,33,24.9c18.2-10.5,33-38.7,33-63S159.2,252.8,141,263.3z M165.9,290.9c-0.8,19.5-12.7,42.6-26.5,51.7
			c-13.8,9.1-24.3,0.6-23.4-18.9c0.8-19.5,12.7-42.6,26.5-51.7C156.3,262.9,166.8,271.4,165.9,290.9z"/>
		<g class="st24">
			<path d="M134.2,279.3c0.3-0.3,0.5-0.6,0.8-0.9l-2.1-9.2c-0.3,0.3-0.6,0.5-0.8,0.8L134.2,279.3z"/>
			<path d="M140.5,263.6v9.8c0.3-0.2,0.6-0.5,1-0.7V263l-0.5,0.3L140.5,263.6z"/>
			<path d="M147.2,269.5c0.4-0.1,0.7-0.3,1.1-0.4l1.7-9.4c-0.3,0.1-0.7,0.1-1,0.2L147.2,269.5z"/>
			<path d="M120.3,303.3l0.4-0.9l-7.9-1.5c-0.1,0.3-0.2,0.6-0.3,0.9L120.3,303.3z"/>
			<path d="M124.1,294.7l0.4-0.9l-6.4-4.9l-0.5,0.9L124.1,294.7z"/>
			<path d="M172.6,276.6l-7,6.6c0.1,0.4,0.1,0.8,0.2,1.2l7.1-6.7C172.8,277.3,172.7,276.9,172.6,276.6z"/>
			<path d="M116.3,320.5l-8.3,4.8c0,0.3,0,0.7,0,1v0.1l8.2-4.7C116.2,321.3,116.2,320.9,116.3,320.5z"/>
			<path d="M117.6,312.5c0.1-0.4,0.2-0.7,0.3-1.1l-8.6,1.9c-0.1,0.3-0.1,0.7-0.2,1L117.6,312.5z"/>
			<path d="M153.8,268.4c0.3,0,0.7,0.1,1,0.1l3.1-8.8c-0.3-0.1-0.6-0.1-1-0.2L153.8,268.4z"/>
			<path d="M163.5,275.7c0.2,0.3,0.3,0.7,0.5,1l5.7-7.7c-0.2-0.3-0.4-0.6-0.6-0.9L163.5,275.7z"/>
			<path d="M159.4,270.5c0.3,0.2,0.5,0.4,0.8,0.6l4.3-8.3c-0.3-0.2-0.5-0.4-0.8-0.6L159.4,270.5z"/>
			<path d="M128.7,286.6l0.6-0.9l-4.4-7.6l-0.6,0.9L128.7,286.6z"/>
			<path d="M147.9,335.1c-0.3,0.3-0.6,0.6-0.8,0.9l2.1,9.2c0.3-0.2,0.6-0.5,0.8-0.8L147.9,335.1z"/>
			<path d="M158.3,319.3c-0.1,0.3-0.3,0.6-0.4,0.9l6.5,4.9l0.5-0.9L158.3,319.3z"/>
			<path d="M153.6,327.6l-0.6,0.9l4.4,7.6c0.2-0.3,0.4-0.6,0.6-0.9L153.6,327.6z"/>
			<path d="M162,310.4c-0.1,0.3-0.2,0.6-0.3,0.9l7.9,1.5c0.1-0.3,0.2-0.6,0.3-0.9L162,310.4z"/>
			<path d="M164.6,301.1c-0.1,0.4-0.1,0.7-0.2,1l8.5-1.9c0.1-0.4,0.1-0.7,0.2-1L164.6,301.1z"/>
			<path d="M174,287.2l-8.1,4.6c0,0.4-0.1,0.8-0.1,1.2l8.2-4.7v-0.1C174,287.9,174,287.6,174,287.2z"/>
			<path d="M141.5,351v-9.8c-0.3,0.2-0.7,0.5-1,0.7v9.7l0.5-0.3C141.2,351.2,141.3,351.1,141.5,351z"/>
			<path d="M118.2,338.3c-0.2-0.3-0.3-0.7-0.4-1.1L112,345c0.2,0.3,0.3,0.6,0.5,0.9L118.2,338.3z"/>
			<path d="M122.2,343.8c-0.3-0.2-0.5-0.4-0.8-0.7l-4.3,8.3c0.3,0.2,0.5,0.4,0.8,0.6L122.2,343.8z"/>
			<path d="M134.6,345.1c-0.4,0.1-0.7,0.3-1.1,0.4l-1.7,9.3c0.3-0.1,0.7-0.1,1-0.2L134.6,345.1z"/>
			<path d="M127.9,346.2c-0.3,0-0.7-0.1-1-0.1l-3,8.7c0.3,0.1,0.6,0.1,1,0.2L127.9,346.2z"/>
			<path d="M116.3,330.6c0-0.4-0.1-0.8-0.1-1.2l-7.2,6.8c0.1,0.4,0.2,0.7,0.2,1.1L116.3,330.6z"/>
		</g>
		<path class="st3" d="M149.9,391.2l-37.7-21.8v-20.6l7.9,4.6l9.9,5.7v6.9l9.9,5.7v6.9l9.9,5.7V391.2z"/>
		<path class="st25" d="M120.1,353.4l41.6-24l9.9,5.7l-41.6,24L120.1,353.4z"/>
		<path class="st2" d="M130.1,359.1v6.9l41.6-24v-6.9L130.1,359.1z"/>
		<path class="st25" d="M130.1,366l41.6-24l9.9,5.7l-41.6,24L130.1,366z"/>
		<path class="st2" d="M140,371.7v6.9l41.6-24v-6.9L140,371.7z"/>
		<path class="st25" d="M140,378.6l41.6-24l9.9,5.7l-41.6,24L140,378.6z"/>
		<path class="st2" d="M149.9,384.3v6.9l41.6-24v-6.9L149.9,384.3z"/>
		
			<linearGradient id="SVGID_00000057124939318204427920000007993682249654645656_" gradientUnits="userSpaceOnUse" x1="172.8138" y1="502.3857" x2="101.0803" y2="509.7616" gradientTransform="matrix(1 0 0 -1 0 812)">
			<stop  offset="0.47" style="stop-color:#904BF6"/>
			<stop  offset="0.9079" style="stop-color:#CF0063"/>
		</linearGradient>
		<path style="fill:url(#SVGID_00000057124939318204427920000007993682249654645656_);" d="M161.8,288.5
			c-0.8,19.5-12.7,42.6-26.5,51.7c-5.1,3.4-9.8,4.3-13.6,3.2c-3.9-3.6-6.1-10.4-5.7-19.7c0.8-19.5,12.7-42.6,26.5-51.7
			c5.1-3.4,9.8-4.3,13.6-3.2C160,272.4,162.2,279.2,161.8,288.5z"/>
		<path class="st27" d="M161.8,288.5c-0.8,19.5-12.7,42.6-26.5,51.7c-5.1,3.4-9.8,4.3-13.6,3.2c-3.9-3.6-6.1-10.4-5.7-19.7
			c0.8-19.5,12.7-42.6,26.5-51.7c5.1-3.4,9.8-4.3,13.6-3.2C160,272.4,162.2,279.2,161.8,288.5z"/>
		
			<linearGradient id="SVGID_00000181787159589768285460000000935505046847949981_" gradientUnits="userSpaceOnUse" x1="172.8094" y1="502.3947" x2="101.0504" y2="509.7777" gradientTransform="matrix(1 0 0 -1 0 812)">
			<stop  offset="0.47" style="stop-color:#904BF6"/>
			<stop  offset="0.9079" style="stop-color:#CF0063"/>
		</linearGradient>
		<path style="opacity:0.1;fill:url(#SVGID_00000181787159589768285460000000935505046847949981_);enable-background:new    ;" d="
			M135.3,330.3c-4.3,0.5-8.3,2.5-11.2,5.7c-1.6,1.7-2.9,3.7-3.8,5.8c0.5,0.6,1,1.2,1.5,1.7c0.8,0.2,1.7,0.4,2.5,0.4
			c0.2-0.6,0.4-1.1,0.6-1.7c1-2.6,2.7-4.9,4.9-6.5c2.3-1.6,4.9-2.6,7.7-2.7c1.9,0,3.8,0.3,5.7,0.4c0.8-0.8,1.5-1.7,2.2-2.6
			C142.1,330.6,138.6,329.9,135.3,330.3z M134.5,301.8c3.9,0.5,8.1,0.7,11.6-1.3c3.9-2.3,5.7-6.7,7.5-10.8c1.7-3.8,4.1-7.7,7.9-9.2
			c-0.8-5.3-2.7-9.2-5.4-11.7c-1.8-0.5-3.8-0.6-5.6-0.2c-1.9,2.2-3.3,4.7-4,7.5c-0.9,3.1-1.2,6.4-2.6,9.3c-1.5,2.9-3.9,5.2-6.9,6.4
			c-2.4,0.9-5,1.2-7.5,1.6c-1.8,0.3-3.5,0.6-5.2,1.1c-1.3,2.6-2.5,5.3-3.5,8.1c0.7-0.4,1.4-0.6,2.1-0.9
			C126.5,300.5,130.6,301.3,134.5,301.8z M138.5,282.3c1.2-2.2,1.7-4.7,2.4-7.1c0.2-0.9,0.6-1.8,0.8-2.6c-0.9,0.6-1.8,1.3-2.6,2
			c-1.3,3.1-2.5,6.1-4.8,8.4c-1.2,1.2-2.6,2.1-4.1,2.6c-0.3,0.1-0.6,0.2-0.9,0.2c-0.6,0.8-1.1,1.7-1.7,2.6c1.3-0.1,2.5-0.3,3.7-0.6
			C134.2,286.9,136.8,285,138.5,282.3L138.5,282.3z M161.8,285.7c-1.1,0.6-2.1,1.3-2.9,2.2c-2.1,2.3-3.2,5.2-4.5,8
			c-1.8,4-4.1,8.1-7.9,10.1c-2.6,1.4-5.6,1.7-8.4,1.8c-5.5,0.2-11-0.6-16.4,0.6c-1.2,0.3-2.3,0.6-3.4,1.1c-0.4,1.3-0.7,2.7-1,4
			c1.2-0.7,2.6-1.2,3.9-1.5c7.9-2,16.7,2.4,24.3-0.6c5.6-2.2,9-7.7,11.7-13c1.1-2.2,2.3-4.5,4.2-5.9c0.1-1.3,0.3-2.6,0.3-3.9
			C161.9,287.5,161.9,286.6,161.8,285.7L161.8,285.7z M142.1,318.1c-4.3,0.2-8.6-0.2-12.8-0.3c-2.2-0.1-4.4,0.1-6.5,0.7
			c-1.9,0.6-3.6,1.5-5.2,2.7c-0.5,0.3-1,0.7-1.4,1.1c0,0.5-0.1,1-0.1,1.5c-0.2,5.6,0.5,10.4,1.9,14c0.9-0.8,1.8-1.8,2.5-2.8
			c2.9-4,5.8-8.4,10.2-10.5c4.8-2.3,10.4-1.5,15.6-2.5c2.3-0.5,4.5-1.3,6.5-2.5c0.8-1.5,1.6-3.1,2.3-4.7c-0.2,0.1-0.5,0.3-0.7,0.4
			C150.7,317.2,146.4,317.9,142.1,318.1L142.1,318.1z"/>
		
			<linearGradient id="SVGID_00000145043220268929906000000016674268637308299689_" gradientUnits="userSpaceOnUse" x1="191.0625" y1="527.6278" x2="183.0945" y2="528.5058" gradientTransform="matrix(1 0 0 -1 0 812)">
			<stop  offset="0.47" style="stop-color:#904BF6"/>
			<stop  offset="0.9079" style="stop-color:#CF0063"/>
		</linearGradient>
		<path style="fill:url(#SVGID_00000145043220268929906000000016674268637308299689_);" d="M187.4,280c0,1.9-0.4,3.6-2.7,4
			c2.4,0.1,2.5,1.7,2.7,3.9c0.1-2.2,0.3-3.8,2.4-3.9C187.6,283.7,187.4,281.9,187.4,280z"/>
		
			<linearGradient id="SVGID_00000177472927104587925480000005477735780784761501_" gradientUnits="userSpaceOnUse" x1="137.0506" y1="426.9003" x2="129.0826" y2="427.7783" gradientTransform="matrix(1 0 0 -1 0 812)">
			<stop  offset="0.47" style="stop-color:#904BF6"/>
			<stop  offset="0.9079" style="stop-color:#CF0063"/>
		</linearGradient>
		<path style="fill:url(#SVGID_00000177472927104587925480000005477735780784761501_);" d="M133.4,380.8c0,1.9-0.4,3.6-2.7,4
			c2.4,0.1,2.5,1.7,2.7,3.9c0.1-2.2,0.3-3.8,2.4-3.9C133.6,384.4,133.4,382.7,133.4,380.8z"/>
		
			<linearGradient id="SVGID_00000138543411728679753710000013224380446039300284_" gradientUnits="userSpaceOnUse" x1="117.5973" y1="487.6394" x2="114.1143" y2="488.0255" gradientTransform="matrix(1 0 0 -1 0 812)">
			<stop  offset="0.47" style="stop-color:#904BF6"/>
			<stop  offset="0.9079" style="stop-color:#CF0063"/>
		</linearGradient>
		<path style="fill:url(#SVGID_00000138543411728679753710000013224380446039300284_);" d="M116,322.5c0,0.8-0.2,1.6-1.2,1.7
			c1,0,1.1,0.7,1.2,1.7c0-1,0.1-1.7,1.1-1.7C116.1,324.1,116,323.3,116,322.5z"/>
		<path class="st32" d="M111.5,325.7c0,1.9-0.4,3.6-2.7,4c2.4,0.1,2.5,1.7,2.7,3.9c0.1-2.2,0.3-3.8,2.4-3.9
			C111.7,329.4,111.5,327.6,111.5,325.7z"/>
		<path class="st32" d="M109.3,316.3c0,1-0.2,1.8-1.4,2c1.2,0,1.3,0.9,1.4,2c0-1.1,0.1-1.9,1.3-2
			C109.4,318.1,109.3,317.2,109.3,316.3z"/>
		<path class="st32" d="M181,274.4c0,1.1,0,2.2-1.6,2.4c1.7,0,1.6,1,1.6,2.4c0-1.3,0.2-2.3,1.5-2.4
			C181.1,276.6,181.2,275.9,181,274.4z"/>
		<path class="st32" d="M194.9,325.9c-0.1,2.1-0.3,3-2.2,3.2c1.9,0.1,2.1,1.4,2.2,3.2c0.1-1.8,0.2-3.1,2-3.2
			C195.1,328.8,195,328,194.9,325.9z"/>
		<path class="st32" d="M125.7,380.8c-0.1,1.2-0.2,1.7-1.3,1.9c1.1,0.1,1.2,0.8,1.3,1.8c0-1,0.1-1.8,1.1-1.8
			C125.9,382.5,125.8,382,125.7,380.8z"/>
		<path class="st32" d="M190.9,278.1c0,0.7,0,1.3-1,1.5c1,0,0.9,0.6,1,1.4c0-0.8,0.1-1.4,0.9-1.4C191,279.5,191,279.1,190.9,278.1z"
			/>
		<path class="st32" d="M193,331.9c0,0.7,0,1.3-1,1.5c1,0,0.9,0.6,1,1.4c0-0.8,0.1-1.4,0.9-1.4C193.1,333.3,193.1,332.9,193,331.9z"
			/>
		<path class="st32" d="M130.9,378.1c0,0.7,0,1.3-1,1.5c1,0,0.9,0.6,1,1.4c0-0.8,0.1-1.4,0.9-1.4C131,379.5,131,379.1,130.9,378.1z"
			/>
		<path class="st3" d="M270.8,363.5l17.5-10.1l26.5,15.3l12.7-7.3L301.1,346l8.6-5l-13.9-8l-8.6,5l-15.3-8.8l-12.7,7.3l15.3,8.9
			l-32.7,18.8l10.2,5.9l82.5,22.1l1.6-0.9c0.8-3.2,1.4-6.4,2-9.7L270.8,363.5z"/>
		
			<linearGradient id="SVGID_00000100345181246576674130000009320640642419674502_" gradientUnits="userSpaceOnUse" x1="295.1173" y1="522.3141" x2="198.2853" y2="531.8121" gradientTransform="matrix(1 0 0 -1 0 812)">
			<stop  offset="0.47" style="stop-color:#904BF6"/>
			<stop  offset="0.9079" style="stop-color:#CF0063"/>
		</linearGradient>
		<path style="fill:url(#SVGID_00000100345181246576674130000009320640642419674502_);" d="M272.5,285.9l-0.7,0.4v-21.4l-7.9-4.6
			l-9.8,5.7l8.1-30.4l-7.9-4.6l-13.6,7.9l-22.1,82.5v11.8l7.9,4.6l24.8-14.3v8.5l7.9,4.6l12.7-7.3v-17.7l8.6-5v-16.1L272.5,285.9z
			 M251.2,298.2l-6.7,3.9l6.7-25.3V298.2z"/>
		<path class="st34" d="M272.5,285.9l-0.7,0.4v-21.4l-7.9-4.6l-9.8,5.7l8.1-30.4l-7.9-4.6l-13.6,7.9l-22.1,82.5v11.8l7.9,4.6
			l24.8-14.3v8.5l7.9,4.6l12.7-7.3v-17.7l8.6-5v-16.1L272.5,285.9z M251.2,298.2l-6.7,3.9l6.7-25.3V298.2z"/>
		
			<linearGradient id="SVGID_00000097473017570796544960000016351520052316938117_" gradientUnits="userSpaceOnUse" x1="293.3199" y1="521.0258" x2="208.7379" y2="528.5878" gradientTransform="matrix(1 0 0 -1 0 812)">
			<stop  offset="0.47" style="stop-color:#904BF6"/>
			<stop  offset="0.9079" style="stop-color:#CF0063"/>
		</linearGradient>
		<path style="fill:url(#SVGID_00000097473017570796544960000016351520052316938117_);" d="M271.8,295.4v-30.5l-12.7,7.3v30.5
			l-17.5,10.1l20.6-77.3l-13.7,7.9l-22.1,82.5v11.8l32.7-18.9v17.7l12.7-7.3v-17.7l8.6-5v-16.1L271.8,295.4z"/>
		<path class="st9" d="M271.8,295.4v-30.5l-12.7,7.3v30.5l-17.5,10.1l20.6-77.3l-13.7,7.9l-22.1,82.5v11.8l32.7-18.9v17.7l12.7-7.3
			v-17.7l8.6-5v-16.1L271.8,295.4z"/>
		
			<linearGradient id="SVGID_00000117658539023967381650000000296512526620420760_" gradientUnits="userSpaceOnUse" x1="266.2173" y1="570.4887" x2="234.8143" y2="579.6967" gradientTransform="matrix(1 0 0 -1 0 812)">
			<stop  offset="0.47" style="stop-color:#904BF6"/>
			<stop  offset="0.9079" style="stop-color:#CF0063"/>
		</linearGradient>
		<path style="fill:url(#SVGID_00000117658539023967381650000000296512526620420760_);" d="M262.2,235.5l-7.9-4.6l-13.6,7.9l7.9,4.6
			L262.2,235.5z"/>
		<path class="st37" d="M262.2,235.5l-7.9-4.6l-13.6,7.9l7.9,4.6L262.2,235.5z"/>
		
			<linearGradient id="SVGID_00000063626298516468336960000013482797240196862645_" gradientUnits="userSpaceOnUse" x1="275.4233" y1="542.0981" x2="248.0603" y2="549.3002" gradientTransform="matrix(1 0 0 -1 0 812)">
			<stop  offset="0.47" style="stop-color:#904BF6"/>
			<stop  offset="0.9079" style="stop-color:#CF0063"/>
		</linearGradient>
		<path style="fill:url(#SVGID_00000063626298516468336960000013482797240196862645_);" d="M263.9,260.3l7.9,4.6l-12.7,7.3l-5.8-3.4
			l0.8-2.9L263.9,260.3z"/>
		<path class="st37" d="M263.9,260.3l7.9,4.6l-12.7,7.3l-5.8-3.4l0.8-2.9L263.9,260.3z"/>
		
			<linearGradient id="SVGID_00000070825350470330202870000008369672131272340624_" gradientUnits="userSpaceOnUse" x1="262.7827" y1="503.1839" x2="236.1667" y2="508.5579" gradientTransform="matrix(1 0 0 -1 0 812)">
			<stop  offset="0.47" style="stop-color:#904BF6"/>
			<stop  offset="0.9079" style="stop-color:#CF0063"/>
		</linearGradient>
		<path style="fill:url(#SVGID_00000070825350470330202870000008369672131272340624_);" d="M259.1,302.7l-7.9-4.6l-6.7,3.9
			l-2.9,10.8L259.1,302.7z"/>
		<path class="st37" d="M259.1,302.7l-7.9-4.6l-6.7,3.9l-2.9,10.8L259.1,302.7z"/>
		
			<linearGradient id="SVGID_00000090296868380039839810000006186894824729716380_" gradientUnits="userSpaceOnUse" x1="282.2971" y1="519.8177" x2="269.0281" y2="521.8408" gradientTransform="matrix(1 0 0 -1 0 812)">
			<stop  offset="0.47" style="stop-color:#904BF6"/>
			<stop  offset="0.9079" style="stop-color:#CF0063"/>
		</linearGradient>
		<path style="fill:url(#SVGID_00000090296868380039839810000006186894824729716380_);" d="M280.4,290.4l-7.9-4.6l-0.7,0.4v9.2
			L280.4,290.4z"/>
		<path class="st37" d="M271.8,295.4l8.6-5l-7.9-4.6l-0.7,0.4V295.4z"/>
		
			<linearGradient id="SVGID_00000160160780941457452730000015676175395117797778_" gradientUnits="userSpaceOnUse" x1="255.8381" y1="528.3572" x2="208.6081" y2="531.1113" gradientTransform="matrix(1 0 0 -1 0 812)">
			<stop  offset="0.47" style="stop-color:#904BF6"/>
			<stop  offset="0.9079" style="stop-color:#CF0063"/>
		</linearGradient>
		<path style="fill:url(#SVGID_00000160160780941457452730000015676175395117797778_);" d="M226.5,325.9l-7.9-4.6l22.1-82.5l7.9,4.6
			L226.5,325.9z"/>
		<path class="st11" d="M226.5,325.9l-7.9-4.6l22.1-82.5l7.9,4.6L226.5,325.9z"/>
		<path class="st3" d="M128.1,434.5l-13.9-8l-8.6,5l-15.3-8.8l-12.7,7.3l15.3,8.8l-32.7,18.9l10.2,5.9l82.5,22.1l13.6-7.9
			l-77.3-20.9l17.5-10.1l26.4,15.3l12.7-7.3l-26.5-15.3L128.1,434.5z"/>
		
			<linearGradient id="SVGID_00000124154176560021541270000014349475909168860827_" gradientUnits="userSpaceOnUse" x1="113.6286" y1="428.9182" x2="16.7381" y2="438.4312" gradientTransform="matrix(1 0 0 -1 0 812)">
			<stop  offset="0.47" style="stop-color:#904BF6"/>
			<stop  offset="0.9079" style="stop-color:#CF0063"/>
		</linearGradient>
		<path style="fill:url(#SVGID_00000124154176560021541270000014349475909168860827_);" d="M91,379.3l-0.7,0.4v-21.4l-7.9-4.6
			l-9.8,5.7l8.1-30.4l-7.9-4.6l-13.7,7.9L37,414.7v11.8l8,4.6l24.7-14.3v8.5l7.9,4.6l12.7-7.3v-17.7l8.6-5v-16.1L91,379.3z
			 M69.7,391.5l-6.7,3.9l6.7-25.3V391.5z"/>
		<path class="st34" d="M91,379.3l-0.7,0.4v-21.4l-7.9-4.6l-9.8,5.7l8.1-30.4l-7.9-4.6l-13.7,7.9L37,414.7v11.8l8,4.6l24.7-14.3v8.5
			l7.9,4.6l12.7-7.3v-17.7l8.6-5v-16.1L91,379.3z M69.7,391.5l-6.7,3.9l6.7-25.3V391.5z"/>
		
			<linearGradient id="SVGID_00000181805338482234167770000001130546298103842222_" gradientUnits="userSpaceOnUse" x1="111.7843" y1="427.6339" x2="27.2021" y2="435.196" gradientTransform="matrix(1 0 0 -1 0 812)">
			<stop  offset="0.47" style="stop-color:#904BF6"/>
			<stop  offset="0.9079" style="stop-color:#CF0063"/>
		</linearGradient>
		<path style="fill:url(#SVGID_00000181805338482234167770000001130546298103842222_);" d="M90.3,388.8v-30.5l-12.7,7.3v30.5
			l-17.5,10.1l20.6-77.3L67,336.8l-22.1,82.5v11.8l32.7-18.9v17.7l12.7-7.3v-17.7l8.6-5v-16.1L90.3,388.8z"/>
		<path class="st9" d="M90.3,388.8v-30.5l-12.7,7.3v30.5l-17.5,10.1l20.6-77.3L67,336.8l-22.1,82.5v11.8l32.7-18.9v17.7l12.7-7.3
			v-17.7l8.6-5v-16.1L90.3,388.8z"/>
		
			<linearGradient id="SVGID_00000013894852687693279780000000111839911584645528_" gradientUnits="userSpaceOnUse" x1="84.6876" y1="477.0969" x2="53.2775" y2="486.3099" gradientTransform="matrix(1 0 0 -1 0 812)">
			<stop  offset="0.47" style="stop-color:#904BF6"/>
			<stop  offset="0.9079" style="stop-color:#CF0063"/>
		</linearGradient>
		<path style="fill:url(#SVGID_00000013894852687693279780000000111839911584645528_);" d="M80.6,328.9l-7.9-4.6l-13.7,7.9l7.9,4.6
			L80.6,328.9z"/>
		<path class="st37" d="M80.6,328.9l-7.9-4.6l-13.7,7.9l7.9,4.6L80.6,328.9z"/>
		
			<linearGradient id="SVGID_00000071551920188476759840000018418890145987914663_" gradientUnits="userSpaceOnUse" x1="93.8926" y1="448.7066" x2="66.5232" y2="455.9116" gradientTransform="matrix(1 0 0 -1 0 812)">
			<stop  offset="0.47" style="stop-color:#904BF6"/>
			<stop  offset="0.9079" style="stop-color:#CF0063"/>
		</linearGradient>
		<path style="fill:url(#SVGID_00000071551920188476759840000018418890145987914663_);" d="M82.4,353.7l7.9,4.6l-12.7,7.3l-5.8-3.4
			l0.8-2.9L82.4,353.7z"/>
		<path class="st37" d="M82.4,353.7l7.9,4.6l-12.7,7.3l-5.8-3.4l0.8-2.9L82.4,353.7z"/>
		
			<linearGradient id="SVGID_00000059298804688503940030000014844322716019702428_" gradientUnits="userSpaceOnUse" x1="81.2468" y1="409.7943" x2="54.6308" y2="415.1693" gradientTransform="matrix(1 0 0 -1 0 812)">
			<stop  offset="0.47" style="stop-color:#904BF6"/>
			<stop  offset="0.9079" style="stop-color:#CF0063"/>
		</linearGradient>
		<path style="fill:url(#SVGID_00000059298804688503940030000014844322716019702428_);" d="M77.6,396.1l-7.9-4.6l-6.7,3.9l-2.9,10.8
			L77.6,396.1z"/>
		<path class="st37" d="M77.6,396.1l-7.9-4.6l-6.7,3.9l-2.9,10.8L77.6,396.1z"/>
		
			<linearGradient id="SVGID_00000112616567145537598540000001635623338848168322_" gradientUnits="userSpaceOnUse" x1="100.7604" y1="426.428" x2="87.4988" y2="428.447" gradientTransform="matrix(1 0 0 -1 0 812)">
			<stop  offset="0.47" style="stop-color:#904BF6"/>
			<stop  offset="0.9079" style="stop-color:#CF0063"/>
		</linearGradient>
		<path style="fill:url(#SVGID_00000112616567145537598540000001635623338848168322_);" d="M98.9,383.8l-7.9-4.6l-0.7,0.4v9.2
			L98.9,383.8z"/>
		<path class="st37" d="M90.3,388.8l8.6-5l-7.9-4.6l-0.7,0.4V388.8z"/>
		
			<linearGradient id="SVGID_00000152971473630368430910000015105776782775446951_" gradientUnits="userSpaceOnUse" x1="74.3093" y1="434.9671" x2="27.0701" y2="437.7221" gradientTransform="matrix(1 0 0 -1 0 812)">
			<stop  offset="0.47" style="stop-color:#904BF6"/>
			<stop  offset="0.9079" style="stop-color:#CF0063"/>
		</linearGradient>
		<path style="fill:url(#SVGID_00000152971473630368430910000015105776782775446951_);" d="M44.9,419.3l-7.9-4.6l22.1-82.5l7.9,4.6
			L44.9,419.3z"/>
		<path class="st11" d="M44.9,419.3l-7.9-4.6l22.1-82.5l7.9,4.6L44.9,419.3z"/>
	</g>
</g>
</svg>
