<svg width="1506" height="900" viewBox="0 0 1506 900" fill="none" xmlns="http://www.w3.org/2000/svg">
<g clip-path="url(#clip0_14311_9376)">
<rect width="1506" height="900" fill="#FFFFFE"/>
<rect width="2066.08" height="768.775" transform="translate(-185.295 846.598) rotate(-15)" fill="#2F2F2F"/>
<rect width="2205.84" height="899.114" transform="translate(-459 40.7419) rotate(-15)" fill="#1C1C1C"/>
<path opacity="0.2" d="M1176.61 578.692V557.736L1146.34 540.262V519.306L1116.08 501.814V480.875L1085.84 463.4L955.073 534.725L989.038 554.238V575.194L1019.3 592.652V613.625L1049.56 631.082V652.055L1182.12 843.631C1313.4 821.469 1413.61 754.627 1455.89 668.239C1460.78 658.254 1465.14 648.195 1468.95 638.062L1176.61 578.692Z" fill="url(#paint0_linear_14311_9376)"/>
<path opacity="0.15" d="M990.21 170.153C901.733 221.099 830 357.636 830 475.186C830 545.034 855.337 592.465 894.532 608.768L910.716 599.427L1069.84 507.571L1086.43 497.993C1125.34 436.772 1150.49 360.438 1150.49 290.811C1150.42 173.294 1078.7 119.257 990.21 170.153Z" fill="url(#paint1_linear_14311_9376)"/>
<path opacity="0.15" d="M990.21 204.151C915.862 246.946 855.592 361.677 855.592 460.462C855.592 559.248 915.862 604.658 990.21 561.897C1064.56 519.136 1124.84 404.353 1124.84 305.568C1124.84 206.783 1064.57 161.373 990.21 204.151Z" fill="url(#paint2_linear_14311_9376)"/>
<path opacity="0.15" d="M990.21 228.113C926.051 265.168 874.035 364.547 874.035 450.086C874.035 535.625 926.051 574.973 990.21 537.935C1054.37 500.897 1106.38 401.5 1106.38 315.944C1106.38 230.388 1054.39 191.041 990.21 228.113Z" fill="url(#paint3_linear_14311_9376)"/>
<path d="M921.704 454.145C921.704 380.035 966.774 293.936 1022.36 261.822C1046.86 247.693 1069.3 246.386 1086.74 255.692L1064.13 242.615C1046.47 232.426 1023.38 233.275 998.174 247.846C942.558 279.959 897.504 366.059 897.504 440.169C897.504 480.739 911.005 509.303 932.351 521.598C936.003 523.687 949.571 531.55 955.107 534.742C934.542 521.989 921.704 493.798 921.704 454.145Z" fill="url(#paint4_linear_14311_9376)"/>
<path opacity="0.3" d="M921.704 454.145C921.704 380.035 966.774 293.936 1022.36 261.822C1046.86 247.693 1069.3 246.386 1086.74 255.692L1064.13 242.615C1046.47 232.426 1023.38 233.275 998.174 247.846C942.558 279.959 897.504 366.059 897.504 440.169C897.504 480.739 911.005 509.303 932.351 521.598C936.003 523.687 949.571 531.55 955.107 534.742C934.542 521.989 921.704 493.798 921.704 454.145Z" fill="white"/>
<path d="M1061.91 277.361C1070.69 289.079 1075.39 307.725 1074.34 331.976C1071.81 391.413 1035.65 462.127 993.606 489.791C980.835 498.197 968.965 501.678 958.742 500.744C971.512 517.726 992.91 520.155 1017.81 503.767C1059.87 476.103 1096.03 405.44 1098.56 345.935C1100.29 304.532 1085.31 279.45 1061.91 277.361Z" fill="url(#paint5_linear_14311_9376)"/>
<path opacity="0.15" d="M1061.91 277.361C1070.69 289.079 1075.39 307.725 1074.34 331.976C1071.81 391.413 1035.65 462.127 993.606 489.791C980.835 498.197 968.965 501.678 958.742 500.744C971.512 517.726 992.91 520.155 1017.81 503.767C1059.87 476.103 1096.03 405.44 1098.56 345.935C1100.29 304.532 1085.31 279.45 1061.91 277.361Z" fill="black"/>
<path d="M947.347 295.566L971.546 309.542L973.482 306.944L949.283 292.934C948.62 293.834 947.992 294.632 947.347 295.566Z" fill="url(#paint6_linear_14311_9376)"/>
<path d="M936.24 376.503L911.956 362.56C911.616 363.494 911.293 364.462 910.971 365.413L935.17 379.39C935.51 378.405 935.816 377.437 936.24 376.503Z" fill="url(#paint7_linear_14311_9376)"/>
<path d="M1046.62 236.451L1070.84 250.478C1071.83 250.648 1072.81 250.818 1073.78 251.022L1049.56 237.045C1048.59 236.791 1047.61 236.604 1046.62 236.451Z" fill="url(#paint8_linear_14311_9376)"/>
<path d="M925.117 417.549C925.304 416.496 925.507 415.426 925.711 414.373L901.512 400.397C901.291 401.45 901.087 402.502 900.9 403.572L925.117 417.549Z" fill="url(#paint9_linear_14311_9376)"/>
<path d="M971.139 268.394L995.338 282.371C996.17 281.573 997.036 280.774 997.852 280.01L973.601 266.034C972.803 266.798 971.903 267.596 971.139 268.394Z" fill="url(#paint10_linear_14311_9376)"/>
<path d="M925.236 487.413C925.015 486.479 924.811 485.528 924.607 484.577L924.421 484.153L900.34 470.244C900.561 471.331 900.781 472.401 901.036 473.454L925.236 487.413Z" fill="url(#paint11_linear_14311_9376)"/>
<path d="M1025.52 237.079C1024.5 237.283 1023.44 237.555 1022.41 237.81L1046.62 251.786C1047.68 251.514 1048.73 251.276 1049.77 251.073L1025.52 237.079Z" fill="url(#paint12_linear_14311_9376)"/>
<path d="M1023.87 261.007L999.669 247.082C999.159 247.37 998.667 247.608 998.174 247.897L996.697 248.797L1020.9 262.773L1022.36 261.873L1023.87 261.007Z" fill="url(#paint13_linear_14311_9376)"/>
<path d="M926.832 328.596L951.032 342.572L952.458 339.923L928.259 325.947C927.749 326.796 927.291 327.679 926.832 328.596Z" fill="url(#paint14_linear_14311_9376)"/>
<path d="M935.51 514.075C934.967 513.141 934.457 512.207 933.931 511.239L909.748 497.28C910.257 498.248 910.801 499.182 911.344 500.116L935.51 514.075Z" fill="url(#paint15_linear_14311_9376)"/>
<path d="M897.504 440.441L921.704 454.434V454.145C921.704 453.109 921.704 452.039 921.704 450.986L897.487 437.01C897.487 438.063 897.487 439.133 897.487 440.169L897.504 440.441Z" fill="url(#paint16_linear_14311_9376)"/>
<path d="M1022.36 261.822C966.774 293.935 921.703 380.035 921.703 454.145C921.703 528.255 966.774 562.338 1022.36 530.242C1077.94 498.146 1123.04 412.046 1123.04 337.919C1123.04 263.792 1077.96 229.726 1022.36 261.822ZM1098.5 345.935C1095.97 405.372 1059.82 476.086 1017.75 503.75C975.69 531.414 943.678 505.618 946.209 446.13C948.739 386.641 984.928 315.978 1026.96 288.314C1068.99 260.65 1101.05 286.446 1098.5 345.935Z" fill="url(#paint17_linear_14311_9376)"/>
<g opacity="0.15">
<path d="M1001.76 310.68C1002.57 309.78 1003.37 308.863 1004.2 307.98L997.834 280.01C996.985 280.774 996.136 281.556 995.321 282.354L1001.76 310.68Z" fill="black"/>
<path d="M1020.88 262.705V292.696C1021.86 291.932 1022.85 291.185 1023.85 290.471V260.99L1022.36 261.822L1020.88 262.705Z" fill="black"/>
<path d="M1041.34 280.774C1042.43 280.35 1043.52 279.959 1044.59 279.62L1049.68 251.056C1048.65 251.26 1047.59 251.497 1046.54 251.752L1041.34 280.774Z" fill="black"/>
<path d="M959.285 383.975L960.355 381.156L936.24 376.486C935.901 377.437 935.561 378.388 935.238 379.339L959.285 383.975Z" fill="black"/>
<path d="M970.714 357.466L972.072 354.749L952.441 339.906L951.032 342.572L970.714 357.466Z" fill="black"/>
<path d="M1118.92 302.325L1097.57 322.347C1097.74 323.536 1097.89 324.741 1098.03 325.998L1119.78 305.619C1119.46 304.533 1119.21 303.412 1118.92 302.325Z" fill="black"/>
<path d="M946.939 436.433L921.737 450.969C921.737 452.039 921.737 453.092 921.737 454.145V454.434L946.633 440.067C946.684 438.861 946.82 437.639 946.939 436.433Z" fill="black"/>
<path d="M951.015 411.809C951.269 410.739 951.541 409.669 951.796 408.582L925.694 414.339C925.491 415.392 925.287 416.462 925.1 417.515L951.015 411.809Z" fill="black"/>
<path d="M1061.4 277.344C1062.43 277.429 1063.44 277.548 1064.42 277.718L1073.8 250.937C1072.81 250.733 1071.83 250.546 1070.82 250.376L1061.4 277.344Z" fill="black"/>
<path d="M1091.02 299.625C1091.49 300.627 1091.95 301.679 1092.39 302.749L1109.88 279.195C1109.36 278.244 1108.8 277.327 1108.18 276.427L1091.02 299.625Z" fill="black"/>
<path d="M1078.65 283.848C1079.45 284.46 1080.23 285.105 1081 285.801L1094.17 260.566C1093.38 259.937 1092.58 259.343 1091.75 258.766L1078.65 283.848Z" fill="black"/>
<path d="M984.928 332.74L986.762 329.972L973.465 306.927L971.529 309.542L984.928 332.74Z" fill="black"/>
<path d="M1043.48 480.807C1042.68 481.741 1041.78 482.641 1041.05 483.524L1047.42 511.579C1048.27 510.815 1049.12 509.982 1049.94 509.184L1043.48 480.807Z" fill="black"/>
<path d="M1075.05 432.561C1074.61 433.478 1074.15 434.378 1073.69 435.278L1093.38 450.154L1094.75 447.454L1075.05 432.561Z" fill="black"/>
<path d="M1060.69 458L1058.85 460.785L1072.18 483.881C1072.83 483.015 1073.49 482.183 1074.12 481.283L1060.69 458Z" fill="black"/>
<path d="M1086.4 405.406C1086.06 406.357 1085.73 407.308 1085.38 408.242L1109.49 412.896C1109.83 411.945 1110.15 410.994 1110.48 410.043L1086.4 405.406Z" fill="black"/>
<path d="M1094.36 377.233C1094.14 378.303 1093.92 379.373 1093.66 380.426L1119.65 374.737C1119.83 373.667 1120 372.614 1120.19 371.561L1094.36 377.233Z" fill="black"/>
<path d="M1123.04 334.795L1098.32 348.975C1098.32 350.163 1098.16 351.352 1098.08 352.558L1123.04 338.208V337.919C1123.04 336.866 1123.04 335.831 1123.04 334.795Z" fill="black"/>
<path d="M1023.85 529.342V499.386C1022.87 500.15 1021.86 500.897 1020.88 501.61V531.091L1022.36 530.242C1022.85 529.953 1023.36 529.631 1023.85 529.342Z" fill="black"/>
<path d="M952.9 490.674C952.441 489.638 952 488.568 951.575 487.447L933.931 511.222C934.44 512.19 934.984 513.141 935.527 514.058L952.9 490.674Z" fill="black"/>
<path d="M965.008 507.401C964.227 506.756 963.463 506.077 962.715 505.346L949.469 530.684C950.25 531.329 951.049 531.94 951.864 532.535L965.008 507.401Z" fill="black"/>
<path d="M1002.81 511.545C1001.72 511.952 1000.65 512.309 999.584 512.649L994.489 541.128C995.542 540.924 996.595 540.703 997.648 540.449L1002.81 511.545Z" fill="black"/>
<path d="M982.347 514.653C981.328 514.551 980.343 514.398 979.358 514.211L970.086 540.873C971.071 541.111 972.056 541.298 973.04 541.467L982.347 514.653Z" fill="black"/>
<path d="M946.888 467.187C946.752 465.965 946.633 464.708 946.531 463.434L924.454 484.034C924.692 485.172 924.93 486.292 925.185 487.43L946.888 467.187Z" fill="black"/>
</g>
<path d="M1049.53 652.072L934.491 585.655V522.77L958.708 536.746L989.004 554.255V575.211L1019.27 592.668V613.641L1049.53 631.099V652.072Z" fill="#1C1C1C"/>
<path d="M958.742 536.78L1085.84 463.4L1116.08 480.875L989.004 554.255L958.742 536.78Z" fill="#474747"/>
<path d="M989.004 554.255V575.211L1116.08 501.831V480.875L989.004 554.255Z" fill="#2F2F2F"/>
<path d="M989.004 575.211L1116.08 501.831L1146.34 519.306L1019.27 592.668L989.004 575.211Z" fill="#474747"/>
<path d="M1019.27 592.669V613.641L1146.34 540.262V519.306L1019.27 592.669Z" fill="#2F2F2F"/>
<path d="M1019.27 613.641L1146.34 540.262L1176.61 557.736L1049.53 631.099L1019.27 613.641Z" fill="#474747"/>
<path d="M1049.53 631.099V652.072L1176.61 578.692V557.736L1049.53 631.099Z" fill="#2F2F2F"/>
<path d="M1085.92 338.785C1083.39 398.223 1047.22 468.937 1005.17 496.617C989.547 506.892 975.316 509.796 963.7 506.314C951.813 495.463 945.02 474.676 946.209 446.163C948.756 386.726 984.928 316.012 1026.96 288.348C1042.6 278.057 1056.86 275.17 1068.46 278.669C1080.42 289.537 1087.14 310.255 1085.92 338.785Z" fill="url(#paint18_linear_14311_9376)"/>
<path opacity="0.9" d="M1085.92 338.785C1083.39 398.223 1047.22 468.937 1005.17 496.617C989.547 506.892 975.316 509.796 963.7 506.314C951.813 495.463 945.02 474.676 946.209 446.163C948.756 386.726 984.928 316.012 1026.96 288.348C1042.6 278.057 1056.86 275.17 1068.46 278.669C1080.42 289.537 1087.14 310.255 1085.92 338.785Z" fill="white"/>
<path opacity="0.1" d="M1004.98 466.151C991.857 467.671 979.71 473.847 970.748 483.558C965.906 488.755 961.958 494.717 959.064 501.203C960.462 503.03 962.013 504.734 963.7 506.297C966.201 507.028 968.776 507.472 971.376 507.622C972.056 505.924 972.565 504.141 973.159 502.425C976.096 494.439 981.33 487.499 988.201 482.48C995.073 477.461 1003.28 474.586 1011.78 474.218C1017.6 474.065 1023.38 475.118 1029.17 475.577C1031.46 473.046 1033.7 470.482 1035.96 467.697C1025.7 467.17 1015.12 465.133 1004.98 466.151ZM1002.47 379.186C1014.36 380.731 1027.33 381.394 1037.73 375.314C1049.49 368.419 1055.08 354.749 1060.75 342.369C1066.03 330.872 1073.25 318.729 1084.78 314.28C1082.39 298.198 1076.65 286.09 1068.45 278.618C1062.85 277.008 1056.95 276.757 1051.24 277.887C1045.49 284.475 1041.3 292.277 1038.98 300.711C1036.27 310.221 1035.31 320.326 1030.95 329.173C1026.5 338.069 1018.96 345.033 1009.74 348.754C1002.47 351.641 994.574 352.337 986.847 353.526C981.457 354.322 976.129 355.491 970.901 357.024C966.867 365.036 963.273 373.262 960.134 381.665C962.219 380.599 964.389 379.707 966.621 378.999C978.152 375.45 990.583 377.657 1002.47 379.186ZM1014.63 319.748C1018.43 313.176 1019.72 305.517 1021.81 298.198C1022.56 295.464 1023.51 292.798 1024.39 290.132C1021.68 292.045 1018.98 294.128 1016.31 296.381C1012.47 305.704 1008.74 315.061 1001.66 322.092C998.046 325.628 993.736 328.37 989.004 330.141C988.11 330.441 987.188 330.651 986.253 330.77C984.52 333.317 982.822 335.921 981.158 338.582C984.989 338.274 988.786 337.626 992.502 336.646C1001.7 333.885 1009.58 327.858 1014.65 319.697L1014.63 319.748ZM1085.95 330.057C1082.63 331.778 1079.63 334.045 1077.06 336.764C1070.74 343.693 1067.34 352.677 1063.47 361.236C1058.07 373.429 1051.02 385.843 1039.29 392.16C1031.48 396.355 1022.31 397.408 1013.53 397.646C996.799 398.104 979.816 395.947 963.463 399.531C959.938 400.3 956.492 401.398 953.171 402.808C952.039 406.872 951.049 410.92 950.2 414.95C954.008 412.935 958.037 411.367 962.206 410.28C986.372 404.167 1013.15 417.583 1036.3 408.582C1053.28 401.942 1063.62 385.079 1071.96 368.878C1075.36 362.272 1079.01 355.292 1084.87 350.911C1085.32 346.869 1085.64 342.861 1085.82 338.887C1086.04 335.746 1086.07 332.842 1086.02 330.006L1085.95 330.057ZM1025.67 429.045C1012.59 429.521 999.533 428.298 986.456 428.111C979.756 427.747 973.041 428.435 966.553 430.149C960.875 432.07 955.533 434.872 950.726 438.454C949.249 439.506 947.822 440.593 946.413 441.697C946.311 443.209 946.209 444.703 946.141 446.18C945.411 463.417 947.601 477.801 952.068 488.908C954.954 486.402 957.521 483.55 959.71 480.416C968.693 468.274 977.354 454.841 990.974 448.337C1005.6 441.358 1022.83 443.854 1038.73 440.661C1045.68 439.241 1052.36 436.712 1058.51 433.172C1061.03 428.462 1063.4 423.662 1065.63 418.771C1064.95 419.179 1064.25 419.569 1063.56 419.96C1052.06 426.26 1038.8 428.519 1025.74 428.995L1025.67 429.045Z" fill="url(#paint19_linear_14311_9376)"/>
<path d="M1164.03 312.895C1164.03 318.669 1162.95 323.798 1155.88 325.037C1163.12 325.343 1163.62 330.132 1164.03 336.823C1164.27 330.183 1164.9 325.343 1171.45 325.037C1164.69 323.916 1164.03 318.669 1164.03 312.895Z" fill="url(#paint20_linear_14311_9376)"/>
<path d="M999.204 620.289C999.204 626.063 998.117 631.191 991.052 632.431C998.287 632.737 998.796 637.526 999.204 644.217C999.441 637.56 1000.07 632.737 1006.62 632.431C999.832 631.293 999.204 626.063 999.204 620.289Z" fill="url(#paint21_linear_14311_9376)"/>
<path d="M946.1 442.384C946.1 444.914 945.625 447.139 942.534 447.682C945.693 447.818 945.931 449.941 946.1 452.777C946.202 449.873 946.474 447.682 949.344 447.682C946.372 447.19 946.1 444.914 946.1 442.384Z" fill="url(#paint22_linear_14311_9376)"/>
<path d="M932.209 452.318C932.209 458.075 931.105 463.204 924.058 464.444C931.292 464.749 931.802 469.538 932.209 476.246C932.43 469.589 933.058 464.766 939.63 464.444C932.838 463.408 932.209 458.075 932.209 452.318Z" fill="#E0E0E0"/>
<path d="M925.586 423.381C925.586 426.353 925.026 428.968 921.409 429.613C925.111 429.766 925.382 432.246 925.586 435.659C925.705 432.263 926.028 429.766 929.407 429.613C925.909 429.036 925.586 426.353 925.586 423.381Z" fill="#E0E0E0"/>
<path d="M1144.42 295.539C1144.42 298.936 1144.33 302.162 1139.46 302.926C1144.55 302.926 1144.21 306.102 1144.47 310.178C1144.6 306.102 1144.96 303.181 1148.99 302.994C1144.83 302.298 1144.94 300.379 1144.42 295.539Z" fill="#E0E0E0"/>
<path d="M1186.77 452.709C1186.41 459.077 1185.91 461.828 1180.15 462.593C1186.01 462.915 1186.5 466.804 1186.84 472.222C1187.03 466.804 1187.5 462.864 1192.85 462.593C1187.35 461.71 1187.21 459.162 1186.77 452.709Z" fill="#E0E0E0"/>
<path d="M975.802 620.34C975.599 624.059 975.31 625.655 971.947 626.114C975.344 626.301 975.65 628.542 975.853 631.701C975.955 628.542 976.227 626.25 979.352 626.114C976.193 625.57 976.057 624.11 975.802 620.34Z" fill="#E0E0E0"/>
<path d="M1174.75 306.985C1174.75 309.04 1174.75 311.01 1171.74 311.469C1174.87 311.469 1174.63 313.388 1174.78 315.85C1174.87 313.388 1175.07 311.621 1177.5 311.503C1174.99 311.078 1175.05 309.923 1174.75 306.985Z" fill="#E0E0E0"/>
<path d="M1181.15 471.22C1181.15 473.257 1181.15 475.227 1178.14 475.686C1181.25 475.686 1181.01 477.622 1181.17 480.084C1181.25 477.622 1181.47 475.839 1183.9 475.737C1181.39 475.295 1181.46 474.141 1181.15 471.22Z" fill="#E0E0E0"/>
<path d="M991.477 612.239C991.477 614.277 991.477 616.247 988.471 616.706C991.596 616.706 991.358 618.625 991.511 621.087C991.596 618.625 991.816 616.858 994.245 616.74C991.766 616.332 991.833 615.16 991.477 612.239Z" fill="#E0E0E0"/>
</g>
<defs>
<linearGradient id="paint0_linear_14311_9376" x1="1529.26" y1="943.441" x2="757.563" y2="766.879" gradientUnits="userSpaceOnUse">
<stop offset="0.46997" stop-color="#904BF6"/>
<stop offset="0.90795" stop-color="#CF0063"/>
</linearGradient>
<linearGradient id="paint1_linear_14311_9376" x1="1188.1" y1="728.932" x2="688.642" y2="669.735" gradientUnits="userSpaceOnUse">
<stop offset="0.46997" stop-color="#904BF6"/>
<stop offset="0.90795" stop-color="#CF0063"/>
</linearGradient>
<linearGradient id="paint2_linear_14311_9376" x1="1156.44" y1="680.344" x2="736.674" y2="631.274" gradientUnits="userSpaceOnUse">
<stop offset="0.46997" stop-color="#904BF6"/>
<stop offset="0.90795" stop-color="#CF0063"/>
</linearGradient>
<linearGradient id="paint3_linear_14311_9376" x1="1133.65" y1="640.518" x2="771.38" y2="598.322" gradientUnits="userSpaceOnUse">
<stop offset="0.46997" stop-color="#904BF6"/>
<stop offset="0.90795" stop-color="#CF0063"/>
</linearGradient>
<linearGradient id="paint4_linear_14311_9376" x1="1108.94" y1="613.213" x2="813.292" y2="581.53" gradientUnits="userSpaceOnUse">
<stop offset="0.46997" stop-color="#904BF6"/>
<stop offset="0.90795" stop-color="#CF0063"/>
</linearGradient>
<linearGradient id="paint5_linear_14311_9376" x1="1115.11" y1="577.194" x2="896.129" y2="555.348" gradientUnits="userSpaceOnUse">
<stop offset="0.46997" stop-color="#904BF6"/>
<stop offset="0.90795" stop-color="#CF0063"/>
</linearGradient>
<linearGradient id="paint6_linear_14311_9376" x1="976.549" y1="313.902" x2="937.984" y2="303.628" gradientUnits="userSpaceOnUse">
<stop offset="0.46997" stop-color="#904BF6"/>
<stop offset="0.90795" stop-color="#CF0063"/>
</linearGradient>
<linearGradient id="paint7_linear_14311_9376" x1="939.206" y1="383.807" x2="901.696" y2="374.273" gradientUnits="userSpaceOnUse">
<stop offset="0.46997" stop-color="#904BF6"/>
<stop offset="0.90795" stop-color="#CF0063"/>
</linearGradient>
<linearGradient id="paint8_linear_14311_9376" x1="1076.97" y1="254.846" x2="1037.94" y2="242.533" gradientUnits="userSpaceOnUse">
<stop offset="0.46997" stop-color="#904BF6"/>
<stop offset="0.90795" stop-color="#CF0063"/>
</linearGradient>
<linearGradient id="paint9_linear_14311_9376" x1="928.623" y1="422.051" x2="891.632" y2="412.992" gradientUnits="userSpaceOnUse">
<stop offset="0.46997" stop-color="#904BF6"/>
<stop offset="0.90795" stop-color="#CF0063"/>
</linearGradient>
<linearGradient id="paint10_linear_14311_9376" x1="1000.99" y1="286.659" x2="961.776" y2="275.805" gradientUnits="userSpaceOnUse">
<stop offset="0.46997" stop-color="#904BF6"/>
<stop offset="0.90795" stop-color="#CF0063"/>
</linearGradient>
<linearGradient id="paint11_linear_14311_9376" x1="928.157" y1="491.92" x2="891.05" y2="482.811" gradientUnits="userSpaceOnUse">
<stop offset="0.46997" stop-color="#904BF6"/>
<stop offset="0.90795" stop-color="#CF0063"/>
</linearGradient>
<linearGradient id="paint12_linear_14311_9376" x1="1052.98" y1="255.646" x2="1013.64" y2="243.259" gradientUnits="userSpaceOnUse">
<stop offset="0.46997" stop-color="#904BF6"/>
<stop offset="0.90795" stop-color="#CF0063"/>
</linearGradient>
<linearGradient id="paint13_linear_14311_9376" x1="1027.06" y1="266.892" x2="987.515" y2="255.301" gradientUnits="userSpaceOnUse">
<stop offset="0.46997" stop-color="#904BF6"/>
<stop offset="0.90795" stop-color="#CF0063"/>
</linearGradient>
<linearGradient id="paint14_linear_14311_9376" x1="955.465" y1="346.937" x2="917.55" y2="337.043" gradientUnits="userSpaceOnUse">
<stop offset="0.46997" stop-color="#904BF6"/>
<stop offset="0.90795" stop-color="#CF0063"/>
</linearGradient>
<linearGradient id="paint15_linear_14311_9376" x1="938.533" y1="518.484" x2="900.393" y2="508.58" gradientUnits="userSpaceOnUse">
<stop offset="0.46997" stop-color="#904BF6"/>
<stop offset="0.90795" stop-color="#CF0063"/>
</linearGradient>
<linearGradient id="paint16_linear_14311_9376" x1="924.545" y1="459.008" x2="888.283" y2="450.475" gradientUnits="userSpaceOnUse">
<stop offset="0.46997" stop-color="#904BF6"/>
<stop offset="0.90795" stop-color="#CF0063"/>
</linearGradient>
<linearGradient id="paint17_linear_14311_9376" x1="1146.67" y1="619.121" x2="832.751" y2="582.549" gradientUnits="userSpaceOnUse">
<stop offset="0.46997" stop-color="#904BF6"/>
<stop offset="0.90795" stop-color="#CF0063"/>
</linearGradient>
<linearGradient id="paint18_linear_14311_9376" x1="1102.49" y1="568.216" x2="883.58" y2="545.705" gradientUnits="userSpaceOnUse">
<stop offset="0.46997" stop-color="#904BF6"/>
<stop offset="0.90795" stop-color="#CF0063"/>
</linearGradient>
<linearGradient id="paint19_linear_14311_9376" x1="1102.48" y1="568.11" x2="883.487" y2="545.579" gradientUnits="userSpaceOnUse">
<stop offset="0.46997" stop-color="#904BF6"/>
<stop offset="0.90795" stop-color="#CF0063"/>
</linearGradient>
<linearGradient id="paint20_linear_14311_9376" x1="1173.28" y1="343.104" x2="1148.97" y2="340.425" gradientUnits="userSpaceOnUse">
<stop offset="0.46997" stop-color="#904BF6"/>
<stop offset="0.90795" stop-color="#CF0063"/>
</linearGradient>
<linearGradient id="paint21_linear_14311_9376" x1="1008.45" y1="650.498" x2="984.138" y2="647.819" gradientUnits="userSpaceOnUse">
<stop offset="0.46997" stop-color="#904BF6"/>
<stop offset="0.90795" stop-color="#CF0063"/>
</linearGradient>
<linearGradient id="paint22_linear_14311_9376" x1="950.143" y1="455.505" x2="939.512" y2="454.326" gradientUnits="userSpaceOnUse">
<stop offset="0.46997" stop-color="#904BF6"/>
<stop offset="0.90795" stop-color="#CF0063"/>
</linearGradient>
<clipPath id="clip0_14311_9376">
<rect width="1506" height="900" fill="white"/>
</clipPath>
</defs>
</svg>
