<?xml version="1.0" encoding="utf-8"?>
<!-- Generator: Adobe Illustrator 28.3.0, SVG Export Plug-In . SVG Version: 6.00 Build 0)  -->
<svg version="1.1" id="Layer_1" xmlns="http://www.w3.org/2000/svg" xmlns:xlink="http://www.w3.org/1999/xlink" x="0px" y="0px"
	 viewBox="0 0 375 812" style="enable-background:new 0 0 375 812;" xml:space="preserve">
<style type="text/css">
	.st0{clip-path:url(#SVGID_00000172439982047770480110000005408568695468552363_);}
	.st1{fill:none;}
	.st2{fill:#2F2F2F;}
	.st3{fill:#1C1C1C;}
	.st4{opacity:0.2;fill:url(#SVGID_00000143597385789004995050000008936486408553249946_);enable-background:new    ;}
	.st5{opacity:0.15;fill:url(#SVGID_00000111873276710770175060000008163276480760652171_);enable-background:new    ;}
	.st6{opacity:0.15;fill:url(#SVGID_00000168839066395005692830000000688133160096135043_);enable-background:new    ;}
	.st7{opacity:0.15;fill:url(#SVGID_00000072249609743708330960000002939970304714074772_);enable-background:new    ;}
	.st8{fill:url(#SVGID_00000078739455500656502030000017462314315007756988_);}
	.st9{opacity:0.3;fill:#FFFFFF;enable-background:new    ;}
	.st10{fill:url(#SVGID_00000039135971023294368540000007837691513046454914_);}
	.st11{opacity:0.15;enable-background:new    ;}
	.st12{fill:url(#SVGID_00000050646108880344830420000005222597744806233003_);}
	.st13{fill:url(#SVGID_00000181088111714486505380000011378081025959513224_);}
	.st14{fill:url(#SVGID_00000062181825515227758210000013906441827843062202_);}
	.st15{fill:url(#SVGID_00000062174282735782889050000008833297572987993522_);}
	.st16{fill:url(#SVGID_00000057869588502655020190000017209064564432721833_);}
	.st17{fill:url(#SVGID_00000101796502538730380030000008664630294074506908_);}
	.st18{fill:url(#SVGID_00000155130036103846107490000007621288401051103131_);}
	.st19{fill:url(#SVGID_00000040561793864503075270000016066353673630316214_);}
	.st20{fill:url(#SVGID_00000166643946503091080130000013012906155170080154_);}
	.st21{fill:url(#SVGID_00000122711286302393882330000016750270361541811870_);}
	.st22{fill:url(#SVGID_00000145781280125810661120000011365269764410147484_);}
	.st23{fill:url(#SVGID_00000062903344374894423140000013733365071317180092_);}
	.st24{opacity:0.15;}
	.st25{fill:#474747;}
	.st26{fill:url(#SVGID_00000060012021494545442550000004694495461610412429_);}
	.st27{opacity:0.9;fill:#FFFFFF;enable-background:new    ;}
	.st28{opacity:0.1;fill:url(#SVGID_00000090985673297696677610000014635590729638330023_);enable-background:new    ;}
	.st29{fill:url(#SVGID_00000102517972811313733030000006029869850520769708_);}
	.st30{fill:url(#SVGID_00000170248514213362317980000002694697782827319702_);}
	.st31{fill:url(#SVGID_00000098210700837837743950000008286287963128951189_);}
	.st32{fill:#E0E0E0;}
</style>
<g>
	<defs>
		<rect id="SVGID_1_" width="375" height="812"/>
	</defs>
	<clipPath id="SVGID_00000152971771352338553760000007930631425031168653_">
		<use xlink:href="#SVGID_1_"  style="overflow:visible;"/>
	</clipPath>
	<g style="clip-path:url(#SVGID_00000152971771352338553760000007930631425031168653_);">
		<rect width="375" height="812"/>
		<rect class="st1" width="375" height="93"/>
		
			<rect x="-406" y="217.3" transform="matrix(0.9659 -0.2588 0.2588 0.9659 -134.3628 182.7898)" class="st2" width="2066.1" height="768.8"/>
		
			<rect x="-665.2" y="-608.9" transform="matrix(0.9659 -0.2588 0.2588 0.9659 56.1452 107.8551)" class="st3" width="2205.8" height="899.1"/>
		
			<linearGradient id="SVGID_00000169553173084468069370000007410822984863160753_" gradientUnits="userSpaceOnUse" x1="419.8929" y1="339.8923" x2="51.11" y2="424.2692" gradientTransform="matrix(1 0 0 -1 0 812)">
			<stop  offset="0.47" style="stop-color:#904BF6"/>
			<stop  offset="0.9079" style="stop-color:#CF0063"/>
		</linearGradient>
		<path style="opacity:0.2;fill:url(#SVGID_00000169553173084468069370000007410822984863160753_);enable-background:new    ;" d="
			M230.6,388.4v-10l-14.5-8.4v-10l-14.5-8.4v-10l-14.5-8.4l-62.5,34.1l16.2,9.3v10l14.5,8.3v10l14.5,8.3v10l63.4,91.6
			c62.7-10.6,110.6-42.5,130.8-83.8c2.3-4.8,4.4-9.6,6.2-14.4L230.6,388.4z"/>
		
			<linearGradient id="SVGID_00000114041621009935164350000006949802635966821782_" gradientUnits="userSpaceOnUse" x1="254.2272" y1="504.5077" x2="15.545" y2="532.7977" gradientTransform="matrix(1 0 0 -1 0 812)">
			<stop  offset="0.47" style="stop-color:#904BF6"/>
			<stop  offset="0.9079" style="stop-color:#CF0063"/>
		</linearGradient>
		<path style="opacity:0.15;fill:url(#SVGID_00000114041621009935164350000006949802635966821782_);enable-background:new    ;" d="
			M141.6,193.2C99.3,217.5,65,282.7,65,338.9c0,33.4,12.1,56,30.8,63.8l7.7-4.5l76-43.9l7.9-4.6c18.6-29.3,30.6-65.7,30.6-99
			C218.1,194.7,183.9,168.8,141.6,193.2z"/>
		
			<linearGradient id="SVGID_00000010297083625794769640000002967193640931948700_" gradientUnits="userSpaceOnUse" x1="236.3171" y1="506.0447" x2="35.7158" y2="529.4948" gradientTransform="matrix(1 0 0 -1 0 812)">
			<stop  offset="0.47" style="stop-color:#904BF6"/>
			<stop  offset="0.9079" style="stop-color:#CF0063"/>
		</linearGradient>
		<path style="opacity:0.15;fill:url(#SVGID_00000010297083625794769640000002967193640931948700_);enable-background:new    ;" d="
			M141.6,209.4c-35.5,20.5-64.3,75.3-64.3,122.5c0,47.2,28.8,68.9,64.3,48.5s64.3-75.3,64.3-122.5
			C205.9,210.7,177.1,189,141.6,209.4z"/>
		
			<linearGradient id="SVGID_00000015320312207648283520000001460071067699336860_" gradientUnits="userSpaceOnUse" x1="223.3351" y1="507.5992" x2="50.2102" y2="527.7642" gradientTransform="matrix(1 0 0 -1 0 812)">
			<stop  offset="0.47" style="stop-color:#904BF6"/>
			<stop  offset="0.9079" style="stop-color:#CF0063"/>
		</linearGradient>
		<path style="opacity:0.15;fill:url(#SVGID_00000015320312207648283520000001460071067699336860_);enable-background:new    ;" d="
			M141.6,220.9C110.9,238.6,86,286.1,86,326.9s24.9,59.7,55.5,42c30.7-17.7,55.5-65.2,55.5-106.1S172.2,203.1,141.6,220.9z"/>
		
			<linearGradient id="SVGID_00000074411416808533476650000015485969856462305470_" gradientUnits="userSpaceOnUse" x1="209.2424" y1="509.1946" x2="67.9547" y2="524.3356" gradientTransform="matrix(1 0 0 -1 0 812)">
			<stop  offset="0.47" style="stop-color:#904BF6"/>
			<stop  offset="0.9079" style="stop-color:#CF0063"/>
		</linearGradient>
		<path style="fill:url(#SVGID_00000074411416808533476650000015485969856462305470_);" d="M108.8,328.9c0-35.4,21.5-76.6,48.1-91.9
			c11.7-6.8,22.4-7.4,30.8-2.9l-10.8-6.2c-8.4-4.9-19.5-4.5-31.5,2.5c-26.6,15.3-48.1,56.5-48.1,91.9c0,19.4,6.5,33,16.7,38.9
			c1.7,1,8.2,4.8,10.9,6.3C115,361.3,108.8,347.8,108.8,328.9z"/>
		<path class="st9" d="M108.8,328.9c0-35.4,21.5-76.6,48.1-91.9c11.7-6.8,22.4-7.4,30.8-2.9l-10.8-6.2c-8.4-4.9-19.5-4.5-31.5,2.5
			c-26.6,15.3-48.1,56.5-48.1,91.9c0,19.4,6.5,33,16.7,38.9c1.7,1,8.2,4.8,10.9,6.3C115,361.3,108.8,347.8,108.8,328.9z"/>
		
			<linearGradient id="SVGID_00000088121345954883425030000012389014165190117801_" gradientUnits="userSpaceOnUse" x1="209.3681" y1="505.6728" x2="104.7174" y2="516.1128" gradientTransform="matrix(1 0 0 -1 0 812)">
			<stop  offset="0.47" style="stop-color:#904BF6"/>
			<stop  offset="0.9079" style="stop-color:#CF0063"/>
		</linearGradient>
		<path style="fill:url(#SVGID_00000088121345954883425030000012389014165190117801_);" d="M175.8,244.4c4.2,5.6,6.4,14.5,5.9,26.1
			c-1.2,28.4-18.5,62.2-38.6,75.4c-6.1,4-11.8,5.7-16.7,5.2c6.1,8.1,16.3,9.3,28.2,1.4c20.1-13.2,37.4-47,38.6-75.4
			C194.2,257.4,187,245.4,175.8,244.4z"/>
		<path class="st11" d="M175.8,244.4c4.2,5.6,6.4,14.5,5.9,26.1c-1.2,28.4-18.5,62.2-38.6,75.4c-6.1,4-11.8,5.7-16.7,5.2
			c6.1,8.1,16.3,9.3,28.2,1.4c20.1-13.2,37.4-47,38.6-75.4C194.2,257.4,187,245.4,175.8,244.4z"/>
		
			<linearGradient id="SVGID_00000009567522851169732720000004812248213092074395_" gradientUnits="userSpaceOnUse" x1="136.0286" y1="553.8843" x2="117.5986" y2="558.7943" gradientTransform="matrix(1 0 0 -1 0 812)">
			<stop  offset="0.47" style="stop-color:#904BF6"/>
			<stop  offset="0.9079" style="stop-color:#CF0063"/>
		</linearGradient>
		<path style="fill:url(#SVGID_00000009567522851169732720000004812248213092074395_);" d="M121.1,253.1l11.6,6.7l0.9-1.2l-11.6-6.7
			C121.7,252.3,121.4,252.6,121.1,253.1z"/>
		
			<linearGradient id="SVGID_00000054231115469962970570000006948145449629690545_" gradientUnits="userSpaceOnUse" x1="118.1986" y1="520.7193" x2="100.2731" y2="525.2763" gradientTransform="matrix(1 0 0 -1 0 812)">
			<stop  offset="0.47" style="stop-color:#904BF6"/>
			<stop  offset="0.9079" style="stop-color:#CF0063"/>
		</linearGradient>
		<path style="fill:url(#SVGID_00000054231115469962970570000006948145449629690545_);" d="M115.8,291.8l-11.6-6.7
			c-0.2,0.4-0.3,0.9-0.5,1.4l11.6,6.7C115.4,292.7,115.6,292.2,115.8,291.8z"/>
		
			<linearGradient id="SVGID_00000079452106271724188610000014964415759241057448_" gradientUnits="userSpaceOnUse" x1="183.8168" y1="580.8923" x2="165.1658" y2="586.7763" gradientTransform="matrix(1 0 0 -1 0 812)">
			<stop  offset="0.47" style="stop-color:#904BF6"/>
			<stop  offset="0.9079" style="stop-color:#CF0063"/>
		</linearGradient>
		<path style="fill:url(#SVGID_00000079452106271724188610000014964415759241057448_);" d="M168.5,224.8l11.6,6.7
			c0.5,0.1,0.9,0.2,1.4,0.3l-11.6-6.7C169.5,225,169,224.9,168.5,224.8z"/>
		
			<linearGradient id="SVGID_00000082338252773601489980000003732827594281565569_" gradientUnits="userSpaceOnUse" x1="113.161" y1="502.6741" x2="95.4832" y2="507.0031" gradientTransform="matrix(1 0 0 -1 0 812)">
			<stop  offset="0.47" style="stop-color:#904BF6"/>
			<stop  offset="0.9079" style="stop-color:#CF0063"/>
		</linearGradient>
		<path style="fill:url(#SVGID_00000082338252773601489980000003732827594281565569_);" d="M110.5,311.4c0.1-0.5,0.2-1,0.3-1.5
			l-11.6-6.7c-0.1,0.5-0.2,1-0.3,1.5L110.5,311.4z"/>
		
			<linearGradient id="SVGID_00000008866061537842382640000012246285136579373447_" gradientUnits="userSpaceOnUse" x1="147.6808" y1="566.6699" x2="128.9428" y2="571.8569" gradientTransform="matrix(1 0 0 -1 0 812)">
			<stop  offset="0.47" style="stop-color:#904BF6"/>
			<stop  offset="0.9079" style="stop-color:#CF0063"/>
		</linearGradient>
		<path style="fill:url(#SVGID_00000008866061537842382640000012246285136579373447_);" d="M132.4,240.1l11.6,6.7
			c0.4-0.4,0.8-0.8,1.2-1.1l-11.6-6.7C133.2,239.3,132.8,239.7,132.4,240.1z"/>
		
			<linearGradient id="SVGID_00000034774080274861785240000005135709582148370612_" gradientUnits="userSpaceOnUse" x1="112.9392" y1="469.2779" x2="95.2064" y2="473.6319" gradientTransform="matrix(1 0 0 -1 0 812)">
			<stop  offset="0.47" style="stop-color:#904BF6"/>
			<stop  offset="0.9079" style="stop-color:#CF0063"/>
		</linearGradient>
		<path style="fill:url(#SVGID_00000034774080274861785240000005135709582148370612_);" d="M110.5,344.8c-0.1-0.4-0.2-0.9-0.3-1.4
			l-0.1-0.2l-11.5-6.6c0.1,0.5,0.2,1,0.3,1.5L110.5,344.8z"/>
		
			<linearGradient id="SVGID_00000066489221279859399490000012549359568950257077_" gradientUnits="userSpaceOnUse" x1="172.3643" y1="580.5513" x2="153.5674" y2="586.4713" gradientTransform="matrix(1 0 0 -1 0 812)">
			<stop  offset="0.47" style="stop-color:#904BF6"/>
			<stop  offset="0.9079" style="stop-color:#CF0063"/>
		</linearGradient>
		<path style="fill:url(#SVGID_00000066489221279859399490000012549359568950257077_);" d="M158.4,225.1c-0.5,0.1-1,0.2-1.5,0.3
			l11.6,6.7c0.5-0.1,1-0.2,1.5-0.3L158.4,225.1z"/>
		
			<linearGradient id="SVGID_00000077296014784585624380000002845067124743852479_" gradientUnits="userSpaceOnUse" x1="160.0804" y1="575.7177" x2="141.1844" y2="581.2578" gradientTransform="matrix(1 0 0 -1 0 812)">
			<stop  offset="0.47" style="stop-color:#904BF6"/>
			<stop  offset="0.9079" style="stop-color:#CF0063"/>
		</linearGradient>
		<path style="fill:url(#SVGID_00000077296014784585624380000002845067124743852479_);" d="M157.6,236.6l-11.6-6.7
			c-0.2,0.1-0.5,0.3-0.7,0.4l-0.7,0.4l11.6,6.7l0.7-0.4L157.6,236.6z"/>
		
			<linearGradient id="SVGID_00000158013762569660396240000011576689484752362888_" gradientUnits="userSpaceOnUse" x1="125.9562" y1="538.1895" x2="107.8372" y2="542.9174" gradientTransform="matrix(1 0 0 -1 0 812)">
			<stop  offset="0.47" style="stop-color:#904BF6"/>
			<stop  offset="0.9079" style="stop-color:#CF0063"/>
		</linearGradient>
		<path style="fill:url(#SVGID_00000158013762569660396240000011576689484752362888_);" d="M111.3,268.9l11.6,6.7l0.7-1.3l-11.6-6.7
			C111.7,268,111.5,268.4,111.3,268.9z"/>
		
			<linearGradient id="SVGID_00000072971603172040340080000003817534055400130495_" gradientUnits="userSpaceOnUse" x1="117.8757" y1="456.2685" x2="99.6487" y2="461.0015" gradientTransform="matrix(1 0 0 -1 0 812)">
			<stop  offset="0.47" style="stop-color:#904BF6"/>
			<stop  offset="0.9079" style="stop-color:#CF0063"/>
		</linearGradient>
		<path style="fill:url(#SVGID_00000072971603172040340080000003817534055400130495_);" d="M115.4,357.5c-0.3-0.4-0.5-0.9-0.8-1.4
			l-11.6-6.7c0.2,0.5,0.5,0.9,0.8,1.4L115.4,357.5z"/>
		
			<linearGradient id="SVGID_00000165205104628889105980000018176454648374045866_" gradientUnits="userSpaceOnUse" x1="111.2227" y1="485.2303" x2="93.8936" y2="489.3073" gradientTransform="matrix(1 0 0 -1 0 812)">
			<stop  offset="0.47" style="stop-color:#904BF6"/>
			<stop  offset="0.9079" style="stop-color:#CF0063"/>
		</linearGradient>
		<path style="fill:url(#SVGID_00000165205104628889105980000018176454648374045866_);" d="M97.3,322.3l11.6,6.7v-0.1
			c0-0.5,0-1,0-1.5l-11.6-6.7c0,0.5,0,1,0,1.5L97.3,322.3z"/>
		
			<linearGradient id="SVGID_00000111872592962800889880000014292997528530445749_" gradientUnits="userSpaceOnUse" x1="227.7914" y1="502.6473" x2="77.773" y2="520.1243" gradientTransform="matrix(1 0 0 -1 0 812)">
			<stop  offset="0.47" style="stop-color:#904BF6"/>
			<stop  offset="0.9079" style="stop-color:#CF0063"/>
		</linearGradient>
		<path style="fill:url(#SVGID_00000111872592962800889880000014292997528530445749_);" d="M156.9,237
			c-26.6,15.3-48.1,56.5-48.1,91.9c0,35.4,21.5,51.7,48.1,36.4c26.6-15.3,48.1-56.5,48.1-91.9C205,237.9,183.5,221.6,156.9,237z
			 M193.3,277.2c-1.2,28.4-18.5,62.2-38.6,75.4c-20.1,13.2-35.4,0.9-34.2-27.5c1.2-28.4,18.5-62.2,38.6-75.4
			S194.5,248.7,193.3,277.2z"/>
		<g class="st24">
			<path d="M147.1,260.3c0.4-0.4,0.8-0.9,1.2-1.3l-3-13.4c-0.4,0.4-0.8,0.7-1.2,1.1L147.1,260.3z"/>
			<path d="M156.2,237.4v14.3c0.5-0.4,0.9-0.7,1.4-1.1v-14.1l-0.7,0.4L156.2,237.4z"/>
			<path d="M166,246c0.5-0.2,1-0.4,1.6-0.6l2.4-13.7c-0.5,0.1-1,0.2-1.5,0.3L166,246z"/>
			<path d="M126.8,295.3l0.5-1.3l-11.5-2.2c-0.2,0.5-0.3,0.9-0.5,1.4L126.8,295.3z"/>
			<path d="M132.2,282.7l0.6-1.3l-9.4-7.1l-0.7,1.3L132.2,282.7z"/>
			<path d="M203.1,256.3l-10.2,9.6c0.1,0.6,0.2,1.1,0.2,1.7l10.4-9.7C203.3,257.4,203.2,256.8,203.1,256.3z"/>
			<path d="M120.9,320.4l-12,6.9c0,0.5,0,1,0,1.5v0.1l11.9-6.9C120.8,321.6,120.8,321,120.9,320.4z"/>
			<path d="M122.8,308.6c0.1-0.5,0.3-1,0.4-1.5l-12.5,2.8c-0.1,0.5-0.2,1-0.3,1.5L122.8,308.6z"/>
			<path d="M175.6,244.4c0.5,0,1,0.1,1.4,0.2l4.5-12.8c-0.5-0.1-0.9-0.2-1.4-0.3L175.6,244.4z"/>
			<path d="M189.7,255c0.2,0.5,0.4,1,0.7,1.5l8.4-11.3c-0.3-0.5-0.5-0.9-0.8-1.3L189.7,255z"/>
			<path d="M183.8,247.5c0.4,0.3,0.8,0.6,1.1,0.9l6.3-12.1c-0.4-0.3-0.8-0.6-1.2-0.9L183.8,247.5z"/>
			<path d="M139,270.9l0.9-1.3l-6.4-11l-0.9,1.2L139,270.9z"/>
			<path d="M167,341.6c-0.4,0.4-0.8,0.9-1.2,1.3l3,13.4c0.4-0.4,0.8-0.8,1.2-1.1L167,341.6z"/>
			<path d="M182.1,318.6c-0.2,0.4-0.4,0.9-0.7,1.3l9.4,7.1l0.7-1.3L182.1,318.6z"/>
			<path d="M175.2,330.7l-0.9,1.3l6.4,11c0.3-0.4,0.6-0.8,0.9-1.2L175.2,330.7z"/>
			<path d="M187.5,305.6c-0.2,0.5-0.3,0.9-0.5,1.4l11.5,2.2c0.2-0.5,0.3-0.9,0.5-1.4L187.5,305.6z"/>
			<path d="M191.3,292.1c-0.1,0.5-0.2,1-0.3,1.5l12.4-2.7c0.1-0.5,0.2-1,0.3-1.5L191.3,292.1z"/>
			<path d="M205,271.8l-11.8,6.8c0,0.6-0.1,1.1-0.1,1.7l11.9-6.9v-0.1C205,272.8,205,272.3,205,271.8z"/>
			<path d="M157.6,364.8v-14.3c-0.5,0.4-0.9,0.7-1.4,1.1v14.1l0.7-0.4C157.2,365.1,157.4,364.9,157.6,364.8z"/>
			<path d="M123.7,346.3c-0.2-0.5-0.4-1-0.6-1.5l-8.4,11.4c0.2,0.5,0.5,0.9,0.8,1.4L123.7,346.3z"/>
			<path d="M129.5,354.3c-0.4-0.3-0.7-0.6-1.1-1l-6.3,12.1c0.4,0.3,0.8,0.6,1.1,0.9L129.5,354.3z"/>
			<path d="M147.6,356.3c-0.5,0.2-1,0.4-1.5,0.5l-2.4,13.6c0.5-0.1,1-0.2,1.5-0.3L147.6,356.3z"/>
			<path d="M137.8,357.8c-0.5,0-1-0.1-1.4-0.2l-4.4,12.7c0.5,0.1,0.9,0.2,1.4,0.3L137.8,357.8z"/>
			<path d="M120.9,335.1c-0.1-0.6-0.1-1.2-0.2-1.8l-10.6,9.8c0.1,0.5,0.2,1.1,0.3,1.6L120.9,335.1z"/>
		</g>
		<path class="st3" d="M169.9,423.5l-55-31.7v-30.1l11.6,6.7l14.5,8.4v10l14.5,8.3v10l14.5,8.3V423.5z"/>
		<path class="st25" d="M126.5,368.4l60.7-35.1l14.5,8.4L141,376.7L126.5,368.4z"/>
		<path class="st2" d="M141,376.7v10l60.7-35.1v-10L141,376.7z"/>
		<path class="st25" d="M141,386.7l60.7-35.1l14.5,8.4l-60.7,35.1L141,386.7z"/>
		<path class="st2" d="M155.4,395.1v10l60.7-35.1v-10L155.4,395.1z"/>
		<path class="st25" d="M155.4,405.1l60.7-35.1l14.5,8.4l-60.7,35.1L155.4,405.1z"/>
		<path class="st2" d="M169.9,413.4v10l60.7-35.1v-10L169.9,413.4z"/>
		
			<linearGradient id="SVGID_00000086652897004074206130000015156779449680174493_" gradientUnits="userSpaceOnUse" x1="203.3335" y1="507.5159" x2="98.7188" y2="518.2739" gradientTransform="matrix(1 0 0 -1 0 812)">
			<stop  offset="0.47" style="stop-color:#904BF6"/>
			<stop  offset="0.9079" style="stop-color:#CF0063"/>
		</linearGradient>
		<path style="fill:url(#SVGID_00000086652897004074206130000015156779449680174493_);" d="M187.3,273.7
			c-1.2,28.4-18.5,62.2-38.6,75.4c-7.5,4.9-14.3,6.3-19.8,4.6c-5.7-5.2-8.9-15.1-8.4-28.7c1.2-28.4,18.5-62.2,38.6-75.4
			c7.5-4.9,14.3-6.3,19.8-4.6C184.7,250.2,187.9,260.1,187.3,273.7z"/>
		<path class="st27" d="M187.3,273.7c-1.2,28.4-18.5,62.2-38.6,75.4c-7.5,4.9-14.3,6.3-19.8,4.6c-5.7-5.2-8.9-15.1-8.4-28.7
			c1.2-28.4,18.5-62.2,38.6-75.4c7.5-4.9,14.3-6.3,19.8-4.6C184.7,250.2,187.9,260.1,187.3,273.7z"/>
		
			<linearGradient id="SVGID_00000015312272477554847350000011606533260004814471_" gradientUnits="userSpaceOnUse" x1="203.3272" y1="507.5289" x2="98.6749" y2="518.2969" gradientTransform="matrix(1 0 0 -1 0 812)">
			<stop  offset="0.47" style="stop-color:#904BF6"/>
			<stop  offset="0.9079" style="stop-color:#CF0063"/>
		</linearGradient>
		<path style="opacity:0.1;fill:url(#SVGID_00000015312272477554847350000011606533260004814471_);enable-background:new    ;" d="
			M148.6,334.6c-6.3,0.7-12.1,3.7-16.4,8.3c-2.3,2.5-4.2,5.3-5.6,8.4c0.7,0.9,1.4,1.7,2.2,2.4c1.2,0.4,2.4,0.6,3.7,0.6
			c0.3-0.8,0.6-1.7,0.9-2.5c1.4-3.8,3.9-7.1,7.2-9.5c3.3-2.4,7.2-3.8,11.3-3.9c2.8-0.1,5.5,0.4,8.3,0.6c1.1-1.2,2.2-2.4,3.2-3.8
			C158.5,335.1,153.5,334.1,148.6,334.6z M147.4,293c5.7,0.7,11.9,1.1,16.8-1.9c5.6-3.3,8.3-9.8,11-15.7c2.5-5.5,6-11.3,11.5-13.4
			c-1.1-7.7-3.9-13.5-7.8-17c-2.7-0.8-5.5-0.9-8.2-0.3c-2.8,3.1-4.8,6.9-5.9,10.9c-1.3,4.5-1.8,9.4-3.8,13.6
			c-2.1,4.3-5.7,7.6-10.1,9.4c-3.5,1.4-7.2,1.7-10.9,2.3c-2.6,0.4-5.1,0.9-7.6,1.7c-1.9,3.8-3.6,7.8-5.1,11.8c1-0.5,2-0.9,3.1-1.3
			C135.8,291.3,141.7,292.3,147.4,293z M153.2,264.6c1.8-3.1,2.4-6.8,3.4-10.3c0.4-1.3,0.8-2.6,1.2-3.9c-1.3,0.9-2.6,1.9-3.9,3
			c-1.8,4.5-3.6,8.9-7,12.3c-1.7,1.7-3.8,3-6,3.8c-0.4,0.1-0.9,0.2-1.3,0.3c-0.8,1.2-1.6,2.5-2.4,3.7c1.8-0.1,3.6-0.5,5.4-0.9
			C147.1,271.4,150.8,268.5,153.2,264.6L153.2,264.6z M187.3,269.6c-1.6,0.8-3,1.9-4.3,3.2c-3,3.3-4.6,7.6-6.5,11.7
			c-2.6,5.8-5.9,11.8-11.6,14.8c-3.7,2-8.1,2.5-12.3,2.6c-8,0.2-16.1-0.8-23.9,0.9c-1.7,0.4-3.3,0.9-4.9,1.6c-0.5,1.9-1,3.9-1.4,5.8
			c1.8-1,3.7-1.7,5.7-2.2c11.5-2.9,24.3,3.5,35.4-0.8c8.1-3.2,13.1-11.2,17-19c1.6-3.2,3.4-6.5,6.2-8.6c0.2-1.9,0.4-3.8,0.5-5.7
			C187.4,272.3,187.4,270.9,187.3,269.6L187.3,269.6z M158.5,316.9c-6.2,0.2-12.5-0.4-18.7-0.4c-3.2-0.2-6.4,0.2-9.5,1
			c-2.7,0.9-5.3,2.3-7.6,4c-0.7,0.5-1.4,1-2.1,1.5c0,0.7-0.1,1.4-0.1,2.1c-0.3,8.2,0.7,15.1,2.8,20.4c1.4-1.2,2.6-2.6,3.7-4.1
			c4.3-5.8,8.4-12.2,14.9-15.3c7-3.3,15.2-2.1,22.8-3.7c3.3-0.7,6.5-1.9,9.5-3.6c1.2-2.3,2.3-4.5,3.4-6.9c-0.3,0.2-0.7,0.4-1,0.6
			C171.1,315.5,164.8,316.6,158.5,316.9L158.5,316.9z"/>
		
			<linearGradient id="SVGID_00000129167947399013068560000010363554839594590137_" gradientUnits="userSpaceOnUse" x1="234.9459" y1="509.3289" x2="223.3259" y2="510.6089" gradientTransform="matrix(1 0 0 -1 0 812)">
			<stop  offset="0.47" style="stop-color:#904BF6"/>
			<stop  offset="0.9079" style="stop-color:#CF0063"/>
		</linearGradient>
		<path style="fill:url(#SVGID_00000129167947399013068560000010363554839594590137_);" d="M229.6,296.4c0,2.8-0.5,5.2-3.9,5.8
			c3.5,0.1,3.7,2.4,3.9,5.6c0.1-3.2,0.4-5.5,3.5-5.6C229.9,301.6,229.6,299.1,229.6,296.4z"/>
		
			<linearGradient id="SVGID_00000163771904980707874310000000435176768992242064_" gradientUnits="userSpaceOnUse" x1="156.176" y1="362.4294" x2="144.557" y2="363.7094" gradientTransform="matrix(1 0 0 -1 0 812)">
			<stop  offset="0.47" style="stop-color:#904BF6"/>
			<stop  offset="0.9079" style="stop-color:#CF0063"/>
		</linearGradient>
		<path style="fill:url(#SVGID_00000163771904980707874310000000435176768992242064_);" d="M150.9,443.3c0,2.8-0.5,5.2-3.9,5.8
			c3.5,0.1,3.7,2.4,3.9,5.6c0.1-3.2,0.4-5.5,3.5-5.6C151.2,448.5,150.9,446,150.9,443.3z"/>
		
			<linearGradient id="SVGID_00000087394129735129422360000000446923501751981985_" gradientUnits="userSpaceOnUse" x1="127.8061" y1="451.01" x2="122.7261" y2="451.5731" gradientTransform="matrix(1 0 0 -1 0 812)">
			<stop  offset="0.47" style="stop-color:#904BF6"/>
			<stop  offset="0.9079" style="stop-color:#CF0063"/>
		</linearGradient>
		<path style="fill:url(#SVGID_00000087394129735129422360000000446923501751981985_);" d="M125.5,358.2c0,1.2-0.2,2.3-1.7,2.5
			c1.5,0.1,1.6,1.1,1.7,2.4c0-1.4,0.2-2.4,1.5-2.4C125.6,360.5,125.5,359.5,125.5,358.2z"/>
		<path class="st32" d="M118.8,363c0,2.8-0.5,5.2-3.9,5.8c3.5,0.1,3.7,2.4,3.9,5.6c0.1-3.2,0.4-5.5,3.5-5.6
			C119.1,368.3,118.8,365.7,118.8,363z"/>
		<path class="st32" d="M115.7,349.2c0,1.4-0.3,2.7-2,3c1.8,0.1,1.9,1.3,2,2.9c0.1-1.6,0.2-2.8,1.8-2.9
			C115.8,351.9,115.7,350.6,115.7,349.2z"/>
		<path class="st32" d="M220.3,288.1c0,1.6,0,3.2-2.4,3.5c2.4,0,2.3,1.5,2.4,3.5c0.1-1.9,0.2-3.3,2.2-3.4
			C220.5,291.3,220.5,290.4,220.3,288.1z"/>
		<path class="st32" d="M240.5,363.2c-0.2,3-0.4,4.4-3.2,4.7c2.8,0.2,3,2,3.2,4.6c0.1-2.6,0.3-4.5,2.9-4.6
			C240.8,367.5,240.7,366.3,240.5,363.2z"/>
		<path class="st32" d="M139.7,443.3c-0.1,1.8-0.2,2.5-1.8,2.8c1.6,0.1,1.8,1.2,1.9,2.7c0-1.5,0.2-2.6,1.7-2.7
			C139.9,445.8,139.8,445.1,139.7,443.3z"/>
		<path class="st32" d="M234.8,293.5c0,1,0,1.9-1.4,2.1c1.5,0,1.4,0.9,1.5,2.1c0-1.2,0.1-2,1.3-2.1
			C234.9,295.5,234.9,294.9,234.8,293.5z"/>
		<path class="st32" d="M237.8,372c0,1,0,1.9-1.4,2.1c1.5,0,1.4,0.9,1.4,2.1c0-1.2,0.1-2,1.3-2.1C237.9,374,238,373.4,237.8,372z"/>
		<path class="st32" d="M147.2,439.4c0,1,0,1.9-1.4,2.1c1.5,0,1.4,0.9,1.5,2.1c0-1.2,0.1-2,1.3-2.1
			C147.3,441.4,147.3,440.8,147.2,439.4z"/>
	</g>
</g>
</svg>
