<svg width="32" height="32" viewBox="0 0 32 32" fill="none" xmlns="http://www.w3.org/2000/svg">
<g opacity="0.6">
<path d="M16.5085 9.05138H7.55932C7.25042 9.05138 7 9.31745 7 9.64566V10.8342C7 11.1624 7.25042 11.4285 7.55932 11.4285H16.5085C16.8174 11.4285 17.0678 11.1624 17.0678 10.8342V9.64566C17.0678 9.31745 16.8174 9.05138 16.5085 9.05138Z" fill="#904BF6"/>
<path fill-rule="evenodd" clip-rule="evenodd" d="M11.6144 4C11.3055 4 11.0551 4.26607 11.0551 4.59428V21.8284H11.0588C11.1692 25.1304 13.7234 27.7712 16.8581 27.7712C16.9754 27.7712 17.092 27.7675 17.2076 27.7602V25.8392C15.109 25.8009 13.4057 24.0388 13.2978 21.8284H13.2924V4.59428C13.2924 4.26607 13.042 4 12.7331 4H11.6144Z" fill="#904BF6"/>
<path fill-rule="evenodd" clip-rule="evenodd" d="M18.8475 17.2227C18.4967 17.2227 18.1572 17.171 17.835 17.0741H18.8475V15.2863C19.8634 15.2128 20.6653 14.3451 20.6653 13.2856C20.6653 12.2261 19.8634 11.3584 18.8475 11.2849V9.05136C20.9326 9.05136 22.6229 10.8806 22.6229 13.137C22.6229 15.3935 20.9326 17.2227 18.8475 17.2227ZM18.428 9.05136C18.1191 9.05136 17.8686 9.31744 17.8686 9.64564V10.6856C17.8686 11.0138 18.1191 11.2799 18.428 11.2799H18.8475V9.05136H18.428Z" fill="#904BF6"/>
<path d="M15.072 15.8856C15.072 15.5574 15.3225 15.2913 15.6314 15.2913H19.2669V17.6684H15.6314C15.3225 17.6684 15.072 17.4024 15.072 17.0742V15.8856Z" fill="#904BF6"/>
<path fill-rule="evenodd" clip-rule="evenodd" d="M19.2669 27.7712C22.4333 27.7712 25 25.0773 25 21.7541C25 18.431 22.4333 15.737 19.2669 15.737V17.6691C21.3584 17.7087 23.0424 19.5224 23.0424 21.7541C23.0424 23.9858 21.3584 25.7995 19.2669 25.8392V27.7712Z" fill="#904BF6"/>
<path d="M18.7076 26.4341C18.7076 26.1059 18.9581 25.8398 19.267 25.8398L19.2669 27.7712C18.958 27.7712 18.7076 27.5051 18.7076 27.1769V26.4341Z" fill="#904BF6"/>
<path d="M17.0678 25.8398H17.3475C17.6564 25.8398 17.9068 26.1059 17.9068 26.4341V27.1769C17.9068 27.5051 17.6564 27.7712 17.3475 27.7712H17.0678V25.8398Z" fill="#904BF6"/>
</g>
</svg>
