<svg width="72" height="72" viewBox="0 0 72 72" fill="none" xmlns="http://www.w3.org/2000/svg">
    <path d="M43.6032 33.4605V35.4922M43.6032 43.6192V45.6509M43.6032 53.7779V55.8097M43.6032 63.9366V65.9684M19.2222 51.7462H33.4444M19.2222 57.8414H27.3492M8.04762 31.4287C6.36533 31.4287 5 32.794 5 34.4763V42.6737C6.23732 43.3861 7.26506 44.412 7.97967 45.6481C8.69429 46.8841 9.07055 48.2867 9.07055 49.7144C9.07055 51.1422 8.69429 52.5447 7.97967 53.7808C7.26506 55.0168 6.23732 56.0427 5 56.7551V64.9525C5 66.6348 6.36533 68.0001 8.04762 68.0001H54.7778C56.4601 68.0001 57.8254 66.6348 57.8254 64.9525V56.7551C56.5881 56.0427 55.5603 55.0168 54.8457 53.7808C54.1311 52.5447 53.7549 51.1422 53.7549 49.7144C53.7549 48.2867 54.1311 46.8841 54.8457 45.6481C55.5603 44.412 56.5881 43.3861 57.8254 42.6737V34.4763C57.8254 32.794 56.4601 31.4287 54.7778 31.4287H8.04762Z" stroke="white" stroke-width="0.6" stroke-linecap="round" stroke-linejoin="round"/>
    <path fill-rule="evenodd" clip-rule="evenodd" d="M22.3057 7.84525C23.6717 5.72062 26.5006 5.10757 28.6232 6.47224L63.9995 29.2169C66.1221 30.5815 66.7372 33.4118 65.3725 35.5344L61.3826 41.7401C61.2091 42.0104 60.9675 42.2302 60.682 42.3774C60.3966 42.5246 60.0774 42.594 59.7566 42.5787C58.7941 42.5315 57.8362 42.7388 56.9794 43.1797C56.1226 43.6206 55.3971 44.2795 54.876 45.09C54.3548 45.9005 54.0565 46.8341 54.011 47.7966C53.9656 48.7591 54.1745 49.7166 54.6169 50.5727C54.764 50.8582 54.8334 51.1774 54.8179 51.4982C54.8025 51.819 54.7028 52.1301 54.5289 52.4002L50.5391 58.6059C49.1744 60.7285 46.3442 61.3436 44.2216 59.9789L8.84524 37.2343C7.82542 36.5786 7.10783 35.5446 6.85034 34.3599C6.59285 33.1751 6.81655 31.9366 7.47223 30.9168L11.4621 24.7111C11.6353 24.4408 11.8765 24.221 12.1616 24.0736C12.4467 23.9261 12.7655 23.8563 13.0861 23.8712C14.0486 23.9183 15.0065 23.711 15.8633 23.2701C16.7201 22.8292 17.4456 22.1704 17.9667 21.3598C18.4879 20.5493 18.7862 19.6157 18.8317 18.6532C18.8771 17.6907 18.6681 16.7332 18.2258 15.8771C18.0792 15.5916 18.0104 15.2725 18.0262 14.952C18.042 14.6314 18.1419 14.3207 18.3158 14.051L22.3057 7.84525ZM54.5511 25.316C54.959 25.5783 55.246 25.9919 55.349 26.4658C55.452 26.9397 55.3625 27.4351 55.1003 27.843L54.1114 29.3811C53.8491 29.7891 53.4355 30.0761 52.9616 30.1791C52.4877 30.2821 51.9923 30.1926 51.5844 29.9303C51.1764 29.6681 50.8894 29.2545 50.7864 28.7806C50.6834 28.3067 50.7729 27.8113 51.0352 27.4033L52.0241 25.8652C52.2863 25.4573 52.6999 25.1703 53.1738 25.0673C53.6477 24.9643 54.1431 25.0538 54.5511 25.316ZM50.1558 35.5335C50.418 35.1256 50.5075 34.6302 50.4045 34.1563C50.3015 33.6824 50.0145 33.2688 49.6066 33.0065C49.1986 32.7443 48.7032 32.6548 48.2293 32.7578C47.7554 32.8608 47.3418 33.1478 47.0796 33.5557L46.0907 35.0938C45.8284 35.5018 45.7389 35.9972 45.8419 36.4711C45.9449 36.945 46.232 37.3586 46.6399 37.6208C47.0478 37.8831 47.5432 37.9726 48.0171 37.8696C48.491 37.7666 48.9046 37.4796 49.1669 37.0716L50.1558 35.5335ZM44.6621 40.6971C45.07 40.9593 45.3571 41.3729 45.46 41.8468C45.563 42.3207 45.4736 42.8161 45.2113 43.224L44.2224 44.7622C43.9601 45.1701 43.5465 45.4571 43.0726 45.5601C42.5987 45.6631 42.1033 45.5736 41.6954 45.3114C41.2875 45.0491 41.0004 44.6355 40.8974 44.1616C40.7944 43.6877 40.8839 43.1923 41.1462 42.7844L42.1351 41.2463C42.3974 40.8383 42.8109 40.5513 43.2848 40.4483C43.7587 40.3453 44.2542 40.4348 44.6621 40.6971ZM40.2668 50.9146C40.5291 50.5066 40.6186 50.0112 40.5156 49.5373C40.4126 49.0634 40.1255 48.6498 39.7176 48.3876C39.3097 48.1253 38.8143 48.0358 38.3404 48.1388C37.8665 48.2418 37.4529 48.5288 37.1906 48.9368L36.2017 50.4749C35.9394 50.8828 35.85 51.3782 35.953 51.8521C36.0559 52.326 36.343 52.7396 36.7509 53.0019C37.1588 53.2641 37.6543 53.3536 38.1282 53.2506C38.6021 53.1476 39.0156 52.8606 39.2779 52.4527L40.2668 50.9146ZM24.1176 25.3144C24.3798 24.9065 24.7934 24.6194 25.2673 24.5164C25.7412 24.4134 26.2366 24.5029 26.6446 24.7652L37.4113 31.6875C37.8192 31.9497 38.1062 32.3633 38.2092 32.8372C38.3122 33.3111 38.2227 33.8065 37.9605 34.2145C37.6982 34.6224 37.2846 34.9094 36.8107 35.0124C36.3368 35.1154 35.8414 35.0259 35.4335 34.7637L24.6668 27.8414C24.2588 27.5791 23.9718 27.1655 23.8688 26.6916C23.7658 26.2177 23.8553 25.7223 24.1176 25.3144ZM22.689 30.9176C22.281 30.6553 21.7856 30.5658 21.3117 30.6688C20.8378 30.7718 20.4243 31.0589 20.162 31.4668C19.8997 31.8747 19.8102 32.3701 19.9132 32.844C20.0162 33.3179 20.3033 33.7315 20.7112 33.9938L26.8636 37.9494C27.2715 38.2117 27.7669 38.3011 28.2408 38.1981C28.7147 38.0951 29.1283 37.8081 29.3906 37.4002C29.6529 36.9923 29.7423 36.4968 29.6393 36.0229C29.5363 35.549 29.2493 35.1355 28.8414 34.8732L22.689 30.9176Z" fill="white"/>
    </svg>
    