<svg width="72" height="72" viewBox="0 0 72 72" fill="none" xmlns="http://www.w3.org/2000/svg">
    <path d="M60.4157 33.26C66.1945 36.3439 69.7686 40.5523 69.8439 45.2409C70.0015 55.0568 54.7645 63.2609 35.811 63.5653C16.8576 63.8696 1.36495 56.159 1.20733 46.3431C1.12567 41.2582 5.17529 36.6057 11.7327 33.26" stroke="white" stroke-width="0.6" stroke-miterlimit="10"/>
    <path d="M52.1497 66.0001C55.8094 66.0001 58.7761 63.0334 58.7761 59.3738C58.7761 55.7141 55.8094 52.7474 52.1497 52.7474C48.4901 52.7474 45.5234 55.7141 45.5234 59.3738C45.5234 63.0334 48.4901 66.0001 52.1497 66.0001Z" fill="white" stroke="white" stroke-width="0.6" stroke-miterlimit="10"/>
    <path d="M60.7582 28.8987C60.7582 41.5451 51.2187 51.7941 39.4507 51.7941H33.2525C23.713 51.7941 18.1431 39.5728 18.1431 28.8987C18.1431 18.2247 22.4721 5.76583 32.4117 6.00338C34.1027 6.04401 37.9785 6.00338 39.4507 6.00338C51.2187 6.00338 60.7582 16.2555 60.7582 28.8987Z" stroke="white" stroke-width="0.6" stroke-miterlimit="10"/>
    <path d="M33.256 51.7939C45.0238 51.7939 54.5635 41.5433 54.5635 28.8985C54.5635 16.2538 45.0238 6.00317 33.256 6.00317C21.4881 6.00317 11.9484 16.2538 11.9484 28.8985C11.9484 41.5433 21.4881 51.7939 33.256 51.7939Z" fill="white" stroke="white" stroke-width="0.6" stroke-miterlimit="10"/>
    <path d="M45.2084 21.7985H37.1564L25.356 28.6011M25.356 28.6011L21.0523 35.6813M25.356 28.6011L21.0523 21.7985M25.356 28.6011L37.1564 35.2648L45.2084 35.6813" stroke="black" stroke-width="0.6"/>
    <path d="M45.2084 21.6598L33.408 14.8572L21.0523 21.6598V35.6815L32.8527 42.6229L45.2084 35.6815V21.6598Z" stroke="black" stroke-width="0.6"/>
    <path d="M33.5471 14.8571L37.0178 21.7986V35.2649L32.853 42.6229" stroke="black" stroke-width="0.6"/>
    </svg>
    