<svg width="72" height="72" viewBox="0 0 72 72" fill="none" xmlns="http://www.w3.org/2000/svg">
    <path d="M17.0001 21.0002C17.0001 18.0827 18.1591 15.2848 20.222 13.2219C22.2849 11.1589 25.0829 10 28.0003 10C30.9177 10 33.7157 11.1589 35.7786 13.2219C37.8415 15.2848 39.0005 18.0827 39.0005 21.0002C39.0005 23.9176 37.8415 26.7155 35.7786 28.7785C33.7157 30.8414 30.9177 32.0003 28.0003 32.0003C25.0829 32.0003 22.2849 30.8414 20.222 28.7785C18.1591 26.7155 17.0001 23.9176 17.0001 21.0002ZM9 55.0007C9 49.9615 11.0018 45.1287 14.5651 41.5655C18.1283 38.0022 22.9611 36.0004 28.0003 36.0004C33.0395 36.0004 37.8723 38.0022 41.4355 41.5655C44.9988 45.1287 47.0006 49.9615 47.0006 55.0007V55.0087L46.9979 55.326C46.9923 55.6652 46.9004 55.9973 46.7311 56.2912C46.5618 56.5851 46.3205 56.8311 46.0299 57.0061C40.5877 60.2833 34.3531 62.0105 28.0003 62.0008C21.4082 62.0008 15.2374 60.1768 9.97335 57.0061C9.68228 56.8314 9.44045 56.5855 9.27063 56.2916C9.10082 55.9977 9.0086 55.6654 9.00267 55.326L9 55.0007Z" fill="white"/>
    <path d="M45.0006 55.0087C47.2752 55.6691 49.6321 56.0031 52.0007 56.0007C55.8098 56.0062 59.5694 55.1377 62.9902 53.462C63.0913 51.0718 62.4105 48.7138 61.0509 46.7454C59.6913 44.777 57.7271 43.3055 55.4559 42.5538C53.1848 41.8022 50.7305 41.8115 48.465 42.5802C46.1996 43.349 44.2466 44.8353 42.9019 46.8139M45.0006 55.0087V55.0007C45.0006 52.0326 44.2379 49.2406 42.9019 46.8139M45.0006 55.0087V55.2913C39.8684 58.3823 33.9887 60.0109 27.9976 60.0008C21.7815 60.0008 15.9655 58.2807 11 55.2913L10.9974 55.0007C10.9953 51.2259 12.2497 47.5577 14.5627 44.5746C16.8757 41.5914 20.1158 39.4629 23.7722 38.5247C27.4286 37.5865 31.2932 37.8918 34.7568 39.3927C38.2205 40.8935 41.0861 43.5045 42.9019 46.8139M37.0004 21.0002C37.0004 23.3872 36.0522 25.6764 34.3644 27.3642C32.6765 29.0521 30.3873 30.0003 28.0003 30.0003C25.6133 30.0003 23.3241 29.0521 21.6362 27.3642C19.9484 25.6764 19.0002 23.3872 19.0002 21.0002C19.0002 18.6132 19.9484 16.324 21.6362 14.6361C23.3241 12.9483 25.6133 12 28.0003 12C30.3873 12 32.6765 12.9483 34.3644 14.6361C36.0522 16.324 37.0004 18.6132 37.0004 21.0002ZM59.0008 27.0003C59.0008 28.8568 58.2633 30.6373 56.9505 31.9501C55.6377 33.2629 53.8572 34.0004 52.0007 34.0004C50.1441 34.0004 48.3636 33.2629 47.0508 31.9501C45.7381 30.6373 45.0006 28.8568 45.0006 27.0003C45.0006 25.1437 45.7381 23.3632 47.0508 22.0504C48.3636 20.7377 50.1441 20.0002 52.0007 20.0002C53.8572 20.0002 55.6377 20.7377 56.9505 22.0504C58.2633 23.3632 59.0008 25.1437 59.0008 27.0003Z" stroke="white" stroke-width="0.6" stroke-linecap="round" stroke-linejoin="round"/>
    </svg>
    