<svg width="120" height="120" viewBox="0 0 120 120" fill="none" xmlns="http://www.w3.org/2000/svg">
    <path
        d="M21.6685 54.6297C29.0239 48.2965 39.0738 42.4036 50.7501 38.0405C78.4975 27.6798 104.95 29.8766 109.833 42.944C112.188 49.2511 109.092 56.9355 102.142 64.3627"
        stroke="white" stroke-width="0.5" stroke-miterlimit="10" />
    <path
        d="M34.7615 91.9042C21.8208 91.7909 12.1197 87.8767 9.35105 80.4669C7.45442 75.3847 9.09381 69.4089 13.4408 63.3895"
        stroke="white" stroke-width="0.5" stroke-miterlimit="10" />
    <path d="M14.1338 58.7229H20.9442" stroke="white" stroke-width="0.5" stroke-miterlimit="10" />
    <path d="M17.5391 55.1062V62.0453" stroke="white" stroke-width="0.5" stroke-miterlimit="10" />
    <path d="M15.0845 56.2166L19.9939 61.1288" stroke="white" stroke-width="0.5"
        stroke-miterlimit="10" />
    <path d="M19.9944 56.2678L15.085 61.1757" stroke="white" stroke-width="0.5"
        stroke-miterlimit="10" />
    <path
        d="M34.762 91.9022C34.701 91.5361 34.6748 91.1656 34.6748 90.7907V77.0782C34.6748 70.6622 51.1428 77.0782 62.2217 77.0782C72.6815 77.0782 89.7686 71.2071 89.7686 77.0782V90.7907C89.7686 94.4172 86.9345 97.7167 82.3129 100.171"
        stroke="white" stroke-width="0.5" stroke-miterlimit="10" />
    <path
        d="M58.9598 88.3965C45.2823 87.5945 34.6699 81.8018 34.6699 74.7799V61.0674C34.6699 54.6514 51.1379 61.0674 62.2168 61.0674C72.6766 61.0674 89.7637 55.1962 89.7637 61.0674V74.7799C89.7637 81.0956 81.1874 86.4133 69.5112 88.0042"
        fill="black" />
    <path
        d="M58.9598 88.3965C45.2823 87.5945 34.6699 81.8018 34.6699 74.7799V61.0674C34.6699 54.6514 51.1379 61.0674 62.2168 61.0674C72.6766 61.0674 89.7637 55.1962 89.7637 61.0674V74.7799C89.7637 81.0956 81.1874 86.4133 69.5112 88.0042"
        stroke="white" stroke-width="0.5" stroke-miterlimit="10" />
    <path
        d="M89.7681 61.274C89.7681 68.8451 77.4335 74.9865 62.2212 74.9865C47.0089 74.9865 34.6743 68.8494 34.6743 61.274V47.5615C34.6743 41.1455 51.1423 47.5615 62.2212 47.5615C72.681 47.5615 89.7681 41.6903 89.7681 47.5615V61.274Z"
        fill="black" stroke="white" stroke-width="0.5" stroke-miterlimit="10" />
    <path
        d="M89.7686 46.7075C89.7686 54.2785 77.4339 60.42 62.2217 60.42C47.0094 60.42 34.6748 54.2829 34.6748 46.7075V32.995C34.6748 26.579 51.1428 32.995 62.2217 32.995C72.6815 32.995 89.7686 27.1238 89.7686 32.995V46.7075Z"
        fill="black" stroke="white" stroke-width="0.5" stroke-miterlimit="10" />
    <path
        d="M62.2227 46.7111C77.4364 46.7111 89.7695 40.5718 89.7695 32.9986C89.7695 25.4254 77.4364 19.2861 62.2227 19.2861C47.0089 19.2861 34.6758 25.4254 34.6758 32.9986C34.6758 40.5718 47.0089 46.7111 62.2227 46.7111Z"
        fill="white" stroke="white" stroke-width="0.5" stroke-miterlimit="10" />
    <path
        d="M102.142 64.3623C94.6859 72.33 82.7917 80.0057 68.434 85.3669C56.4177 89.852 44.6455 91.9834 34.7612 91.9006"
        stroke="white" stroke-width="0.5" stroke-miterlimit="10" />
    <path
        d="M68.5262 84.2728C70.3531 94.9734 79.9103 102.27 89.8687 100.57C91.4209 100.304 93.1082 100.016 95.1139 99.6764C103.189 98.2991 106.136 87.1495 104.597 78.1183C102.997 68.7558 97.5904 59.1666 89.2104 60.8011C87.7846 61.0801 84.4971 61.6031 83.2501 61.8167C73.2874 63.5166 66.695 73.5678 68.5219 84.2684L68.5262 84.2728Z"
        fill="white" stroke="black" stroke-width="0.5" stroke-miterlimit="10" />
    <path
        d="M95.1095 99.6866C105.07 97.9882 111.664 87.9356 109.837 77.2335C108.011 66.5314 98.4568 59.2325 88.4967 60.9309C78.5367 62.6293 71.9427 72.6819 73.7688 83.384C75.5949 94.0861 85.1494 101.385 95.1095 99.6866Z"
        fill="white" stroke="black" stroke-width="0.5" stroke-miterlimit="10" />
    <path
        d="M104.244 74.6975C104.244 74.6975 103.202 72.0518 100.979 72.431C98.755 72.8102 98.5239 75.6695 98.5239 75.6695"
        stroke="black" stroke-width="0.5" stroke-miterlimit="10" stroke-linecap="round" />
    <path
        d="M87.2927 77.4735C87.2927 77.4735 86.0981 74.8539 83.2771 75.3377C80.4562 75.8215 80.0376 78.7113 80.0376 78.7113"
        stroke="black" stroke-width="0.5" stroke-miterlimit="10" stroke-linecap="round" />
    <path
        d="M103.067 79.8762C103.067 79.8762 103.071 88.136 95.2799 89.8577C87.4885 91.5793 82.7578 83.3414 82.7578 83.3414"
        stroke="black" stroke-width="0.5" stroke-miterlimit="10" stroke-linecap="round" />
</svg>